<svg width="890" height="1480" viewBox="0 0 890 1480" fill="none" xmlns="http://www.w3.org/2000/svg">
<g opacity="0.05">
<path d="M267.944 685.597L-43.3239 685.597L-43.324 1479.81L267.944 1479.81L267.944 685.597Z" fill="#192E1E"/>
<path d="M-666 527.859L-666 1479.81L-354.957 1479.81L-354.957 364.844C-354.957 362.006 -354.451 359.196 -353.466 356.574C-352.482 353.952 -351.039 351.569 -349.22 349.562C-347.401 347.555 -345.242 345.964 -342.865 344.878C-340.489 343.792 -337.942 343.233 -335.369 343.233L559.145 343.233C561.717 343.233 564.264 343.792 566.641 344.878C569.017 345.964 571.177 347.556 572.996 349.562C574.815 351.569 576.257 353.952 577.242 356.574C578.226 359.196 578.733 362.006 578.733 364.844L578.733 1479.81L890 1479.81L890 527.859C890 387.862 839.593 253.599 749.868 154.607C660.143 55.6139 538.45 0.000239704 411.56 0.000217915L-187.391 0.000115065C-250.234 -0.0243669 -312.467 13.6109 -370.533 40.1274C-428.6 66.6438 -481.363 105.522 -525.808 154.54C-570.253 203.559 -605.51 261.758 -629.564 325.813C-653.619 389.868 -666 458.524 -666 527.859Z" fill="#192E1E"/>
</g>
</svg>
