<svg width="496" height="496" viewBox="0 0 496 496" fill="none" xmlns="http://www.w3.org/2000/svg">
<path d="M336.5 65.0851C341.906 70.4709 348.145 74.9501 354.976 78.3505C357.142 79.4485 359.328 80.4466 361.534 81.345L362.133 81.5845C362.956 81.9139 363.765 82.2433 364.588 82.5427L366.385 83.2165L367.523 83.6208L369.978 84.4592L370.248 84.549C374.141 85.8367 378.034 86.9895 381.866 88.1124C395.955 92.2448 409.251 96.1375 419.911 106.798C430.571 117.458 434.464 130.753 438.596 144.842C439.734 148.72 440.887 152.643 442.204 156.58C442.489 157.464 442.803 158.347 443.103 159.231C443.223 159.545 443.342 159.859 443.447 160.174L444.166 162.135C444.45 162.884 444.75 163.632 445.034 164.351C445.154 164.621 445.259 164.89 445.364 165.175C446.262 167.36 447.26 169.531 448.358 171.687L448.358 171.792C451.759 178.624 456.238 184.862 461.624 190.268C472.104 200.749 483.962 206.004 495.88 209.912L495.88 203.593C485.295 199.955 474.919 195.074 465.846 186.031C460.689 180.82 456.434 174.789 453.254 168.184C453.205 168.071 453.15 167.961 453.089 167.855C449.478 159.873 446.538 151.605 444.301 143.135C439.959 128.283 435.841 114.269 424.103 102.516C412.365 90.7775 398.351 86.6601 383.498 82.3181C375.032 80.0871 366.768 77.1472 358.794 73.5294L358.45 73.3647C351.841 70.1853 345.809 65.9245 340.603 60.7581C327.891 48.0467 323.4 32.7151 319.058 17.8776C317.261 11.739 315.495 5.76506 313.234 0.0157158L306.736 0.0157153C309.31 6.36767 311.505 12.8671 313.308 19.4796C317.995 35.2005 322.711 51.2957 336.5 65.0851Z" fill="#FFC844"/>
<path d="M19.5715 6.25927C30.2317 16.9345 34.1245 30.2149 38.2568 44.3337C42.7485 59.8898 47.5247 75.9701 61.3141 89.7745C75.1035 103.579 91.1837 108.28 106.77 112.772C120.859 116.904 134.154 120.797 144.829 131.457C155.504 142.117 159.382 155.413 163.515 169.532C168.006 185.088 172.782 201.168 186.572 214.957C191.981 220.343 198.219 224.826 205.048 228.238C207.224 229.326 209.41 230.324 211.605 231.232L212.249 231.487L214.645 232.415L216.486 233.089L217.579 233.493L220.08 234.346L220.289 234.421C224.197 235.709 228.09 236.862 231.938 237.985C246.027 242.117 259.322 246.01 269.982 256.67C280.642 267.33 284.535 280.626 288.668 294.715C289.79 298.592 290.958 302.53 292.261 306.468C292.54 307.346 292.84 308.23 293.159 309.118L293.504 310.061L294.222 312.037C294.507 312.771 294.791 313.535 295.091 314.223C295.195 314.508 295.3 314.777 295.42 315.062C296.318 317.248 297.317 319.419 298.415 321.575L298.415 321.68C301.815 328.507 306.288 334.745 311.665 340.155C325.469 353.945 341.609 358.661 357.121 363.213C371.209 367.345 384.52 371.238 395.18 381.898C405.84 392.558 409.733 405.854 413.865 419.957C418.357 435.528 423.133 451.609 436.923 465.413C450.712 479.218 466.987 484.084 482.543 488.575C487.155 489.923 491.676 491.255 496.018 492.797L496.018 486.464C492.155 485.162 488.218 484.009 484.205 482.826C469.368 478.484 454.021 473.992 441.309 461.281C428.598 448.569 424.106 433.223 419.764 418.385C415.422 403.548 411.305 389.519 399.552 377.781C387.799 366.042 373.8 361.925 358.947 357.568C344.095 353.211 328.763 348.734 316.052 336.023C310.891 330.816 306.635 324.784 303.46 318.176C303.404 318.074 303.354 317.969 303.31 317.862C299.688 309.878 296.743 301.604 294.507 293.128C290.15 278.29 286.047 264.261 274.309 252.523C262.571 240.785 248.542 236.682 233.704 232.325C225.248 230.099 216.994 227.164 209.03 223.551L208.641 223.357C202.039 220.185 196.013 215.935 190.809 210.78C178.098 198.069 173.606 182.722 169.249 167.87C164.892 153.017 160.805 139.018 149.051 127.265C137.298 115.512 123.284 111.424 108.447 107.067C93.6092 102.711 78.2626 98.2338 65.5512 85.5223C52.8398 72.8109 48.3481 57.4644 44.0061 42.6269C39.6642 27.7894 35.5468 13.7604 23.7936 2.02221C23.1348 1.35344 22.4611 0.709553 21.7724 0.0907178L12.0854 0.090717C14.7675 1.90914 17.2738 3.97432 19.5715 6.25927Z" fill="#FFC844"/>
<path d="M404.953 28.3723L405.043 28.3723C407.199 29.4652 409.4 30.4684 411.601 31.3667C411.78 31.4565 411.96 31.5165 412.155 31.5913C412.978 31.9357 413.817 32.265 414.64 32.5795L416.407 33.2233L417.59 33.6425L420 34.466L420.315 34.5708C424.207 35.8734 428.085 37.0113 431.918 38.1342C446.007 42.2665 459.302 46.1593 469.978 56.8195C480.653 67.4798 484.516 80.7751 488.648 94.8939C490.04 99.6252 491.463 104.446 493.14 109.267L493.469 110.211C493.708 110.869 493.948 111.528 494.203 112.187C494.457 112.846 494.772 113.684 495.071 114.403L495.385 115.211L495.984 116.574L495.984 98.607C495.445 96.8104 494.906 95.0137 494.382 93.2171C490.04 78.3646 485.923 64.3506 474.185 52.5974C462.432 40.8591 448.418 36.7418 433.565 32.3998C425.101 30.1755 416.841 27.2353 408.876 23.6111L408.501 23.4314C401.9 20.2527 395.874 15.9973 390.67 10.8397C387.413 7.57858 384.526 3.96844 382.061 0.0746818L375.038 0.0746812C378.147 5.55465 381.979 10.5907 386.432 15.0469C391.847 20.4579 398.102 24.9578 404.953 28.3723Z" fill="#FFC844"/>
<path d="M156.737 62.8535C170.826 66.9858 184.121 70.8787 194.796 81.5389C205.471 92.1992 209.349 105.495 213.481 119.598C217.973 135.155 222.749 151.25 236.539 165.039C241.948 170.424 248.186 174.908 255.014 178.32C257.185 179.427 259.371 180.416 261.587 181.314L262.141 181.524C262.965 181.868 263.788 182.197 264.627 182.512L266.393 183.156L267.576 183.575L269.987 184.413L270.301 184.518C274.194 185.806 278.072 186.943 281.905 188.066C295.993 192.199 309.289 196.092 319.949 206.752C330.609 217.412 334.502 230.707 338.634 244.811C340.027 249.557 341.449 254.393 343.126 259.215C343.246 259.514 343.351 259.828 343.47 260.128L344.189 262.119L345.043 264.29L345.387 265.144C346.285 267.344 347.288 269.515 348.381 271.686C348.378 271.711 348.378 271.736 348.381 271.761C351.793 278.59 356.276 284.827 361.662 290.237C375.451 304.027 391.606 308.743 407.102 313.294C421.191 317.427 434.502 321.319 445.162 331.98C455.822 342.64 459.715 355.935 463.847 370.039C468.339 385.61 473.115 401.69 486.905 415.495C489.684 418.237 492.689 420.741 495.888 422.981L495.888 415.495C494.239 414.159 492.66 412.74 491.157 411.243C478.445 398.531 473.954 383.185 469.612 368.347C465.27 353.51 461.152 339.481 449.414 327.728C437.676 315.974 423.647 311.887 408.794 307.53C393.942 303.173 378.625 298.696 365.899 285.985C360.742 280.774 356.487 274.743 353.307 268.138C353.307 268.033 353.202 267.913 353.142 267.794C349.516 259.824 346.576 251.559 344.354 243.089C339.997 228.252 335.894 214.223 324.156 202.485C312.418 190.746 298.389 186.644 283.551 182.287C275.087 180.065 266.827 177.125 258.862 173.498L258.488 173.334C251.89 170.15 245.864 165.895 240.656 160.742C227.945 148.016 223.453 132.684 219.111 117.847C214.769 103.009 210.652 88.9801 198.913 77.2269C187.175 65.4737 173.146 61.3863 158.294 57.0294C143.441 52.6725 128.11 48.1957 115.398 35.4843C104.813 24.8839 99.9169 12.457 96.0691 0.0300249L89.8106 0.0300243C93.9579 13.7596 99.0635 27.6089 111.161 39.7065C125.085 53.5858 141.165 58.3019 156.737 62.8535Z" fill="#FFC844"/>
<path d="M244.778 31.5616C255.438 42.2218 259.331 55.5171 263.463 69.621C267.955 85.1921 272.731 101.272 286.521 115.062C291.93 120.447 298.168 124.931 304.997 128.342L305.071 128.342C307.237 129.44 309.428 130.438 311.644 131.337L312.198 131.546C313.022 131.891 313.845 132.22 314.684 132.534L316.465 133.178L317.618 133.597L320.088 134.436L320.328 134.526C324.221 135.813 328.128 136.966 331.961 138.089C346.05 142.221 359.346 146.114 370.006 156.759C380.666 167.405 384.559 180.715 388.691 194.849C389.829 198.712 390.982 202.619 392.285 206.557L393.183 209.192C393.303 209.507 393.422 209.821 393.527 210.136L394.246 212.112C394.531 212.845 394.83 213.609 395.114 214.328C395.234 214.597 395.339 214.867 395.444 215.136C396.342 217.322 397.33 219.508 398.438 221.649L398.438 221.754C401.839 228.585 406.318 234.824 411.704 240.23C425.493 254.019 441.573 258.735 457.144 263.287C471.233 267.419 484.544 271.312 495.204 281.972C495.458 282.227 495.683 282.496 495.937 282.751L495.937 274.546C484.948 265.218 472.222 261.46 458.821 257.538C443.984 253.196 428.652 248.704 415.926 235.993C410.769 230.782 406.514 224.751 403.334 218.146L403.184 217.831C399.562 209.848 396.617 201.574 394.381 193.097C390.024 178.245 385.921 164.231 374.183 152.477C362.445 140.739 348.431 136.622 333.579 132.28C325.126 130.056 316.877 127.121 308.919 123.506L308.515 123.311C301.915 120.137 295.889 115.886 290.683 110.735C277.972 98.0084 273.48 82.6768 269.138 67.8243C264.796 52.9718 260.679 38.9728 248.94 27.2196C237.202 15.4664 223.173 11.379 208.321 7.02204C201.251 5.09357 194.302 2.74881 187.509 6.45891e-05L174.319 6.34359e-05C184.709 6.33332 195.804 9.59732 206.644 12.7714C220.808 16.9487 234.118 20.9013 244.778 31.5616Z" fill="#FFC844"/>
<path d="M153.554 468.152L153.389 467.837C149.762 459.857 146.822 451.582 144.6 443.103C140.243 428.266 136.141 414.237 124.388 402.498C112.649 390.745 98.6205 386.643 83.768 382.286C75.304 380.061 67.0445 377.121 59.0788 373.497L58.7193 373.332C52.1136 370.161 46.0862 365.905 40.8875 360.741C28.1761 348.029 23.6844 332.683 19.3274 317.845C15.1202 303.442 11.1076 289.832 0.162891 278.319L0.162891 287.646C7.00521 297.079 10.2242 308.038 13.6379 319.537C18.1296 335.093 22.9207 351.173 36.7102 364.978C42.1241 370.354 48.361 374.832 55.1859 378.243L55.2758 378.243C57.4468 379.336 59.6327 380.324 61.8336 381.238L62.5073 381.507L64.8581 382.435L66.7296 383.109L67.7926 383.499L70.308 384.352L70.5024 384.427C74.4102 385.714 78.318 386.867 82.1659 388.005C96.2398 392.123 109.55 396.015 120.21 406.676C130.871 417.336 134.763 430.631 138.896 444.75C140.019 448.598 141.172 452.506 142.474 456.428L142.474 456.533C142.759 457.402 143.043 458.255 143.357 459.108C143.462 459.453 143.597 459.782 143.717 460.112C143.941 460.755 144.181 461.399 144.421 462.043C144.66 462.687 145.004 463.54 145.304 464.289L145.618 465.067C146.517 467.253 147.505 469.439 148.613 471.595L148.613 471.685C152.027 478.503 156.505 484.735 161.878 490.146C163.947 492.202 166.142 494.127 168.451 495.91L179.141 495.91C174.387 493.151 170.008 489.79 166.115 485.909C160.973 480.727 156.728 474.726 153.554 468.152Z" fill="#FFC844"/>
<path d="M6.7897 212.788C20.8786 216.92 34.189 220.813 44.8492 231.473C55.5095 242.134 59.4172 255.429 63.5345 269.533C68.0262 285.104 72.8172 301.184 86.6066 314.988C92.0205 320.365 98.2576 324.843 105.083 328.254C107.253 329.347 109.439 330.335 111.64 331.248L112.194 331.458C113.033 331.802 113.856 332.132 114.695 332.446L116.461 333.09L117.629 333.524L120.055 334.348L120.354 334.452C124.247 335.74 128.14 336.893 131.973 338.016C146.061 342.133 159.357 346.026 170.017 356.686C180.677 367.346 184.57 380.642 188.687 394.746C189.825 398.608 190.993 402.531 192.296 406.469C192.58 407.337 192.88 408.206 193.194 409.089C193.299 409.403 193.419 409.733 193.538 410.062L194.257 412.009C194.542 412.757 194.841 413.506 195.14 414.239C195.245 414.509 195.335 414.764 195.455 415.033C196.353 417.219 197.341 419.405 198.449 421.561L198.449 421.651C201.86 428.476 206.339 434.713 211.715 440.127C225.519 453.916 241.659 458.632 257.17 463.184C271.259 467.316 284.555 471.224 295.23 481.884C299.281 485.988 302.657 490.708 305.231 495.868L311.909 495.868C308.89 489.093 304.67 482.919 299.452 477.647C287.714 465.894 273.7 461.791 258.847 457.434C243.995 453.078 228.663 448.601 215.952 435.889C210.843 430.724 206.624 424.749 203.465 418.207L203.3 417.878C199.676 409.902 196.736 401.632 194.512 393.159C190.155 378.321 186.052 364.292 174.299 352.554C162.561 340.816 148.532 336.713 133.694 332.356C125.228 330.13 116.964 327.195 108.99 323.583L108.631 323.403C102.028 320.227 96.0013 315.971 90.7989 310.811C78.0875 298.1 73.5958 282.753 69.2389 267.916C64.8819 253.078 60.7945 239.049 49.0413 227.311C37.2881 215.573 23.2741 211.455 8.43661 207.098C5.66674 206.29 2.88198 205.482 0.0971629 204.598L0.0971624 210.872L6.7897 212.788Z" fill="#FFC844"/>
<path d="M74.4087 452.477C62.6555 440.724 48.6415 436.622 33.789 432.265C25.3274 430.039 17.0684 427.104 9.09979 423.491L8.74029 423.311C5.76957 421.854 2.90308 420.193 0.161224 418.34L0.161223 425.467C1.80817 426.455 3.47021 427.369 5.1471 428.222L5.23684 428.222C7.40781 429.315 9.59377 430.303 11.7947 431.217L12.4086 431.456L14.8341 432.414L16.6457 433.073L17.7686 433.477L20.2391 434.331L20.4937 434.406C24.3864 435.708 28.2792 436.861 32.1271 437.984C46.201 442.101 59.5112 445.994 70.1715 456.654C80.8317 467.315 84.7244 480.61 88.8568 494.729L89.2161 495.957L95.4746 495.957C95.1901 494.983 94.8907 494.01 94.6063 493.037C90.2643 478.244 86.1619 464.215 74.4087 452.477Z" fill="#FFC844"/>
<path d="M0.143805 493.919C1.74583 494.563 3.31796 495.251 4.8601 496L16.7482 496C11.5981 492.462 6.01834 489.594 0.143805 487.466L0.143805 493.919Z" fill="#FFC844"/>
<path d="M11.3341 139.721C25.1385 153.51 41.2786 158.227 56.7898 162.778C70.8637 166.91 84.1739 170.803 94.8491 181.463C105.524 192.124 109.402 205.419 113.535 219.523C118.026 235.094 122.802 251.174 136.592 264.979C142.006 270.355 148.243 274.833 155.068 278.244C157.239 279.352 159.425 280.34 161.64 281.238L162.164 281.448C163.003 281.797 163.841 282.127 164.68 282.436L166.447 283.08L167.629 283.499C168.438 283.799 169.246 284.068 170.055 284.338L170.339 284.428C174.232 285.73 178.125 286.868 181.958 288.006C196.047 292.123 209.342 296.016 220.002 306.676C230.663 317.337 234.555 330.632 238.688 344.751C240.08 349.497 241.502 354.318 243.179 359.139L243.494 360.037C243.733 360.711 243.973 361.385 244.227 362.059C244.482 362.732 244.796 363.556 245.096 364.245C245.201 364.514 245.305 364.799 245.425 365.068C246.323 367.264 247.322 369.445 248.42 371.611C251.831 378.436 256.309 384.673 261.685 390.087C275.489 403.876 291.629 408.592 307.141 413.144C321.23 417.276 334.54 421.169 345.2 431.829C355.86 442.489 359.753 455.785 363.886 469.904C366.223 478.786 369.319 487.452 373.138 495.806L379.891 495.806C375.115 486.912 372.405 477.465 369.635 468.212C365.278 453.374 361.175 439.345 349.422 427.607C337.669 415.869 323.67 411.752 308.818 407.395C293.965 403.038 278.633 398.561 265.922 385.85C260.765 380.639 256.51 374.608 253.331 368.003L253.166 367.673C249.541 359.697 246.601 351.428 244.377 342.954C240.02 328.117 235.918 314.088 224.179 302.349C212.441 290.611 198.412 286.509 183.575 282.152C175.118 279.926 166.864 276.991 158.9 273.378L158.511 273.198C151.908 270.022 145.882 265.766 140.679 260.607C127.968 247.895 123.476 232.549 119.119 217.711C114.762 202.874 110.675 188.845 98.9218 177.092C87.1685 165.338 73.1545 161.251 58.317 156.894C43.4795 152.537 28.1329 148.06 15.4215 135.349C8.65268 128.422 3.40061 120.162 3.36326e-05 111.094L3.24231e-05 124.928C3.09729 130.345 6.90961 135.321 11.3341 139.721Z" fill="#FFC844"/>
</svg>
