<svg width="220" height="220" viewBox="0 0 220 220" fill="none" xmlns="http://www.w3.org/2000/svg">
<path d="M219.912 0H110V109.912H219.912V0Z" fill="#FC805F"/>
<path d="M163.422 85.4872V109.912H219.911V85.4872H163.422Z" fill="#FFC844"/>
<path d="M114.641 74.2019V109.942H139.066V62.6062C139.066 62.1981 139.228 61.8067 139.516 61.5182C139.805 61.2296 140.196 61.0675 140.604 61.0675H219.912V36.667H152.2C142.243 36.667 132.693 40.6208 125.65 47.6592C118.607 54.6977 114.647 64.2448 114.641 74.2019Z" fill="#766DFA"/>
<path d="M109.918 110H0.00585938V219.912H109.918V110Z" fill="#2B5243"/>
<path d="M26.1041 161.506H0V219.924H84.5222C84.5222 204.431 78.3675 189.572 67.412 178.616C56.4565 167.661 41.5976 161.506 26.1041 161.506Z" fill="#766DFA"/>
</svg>
