<svg width="551" height="552" viewBox="0 0 551 552" fill="none" xmlns="http://www.w3.org/2000/svg">
<path d="M43.4697 106.54C47.0668 102.929 50.0585 98.7626 52.3296 94.1999C53.063 92.7533 53.7296 91.2933 54.3296 89.8199L54.4896 89.4199C54.7096 88.8699 54.9296 88.3299 55.1296 87.7799L55.5796 86.5798L55.8497 85.8199L56.4097 84.1799L56.4697 83.9999C57.3297 81.3999 58.0997 78.7999 58.8497 76.2399C61.6097 66.8299 64.2096 57.9498 71.3296 50.8298C78.4496 43.7098 87.3296 41.1098 96.7396 38.3499C99.3296 37.5899 101.95 36.8199 104.58 35.9399C105.17 35.7499 105.76 35.5398 106.35 35.3398C106.56 35.2598 106.77 35.1799 106.98 35.1099L108.29 34.6299C108.79 34.4399 109.29 34.2399 109.77 34.0499C109.95 33.9699 110.13 33.8998 110.32 33.8298C111.78 33.2298 113.23 32.5632 114.67 31.8298L114.74 31.8298C119.302 29.5587 123.469 26.567 127.08 22.9698C134.08 15.9698 137.59 8.04984 140.2 0.0898438L135.98 0.0898436C133.55 7.15984 130.29 14.0899 124.25 20.1499C120.769 23.594 116.741 26.436 112.33 28.5599C112.254 28.5926 112.181 28.6293 112.11 28.6699C106.779 31.0819 101.257 33.0454 95.5997 34.5399C85.6797 37.4399 76.3197 40.1899 68.4697 48.0299C60.6297 55.8699 57.8796 65.2299 54.9796 75.1499C53.4895 80.8049 51.5259 86.3244 49.1096 91.6499L48.9996 91.8799C46.8761 96.2942 44.0303 100.323 40.5796 103.8C32.0896 112.29 21.8496 115.29 11.9396 118.19C7.83962 119.39 3.84963 120.57 0.00963822 122.08L0.00963803 126.42C4.25212 124.7 8.59312 123.234 13.0096 122.03C23.5096 118.9 34.2597 115.75 43.4697 106.54Z" fill="#4CE467" fill-opacity="0.1"/>
<path d="M4.18006 318.22C11.3101 311.1 20.1801 308.5 29.61 305.74C40.0001 302.74 50.7401 299.55 59.9601 290.34C69.1801 281.13 72.3201 270.39 75.3201 259.98C78.0801 250.57 80.6801 241.69 87.8001 234.56C94.92 227.43 103.8 224.84 113.23 222.08C123.62 219.08 134.36 215.89 143.57 206.68C147.167 203.067 150.162 198.901 152.44 194.34C153.167 192.887 153.833 191.427 154.44 189.96L154.61 189.53L155.23 187.93L155.68 186.7L155.95 185.97L156.52 184.3L156.57 184.16C157.43 181.55 158.2 178.95 158.95 176.38C161.71 166.97 164.31 158.09 171.43 150.97C178.55 143.85 187.43 141.25 196.84 138.49C199.43 137.74 202.06 136.96 204.69 136.09C205.277 135.903 205.867 135.703 206.46 135.49L207.09 135.26L208.41 134.78C208.9 134.59 209.41 134.4 209.87 134.2C210.06 134.13 210.24 134.06 210.43 133.98C211.89 133.38 213.34 132.713 214.78 131.98L214.85 131.98C219.41 129.709 223.577 126.721 227.19 123.13C236.4 113.91 239.55 103.13 242.59 92.77C245.35 83.36 247.95 74.47 255.07 67.35C262.19 60.23 271.07 57.63 280.49 54.87C290.89 51.87 301.63 48.68 310.85 39.47C320.07 30.26 323.32 19.39 326.32 9C327.22 5.92 328.11 2.9 329.14 0L324.91 -1.849e-07C324.04 2.58 323.27 5.21001 322.48 7.89001C319.58 17.8 316.58 28.05 308.09 36.54C299.6 45.03 289.35 48.0301 279.44 50.9301C269.53 53.8301 260.16 56.5801 252.32 64.4301C244.48 72.28 241.73 81.63 238.82 91.55C235.91 101.47 232.92 111.71 224.43 120.2C220.952 123.647 216.924 126.489 212.51 128.61C212.442 128.647 212.372 128.681 212.3 128.71C206.968 131.13 201.442 133.096 195.78 134.59C185.87 137.5 176.5 140.24 168.66 148.08C160.82 155.92 158.08 165.29 155.17 175.2C153.683 180.848 151.723 186.361 149.31 191.68L149.18 191.94C147.062 196.349 144.223 200.375 140.78 203.85C132.29 212.34 122.04 215.34 112.12 218.25C102.2 221.16 92.8501 223.89 85.0001 231.74C77.1501 239.59 74.4201 248.95 71.5101 258.86C68.6001 268.77 65.61 279.02 57.1201 287.51C48.6301 296 38.3801 299 28.4701 301.9C18.5601 304.8 9.1901 307.55 1.3501 315.4C0.903444 315.84 0.47339 316.29 0.06006 316.75L0.0600597 323.22C1.2746 321.429 2.65393 319.755 4.18006 318.22Z" fill="#4CE467" fill-opacity="0.1"/>
<path d="M18.9498 60.8196L18.9498 60.7595C19.6798 59.3195 20.3498 57.8495 20.9498 56.3795C21.0098 56.2595 21.0499 56.1395 21.0999 56.0095C21.3299 55.4595 21.5498 54.8995 21.7598 54.3495L22.1898 53.1696L22.4698 52.3795L23.0198 50.7695L23.0898 50.5596C23.9598 47.9596 24.7198 45.3696 25.4698 42.8096C28.2298 33.3996 30.8298 24.5195 37.9498 17.3895C45.0698 10.2595 53.9498 7.67955 63.3798 4.91956C66.5398 3.98956 69.7598 3.03956 72.9798 1.91956L73.6098 1.69958C74.0498 1.53958 74.4898 1.37947 74.9298 1.20947C75.3698 1.03947 75.9299 0.829517 76.4099 0.629517L76.9498 0.419556L77.8598 0.0195312L65.8598 0.0195307C64.6598 0.379531 63.4598 0.739477 62.2598 1.08948C52.3398 3.98948 42.9798 6.73947 35.1298 14.5795C27.2898 22.4295 24.5398 31.7895 21.6398 41.7095C20.1542 47.3626 18.1904 52.8793 15.7698 58.1996L15.6498 58.4496C13.5267 62.8587 10.6845 66.8836 7.2398 70.3595C5.06167 72.5345 2.65045 74.4628 0.0498014 76.1095L0.0498012 80.7996C3.70989 78.7237 7.0735 76.164 10.0498 73.1896C13.6638 69.5729 16.6693 65.3957 18.9498 60.8196Z" fill="#4CE467" fill-opacity="0.1"/>
<path d="M41.9802 226.602C44.7402 217.192 47.3402 208.312 54.4602 201.182C61.5802 194.052 70.4602 191.462 79.8802 188.702C90.2702 185.702 101.02 182.512 110.23 173.302C113.827 169.689 116.822 165.523 119.1 160.962C119.84 159.512 120.5 158.052 121.1 156.572L121.24 156.202C121.47 155.652 121.69 155.102 121.9 154.542L122.33 153.362L122.61 152.572L123.17 150.962L123.24 150.752C124.1 148.152 124.86 145.562 125.61 143.002C128.37 133.592 130.97 124.712 138.09 117.592C145.21 110.472 154.09 107.872 163.51 105.112C166.68 104.182 169.91 103.232 173.13 102.112C173.33 102.032 173.54 101.962 173.74 101.882L175.07 101.402L176.52 100.832L177.09 100.602C178.56 100.002 180.01 99.332 181.46 98.602C181.477 98.6045 181.494 98.6045 181.51 98.602C186.071 96.3235 190.237 93.3289 193.85 89.7321C203.06 80.5221 206.21 69.7321 209.25 59.3821C212.01 49.9721 214.61 41.082 221.73 33.962C228.85 26.842 237.73 24.2421 247.15 21.4821C257.55 18.4821 268.29 15.292 277.51 6.08203C279.342 4.2255 281.014 2.21845 282.51 0.0820312L277.51 0.082031C276.618 1.18314 275.67 2.23789 274.67 3.24207C266.18 11.7321 255.93 14.7321 246.02 17.6321C236.11 20.5321 226.74 23.2821 218.89 31.1221C211.04 38.9621 208.31 48.3321 205.4 58.2521C202.49 68.1721 199.5 78.4021 191.01 86.9021C187.53 90.3462 183.502 93.1882 179.09 95.3121C179.02 95.3121 178.94 95.3821 178.86 95.4221C173.537 97.8443 168.017 99.8081 162.36 101.292C152.45 104.202 143.08 106.942 135.24 114.782C127.4 122.622 124.66 131.992 121.75 141.902C120.266 147.556 118.302 153.072 115.88 158.392L115.77 158.642C113.644 163.049 110.802 167.074 107.36 170.552C98.8602 179.042 88.6202 182.042 78.7102 184.942C68.8002 187.842 59.4302 190.592 51.5802 198.432C43.7302 206.272 41.0002 215.642 38.0902 225.562C35.1802 235.482 32.1902 245.722 23.7002 254.212C16.6202 261.282 8.32019 264.552 0.0202062 267.122L0.020206 271.302C9.19022 268.532 18.4402 265.122 26.5202 257.042C35.7902 247.742 38.9402 237.002 41.9802 226.602Z" fill="#4CE467" fill-opacity="0.1"/>
<path d="M21.08 167.801C28.2 160.681 37.08 158.081 46.5 155.321C56.9 152.321 67.64 149.131 76.85 139.921C80.4469 136.308 83.4415 132.141 85.72 127.581L85.72 127.531C86.4534 126.084 87.12 124.621 87.72 123.141L87.86 122.771C88.09 122.221 88.31 121.671 88.52 121.111L88.95 119.921L89.23 119.151L89.79 117.501L89.85 117.341C90.71 114.741 91.48 112.131 92.23 109.571C94.99 100.161 97.59 91.2808 104.7 84.1608C111.81 77.0408 120.7 74.4408 130.14 71.6808C132.72 70.9208 135.33 70.1508 137.96 69.2808L139.72 68.6808C139.93 68.6008 140.14 68.5208 140.35 68.4508L141.67 67.9707C142.16 67.7807 142.67 67.5807 143.15 67.3907C143.33 67.3107 143.51 67.2408 143.69 67.1708C145.15 66.5708 146.61 65.9108 148.04 65.1708L148.11 65.1708C152.673 62.8996 156.839 59.9079 160.45 56.3108C169.66 47.1008 172.81 36.3607 175.85 25.9607C178.61 16.5507 181.21 7.66077 188.33 0.540771C188.5 0.370771 188.68 0.220781 188.85 0.0507812L183.37 0.050781C177.14 7.39078 174.63 15.8907 172.01 24.8407C169.11 34.7507 166.11 44.9907 157.62 53.4907C154.14 56.9348 150.112 59.7768 145.7 61.9008L145.49 62.0007C140.158 64.4203 134.632 66.3873 128.97 67.8807C119.05 70.7907 109.69 73.5307 101.84 81.3707C94 89.2107 91.25 98.5707 88.35 108.491C86.8649 114.136 84.9045 119.646 82.49 124.961L82.36 125.231C80.2394 129.639 77.4008 133.664 73.96 137.141C65.46 145.631 55.22 148.631 45.3 151.531C35.38 154.431 26.03 157.181 18.18 165.021C10.33 172.861 7.6 182.231 4.68999 192.151C3.40197 196.872 1.8359 201.514 -9.00455e-06 206.051L-9.38964e-06 214.861C4.22999 207.921 6.41003 200.511 8.53002 193.271C11.32 183.811 13.96 174.921 21.08 167.801Z" fill="#4CE467" fill-opacity="0.1"/>
<path d="M312.68 228.731L312.47 228.841C307.14 231.263 301.614 233.227 295.95 234.711C286.04 237.621 276.67 240.361 268.83 248.211C260.98 256.051 258.24 265.421 255.33 275.341C253.845 280.994 251.881 286.51 249.46 291.831L249.35 292.071C247.232 296.483 244.389 300.508 240.94 303.981C232.45 312.471 222.2 315.471 212.29 318.381C202.67 321.191 193.58 323.871 185.89 331.181L192.12 331.181C198.42 326.611 205.74 324.461 213.42 322.181C223.81 319.181 234.55 315.981 243.77 306.771C247.361 303.155 250.352 298.989 252.63 294.431L252.63 294.371C253.36 292.921 254.02 291.461 254.63 289.991L254.81 289.541L255.43 287.971L255.88 286.721L256.14 286.011L256.71 284.331L256.76 284.201C257.62 281.591 258.39 278.981 259.15 276.411C261.9 267.011 264.5 258.121 271.62 251.001C278.74 243.881 287.62 241.281 297.05 238.521C299.62 237.771 302.23 237.001 304.85 236.131L304.92 236.131C305.5 235.941 306.07 235.751 306.64 235.541C306.87 235.471 307.09 235.381 307.31 235.301C307.74 235.151 308.17 234.991 308.6 234.831C309.03 234.671 309.6 234.441 310.1 234.241L310.62 234.031C312.08 233.431 313.54 232.771 314.98 232.031L315.04 232.031C319.594 229.75 323.756 226.759 327.37 223.171C328.743 221.789 330.029 220.323 331.22 218.781L331.22 211.641C329.377 214.816 327.132 217.74 324.54 220.341C321.079 223.775 317.071 226.61 312.68 228.731Z" fill="#4CE467" fill-opacity="0.1"/>
<path d="M142.12 326.751C144.88 317.341 147.48 308.451 154.6 301.331C161.72 294.211 170.6 291.601 180.02 288.851C190.42 285.851 201.16 282.651 210.38 273.441C213.971 269.825 216.962 265.659 219.24 261.101C219.97 259.651 220.63 258.191 221.24 256.721L221.38 256.351C221.61 255.791 221.83 255.241 222.04 254.681L222.47 253.501L222.76 252.721L223.31 251.101L223.38 250.901C224.24 248.301 225.01 245.701 225.76 243.141C228.51 233.731 231.11 224.851 238.23 217.731C245.35 210.611 254.23 208.011 263.65 205.261C266.23 204.501 268.85 203.721 271.48 202.851C272.06 202.661 272.64 202.461 273.23 202.251C273.44 202.181 273.66 202.101 273.88 202.021L275.18 201.541C275.68 201.351 276.18 201.151 276.67 200.951C276.85 200.881 277.02 200.821 277.2 200.741C278.66 200.141 280.12 199.481 281.56 198.741L281.62 198.741C286.178 196.463 290.344 193.472 293.96 189.881C303.17 180.661 306.32 169.881 309.36 159.521C312.12 150.111 314.73 141.231 321.85 134.101C324.591 131.395 327.743 129.141 331.19 127.421L331.19 122.961C326.665 124.977 322.541 127.796 319.02 131.281C311.17 139.121 308.43 148.481 305.52 158.401C302.61 168.321 299.62 178.561 291.13 187.051C287.68 190.463 283.69 193.281 279.32 195.391L279.1 195.501C273.773 197.922 268.25 199.885 262.59 201.371C252.68 204.281 243.31 207.021 235.47 214.871C227.63 222.711 224.89 232.081 221.98 241.991C220.493 247.646 218.533 253.165 216.12 258.491L216 258.731C213.878 263.141 211.036 267.166 207.59 270.641C199.1 279.131 188.85 282.131 178.94 285.041C169.03 287.951 159.66 290.681 151.82 298.531C143.98 306.381 141.23 315.741 138.32 325.651C137.78 327.501 137.24 329.361 136.65 331.221L140.84 331.221L142.12 326.751Z" fill="#4CE467" fill-opacity="0.1"/>
<path d="M302.21 281.589C294.36 289.439 291.62 298.799 288.71 308.719C287.223 314.371 285.263 319.887 282.85 325.209L282.729 325.45C281.756 327.434 280.647 329.348 279.41 331.18L284.169 331.18C284.829 330.08 285.439 328.969 286.009 327.849L286.009 327.79C286.739 326.34 287.399 324.88 288.009 323.41L288.169 323L288.809 321.38L289.249 320.17L289.519 319.42L290.09 317.77L290.139 317.599C291.009 314.999 291.78 312.399 292.53 309.829C295.28 300.429 297.879 291.54 304.999 284.42C312.119 277.3 320.999 274.7 330.429 271.94L331.249 271.7L331.249 267.52C330.599 267.71 329.949 267.909 329.299 268.099C319.419 270.999 310.05 273.739 302.21 281.589Z" fill="#4CE467" fill-opacity="0.1"/>
<path d="M329.89 331.192C330.32 330.122 330.78 329.072 331.28 328.042L331.28 320.102C328.917 323.541 327.001 327.268 325.58 331.192L329.89 331.192Z" fill="#4CE467" fill-opacity="0.1"/>
<path d="M93.3199 323.718C102.53 314.498 105.68 303.719 108.72 293.359C111.48 283.959 114.08 275.069 121.2 267.939C128.32 260.809 137.2 258.218 146.62 255.458C157.02 252.458 167.76 249.269 176.98 240.059C180.571 236.443 183.562 232.277 185.84 227.718C186.58 226.269 187.24 224.808 187.84 223.328L187.98 222.979C188.213 222.419 188.433 221.859 188.64 221.299L189.07 220.119L189.35 219.328C189.55 218.788 189.73 218.248 189.91 217.708L189.97 217.519C190.84 214.919 191.6 212.319 192.36 209.759C195.11 200.349 197.71 191.469 204.83 184.349C211.95 177.229 220.83 174.629 230.26 171.869C233.43 170.939 236.65 169.989 239.87 168.869L240.47 168.659C240.92 168.499 241.37 168.339 241.82 168.169C242.27 167.999 242.82 167.788 243.28 167.588C243.46 167.518 243.65 167.449 243.83 167.369C245.297 166.769 246.753 166.102 248.2 165.369C252.758 163.09 256.924 160.099 260.54 156.509C269.75 147.289 272.9 136.509 275.94 126.149C278.7 116.739 281.3 107.849 288.42 100.729C295.54 93.6085 304.42 91.0085 313.85 88.2485C319.783 86.6871 325.571 84.6196 331.15 82.0686L331.15 77.5586C325.21 80.7486 318.9 82.5586 312.72 84.4086C302.81 87.3186 293.44 90.0586 285.6 97.9086C277.76 105.759 275.01 115.109 272.1 125.029C269.19 134.949 266.2 145.189 257.71 153.679C254.23 157.123 250.201 159.965 245.79 162.088L245.57 162.199C240.243 164.619 234.72 166.583 229.06 168.069C219.15 170.979 209.78 173.719 201.94 181.559C194.1 189.399 191.36 198.769 188.45 208.679C186.963 214.327 185.003 219.84 182.59 225.159L182.47 225.419C180.348 229.829 177.506 233.854 174.06 237.328C165.57 245.818 155.32 248.819 145.41 251.729C135.5 254.639 126.13 257.368 118.28 265.218C110.43 273.069 107.7 282.428 104.79 292.338C101.88 302.248 98.8899 312.499 90.3999 320.989C85.7736 325.509 80.2565 329.017 74.1999 331.289L83.4399 331.289C87.0579 329.22 90.3811 326.674 93.3199 323.718Z" fill="#4CE467" fill-opacity="0.1"/>
<g opacity="0.05">
<path d="M359.868 402.33C362.257 399.933 364.243 397.165 365.752 394.135C366.239 393.175 366.681 392.205 367.08 391.227L367.186 390.961C367.332 390.596 367.478 390.237 367.611 389.872L367.91 389.075L368.089 388.57L368.461 387.481L368.501 387.362C369.072 385.635 369.583 383.908 370.082 382.208C371.914 375.959 373.641 370.062 378.369 365.334C383.098 360.605 388.995 358.879 395.244 357.046C396.964 356.541 398.704 356.03 400.45 355.445C400.842 355.319 401.234 355.18 401.626 355.047C401.765 354.994 401.905 354.941 402.044 354.894L402.914 354.575C403.246 354.449 403.578 354.316 403.897 354.19C404.017 354.137 404.136 354.091 404.262 354.044C405.232 353.646 406.195 353.203 407.151 352.716L407.198 352.716C410.228 351.208 412.995 349.221 415.392 346.832C420.041 342.183 422.372 336.924 424.105 331.638L421.303 331.638C419.689 336.333 417.524 340.935 413.513 344.959C411.202 347.247 408.527 349.134 405.597 350.544C405.547 350.566 405.498 350.59 405.451 350.617C401.911 352.219 398.244 353.523 394.487 354.516C387.899 356.442 381.683 358.268 376.47 363.474C371.264 368.681 369.437 374.897 367.511 381.484C366.522 385.24 365.218 388.905 363.613 392.442L363.54 392.595C362.13 395.526 360.24 398.202 357.949 400.511C352.31 406.149 345.51 408.141 338.929 410.067C336.206 410.864 333.557 411.647 331.006 412.65L331.006 415.532C333.824 414.39 336.707 413.417 339.64 412.617C346.613 410.538 353.752 408.447 359.868 402.33Z" fill="#001705"/>
<path d="M333.776 542.905C338.511 538.177 344.401 536.45 350.664 534.617C357.564 532.625 364.696 530.507 370.819 524.39C376.942 518.274 379.027 511.142 381.019 504.229C382.852 497.979 384.579 492.082 389.307 487.347C394.036 482.612 399.933 480.892 406.195 479.059C413.095 477.067 420.227 474.949 426.344 468.833C428.732 466.433 430.721 463.666 432.234 460.638C432.717 459.672 433.159 458.703 433.562 457.729L433.675 457.443L434.087 456.381L434.386 455.564L434.565 455.079L434.944 453.97L434.977 453.877C435.548 452.144 436.059 450.417 436.557 448.711C438.39 442.461 440.117 436.564 444.845 431.836C449.574 427.108 455.471 425.381 461.72 423.548C463.44 423.05 465.186 422.532 466.933 421.954C467.322 421.83 467.714 421.698 468.108 421.556L468.527 421.403L469.403 421.084C469.729 420.958 470.067 420.832 470.373 420.699C470.499 420.653 470.619 420.606 470.745 420.553C471.714 420.155 472.677 419.712 473.634 419.225L473.68 419.225C476.708 417.717 479.475 415.732 481.875 413.348C487.991 407.225 490.083 400.066 492.102 393.186C493.935 386.937 495.661 381.033 500.39 376.305C505.118 371.576 511.015 369.85 517.271 368.017C524.178 366.025 531.31 363.906 537.433 357.79C543.556 351.674 545.714 344.455 547.706 337.555C548.304 335.51 548.895 333.504 549.579 331.578L546.77 331.578C546.192 333.291 545.681 335.038 545.156 336.818C543.23 343.399 541.238 350.206 535.6 355.844C529.962 361.482 523.155 363.474 516.574 365.4C509.993 367.326 503.77 369.152 498.564 374.366C493.357 379.579 491.531 385.788 489.598 392.376C487.666 398.963 485.68 405.764 480.042 411.402C477.733 413.691 475.057 415.579 472.126 416.987C472.081 417.012 472.034 417.034 471.987 417.053C468.446 418.66 464.776 419.966 461.016 420.958C454.435 422.891 448.212 424.71 443.006 429.917C437.799 435.123 435.98 441.346 434.047 447.927C433.06 451.678 431.758 455.339 430.156 458.871L430.069 459.044C428.662 461.972 426.777 464.645 424.491 466.953C418.853 472.591 412.046 474.584 405.458 476.516C398.87 478.449 392.661 480.262 387.448 485.475C382.235 490.688 380.422 496.904 378.489 503.485C376.557 510.066 374.571 516.873 368.933 522.511C363.295 528.149 356.488 530.141 349.907 532.067C343.326 533.993 337.103 535.819 331.897 541.033C331.6 541.325 331.314 541.624 331.04 541.929L331.04 546.226C331.846 545.036 332.762 543.924 333.776 542.905Z" fill="#001705"/>
<path d="M343.584 371.968L343.584 371.928C344.069 370.971 344.514 369.995 344.913 369.019C344.952 368.939 344.979 368.86 345.012 368.773C345.165 368.408 345.311 368.036 345.451 367.671L345.736 366.887L345.922 366.363L346.287 365.293L346.334 365.154C346.912 363.427 347.416 361.707 347.914 360.007C349.747 353.758 351.474 347.861 356.202 343.126C360.93 338.391 366.828 336.678 373.09 334.845C375.189 334.227 377.327 333.596 379.465 332.853L379.884 332.707C380.176 332.6 380.468 332.494 380.76 332.381C381.052 332.268 381.424 332.129 381.743 331.996L382.102 331.856L382.706 331.591L374.737 331.591C373.94 331.83 373.143 332.069 372.346 332.301C365.758 334.227 359.543 336.053 354.329 341.26C349.123 346.473 347.297 352.689 345.371 359.277C344.384 363.031 343.08 366.695 341.473 370.228L341.393 370.394C339.983 373.322 338.096 375.995 335.808 378.303C334.361 379.747 332.76 381.028 331.033 382.121L331.033 385.236C333.464 383.858 335.697 382.158 337.674 380.182C340.074 377.781 342.07 375.007 343.584 371.968Z" fill="#001705"/>
<path d="M358.879 482.063C360.712 475.814 362.438 469.917 367.167 465.182C371.895 460.447 377.792 458.727 384.048 456.894C390.948 454.902 398.087 452.783 404.203 446.667C406.592 444.267 408.58 441.501 410.093 438.472C410.585 437.509 411.023 436.539 411.422 435.557L411.515 435.311C411.667 434.946 411.813 434.58 411.953 434.208L412.238 433.425L412.424 432.9L412.796 431.831L412.843 431.691C413.414 429.965 413.919 428.245 414.417 426.545C416.25 420.296 417.976 414.399 422.705 409.67C427.433 404.942 433.33 403.215 439.586 401.382C441.691 400.765 443.836 400.134 445.974 399.39C446.107 399.337 446.247 399.29 446.379 399.237L447.263 398.919L448.226 398.54L448.604 398.387C449.58 397.989 450.543 397.544 451.506 397.059C451.517 397.061 451.528 397.061 451.539 397.059C454.568 395.546 457.335 393.557 459.734 391.169C465.851 385.052 467.942 377.887 469.961 371.013C471.794 364.764 473.521 358.861 478.249 354.132C482.977 349.404 488.875 347.677 495.13 345.844C502.037 343.852 509.169 341.734 515.292 335.617C516.509 334.384 517.619 333.052 518.613 331.633L515.292 331.633C514.7 332.364 514.07 333.064 513.406 333.731C507.768 339.369 500.961 341.362 494.38 343.288C487.799 345.214 481.576 347.04 476.363 352.246C471.15 357.453 469.337 363.675 467.405 370.263C465.472 376.851 463.486 383.644 457.848 389.289C455.537 391.576 452.862 393.464 449.932 394.874C449.886 394.874 449.833 394.921 449.779 394.947C446.244 396.556 442.579 397.86 438.822 398.846C432.241 400.778 426.018 402.598 420.812 407.804C415.605 413.011 413.786 419.233 411.853 425.814C410.868 429.569 409.564 433.232 407.955 436.765L407.882 436.931C406.47 439.858 404.582 442.53 402.297 444.841C396.652 450.479 389.852 452.471 383.271 454.397C376.69 456.323 370.467 458.149 365.254 463.355C360.041 468.562 358.228 474.784 356.295 481.372C354.363 487.96 352.377 494.76 346.739 500.398C342.037 505.093 336.525 507.265 331.013 508.972L331.013 511.748C337.103 509.908 343.246 507.644 348.612 502.278C354.768 496.102 356.86 488.969 358.879 482.063Z" fill="#001705"/>
<path d="M344.999 443.013C349.727 438.284 355.624 436.558 361.88 434.725C368.787 432.733 375.919 430.614 382.035 424.498C384.424 422.098 386.413 419.332 387.926 416.303L387.926 416.27C388.413 415.309 388.856 414.337 389.254 413.354L389.347 413.109C389.5 412.743 389.646 412.378 389.785 412.006L390.071 411.216L390.257 410.705L390.629 409.609L390.669 409.503C391.24 407.776 391.751 406.043 392.249 404.343C394.082 398.094 395.809 392.196 400.53 387.468C405.252 382.74 411.156 381.013 417.425 379.18C419.138 378.675 420.871 378.164 422.618 377.586L423.787 377.188C423.926 377.135 424.066 377.082 424.205 377.035L425.082 376.716C425.407 376.59 425.746 376.457 426.065 376.331C426.184 376.278 426.304 376.232 426.423 376.185C427.393 375.787 428.362 375.348 429.312 374.857L429.359 374.857C432.389 373.349 435.156 371.362 437.553 368.973C443.67 362.857 445.762 355.724 447.78 348.818C449.613 342.569 451.34 336.665 456.068 331.937C456.181 331.824 456.301 331.724 456.414 331.611L452.774 331.611C448.637 336.486 446.97 342.13 445.23 348.074C443.304 354.655 441.312 361.456 435.674 367.1C433.363 369.387 430.688 371.275 427.758 372.685L427.619 372.752C424.078 374.359 420.408 375.665 416.648 376.657C410.06 378.589 403.844 380.409 398.631 385.615C393.425 390.822 391.598 397.038 389.672 403.625C388.686 407.374 387.384 411.033 385.781 414.563L385.695 414.742C384.286 417.67 382.401 420.343 380.116 422.652C374.471 428.29 367.671 430.282 361.083 432.208C354.496 434.134 348.286 435.96 343.073 441.166C337.86 446.373 336.047 452.595 334.115 459.183C333.259 462.319 332.219 465.401 331 468.414L331 474.265C333.809 469.656 335.257 464.735 336.665 459.927C338.518 453.645 340.271 447.741 344.999 443.013Z" fill="#001705"/>
<path d="M538.648 483.476L538.509 483.549C534.969 485.158 531.299 486.462 527.538 487.448C520.957 489.38 514.734 491.2 509.528 496.413C504.315 501.619 502.495 507.842 500.563 514.43C499.576 518.184 498.272 521.847 496.664 525.38L496.591 525.54C495.185 528.47 493.297 531.143 491.006 533.449C485.368 539.087 478.561 541.08 471.98 543.012C465.591 544.878 459.555 546.658 454.448 551.512L458.585 551.512C462.769 548.478 467.63 547.05 472.73 545.536C479.63 543.543 486.763 541.418 492.886 535.302C495.27 532.901 497.257 530.134 498.77 527.107L498.77 527.067C499.254 526.104 499.693 525.135 500.098 524.158L500.217 523.86L500.629 522.817L500.928 521.987L501.1 521.515L501.479 520.4L501.512 520.313C502.083 518.58 502.595 516.847 503.099 515.14C504.926 508.898 506.652 502.994 511.381 498.266C516.109 493.537 522.006 491.811 528.268 489.978C529.975 489.48 531.708 488.968 533.448 488.391L533.495 488.391C533.88 488.264 534.259 488.138 534.637 487.999C534.79 487.952 534.936 487.893 535.082 487.839C535.368 487.74 535.653 487.633 535.939 487.527C536.224 487.421 536.603 487.268 536.935 487.135L537.28 486.996C538.25 486.598 539.219 486.159 540.176 485.668L540.215 485.668C543.24 484.153 546.004 482.167 548.404 479.784C549.316 478.866 550.17 477.893 550.96 476.869L550.96 472.127C549.737 474.236 548.246 476.178 546.524 477.905C544.226 480.185 541.564 482.068 538.648 483.476Z" fill="#001705"/>
<path d="M425.381 548.571C427.213 542.321 428.94 536.418 433.668 531.689C438.397 526.961 444.294 525.228 450.55 523.401C457.456 521.409 464.589 519.284 470.711 513.168C473.096 510.767 475.082 508 476.595 504.973C477.08 504.01 477.518 503.04 477.923 502.064L478.016 501.819C478.169 501.447 478.315 501.081 478.455 500.71L478.74 499.926L478.933 499.408L479.298 498.332L479.345 498.199C479.916 496.473 480.427 494.746 480.925 493.046C482.751 486.797 484.478 480.9 489.206 476.171C493.935 471.443 499.832 469.716 506.088 467.89C507.801 467.385 509.541 466.867 511.287 466.29C511.673 466.163 512.058 466.031 512.45 465.891C512.589 465.845 512.735 465.792 512.881 465.738L513.745 465.42C514.077 465.294 514.409 465.161 514.734 465.028C514.854 464.981 514.967 464.942 515.086 464.888C516.056 464.49 517.025 464.052 517.981 463.56L518.021 463.56C521.048 462.047 523.815 460.061 526.216 457.676C532.333 451.553 534.424 444.395 536.443 437.515C538.276 431.265 540.009 425.368 544.738 420.633C546.558 418.836 548.652 417.339 550.94 416.197L550.94 413.235C547.935 414.574 545.197 416.446 542.858 418.761C537.645 423.967 535.826 430.183 533.893 436.771C531.961 443.359 529.975 450.159 524.337 455.797C522.046 458.063 519.396 459.934 516.494 461.336L516.348 461.409C512.81 463.016 509.142 464.32 505.384 465.307C498.803 467.239 492.58 469.059 487.374 474.272C482.167 479.478 480.347 485.701 478.415 492.282C477.428 496.037 476.126 499.703 474.523 503.24L474.444 503.399C473.035 506.328 471.147 509.001 468.859 511.308C463.221 516.947 456.414 518.939 449.832 520.871C443.251 522.804 437.029 524.617 431.822 529.83C426.616 535.043 424.79 541.259 422.857 547.84C422.498 549.069 422.14 550.304 421.748 551.539L424.531 551.539L425.381 548.571Z" fill="#001705"/>
<path d="M531.695 518.579C526.482 523.792 524.662 530.008 522.729 536.596C521.742 540.349 520.44 544.012 518.838 547.547L518.758 547.706C518.112 549.024 517.375 550.295 516.553 551.511L519.714 551.511C520.153 550.781 520.558 550.044 520.936 549.3L520.936 549.26C521.421 548.297 521.859 547.328 522.265 546.351L522.371 546.079L522.796 545.003L523.088 544.2L523.267 543.702L523.646 542.606L523.679 542.493C524.257 540.766 524.768 539.04 525.266 537.333C527.093 531.091 528.819 525.187 533.547 520.459C538.276 515.73 544.173 514.004 550.435 512.171L550.98 512.011L550.98 509.235C550.548 509.362 550.117 509.494 549.685 509.62C543.124 511.546 536.901 513.366 531.695 518.579Z" fill="#001705"/>
<path d="M550.077 551.519C550.362 550.809 550.668 550.111 551 549.427L551 544.154C549.431 546.439 548.159 548.913 547.215 551.519L550.077 551.519Z" fill="#001705"/>
<path d="M392.973 546.557C399.089 540.434 401.181 533.275 403.2 526.395C405.033 520.152 406.759 514.249 411.488 509.514C416.216 504.779 422.113 503.059 428.369 501.226C435.275 499.233 442.408 497.115 448.531 490.999C450.915 488.597 452.902 485.831 454.415 482.804C454.906 481.841 455.344 480.871 455.743 479.889L455.836 479.656C455.991 479.284 456.137 478.912 456.274 478.54L456.56 477.757L456.746 477.232C456.878 476.874 456.998 476.515 457.117 476.156L457.157 476.03C457.735 474.304 458.24 472.577 458.744 470.877C460.571 464.628 462.297 458.731 467.026 454.002C471.754 449.274 477.651 447.547 483.914 445.714C486.019 445.097 488.157 444.466 490.295 443.722L490.694 443.583C490.993 443.476 491.292 443.37 491.59 443.257C491.889 443.144 492.255 443.005 492.56 442.872C492.68 442.826 492.806 442.779 492.925 442.726C493.899 442.328 494.867 441.885 495.827 441.398C498.855 439.885 501.621 437.899 504.022 435.514C510.139 429.391 512.23 422.232 514.249 415.352C516.082 409.103 517.809 403.199 522.537 398.471C527.265 393.743 533.163 392.016 539.425 390.183C543.365 389.146 547.209 387.773 550.914 386.079L550.914 383.084C546.969 385.202 542.779 386.404 538.675 387.633C532.093 389.565 525.871 391.385 520.664 396.598C515.458 401.811 513.632 408.021 511.699 414.608C509.767 421.196 507.781 427.996 502.143 433.635C499.832 435.922 497.157 437.809 494.227 439.22L494.081 439.293C490.543 440.9 486.875 442.204 483.117 443.191C476.535 445.123 470.313 446.943 465.106 452.149C459.9 457.356 458.08 463.578 456.148 470.16C455.161 473.911 453.859 477.572 452.256 481.104L452.177 481.277C450.768 484.205 448.88 486.878 446.592 489.186C440.953 494.824 434.147 496.816 427.565 498.749C420.984 500.681 414.762 502.494 409.549 507.707C404.336 512.92 402.523 519.136 400.59 525.717C398.657 532.299 396.672 539.106 391.034 544.744C387.961 547.746 384.298 550.076 380.275 551.584L386.412 551.584C388.814 550.21 391.021 548.519 392.973 546.557Z" fill="#001705"/>
</g>
<path d="M221 338L221 447.994L330.97 447.994L330.97 338L221 338Z" fill="#4CE467"/>
<path d="M221.03 427.651L221.03 448L245.468 448L245.468 416.047C245.468 415.638 245.63 415.247 245.919 414.958C246.208 414.669 246.599 414.507 247.008 414.507L331 414.507L331 390.064L258.585 390.064C248.622 390.07 239.07 394.033 232.028 401.081C224.986 408.13 221.03 417.686 221.03 427.651Z" fill="#766DFA"/>
<path d="M331 154L331 263.994L440.988 263.994L440.988 154L331 154Z" fill="#2B5243"/>
<path d="M382.541 237.876L382.541 264L441 264L441 179.415C425.496 179.415 410.627 185.574 399.663 196.538C388.7 207.501 382.541 222.371 382.541 237.876Z" fill="#766DFA"/>
<path d="M441 264L441 374L551 374L551 264L441 264Z" fill="#FC805F"/>
<path d="M526.556 320.158L551 320.158L551 263.624L526.556 263.624L526.556 320.158Z" fill="#FFC844"/>
<path d="M515.261 368.979L551.03 368.979L551.03 344.534L503.656 344.534C503.248 344.534 502.856 344.372 502.567 344.083C502.279 343.794 502.116 343.402 502.116 342.994L502.116 263.623L477.696 263.623L477.696 331.389C477.696 341.354 481.653 350.911 488.697 357.96C495.742 365.009 505.296 368.972 515.261 368.979Z" fill="#766DFA"/>
</svg>
