<svg width="283" height="393" viewBox="0 0 283 393" fill="none" xmlns="http://www.w3.org/2000/svg">
<g opacity="0.33">
<path d="M191.976 37.1313C195.06 40.2039 198.619 42.7594 202.516 44.6993C203.752 45.3257 204.999 45.8952 206.258 46.4077L206.599 46.5443C207.069 46.7323 207.53 46.9202 208 47.091L209.025 47.4754L209.674 47.7061L211.075 48.1844L211.229 48.2356C213.45 48.9702 215.671 49.628 217.857 50.2686C225.895 52.6261 233.48 54.847 239.562 60.9287C245.644 67.0104 247.865 74.5955 250.222 82.6333C250.871 84.8456 251.529 87.0836 252.281 89.3301C252.443 89.834 252.622 90.338 252.793 90.842C252.862 91.0214 252.93 91.2007 252.99 91.3801L253.4 92.499C253.562 92.9261 253.733 93.3533 253.895 93.7633C253.963 93.917 254.023 94.0708 254.083 94.233C254.596 95.4801 255.165 96.7187 255.791 97.9487L255.791 98.0085C257.731 101.906 260.287 105.465 263.359 108.549C269.339 114.528 276.104 117.526 282.903 119.756L282.903 116.151C276.864 114.076 270.945 111.291 265.768 106.132C262.826 103.159 260.399 99.7183 258.585 95.95C258.557 95.8857 258.525 95.8229 258.491 95.762C256.43 91.2087 254.753 86.4916 253.477 81.6596C250.999 73.1862 248.651 65.1911 241.954 58.4858C235.257 51.789 227.262 49.44 218.788 46.9629C213.958 45.6901 209.243 44.0128 204.695 41.9489L204.498 41.8549C200.728 40.041 197.286 37.6102 194.316 34.6628C187.064 27.4108 184.502 18.664 182.025 10.1991C181 6.69699 179.992 3.28883 178.702 0.00879521L174.995 0.00879489C176.464 3.63262 177.716 7.3406 178.745 11.1131C181.418 20.0819 184.109 29.2644 191.976 37.1313Z" fill="#FFC844"/>
<path d="M11.1656 3.57065C17.2474 9.66096 19.4682 17.2375 21.8258 25.2924C24.3883 34.1673 27.1131 43.3412 34.9801 51.2167C42.8471 59.0922 52.0209 61.7743 60.9129 64.3368C68.9507 66.6944 76.5357 68.9152 82.626 74.9969C88.7163 81.0787 90.9287 88.6638 93.2862 96.7187C95.8488 105.594 98.5735 114.767 106.44 122.634C109.527 125.707 113.085 128.265 116.981 130.211C118.222 130.832 119.47 131.401 120.722 131.919L121.09 132.065L122.456 132.594L123.507 132.978L124.131 133.209L125.557 133.696L125.677 133.739C127.906 134.473 130.127 135.131 132.322 135.772C140.36 138.129 147.945 140.35 154.027 146.432C160.108 152.514 162.329 160.099 164.687 168.136C165.327 170.349 165.994 172.595 166.737 174.842C166.896 175.343 167.067 175.847 167.249 176.354L167.446 176.892L167.856 178.019C168.018 178.438 168.18 178.873 168.351 179.266C168.411 179.429 168.471 179.582 168.539 179.745C169.052 180.992 169.621 182.23 170.248 183.46L170.248 183.52C172.187 187.415 174.74 190.974 177.807 194.061C185.682 201.928 194.891 204.618 203.74 207.215C211.778 209.573 219.371 211.793 225.453 217.875C231.535 223.957 233.756 231.542 236.113 239.588C238.676 248.472 241.4 257.646 249.267 265.521C257.134 273.397 266.419 276.173 275.294 278.735C277.925 279.504 280.505 280.264 282.982 281.144L282.982 277.531C280.778 276.788 278.532 276.13 276.242 275.455C267.777 272.978 259.022 270.416 251.77 263.164C244.518 255.912 241.956 247.156 239.479 238.691C237.001 230.227 234.652 222.223 227.947 215.526C221.242 208.829 213.255 206.48 204.782 203.995C196.308 201.509 187.562 198.955 180.31 191.703C177.365 188.733 174.937 185.291 173.126 181.521C173.094 181.463 173.066 181.403 173.041 181.342C170.974 176.787 169.294 172.067 168.018 167.231C165.532 158.766 163.192 150.762 156.495 144.066C149.799 137.369 141.795 135.028 133.33 132.543C128.505 131.273 123.796 129.599 119.253 127.537L119.031 127.426C115.265 125.617 111.826 123.192 108.858 120.251C101.606 112.999 99.0433 104.244 96.5577 95.7705C94.072 87.2971 91.7401 79.3105 85.0348 72.6053C78.3296 65.9 70.3345 63.5681 61.8696 61.0824C53.4047 58.5968 44.6493 56.0427 37.3974 48.7908C30.1454 41.5388 27.5829 32.7835 25.1058 24.3186C22.6287 15.8538 20.2797 7.85014 13.5744 1.15339C13.1985 0.771858 12.8142 0.404517 12.4213 0.0514595L6.89477 0.051459C8.42492 1.08887 9.85479 2.26707 11.1656 3.57065Z" fill="#FFC844"/>
<path d="M231.029 16.1863L231.08 16.1863C232.31 16.8099 233.565 17.3822 234.821 17.8947C234.924 17.9459 235.026 17.9801 235.137 18.0228C235.607 18.2193 236.085 18.4072 236.555 18.5865L237.563 18.9538L238.238 19.193L239.613 19.6628L239.792 19.7226C242.013 20.4658 244.226 21.1149 246.412 21.7556C254.45 24.1131 262.035 26.3339 268.125 32.4157C274.216 38.4974 276.419 46.0825 278.777 54.1374C279.571 56.8366 280.383 59.587 281.34 62.3375L281.527 62.8756C281.664 63.2514 281.801 63.6273 281.946 64.0031C282.091 64.379 282.271 64.8573 282.441 65.2673L282.621 65.7286L282.962 66.5059L282.962 56.2557C282.655 55.2307 282.348 54.2057 282.049 53.1807C279.571 44.7073 277.222 36.7122 270.526 30.0069C263.82 23.3101 255.825 20.9612 247.352 18.4841C242.523 17.215 237.811 15.5377 233.266 13.47L233.053 13.3675C229.287 11.554 225.849 9.12628 222.88 6.18388C221.022 4.32337 219.375 2.26376 217.968 0.0423451L213.962 0.0423447C215.735 3.1687 217.922 6.04182 220.462 8.58411C223.552 11.6711 227.12 14.2383 231.029 16.1863Z" fill="#FFC844"/>
<path d="M89.4193 35.8588C97.4571 38.2163 105.042 40.4372 111.132 46.5189C117.223 52.6007 119.435 60.1857 121.793 68.2321C124.355 77.107 127.08 86.2894 134.947 94.1563C138.033 97.2287 141.592 99.7867 145.488 101.733C146.726 102.365 147.973 102.929 149.237 103.441L149.553 103.561C150.023 103.757 150.493 103.945 150.971 104.125L151.979 104.492L152.654 104.731L154.029 105.209L154.209 105.269C156.429 106.004 158.642 106.653 160.828 107.294C168.866 109.651 176.451 111.872 182.533 117.954C188.615 124.035 190.836 131.621 193.193 139.667C193.988 142.375 194.799 145.134 195.756 147.884C195.824 148.055 195.884 148.234 195.952 148.405L196.362 149.541L196.849 150.78L197.046 151.267C197.558 152.522 198.13 153.761 198.754 154.999C198.752 155.014 198.752 155.028 198.754 155.042C200.7 158.938 203.258 162.496 206.331 165.583C214.197 173.45 223.414 176.14 232.255 178.737C240.293 181.094 247.886 183.315 253.968 189.397C260.05 195.479 262.271 203.064 264.628 211.11C267.191 219.994 269.915 229.168 277.782 237.043C279.368 238.608 281.083 240.036 282.908 241.314L282.908 237.043C281.967 236.281 281.066 235.471 280.208 234.617C272.956 227.365 270.394 218.61 267.917 210.145C265.44 201.68 263.091 193.677 256.394 186.971C249.697 180.266 241.693 177.934 233.22 175.448C224.747 172.963 216.008 170.409 208.748 163.157C205.806 160.184 203.378 156.743 201.564 152.975C201.564 152.915 201.504 152.847 201.47 152.779C199.401 148.232 197.724 143.517 196.456 138.685C193.971 130.22 191.63 122.216 184.933 115.519C178.237 108.823 170.233 106.482 161.768 103.996C156.939 102.729 152.227 101.051 147.683 98.9825L147.469 98.8885C143.705 97.072 140.267 94.6446 137.296 91.7049C130.044 84.4444 127.481 75.6976 125.004 67.2327C122.527 58.7678 120.178 50.7642 113.481 44.0589C106.785 37.3536 98.781 35.0217 90.3076 32.5361C81.8342 30.0504 73.0875 27.4964 65.8355 20.2444C59.7965 14.1969 57.0033 7.10719 54.8081 0.0175277L51.2376 0.0175274C53.6036 7.85032 56.5164 15.7515 63.4181 22.6532C71.362 30.5714 80.5359 33.2621 89.4193 35.8588Z" fill="#FFC844"/>
<path d="M139.648 18.0062C145.729 24.088 147.95 31.673 150.308 39.7194C152.87 48.6028 155.595 57.7767 163.462 65.6437C166.548 68.716 170.107 71.274 174.003 73.2202L174.045 73.2202C175.281 73.8466 176.531 74.4161 177.795 74.9286L178.111 75.0481C178.581 75.2446 179.051 75.4325 179.529 75.6119L180.546 75.9792L181.203 76.2184L182.613 76.6967L182.749 76.748C184.97 77.4826 187.2 78.1403 189.386 78.7809C197.424 81.1384 205.009 83.3593 211.091 89.4325C217.173 95.5057 219.394 103.099 221.751 111.163C222.4 113.367 223.058 115.596 223.801 117.842L224.314 119.346C224.382 119.525 224.45 119.705 224.51 119.884L224.92 121.011C225.082 121.43 225.253 121.866 225.415 122.276C225.484 122.429 225.544 122.583 225.603 122.737C226.116 123.984 226.68 125.231 227.312 126.453L227.312 126.512C229.252 130.41 231.807 133.969 234.88 137.053C242.747 144.92 251.921 147.611 260.804 150.207C268.842 152.565 276.435 154.786 282.517 160.867C282.662 161.013 282.791 161.166 282.936 161.312L282.936 156.631C276.666 151.309 269.406 149.165 261.761 146.927C253.296 144.45 244.549 141.887 237.289 134.636C234.347 131.663 231.919 128.222 230.105 124.454L230.02 124.274C227.953 119.72 226.273 115 224.997 110.163C222.511 101.69 220.171 93.6949 213.474 86.9896C206.777 80.2928 198.782 77.9438 190.309 75.4667C185.487 74.1981 180.78 72.5236 176.241 70.4612L176.01 70.3502C172.245 68.5388 168.807 66.1141 165.837 63.1751C158.585 55.9146 156.022 47.1678 153.545 38.6944C151.068 30.2209 148.719 22.2344 142.022 15.5291C135.325 8.82379 127.322 6.4919 118.848 4.00624C114.815 2.90604 110.851 1.56834 106.975 0.000152464L99.4501 0.000151806C105.378 3.61333 111.707 5.47545 117.892 7.2863C125.972 9.66947 133.566 11.9245 139.648 18.0062Z" fill="#FFC844"/>
<path d="M87.6034 267.083L87.5094 266.904C85.4403 262.351 83.7629 257.631 82.4954 252.793C80.0098 244.328 77.6693 236.325 70.964 229.628C64.2673 222.923 56.2637 220.582 47.7902 218.096C42.9615 216.827 38.2494 215.15 33.7049 213.082L33.4998 212.988C29.7312 211.179 26.2925 208.751 23.3266 205.805C16.0746 198.553 13.5121 189.798 11.0264 181.333C8.62619 173.115 6.33696 165.351 0.0929292 158.782L0.0929288 164.104C3.99652 169.485 5.83299 175.738 7.78052 182.298C10.343 191.173 13.0764 200.347 20.9434 208.222C24.0321 211.289 27.5903 213.844 31.4839 215.79L31.5352 215.79C32.7738 216.414 34.0209 216.977 35.2765 217.499L35.6609 217.652L37.002 218.182L38.0697 218.566L38.6761 218.788L40.1112 219.275L40.2221 219.318C42.4515 220.052 44.681 220.71 46.8762 221.359C54.9055 223.708 62.4991 225.929 68.5809 232.011C74.6626 238.093 76.8834 245.678 79.241 253.733C79.8816 255.928 80.5393 258.157 81.2825 260.395L81.2825 260.455C81.4448 260.95 81.607 261.437 81.7864 261.924C81.8462 262.121 81.9231 262.309 81.9914 262.497C82.1195 262.864 82.2563 263.231 82.3929 263.598C82.5296 263.966 82.726 264.453 82.8969 264.88L83.0762 265.324C83.5887 266.571 84.1525 267.818 84.7846 269.048L84.7846 269.099C86.7325 272.989 89.2871 276.544 92.3526 279.631C93.533 280.804 94.7854 281.903 96.1024 282.92L102.201 282.92C99.4888 281.346 96.991 279.428 94.7699 277.214C91.8363 274.258 89.4144 270.834 87.6034 267.083Z" fill="#FFC844"/>
<path d="M3.87358 121.397C11.9114 123.754 19.505 125.975 25.5868 132.057C31.6685 138.139 33.8979 145.724 36.2469 153.77C38.8094 162.653 41.5427 171.827 49.4097 179.703C52.4984 182.77 56.0567 185.325 59.9503 187.271C61.1889 187.894 62.436 188.458 63.6916 188.979L64.0076 189.099C64.486 189.295 64.9557 189.483 65.4341 189.663L66.442 190.03L67.1083 190.278L68.4921 190.747L68.6629 190.807C70.8837 191.542 73.1046 192.199 75.2913 192.84C83.3291 195.189 90.9142 197.41 96.9959 203.492C103.078 209.573 105.299 217.159 107.648 225.205C108.297 227.409 108.963 229.647 109.706 231.893C109.868 232.388 110.039 232.884 110.219 233.388C110.278 233.567 110.347 233.755 110.415 233.943L110.825 235.054C110.987 235.481 111.158 235.908 111.329 236.326C111.389 236.48 111.44 236.625 111.508 236.779C112.021 238.026 112.585 239.273 113.217 240.503L113.217 240.554C115.163 244.448 117.718 248.006 120.785 251.095C128.66 258.962 137.868 261.653 146.718 264.249C154.755 266.607 162.34 268.836 168.431 274.918C170.742 277.259 172.668 279.952 174.137 282.896L177.946 282.896C176.224 279.031 173.816 275.509 170.839 272.501C164.143 265.795 156.148 263.455 147.674 260.969C139.201 258.484 130.454 255.93 123.202 248.678C120.287 245.731 117.88 242.322 116.078 238.59L115.984 238.402C113.917 233.852 112.239 229.134 110.97 224.299C108.485 215.835 106.144 207.831 99.4389 201.134C92.7421 194.437 84.7385 192.097 76.2736 189.611C71.4434 188.341 66.7288 186.667 62.1797 184.606L61.9747 184.503C58.2077 182.691 54.7694 180.263 51.8014 177.32C44.5495 170.068 41.9869 161.312 39.5013 152.848C37.0156 144.383 34.6837 136.379 27.9784 129.682C21.2731 122.986 13.278 120.637 4.81316 118.151C3.23292 117.69 1.64421 117.228 0.0554344 116.724L0.0554341 120.303L3.87358 121.397Z" fill="#FFC844"/>
<path d="M42.4507 258.141C35.7454 251.436 27.7503 249.095 19.2769 246.61C14.4495 245.34 9.73766 243.665 5.1915 241.604L4.9864 241.502C3.29158 240.67 1.65623 239.723 0.0919839 238.666L0.0919835 242.732C1.03158 243.295 1.97978 243.816 2.93646 244.303L2.98766 244.303C4.22621 244.927 5.47332 245.491 6.72896 246.012L7.0792 246.148L8.46296 246.695L9.49648 247.071L10.1371 247.301L11.5465 247.788L11.6918 247.831C13.9126 248.574 16.1335 249.232 18.3287 249.873C26.358 252.222 33.9516 254.442 40.0333 260.524C46.115 266.606 48.3359 274.191 50.6934 282.246L50.8984 282.946L54.4689 282.946C54.3066 282.391 54.1358 281.836 53.9735 281.281C51.4964 272.841 49.156 264.838 42.4507 258.141Z" fill="#FFC844"/>
<path d="M0.0820352 281.784C0.996004 282.152 1.89291 282.545 2.77271 282.972L9.55493 282.972C6.61678 280.953 3.4335 279.317 0.0820355 278.103L0.0820352 281.784Z" fill="#FFC844"/>
<path d="M6.4662 79.7114C14.3417 87.5784 23.5497 90.2691 32.399 92.8658C40.4283 95.2233 48.0218 97.4442 54.1121 103.526C60.2024 109.608 62.4148 117.193 64.7723 125.239C67.3349 134.123 70.0596 143.296 77.9266 151.172C81.0152 154.239 84.5735 156.794 88.4672 158.74C89.7057 159.372 90.9528 159.936 92.217 160.448L92.516 160.568C92.9943 160.767 93.4726 160.955 93.9509 161.132L94.9589 161.499L95.6337 161.738C96.095 161.909 96.5562 162.063 97.0175 162.216L97.1797 162.268C99.4006 163.011 101.621 163.66 103.808 164.309C111.846 166.658 119.431 168.879 125.513 174.961C131.595 181.042 133.815 188.628 136.173 196.682C136.967 199.39 137.779 202.141 138.735 204.891L138.915 205.404C139.051 205.788 139.188 206.172 139.333 206.557C139.479 206.941 139.658 207.411 139.829 207.804C139.889 207.958 139.948 208.12 140.017 208.274C140.529 209.526 141.099 210.771 141.725 212.006C143.671 215.9 146.226 219.458 149.293 222.547C157.169 230.414 166.377 233.105 175.226 235.701C183.264 238.059 190.857 240.28 196.939 246.361C203.021 252.443 205.242 260.028 207.599 268.083C208.933 273.151 210.699 278.095 212.878 282.86L216.73 282.86C214.005 277.787 212.459 272.397 210.879 267.118C208.394 258.653 206.053 250.649 199.348 243.953C192.643 237.256 184.656 234.907 176.183 232.421C167.709 229.936 158.962 227.382 151.71 220.13C148.769 217.157 146.341 213.716 144.527 209.948L144.433 209.76C142.365 205.21 140.688 200.492 139.419 195.657C136.933 187.193 134.593 179.189 127.896 172.492C121.199 165.795 113.196 163.455 104.731 160.969C99.906 159.699 95.1971 158.025 90.6538 155.964L90.4317 155.861C86.6647 154.049 83.2265 151.621 80.2586 148.678C73.0066 141.426 70.444 132.67 67.9584 124.206C65.4727 115.741 63.1408 107.737 56.4355 101.032C49.7303 94.3264 41.7352 91.9945 33.2703 89.5088C24.8054 87.0232 16.0501 84.4692 8.79808 77.2173C4.93642 73.2656 1.94008 68.553 1.91876e-05 63.3796L1.84976e-05 71.2722C1.76703 74.3626 3.94199 77.2012 6.4662 79.7114Z" fill="#FFC844"/>
</g>
<path d="M173.011 362.565C190.404 357.889 206.113 348.371 218.311 335.118C208.493 319.33 202.421 301.502 200.56 283.002L173.011 283.002L173.011 362.565Z" fill="#2B5243"/>
<path d="M173.011 390.541L173.011 393L283.01 393L283.01 386.605C265.018 380.483 248.697 370.256 235.337 356.735C218.36 373.92 196.67 385.683 173.011 390.541Z" fill="#2B5243"/>
<path d="M283.011 357.3L283.011 283L270.115 283C268.254 301.5 262.182 319.328 252.364 335.116C260.996 344.484 271.417 352.027 283.011 357.3Z" fill="#2B5243"/>
<path d="M242.701 283.001L227.949 283.001C229.132 292.05 231.616 300.88 235.325 309.218C239.034 300.88 241.518 292.05 242.701 283.001Z" fill="#2B5243"/>
<path d="M235.337 309.218C231.629 300.88 229.144 292.05 227.961 283L200.548 283C202.409 301.5 208.481 319.328 218.299 335.116C225.356 327.474 231.112 318.725 235.337 309.218Z" fill="#FC805F"/>
<path d="M252.364 335.115C247.511 342.922 241.8 350.161 235.338 356.697C248.694 370.232 265.015 380.471 283.011 386.604L283.011 357.336C271.413 352.053 260.992 344.497 252.364 335.115Z" fill="#FC805F"/>
<path d="M235.338 309.218C239.559 318.724 245.311 327.473 252.364 335.116C262.182 319.328 268.254 301.5 270.115 283L242.701 283C241.522 292.049 239.042 300.879 235.338 309.218Z" fill="#F6C85B"/>
<path d="M235.337 356.698C228.875 350.162 223.164 342.923 218.311 335.116C206.113 348.37 190.404 357.888 173.011 362.564L173.011 390.54C196.675 385.673 218.364 373.896 235.337 356.698Z" fill="#F6C85B"/>
<path d="M235.338 356.7C241.8 350.164 247.511 342.925 252.364 335.118C245.311 327.475 239.559 318.726 235.338 309.22C231.116 318.726 225.364 327.475 218.311 335.118C223.164 342.925 228.875 350.164 235.338 356.7Z" fill="#E14547"/>
<path d="M86.9226 197.968L86.9226 173.012L63 173.012L63 283L173 283L173 260.147L149.102 260.147C132.612 260.144 116.798 253.592 105.138 241.931C93.4779 230.271 86.9259 214.458 86.9226 197.968Z" fill="#4CE467"/>
<path d="M129.9 219.714L173 219.714L173 173L127.355 173L127.355 217.157C127.354 217.493 127.418 217.825 127.545 218.135C127.673 218.445 127.86 218.727 128.096 218.965C128.333 219.202 128.614 219.391 128.923 219.52C129.233 219.648 129.565 219.714 129.9 219.714Z" fill="#4CE467"/>
<path d="M129.9 219.715C129.225 219.715 128.578 219.447 128.1 218.969C127.623 218.492 127.355 217.845 127.355 217.17L127.355 173.013L86.9225 173.013L86.9225 197.968C86.9258 214.458 93.4778 230.272 105.138 241.932C116.798 253.592 132.612 260.144 149.102 260.147L173 260.147L173 219.715L129.9 219.715Z" fill="#766DFA"/>
</svg>
