<svg width="120" height="162" viewBox="0 0 120 162" fill="none" xmlns="http://www.w3.org/2000/svg">
<g opacity="0.33">
<path d="M63.0917 12.2029C64.1053 13.2127 65.275 14.0526 66.5558 14.6901C66.9619 14.896 67.3718 15.0831 67.7854 15.2516L67.8977 15.2965C68.0521 15.3582 68.2037 15.42 68.3581 15.4762L68.695 15.6025L68.9083 15.6783L69.3687 15.8355L69.4192 15.8523C70.1491 16.0937 70.879 16.3099 71.5976 16.5204C74.2392 17.2952 76.732 18.0251 78.7308 20.0239C80.7295 22.0226 81.4594 24.5154 82.2342 27.157C82.4475 27.8841 82.6637 28.6196 82.9107 29.3579C82.964 29.5235 83.023 29.6891 83.0792 29.8547C83.1016 29.9137 83.1241 29.9726 83.1437 30.0316L83.2785 30.3993C83.3318 30.5397 83.3879 30.6801 83.4413 30.8148C83.4637 30.8653 83.4834 30.9159 83.5031 30.9692C83.6715 31.3791 83.8586 31.7861 84.0645 32.1903L84.0645 32.21C84.7021 33.4908 85.5419 34.6605 86.5517 35.6741C88.5167 37.6392 90.7401 38.6245 92.9746 39.3572L92.9746 38.1725C90.9899 37.4904 89.0445 36.5752 87.3433 34.8797C86.3765 33.9027 85.5787 32.7719 84.9824 31.5335C84.9733 31.5123 84.963 31.4917 84.9516 31.4717C84.2745 29.9752 83.7233 28.425 83.3037 26.837C82.4896 24.0522 81.7176 21.4247 79.5168 19.221C77.3159 17.0201 74.6884 16.2481 71.9036 15.434C70.3161 15.0157 68.7667 14.4645 67.2717 13.7862L67.2071 13.7553C65.9679 13.1592 64.837 12.3603 63.8609 11.3916C61.4776 9.00832 60.6354 6.13372 59.8213 3.35177C59.4845 2.20081 59.1532 1.08073 58.7293 0.00275503L57.511 0.00275493C57.9937 1.19371 58.4053 2.41232 58.7434 3.65214C59.622 6.59972 60.5063 9.61749 63.0917 12.2029Z" fill="#FFC844"/>
<path d="M3.66866 1.17353C5.6674 3.17508 6.39728 5.66508 7.17207 8.31229C8.01424 11.229 8.90974 14.244 11.4952 16.8322C14.0806 19.4205 17.0956 20.3019 20.0179 21.1441C22.6595 21.9189 25.1523 22.6488 27.1538 24.6475C29.1554 26.6462 29.8825 29.1391 30.6573 31.7863C31.4994 34.703 32.3949 37.7179 34.9804 40.3034C35.9946 41.3131 37.1642 42.1538 38.4445 42.7934C38.8525 42.9974 39.2623 43.1845 39.6741 43.3548L39.7948 43.4025L40.2439 43.5766L40.5892 43.7029L40.7941 43.7787L41.2629 43.9387L41.3022 43.9528C42.0349 44.1942 42.7648 44.4103 43.4863 44.6209C46.1278 45.3957 48.6207 46.1256 50.6194 48.1243C52.6182 50.123 53.348 52.6159 54.1228 55.2575C54.3334 55.9845 54.5523 56.7228 54.7966 57.4611C54.849 57.6258 54.9051 57.7914 54.965 57.958L55.0295 58.1349L55.1643 58.5054C55.2176 58.643 55.2709 58.7861 55.3271 58.9152C55.3467 58.9686 55.3664 59.0191 55.3889 59.0725C55.5573 59.4823 55.7445 59.8894 55.9503 60.2936L55.9503 60.3133C56.5878 61.5934 57.4266 62.763 58.4347 63.7774C61.023 66.3628 64.0491 67.2471 66.9574 68.1005C69.599 68.8753 72.0946 69.6051 74.0934 71.6039C76.0921 73.6026 76.822 76.0954 77.5968 78.7398C78.439 81.6593 79.3345 84.6743 81.9199 87.2626C84.5054 89.8508 87.5568 90.7632 90.4735 91.6053C91.3381 91.858 92.1859 92.1078 93 92.397L93 91.2095C92.2757 90.9653 91.5374 90.7491 90.7851 90.5274C88.0031 89.7133 85.1257 88.8711 82.7424 86.4878C80.3591 84.1044 79.5169 81.227 78.7028 78.4451C77.8887 75.6631 77.1167 73.0328 74.9131 70.8319C72.7094 68.631 70.0847 67.8591 67.2999 67.0422C64.5151 66.2253 61.6405 65.3859 59.2572 63.0026C58.2895 62.0263 57.4916 60.8954 56.8963 59.6564C56.8859 59.6373 56.8765 59.6176 56.8683 59.5974C56.1891 58.1006 55.6369 56.5493 55.2176 54.9599C54.4007 52.1779 53.6316 49.5476 51.4307 47.3467C49.2298 45.1458 46.5994 44.3767 43.8175 43.5597C42.2319 43.1424 40.6843 42.5921 39.1912 41.9147L39.1182 41.8782C37.8804 41.2835 36.7505 40.4866 35.7748 39.5202C33.3915 37.1368 32.5493 34.2594 31.7324 31.4747C30.9155 28.6899 30.1492 26.0652 27.9455 23.8615C25.7418 21.6578 23.1143 20.8915 20.3323 20.0745C17.5504 19.2576 14.6729 18.4183 12.2896 16.035C9.9063 13.6516 9.06412 10.7742 8.25003 7.99228C7.43594 5.21033 6.66396 2.57996 4.46028 0.379097C4.33677 0.253708 4.21045 0.132988 4.08131 0.01696L2.26505 0.0169598C2.76794 0.357902 3.23785 0.745109 3.66866 1.17353Z" fill="#FFC844"/>
<path d="M75.9272 5.31961L75.9441 5.31961C76.3483 5.52453 76.761 5.71262 77.1736 5.88105C77.2073 5.89789 77.241 5.90913 77.2775 5.92316C77.4319 5.98773 77.5891 6.04948 77.7435 6.10843L78.0747 6.22914L78.2965 6.30775L78.7485 6.46215L78.8074 6.4818C79.5373 6.72603 80.2644 6.93938 80.983 7.14992C83.6246 7.92471 86.1174 8.65458 88.119 10.6533C90.1205 12.6521 90.8448 15.1449 91.6196 17.7921C91.8806 18.6792 92.1473 19.5831 92.4617 20.487L92.5235 20.6639C92.5684 20.7874 92.6134 20.9109 92.6611 21.0344C92.7088 21.1579 92.7677 21.3152 92.8239 21.4499L92.8828 21.6015L92.9951 21.8569L92.9951 18.4883C92.8941 18.1514 92.793 17.8145 92.6948 17.4777C91.8807 14.6929 91.1087 12.0654 88.9078 9.86169C86.7042 7.66083 84.0766 6.88884 81.2918 6.07475C79.7049 5.65769 78.1562 5.10643 76.6627 4.42691L76.5925 4.39323C75.3548 3.79722 74.2249 2.99936 73.2491 2.03234C72.6386 1.42089 72.0973 0.744011 71.635 0.0139523L70.3184 0.0139522C70.9011 1.04142 71.6197 1.98566 72.4547 2.82117C73.47 3.8357 74.6426 4.67941 75.9272 5.31961Z" fill="#FFC844"/>
<path d="M29.3874 11.7848C32.029 12.5596 34.5218 13.2895 36.5233 15.2882C38.5249 17.287 39.252 19.7798 40.0268 22.4242C40.8689 25.3409 41.7644 28.3586 44.3499 30.9441C45.3642 31.9538 46.5337 32.7945 47.814 33.4341C48.2211 33.6418 48.6309 33.8271 49.0463 33.9956L49.1502 34.0348C49.3046 34.0994 49.459 34.1612 49.6162 34.2201L49.9475 34.3408L50.1692 34.4194L50.6212 34.5766L50.6802 34.5963C51.41 34.8377 52.1371 35.0511 52.8558 35.2616C55.4974 36.0364 57.9902 36.7663 59.9889 38.765C61.9877 40.7638 62.7175 43.2566 63.4923 45.901C63.7534 46.7909 64.0201 47.6976 64.3345 48.6015C64.3569 48.6577 64.3766 48.7166 64.3991 48.7727L64.5338 49.1461L64.6938 49.5532L64.7584 49.7132C64.9268 50.1258 65.1149 50.5329 65.3198 50.9399C65.3191 50.9446 65.3191 50.9493 65.3198 50.954C65.9595 52.2343 66.8001 53.4038 67.8098 54.4181C70.3953 57.0035 73.4243 57.8878 76.3297 58.7412C78.9713 59.516 81.467 60.2459 83.4657 62.2446C85.4644 64.2433 86.1943 66.7362 86.9691 69.3806C87.8113 72.3001 88.7068 75.315 91.2922 77.9033C91.8134 78.4175 92.3768 78.887 92.9766 79.3069L92.9766 77.9033C92.6675 77.6528 92.3714 77.3867 92.0895 77.106C89.7061 74.7227 88.864 71.8453 88.0499 69.0633C87.2358 66.2814 86.4638 63.651 84.2629 61.4474C82.0621 59.2437 79.4317 58.4773 76.647 57.6604C73.8622 56.8435 70.9904 56.0042 68.6043 53.6208C67.6374 52.6438 66.8396 51.5131 66.2434 50.2746C66.2434 50.255 66.2237 50.2325 66.2125 50.21C65.5325 48.7157 64.9813 47.1661 64.5647 45.5781C63.7478 42.7962 62.9786 40.1658 60.7777 37.9649C58.5769 35.7641 55.9465 34.9949 53.1646 34.178C51.5775 33.7614 50.0288 33.2101 48.5355 32.5302L48.4653 32.4993C47.2281 31.9023 46.0984 31.1045 45.1219 30.1384C42.7385 27.7523 41.8964 24.8777 41.0823 22.0957C40.2682 19.3138 39.4962 16.6834 37.2953 14.4798C35.0945 12.2761 32.4641 11.5097 29.6793 10.6928C26.8946 9.87591 24.02 9.03655 21.6367 6.65322C19.652 4.66571 18.734 2.33572 18.0126 0.00572312L16.8391 0.00572302C17.6167 2.57995 18.574 5.17662 20.8422 7.44486C23.4529 10.0472 26.4679 10.9314 29.3874 11.7848Z" fill="#FFC844"/>
<path d="M45.8942 5.91766C47.893 7.9164 48.6229 10.4092 49.3976 13.0536C50.2398 15.9731 51.1353 18.9881 53.7208 21.5735C54.735 22.5833 55.9046 23.4239 57.1849 24.0635L57.1989 24.0635C57.605 24.2694 58.0158 24.4565 58.4313 24.625L58.5352 24.6643C58.6896 24.7288 58.844 24.7906 59.0012 24.8496L59.3352 24.9703L59.5514 25.0489L60.0146 25.2061L60.0595 25.2229C60.7894 25.4643 61.522 25.6805 62.2407 25.891C64.8823 26.6658 67.3751 27.3957 69.3738 29.3916C71.3726 31.3876 72.1024 33.8832 72.8772 36.5332C73.0906 37.2575 73.3067 37.9902 73.551 38.7285L73.7194 39.2225C73.7419 39.2815 73.7643 39.3404 73.784 39.3994L73.9187 39.7699C73.9721 39.9075 74.0282 40.0507 74.0815 40.1854C74.104 40.2359 74.1236 40.2865 74.1433 40.337C74.3117 40.7468 74.497 41.1567 74.7047 41.5581L74.7047 41.5778C75.3423 42.8586 76.1821 44.0283 77.1919 45.0419C79.7774 47.6273 82.7924 48.5116 85.7119 49.365C88.3535 50.1398 90.8491 50.8697 92.8478 52.8684C92.8955 52.9161 92.9376 52.9667 92.9854 53.0144L92.9854 51.476C90.9249 49.7271 88.5387 49.0225 86.0263 48.287C83.2443 47.4729 80.3697 46.6308 77.9836 44.2474C77.0168 43.2705 76.2189 42.1397 75.6227 40.9012L75.5946 40.8423C74.9154 39.3454 74.3632 37.7941 73.944 36.2048C73.1271 33.42 72.3579 30.7924 70.1571 28.5888C67.9562 26.3879 65.3286 25.6159 62.5439 24.8018C60.9591 24.3849 59.4124 23.8346 57.9204 23.1568L57.8446 23.1203C56.6071 22.525 55.4773 21.7281 54.5012 20.7622C52.1179 18.3761 51.2757 15.5015 50.4616 12.7167C49.6475 9.93198 48.8755 7.30723 46.6747 5.10356C44.4738 2.89989 41.8434 2.13353 39.0587 1.31662C37.7332 0.955043 36.4302 0.515414 35.1566 3.69061e-05L32.6835 3.66899e-05C34.6317 1.18749 36.7118 1.79947 38.7443 2.3946C41.3999 3.17782 43.8955 3.91892 45.8942 5.91766Z" fill="#FFC844"/>
<path d="M28.7904 87.7761L28.7595 87.7172C28.0795 86.2209 27.5282 84.6695 27.1117 83.0797C26.2947 80.2977 25.5256 77.6673 23.3219 75.4665C21.121 73.2628 18.4907 72.4936 15.7059 71.6767C14.119 71.2597 12.5703 70.7084 11.0768 70.0289L11.0094 69.998C9.77087 69.4034 8.64077 68.6054 7.66603 67.6371C5.2827 65.2538 4.44053 62.3764 3.62363 59.5944C2.8348 56.8939 2.08245 54.3421 0.0303762 52.1834L0.030376 53.9323C1.31327 55.7008 1.91683 57.7557 2.55687 59.9117C3.39904 62.8284 4.29736 65.8433 6.88281 68.4316C7.89789 69.4396 9.06728 70.2792 10.3469 70.9188L10.3638 70.9188C10.7708 71.1237 11.1807 71.309 11.5933 71.4802L11.7196 71.5307L12.1604 71.7048L12.5113 71.8311L12.7106 71.9041L13.1822 72.0641L13.2187 72.0782C13.9514 72.3196 14.6841 72.5357 15.4055 72.7491C18.0443 73.5211 20.5399 74.2509 22.5387 76.2497C24.5374 78.2484 25.2673 80.7412 26.0421 83.3884C26.2526 84.1099 26.4688 84.8426 26.713 85.5781L26.713 85.5977C26.7663 85.7605 26.8197 85.9206 26.8786 86.0806C26.8983 86.1451 26.9235 86.2069 26.946 86.2686C26.9881 86.3894 27.033 86.5101 27.078 86.6308C27.1229 86.7515 27.1874 86.9115 27.2436 87.0519L27.3025 87.1978C27.471 87.6077 27.6562 88.0176 27.864 88.4218L27.864 88.4386C28.5041 89.717 29.3437 90.8854 30.3512 91.8999C30.7391 92.2854 31.1507 92.6464 31.5835 92.9807L33.5879 92.9807C32.6964 92.4634 31.8756 91.8331 31.1456 91.1055C30.1815 90.1339 29.3855 89.0087 28.7904 87.7761Z" fill="#FFC844"/>
<path d="M1.27384 39.8963C3.91543 40.6711 6.41106 41.401 8.4098 43.3997C10.4085 45.3985 11.1412 47.8913 11.9132 50.5357C12.7554 53.4552 13.6537 56.4701 16.2391 59.0584C17.2542 60.0664 18.4236 60.906 19.7032 61.5456C20.1103 61.7505 20.5201 61.9358 20.9328 62.107L21.0367 62.1463C21.1939 62.2109 21.3483 62.2726 21.5055 62.3316L21.8367 62.4523L22.0557 62.5337L22.5105 62.6881L22.5666 62.7078C23.2965 62.9492 24.0263 63.1654 24.745 63.3759C27.3866 64.1479 29.8794 64.8777 31.8782 66.8765C33.8769 68.8752 34.6068 71.3681 35.3787 74.0125C35.5921 74.7367 35.8111 75.4722 36.0553 76.2105C36.1086 76.3733 36.1648 76.5361 36.2237 76.7018C36.2434 76.7607 36.2658 76.8225 36.2883 76.8842L36.423 77.2492C36.4764 77.3895 36.5325 77.5299 36.5886 77.6674C36.6083 77.718 36.6252 77.7657 36.6476 77.8162C36.816 78.2261 37.0013 78.6359 37.2091 79.0402L37.2091 79.057C37.8486 80.3366 38.6882 81.5061 39.6962 82.5211C42.2845 85.1066 45.3107 85.9909 48.219 86.8443C50.8606 87.619 53.3534 88.3517 55.3549 90.3505C56.1145 91.1199 56.7474 92.0049 57.2301 92.9724L58.4822 92.9724C57.9161 91.702 57.1248 90.5446 56.1466 89.556C53.9457 87.3524 51.3181 86.5832 48.5334 85.7663C45.7486 84.9494 42.874 84.11 40.4907 81.7267C39.5328 80.7582 38.7417 79.638 38.1495 78.4114L38.1186 78.3496C37.439 76.8542 36.8878 75.3037 36.4708 73.7149C35.6539 70.9329 34.8847 68.3026 32.681 66.1017C30.4802 63.9008 27.8498 63.1317 25.0678 62.3148C23.4804 61.8974 21.931 61.3471 20.4359 60.6697L20.3685 60.636C19.1305 60.0405 18.0006 59.2426 17.0251 58.2752C14.6418 55.8918 13.7996 53.0144 12.9827 50.2325C12.1658 47.4505 11.3995 44.8202 9.1958 42.6193C6.99213 40.4184 4.36458 39.6465 1.58262 38.8296C1.06329 38.678 0.541162 38.5264 0.0190172 38.3608L0.0190171 39.537L1.27384 39.8963Z" fill="#FFC844"/>
<path d="M13.9516 84.8369C11.748 82.6332 9.1204 81.864 6.33564 81.0471C4.74912 80.6298 3.20061 80.0795 1.70653 79.4021L1.63913 79.3684C1.08213 79.0951 0.544681 78.7837 0.0305971 78.4364L0.0305969 79.7726C0.339391 79.9579 0.651014 80.1291 0.965423 80.2892L0.982248 80.2892C1.38929 80.4941 1.79915 80.6794 2.21181 80.8506L2.32692 80.8955L2.78169 81.0752L3.12135 81.1987L3.33189 81.2745L3.79509 81.4345L3.84282 81.4485C4.5727 81.6928 5.30258 81.9089 6.02404 82.1195C8.66282 82.8915 11.1584 83.6213 13.1572 85.6201C15.1559 87.6188 15.8858 90.1116 16.6606 92.7588L16.7279 92.989L17.9014 92.989C17.848 92.8065 17.7919 92.6241 17.7386 92.4416C16.9245 89.6681 16.1553 87.0377 13.9516 84.8369Z" fill="#FFC844"/>
<path d="M0.0271492 92.6074C0.327522 92.7281 0.622287 92.8572 0.91143 92.9976L3.14038 92.9976C2.17477 92.3342 1.1286 91.7965 0.0271493 91.3974L0.0271492 92.6074Z" fill="#FFC844"/>
<path d="M2.12504 26.1971C4.7133 28.7825 7.73948 29.6668 10.6478 30.5202C13.2865 31.295 15.7821 32.0249 17.7837 34.0236C19.7852 36.0223 20.5123 38.5151 21.2871 41.1595C22.1293 44.0791 23.0248 47.094 25.6102 49.6823C26.6253 50.6903 27.7947 51.5299 29.0744 52.1695C29.4814 52.3772 29.8913 52.5625 30.3067 52.7309L30.405 52.7702C30.5622 52.8357 30.7194 52.8975 30.8766 52.9555L31.2078 53.0762L31.4296 53.1548C31.5812 53.211 31.7328 53.2615 31.8844 53.312L31.9377 53.3289C32.6676 53.5731 33.3975 53.7864 34.1161 53.9998C36.7577 54.7718 39.2505 55.5016 41.2493 57.5004C43.248 59.4991 43.9779 61.9919 44.7527 64.6391C45.0137 65.529 45.2804 66.4329 45.5948 67.3369L45.6538 67.5053C45.6987 67.6316 45.7436 67.758 45.7913 67.8843C45.839 68.0106 45.898 68.165 45.9542 68.2941C45.9738 68.3447 45.9935 68.398 46.0159 68.4485C46.1843 68.8603 46.3715 69.2692 46.5774 69.6753C47.2169 70.9549 48.0565 72.1243 49.0646 73.1394C51.6528 75.7248 54.679 76.6091 57.5873 77.4625C60.2289 78.2373 62.7245 78.9672 64.7232 80.9659C66.722 82.9647 67.4518 85.4575 68.2266 88.1047C68.665 89.7702 69.2454 91.3949 69.9615 92.9612L71.2275 92.9612C70.332 91.2937 69.8239 89.5223 69.3046 87.7875C68.4877 85.0055 67.7185 82.3752 65.5149 80.1743C63.3112 77.9734 60.6864 77.2015 57.9017 76.3846C55.1169 75.5677 52.2423 74.7283 49.859 72.345C48.8922 71.368 48.0944 70.2372 47.4981 68.9987L47.4672 68.937C46.7877 67.4415 46.2364 65.8911 45.8194 64.3023C45.0025 61.5203 44.2333 58.89 42.0325 56.6891C39.8316 54.4882 37.2012 53.7191 34.4193 52.9021C32.8337 52.4848 31.2861 51.9345 29.793 51.2571L29.72 51.2234C28.482 50.6279 27.352 49.83 26.3766 48.8626C23.9933 46.4792 23.1511 43.6018 22.3342 40.8199C21.5173 38.0379 20.7509 35.4076 18.5473 33.2039C16.3436 31.0002 13.7161 30.2338 10.9341 29.4169C8.15215 28.6 5.27474 27.7607 2.89141 25.3774C1.62229 24.0787 0.637557 22.5299 -3.94704e-05 20.8297L-3.96972e-05 23.4235C0.580679 24.4392 1.29547 25.3721 2.12504 26.1971Z" fill="#FFC844"/>
</g>
<path d="M85.2805 113.997C87.3207 121.587 91.474 128.442 97.2575 133.765C104.147 129.48 111.926 126.831 119.999 126.018L119.999 113.997L85.2805 113.997Z" fill="#FFC844"/>
<path d="M73.073 113.997L71.9998 113.997L71.9997 161.997L74.7901 161.997C77.4618 154.146 81.9242 147.024 87.8243 141.194C80.3258 133.786 75.1924 124.321 73.073 113.997V113.997Z" fill="#FFC844"/>
<path d="M87.5779 161.997L120 161.997L120 156.37C111.927 155.558 104.148 152.908 97.2583 148.624C93.1704 152.39 89.8788 156.938 87.5779 161.997V161.997Z" fill="#FFC844"/>
<path d="M120 144.407L120 137.97C116.051 138.486 112.197 139.57 108.559 141.189C112.197 142.807 116.051 143.891 120 144.407Z" fill="#FFC844"/>
<path d="M108.559 141.194C112.197 139.576 116.051 138.491 119.999 137.975L119.999 126.013C111.927 126.825 104.147 129.475 97.2581 133.759C100.593 136.838 104.411 139.35 108.559 141.194Z" fill="#FC805F"/>
<path d="M97.2587 148.624C93.8522 146.506 90.6934 144.014 87.8413 141.194C81.9353 147.022 77.4674 154.144 74.791 161.997L87.5623 161.997C89.868 156.936 93.165 152.389 97.2587 148.624V148.624Z" fill="#FC805F"/>
<path d="M108.559 141.194C104.411 143.037 100.593 145.546 97.2581 148.624C104.147 152.908 111.927 155.558 119.999 156.37L119.999 144.408C116.051 143.893 112.198 142.811 108.559 141.194V141.194Z" fill="#766DFA"/>
<path d="M87.8406 141.194C90.6927 138.374 93.8516 135.882 97.2581 133.765C91.4745 128.442 87.3213 121.587 85.281 113.997L73.0732 113.997C75.1972 124.323 80.3362 133.788 87.8406 141.194V141.194Z" fill="#766DFA"/>
<path d="M87.8401 141.194C90.6922 144.014 93.8511 146.506 97.2576 148.624C100.593 145.546 104.411 143.036 108.559 141.194C104.411 139.352 100.593 136.842 97.2576 133.765C93.8511 135.882 90.6922 138.374 87.8401 141.194V141.194Z" fill="#E14547"/>
<path d="M72 66L24 66L24 114L72 114L72 66Z" fill="#766DFA"/>
<path d="M34.9333 88.1333L24 88.1333L24 114L34.9333 114L34.9333 88.1333Z" fill="#4CE467"/>
<path d="M40.246 66L24 66L24 77.1345L45.5199 77.1345C45.7068 77.1345 45.886 77.2089 46.0182 77.3414C46.1503 77.4738 46.2246 77.6534 46.2246 77.8407L46.2246 114L57.3333 114L57.3333 83.1177C57.333 80.8693 56.8907 78.643 56.0317 76.5659C55.1728 74.4888 53.914 72.6015 52.3273 71.012C50.7406 69.4225 48.857 68.1617 46.784 67.3017C44.7111 66.4418 42.4895 65.9994 40.246 66V66Z" fill="#4CE467"/>
</svg>
