<svg width="99" height="97" viewBox="0 0 99 97" fill="none" xmlns="http://www.w3.org/2000/svg">
<path d="M64.2808 49C66.321 56.5896 70.4743 63.4444 76.2578 68.7675C83.1471 64.4833 90.9265 61.8335 98.9992 61.0214L98.9992 49L64.2808 49Z" fill="#2B5243"/>
<path d="M52.0732 49L51 49L51 96.9999L53.7903 96.9999C56.462 89.1487 60.9244 82.0267 66.8245 76.197C59.326 68.7885 54.1927 59.3242 52.0732 49Z" fill="#2B5243"/>
<path d="M66.5781 96.9999L98.9999 96.9999L98.9999 91.3728C90.9272 90.5607 83.1478 87.9109 76.2585 83.6267C72.1706 87.3934 68.879 91.9406 66.5781 96.9999Z" fill="#2B5243"/>
<path d="M99 79.4103L99 72.9731C95.0513 73.4893 91.198 74.5733 87.5596 76.1917C91.198 77.8101 95.0513 78.8942 99 79.4103Z" fill="#2B5243"/>
<path d="M87.5593 76.1971C91.1977 74.5787 95.051 73.4946 98.9997 72.9785L98.9997 61.0161C90.927 61.8282 83.1476 64.478 76.2583 68.7622C79.5932 71.8416 83.4109 74.3533 87.5593 76.1971Z" fill="#FC805F"/>
<path d="M76.2592 83.6269C72.8527 81.5092 69.6939 79.0172 66.8418 76.1973C60.9358 82.0253 56.4679 89.1474 53.7915 97.0001L66.5628 97.0001C68.8684 91.9393 72.1655 87.392 76.2592 83.6269Z" fill="#FC805F"/>
<path d="M87.5593 76.1973C83.4113 78.0394 79.5936 80.5493 76.2583 83.6269C83.1476 87.911 90.927 90.5608 98.9997 91.3729L98.9997 79.4105C95.0513 78.8961 91.198 77.8138 87.5593 76.1973Z" fill="#FFC844"/>
<path d="M66.8406 76.197C69.6927 73.3772 72.8516 70.8851 76.2581 68.7675C70.4745 63.4444 66.3213 56.5896 64.281 49L52.0732 49C54.1972 59.326 59.3362 68.7906 66.8406 76.197Z" fill="#FFC844"/>
<path d="M66.8398 76.1971C69.692 79.017 72.8508 81.5091 76.2573 83.6267C79.5926 80.5492 83.4103 78.0393 87.5583 76.1971C83.4103 74.355 79.5926 71.8451 76.2573 68.7676C72.8508 70.8852 69.692 73.3772 66.8398 76.1971Z" fill="#F5333F"/>
<path d="M48.9995 8.56743e-06L-0.000488281 0L-0.000496849 49L48.9995 49L48.9995 8.56743e-06Z" fill="#FC805F"/>
<path d="M11.1606 22.5945L-0.000488281 22.5945L-0.000492898 49L11.1606 49L11.1606 22.5945Z" fill="#F3F1E5"/>
<path d="M16.5839 3.43513e-06L-0.000488281 5.35417e-07L-0.000490269 11.3665L21.9677 11.3665C22.1585 11.3665 22.3415 11.4424 22.4764 11.5776C22.6113 11.7128 22.6871 11.8962 22.6871 12.0874L22.6871 49L34.0273 49L34.0273 17.4743C34.0269 15.1791 33.5754 12.9064 32.6986 10.786C31.8218 8.66562 30.5367 6.73908 28.917 5.11642C27.2972 3.49375 25.3743 2.20675 23.2582 1.32887C21.1421 0.450987 18.8742 -0.000564284 16.5839 3.43513e-06Z" fill="#F3F1E5"/>
</svg>
