<svg width="143" height="143" viewBox="0 0 143 143" fill="none" xmlns="http://www.w3.org/2000/svg">
<g opacity="0.1">
<path d="M85.9312 16.6206C87.3117 17.9959 88.9049 19.1398 90.6494 20.0081C91.2025 20.2885 91.7607 20.5434 92.324 20.7728L92.477 20.834C92.6873 20.9181 92.8937 21.0022 93.104 21.0787L93.5629 21.2507L93.8534 21.354L94.4805 21.5681L94.5493 21.591C95.5434 21.9199 96.5375 22.2143 97.5163 22.501C101.114 23.5563 104.509 24.5504 107.232 27.2727C109.954 29.995 110.948 33.3902 112.003 36.988C112.294 37.9783 112.588 38.9801 112.925 39.9856C112.997 40.2112 113.078 40.4368 113.154 40.6624C113.185 40.7427 113.215 40.8229 113.242 40.9032L113.426 41.4041C113.498 41.5953 113.575 41.7865 113.647 41.97C113.678 42.0388 113.705 42.1076 113.732 42.1803C113.961 42.7385 114.216 43.2929 114.496 43.8435L114.496 43.8702C115.365 45.6147 116.508 47.2079 117.884 48.5884C120.56 51.2648 123.588 52.6068 126.632 53.6047L126.632 51.9912C123.929 51.0621 121.279 49.8157 118.962 47.5063C117.645 46.1757 116.559 44.6356 115.746 42.9488C115.734 42.92 115.72 42.8919 115.704 42.8647C114.782 40.8265 114.031 38.7151 113.46 36.5522C112.351 32.7593 111.3 29.1806 108.302 26.1792C105.305 23.1816 101.726 22.1301 97.933 21.0213C95.7709 20.4516 93.6605 19.7008 91.6244 18.777L91.5364 18.7349C89.8486 17.923 88.3082 16.8349 86.9789 15.5156C83.7328 12.2695 82.5857 8.35426 81.4769 4.56523C81.0181 2.99762 80.567 1.47206 79.9896 0.00386403L78.3302 0.00386388C78.9878 1.62595 79.5483 3.28571 80.0087 4.97434C81.2055 8.98896 82.4098 13.0992 85.9312 16.6206Z" fill="#766DFA"/>
<path d="M4.99687 1.59829C7.71916 4.32441 8.71324 7.71579 9.76851 11.3213C10.9155 15.2939 12.1352 19.4003 15.6566 22.9255C19.178 26.4507 23.2844 27.6513 27.2646 28.7983C30.8625 29.8536 34.2577 30.8476 36.9838 33.5699C39.7099 36.2922 40.7002 39.6874 41.7555 43.293C42.9025 47.2655 44.1221 51.3719 47.6435 54.8933C49.025 56.2685 50.6179 57.4135 52.3617 58.2847C52.9174 58.5625 53.4756 58.8174 54.0364 59.0494L54.2008 59.1144L54.8125 59.3514L55.2828 59.5235L55.5619 59.6267L56.2004 59.8447L56.2539 59.8638C57.2519 60.1926 58.246 60.487 59.2286 60.7738C62.8264 61.829 66.2217 62.8231 68.944 65.5454C71.6663 68.2677 72.6604 71.6629 73.7156 75.2608C74.0024 76.2511 74.3006 77.2566 74.6333 78.2622C74.7046 78.4865 74.7811 78.7121 74.8627 78.9389L74.9506 79.1798L75.1341 79.6845C75.2068 79.8719 75.2794 80.0669 75.3559 80.2427C75.3826 80.3154 75.4094 80.3842 75.44 80.4568C75.6694 81.0151 75.9243 81.5695 76.2047 82.1201L76.2047 82.1468C77.073 83.8904 78.2154 85.4834 79.5884 86.8649C83.1136 90.3863 87.2353 91.5907 91.1964 92.7531C94.7943 93.8083 98.1933 94.8024 100.916 97.5247C103.638 100.247 104.632 103.642 105.687 107.244C106.834 111.22 108.054 115.327 111.575 118.852C115.097 122.377 119.253 123.62 123.225 124.767C124.403 125.111 125.558 125.451 126.667 125.845L126.667 124.228C125.68 123.895 124.674 123.601 123.65 123.299C119.861 122.19 115.942 121.043 112.696 117.797C109.45 114.551 108.302 110.631 107.194 106.842C106.085 103.053 105.033 99.4708 102.032 96.4733C99.0306 93.4757 95.4557 92.4242 91.6629 91.3116C87.87 90.199 83.9548 89.0558 80.7087 85.8097C79.3907 84.48 78.304 82.9396 77.4932 81.2521C77.4789 81.2261 77.4661 81.1993 77.455 81.1718C76.5299 79.1331 75.7778 77.0202 75.2068 74.8555C74.0942 71.0665 73.0465 67.4839 70.049 64.4863C67.0514 61.4887 63.4688 60.4411 59.6797 59.3285C57.5201 58.76 55.4123 58.0106 53.3787 57.088L53.2793 57.0382C51.5934 56.2283 50.0544 55.1428 48.7256 53.8266C45.4795 50.5805 44.3325 46.6614 43.2198 42.8686C42.1072 39.0757 41.0634 35.5008 38.062 32.4994C35.0606 29.498 31.4819 28.4542 27.6928 27.3416C23.9038 26.2289 19.9848 25.0857 16.7386 21.8396C13.4925 18.5935 12.3455 14.6745 11.2367 10.8854C10.1279 7.09642 9.07646 3.51385 6.07505 0.516271C5.90683 0.345487 5.73478 0.181065 5.5589 0.0230302L3.08514 0.02303C3.77008 0.487401 4.4101 1.01478 4.99687 1.59829Z" fill="#766DFA"/>
<path d="M103.412 7.24538L103.435 7.24538C103.986 7.52449 104.548 7.78066 105.11 8.01007C105.156 8.03301 105.202 8.04832 105.251 8.06743C105.462 8.15537 105.676 8.23948 105.886 8.31977L106.337 8.48417L106.639 8.59124L107.255 8.80153L107.335 8.82829C108.329 9.16093 109.319 9.45152 110.298 9.73828C113.896 10.7935 117.291 11.7876 120.017 14.5099C122.743 17.2322 123.73 20.6274 124.785 24.2329C125.141 25.4412 125.504 26.6723 125.932 27.9034L126.016 28.1443C126.078 28.3126 126.139 28.4808 126.204 28.649C126.269 28.8173 126.349 29.0314 126.425 29.2149L126.506 29.4214L126.659 29.7693L126.659 25.1812C126.521 24.7223 126.383 24.2635 126.25 23.8047C125.141 20.0119 124.089 16.4331 121.092 13.4317C118.09 10.4341 114.512 9.38269 110.719 8.27389C108.557 7.70586 106.448 6.95504 104.414 6.02953L104.318 5.98365C102.632 5.17189 101.094 4.08519 99.7646 2.76812C98.933 1.93532 98.1957 1.0134 97.5661 0.0190614L95.7729 0.0190612C96.5666 1.41847 97.5453 2.70453 98.6825 3.84251C100.065 5.2243 101.662 6.37343 103.412 7.24538Z" fill="#766DFA"/>
<path d="M40.0266 16.051C43.6244 17.1063 47.0196 18.1004 49.7458 20.8227C52.4719 23.545 53.4621 26.9402 54.5174 30.5419C55.6644 34.5144 56.8841 38.6246 60.4055 42.146C61.787 43.5213 63.3799 44.6663 65.1237 45.5375C65.6781 45.8204 66.2363 46.0727 66.8021 46.3021L66.9436 46.3557C67.1539 46.4436 67.3642 46.5277 67.5783 46.608L68.0295 46.7724L68.3315 46.8795L68.9471 47.0936L69.0274 47.1203C70.0215 47.4492 71.0118 47.7397 71.9906 48.0265C75.5884 49.0818 78.9837 50.0759 81.706 52.7982C84.4282 55.5205 85.4223 58.9157 86.4776 62.5174C86.8332 63.7294 87.1964 64.9644 87.6246 66.1955C87.6552 66.272 87.682 66.3523 87.7126 66.4287L87.8961 66.9373L88.1141 67.4917L88.202 67.7096C88.4314 68.2717 88.6876 68.8261 88.9667 69.3804C88.9657 69.3868 88.9657 69.3932 88.9667 69.3996C89.8378 71.1433 90.9828 72.7363 92.3581 74.1177C95.8795 77.6391 100.005 78.8435 103.962 80.0058C107.56 81.0611 110.959 82.0552 113.681 84.7774C116.404 87.4997 117.398 90.895 118.453 94.4967C119.6 98.473 120.82 102.579 124.341 106.105C125.051 106.805 125.818 107.444 126.635 108.016L126.635 106.105C126.214 105.764 125.811 105.401 125.427 105.019C122.181 101.773 121.034 97.8536 119.925 94.0646C118.816 90.2756 117.765 86.693 114.767 83.6916C111.77 80.6902 108.187 79.6464 104.394 78.5338C100.601 77.4212 96.69 76.2779 93.4401 73.0318C92.1233 71.7012 91.0366 70.1611 90.2246 68.4743C90.2246 68.4475 90.1978 68.4169 90.1825 68.3863C89.2564 66.3511 88.5055 64.2405 87.9381 62.0777C86.8255 58.2886 85.7779 54.7061 82.7803 51.7085C79.7827 48.7109 76.2002 47.6633 72.4111 46.5507C70.2495 45.9832 68.1402 45.2324 66.1063 44.3063L66.0107 44.2642C64.3257 43.4511 62.7869 42.3646 61.457 41.0487C58.2109 37.7988 57.0638 33.8836 55.955 30.0946C54.8462 26.3055 53.7948 22.7229 50.7972 19.7215C47.7996 16.7201 44.217 15.6763 40.4242 14.5637C36.6313 13.4511 32.7162 12.3079 29.4701 9.06177C26.7669 6.35477 25.5166 3.18132 24.534 0.00785698L22.9358 0.00785684C23.9949 3.51396 25.2986 7.05064 28.388 10.14C31.9438 13.6843 36.0502 14.8887 40.0266 16.051Z" fill="#766DFA"/>
<path d="M62.5087 8.05986C65.231 10.7822 66.2251 14.1774 67.2803 17.7791C68.4274 21.7554 69.6471 25.8618 73.1685 29.3832C74.5499 30.7585 76.1428 31.9034 77.8866 32.7746L77.9057 32.7746C78.4588 33.055 79.0183 33.3099 79.5842 33.5393L79.7257 33.5928C79.936 33.6808 80.1463 33.7649 80.3604 33.8452L80.8153 34.0096L81.1098 34.1166L81.7406 34.3307L81.8018 34.3537C82.7959 34.6825 83.7938 34.9769 84.7726 35.2637C88.3705 36.3189 91.7657 37.313 94.488 40.0315C97.2103 42.75 98.2044 46.149 99.2596 49.7584C99.5502 50.7448 99.8446 51.7427 100.177 52.7483L100.407 53.4212C100.437 53.5015 100.468 53.5818 100.495 53.6621L100.678 54.1668C100.751 54.3541 100.827 54.5491 100.9 54.7327C100.93 54.8015 100.957 54.8703 100.984 54.9391C101.213 55.4973 101.466 56.0556 101.749 56.6023L101.749 56.6291C102.617 58.3736 103.761 59.9667 105.136 61.3472C108.658 64.8686 112.764 66.073 116.74 67.2353C120.338 68.2906 123.737 69.2847 126.46 72.007C126.525 72.072 126.582 72.1408 126.647 72.2058L126.647 70.1105C123.841 67.7285 120.591 66.7689 117.169 65.7671C113.38 64.6583 109.464 63.5113 106.215 60.2652C104.898 58.9345 103.811 57.3944 102.999 55.7076L102.961 55.6273C102.036 53.5886 101.284 51.4758 100.713 49.311C99.5999 45.5182 98.5523 41.9394 95.5547 38.938C92.5572 35.9404 88.9784 34.889 85.1856 33.7802C83.027 33.2123 80.9205 32.4628 78.8884 31.5396L78.7851 31.4899C77.0997 30.6791 75.5608 29.5938 74.2314 28.2782C70.9853 25.0283 69.8382 21.1131 68.7294 17.3202C67.6206 13.5274 66.5692 9.95246 63.5716 6.95105C60.574 3.94965 56.9915 2.90585 53.1986 1.79323C51.3933 1.30076 49.6187 0.701981 47.884 3.12613e-05L44.5156 3.09668e-05C47.1691 1.61735 50.0022 2.45088 52.7704 3.26145C56.3874 4.32819 59.7864 5.33757 62.5087 8.05986Z" fill="#766DFA"/>
<path d="M39.2123 119.552L39.1703 119.471C38.2441 117.434 37.4933 115.32 36.9259 113.155C35.8133 109.366 34.7657 105.783 31.7643 102.786C28.7667 99.7845 25.1841 98.7369 21.3913 97.6243C19.2298 97.0562 17.1206 96.3054 15.0864 95.3799L14.9946 95.3379C13.3077 94.528 11.7685 93.441 10.4409 92.1223C7.1948 88.8762 6.04776 84.9572 4.93514 81.1681C3.86075 77.49 2.83605 74.0145 0.041112 71.0743L0.0411118 73.4563C1.78843 75.865 2.61047 78.6638 3.48221 81.6002C4.62925 85.5728 5.85276 89.6791 9.37415 93.2044C10.7567 94.5773 12.3494 95.7208 14.0923 96.5919L14.1152 96.5919C14.6696 96.871 15.2279 97.1234 15.7899 97.3566L15.9619 97.4254L16.5622 97.6625L17.0402 97.8345L17.3116 97.934L17.954 98.1519L18.0036 98.171C19.0016 98.4998 19.9995 98.7942 20.9821 99.0848C24.5762 100.136 27.9752 101.13 30.6975 103.853C33.4198 106.575 34.4139 109.97 35.4692 113.576C35.7559 114.558 36.0503 115.556 36.383 116.558L36.383 116.585C36.4556 116.806 36.5282 117.024 36.6085 117.242C36.6353 117.33 36.6697 117.414 36.7003 117.499C36.7577 117.663 36.8189 117.827 36.88 117.992C36.9412 118.156 37.0291 118.374 37.1056 118.565L37.1859 118.764C37.4153 119.322 37.6676 119.881 37.9506 120.431L37.9506 120.454C38.8225 122.195 39.966 123.787 41.3381 125.168C41.8665 125.693 42.4271 126.185 43.0166 126.64L45.7466 126.64C44.5324 125.936 43.4144 125.077 42.4202 124.086C41.107 122.763 40.023 121.231 39.2123 119.552Z" fill="#766DFA"/>
<path d="M1.73484 54.3388C5.3327 55.3941 8.73176 56.3882 11.4541 59.1105C14.1763 61.8328 15.1743 65.228 16.2257 68.8296C17.3727 72.806 18.5962 76.9124 22.1176 80.4376C23.5001 81.8105 25.0929 82.9541 26.8358 83.8252C27.3902 84.1043 27.9484 84.3566 28.5104 84.5899L28.6519 84.6434C28.866 84.7313 29.0763 84.8155 29.2904 84.8957L29.7416 85.0602L30.0398 85.171L30.6592 85.3813L30.7357 85.4081C31.7298 85.7369 32.7239 86.0313 33.7027 86.3181C37.3005 87.3695 40.6957 88.3636 43.418 91.0859C46.1403 93.8082 47.1344 97.2034 48.1859 100.805C48.4764 101.792 48.7747 102.793 49.1073 103.799C49.18 104.021 49.2564 104.242 49.3367 104.468C49.3635 104.548 49.3941 104.632 49.4247 104.716L49.6082 105.214C49.6808 105.405 49.7573 105.596 49.8337 105.783C49.8605 105.852 49.8835 105.917 49.9141 105.986C50.1435 106.544 50.3958 107.102 50.6788 107.653L50.6788 107.676C51.5498 109.419 52.6934 111.011 54.0663 112.394C57.5915 115.915 61.7132 117.12 65.6743 118.282C69.2722 119.337 72.6674 120.335 75.3935 123.058C76.4281 124.106 77.2901 125.311 77.9475 126.629L79.6528 126.629C78.8819 124.898 77.8041 123.322 76.4717 121.976C73.4741 118.974 69.8954 117.927 66.1025 116.814C62.3097 115.701 58.3944 114.558 55.1483 111.312C53.8437 109.993 52.7663 108.467 51.9596 106.796L51.9176 106.712C50.992 104.676 50.2412 102.564 49.6732 100.4C48.5606 96.6108 47.5129 93.0282 44.5115 90.0307C41.514 87.0331 37.9314 85.9854 34.1424 84.8728C31.9803 84.3044 29.8699 83.5549 27.8337 82.6323L27.7419 82.5864C26.0558 81.7753 24.5167 80.6885 23.1882 79.3709C19.9421 76.1248 18.795 72.2057 17.6824 68.4167C16.5698 64.6277 15.526 61.0451 12.5246 58.0475C9.52318 55.0499 5.94444 53.9985 2.15541 52.8859C1.44807 52.6794 0.73693 52.473 0.025771 52.2474L0.0257708 53.8494L1.73484 54.3388Z" fill="#766DFA"/>
<path d="M19.0023 115.548C16.0009 112.547 12.4221 111.499 8.62926 110.387C6.46843 109.818 4.35935 109.069 2.32441 108.146L2.2326 108.1C1.47397 107.728 0.741958 107.304 0.0417746 106.831L0.0417744 108.651C0.462354 108.903 0.886785 109.136 1.31501 109.354L1.33793 109.354C1.89233 109.633 2.45055 109.886 3.0126 110.119L3.16937 110.18L3.78877 110.425L4.25139 110.593L4.53815 110.696L5.16903 110.914L5.23404 110.933C6.22814 111.266 7.22224 111.56 8.20487 111.847C11.7989 112.899 15.1979 113.893 17.9202 116.615C20.6425 119.337 21.6366 122.733 22.6919 126.338L22.7836 126.652L24.3818 126.652C24.3092 126.403 24.2327 126.155 24.1601 125.906C23.0513 122.128 22.0037 118.546 19.0023 115.548Z" fill="#766DFA"/>
<path d="M0.0371099 126.132C0.446219 126.296 0.847689 126.472 1.2415 126.663L4.27734 126.663C2.96218 125.76 1.53728 125.027 0.03711 124.484L0.0371099 126.132Z" fill="#766DFA"/>
<path d="M2.89433 35.6805C6.41955 39.2019 10.5412 40.4063 14.5023 41.5686C18.0963 42.6239 21.4954 43.618 24.2215 46.3403C26.9476 49.0626 27.9379 52.4578 28.9932 56.0595C30.1402 60.0359 31.3598 64.1422 34.8812 67.6675C36.2638 69.0404 37.8565 70.184 39.5994 71.0551C40.1538 71.338 40.712 71.5903 41.2779 71.8197L41.4117 71.8733C41.6258 71.9625 41.8399 72.0466 42.054 72.1256L42.5052 72.29L42.8073 72.3971C43.0137 72.4736 43.2202 72.5424 43.4267 72.6112L43.4993 72.6341C44.4934 72.9668 45.4875 73.2573 46.4663 73.5479C50.0642 74.5994 53.4594 75.5935 56.1817 78.3158C58.904 81.0381 59.8981 84.4333 60.9533 88.0388C61.3089 89.2508 61.6721 90.482 62.1004 91.7131L62.1806 91.9425C62.2418 92.1146 62.303 92.2866 62.368 92.4587C62.433 92.6307 62.5133 92.841 62.5898 93.0169C62.6165 93.0857 62.6433 93.1584 62.6739 93.2272C62.9033 93.788 63.1582 94.3449 63.4386 94.8981C64.3096 96.6409 65.4532 98.2336 66.8261 99.6162C70.3513 103.138 74.473 104.342 78.4341 105.504C82.032 106.56 85.431 107.554 88.1533 110.276C90.8756 112.998 91.8697 116.393 92.925 119.999C93.522 122.267 94.3125 124.48 95.2878 126.614L97.0122 126.614C95.7925 124.342 95.1005 121.93 94.3932 119.567C93.2805 115.778 92.2329 112.195 89.2315 109.198C86.2301 106.2 82.6552 105.149 78.8623 104.036C75.0695 102.923 71.1543 101.78 67.9081 98.5342C66.5913 97.2035 65.5047 95.6634 64.6927 93.9766L64.6506 93.8925C63.725 91.8557 62.9742 89.7439 62.4062 87.58C61.2936 83.7909 60.246 80.2084 57.2484 77.2108C54.2508 74.2132 50.6682 73.1656 46.8792 72.053C44.7196 71.4845 42.6118 70.735 40.5782 69.8124L40.4788 69.7666C38.7926 68.9554 37.2536 67.8686 35.9251 66.551C32.679 63.3049 31.5319 59.3859 30.4193 55.5969C29.3067 51.8078 28.2629 48.2253 25.2615 45.2239C22.2601 42.2225 18.6813 41.1786 14.8923 40.066C11.1033 38.9534 7.18423 37.8102 3.93813 34.5641C2.20957 32.7953 0.868363 30.6858 -4.48171e-05 28.3701L-4.51259e-05 31.903C0.790902 33.2863 1.76445 34.5569 2.89433 35.6805Z" fill="#766DFA"/>
</g>
<path d="M47 46.9999L47 94.9956L94.9957 94.9956L94.9957 46.9999L47 46.9999Z" fill="#4CE467"/>
<path d="M47 86.1204L47 94.9995L57.6681 94.9995L57.6681 81.0371C57.6676 80.9491 57.6844 80.8618 57.7177 80.7803C57.751 80.6988 57.8001 80.6247 57.8621 80.5622C57.9242 80.4998 57.9979 80.4502 58.0792 80.4164C58.1605 80.3826 58.2477 80.3652 58.3357 80.3652L94.987 80.3652L94.987 69.7014L63.3928 69.7014C61.2382 69.7026 59.1049 70.1282 57.1148 70.954C55.1248 71.7799 53.3169 72.9898 51.7946 74.5145C50.2723 76.0393 49.0653 77.8491 48.2426 79.8404C47.4199 81.8318 46.9977 83.9658 47 86.1204Z" fill="#766DFA"/>
<path d="M95 95L95 143L143 143L143 95L95 95Z" fill="#FC805F"/>
<path d="M132.331 119.672L142.996 119.672L142.996 94.9999L132.331 94.9999L132.331 119.672Z" fill="#FFC844"/>
<path d="M127.404 140.976L143 140.976L143 130.307L122.338 130.307C122.16 130.307 121.989 130.236 121.863 130.11C121.737 129.984 121.666 129.813 121.666 129.635L121.666 95.0006L111.001 95.0006L111.001 124.573C111.001 128.923 112.73 133.095 115.806 136.172C118.882 139.248 123.054 140.976 127.404 140.976Z" fill="#766DFA"/>
</svg>
