<svg width="151" height="175" viewBox="0 0 151 175" fill="none" xmlns="http://www.w3.org/2000/svg">
<path d="M110.479 16.5334C111.853 17.9015 113.437 19.0394 115.173 19.9032C115.723 20.1821 116.278 20.4357 116.839 20.6639L116.991 20.7247C117.2 20.8084 117.405 20.8921 117.614 20.9682L118.071 21.1393L118.36 21.242L118.984 21.455L119.052 21.4778C120.041 21.8049 121.03 22.0978 122.003 22.3831C125.582 23.4328 128.96 24.4217 131.668 27.1297C134.376 29.8378 135.365 33.2152 136.414 36.7942C136.703 37.7793 136.996 38.7758 137.331 39.7762C137.403 40.0006 137.483 40.225 137.559 40.4494C137.59 40.5292 137.62 40.6091 137.647 40.689L137.829 41.1872C137.901 41.3774 137.977 41.5676 138.05 41.7501C138.08 41.8186 138.107 41.8871 138.133 41.9593C138.362 42.5146 138.615 43.0661 138.894 43.6138L138.894 43.6404C139.758 45.3758 140.896 46.9606 142.264 48.3339C144.926 50.9963 147.938 52.3313 150.966 53.324L150.966 51.7189C148.277 50.7947 145.641 49.5548 143.336 47.2575C142.026 45.9338 140.946 44.4017 140.138 42.7238C140.125 42.6952 140.111 42.6672 140.096 42.6401C139.179 40.6126 138.432 38.5122 137.863 36.3607C136.76 32.5877 135.714 29.0277 132.733 26.042C129.751 23.0601 126.191 22.0141 122.418 20.9111C120.267 20.3444 118.168 19.5975 116.143 18.6785L116.055 18.6367C114.376 17.829 112.844 16.7466 111.521 15.4342C108.292 12.2051 107.151 8.31035 106.048 4.54115C105.592 2.98174 105.143 1.46418 104.569 0.00365805L102.918 0.00365791C103.572 1.61726 104.13 3.26833 104.588 4.94812C105.778 8.94172 106.976 13.0304 110.479 16.5334Z" fill="#FFC844"/>
<path d="M29.9704 1.58993C32.6784 4.30178 33.6673 7.67542 34.717 11.2621C35.858 15.2138 37.0713 19.2987 40.5741 22.8055C44.077 26.3123 48.1618 27.5065 52.121 28.6476C55.7 29.6973 59.0773 30.6862 61.7891 33.3942C64.5008 36.1023 65.4859 39.4797 66.5357 43.0664C67.6767 47.0181 68.8899 51.103 72.3928 54.606C73.7669 55.974 75.3515 57.113 77.0861 57.9796C77.6388 58.256 78.1941 58.5096 78.752 58.7403L78.9155 58.805L79.524 59.0408L79.9918 59.2119L80.2695 59.3146L80.9046 59.5314L80.9579 59.5504C81.9505 59.8775 82.9394 60.1704 83.9169 60.4557C87.4958 61.5054 90.8732 62.4943 93.5811 65.2023C96.2891 67.9104 97.278 71.2878 98.3277 74.8669C98.6129 75.852 98.9096 76.8523 99.2405 77.8526C99.3115 78.0757 99.3875 78.3001 99.4687 78.5258L99.5562 78.7654L99.7387 79.2674C99.811 79.4538 99.8832 79.6478 99.9593 79.8227C99.9859 79.895 100.013 79.9635 100.043 80.0357C100.271 80.591 100.525 81.1425 100.804 81.6902L100.804 81.7169C101.667 83.4513 102.804 85.0359 104.17 86.4103C107.676 89.9132 111.776 91.1113 115.716 92.2676C119.295 93.3173 122.677 94.3062 125.385 97.0143C128.093 99.7223 129.081 103.1 130.131 106.683C131.272 110.638 132.485 114.723 135.988 118.23C139.491 121.737 143.625 122.973 147.577 124.114C148.748 124.456 149.897 124.795 151 125.186L151 123.577C150.019 123.247 149.018 122.954 147.999 122.653C144.23 121.55 140.332 120.409 137.103 117.18C133.874 113.951 132.733 110.052 131.63 106.283C130.527 102.514 129.481 98.9502 126.495 95.9683C123.51 92.9864 119.953 91.9405 116.18 90.8337C112.408 89.7269 108.513 88.5896 105.284 85.3605C103.973 84.0378 102.892 82.5055 102.085 80.8268C102.071 80.801 102.058 80.7743 102.047 80.747C101.127 78.7189 100.379 76.6171 99.811 74.4637C98.7042 70.6945 97.6621 67.1307 94.6803 64.1488C91.6985 61.1669 88.1347 60.1248 84.3656 59.018C82.2174 58.4525 80.1207 57.7069 78.0977 56.7891L77.9989 56.7397C76.3218 55.934 74.791 54.8542 73.4691 53.5448C70.2401 50.3157 69.0991 46.4172 67.9923 42.6442C66.8856 38.8712 65.8472 35.315 62.8616 32.3293C59.876 29.3436 56.3161 28.3053 52.547 27.1984C48.7779 26.0917 44.8795 24.9544 41.6505 21.7253C38.4214 18.4962 37.2804 14.5977 36.1775 10.8285C35.0745 7.05929 34.0286 3.49547 31.043 0.513577C30.8756 0.343694 30.7045 0.180135 30.5295 0.0229234L28.0688 0.0229232C28.7501 0.48486 29.3868 1.00948 29.9704 1.58993Z" fill="#FFC844"/>
<path d="M127.868 7.20752L127.891 7.20752C128.438 7.48517 128.998 7.74 129.557 7.9682C129.602 7.99102 129.648 8.00625 129.697 8.02526C129.907 8.11274 130.12 8.19641 130.329 8.27628L130.777 8.43983L131.078 8.54633L131.69 8.75552L131.77 8.78214C132.759 9.11304 133.744 9.4021 134.718 9.68736C138.297 10.7371 141.674 11.726 144.386 14.434C147.098 17.1421 148.079 20.5195 149.129 24.1062C149.482 25.308 149.844 26.5327 150.27 27.7574L150.353 27.9971C150.414 28.1644 150.475 28.3318 150.54 28.4991C150.604 28.6665 150.684 28.8795 150.76 29.062L150.84 29.2674L150.992 29.6135L150.992 25.0494C150.855 24.593 150.718 24.1366 150.585 23.6802C149.482 19.9072 148.436 16.3472 145.455 13.3615C142.469 10.3796 138.909 9.33364 135.136 8.23064C132.986 7.66558 130.888 6.91869 128.864 5.99803L128.769 5.95239C127.092 5.14488 125.562 4.06387 124.24 2.75369C123.412 1.92525 122.679 1.00816 122.053 0.0190195L120.269 0.0190193C121.058 1.41111 122.032 2.69043 123.163 3.82245C124.539 5.19702 126.127 6.34013 127.868 7.20752Z" fill="#FFC844"/>
<path d="M64.8162 15.967C68.3951 17.0167 71.7725 18.0056 74.4842 20.7137C77.196 23.4217 78.1811 26.7991 79.2308 30.382C80.3718 34.3337 81.5851 38.4224 85.0879 41.9254C86.4621 43.2934 88.0467 44.4324 89.7813 45.2991C90.3327 45.5805 90.888 45.8315 91.4509 46.0597L91.5916 46.113C91.8008 46.2004 92.01 46.2841 92.223 46.364L92.6718 46.5276L92.9722 46.634L93.5846 46.847L93.6644 46.8737C94.6533 47.2008 95.6384 47.4898 96.612 47.7751C100.191 48.8248 103.568 49.8137 106.276 52.5218C108.984 55.2298 109.973 58.6073 111.023 62.1901C111.377 63.3958 111.738 64.6243 112.164 65.849C112.194 65.9251 112.221 66.0049 112.251 66.081L112.434 66.5868L112.651 67.1384L112.738 67.3552C112.966 67.9143 113.221 68.4658 113.499 69.0173C113.498 69.0236 113.498 69.03 113.499 69.0363C114.365 70.7709 115.504 72.3555 116.872 73.7297C120.375 77.2327 124.479 78.4307 128.415 79.587C131.994 80.6367 135.376 81.6256 138.084 84.3337C140.792 87.0417 141.78 90.4192 142.83 94.002C143.971 97.9576 145.184 102.042 148.687 105.549C149.393 106.246 150.157 106.882 150.969 107.451L150.969 105.549C150.55 105.21 150.149 104.849 149.767 104.469C146.538 101.24 145.397 97.3414 144.294 93.5722C143.191 89.803 142.145 86.2392 139.164 83.2535C136.182 80.2678 132.618 79.2295 128.845 78.1227C125.072 77.0159 121.182 75.8786 117.949 72.6495C116.639 71.3258 115.558 69.7938 114.75 68.1158C114.75 68.0892 114.723 68.0588 114.708 68.0283C113.787 66.0037 113.04 63.9042 112.476 61.7527C111.369 57.9835 110.327 54.4197 107.345 51.4378C104.363 48.4559 100.799 47.4137 97.0304 46.3069C94.8801 45.7425 92.7819 44.9956 90.7587 44.0743L90.6636 44.0325C88.9875 43.2237 87.4568 42.1428 86.1338 40.8338C82.9048 37.6009 81.7638 33.7062 80.6608 29.937C79.5579 26.1678 78.512 22.604 75.5301 19.6183C72.5483 16.6326 68.9846 15.5942 65.2117 14.4874C61.4388 13.3806 57.5442 12.2434 54.3152 9.0143C51.6262 6.32146 50.3825 3.16462 49.4051 0.0077731L47.8153 0.00777296C48.8688 3.49552 50.1657 7.01369 53.2388 10.0869C56.7759 13.6126 60.8607 14.8107 64.8162 15.967Z" fill="#FFC844"/>
<path d="M87.1796 8.01769C89.8876 10.7257 90.8764 14.1032 91.9262 17.686C93.0672 21.6416 94.2804 25.7265 97.7833 29.2294C99.1575 30.5975 100.742 31.7365 102.477 32.6031L102.496 32.6031C103.046 32.882 103.602 33.1356 104.165 33.3638L104.306 33.417C104.515 33.5045 104.724 33.5882 104.937 33.668L105.39 33.8316L105.683 33.9381L106.31 34.1511L106.371 34.1739C107.36 34.501 108.353 34.7938 109.326 35.0791C112.905 36.1288 116.283 37.1177 118.991 39.822C121.699 42.5262 122.687 45.9075 123.737 49.4979C124.026 50.4792 124.319 51.4719 124.65 52.4722L124.878 53.1416C124.909 53.2215 124.939 53.3014 124.966 53.3812L125.148 53.8833C125.221 54.0696 125.297 54.2636 125.369 54.4462C125.399 54.5147 125.426 54.5831 125.453 54.6516C125.681 55.2069 125.932 55.7622 126.213 56.3061L126.213 56.3327C127.077 58.068 128.215 59.6529 129.583 61.0261C133.086 64.5291 137.171 65.7272 141.126 66.8834C144.705 67.9332 148.086 68.9221 150.794 71.6301C150.859 71.6948 150.916 71.7632 150.98 71.8279L150.98 69.7436C148.189 67.374 144.956 66.4194 141.552 65.4229C137.783 64.3199 133.888 63.1789 130.655 59.9497C129.346 58.6261 128.265 57.094 127.457 55.4161L127.419 55.3362C126.499 53.3081 125.751 51.2063 125.182 49.0529C124.076 45.2799 123.034 41.7199 120.052 38.7342C117.07 35.7523 113.51 34.7064 109.737 33.6034C107.59 33.0385 105.495 32.2929 103.473 31.3746L103.37 31.3251C101.694 30.5186 100.163 29.4389 98.8406 28.1302C95.6116 24.8973 94.4706 21.0026 93.3676 17.2296C92.2647 13.4566 91.2188 9.90038 88.2369 6.91468C85.2551 3.92899 81.6914 2.89066 77.9185 1.78386C76.1227 1.29396 74.3574 0.698319 72.6319 4.65561e-05L69.2812 4.62632e-05C71.9207 1.6089 74.7389 2.43806 77.4925 3.24439C81.0905 4.30554 84.4716 5.30965 87.1796 8.01769Z" fill="#FFC844"/>
<path d="M64.006 118.926L63.9642 118.846C63.0429 116.819 62.296 114.717 61.7316 112.563C60.6248 108.794 59.5827 105.23 56.5971 102.248C53.6153 99.2622 50.0516 98.2201 46.2787 97.1133C44.1286 96.5482 42.0305 95.8013 40.007 94.8807L39.9157 94.8389C38.2376 94.0332 36.7065 92.952 35.3859 91.6402C32.1569 88.411 31.0159 84.5125 29.9091 80.7433C28.8404 77.0844 27.8211 73.6271 25.0408 70.7023L25.0408 73.0718C26.779 75.468 27.5967 78.2521 28.4638 81.1731C29.6048 85.1249 30.8219 89.2098 34.3248 92.7165C35.7 94.0823 37.2844 95.2198 39.0181 96.0864L39.0409 96.0864C39.5924 96.364 40.1477 96.615 40.7068 96.8471L40.8779 96.9155L41.4751 97.1513L41.9505 97.3225L42.2205 97.4214L42.8595 97.6382L42.9089 97.6572C43.9015 97.9843 44.8942 98.2772 45.8717 98.5662C49.4468 99.6122 52.828 100.601 55.536 103.309C58.2439 106.017 59.2328 109.395 60.2825 112.981C60.5678 113.959 60.8606 114.951 61.1915 115.948L61.1915 115.975C61.2638 116.195 61.336 116.412 61.4159 116.629C61.4425 116.716 61.4767 116.8 61.5072 116.884C61.5642 117.047 61.6251 117.211 61.686 117.374C61.7468 117.538 61.8343 117.755 61.9103 117.945L61.9902 118.142C62.2184 118.698 62.4694 119.253 62.7509 119.801L62.7509 119.824C63.6182 121.556 64.7557 123.139 66.1206 124.513C66.6462 125.036 67.2038 125.525 67.7903 125.978L70.5059 125.978C69.2981 125.277 68.1859 124.423 67.197 123.437C65.8907 122.12 64.8124 120.596 64.006 118.926Z" fill="#FFC844"/>
<path d="M26.7258 54.0543C30.3047 55.1041 33.6859 56.093 36.3939 58.801C39.1019 61.5091 40.0945 64.8865 41.1404 68.4693C42.2814 72.4249 43.4985 76.5098 47.0013 80.0166C48.3766 81.3823 49.961 82.5199 51.6947 83.3864C52.2462 83.664 52.8014 83.9151 53.3605 84.1471L53.5013 84.2003C53.7142 84.2878 53.9234 84.3715 54.1364 84.4513L54.5852 84.6149L54.8819 84.7252L55.498 84.9344L55.5741 84.961C56.5629 85.2881 57.5518 85.581 58.5254 85.8662C62.1044 86.9122 65.4817 87.9011 68.1897 90.6091C70.8977 93.3171 71.8865 96.6946 72.9325 100.277C73.2215 101.259 73.5182 102.255 73.8491 103.256C73.9213 103.476 73.9974 103.697 74.0773 103.921C74.1039 104.001 74.1343 104.085 74.1647 104.168L74.3473 104.663C74.4195 104.853 74.4956 105.043 74.5717 105.229C74.5983 105.298 74.6211 105.363 74.6516 105.431C74.8798 105.986 75.1308 106.542 75.4122 107.089L75.4122 107.112C76.2787 108.846 77.4163 110.43 78.782 111.806C82.2887 115.309 86.3886 116.507 90.3289 117.663C93.9078 118.713 97.2852 119.705 99.997 122.413C101.026 123.456 101.884 124.655 102.538 125.966L104.234 125.966C103.467 124.245 102.395 122.676 101.069 121.337C98.0877 118.351 94.5278 117.309 90.7549 116.202C86.982 115.096 83.0873 113.958 79.8583 110.729C78.5605 109.417 77.4888 107.899 76.6863 106.237L76.6445 106.154C75.7238 104.128 74.977 102.027 74.412 99.8743C73.3052 96.1051 72.2631 92.5413 69.2775 89.5594C66.2957 86.5775 62.7319 85.5353 58.9628 84.4285C56.8121 83.8631 54.7129 83.1175 52.6873 82.1997L52.5961 82.1541C50.9188 81.3472 49.3878 80.2661 48.0663 78.9554C44.8373 75.7263 43.6962 71.8278 42.5895 68.0586C41.4827 64.2894 40.4444 60.7255 37.4588 57.7437C34.4732 54.7618 30.9133 53.7158 27.1442 52.609C26.4405 52.4036 25.7331 52.1983 25.0257 51.9739L25.0257 53.5675L26.7258 54.0543Z" fill="#FFC844"/>
<path d="M43.9022 114.943C40.9165 111.958 37.3566 110.916 33.5837 109.809C31.4342 109.243 29.3363 108.498 27.312 107.58L27.2207 107.534C26.4661 107.164 25.7379 106.742 25.0414 106.272L25.0414 108.082C25.4598 108.333 25.882 108.565 26.3079 108.782L26.3307 108.782C26.8822 109.059 27.4375 109.31 27.9966 109.542L28.1525 109.603L28.7687 109.847L29.2289 110.014L29.5141 110.117L30.1417 110.334L30.2064 110.353C31.1952 110.684 32.1841 110.976 33.1616 111.262C36.7367 112.308 40.1178 113.296 42.8258 116.005C45.5338 118.713 46.5226 122.09 47.5723 125.677L47.6636 125.989L49.2534 125.989C49.1812 125.741 49.1051 125.494 49.0328 125.247C47.9299 121.489 46.8878 117.925 43.9022 114.943Z" fill="#FFC844"/>
<path d="M25.037 125.471C25.4439 125.635 25.8433 125.81 26.235 126L29.2549 126C27.9466 125.101 26.5292 124.373 25.037 123.832L25.037 125.471Z" fill="#FFC844"/>
<path d="M27.8792 35.4937C31.3859 38.9966 35.4859 40.1947 39.4261 41.351C43.0012 42.4007 46.3824 43.3896 49.0941 46.0976C51.8059 48.8057 52.791 52.1831 53.8407 55.7659C54.9817 59.7215 56.195 63.8064 59.6978 67.3132C61.0731 68.6789 62.6575 69.8165 64.3912 70.683C64.9427 70.9645 65.498 71.2155 66.0608 71.4437L66.194 71.4969C66.4069 71.5857 66.6199 71.6694 66.8329 71.748L67.2817 71.9115L67.5822 72.018C67.7876 72.0941 67.9929 72.1626 68.1983 72.231L68.2706 72.2538C69.2594 72.5847 70.2483 72.8738 71.2219 73.1628C74.8009 74.2088 78.1782 75.1977 80.8862 77.9057C83.5942 80.6138 84.583 83.9912 85.6328 87.5779C85.9865 88.7836 86.3478 90.0082 86.7738 91.233L86.8536 91.4612C86.9145 91.6323 86.9753 91.8035 87.04 91.9746C87.1046 92.1458 87.1845 92.355 87.2606 92.5299C87.2872 92.5984 87.3138 92.6707 87.3443 92.7391C87.5725 93.297 87.826 93.851 88.1049 94.4012C88.9714 96.135 90.109 97.7193 91.4747 99.0946C94.9814 102.598 99.0813 103.796 103.022 104.952C106.601 106.002 109.982 106.991 112.69 109.699C115.398 112.407 116.386 115.784 117.436 119.371C118.03 121.627 118.816 123.829 119.787 125.951L121.502 125.951C120.289 123.691 119.6 121.291 118.897 118.941C117.79 115.172 116.748 111.608 113.762 108.626C110.777 105.644 107.22 104.598 103.448 103.491C99.6747 102.385 95.78 101.247 92.551 98.0183C91.2411 96.6946 90.1602 95.1625 89.3524 93.4846L89.3106 93.4009C88.3899 91.3748 87.643 89.2741 87.078 87.1214C85.9712 83.3522 84.9291 79.7884 81.9473 76.8065C78.9655 73.8246 75.4018 72.7825 71.6327 71.6757C69.4845 71.1103 67.3878 70.3647 65.3648 69.4469L65.2659 69.4013C63.5886 68.5944 62.0577 67.5133 60.7362 66.2026C57.5072 62.9735 56.3661 59.0749 55.2594 55.3057C54.1526 51.5365 53.1143 47.9727 50.1287 44.987C47.1431 42.0013 43.5832 40.963 39.8141 39.8562C36.045 38.7494 32.1465 37.6122 28.9175 34.3831C27.1981 32.6235 25.8639 30.5251 25.0001 28.2215L25.0001 31.7359C25.7868 33.112 26.7553 34.3759 27.8792 35.4937Z" fill="#FFC844"/>
<path d="M95.9995 174.005V126.022H48.017V174.005H95.9995Z" fill="#2B5243"/>
<path d="M48.0174 126.109C51.5052 129.572 54.2728 133.691 56.1602 138.228C58.0476 142.766 59.0176 147.633 59.0142 152.547V173.983H69.6575V152.547C69.6737 143.101 66.8881 133.863 61.6531 126H48L48.0174 126.109Z" fill="#FFC844"/>
<path d="M95.9997 141.071V126.018H85.3345V146.131C85.3345 146.309 85.2637 146.48 85.1378 146.606C85.0118 146.732 84.8409 146.803 84.6627 146.803H48.0215V157.468H79.6071C83.9551 157.467 88.1247 155.739 91.1987 152.664C94.2728 149.589 95.9997 145.419 95.9997 141.071Z" fill="#FC805F"/>
<path d="M59.0142 152.548V157.451H69.6575V152.548C69.6569 150.622 69.5433 148.698 69.3173 146.785H58.5562C58.8547 148.692 59.0079 150.618 59.0142 152.548Z" fill="#F3F1E5"/>
<path d="M47.9996 78H0.00390625V125.996H47.9996V78Z" fill="#4CE467"/>
<path d="M8.87915 78H0V88.6681H13.9624C14.0504 88.6676 14.1377 88.6844 14.2192 88.7177C14.3007 88.751 14.3748 88.8001 14.4373 88.8621C14.4997 88.9242 14.5493 88.9979 14.5831 89.0792C14.6169 89.1605 14.6344 89.2477 14.6344 89.3357V125.987H25.2981V94.3928C25.297 92.2382 24.8713 90.1049 24.0455 88.1148C23.2196 86.1248 22.0098 84.3169 20.485 82.7946C18.9603 81.2723 17.1505 80.0653 15.1591 79.2426C13.1677 78.4199 11.0337 77.9977 8.87915 78Z" fill="#766DFA"/>
</svg>
