<svg width="96" height="96" viewBox="0 0 96 96" fill="none" xmlns="http://www.w3.org/2000/svg">
<path d="M48 0H0V48H48V0Z" fill="#766DFA"/>
<path d="M20.3387 0.480043L8.82314 17.472C7.6139 19.2541 6.76752 21.257 6.33238 23.3662C5.89723 25.4755 5.88179 27.6497 6.28699 29.7649C6.6922 31.8801 7.51006 33.8947 8.69392 35.6938C9.87778 37.4929 11.4045 39.0411 13.1868 40.2502L24.6239 48H43.6405L14.9802 28.5818C14.9066 28.5327 14.8436 28.4694 14.7947 28.3957C14.7458 28.322 14.7121 28.2393 14.6954 28.1524C14.6788 28.0655 14.6796 27.9761 14.6978 27.8896C14.7159 27.803 14.7511 27.7209 14.8013 27.648L31.9984 2.26907C32.0475 2.19612 32.1106 2.13359 32.1839 2.08509C32.2573 2.03658 32.3395 2.00306 32.4259 1.98643C32.5122 1.96981 32.6011 1.97045 32.6872 1.98825C32.7733 2.00604 32.8552 2.0407 32.9279 2.0902L47.9737 12.2836V0H20.6878C20.5744 0.157091 20.4609 0.318588 20.3387 0.480043Z" fill="#FC805F"/>
<path d="M48 38.0511V25.1653L35.2232 16.5078L29.2363 25.3398L48 38.0511Z" fill="#F3F1E5"/>
<path d="M96 48.0001H48V96.0001H96V48.0001Z" fill="#FFC844"/>
<path d="M69.443 58.6691C74.3625 58.6624 79.2345 59.6312 83.7772 61.5195C88.32 63.4077 92.4431 66.178 95.9084 69.6699H96V56.0117C88.1351 50.7729 78.893 47.9847 69.443 48.0001H48V58.6691H69.443Z" fill="#766DFA"/>
<path d="M65.4633 72H48.0088V82.6691H70.5339C70.7122 82.6691 70.8831 82.7399 71.0091 82.8659C71.1351 82.992 71.2058 83.1629 71.2058 83.3411V95.9956H81.875V88.3986C81.8744 86.2442 81.4494 84.1109 80.6243 82.1207C79.7992 80.1306 78.5901 78.3225 77.0661 76.7997C75.5421 75.2769 73.733 74.0692 71.7421 73.2457C69.7513 72.4222 67.6178 71.9989 65.4633 72Z" fill="#FC805F"/>
</svg>
