
<svg width="128" height="150" viewBox="0 0 128 150" fill="none" xmlns="http://www.w3.org/2000/svg">
<g opacity="0.1">
<path d="M91.9815 35.6961C93.2022 36.9122 94.6108 37.9236 96.1533 38.6914V38.6914C96.6424 38.9393 97.136 39.1647 97.6341 39.3676L97.7693 39.4216C97.9553 39.496 98.1378 39.5704 98.3238 39.638L98.7295 39.7901L98.9864 39.8814L99.5408 40.0708L99.6017 40.091C100.481 40.3818 101.36 40.6421 102.225 40.8957C105.406 41.8287 108.409 42.7077 110.816 45.1148C113.223 47.5219 114.102 50.524 115.035 53.7053C115.292 54.5809 115.552 55.4666 115.85 56.3558C115.914 56.5552 115.985 56.7547 116.052 56.9542C116.079 57.0252 116.106 57.0961 116.13 57.1671L116.292 57.61C116.357 57.779 116.424 57.9481 116.488 58.1104C116.516 58.1712 116.539 58.2321 116.563 58.2963C116.766 58.7899 116.991 59.2801 117.239 59.7669L117.239 59.7906C118.007 61.3331 119.018 62.7418 120.234 63.9624C122.601 66.3289 125.278 67.5156 127.969 68.3979L127.969 66.9713C125.579 66.1497 123.236 65.0476 121.188 63.0057C120.023 61.8291 119.063 60.4673 118.344 58.9758C118.333 58.9504 118.321 58.9255 118.307 58.9014C117.492 57.0993 116.828 55.2323 116.323 53.3199C115.342 49.9662 114.413 46.8018 111.762 44.1479C109.112 41.4974 105.947 40.5677 102.594 39.5873C100.682 39.0835 98.8158 38.4197 97.0154 37.6028L96.9377 37.5656C95.4453 36.8477 94.0833 35.8856 92.9078 34.719C90.0376 31.8488 89.0234 28.3869 88.0429 25.0366C87.6373 23.6505 87.2384 22.3016 86.7279 21.0034L85.2606 21.0034C85.842 22.4377 86.3376 23.9052 86.7448 25.3983C87.8029 28.9481 88.8679 32.5824 91.9815 35.6961Z" fill="#766DFA"/>
<path d="M20.4182 22.413C22.8253 24.8234 23.7043 27.8221 24.6373 31.0102C25.6516 34.5228 26.73 38.1537 29.8437 41.2707C32.9573 44.3878 36.5883 45.4493 40.1076 46.4635C43.2889 47.3966 46.2909 48.2756 48.7014 50.6827C51.1119 53.0898 51.9875 56.0919 52.9206 59.2799C53.9348 62.7925 55.0132 66.4234 58.1269 69.5371C59.3484 70.7531 60.7569 71.7655 62.2988 72.5358V72.5358C62.7901 72.7815 63.2837 73.0068 63.7795 73.2119L63.9249 73.2694L64.4658 73.479L64.8816 73.6311L65.1284 73.7224L65.693 73.9151L65.7403 73.932C66.6227 74.2228 67.5017 74.4831 68.3706 74.7367C71.5518 75.6697 74.5539 76.5487 76.961 78.9558C79.3681 81.3629 80.2471 84.365 81.1802 87.5463C81.4337 88.4219 81.6974 89.311 81.9916 90.2001C82.0547 90.3985 82.1223 90.598 82.1944 90.7985L82.2721 91.0115L82.4344 91.4578C82.4986 91.6234 82.5629 91.7959 82.6305 91.9514C82.6541 92.0156 82.6778 92.0765 82.7049 92.1407C82.9077 92.6343 83.1331 93.1245 83.381 93.6113L83.381 93.635C84.1488 95.1767 85.1589 96.5852 86.373 97.8068C89.49 100.92 93.1344 101.985 96.6369 103.013C99.8182 103.946 102.824 104.825 105.231 107.232C107.638 109.639 108.517 112.641 109.45 115.826C110.464 119.342 111.543 122.973 114.656 126.09C117.77 129.207 121.445 130.306 124.957 131.32C125.999 131.624 127.02 131.925 128 132.273L128 130.843C127.128 130.549 126.239 130.289 125.333 130.022C121.982 129.041 118.517 128.027 115.647 125.157C112.777 122.287 111.762 118.821 110.782 115.471C109.801 112.121 108.872 108.953 106.218 106.303C103.564 103.652 100.403 102.722 97.0493 101.739C93.6956 100.755 90.2338 99.744 87.3635 96.8737C86.1981 95.698 85.2372 94.336 84.5203 92.8439C84.5077 92.8209 84.4964 92.7972 84.4865 92.7729C83.6685 90.9702 83.0036 89.102 82.4987 87.1879C81.5149 83.8376 80.5886 80.6699 77.9381 78.0194C75.2876 75.3689 72.1198 74.4425 68.7695 73.4587C66.8599 72.9561 64.9962 72.2934 63.198 71.4776L63.1101 71.4337C61.6194 70.7175 60.2586 69.7577 59.0837 68.5939C56.2134 65.7236 55.1992 62.2583 54.2154 58.9047C53.2316 55.551 52.3087 52.39 49.6548 49.7361C47.0009 47.0822 43.8365 46.1593 40.4862 45.1755C37.1359 44.1917 33.6707 43.1808 30.8004 40.3106C27.9302 37.4403 26.9159 33.9751 25.9355 30.6248C24.9551 27.2745 24.0254 24.1067 21.3715 21.4562C21.2228 21.3052 21.0707 21.1598 20.9151 21.0201L18.7278 21.0201C19.3334 21.4307 19.8994 21.897 20.4182 22.413Z" fill="#766DFA"/>
<path d="M107.439 27.4059L107.46 27.4059C107.946 27.6527 108.443 27.8792 108.94 28.082C108.981 28.1023 109.021 28.1158 109.065 28.1327C109.251 28.2105 109.441 28.2848 109.627 28.3558L110.026 28.5012L110.293 28.5959L110.837 28.7818L110.908 28.8055C111.787 29.0996 112.662 29.3566 113.528 29.6101C116.709 30.5432 119.711 31.4222 122.122 33.8293C124.532 36.2363 125.404 39.2384 126.338 42.4265C126.652 43.4948 126.973 44.5834 127.352 45.672L127.426 45.885C127.48 46.0337 127.534 46.1825 127.592 46.3312C127.649 46.48 127.72 46.6693 127.788 46.8316L127.859 47.0141L127.994 47.3218L127.994 43.2649C127.872 42.8592 127.751 42.4535 127.632 42.0478C126.652 38.6941 125.722 35.5298 123.072 32.8759C120.418 30.2254 117.254 29.2957 113.9 28.3153C111.989 27.813 110.124 27.1491 108.325 26.3308L108.24 26.2902C106.75 25.5725 105.389 24.6116 104.214 23.447C103.479 22.7106 102.827 21.8955 102.27 21.0163L100.685 21.0163C101.386 22.2536 102.252 23.3908 103.257 24.397C104.48 25.6188 105.892 26.6349 107.439 27.4059V27.4059Z" fill="#766DFA"/>
<path d="M51.3915 35.1919C54.5727 36.125 57.5748 37.004 59.9853 39.4111C62.3957 41.8182 63.2713 44.8202 64.2044 48.0049C65.2186 51.5175 66.2971 55.1518 69.4108 58.2654C70.6323 59.4814 72.0408 60.4939 73.5826 61.2642C74.0728 61.5143 74.5664 61.7375 75.0667 61.9403L75.1918 61.9876C75.3778 62.0654 75.5637 62.1398 75.753 62.2108L76.152 62.3561L76.419 62.4508L76.9634 62.6401L77.0343 62.6638C77.9133 62.9545 78.7889 63.2114 79.6544 63.465C82.8357 64.3981 85.8378 65.2771 88.2449 67.6842C90.652 70.0913 91.531 73.0934 92.464 76.278C92.7784 77.3497 93.0996 78.4417 93.4783 79.5303C93.5053 79.5979 93.529 79.6689 93.556 79.7365L93.7183 80.1861L93.911 80.6764L93.9887 80.8691C94.1916 81.366 94.4181 81.8562 94.6649 82.3464C94.6641 82.352 94.6641 82.3577 94.6649 82.3633V82.3633C95.4352 83.9052 96.4476 85.3137 97.6636 86.5352C100.777 89.6488 104.425 90.7138 107.924 91.7415C111.105 92.6746 114.111 93.5536 116.518 95.9607C118.925 98.3677 119.804 101.37 120.737 104.555C121.751 108.07 122.83 111.701 125.943 114.818C126.571 115.438 127.25 116.003 127.972 116.509L127.972 114.818C127.6 114.517 127.243 114.196 126.904 113.858C124.033 110.988 123.019 107.523 122.039 104.172C121.058 100.822 120.129 97.6544 117.478 95.0005C114.828 92.3467 111.66 91.4237 108.306 90.4399C104.952 89.4561 101.494 88.4453 98.6203 85.575C97.456 84.3985 96.4952 83.0367 95.7771 81.5452C95.7771 81.5215 95.7535 81.4945 95.7399 81.4674C94.9211 79.6678 94.2572 77.8017 93.7555 75.8892C92.7717 72.5389 91.8453 69.3712 89.1948 66.7207C86.5443 64.0702 83.3766 63.1438 80.0263 62.16C78.1149 61.6583 76.2499 60.9944 74.4515 60.1756L74.3669 60.1384C72.877 59.4194 71.5165 58.4587 70.3405 57.2952C67.4702 54.4215 66.456 50.9597 65.4756 47.6094C64.4952 44.259 63.5655 41.0913 60.915 38.4374C58.2645 35.7835 55.0967 34.8606 51.743 33.8768C48.3893 32.893 44.9275 31.8822 42.0573 29.0119C39.6671 26.6184 38.5616 23.8123 37.6927 21.0063L36.2795 21.0063C37.216 24.1065 38.3688 27.2336 41.1005 29.9653C44.2446 33.0992 47.8755 34.1641 51.3915 35.1919Z" fill="#766DFA"/>
<path d="M71.2706 28.1266C73.6776 30.5336 74.5566 33.5357 75.4897 36.7204C76.5039 40.2364 77.5824 43.8673 80.696 46.9809C81.9175 48.197 83.326 49.2094 84.8679 49.9797V49.9797L84.8848 49.9797C85.3739 50.2276 85.8686 50.453 86.3689 50.6558L86.494 50.7031C86.68 50.7809 86.8659 50.8553 87.0552 50.9263L87.4575 51.0716L87.7178 51.1663L88.2757 51.3556L88.3298 51.3759C89.2088 51.6666 90.0911 51.9269 90.9566 52.1805C94.1379 53.1136 97.14 53.9926 99.547 56.3963C101.954 58.8 102.833 61.8055 103.766 64.9969C104.023 65.8691 104.283 66.7515 104.578 67.6406L104.78 68.2356C104.807 68.3066 104.835 68.3776 104.858 68.4486L105.02 68.8949C105.085 69.0605 105.152 69.233 105.217 69.3952C105.244 69.4561 105.267 69.5169 105.291 69.5778C105.494 70.0714 105.717 70.565 105.967 71.0484L105.967 71.0721C106.735 72.6146 107.746 74.0233 108.962 75.2439C112.076 78.3576 115.707 79.4225 119.223 80.4503C122.404 81.3833 125.41 82.2623 127.817 84.6694C127.874 84.7269 127.925 84.7877 127.982 84.8452L127.982 82.9926C125.501 80.8864 122.627 80.0378 119.602 79.152C116.251 78.1716 112.789 77.1574 109.916 74.2872C108.751 73.1106 107.791 71.7488 107.073 70.2573L107.039 70.1863C106.221 68.3837 105.556 66.5154 105.051 64.6014C104.067 61.2477 103.141 58.0833 100.49 55.4294C97.8398 52.7789 94.6754 51.8492 91.3217 50.8688C89.4131 50.3667 87.5505 49.704 85.7537 48.8877L85.6624 48.8437C84.1721 48.1268 82.8114 47.1671 81.6359 46.0039C78.7657 43.1303 77.7514 39.6684 76.771 36.3147C75.7906 32.961 74.8609 29.8 72.2104 27.1461C69.5599 24.4923 66.3922 23.5693 63.0385 22.5855C61.4422 22.1501 59.873 21.6206 58.3392 21L55.3608 21C57.7071 22.43 60.2122 23.167 62.6598 23.8837C65.858 24.827 68.8635 25.7195 71.2706 28.1266Z" fill="#766DFA"/>
<path d="M50.6723 126.709L50.6351 126.638C49.8162 124.836 49.1523 122.967 48.6506 121.053C47.6668 117.702 46.7405 114.535 44.0866 111.884C41.4361 109.23 38.2684 108.304 34.9147 107.32C33.0035 106.818 31.1385 106.154 29.3398 105.336L29.2587 105.298C27.7671 104.582 26.4061 103.621 25.2322 102.455C22.362 99.585 21.3478 96.1198 20.364 92.7694C19.414 89.5172 18.5079 86.4441 16.0366 83.8443L16.0366 85.9505C17.5816 88.0804 18.3085 90.5551 19.0793 93.1515C20.0935 96.6641 21.1753 100.295 24.289 103.412C25.5115 104.626 26.9198 105.637 28.4608 106.407V106.407L28.4811 106.407C28.9713 106.654 29.4649 106.877 29.9619 107.083L30.114 107.144L30.6448 107.354L31.0674 107.506L31.3074 107.594L31.8754 107.787L31.9193 107.804C32.8017 108.094 33.6841 108.355 34.5529 108.612C37.7308 109.541 40.7363 110.42 43.1434 112.827C45.5505 115.234 46.4294 118.237 47.3625 121.425C47.6161 122.293 47.8764 123.176 48.1705 124.062L48.1705 124.085C48.2348 124.281 48.299 124.474 48.37 124.667C48.3936 124.744 48.4241 124.819 48.4511 124.893C48.5018 125.039 48.5559 125.184 48.61 125.329C48.6641 125.475 48.7419 125.667 48.8095 125.836L48.8805 126.012C49.0833 126.506 49.3064 126.999 49.5566 127.486L49.5566 127.507C50.3276 129.046 51.3387 130.453 52.552 131.675C53.0191 132.139 53.5148 132.574 54.0361 132.977L56.45 132.977C55.3764 132.354 54.3878 131.595 53.5087 130.718C52.3476 129.548 51.3891 128.193 50.6723 126.709V126.709Z" fill="#766DFA"/>
<path d="M17.5341 69.0467C20.7154 69.9798 23.7209 70.8588 26.128 73.2659C28.5351 75.673 29.4174 78.675 30.3471 81.8597C31.3613 85.3757 32.4431 89.0066 35.5568 92.1236C36.7793 93.3376 38.1876 94.3487 39.7287 95.1189C40.2189 95.3657 40.7125 95.5889 41.2094 95.7951L41.3345 95.8424C41.5238 95.9202 41.7098 95.9946 41.8991 96.0655L42.298 96.2109L42.5617 96.309L43.1094 96.4949L43.177 96.5186C44.056 96.8093 44.935 97.0696 45.8005 97.3232C48.9817 98.2529 51.9838 99.1319 54.3909 101.539C56.798 103.946 57.677 106.948 58.6067 110.133C58.8636 111.005 59.1273 111.891 59.4215 112.78C59.4857 112.976 59.5533 113.172 59.6243 113.372C59.648 113.443 59.675 113.517 59.702 113.591L59.8643 114.031C59.9285 114.2 59.9962 114.369 60.0638 114.535C60.0874 114.595 60.1077 114.653 60.1348 114.714C60.3376 115.207 60.5608 115.701 60.8109 116.188L60.8109 116.208C61.5812 117.749 62.5923 119.157 63.8063 120.38C66.9233 123.493 70.5677 124.558 74.0702 125.586C77.2515 126.519 80.2536 127.402 82.664 129.809C83.5788 130.735 84.341 131.801 84.9223 132.966L86.4302 132.966C85.7485 131.436 84.7955 130.042 83.6174 128.852C80.9669 126.198 77.8025 125.272 74.4488 124.288C71.0951 123.304 67.6332 122.293 64.763 119.423C63.6094 118.257 62.6567 116.908 61.9435 115.43L61.9063 115.356C61.0879 113.555 60.424 111.688 59.9218 109.774C58.938 106.424 58.0117 103.256 55.3578 100.606C52.7073 97.9554 49.5396 97.0291 46.1892 96.0453C44.2775 95.5427 42.4115 94.88 40.611 94.0642L40.5299 94.0236C39.039 93.3064 37.6781 92.3455 36.5034 91.1804C33.6332 88.3101 32.619 84.8449 31.6352 81.4946C30.6514 78.1443 29.7284 74.9765 27.0745 72.326C24.4207 69.6755 21.2563 68.7458 17.906 67.762C17.2806 67.5795 16.6518 67.3969 16.0229 67.1974L16.0229 68.614L17.5341 69.0467Z" fill="#766DFA"/>
<path d="M32.8019 123.169C30.148 120.515 26.9837 119.589 23.63 118.605C21.7193 118.103 19.8545 117.44 18.0551 116.624L17.974 116.583C17.3032 116.254 16.6559 115.879 16.0368 115.461L16.0368 117.07C16.4087 117.293 16.784 117.5 17.1626 117.692L17.1829 117.692C17.6731 117.939 18.1667 118.162 18.6636 118.369L18.8023 118.423L19.3499 118.639L19.759 118.788L20.0126 118.879L20.5704 119.072L20.6279 119.089C21.5069 119.383 22.3859 119.643 23.2547 119.897C26.4326 120.826 29.4381 121.705 31.8451 124.112C34.2522 126.519 35.1312 129.522 36.0643 132.71L36.1454 132.987L37.5586 132.987C37.4944 132.767 37.4268 132.547 37.3625 132.328C36.3821 128.987 35.4558 125.82 32.8019 123.169Z" fill="#766DFA"/>
<path d="M16.0327 132.527C16.3945 132.672 16.7494 132.828 17.0977 132.997L19.782 132.997C18.6191 132.198 17.3592 131.55 16.0327 131.07L16.0327 132.527Z" fill="#766DFA"/>
<path d="M18.5593 52.5486C21.6764 55.6622 25.3208 56.7272 28.8233 57.7549C32.0011 58.688 35.0066 59.567 37.4171 61.9741C39.8275 64.3811 40.7032 67.3832 41.6363 70.5679C42.6505 74.0838 43.7289 77.7148 46.8426 80.8318C48.065 82.0458 49.4734 83.0569 51.0144 83.8271V83.8271C51.5046 84.0773 51.9982 84.3004 52.4986 84.5033L52.6169 84.5506C52.8062 84.6295 52.9955 84.7039 53.1848 84.7737L53.5838 84.9191L53.8509 85.0138C54.0334 85.0814 54.216 85.1423 54.3985 85.2031L54.4628 85.2234C55.3417 85.5175 56.2207 85.7744 57.0862 86.0314C60.2675 86.9611 63.2696 87.8401 65.6767 90.2472C68.0838 92.6542 68.9627 95.6563 69.8958 98.8444C70.2102 99.9161 70.5314 101.005 70.9101 102.093L70.981 102.296C71.0351 102.448 71.0892 102.6 71.1467 102.753C71.2042 102.905 71.2752 103.091 71.3428 103.246C71.3665 103.307 71.3901 103.371 71.4172 103.432C71.62 103.928 71.8454 104.42 72.0933 104.909C72.8635 106.45 73.8747 107.859 75.0886 109.081C78.2057 112.195 81.8501 113.26 85.3526 114.288C88.5338 115.221 91.5393 116.1 93.9464 118.507C96.3535 120.914 97.2325 123.916 98.1656 127.104C98.6934 129.11 99.3924 131.066 100.255 132.953L101.78 132.953C100.701 130.944 100.089 128.811 99.4637 126.722C98.48 123.372 97.5536 120.204 94.8997 117.553C92.2459 114.903 89.0849 113.973 85.7312 112.989C82.3775 112.006 78.9156 110.995 76.0454 108.125C74.881 106.948 73.9202 105.586 73.2022 104.095L73.165 104.02C72.3466 102.219 71.6827 100.352 71.1805 98.4387C70.1967 95.0884 69.2704 91.9206 66.6199 89.2701C63.9694 86.6196 60.8016 85.6933 57.4513 84.7095C55.5418 84.2069 53.678 83.5442 51.8799 82.7284L51.792 82.6878C50.301 81.9706 48.9402 81.0097 47.7655 79.8446C44.8953 76.9744 43.8811 73.5091 42.8973 70.1588C41.9135 66.8085 40.9905 63.6408 38.3367 60.9869C35.6828 58.333 32.5184 57.41 29.1681 56.4262C25.8178 55.4425 22.3525 54.4316 19.4823 51.5614C17.9539 49.9974 16.768 48.1322 16.0001 46.0846L16.0001 49.2084C16.6995 50.4315 17.5603 51.555 18.5593 52.5486V52.5486Z" fill="#766DFA"/>
</g>
<path d="M50.0684 119.194V149.106H86.11C71.6635 142.493 59.2278 132.172 50.0684 119.194V119.194Z" fill="#FC805F"/>
<path d="M98.0672 132.531V101.106H62.2188C70.1178 115.454 82.8047 126.576 98.0672 132.531V132.531Z" fill="#FC805F"/>
<path d="M98.0684 132.531C82.8059 126.576 70.119 115.454 62.2199 101.106H50.0684V119.178C59.2278 132.156 71.6635 142.477 86.11 149.09H98.0684V132.531Z" fill="#F3F1E5"/>
<path d="M37.1058 10.439H47.9956V0H0V48.0001H9.97253V37.5718C9.97395 30.3762 12.833 23.4757 17.9212 18.3876C23.0094 13.2995 29.91 10.4404 37.1058 10.439Z" fill="#4CE467"/>
<path d="M27.615 29.193V48.0003H47.9998V28.0825H28.7308C28.5845 28.0818 28.4395 28.11 28.3041 28.1655C28.1688 28.221 28.0458 28.3027 27.9421 28.4059C27.8384 28.509 27.7561 28.6317 27.7 28.7668C27.6438 28.9018 27.615 29.0467 27.615 29.193Z" fill="#4CE467"/>
<path d="M27.6173 29.1932C27.6173 28.8987 27.7342 28.6162 27.9425 28.408C28.1507 28.1998 28.4332 28.0828 28.7277 28.0828H47.9967V10.4395H37.1069C29.9112 10.4409 23.0105 13.3 17.9223 18.3881C12.8341 23.4761 9.97506 30.3766 9.97363 37.5723V48.0006H27.6173V29.1932Z" fill="#766DFA"/>
</svg>
