<svg width="133" height="122" viewBox="0 0 133 122" fill="none" xmlns="http://www.w3.org/2000/svg">
<path d="M70.209 16.4841C72.2862 18.359 74.9073 19.0626 77.6838 19.7993C80.8037 20.6244 84.03 21.4753 86.8105 23.9838C89.5911 26.4923 90.5398 29.3987 91.4557 32.2093C92.2735 34.6846 93.0218 37.0273 95.0663 38.8949C97.1109 40.7625 99.736 41.4219 102.488 42.1475C105.608 42.969 108.834 43.8199 111.615 46.3284C111.633 46.3434 111.651 46.3594 111.668 46.3763L111.717 46.4205C114.502 48.929 115.446 51.8353 116.362 54.6459C117.18 57.1212 117.928 59.464 119.969 61.3279C122.009 63.1918 124.638 63.8548 127.394 64.5842C129.958 65.2582 132.596 65.9581 135 67.5789L135 69.4944C134.208 68.8396 133.327 68.2776 132.379 67.822C132.3 67.8123 132.224 67.7898 132.154 67.7557C130.508 67.0599 128.794 66.5014 127.035 66.0871C124.054 65.3025 121.24 64.5584 118.856 62.4035C118.856 62.4035 118.824 62.3704 118.803 62.3556L118.754 62.3114C116.378 60.1749 115.552 57.637 114.665 54.9443C113.815 52.3326 112.935 49.6289 110.486 47.3966C108.037 45.1644 105.007 44.3945 102.104 43.6283C99.1227 42.8437 96.3094 42.0997 93.9255 39.9448L93.8764 39.9006L93.8233 39.8564C91.4475 37.7162 90.6215 35.1782 89.7342 32.4892C89.2755 30.9039 88.6554 29.3601 87.8819 27.8774C87.847 27.8133 87.8223 27.7451 87.8083 27.6748C87.2252 26.6852 86.4824 25.779 85.6043 24.9857C83.1181 22.7424 80.0963 21.9468 77.1727 21.1733C74.249 20.3997 71.3785 19.6446 68.9946 17.4897C68.4984 17.0435 68.0481 16.5577 67.6493 16.0384C68.1277 15.7953 68.6061 15.5558 69.0886 15.3017C69.4215 15.7256 69.7965 16.1214 70.209 16.4841Z" fill="#DDDDD1"/>
<path d="M87.6202 10.8296C90.7401 11.6548 93.9664 12.5057 96.751 15.0105C99.5357 17.5153 100.48 20.4253 101.392 23.2359C102.21 25.7149 102.962 28.0577 105.003 29.9216C107.043 31.7855 109.672 32.4485 112.424 33.1742C115.544 33.9993 118.771 34.8502 121.555 37.3587L121.604 37.4066L121.657 37.4471C124.438 39.9556 125.387 42.862 126.299 45.6725C127.116 48.1516 127.869 50.4907 129.909 52.3582C131.381 53.6659 133.123 54.3915 135 54.9662L135 56.5796C132.755 55.9276 130.645 55.1062 128.801 53.4486L128.752 53.4007L128.699 53.3565C126.323 51.2163 125.501 48.682 124.61 45.9893C123.759 43.374 122.88 40.6739 120.435 38.4417C117.99 36.2094 114.951 35.4396 112.048 34.6734C109.067 33.8888 106.254 33.1447 103.87 30.9898L103.821 30.9419L103.768 30.8977C101.392 28.7576 100.57 26.2233 99.6788 23.5306C99.2226 21.9446 98.6024 20.4005 97.8264 18.9187C97.7922 18.8547 97.7688 18.7864 97.7569 18.7162C97.1725 17.7263 96.4299 16.819 95.5529 16.0235C93.0627 13.7839 90.0409 12.9845 87.1172 12.2147C84.9582 11.6437 82.8851 11.1096 80.9836 10.0045C81.6174 9.75772 82.2472 9.5146 82.881 9.26781C84.4049 9.91675 85.9912 10.4395 87.6202 10.8296Z" fill="#DDDDD1"/>
<path d="M119.474 0.777463C120.209 2.24957 120.81 3.77353 121.269 5.33404C122.087 7.8094 122.835 10.1522 124.88 12.0197C126.924 13.8873 129.549 14.5466 132.301 15.2723C133.197 15.5081 134.1 15.7475 135 16.009L135 17.6409C133.986 17.3057 132.955 17.0331 131.941 16.7642C128.96 15.9796 126.147 15.2355 123.763 13.0806L123.714 13.0364C123.714 13.0364 123.677 13.0069 123.661 12.9885C121.285 10.8484 120.463 8.31406 119.572 5.62137C119.113 4.03605 118.493 2.49223 117.72 1.00953C117.705 0.982755 117.694 0.954261 117.687 0.924815C118.313 0.891663 118.885 0.8364 119.474 0.777463Z" fill="#DDDDD1"/>
<path d="M50.3321 34.3899C52.4135 36.2648 55.0304 36.9684 57.8069 37.7051C60.9269 38.5302 64.1531 39.3811 66.9378 41.8897C69.7224 44.3982 70.6629 47.3008 71.5788 50.1151C72.3966 52.5905 73.1449 54.9295 75.1854 56.7971C77.2258 58.6647 79.8592 59.324 82.6111 60.0497C85.731 60.8748 88.9573 61.7257 91.7419 64.2342L91.791 64.2821L91.8442 64.3263C94.6247 66.8311 95.5693 69.7375 96.4852 72.5517C97.303 75.0271 98.0554 77.3698 100.092 79.2337C102.128 81.0976 104.766 81.7349 107.517 82.4716C110.637 83.293 113.864 84.1439 116.648 86.6524C119.433 89.1609 120.378 92.0673 121.289 94.8779C122.107 97.3753 122.868 99.7365 124.949 101.608C127.03 103.479 129.652 104.186 132.424 104.923C133.279 105.151 134.141 105.38 135 105.641L135 107.207C133.994 106.875 132.955 106.606 131.962 106.337C128.985 105.553 126.168 104.809 123.784 102.654C121.4 100.499 120.586 97.9794 119.695 95.2868C118.803 92.5941 117.953 89.9308 115.467 87.6912C114.585 86.9011 113.579 86.2321 112.482 85.7058C112.402 85.6926 112.325 85.6703 112.253 85.6395C110.606 84.943 108.893 84.3845 107.133 83.9708C104.152 83.1862 101.339 82.4421 98.955 80.2872L98.906 80.2393L98.8528 80.1951C96.4771 78.055 95.6552 75.5207 94.7638 72.828C93.9132 70.2126 93.0341 67.5126 90.5847 65.2803C88.1354 63.0481 85.1054 62.2782 82.2022 61.5121C79.2213 60.7274 76.408 59.9834 74.0241 57.8285L73.9709 57.7769L73.9219 57.7364C71.5461 55.5962 70.7242 53.0619 69.8328 50.3692C69.3748 48.7837 68.7547 47.2398 67.9805 45.7574C67.9462 45.6931 67.9214 45.625 67.9069 45.5548C67.3254 44.5642 66.584 43.6568 65.707 42.8621C63.2167 40.6225 60.1949 39.8232 57.2712 39.0533C54.3476 38.2835 51.4771 37.5246 49.0931 35.3697C47.3471 33.7969 46.4394 32.0066 45.7319 30.1022C46.179 29.7511 46.6275 29.4036 47.0773 29.0598C47.8378 31.071 48.6638 32.887 50.3321 34.3899Z" fill="#DDDDD1"/>
<path d="M60.248 25.4388C62.3293 27.3137 64.9504 28.0173 67.7228 28.7356C70.8427 29.557 74.069 30.4116 76.8536 32.9164C79.6383 35.4213 80.5829 38.3313 81.4947 41.1419C82.3125 43.6209 83.0649 45.96 85.1053 47.8275C87.1458 49.6951 89.775 50.3545 92.527 51.0801C95.6469 51.9053 98.8773 52.7562 101.658 55.261L101.711 55.3126L101.76 55.3531C104.545 57.8616 105.489 60.7679 106.401 63.5785C107.219 66.0575 107.971 68.3966 110.012 70.2642C112.052 72.1317 114.681 72.7911 117.433 73.5168C120.553 74.3419 123.78 75.1928 126.564 77.6976C129.349 80.2025 130.293 83.1125 131.209 85.923C132.027 88.4242 132.788 90.7817 134.865 92.6566L134.979 92.7524L134.979 94.6863C134.531 94.3851 134.108 94.0552 133.712 93.6991C131.336 91.5589 130.51 89.0246 129.623 86.3319C128.736 83.6392 127.881 80.976 125.391 78.7327C124.508 77.9436 123.503 77.2748 122.406 76.7473C122.327 76.7376 122.251 76.7165 122.181 76.6847C120.534 75.9872 118.819 75.4286 117.057 75.016C114.08 74.2277 111.263 73.4873 108.879 71.3324L108.83 71.2808L108.781 71.2403C106.405 69.1002 105.579 66.5659 104.692 63.8732C103.841 61.2578 102.958 58.5541 100.513 56.3219C98.0676 54.0896 95.0336 53.3234 92.1262 52.5573C89.1494 51.769 86.3321 51.0286 83.9481 48.8737L83.8991 48.8258L83.85 48.7816C81.4743 46.6414 80.6483 44.1071 79.7609 41.4145C79.3021 39.8287 78.6806 38.2847 77.9045 36.8026C77.8697 36.7375 77.8462 36.6679 77.835 36.5963C77.2507 35.6074 76.5081 34.7014 75.631 33.9073C73.1449 31.6677 70.1231 30.8684 67.1953 30.0985C64.2675 29.3286 61.4011 28.5698 59.0172 26.4149C57.8199 25.3172 56.8786 24.0146 56.2489 22.584C56.7069 22.2893 57.1689 22.002 57.6269 21.7147C58.1962 23.1101 59.0898 24.3798 60.248 25.4388Z" fill="#DDDDD1"/>
<path d="M111.328 14.2848C112.146 16.7639 112.899 19.1029 114.939 20.9705C116.98 22.8381 119.613 23.4974 122.365 24.2231C125.485 25.0482 128.711 25.8991 131.492 28.4039C131.508 28.4208 131.526 28.4368 131.545 28.4518L131.594 28.496C133.092 29.869 134.252 31.5107 135 33.3142L135 38.3533C134.853 37.9223 134.71 37.484 134.567 37.0456C133.716 34.4303 132.833 31.7266 130.388 29.4943C127.942 27.2621 124.908 26.4811 121.993 25.7444C119.012 24.9561 116.194 24.2157 113.815 22.0608C113.8 22.0432 113.784 22.0271 113.766 22.0129L113.716 21.9687C111.341 19.8286 110.515 17.2943 109.627 14.6016C109.168 13.0178 108.547 11.4753 107.775 9.99345C107.737 9.92915 107.712 9.85933 107.702 9.78719C107.117 8.79832 106.375 7.89226 105.498 7.09817C103.92 5.73015 102.017 4.70462 99.9323 4.09973C100.813 3.88854 101.696 3.68471 102.582 3.48825C104.1 4.12907 105.483 5.00141 106.671 6.06675C109.472 8.5679 110.417 11.4743 111.328 14.2848Z" fill="#DDDDD1"/>
<path d="M135 5.15698C134.543 4.85206 134.111 4.51719 133.708 4.15506L133.659 4.10717L133.606 4.06297C132.352 2.91555 131.377 1.54567 130.743 0.0404946C131.348 0.0404946 131.97 0.0110313 132.563 -1.94438e-05C133.094 1.13822 133.855 2.17753 134.808 3.06474L134.992 3.22311L135 5.15698Z" fill="#DDDDD1"/>
<path d="M18.0531 73.4984C21.1731 74.3198 24.3993 75.1707 27.184 77.6792C29.9686 80.1877 30.9132 83.0941 31.825 85.9046C32.6428 88.3837 33.3952 90.7228 35.4357 92.5903C37.4761 94.4579 40.1054 95.1173 42.8573 95.843C45.9813 96.6644 49.2076 97.519 51.9881 100.024L52.0413 100.072L52.0904 100.116C54.875 102.624 55.8196 105.531 56.7355 108.341C57.5533 110.82 58.3016 113.159 60.3421 115.027C62.3825 116.895 65.0118 117.554 67.7637 118.28C70.6751 119.046 73.6765 119.841 76.3262 121.963L73.6192 121.963C73.333 121.801 73.0467 121.646 72.7523 121.503C72.6742 121.493 72.5983 121.471 72.5274 121.44C70.8819 120.742 69.1681 120.182 67.408 119.768C64.427 118.983 61.6138 118.243 59.2299 116.084L59.1767 116.033L59.1276 115.992C56.7519 113.852 55.9259 111.318 55.0386 108.625C54.1881 106.013 53.3048 103.31 50.8596 101.077C48.4143 98.8451 45.3802 98.0789 42.477 97.3127C39.4961 96.5244 36.6828 95.7803 34.2989 93.6291L34.2498 93.5812L34.1967 93.537C31.8209 91.3969 30.995 88.8626 30.1076 86.1699C29.6477 84.5861 29.0277 83.0436 28.2553 81.5617C28.2192 81.4968 28.1944 81.4272 28.1817 81.3554C27.5974 80.3666 26.8548 79.4606 25.9777 78.6665C23.4915 76.4268 20.4697 75.6275 17.5461 74.8539C15.2603 74.2535 13.0767 73.6752 11.1099 72.4743L11.7928 71.1078C13.6778 72.3418 15.8164 72.8943 18.0531 73.4984Z" fill="#DDDDD1"/>
<path d="M20.5185 61.2472C22.5999 63.1222 25.2169 63.8257 27.9933 64.544C31.1133 65.3691 34.3395 66.22 37.1201 68.7285C39.9006 71.237 40.8493 74.1434 41.7652 76.954C42.5831 79.4293 43.3314 81.7684 45.3718 83.636C47.4122 85.5035 50.0251 86.1555 52.7975 86.8922C55.9175 87.7137 59.1437 88.5646 61.9284 91.0731L61.9774 91.121L62.0265 91.1652C64.8111 93.67 65.7557 96.5764 66.6717 99.3906C67.4895 101.866 68.2378 104.209 70.2782 106.073C72.3186 107.936 74.9479 108.6 77.7039 109.329C80.8239 110.15 84.0501 111.001 86.8348 113.51C89.6194 116.018 90.5599 118.925 91.4758 121.735L91.5576 121.978L89.8525 121.978C89.0101 119.4 88.1105 116.744 85.6776 114.552C84.7955 113.761 83.7882 113.092 82.6885 112.567C82.6103 112.555 82.5346 112.532 82.4636 112.5C80.8175 111.804 79.1037 111.245 77.3441 110.832C74.3632 110.047 71.5499 109.303 69.166 107.148L69.1128 107.1L69.0637 107.056C66.688 104.916 65.8661 102.382 64.9747 99.689C64.1242 97.0736 63.245 94.3736 60.7957 92.1413C58.3463 89.9091 55.3164 89.1392 52.4131 88.373C49.4322 87.5884 46.619 86.8444 44.235 84.6895L44.1778 84.6379L44.1328 84.5974C41.7571 82.4572 40.9352 79.9229 40.0438 77.2302C39.5858 75.6447 38.9657 74.1008 38.1914 72.6184C38.1571 72.5541 38.1324 72.4859 38.1178 72.4158C37.5351 71.4259 36.7939 70.5186 35.9179 69.7231C33.4277 67.4835 30.4059 66.6879 27.4822 65.9143C24.5585 65.1408 21.688 64.3856 19.3041 62.2307C18.7527 61.7377 18.2594 61.1945 17.832 60.61C18.1428 60.1311 18.4577 59.6522 18.7766 59.1734C19.2454 59.9354 19.8319 60.6336 20.5185 61.2472Z" fill="#DDDDD1"/>
<path d="M30.4553 52.2957C32.5366 54.1707 35.1577 54.8742 37.9301 55.611C41.0501 56.4361 44.2763 57.287 47.0609 59.7918C49.8456 62.2967 50.7902 65.2067 51.702 68.0173C52.5198 70.4963 53.2722 72.8354 55.3127 74.7029C57.3531 76.5705 59.9823 77.2299 62.7343 77.9555C65.8542 78.7806 69.0805 79.6315 71.8651 82.1401L71.9183 82.1879L71.9674 82.2285C74.7479 84.737 75.6966 87.6433 76.6084 90.4576C77.4262 92.933 78.1786 95.272 80.2191 97.1396C82.2595 99.0071 84.8888 99.6665 87.6407 100.392C90.7606 101.217 93.9869 102.068 96.7715 104.577C99.5562 107.085 100.501 109.988 101.413 112.798C102.23 115.3 102.995 117.657 105.093 119.532C106.388 120.649 107.945 121.491 109.648 121.996L105.898 121.996C105.19 121.588 104.533 121.111 103.94 120.574C101.564 118.434 100.738 115.9 99.8506 113.207C98.9633 110.515 98.1046 107.851 95.6184 105.608C94.7358 104.82 93.7302 104.153 92.6334 103.626C92.5542 103.613 92.4773 103.591 92.4044 103.56C90.759 102.862 89.0452 102.303 87.2849 101.891C84.3081 101.103 81.4907 100.363 79.1068 98.2078L79.0578 98.1599L79.0087 98.1157C76.633 95.9756 75.807 93.4413 74.9196 90.7486C74.0732 88.1332 73.19 85.4295 70.7447 83.2009C68.2995 80.9724 65.2654 80.1988 62.3581 79.4326C59.3813 78.6444 56.5639 77.904 54.18 75.7491L54.1268 75.6975L54.0778 75.657C51.7061 73.5168 50.8801 70.9825 49.9887 68.2898C49.5325 66.7038 48.9123 65.1598 48.1364 63.678C48.1015 63.6129 48.0781 63.5433 48.0669 63.4717C47.4826 62.4829 46.74 61.5768 45.8629 60.7827C43.3767 58.5431 40.3549 57.7438 37.4271 56.9739C34.4994 56.204 31.633 55.4452 29.2491 53.2903C27.9468 52.0891 26.9444 50.6511 26.309 49.0726C26.6975 48.6048 27.0941 48.1407 27.4908 47.6803C28.1777 49.4115 28.9874 50.9733 30.4553 52.2957Z" fill="#DDDDD1"/>
<path d="M11.9522 103.811C12.7701 106.29 13.5183 108.629 15.5629 110.497C17.6074 112.364 20.2326 113.024 22.9845 113.749C26.1044 114.571 29.3307 115.422 32.1153 117.93L32.1644 117.978L32.2135 118.022C33.4739 119.165 34.4911 120.505 35.2148 121.978L33.3421 121.978C32.7397 120.892 31.9519 119.898 31.0072 119.031C28.5292 116.821 25.5279 116.029 22.6247 115.263C19.6437 114.479 16.8305 113.734 14.4466 111.58L14.3975 111.535C14.3975 111.517 14.3607 111.506 14.3443 111.487C11.9686 109.351 11.1426 106.813 10.2553 104.12C9.79728 102.535 9.17718 100.991 8.40294 99.5085C8.36865 99.4441 8.34391 99.376 8.32934 99.3059C7.12972 97.2627 5.25892 95.6032 2.97268 94.5541C3.09944 94.0605 3.23847 93.5669 3.38159 93.0807C4.83264 93.7089 6.15563 94.5533 7.29481 95.5781C10.0917 98.094 11.0363 101 11.9522 103.811Z" fill="#DDDDD1"/>
<path d="M130.461 119.083C127.971 116.843 124.949 116.044 122.025 115.274C119.102 114.504 116.231 113.745 113.847 111.59C111.463 109.435 110.645 106.912 109.758 104.223C108.899 101.593 108.016 98.8672 105.53 96.6276C104.648 95.8364 103.641 95.1673 102.541 94.6421C102.463 94.632 102.387 94.6108 102.316 94.5795C100.67 93.8819 98.9563 93.3221 97.1965 92.9071C94.2156 92.1225 91.4023 91.3821 89.0184 89.2235C88.9987 89.2095 88.9809 89.1934 88.9653 89.1756L88.9162 89.1351C86.5405 86.995 85.7145 84.457 84.8271 81.768C83.9766 79.1527 83.0975 76.4489 80.6481 74.2167C78.1988 71.9844 75.1688 71.2182 72.2656 70.4484C69.2847 69.6638 66.4714 68.9197 64.0875 66.7648L64.0343 66.7169L63.9853 66.6764C61.6095 64.5362 60.7835 61.9983 59.8962 59.3093C59.4363 57.7255 58.8162 56.183 58.0439 54.7011C58.0078 54.6361 57.983 54.5666 57.9703 54.4948C57.386 53.506 56.6434 52.5999 55.7663 51.8058C53.2801 49.5625 50.2583 48.7669 47.3347 47.9933C44.411 47.2198 41.5405 46.4646 39.1566 44.3098C37.3492 42.6816 36.4373 40.8251 35.7217 38.847C36.1306 38.4344 36.5723 38.0182 37.0057 37.613C37.7131 39.709 38.535 41.6649 40.3137 43.271C42.391 45.1422 45.0121 45.8495 47.7844 46.5862C50.9044 47.4076 54.1347 48.2586 56.9153 50.7671C59.6958 53.2756 60.6445 56.1819 61.5604 58.9925C62.3783 61.4715 63.1266 63.8106 65.167 65.6745C67.2074 67.5384 69.8367 68.2051 72.5927 68.9307C75.7127 69.7522 78.9389 70.6031 81.7195 73.1116L81.7726 73.1595L81.9198 73.2626C84.7045 75.7711 85.649 78.6775 86.565 81.488C87.3828 83.9671 88.1311 86.3062 90.1715 88.17C92.212 90.0339 94.8412 90.7007 97.5932 91.4263C100.717 92.2478 103.943 93.0987 106.724 95.6072C109.505 98.1157 110.453 101.022 111.369 103.833C112.187 106.33 112.948 108.691 115.049 110.566C117.151 112.441 119.748 113.145 122.524 113.881C125.644 114.703 128.87 115.557 131.651 118.062C132.907 119.199 133.921 120.534 134.644 122L132.816 122C132.206 120.922 131.411 119.938 130.461 119.083Z" fill="#DDDDD1"/>
<path d="M8.11711 82.4498C11.2371 83.275 14.4633 84.1259 17.248 86.6307C20.0326 89.1356 20.9772 92.0456 21.889 94.8561C22.7068 97.3352 23.4592 99.6779 25.4997 101.542C27.5401 103.406 30.1694 104.069 32.9213 104.794C36.0412 105.62 39.2675 106.47 42.0521 108.979L42.1012 109.027L42.1544 109.067C44.9349 111.576 45.8795 114.482 46.7954 117.296C47.3352 118.95 47.8545 120.545 48.75 121.978L46.8445 121.978C46.1346 120.571 45.5587 119.112 45.123 117.617C44.2725 115.002 43.3933 112.302 40.9481 110.069C38.5028 107.837 35.4688 107.067 32.5615 106.301C29.5805 105.516 26.7673 104.772 24.3834 102.617L24.3343 102.57L24.2811 102.525C21.9054 100.385 21.0835 97.8509 20.1921 95.1582C19.734 93.5739 19.1139 92.0312 18.3397 90.5501C18.3055 90.486 18.2821 90.4177 18.2702 90.3474C17.6872 89.3567 16.9445 88.4493 16.0662 87.6547C13.5801 85.4151 10.5542 84.6158 7.63051 83.8459C7.22161 83.7354 6.8127 83.6286 6.4038 83.5181L6.9272 82.122L8.11711 82.4498Z" fill="#DDDDD1"/>
<path d="M5.62273 119.448C7.00395 120.611 8.66093 121.477 10.4683 121.978L6.51005 121.978C5.79044 121.563 5.12158 121.08 4.51461 120.538C4.50043 120.52 4.48395 120.504 4.46553 120.49L4.41646 120.446C2.04072 118.306 1.21473 115.771 0.32741 113.079L0.000290438 112.077C0.102517 110.887 0.23336 109.705 0.376477 108.526C1.03083 109.902 1.57738 111.317 2.0121 112.762C2.81764 115.256 3.5823 117.58 5.62273 119.448Z" fill="#DDDDD1"/>
</svg>
