<svg width="245" height="275" viewBox="0 0 245 275" fill="none" xmlns="http://www.w3.org/2000/svg">
<path d="M127.416 212.571C131.186 208.793 135.943 207.376 140.982 205.892C146.644 204.23 152.499 202.515 157.545 197.462C162.591 192.408 164.313 186.553 165.975 180.891C167.459 175.904 168.817 171.184 172.528 167.422C176.238 163.66 181.002 162.331 185.997 160.869C191.659 159.215 197.514 157.5 202.56 152.447C202.594 152.416 202.626 152.384 202.657 152.35L202.746 152.261C207.799 147.208 209.513 141.353 211.176 135.69C212.66 130.704 214.018 125.984 217.721 122.229C221.424 118.474 226.196 117.138 231.197 115.669C235.85 114.311 240.637 112.901 245 109.636L245 105.777C243.563 107.096 241.965 108.228 240.243 109.146C240.1 109.166 239.962 109.211 239.835 109.279C236.847 110.681 233.737 111.807 230.544 112.641C225.134 114.222 220.029 115.721 215.702 120.062C215.702 120.062 215.643 120.129 215.606 120.159L215.517 120.248C211.205 124.552 209.706 129.665 208.096 135.089C206.552 140.351 204.957 145.798 200.512 150.295C196.067 154.792 190.568 156.343 185.299 157.886C179.889 159.467 174.784 160.966 170.457 165.307L170.368 165.396L170.272 165.485C165.96 169.797 164.461 174.91 162.851 180.327C162.018 183.521 160.893 186.631 159.489 189.618C159.426 189.747 159.381 189.884 159.356 190.026C158.297 192.02 156.95 193.845 155.356 195.443C150.844 199.963 145.36 201.566 140.054 203.124C134.748 204.682 129.539 206.204 125.212 210.545C124.312 211.444 123.495 212.422 122.771 213.469C123.639 213.958 124.507 214.441 125.383 214.953C125.987 214.099 126.668 213.301 127.416 212.571Z" fill="#FC805F" fill-opacity="0.33"/>
<path d="M159.014 223.962C164.676 222.3 170.532 220.586 175.585 215.539C180.639 210.493 182.353 204.631 184.008 198.969C185.492 193.974 186.857 189.255 190.56 185.5C194.263 181.745 199.035 180.409 204.029 178.947C209.691 177.285 215.547 175.571 220.6 170.517L220.689 170.421L220.786 170.339C225.832 165.285 227.554 159.43 229.208 153.768C230.693 148.774 232.058 144.062 235.761 140.299C238.433 137.665 241.594 136.203 245 135.045L245 131.795C240.926 133.108 237.097 134.763 233.75 138.103L233.661 138.199L233.564 138.288C229.253 142.6 227.761 147.705 226.144 153.13C224.6 158.399 223.005 163.838 218.567 168.335C214.129 172.832 208.615 174.383 203.347 175.927C197.937 177.507 192.831 179.006 188.505 183.348L188.416 183.444L188.319 183.533C184.008 187.845 182.516 192.95 180.898 198.375C180.071 201.57 178.945 204.681 177.537 207.666C177.475 207.795 177.432 207.932 177.411 208.074C176.35 210.068 175.002 211.896 173.411 213.499C168.892 218.011 163.408 219.621 158.102 221.172C154.183 222.322 150.421 223.398 146.97 225.624C148.121 226.122 149.263 226.611 150.414 227.109C153.179 225.801 156.058 224.748 159.014 223.962Z" fill="#FC805F" fill-opacity="0.33"/>
<path d="M216.823 244.213C218.158 241.248 219.248 238.178 220.081 235.034C221.565 230.047 222.923 225.327 226.633 221.565C230.344 217.803 235.108 216.474 240.102 215.012C241.727 214.537 243.367 214.055 245 213.528L245 210.241C243.16 210.916 241.29 211.465 239.449 212.007C234.039 213.588 228.934 215.087 224.607 219.428L224.518 219.517C224.518 219.517 224.452 219.576 224.422 219.613C220.11 223.925 218.619 229.03 217.001 234.455C216.169 237.649 215.043 240.759 213.639 243.746C213.612 243.8 213.592 243.857 213.58 243.917C214.715 243.983 215.754 244.095 216.823 244.213Z" fill="#FC805F" fill-opacity="0.33"/>
<path d="M91.3434 176.498C95.1206 172.721 99.87 171.303 104.909 169.819C110.571 168.157 116.426 166.443 121.48 161.389C126.533 156.336 128.24 150.488 129.902 144.818C131.386 139.831 132.744 135.119 136.447 131.357C140.15 127.594 144.93 126.266 149.924 124.804C155.586 123.142 161.441 121.428 166.495 116.374L166.584 116.278L166.68 116.189C171.726 111.142 173.441 105.287 175.103 99.6179C176.587 94.631 177.952 89.9113 181.648 86.1564C185.344 82.4014 190.13 81.1176 195.124 79.6334C200.786 77.9786 206.642 76.2644 211.695 71.2107C216.749 66.1571 218.463 60.302 220.118 54.6399C221.602 49.6085 222.982 44.8518 226.759 41.082C230.537 37.3122 235.294 35.8874 240.325 34.4032C241.876 33.9431 243.442 33.483 245 32.9561L245 29.8022C243.174 30.4701 241.29 31.0118 239.486 31.5536C234.084 33.1342 228.971 34.6332 224.645 38.9744C220.318 43.3156 218.841 48.3915 217.224 53.8162C215.606 59.2408 214.062 64.6061 209.55 69.118C207.951 70.7098 206.125 72.0575 204.133 73.1179C203.99 73.1443 203.85 73.1893 203.718 73.2515C200.73 74.6544 197.62 75.7798 194.427 76.6132C189.017 78.1938 183.911 79.6928 179.585 84.034L179.496 84.1305L179.399 84.2196C175.088 88.5311 173.596 93.6366 171.979 99.0613C170.435 104.33 168.84 109.77 164.394 114.267C159.949 118.764 154.451 120.315 149.182 121.858C143.772 123.439 138.666 124.938 134.34 129.279L134.243 129.383L134.154 129.465C129.843 133.776 128.351 138.882 126.734 144.306C125.902 147.5 124.777 150.611 123.372 153.597C123.31 153.727 123.265 153.864 123.238 154.005C122.183 156.001 120.838 157.829 119.246 159.43C114.727 163.942 109.243 165.552 103.937 167.103C98.6307 168.654 93.4213 170.183 89.0949 174.524C85.9262 177.693 84.2787 181.299 82.9949 185.136C83.8063 185.843 84.6201 186.543 85.4364 187.236C86.8167 183.184 88.3157 179.526 91.3434 176.498Z" fill="#FC805F" fill-opacity="0.33"/>
<path d="M109.339 194.531C113.116 190.754 117.873 189.336 122.904 187.889C128.567 186.234 134.422 184.513 139.475 179.467C144.529 174.42 146.243 168.558 147.898 162.896C149.382 157.901 150.748 153.189 154.451 149.427C158.154 145.664 162.925 144.336 167.92 142.874C173.582 141.212 179.444 139.498 184.49 134.451L184.587 134.348L184.676 134.266C189.729 129.212 191.444 123.357 193.099 117.695C194.583 112.701 195.948 107.989 199.651 104.226C203.354 100.464 208.126 99.1356 213.12 97.6737C218.782 96.0114 224.637 94.2971 229.691 89.2509C234.744 84.2047 236.459 78.3423 238.121 72.6802C239.605 67.6414 240.985 62.892 244.755 59.1148L244.963 58.9218L244.963 55.0259C244.149 55.6326 243.381 56.2973 242.663 57.0147C238.351 61.3262 236.852 66.4318 235.242 71.8565C233.631 77.2811 232.08 82.6464 227.561 87.1657C225.959 88.7554 224.135 90.1029 222.144 91.1656C222.002 91.1849 221.864 91.2275 221.736 91.2917C218.747 92.6967 215.634 93.8221 212.437 94.6533C207.035 96.2414 201.922 97.733 197.596 102.074L197.507 102.178L197.417 102.26C193.106 106.571 191.607 111.677 189.997 117.101C188.453 122.37 186.85 127.817 182.412 132.314C177.975 136.811 172.469 138.355 167.192 139.898C161.79 141.486 156.677 142.978 152.351 147.319L152.261 147.416L152.172 147.505C147.861 151.816 146.362 156.922 144.752 162.347C143.919 165.541 142.791 168.652 141.382 171.637C141.319 171.769 141.277 171.909 141.256 172.053C140.196 174.045 138.848 175.87 137.256 177.47C132.745 181.982 127.261 183.593 121.947 185.143C116.634 186.694 111.432 188.223 107.105 192.564C104.933 194.776 103.224 197.4 102.082 200.282C102.913 200.876 103.751 201.454 104.582 202.033C105.615 199.222 107.237 196.664 109.339 194.531Z" fill="#FC805F" fill-opacity="0.33"/>
<path d="M202.041 217.001C203.525 212.007 204.89 207.295 208.593 203.532C212.296 199.77 217.075 198.442 222.07 196.98C227.732 195.317 233.587 193.603 238.633 188.557C238.663 188.523 238.695 188.491 238.729 188.46L238.818 188.371C241.537 185.605 243.643 182.298 245 178.665L245 168.513C244.733 169.381 244.473 170.264 244.213 171.148C242.67 176.416 241.067 181.863 236.629 186.36C232.192 190.857 226.685 192.431 221.394 193.915C215.984 195.503 210.871 196.994 206.552 201.336C206.527 201.371 206.497 201.404 206.463 201.432L206.374 201.521C202.063 205.833 200.564 210.938 198.953 216.363C198.119 219.554 196.994 222.661 195.592 225.646C195.523 225.776 195.478 225.917 195.458 226.062C194.398 228.054 193.05 229.879 191.458 231.479C188.595 234.235 185.141 236.301 181.359 237.52C182.957 237.945 184.559 238.356 186.167 238.752C188.922 237.461 191.432 235.703 193.588 233.557C198.671 228.518 200.386 222.663 202.041 217.001Z" fill="#FC805F" fill-opacity="0.33"/>
<path d="M245 235.391C244.17 236.005 243.386 236.68 242.655 237.409L242.566 237.506L242.469 237.595C240.195 239.906 238.425 242.666 237.275 245.698C238.373 245.698 239.501 245.758 240.577 245.78C241.54 243.487 242.922 241.393 244.651 239.606L244.985 239.287L245 235.391Z" fill="#FC805F" fill-opacity="0.33"/>
<path d="M32.7628 97.7106C38.4249 96.0557 44.28 94.3415 49.3336 89.2879C54.3872 84.2343 56.1015 78.3793 57.7563 72.7171C59.2405 67.7229 60.6059 63.0106 64.3089 59.2482C68.012 55.4859 72.7836 54.1575 77.7778 52.6956C83.4474 51.0407 89.3024 49.3191 94.3486 44.2729L94.4451 44.1764L94.5341 44.0874C99.5878 39.0338 101.302 33.1787 102.964 27.5166C104.448 22.5223 105.806 17.8101 109.509 14.0477C113.212 10.2853 117.984 8.957 122.978 7.49509C128.262 5.95155 133.709 4.34864 138.518 0.0742188L133.605 0.0742185C133.086 0.400737 132.566 0.712414 132.032 1.00183C131.89 1.0222 131.752 1.06472 131.624 1.12792C128.637 2.5353 125.527 3.66317 122.333 4.49703C116.923 6.07767 111.817 7.56927 107.491 11.9179L107.395 12.0218L107.305 12.1034C102.994 16.4149 101.495 21.5205 99.8846 26.9452C98.3411 32.2066 96.7382 37.6535 92.3005 42.1505C87.8628 46.6476 82.3565 48.1911 77.0877 49.7346C71.6779 51.3227 66.5723 52.8217 62.2459 57.1555L62.1569 57.252L62.0604 57.341C57.7489 61.6526 56.2499 66.7581 54.6396 72.1828C53.8049 75.3734 52.6796 78.481 51.2779 81.4663C51.2124 81.5972 51.1673 81.7374 51.1443 81.8819C50.084 83.8741 48.7362 85.6993 47.1445 87.2991C42.6326 91.811 37.1486 93.4214 31.8426 94.9798C27.6944 96.1894 23.7316 97.3544 20.1622 99.7736L21.4015 102.527C24.8225 100.041 28.7036 98.9276 32.7628 97.7106Z" fill="#FC805F" fill-opacity="0.33"/>
<path d="M37.2376 122.392C41.0148 118.615 45.7642 117.198 50.8029 115.751C56.4651 114.088 62.3201 112.374 67.3663 107.321C72.4125 102.267 74.1342 96.4119 75.7964 90.7497C77.2806 85.7629 78.6386 81.0506 82.3416 77.2883C86.0447 73.5259 90.7866 72.2124 95.818 70.7282C101.48 69.0734 107.335 67.3592 112.389 62.3056L112.478 62.2091L112.567 62.12C117.62 57.0739 119.335 51.2187 120.997 45.5492C122.481 40.5624 123.839 35.8428 127.542 32.0878C131.245 28.3328 136.017 26.997 141.018 25.5277C146.681 23.8728 152.536 22.1586 157.589 17.105C162.643 12.0514 164.35 6.19636 166.012 0.534237L166.16 0.0444336L163.066 0.0444335C161.537 5.23904 159.905 10.5895 155.489 15.0049C153.888 16.5988 152.06 17.9467 150.065 19.0048C149.923 19.0293 149.785 19.0742 149.656 19.1383C146.669 20.5413 143.559 21.6666 140.365 22.5C134.956 24.0806 129.85 25.5797 125.524 29.9209L125.427 30.0173L125.338 30.1064C121.027 34.4179 119.535 39.5235 117.917 44.9481C116.374 50.217 114.778 55.6564 110.333 60.1535C105.888 64.6505 100.389 66.2015 95.1204 67.745C89.7106 69.3257 84.605 70.8247 80.2786 75.1659L80.1748 75.2698L80.0931 75.3514C75.7816 79.663 74.29 84.7685 72.6723 90.1932C71.8411 93.3873 70.7157 96.4976 69.3106 99.4841C69.2484 99.6137 69.2035 99.751 69.177 99.8923C68.1196 101.887 66.7743 103.714 65.1846 105.317C60.6653 109.829 55.1813 111.432 49.8753 112.99C44.5694 114.548 39.36 116.07 35.0336 120.411C34.0329 121.404 33.1376 122.499 32.3621 123.676C32.9261 124.641 33.4975 125.606 34.0763 126.57C34.9271 125.035 35.9915 123.628 37.2376 122.392Z" fill="#FC805F" fill-opacity="0.33"/>
<path d="M55.2705 140.426C59.0478 136.648 63.8046 135.231 68.8359 133.747C74.498 132.085 80.3531 130.37 85.4067 125.324C90.4603 120.278 92.1745 114.415 93.8294 108.753C95.3136 103.759 96.679 99.0468 100.382 95.2844C104.085 91.522 108.857 90.1937 113.851 88.7318C119.513 87.0695 125.368 85.3553 130.422 80.3017L130.518 80.2052L130.607 80.1236C135.653 75.07 137.375 69.2149 139.03 63.5453C140.514 58.5585 141.88 53.8463 145.583 50.0839C149.286 46.3215 154.057 44.9932 159.051 43.5312C164.714 41.869 170.569 40.1548 175.622 35.1011C180.676 30.0475 182.39 24.1999 184.045 18.5378C185.529 13.499 186.917 8.74965 190.724 4.97242C193.075 2.72229 195.899 1.02604 198.991 0.0078125L192.186 0.0078122C190.9 0.830871 189.708 1.79142 188.631 2.87235C184.32 7.18387 182.82 12.2894 181.21 17.7141C179.6 23.1387 178.041 28.504 173.53 33.0233C171.928 34.6107 170.103 35.9557 168.112 37.0157C167.969 37.0422 167.829 37.0871 167.697 37.1493C164.711 38.5555 161.6 39.6809 158.406 40.511C153.003 42.0991 147.89 43.5907 143.564 47.9319L143.475 48.0283L143.386 48.1174C139.074 52.4289 137.575 57.5345 135.965 62.9591C134.429 68.2279 132.826 73.6749 128.388 78.1645C123.951 82.6541 118.444 84.2125 113.168 85.756C107.766 87.3441 102.653 88.8357 98.3264 93.1769L98.23 93.2808L98.1409 93.3624C93.8368 97.6739 92.3378 102.779 90.72 108.204C89.8921 111.399 88.7666 114.51 87.3584 117.495C87.2951 117.626 87.2526 117.766 87.2322 117.911C86.1719 119.903 84.8242 121.728 83.2324 123.328C78.7205 127.84 73.2365 129.45 67.9231 131.001C62.6098 132.552 57.4078 134.081 53.0814 138.422C50.718 140.842 48.8988 143.739 47.7458 146.919C48.4508 147.861 49.1706 148.796 49.8904 149.724C51.1371 146.236 52.6065 143.09 55.2705 140.426Z" fill="#FC805F" fill-opacity="0.33"/>
<path d="M21.6909 36.6441C23.1751 31.6499 24.5331 26.9377 28.2436 23.1753C31.954 19.4129 36.7182 18.0845 41.7124 16.6226C47.3746 14.9678 53.2296 13.2536 58.2833 8.19996L58.3723 8.10349L58.4613 8.01444C60.7487 5.71292 62.5949 3.01162 63.9083 0.0444336L60.5095 0.0444334C59.4164 2.23286 57.9866 4.23614 56.2722 5.98113C51.7751 10.4337 46.3282 12.0291 41.0594 13.5727C35.6496 15.1533 30.544 16.6523 26.2177 20.9935L26.1286 21.0826C26.1286 21.1197 26.0618 21.142 26.0321 21.1791C21.7206 25.4832 20.2216 30.5961 18.6113 36.0208C17.7801 39.215 16.6547 42.3253 15.2496 45.3118C15.1874 45.4414 15.1425 45.5786 15.116 45.7199C12.9389 49.836 9.54379 53.1793 5.39468 55.2928C5.62473 56.2872 5.87704 57.2816 6.13677 58.2611C8.77017 56.9954 11.1711 55.2945 13.2385 53.2299C18.3144 48.1614 20.0287 42.3063 21.6909 36.6441Z" fill="#FC805F" fill-opacity="0.33"/>
<path d="M236.763 5.87736C232.243 10.3893 226.759 11.9996 221.453 13.5505C216.147 15.1015 210.938 16.6302 206.612 20.9714C202.285 25.3126 200.801 30.3959 199.191 35.8131C197.632 41.1116 196.03 46.6031 191.518 51.115C189.917 52.7088 188.089 54.0568 186.093 55.1148C185.951 55.1352 185.813 55.1778 185.685 55.241C182.698 56.6463 179.588 57.7741 176.394 58.6101C170.984 60.1908 165.878 61.6824 161.552 66.031C161.516 66.0593 161.484 66.0917 161.456 66.1275L161.367 66.2091C157.055 70.5206 155.556 75.6336 153.946 81.0508C152.402 86.3196 150.807 91.7666 146.362 96.2636C141.916 100.761 136.418 102.304 131.149 103.855C125.739 105.436 120.633 106.935 116.307 111.276L116.211 111.372L116.122 111.454C111.81 115.766 110.311 120.879 108.701 126.296C107.866 129.487 106.741 132.594 105.339 135.579C105.274 135.71 105.228 135.85 105.205 135.995C104.145 137.987 102.797 139.812 101.206 141.412C96.6937 145.931 91.2097 147.534 85.9038 149.093C80.5978 150.651 75.3884 152.172 71.062 156.514C67.782 159.794 66.1271 163.534 64.8285 167.519C65.5705 168.35 66.372 169.189 67.1586 170.005C68.4424 165.782 69.934 161.842 73.1621 158.606C76.9319 154.837 81.6887 153.412 86.72 151.928C92.3822 150.273 98.2447 148.558 103.291 143.505C108.337 138.451 110.059 132.596 111.721 126.934C113.205 121.94 114.563 117.228 118.266 113.473C121.969 109.718 126.741 108.374 131.742 106.913C137.405 105.258 143.26 103.543 148.306 98.4899L148.402 98.3934L148.669 98.1856C153.723 93.132 155.437 87.2769 157.1 81.6148C158.584 76.6206 159.942 71.9083 163.645 68.1533C167.348 64.3984 172.119 63.0551 177.114 61.5932C182.783 59.9384 188.638 58.2242 193.685 53.1706C198.731 48.1169 200.452 42.2619 202.115 36.5998C203.599 31.5684 204.979 26.8116 208.793 23.0344C212.608 19.2572 217.32 17.8398 222.359 16.3556C228.021 14.7008 233.876 12.9792 238.922 7.93296C241.202 5.64221 243.043 2.95357 244.354 0L241.037 -1.44996e-07C239.93 2.17138 238.487 4.15482 236.763 5.87736Z" fill="#FC805F" fill-opacity="0.33"/>
<path d="M14.7305 79.6778C20.3927 78.0156 26.2477 76.3013 31.3013 71.2551C36.3549 66.2089 38.0692 60.3464 39.724 54.6843C41.2082 49.6901 42.5736 44.9704 46.2767 41.2154C49.9797 37.4605 54.7513 36.1247 59.7456 34.6628C65.4077 33.0005 71.2627 31.2863 76.3163 26.2327L76.4054 26.1362L76.5019 26.0546C81.5481 21.001 83.2623 15.1459 84.9246 9.47633C85.9041 6.14436 86.8466 2.93115 88.4717 0.0444336L85.0136 0.0444334C83.7253 2.87947 82.6802 5.81878 81.8894 8.83072C80.3459 14.0995 78.7504 19.539 74.3127 24.0361C69.875 28.5331 64.3688 30.0842 59.0925 31.6277C53.6827 33.2083 48.5771 34.7074 44.2508 39.0486L44.1617 39.145L44.0652 39.2341C39.7537 43.5456 38.2621 48.6512 36.6444 54.0758C35.813 57.2676 34.6877 60.3753 33.2827 63.3593C33.2206 63.4883 33.1781 63.6259 33.1566 63.7674C32.0985 65.7633 30.7506 67.5914 29.1567 69.1922C24.6448 73.704 19.1534 75.3143 13.8475 76.8653C13.1054 77.0879 12.3633 77.3031 11.6212 77.5258L12.5711 80.3382L14.7305 79.6778Z" fill="#FC805F" fill-opacity="0.33"/>
<path d="M10.2037 5.14257C12.7104 2.79824 15.7175 1.05488 18.9975 0.0444336L11.814 0.0444333C10.5081 0.881359 9.29422 1.85397 8.19266 2.94602C8.16695 2.98162 8.13703 3.01401 8.10359 3.04249L8.01455 3.13154C3.70302 7.44307 2.20401 12.5486 0.593675 17.9733L1.43869e-05 19.9917C0.185536 22.3887 0.422992 24.7708 0.682721 27.1455C1.87026 24.3736 2.86214 21.522 3.65107 18.6115C5.11298 13.5875 6.5007 8.90495 10.2037 5.14257Z" fill="#FC805F" fill-opacity="0.33"/>
<path d="M245 195H165V275H245V195Z" fill="#766DFA"/>
<path d="M198.898 195.8L179.705 224.12C177.69 227.09 176.279 230.428 175.554 233.944C174.829 237.459 174.803 241.083 175.478 244.608C176.154 248.133 177.517 251.491 179.49 254.49C181.463 257.488 184.008 260.069 186.978 262.084L206.04 275H237.734L189.967 242.636C189.844 242.554 189.739 242.449 189.658 242.326C189.576 242.203 189.52 242.065 189.492 241.921C189.465 241.776 189.466 241.627 189.496 241.483C189.527 241.338 189.585 241.202 189.669 241.08L218.331 198.782C218.413 198.66 218.518 198.556 218.64 198.475C218.762 198.394 218.899 198.338 219.043 198.311C219.187 198.283 219.335 198.284 219.479 198.314C219.622 198.343 219.759 198.401 219.88 198.484L244.956 215.473V195H199.48C199.291 195.262 199.102 195.531 198.898 195.8Z" fill="#FC805F"/>
<path d="M245 258.419V236.942L223.706 222.513L213.727 237.233L245 258.419Z" fill="#F3F1E5"/>
<path d="M80 0.00732422H0V80.0073H80V0.00732422Z" fill="#766DFA"/>
<path d="M0 62.2255V80.0073C21.2173 80.0073 41.5656 71.5788 56.5685 56.5759C71.5714 41.573 80 21.2246 80 0.00732422H62.2182C62.2182 16.5086 55.6632 32.334 43.995 44.0022C32.3269 55.6703 16.5013 62.2255 0 62.2255Z" fill="#FFC844"/>
<path d="M41.1208 17.7747V0L0.000793457 0V17.7747L41.1208 17.7747Z" fill="#FFC844"/>
</svg>
