<svg width="324" height="184" viewBox="0 0 324 184" fill="none" xmlns="http://www.w3.org/2000/svg">
<g opacity="0.1">
<path d="M163.988 162.314L162.992 162.018C160.785 161.371 158.702 160.762 157.03 159.092C155.358 157.423 154.75 155.34 154.103 153.129C153.399 150.693 152.651 148.174 150.491 146.015C148.331 143.855 145.8 143.117 143.371 142.401C141.164 141.754 139.079 141.145 137.409 139.475C135.739 137.805 135.129 135.723 134.482 133.514C133.778 131.078 133.03 128.557 130.87 126.398C128.71 124.238 126.18 123.499 123.752 122.784C121.545 122.139 119.46 121.527 117.791 119.858C116.121 118.188 115.509 116.106 114.861 113.897C114.158 111.461 113.409 108.94 111.249 106.78C109.089 104.621 106.559 103.882 104.131 103.167C101.925 102.522 99.8395 101.91 98.1697 100.241C96.4998 98.5711 95.8877 96.4888 95.2427 94.28C94.5391 91.8437 93.7887 89.3229 91.6286 87.1633C90.7819 86.3198 89.8046 85.6183 88.7345 85.0857H88.7205C88.3796 84.9138 88.0372 84.7575 87.6932 84.6168L87.6018 84.5816C87.4728 84.5277 87.3438 84.4784 87.2148 84.4292L86.938 84.326L86.7551 84.2604L86.3705 84.129L86.3306 84.115C85.7208 83.9133 85.111 83.7328 84.5083 83.5569C82.3037 82.9097 80.2187 82.3 78.5489 80.6305C76.879 78.961 76.2693 76.8787 75.6243 74.6722C75.4461 74.0672 75.2655 73.4529 75.0591 72.8362C75.0145 72.7002 74.9676 72.5642 74.9184 72.4305C74.9019 72.3766 74.8808 72.325 74.8621 72.2711C74.8269 72.1726 74.7894 72.0717 74.7519 71.9709C74.7143 71.8701 74.6604 71.7364 74.6111 71.6145C74.597 71.5746 74.5806 71.5371 74.5666 71.4972C74.4235 71.1525 74.2687 70.8125 74.0975 70.4725V70.4585C73.5637 69.39 72.8622 68.4139 72.0195 67.5672C69.8572 65.4053 67.329 64.669 64.8992 63.9538C62.6923 63.3066 60.6096 62.697 58.9398 61.0274C57.2699 59.3579 56.6578 57.2756 56.0105 55.0668C55.3069 52.6304 54.5588 50.1097 52.3988 47.9501C50.2387 45.7905 47.7081 45.0518 45.2807 44.3366C43.0738 43.6918 40.9889 43.0798 39.319 41.4102C37.6491 39.7407 37.037 37.6585 36.3921 35.4496C35.6768 33.0133 34.938 30.4926 32.778 28.3329C30.618 26.1733 28.0873 25.4347 25.66 24.7195C23.453 24.0746 21.3681 23.4626 19.6982 21.7931C18.0284 20.1235 17.4162 18.0413 16.7713 15.8324C16.056 13.3961 15.3195 10.8754 13.1571 8.71576C10.9948 6.55614 8.46657 5.81752 6.03918 5.10233C3.83225 4.45749 1.74724 3.84782 0.0773804 2.17593L0.00941467 2.10559V3.3812C1.71914 4.81391 3.69619 5.39544 5.77648 6.00276C8.10067 6.68512 10.5023 7.38857 12.4935 9.37937C14.4846 11.3702 15.1905 13.7737 15.8707 16.0974C16.5508 18.4212 17.1934 20.6183 19.0345 22.4567C20.8755 24.2951 23.0708 24.9399 25.395 25.6199C27.7192 26.2999 30.1231 27.0057 32.1142 28.9965C34.1054 30.9873 34.809 33.3885 35.4915 35.7146C36.1739 38.0407 36.8142 40.2331 38.6553 42.0738C40.4963 43.9146 42.6916 44.5571 45.0158 45.2371C47.3399 45.9171 49.7439 46.6229 51.735 48.6137C53.7262 50.6045 54.4298 53.008 55.1123 55.3317C55.7948 57.6555 56.435 59.8526 58.2761 61.691C60.1172 63.5294 62.31 64.1742 64.6365 64.8542C66.9631 65.5342 69.3647 66.2377 71.3559 68.2308C72.1648 69.045 72.8314 69.989 73.3282 71.0236L73.3541 71.0752C73.9218 72.3243 74.3823 73.6194 74.7307 74.9465C75.4132 77.2726 76.0558 79.4674 77.8969 81.3082C79.7356 83.1489 81.9332 83.7914 84.2574 84.4714C85.5817 84.8211 86.8746 85.2807 88.1224 85.8455L88.1834 85.876C89.2181 86.3727 90.1623 87.0392 90.9766 87.848C92.9678 89.8388 93.6714 92.2423 94.3539 94.566C95.0363 96.8898 95.6766 99.0869 97.5177 100.925C99.3587 102.764 101.554 103.409 103.878 104.089C106.202 104.769 108.606 105.472 110.597 107.465C112.589 109.458 113.292 111.857 113.975 114.181C114.657 116.505 115.297 118.702 117.139 120.542C118.98 122.383 121.175 123.026 123.499 123.706C125.823 124.386 128.227 125.092 130.218 127.082C132.209 129.073 132.913 131.474 133.593 133.8C134.273 136.126 134.918 138.319 136.759 140.16C138.6 142 140.793 142.641 143.12 143.323C145.446 144.005 147.848 144.706 149.839 146.697C151.83 148.688 152.534 151.091 153.214 153.415C153.894 155.739 154.539 157.936 156.38 159.777C158.221 161.618 160.414 162.258 162.743 162.94C163.158 163.062 163.58 163.175 164 163.318L163.988 162.314Z" fill="#766DFA"/>
<path d="M11.5178 163.972C11.1723 163.749 10.8153 163.545 10.4483 163.36H10.4343C10.0965 163.189 9.75174 163.032 9.40698 162.891L9.31788 162.853L8.93087 162.701L8.6518 162.6L8.46886 162.535L8.08895 162.403L8.04205 162.389C7.43227 162.187 6.82484 162.007 6.22444 161.831C4.01751 161.184 1.93485 160.574 0.264992 158.907C0.173525 158.813 0.0844309 158.722 0 158.626V159.943C1.75429 161.5 3.80407 162.101 5.96409 162.734C7.19017 163.063 8.39097 163.48 9.55711 163.981L11.5178 163.972Z" fill="#766DFA"/>
<path d="M142.662 153.842C140.5 151.68 137.972 150.941 135.542 150.229C133.335 149.581 131.25 148.972 129.58 147.302C127.91 145.633 127.3 143.55 126.653 141.342C125.95 138.905 125.201 136.384 123.041 134.225C120.881 132.065 118.351 131.327 115.923 130.611C113.717 129.967 111.631 129.355 109.962 127.685C108.292 126.015 107.68 123.933 107.032 121.724C106.329 119.288 105.581 116.767 103.421 114.608C101.261 112.448 98.73 111.709 96.3026 110.994C94.0957 110.349 92.0107 109.737 90.3409 108.068C88.671 106.398 88.0589 104.316 87.4139 102.107C86.6986 99.6709 85.9598 97.1501 83.7998 94.9905C82.953 94.147 81.9758 93.4455 80.9057 92.913V92.913H80.894C80.5547 92.741 80.2123 92.5847 79.8668 92.444L79.7706 92.4065L79.3907 92.2564L79.1045 92.1509L78.9309 92.0876L78.544 91.9563H78.5041C77.8943 91.7523 77.2846 91.5717 76.6818 91.3958C74.4772 90.751 72.3922 90.139 70.7224 88.4718C69.0525 86.8046 68.4427 84.72 67.7954 82.5088C67.5773 81.7655 67.3545 81.0081 67.0918 80.2507C67.0778 80.2061 67.0614 80.1639 67.0449 80.1194C67.0051 80.0115 66.9675 79.9036 66.9253 79.7958C66.8831 79.6879 66.8409 79.5754 66.7963 79.4652L66.74 79.3245C66.5993 78.9798 66.4422 78.6398 66.271 78.3021V78.288C65.7373 77.2188 65.0358 76.2419 64.1931 75.3945C62.0307 73.2325 59.5024 72.4962 57.0727 71.781C54.8658 71.1362 52.7832 70.5242 51.111 68.8546C49.4388 67.1851 48.8313 65.1028 48.184 62.894C47.4805 60.4577 46.7323 57.9369 44.5722 55.7773C42.4122 53.6177 39.8817 52.8791 37.4543 52.1639C35.2474 51.519 33.1624 50.907 31.4925 49.2375C29.8227 47.5679 29.2106 45.4857 28.5633 43.2768C27.8597 40.8405 27.1115 38.3198 24.9515 36.1602C22.7914 34.0005 20.2609 33.2619 17.8335 32.5467C15.6266 31.9019 13.5416 31.2922 11.8717 29.6203C10.2018 27.9484 9.58973 25.8685 8.94477 23.6597C8.22945 21.2234 7.4907 18.7026 5.33068 16.543C3.68897 14.9016 1.86194 14.0926 0.0114937 13.4806V14.4725C1.65321 15.0399 3.26211 15.802 4.66694 17.2066C6.6581 19.1974 7.36167 21.6009 8.04415 23.9246C8.72664 26.2484 9.36696 28.4455 11.208 30.2839C13.0491 32.1223 15.2443 32.7671 17.5685 33.4471C19.8926 34.1272 22.2966 34.8329 24.2877 36.8237C26.2789 38.8145 26.9825 41.218 27.665 43.5418C28.3475 45.8656 28.9877 48.0627 30.8288 49.9011C32.6699 51.7394 34.865 52.3843 37.1892 53.0643C39.5134 53.7443 41.9174 54.4501 43.9086 56.4409C45.8997 58.4317 46.6033 60.8352 47.2834 63.1589C47.9636 65.4827 48.6085 67.6798 50.4496 69.5182C52.2906 71.3566 54.4835 72.0015 56.8101 72.6815C59.1366 73.3615 61.5382 74.0673 63.5293 76.0581C64.3382 76.8723 65.005 77.8163 65.5018 78.8508L65.5275 78.9047C66.0956 80.1538 66.5562 81.4489 66.9043 82.7761C67.5867 85.0999 68.2294 87.2947 70.0704 89.1354C71.9091 90.9761 74.1067 91.6186 76.4309 92.2986C77.7561 92.6487 79.0498 93.1091 80.2983 93.6751L80.3569 93.7032C81.3916 94.1999 82.3358 94.8665 83.1502 95.6752C85.1413 97.666 85.8449 100.07 86.5274 102.393C87.2099 104.717 87.8501 106.914 89.6912 108.753C91.5323 110.591 93.7274 111.236 96.0516 111.916C98.3758 112.596 100.78 113.302 102.771 115.292C104.762 117.283 105.466 119.687 106.148 122.008C106.831 124.33 107.471 126.529 109.312 128.37C111.153 130.21 113.348 130.853 115.672 131.533C117.997 132.213 120.401 132.919 122.392 134.91C124.383 136.9 125.087 139.301 125.767 141.628C126.447 143.954 127.092 146.148 128.933 147.987C130.774 149.825 132.967 150.47 135.293 151.15C137.62 151.83 140.021 152.534 142.013 154.527C144.004 156.52 144.707 158.919 145.387 161.242C145.664 162.18 145.936 163.118 146.281 163.993H147.296C146.903 163.008 146.567 162.001 146.288 160.977C145.561 158.513 144.822 156.002 142.662 153.842Z" fill="#766DFA"/>
<path d="M110.996 156.996C110.292 154.56 109.544 152.039 107.384 149.879C105.224 147.72 102.694 146.981 100.264 146.266C98.0592 145.621 95.9742 145.011 94.302 143.339C92.6298 141.668 92.0223 139.588 91.375 137.379C90.6714 134.942 89.9233 132.422 87.7633 130.262C85.6033 128.102 83.0727 127.364 80.6429 126.651C78.436 126.004 76.3534 125.394 74.6812 123.722C73.009 122.05 72.4016 119.97 71.7543 117.762C71.0507 115.325 70.3025 112.807 68.1425 110.645C67.2916 109.802 66.3114 109.101 65.239 108.567V108.567H65.2273C64.8872 108.396 64.5448 108.241 64.2 108.098L64.1062 108.063C63.9796 108.009 63.8506 107.96 63.7216 107.911L63.4425 107.808L63.2619 107.742L62.8773 107.611H62.8374C62.2276 107.407 61.6178 107.226 61.0151 107.05C58.8082 106.405 56.7256 105.793 55.0557 104.126C53.3859 102.459 52.7761 100.374 52.1288 98.1655C51.9107 97.4222 51.6879 96.6648 51.4252 95.9098L51.3759 95.7667C51.3384 95.6636 51.3008 95.558 51.261 95.4525L51.1273 95.1125C51.1086 95.0703 51.0922 95.0234 51.0734 94.9789C50.9327 94.6365 50.7755 94.2942 50.6043 93.9565V93.9424C50.07 92.8736 49.3685 91.8968 48.5264 91.0489C46.364 88.8869 43.8357 88.1506 41.406 87.4354C39.1991 86.7906 37.1141 86.1786 35.4443 84.509C33.7744 82.8395 33.1646 80.7572 32.5173 78.5484C31.8137 76.1121 31.0656 73.5937 28.9056 71.4317C26.7456 69.2697 24.215 68.5334 21.7876 67.8206C19.5806 67.1734 17.4957 66.5638 15.8235 64.8919C14.1513 63.22 13.5439 61.1401 12.8965 58.9312C12.193 56.4949 11.4448 53.9765 9.28475 51.8145C7.12472 49.6526 4.59417 48.9163 2.16444 48.2035C1.42567 47.9854 0.703325 47.772 0.00207901 47.5234V48.5177C0.621239 48.7264 1.25678 48.914 1.90174 49.1015C4.22593 49.7839 6.6299 50.4874 8.62107 52.4781C10.6122 54.4689 11.3158 56.8724 11.9959 59.1962C12.6761 61.52 13.321 63.7171 15.1621 65.5555C17.0032 67.3938 19.1984 68.0387 21.5226 68.7187C23.8468 69.3987 26.2507 70.1045 28.2418 72.0953C30.233 74.0861 30.9366 76.4896 31.6167 78.8133C32.2969 81.1371 32.9418 83.3342 34.7829 85.1726C36.6239 87.011 38.8168 87.6558 41.1434 88.3358C43.4699 89.0159 45.8691 89.7217 47.8626 91.7125C48.6709 92.5281 49.3375 93.4727 49.8351 94.5075C49.8438 94.5235 49.8516 94.5399 49.8585 94.5568C50.4263 95.8069 50.8877 97.1028 51.2376 98.4305C51.92 100.754 52.5626 102.951 54.4014 104.79C56.2401 106.631 58.4376 107.273 60.7618 107.953C62.0862 108.304 63.379 108.764 64.6268 109.329L64.6878 109.358C65.7221 109.855 66.6662 110.522 67.4811 111.33C69.4723 113.32 70.1759 115.724 70.8583 118.048C71.5408 120.371 72.1811 122.569 74.0221 124.407C75.8632 126.245 78.0584 126.89 80.3826 127.57C82.7068 128.25 85.1107 128.956 87.1019 130.947C89.0931 132.938 89.7967 135.341 90.4768 137.665C91.157 139.989 91.8019 142.186 93.643 144.024C95.484 145.862 97.6792 146.507 100.003 147.187C102.328 147.867 104.732 148.573 106.723 150.564C108.714 152.555 109.417 154.958 110.098 157.282C110.778 159.606 111.423 161.803 113.261 163.641C113.387 163.763 113.511 163.88 113.634 163.993H115.17C114.723 163.697 114.306 163.357 113.925 162.978C112.253 161.287 111.643 159.202 110.996 156.996Z" fill="#766DFA"/>
<path d="M92.4449 154.093C90.238 153.448 88.1554 152.839 86.4832 151.167C84.811 149.495 84.2036 147.415 83.5563 145.206C82.8527 142.77 82.1045 140.251 79.9445 138.089C77.7844 135.927 75.2539 135.191 72.8241 134.478C70.6172 133.831 68.5345 133.221 66.8623 131.549C65.1901 129.878 64.5827 127.798 63.9354 125.589C63.2318 123.153 62.4837 120.634 60.3237 118.472C59.4756 117.63 58.4986 116.929 57.4295 116.395C57.0895 116.223 56.7471 116.069 56.4023 115.926L56.3038 115.888L55.9262 115.738L55.6401 115.633L55.4666 115.572L55.0772 115.438H55.042C54.4299 115.234 53.8201 115.056 53.2174 114.877C51.0128 114.233 48.9279 113.623 47.258 111.953C45.5881 110.284 44.9784 108.202 44.3311 105.99C44.1528 105.385 43.9722 104.771 43.7682 104.157L43.6275 103.746C43.6087 103.697 43.5923 103.646 43.5735 103.596L43.4609 103.289C43.4163 103.172 43.3695 103.055 43.3249 102.942C43.3062 102.9 43.2897 102.858 43.2733 102.815C43.1326 102.47 42.9763 102.129 42.8043 101.793V101.779C42.2709 100.71 41.5693 99.7341 40.7263 98.8878C38.5663 96.7282 36.0357 95.9896 33.6083 95.2744C31.4014 94.6295 29.3164 94.0175 27.6465 92.348C25.9767 90.6784 25.3669 88.5962 24.7196 86.3873C24.016 83.951 23.2679 81.4326 21.1079 79.2707C18.9478 77.1087 16.4172 76.3724 13.9875 75.6596C11.7806 75.0124 9.69797 74.4027 8.02577 72.7308C6.35356 71.0589 5.74614 68.979 5.09883 66.7702C4.39524 64.3339 3.64706 61.8155 1.48703 59.6535C1.0385 59.2065 0.551987 58.7993 0.0329552 58.4365V59.609C0.30919 59.8287 0.573077 60.0635 0.82335 60.3124C2.81451 62.3032 3.51808 64.7067 4.19822 67.0305C4.87835 69.3542 5.52331 71.5514 7.36437 73.3897C9.20544 75.2281 11.4007 75.8729 13.7249 76.553C16.0491 77.233 18.453 77.9388 20.4441 79.9296C22.4353 81.9204 23.1389 84.3239 23.819 86.6476C24.4991 88.9714 25.1441 91.1685 26.9828 93.0069C28.8215 94.8453 31.0191 95.4901 33.3456 96.1701C35.6722 96.8501 38.0738 97.5559 40.0649 99.5467C40.8734 100.362 41.54 101.307 42.0374 102.342L42.0608 102.389C42.6286 103.64 43.09 104.936 43.4398 106.265C44.1223 108.589 44.7649 110.786 46.6036 112.624C48.4424 114.465 50.6399 115.107 52.9641 115.79C54.2908 116.138 55.5854 116.598 56.8338 117.166L56.8878 117.192C57.9229 117.689 58.8678 118.356 59.6834 119.164C61.6746 121.155 62.3781 123.558 63.0606 125.882C63.7431 128.206 64.3834 130.403 66.2244 132.241C68.0655 134.08 70.2607 134.724 72.5849 135.404C74.9091 136.084 77.313 136.79 79.3042 138.781C81.2954 140.772 81.999 143.175 82.6791 145.499C83.3593 147.823 84.0042 150.02 85.8429 151.858C87.6816 153.697 89.8815 154.342 92.2057 155.022C94.5299 155.702 96.9338 156.407 98.925 158.398C100.6 160.072 101.362 162.035 101.974 164H102.957C102.302 161.833 101.505 159.646 99.5958 157.735C97.3935 155.547 94.8747 154.808 92.4449 154.093Z" fill="#766DFA"/>
<path d="M78.645 158.994C76.9752 157.324 76.3654 155.242 75.7181 153.033C75.0145 150.597 74.2664 148.078 72.1064 145.916C69.9463 143.754 67.4157 143.018 64.986 142.305C62.7791 141.658 60.6964 141.048 59.0242 139.379C57.352 137.709 56.7446 135.627 56.0973 133.418C55.3937 130.98 54.6456 128.461 52.4856 126.299C51.6375 125.457 50.6605 124.756 49.5914 124.222H49.5774C49.2396 124.05 48.8973 123.896 48.5525 123.753L48.4516 123.713L48.0764 123.565L47.7903 123.46L47.6167 123.399L47.2274 123.265H47.1922C46.5801 123.061 45.9703 122.883 45.3676 122.704C43.1606 122.06 41.0757 121.45 39.4058 119.78C37.736 118.111 37.1285 116.029 36.4812 113.822C36.3053 113.215 36.1224 112.598 35.916 111.981C35.8714 111.845 35.8222 111.707 35.7753 111.569L35.7213 111.421L35.6087 111.111C35.5642 110.997 35.5196 110.877 35.4727 110.769C35.4563 110.725 35.4399 110.682 35.4211 110.638C35.2804 110.292 35.1241 109.952 34.9521 109.615V109.601C34.4194 108.531 33.7178 107.554 32.8741 106.708C30.7141 104.548 28.1835 103.81 25.7561 103.094C23.5492 102.45 21.4642 101.838 19.7944 100.168C18.1245 98.4984 17.5147 96.4162 16.8674 94.2073C16.1638 91.771 15.4157 89.2526 13.2557 87.0907C11.0957 84.9287 8.56505 84.1924 6.13532 83.4796C3.92839 82.8324 1.84578 82.2227 0.173574 80.5532L0.00941467 80.3773V81.674C1.74259 83.1654 3.7619 83.7586 5.87267 84.38C8.19687 85.06 10.6008 85.7635 12.5919 87.7543C14.5831 89.7451 15.2867 92.1485 15.9668 94.4723C16.6469 96.7961 17.2919 98.9932 19.1306 100.832C20.9693 102.67 23.1669 103.315 25.4935 103.995C27.82 104.675 30.2192 105.381 32.2127 107.371C33.0205 108.187 33.687 109.132 34.1852 110.167C34.1852 110.183 34.2015 110.202 34.2109 110.218C34.7776 111.468 35.2382 112.763 35.5876 114.089C36.2678 116.413 36.9127 118.61 38.7515 120.449C40.5902 122.287 42.7877 122.93 45.1119 123.612C46.4386 123.96 47.7332 124.42 48.9816 124.988L49.0356 125.014C50.0707 125.511 51.0156 126.178 51.8312 126.986C53.8224 128.977 54.5259 131.38 55.2061 133.704C55.8862 136.028 56.5312 138.225 58.3699 140.064C60.2086 141.902 62.4062 142.547 64.7327 143.229C67.0593 143.911 69.4608 144.613 71.452 146.603C73.4432 148.594 74.1467 150.998 74.8269 153.321C75.507 155.645 76.152 157.842 77.9907 159.681C79.8295 161.519 82.027 162.164 84.3535 162.844C85.5027 163.155 86.6308 163.54 87.7307 163.995H89.7595C88.1177 162.971 86.3424 162.45 84.6162 161.946C82.3999 161.275 80.3172 160.666 78.645 158.994Z" fill="#766DFA"/>
<path d="M127.713 158.056C125.507 157.411 123.422 156.799 121.752 155.129C120.082 153.46 119.472 151.378 118.825 149.169C118.121 146.732 117.373 144.212 115.213 142.052C113.053 139.892 110.522 139.154 108.095 138.439C105.888 137.794 103.803 137.182 102.131 135.512C100.459 133.843 99.8513 131.76 99.204 129.552C98.5004 127.115 97.7522 124.595 95.5922 122.435C93.4322 120.275 90.9016 119.537 88.4719 118.822C86.2673 118.177 84.1823 117.567 82.5101 115.895C80.8379 114.223 80.2305 112.143 79.5832 109.934C78.8796 107.498 78.1314 104.977 75.9714 102.818C75.1246 101.974 74.1474 101.273 73.0773 100.74V100.74H73.0656C72.7255 100.569 72.3831 100.414 72.0383 100.271L71.9422 100.234L71.5622 100.084L71.2785 99.9805C71.2198 99.9594 71.1612 99.9359 71.1002 99.9172C70.972 99.8703 70.843 99.8257 70.7133 99.7835H70.6757C70.0659 99.5795 69.4561 99.399 68.8534 99.2231C66.6488 98.5783 64.5639 97.9663 62.894 96.2991C61.2241 94.6319 60.6144 92.5473 59.9671 90.3384C59.7912 89.7334 59.6083 89.1167 59.4042 88.5024C59.3597 88.3664 59.3127 88.228 59.2635 88.092C59.2447 88.0404 59.2283 87.9912 59.2095 87.9419L59.097 87.6348C59.0524 87.5175 59.0055 87.4003 58.9609 87.2877C58.9422 87.2455 58.9281 87.2033 58.9093 87.1611C58.7686 86.8188 58.6138 86.4764 58.4403 86.1387V86.1223C57.9065 85.0538 57.2049 84.0777 56.3623 83.2311C54.1999 81.0691 51.6717 80.3329 49.242 79.6177C47.0351 78.9728 44.9501 78.3608 43.2803 76.6913C41.6104 75.0217 41.0006 72.9395 40.3533 70.7306C39.6497 68.2943 38.9015 65.7736 36.7415 63.614C34.5815 61.4543 32.0509 60.7157 29.6235 60.0005C27.4166 59.3557 25.3316 58.746 23.6618 57.0741C21.9919 55.4022 21.3798 53.3223 20.7325 51.1135C20.0289 48.6771 19.2808 46.1564 17.1207 43.9968C14.9607 41.8372 12.4301 41.0985 10.0027 40.3857C7.79579 39.7385 5.71083 39.1289 4.04098 37.457C2.37112 35.7851 1.759 33.7052 1.11404 31.4963C0.808064 30.3821 0.439271 29.2861 0.00941467 28.2135V31.0789L0.213426 31.7683C0.893564 34.0921 1.53617 36.2892 3.37724 38.1276C5.2183 39.966 7.41353 40.6108 9.73773 41.2908C12.0619 41.9708 14.4658 42.6766 16.457 44.6674C18.4482 46.6582 19.1517 49.0617 19.8342 51.3855C20.5167 53.7092 21.157 55.9064 22.998 57.7448C24.8391 59.5831 27.0109 60.1881 29.3562 60.8681C31.7015 61.5481 34.0843 62.2539 36.0754 64.2447C38.0666 66.2355 38.7702 68.639 39.4504 70.9628C40.1305 73.2865 40.7755 75.4837 42.6165 77.322C44.4576 79.1604 46.6504 79.8053 48.9769 80.4853C51.3035 81.1653 53.7051 81.8711 55.6963 83.8619C56.5047 84.6774 57.1713 85.622 57.6687 86.657C57.6774 86.6729 57.6853 86.6894 57.6921 86.7062C58.261 87.956 58.7223 89.2519 59.0711 90.5799C59.7536 92.9037 60.3962 95.0985 62.235 96.9392C64.0737 98.7799 66.2712 99.4224 68.5954 100.102C69.9198 100.453 71.2127 100.913 72.4605 101.479L72.5215 101.507C73.5558 102.004 74.4998 102.671 75.3147 103.479C77.3059 105.47 78.0095 107.873 78.692 110.197C79.3745 112.521 80.0147 114.718 81.8558 116.556C83.6969 118.395 85.892 119.04 88.2162 119.72C90.5404 120.4 92.9444 121.105 94.9356 123.096C96.9267 125.087 97.6303 127.49 98.3104 129.814C98.9906 132.138 99.6355 134.333 101.477 136.174C103.318 138.014 105.513 138.657 107.837 139.337C110.161 140.017 112.565 140.723 114.556 142.713C116.548 144.704 117.251 147.105 117.931 149.431C118.611 151.758 119.256 153.952 121.097 155.791C122.938 157.629 125.131 158.274 127.458 158.954C129.784 159.634 132.186 160.337 134.177 162.331C134.674 162.829 135.117 163.379 135.498 163.972H136.597C136.116 163.13 135.526 162.356 134.841 161.669C132.671 159.507 130.153 158.771 127.713 158.056Z" fill="#766DFA"/>
<path d="M49.3288 157.96C47.1219 157.312 45.0369 156.703 43.3671 155.033C41.6972 153.364 41.0874 151.281 40.4401 149.07C39.7365 146.634 38.9884 144.116 36.8284 141.954C35.9803 141.112 35.0033 140.41 33.9343 139.876V139.876H33.9225C33.5825 139.702 33.2401 139.548 32.8953 139.407L32.7968 139.37L32.4192 139.219L32.1331 139.116L31.9572 139.053L31.5702 138.919L31.535 138.908C30.9229 138.706 30.3131 138.525 29.7104 138.347C27.5034 137.702 25.4208 137.093 23.751 135.423C22.0811 133.754 21.4714 131.671 20.8241 129.465C20.6482 128.857 20.4652 128.243 20.2611 127.629C20.2166 127.493 20.1697 127.357 20.1228 127.221L20.0665 127.066C20.0313 126.965 19.9938 126.864 19.9562 126.764C19.9187 126.663 19.8648 126.529 19.8156 126.407L19.7687 126.288C19.6279 125.945 19.4708 125.603 19.2996 125.265V125.251C18.767 124.181 18.0653 123.204 17.2216 122.358C15.0616 120.198 12.531 119.459 10.1036 118.746C7.89669 118.099 5.81174 117.49 4.14188 115.82C2.47203 114.15 1.86225 112.068 1.21495 109.857C0.891202 108.66 0.490067 107.485 0.0141258 106.34V109.109C0.117319 109.447 0.215829 109.784 0.314331 110.12C0.996815 112.446 1.63943 114.641 3.47814 116.479C5.31686 118.317 7.51444 118.962 9.84098 119.644C12.1675 120.327 14.5667 121.028 16.5579 123.019C17.3672 123.834 18.0346 124.779 18.5327 125.814L18.5561 125.863C19.1236 127.113 19.5849 128.409 19.9352 129.737C20.6153 132.061 21.2603 134.258 23.099 136.096C24.94 137.934 27.1352 138.577 29.4618 139.259C30.7865 139.608 32.0794 140.068 33.3268 140.633L33.3878 140.664C34.4216 141.161 35.3656 141.827 36.1811 142.634C38.1723 144.624 38.8758 147.028 39.556 149.352C40.2361 151.675 40.881 153.873 42.7198 155.713C44.5585 157.554 46.7561 158.194 49.0826 158.876C51.4091 159.559 53.8084 160.26 55.8019 162.251C56.3252 162.776 56.7878 163.359 57.1809 163.988H58.2785C57.7866 163.108 57.1758 162.3 56.4633 161.587C54.2868 159.411 51.7656 158.672 49.3288 157.96Z" fill="#766DFA"/>
<path d="M32.6114 156.9C31.9078 154.463 31.1597 151.943 28.9997 149.783C28.1523 148.94 27.1752 148.237 26.1056 147.703H26.0915C25.7538 147.53 25.409 147.375 25.0642 147.234L24.9705 147.199L24.5881 147.047L24.3044 146.943L24.1285 146.88L23.7439 146.749L23.7016 146.735C23.0918 146.531 22.4821 146.353 21.8817 146.177C19.6747 145.529 17.5898 144.92 15.9199 143.25C14.2501 141.581 13.6426 139.498 12.9953 137.292C12.8171 136.685 12.6365 136.068 12.4301 135.451C12.3832 135.313 12.3363 135.175 12.287 135.036L12.2355 134.888C12.1979 134.785 12.1604 134.682 12.1205 134.579C12.0807 134.476 12.0337 134.344 11.9868 134.237C11.9704 134.194 11.9517 134.15 11.9352 134.105C11.7945 133.763 11.6374 133.421 11.4662 133.083V133.069C10.9335 131.999 10.2319 131.022 9.38828 130.175C7.22826 128.016 4.69765 127.277 2.27026 126.564C1.49631 126.33 0.738804 126.114 0.00941467 125.849V126.846C0.661409 127.068 1.32742 127.265 2.00756 127.465C4.33176 128.145 6.73338 128.848 8.72454 130.839C9.53382 131.654 10.2012 132.599 10.6993 133.634L10.7251 133.688C11.2911 134.937 11.7516 136.231 12.1018 137.557C12.7819 139.881 13.4245 142.078 15.2656 143.916C17.1066 145.755 19.3019 146.397 21.6284 147.079C22.9542 147.428 24.248 147.888 25.4958 148.456L25.5521 148.482C26.5868 148.98 27.5315 149.646 28.3477 150.454C30.3388 152.447 31.0425 154.848 31.7226 157.172C32.4027 159.495 33.0477 161.693 34.8864 163.533C35.0459 163.693 35.21 163.838 35.3742 163.981H36.9432C36.4399 163.662 35.9727 163.29 35.5501 162.87C33.8685 161.191 33.2587 159.106 32.6114 156.9Z" fill="#766DFA"/>
<path d="M21.1688 157.61C20.3227 156.766 19.3463 156.064 18.277 155.53H18.2629C17.9229 155.357 17.5805 155.202 17.2357 155.061L17.1466 155.026L16.7596 154.874L16.4805 154.773L16.2976 154.707L15.9176 154.576L15.8707 154.562C15.261 154.358 14.6535 154.18 14.0531 154.004C11.8462 153.357 9.76125 152.747 8.09139 151.077C6.42154 149.408 5.81411 147.326 5.16681 145.114C4.94869 144.373 4.72589 143.616 4.46322 142.863L4.41157 142.716C4.37404 142.612 4.33652 142.509 4.29665 142.406C4.25678 142.303 4.20757 142.172 4.16066 142.061L4.11142 141.932C3.96836 141.588 3.81357 141.248 3.64236 140.91V140.896C3.10971 139.826 2.40804 138.849 1.5644 138.002C1.08888 137.527 0.569837 137.098 0.0141258 136.72V137.892C0.324622 138.136 0.62064 138.397 0.900657 138.675C1.7091 139.491 2.37576 140.436 2.87309 141.471L2.90121 141.524C3.46102 142.77 3.91603 144.06 4.26149 145.382C4.94163 147.708 5.58659 149.903 7.4253 151.743C9.26637 153.582 11.4616 154.224 13.7881 154.907C15.1128 155.255 16.4058 155.715 17.6532 156.281L17.7118 156.309C18.7465 156.807 19.6912 157.473 20.5074 158.281C22.2078 159.983 22.97 161.983 23.5798 163.981H24.5601C23.9011 161.775 23.1084 159.547 21.1688 157.61Z" fill="#766DFA"/>
<path d="M64.2778 153.744C62.1154 151.584 59.5872 150.845 57.1575 150.133C54.9505 149.485 52.8656 148.876 51.1957 147.206C49.5259 145.537 48.916 143.454 48.2687 141.246C47.5651 138.807 46.817 136.288 44.657 134.126C43.8089 133.284 42.8319 132.583 41.7629 132.049V132.049H41.7512C41.4111 131.875 41.0663 131.721 40.7216 131.58L40.6372 131.547C40.5082 131.493 40.3768 131.442 40.2455 131.392L39.9687 131.292L39.7834 131.224L39.4035 131.095L39.3566 131.078C38.7491 130.877 38.1394 130.696 37.539 130.52C35.332 129.875 33.2494 129.266 31.5772 127.596C29.905 125.926 29.2999 123.844 28.6526 121.633C28.4345 120.89 28.2117 120.135 27.9491 119.38C27.9326 119.333 27.9162 119.283 27.8975 119.237C27.8599 119.131 27.8224 119.028 27.7825 118.925C27.7427 118.822 27.6934 118.69 27.6488 118.58L27.5973 118.451C27.4542 118.106 27.2994 117.766 27.1282 117.426C26.5955 116.356 25.8939 115.379 25.0502 114.533C22.8902 112.373 20.3597 111.635 17.9323 110.922C15.7253 110.275 13.6404 109.665 11.9705 107.993C10.3007 106.321 9.69085 104.241 9.04354 102.032C8.33995 99.596 7.59182 97.0776 5.42945 94.9156C3.77132 93.2555 1.8974 92.4371 0.0141258 91.8228V92.8123C1.68867 93.3821 3.33508 94.1465 4.76806 95.5792C6.75922 97.57 7.46284 99.9735 8.14298 102.297C8.82312 104.621 9.46808 106.818 11.3068 108.657C13.1455 110.495 15.343 111.14 17.6696 111.822C19.9961 112.504 22.3954 113.206 24.3889 115.196C25.1966 116.012 25.8632 116.957 26.3613 117.991L26.3848 118.041C26.9522 119.291 27.4135 120.587 27.7638 121.914C28.4439 124.238 29.0889 126.435 30.9276 128.274C32.7686 130.112 34.9662 130.755 37.2904 131.437C38.6151 131.786 39.908 132.245 41.1555 132.811L41.2164 132.839C42.2504 133.337 43.1943 134.004 44.0097 134.811C46.0008 136.802 46.7045 139.205 47.3846 141.529C48.0647 143.853 48.7097 146.05 50.5484 147.889C52.3871 149.727 54.5847 150.372 56.9112 151.054C59.2377 151.736 61.6393 152.438 63.6305 154.428C65.6216 156.419 66.3253 158.823 67.0054 161.146C67.2915 162.124 67.573 163.079 67.9435 163.993H68.9614C68.5478 162.978 68.1968 161.939 67.9106 160.881C67.1766 158.424 66.4378 155.906 64.2778 153.744Z" fill="#766DFA"/>
<path d="M154.152 0C154.631 1.11768 155.315 2.13572 156.169 3.00143V3.00143C158.008 4.8398 160.205 5.4823 162.53 6.16466C163.013 6.30535 163.498 6.44838 163.984 6.60315V5.62768C163.583 5.5034 163.184 5.39319 162.79 5.26892C160.583 4.62408 158.5 4.01441 156.831 2.34487C156.156 1.66092 155.601 0.868218 155.189 0H154.152Z" fill="#766DFA"/>
<path d="M69.9555 10.7418C71.7966 12.5802 73.9917 13.225 76.3183 13.905C78.6448 14.585 81.044 15.2885 83.0352 17.2793C85.0264 19.2701 85.7323 21.6736 86.4125 23.9997C87.0926 26.3258 87.7376 28.5182 89.5763 30.3589C91.415 32.1997 93.6172 32.8398 95.9391 33.5316C98.2609 34.2233 100.665 34.915 102.656 36.9058C103.464 37.7213 104.131 38.666 104.628 39.7009C104.638 39.7182 104.647 39.7362 104.654 39.7548C105.222 41.0034 105.683 42.2977 106.033 43.6239C106.713 45.95 107.356 48.1448 109.197 49.9855C111.038 51.8239 113.233 52.4687 115.56 53.1487C116.885 53.4971 118.178 53.9576 119.425 54.5252C119.445 54.5331 119.465 54.5425 119.484 54.5533C120.518 55.05 121.462 55.7166 122.277 56.5253C124.27 58.5161 124.974 60.9173 125.654 63.241C126.334 65.5648 126.979 67.7619 128.818 69.6027C130.657 71.4434 132.854 72.0859 135.178 72.7659C137.503 73.4459 139.906 74.1494 141.898 76.1401C143.889 78.1309 144.595 80.5344 145.275 82.8582C145.955 85.1819 146.6 87.3791 148.439 89.2198C150.277 91.0605 152.484 91.6843 154.804 92.3877C157.123 93.0912 159.53 93.7712 161.521 95.762C162.612 96.8813 163.452 98.2192 163.988 99.6873V97.4808C163.499 96.6079 162.892 95.8064 162.185 95.0984C160.024 92.9388 157.494 92.2001 155.067 91.4873C152.86 90.8401 150.775 90.2304 149.105 88.5609C147.435 86.8914 146.823 84.8091 146.178 82.6002C145.463 80.1639 144.726 77.6432 142.564 75.4836C140.401 73.3239 137.873 72.583 135.446 71.8701C133.239 71.223 131.154 70.6133 129.484 68.9437C127.814 67.2742 127.202 65.1919 126.557 62.9831C125.853 60.5468 125.105 58.026 122.943 55.8664C122.097 55.0225 121.121 54.3209 120.051 53.7889H120.037C119.696 53.6185 119.354 53.4621 119.01 53.3199L118.921 53.2871C118.792 53.2323 118.663 53.1808 118.534 53.1323L118.255 53.0315L118.072 52.9658L117.689 52.8345L117.645 52.8204C117.035 52.6164 116.428 52.4382 115.827 52.2624C113.62 51.6152 111.535 51.0055 109.865 49.336C108.196 47.6664 107.586 45.5842 106.939 43.373C106.723 42.632 106.5 41.8746 106.235 41.1219L106.183 40.9742C106.146 40.871 106.108 40.7678 106.068 40.6646C106.029 40.5615 105.979 40.4302 105.932 40.3176L105.883 40.191C105.74 39.8486 105.585 39.5063 105.414 39.1686V39.1545C104.881 38.0847 104.18 37.1076 103.336 36.261C101.176 34.1014 98.6456 33.3627 96.2182 32.6499C94.0113 32.0027 91.9262 31.393 90.2564 29.7235C88.5865 28.0539 87.9744 25.9717 87.3295 23.7628C86.6259 21.3265 85.8777 18.8058 83.7154 16.6462C81.553 14.4865 79.0247 13.7456 76.5973 13.0327C74.3904 12.3855 72.3055 11.7759 70.6356 10.1063C68.9657 8.43678 68.3536 6.35455 67.7087 4.14568C67.3384 2.73567 66.8447 1.36098 66.2335 0.0374756H65.171C65.9379 1.4444 66.3789 2.94276 66.8127 4.4083C67.4718 6.70627 68.1168 8.91045 69.9555 10.7418Z" fill="#766DFA"/>
<path d="M55.586 5.49172C57.5772 7.48252 58.2831 9.88366 58.9632 12.2074C59.6434 14.5312 60.2883 16.7283 62.1271 18.569C63.9658 20.4098 66.1634 21.0523 68.4899 21.7323C69.0692 21.9034 69.6625 22.0746 70.2395 22.2669C71.9891 22.8461 73.7129 23.6152 75.2068 25.1089C76.8251 26.7245 77.5943 28.6145 78.19 30.5021C78.3284 30.9406 78.455 31.379 78.584 31.8152C79.2642 34.139 79.9091 36.3338 81.7478 38.1745C83.5866 40.0152 85.7818 40.6553 88.1083 41.3377C90.4349 42.0201 92.8364 42.7212 94.8276 44.712C95.636 45.528 96.3034 46.4725 96.8024 47.507C96.8092 47.5247 96.817 47.5419 96.8258 47.5586C97.3936 48.808 97.855 50.1031 98.2049 51.43C98.885 53.7561 99.5276 55.9509 101.369 57.7916C103.21 59.63 105.405 60.2748 107.731 60.9549C109.055 61.3039 110.347 61.7635 111.594 62.3289L111.657 62.3594C112.691 62.8567 113.635 63.5233 114.448 64.3315C116.44 66.3223 117.146 68.7234 117.826 71.0495C118.506 73.3756 119.151 75.5704 120.989 77.4088C122.828 79.2472 125.026 79.892 127.35 80.572C129.674 81.252 132.078 81.9555 134.069 83.9486C136.06 85.9418 136.766 88.3406 137.446 90.6643C138.127 92.9881 138.769 95.1852 140.61 97.026C142.451 98.8667 144.647 99.5068 146.971 100.189C149.295 100.872 151.699 101.573 153.69 103.563C155.681 105.554 156.385 107.958 157.067 110.281C157.75 112.605 158.39 114.802 160.231 116.643C161.299 117.681 162.579 118.474 163.984 118.969V117.959C162.83 117.514 161.779 116.841 160.892 115.979C159.223 114.31 158.61 112.228 157.963 110.019C157.26 107.58 156.511 105.062 154.351 102.902C152.191 100.743 149.661 100.002 147.233 99.2887C145.027 98.6416 142.941 98.0319 141.272 96.3623C139.602 94.6928 138.99 92.6106 138.345 90.4017C137.629 87.9654 136.891 85.4446 134.731 83.285C132.571 81.1254 130.04 80.3844 127.613 79.6716C125.406 79.0267 123.321 78.4147 121.651 76.7452C119.981 75.0756 119.369 72.9934 118.724 70.7845C118.009 68.3482 117.272 65.8275 115.11 63.6679C114.263 62.8239 113.286 62.1223 112.216 61.5903V61.5903C111.876 61.4191 111.531 61.262 111.186 61.1213L111.095 61.0838C110.968 61.0322 110.839 60.9806 110.71 60.9337C110.581 60.8869 110.522 60.8634 110.429 60.8306L110.248 60.7649L109.863 60.6336L109.826 60.6195C109.214 60.4179 108.604 60.2373 108.001 60.0615C105.797 59.4143 103.714 58.8046 102.044 57.1374C100.374 55.4702 99.7621 53.3856 99.1172 51.1768C98.9389 50.5718 98.7584 49.9574 98.552 49.3407C98.5074 49.2047 98.4605 49.0687 98.4136 48.9327L98.3573 48.778C98.3198 48.6771 98.2846 48.5763 98.2447 48.4755C98.2049 48.3746 98.1532 48.241 98.1063 48.1214L98.0594 48.0018C97.9164 47.6571 97.7616 47.3171 97.5904 46.9771V46.963C97.0574 45.8941 96.3558 44.9178 95.5125 44.0718C93.3524 41.9099 90.8218 41.1712 88.3921 40.4584C86.1852 39.8112 84.1026 39.2015 82.4327 37.532C80.7629 35.8624 80.1507 33.7802 79.5058 31.5713C79.3275 30.9617 79.1469 30.3473 78.9429 29.7353C78.3331 27.8969 77.5122 26.075 75.894 24.4547C74.4094 22.968 72.7537 22.1543 71.0721 21.5611C70.3075 21.2891 69.5382 21.064 68.776 20.8412C66.5691 20.1964 64.4841 19.5844 62.8142 17.9148C61.1444 16.2453 60.5322 14.163 59.8873 11.9542C59.1837 9.51785 58.4356 6.99713 56.2732 4.8375C54.1108 2.67788 51.5826 1.93925 49.1552 1.22406C47.9735 0.911918 46.8178 0.508962 45.6982 0.0187988H43.8032C45.3511 1.08571 47.0866 1.59455 48.8902 2.12918C51.1909 2.79512 53.5949 3.49859 55.586 5.49172Z" fill="#766DFA"/>
<path d="M84.147 6.07789C86.4712 6.7579 88.8728 7.46135 90.864 9.45215C92.8551 11.4429 93.561 13.8464 94.2412 16.1702C94.9213 18.494 95.5663 20.6911 97.405 22.5318C99.2437 24.3725 101.441 25.0127 103.768 25.695C106.094 26.3774 108.494 27.0785 110.485 29.0693C111.293 29.8853 111.961 30.8298 112.46 31.8644L112.483 31.916C113.05 33.1655 113.512 34.4605 113.862 35.7873C114.542 38.1135 115.185 40.3083 117.026 42.149C118.867 43.9873 121.062 44.6322 123.389 45.3122C124.714 45.6606 126.008 46.121 127.256 46.6886L127.312 46.7144C128.348 47.2124 129.292 47.8797 130.108 48.6888C132.099 50.6796 132.803 53.0807 133.483 55.4045C134.163 57.7283 134.808 59.9254 136.647 61.7661C138.485 63.6068 140.683 64.247 143.009 64.9294C145.336 65.6117 147.735 66.3128 149.726 68.3036C151.718 70.2944 152.423 72.6979 153.104 75.0217C153.784 77.3454 154.429 79.5426 156.267 81.3833C158.106 83.224 160.304 83.8642 162.63 84.5465C163.081 84.6778 163.533 84.8115 163.986 84.9545V83.972C163.62 83.8595 163.256 83.7508 162.893 83.6461C160.686 82.9989 158.601 82.3892 156.931 80.7197C155.261 79.0501 154.649 76.9679 154.004 74.759C153.301 72.3204 152.552 69.802 150.39 67.6424C148.228 65.4827 145.699 64.7418 143.272 64.0289C141.065 63.3817 138.98 62.7721 137.31 61.1025C135.641 59.433 135.031 57.3507 134.383 55.1419C133.68 52.7056 132.932 50.1848 130.769 48.0252C129.924 47.1813 128.947 46.4797 127.878 45.9477V45.9477H127.863C127.523 45.7773 127.18 45.6209 126.836 45.4787L126.742 45.4435L126.36 45.2911L126.076 45.1879L125.9 45.1246L125.516 44.9933L125.474 44.9792C124.864 44.7776 124.254 44.597 123.654 44.4211C121.447 43.774 119.364 43.1643 117.692 41.4948C116.02 39.8252 115.415 37.743 114.767 35.5364C114.589 34.9291 114.408 34.3124 114.202 33.6957C114.155 33.5574 114.108 33.419 114.059 33.2807C114.043 33.2314 114.024 33.1822 114.005 33.1306C113.97 33.0298 113.932 32.9266 113.892 32.8234C113.853 32.7203 113.803 32.589 113.756 32.4787L113.707 32.3498C113.564 32.0074 113.409 31.6651 113.238 31.3274V31.3133C112.705 30.2435 112.004 29.2664 111.16 28.4198C109 26.2602 106.47 25.5215 104.042 24.8087C101.835 24.1615 99.7503 23.5518 98.0805 21.8823C96.4106 20.2127 95.7985 18.1305 95.1535 15.9216C94.4382 13.483 93.7018 10.9646 91.5394 8.80261C89.377 6.64065 86.8488 5.90437 84.4214 5.19153C82.2145 4.54434 80.1295 3.93468 78.4597 2.26513C77.8111 1.60893 77.2733 0.851867 76.8672 0.0234375H75.8235C76.2973 1.10456 76.9659 2.08936 77.7959 2.92872C79.6253 4.75303 81.8205 5.39318 84.147 6.07789Z" fill="#766DFA"/>
<path d="M23.6851 8.24685C24.3653 10.5706 25.0102 12.7678 26.849 14.6061C28.6877 16.4445 30.8852 17.0894 33.2094 17.7694C35.5336 18.4494 37.9376 19.1552 39.9287 21.146C41.9199 23.1368 42.6234 25.5379 43.3059 27.8617C43.9884 30.1854 44.6287 32.3826 46.4768 34.235C48.3249 36.0875 50.5131 36.7182 52.8373 37.3982C55.1615 38.0782 57.5654 38.7817 59.5565 40.7748C61.5477 42.768 62.2513 45.1668 62.9338 47.4929C63.6162 49.819 64.2565 52.0138 66.0976 53.8522C67.9386 55.6905 70.1339 56.3354 72.4581 57.0154C74.7823 57.6954 77.1862 58.3989 79.1773 60.392C79.9868 61.2066 80.6536 62.1514 81.1498 63.1871C81.1498 63.2035 81.1661 63.2199 81.1755 63.234C81.743 64.4843 82.2043 65.7801 82.5546 67.1077C83.2347 69.4338 83.8773 71.6286 85.7184 73.4693C87.5571 75.31 89.7546 75.9525 92.0812 76.6325C93.4064 76.983 94.7 77.4434 95.9486 78.009L96.0049 78.0371C97.0396 78.5338 97.9838 79.2004 98.7982 80.0092C100.789 82 101.493 84.4011 102.175 86.7272C102.858 89.0533 103.498 91.2481 105.339 93.0865C107.18 94.9249 109.375 95.5697 111.7 96.2497C114.024 96.9297 116.428 97.6332 118.419 99.6263C120.41 101.619 121.114 104.018 121.796 106.342C122.479 108.666 123.119 110.863 124.96 112.704C126.801 114.544 128.996 115.187 131.32 115.867C133.645 116.547 136.049 117.25 138.04 119.243C140.031 121.237 140.735 123.635 141.415 125.959C142.095 128.283 142.74 130.48 144.581 132.321C146.422 134.162 148.617 134.802 150.941 135.484C153.265 136.166 155.669 136.867 157.661 138.858C159.652 140.849 160.355 143.253 161.035 145.576C161.69 147.811 162.314 149.924 163.993 151.718V150.24C162.954 148.777 162.457 147.084 161.936 145.316C161.232 142.88 160.484 140.361 158.324 138.202C156.164 136.042 153.634 135.301 151.204 134.588C148.997 133.941 146.914 133.331 145.245 131.662C143.575 129.992 142.963 127.91 142.315 125.701C141.612 123.265 140.864 120.744 138.703 118.585C136.543 116.425 134.013 115.686 131.585 114.971C129.379 114.326 127.294 113.714 125.624 112.045C123.954 110.375 123.342 108.293 122.697 106.084C121.993 103.648 121.243 101.127 119.083 98.9674C116.923 96.8078 114.392 96.0692 111.965 95.354C109.758 94.7091 107.673 94.0971 106.003 92.4276C104.333 90.758 103.721 88.6758 103.076 86.4669C102.372 84.0306 101.622 81.5099 99.4619 79.3503C98.6151 78.5068 97.6379 77.8052 96.5678 77.2727V77.2727H96.5537C96.2144 77.1007 95.872 76.9444 95.5264 76.8037L95.4326 76.7662C95.3036 76.7146 95.177 76.663 95.0504 76.6161L94.7689 76.513L94.5883 76.4473L94.2037 76.316L94.1638 76.3019C93.5541 76.1003 92.9443 75.9197 92.3415 75.7439C90.137 75.099 88.0519 74.487 86.3821 72.8198C84.7122 71.1526 84.1025 69.068 83.4552 66.8568C83.2793 66.2518 83.0987 65.6398 82.8947 65.0278V65.009C82.8501 64.8754 82.8055 64.7417 82.7586 64.6081C82.7398 64.5541 82.7187 64.5002 82.7 64.4486C82.6648 64.3478 82.6273 64.2493 82.5898 64.1485C82.5522 64.0477 82.4983 63.914 82.4514 63.7944L82.4021 63.6748C82.2614 63.3293 82.105 62.9886 81.9331 62.6525V62.636C81.3993 61.5675 80.6978 60.5914 79.8552 59.7448C77.6928 57.5828 75.1645 56.8442 72.7348 56.1314C70.5279 55.4842 68.4452 54.8745 66.7754 53.205C65.1055 51.5354 64.4934 49.4532 63.8461 47.2443C63.1425 44.808 62.3943 42.2873 60.2343 40.1277C58.0743 37.968 55.5437 37.2294 53.1163 36.5142C50.9094 35.8694 48.8244 35.2574 47.1545 33.5878C45.4847 31.9183 44.8726 29.836 44.2276 27.6272C43.5123 25.1909 42.7735 22.6701 40.6135 20.5105C38.4535 18.3509 35.9229 17.6123 33.4955 16.8971C31.2886 16.2522 29.2036 15.6402 27.5338 13.9707C25.8639 12.3011 25.2518 10.2189 24.6068 8.01002C23.9032 5.5737 23.1528 3.05297 20.9927 0.893351C20.6877 0.588452 20.3642 0.302621 20.0241 0.0374756H18.3824C19.0961 0.460177 19.754 0.970649 20.3407 1.55695C22.2991 3.51726 23.005 5.92074 23.6851 8.24685Z" fill="#766DFA"/>
<path d="M34.6778 6.77903C36.5165 8.6174 38.714 9.26225 41.0382 9.94226C43.3624 10.6223 45.7664 11.3257 47.7575 13.3189C49.7487 15.312 50.4546 17.7108 51.1348 20.0346C51.8149 22.3583 52.4575 24.5555 54.2986 26.3962C56.1397 28.2369 58.3348 28.8794 60.659 29.5594C62.9832 30.2394 65.3872 30.9429 67.3784 32.936C69.3695 34.9292 70.0731 37.3279 70.7556 39.6517C71.4381 41.9755 72.0783 44.1726 73.9194 46.0133C75.7604 47.8541 77.9556 48.4942 80.2798 49.1766C82.604 49.8589 85.008 50.56 86.9991 52.5508C87.8076 53.3663 88.4742 54.311 88.9715 55.3459L88.9973 55.3975C89.5648 56.647 90.0261 57.942 90.3764 59.2689C91.0565 61.595 91.6991 63.7898 93.5402 65.6305C95.3789 67.4712 97.5765 68.1137 99.903 68.7937C101.228 69.1442 102.522 69.6046 103.77 70.1702L103.827 70.1983C104.861 70.695 105.806 71.3616 106.62 72.1703C108.611 74.1611 109.317 76.5646 109.997 78.886C110.677 81.2074 111.32 83.4069 113.161 85.2477C115.002 87.0884 117.197 87.7309 119.521 88.4109C121.846 89.0909 124.25 89.7944 126.241 91.7875C128.232 93.7806 128.935 96.1794 129.618 98.5032C130.3 100.827 130.941 103.024 132.782 104.865C134.623 106.706 136.818 107.348 139.142 108.028C141.466 108.708 143.87 109.412 145.862 111.402C147.853 113.393 148.556 115.797 149.239 118.12C149.921 120.444 150.562 122.641 152.403 124.482C154.244 126.323 156.437 126.963 158.763 127.645C160.531 128.163 162.342 128.696 163.986 129.795V128.682C162.387 127.73 160.689 127.23 159.026 126.745C156.819 126.098 154.736 125.488 153.066 123.818C151.396 122.149 150.784 120.067 150.137 117.858C149.433 115.421 148.685 112.901 146.525 110.741C144.365 108.581 141.835 107.843 139.407 107.128C137.2 106.48 135.115 105.871 133.446 104.201C131.776 102.532 131.164 100.449 130.519 98.2406C129.815 95.8043 129.064 93.2835 126.904 91.1239C124.744 88.9643 122.214 88.2233 119.786 87.5105C117.58 86.8656 115.495 86.2536 113.825 84.5841C112.155 82.9145 111.543 80.8323 110.898 78.6234C110.182 76.1871 109.446 73.6664 107.284 71.5067C106.437 70.6628 105.46 69.9612 104.39 69.4292H104.376C104.036 69.2588 103.694 69.1025 103.348 68.9602L103.252 68.9227C103.125 68.8711 102.999 68.8195 102.872 68.7726C102.745 68.7257 102.682 68.7023 102.588 68.6671L102.412 68.6038L102.026 68.4725L101.986 68.4584C101.376 68.2568 100.766 68.0762 100.163 67.9003C97.9587 67.2532 95.8738 66.6435 94.2039 64.9763C92.534 63.3091 91.9243 61.2245 91.2793 59.0133C91.0612 58.27 90.8361 57.5126 90.5757 56.7575L90.5241 56.6168C90.4866 56.5113 90.4491 56.4081 90.4092 56.3026C90.3693 56.1971 90.3201 56.0681 90.2755 55.965C90.2568 55.9204 90.2403 55.8735 90.2216 55.829C90.0809 55.4866 89.9261 55.1443 89.7525 54.8066V54.7925C89.2195 53.7235 88.5179 52.7473 87.6746 51.9013C85.5122 49.7393 82.984 49.0007 80.5543 48.2879C78.3497 47.6407 76.2647 47.031 74.5948 45.3615C72.9249 43.6919 72.3128 41.6097 71.6679 39.4008C70.9525 36.9645 70.2161 34.4438 68.0538 32.2841C65.8914 30.1245 63.3631 29.3859 60.9358 28.6707C58.7288 28.0259 56.6439 27.4139 54.974 25.7443C53.3042 24.0748 52.692 21.9925 52.0471 19.7837C51.3435 17.3473 50.5954 14.8266 48.433 12.667C46.2706 10.5074 43.7424 9.76873 41.315 9.05354C39.108 8.40871 37.0231 7.7967 35.3532 6.12715C33.6834 4.45761 33.0713 2.37536 32.4263 0.166499L32.384 0.0211182H31.4061L31.5257 0.43147C32.1941 2.74351 32.839 4.94065 34.6778 6.77903Z" fill="#766DFA"/>
<path d="M127.254 2.21352C129.578 2.89353 131.98 3.59699 133.971 5.58778C134.78 6.40307 135.447 7.34776 135.945 8.38287L135.969 8.43445C136.536 9.68395 136.998 10.979 137.348 12.3058C138.028 14.6296 138.673 16.8267 140.512 18.6651C142.353 20.5035 144.548 21.146 146.875 21.8283C148.201 22.1763 149.494 22.6368 150.742 23.2048L150.798 23.2306C151.833 23.7286 152.778 24.395 153.594 25.2026C155.585 27.1934 156.289 29.5969 156.969 31.9206C157.649 34.2444 158.294 36.4415 160.133 38.2823C161.227 39.3444 162.543 40.1508 163.986 40.6435V39.6353C162.795 39.1911 161.708 38.5044 160.796 37.6187C159.126 35.9491 158.517 33.8669 157.869 31.658C157.166 29.2194 156.418 26.701 154.258 24.539C153.41 23.697 152.433 22.9957 151.363 22.4614V22.4614H151.349C151.012 22.2903 150.667 22.1355 150.322 21.9925L150.238 21.9597C150.106 21.9057 149.977 21.8541 149.846 21.8049L149.569 21.7041L149.384 21.6361L149.006 21.5071L148.957 21.4907C148.347 21.289 147.74 21.1085 147.14 20.9326C144.933 20.2878 142.848 19.6781 141.178 18.0085C139.508 16.339 138.901 14.2568 138.253 12.0502C138.075 11.4429 137.894 10.8286 137.69 10.2119L137.55 9.80151L137.493 9.6491C137.458 9.54827 137.421 9.44743 137.383 9.34426C137.346 9.24108 137.292 9.10977 137.245 8.99487L137.196 8.8706C137.055 8.52825 136.9 8.18589 136.726 7.84823V7.83416C136.194 6.76428 135.492 5.78724 134.648 4.9406C132.488 2.78098 129.958 2.04235 127.531 1.32951C126.276 1.00085 125.052 0.56465 123.872 0.0257568H122.04C123.607 1.14191 125.387 1.66717 127.254 2.21352Z" fill="#766DFA"/>
<path d="M102.06 8.34308C102.741 10.6692 103.385 12.864 105.224 14.7047C107.063 16.5454 109.26 17.1856 111.587 17.8679C113.914 18.5503 116.313 19.2514 118.304 21.2422C119.113 22.0575 119.781 23.0022 120.279 24.0373C120.286 24.0541 120.293 24.0706 120.302 24.0865C120.87 25.3368 121.331 26.6326 121.681 27.9602C122.361 30.284 123.004 32.4811 124.845 34.3195C126.686 36.1579 128.881 36.8004 131.208 37.4827C132.533 37.8313 133.827 38.291 135.075 38.8568L135.134 38.885C136.167 39.3836 137.111 40.05 137.927 40.857C139.918 42.8478 140.622 45.2513 141.302 47.5774C141.982 49.9035 142.627 52.096 144.466 53.9367C146.305 55.7774 148.502 56.4175 150.829 57.0999C153.155 57.7823 155.554 58.4834 157.548 60.4742C159.541 62.465 160.243 64.8684 160.923 67.1922C161.589 69.4691 162.222 71.6193 163.972 73.4366V71.9875C162.865 70.4961 162.353 68.7539 161.819 66.9272C161.115 64.4909 160.367 61.9725 158.205 59.8106C156.042 57.6486 153.514 56.9123 151.087 56.1995C148.88 55.5523 146.795 54.9426 145.125 53.2731C143.455 51.6035 142.845 49.5213 142.198 47.3101C141.494 44.8738 140.746 42.3554 138.584 40.1957C137.738 39.3518 136.761 38.6496 135.692 38.1158C135.351 37.9439 135.008 37.7876 134.662 37.6469L134.569 37.6094C134.442 37.5601 134.315 37.5085 134.186 37.4616C134.093 37.4241 133.996 37.3913 133.903 37.3561L133.722 37.2834L133.335 37.1498L133.297 37.138C132.688 36.9364 132.076 36.7558 131.475 36.58C129.268 35.9328 127.186 35.3231 125.516 33.6559C123.846 31.9887 123.236 29.9041 122.589 27.6953C122.411 27.0879 122.23 26.4736 122.026 25.8592C121.981 25.7232 121.934 25.5872 121.888 25.4512L121.831 25.2965L121.721 24.994C121.677 24.8744 121.627 24.7595 121.58 24.6376C121.564 24.5977 121.55 24.5578 121.533 24.5203C121.393 24.1756 121.236 23.8333 121.064 23.4956V23.4815C120.532 22.4117 119.83 21.4346 118.986 20.588C116.826 18.4283 114.296 17.6897 111.868 16.9769C109.662 16.3297 107.577 15.72 105.907 14.0505C104.237 12.3809 103.627 10.2987 102.98 8.08983C102.264 5.65117 101.528 3.13279 99.3656 0.970821C99.0232 0.629199 98.6581 0.311127 98.2727 0.0187988H96.5747C97.3526 0.460224 98.0679 1.00357 98.7019 1.63442C100.686 3.61583 101.39 6.01932 102.06 8.34308Z" fill="#766DFA"/>
<path d="M145.374 1.96255L145.32 1.81482C145.282 1.71165 145.245 1.60848 145.205 1.5053C145.165 1.40213 145.118 1.27082 145.071 1.16061C145.052 1.1184 145.038 1.07384 145.019 1.03164C144.879 0.687722 144.722 0.346938 144.55 0.00927734H143.483C143.584 0.189832 143.683 0.372729 143.772 0.555628L143.795 0.604868C144.363 1.85503 144.824 3.15087 145.174 4.47859C145.854 6.80236 146.499 8.99949 148.338 10.8379C150.177 12.6762 152.372 13.3187 154.698 14.0011C156.024 14.3497 157.318 14.8093 158.566 15.3752L158.624 15.4033C159.658 15.902 160.602 16.5683 161.418 17.3754C162.568 18.5637 163.443 19.9901 163.981 21.5539V19.263C162.901 17.2611 161.226 15.6437 159.187 14.6342V14.6342H159.173C158.836 14.463 158.493 14.3083 158.148 14.1652L158.05 14.1277L157.672 13.9776L157.386 13.8745L157.21 13.8112C157.081 13.7643 156.952 13.7221 156.821 13.6775H156.788C156.176 13.4758 155.566 13.2953 154.963 13.1171C152.757 12.4722 150.674 11.8626 149.004 10.193C147.334 8.52348 146.724 6.44125 146.077 4.23004C145.899 3.62506 145.718 3.01071 145.514 2.39635L145.374 1.96255Z" fill="#766DFA"/>
<path d="M109.898 0.516001C110.579 2.84211 111.224 5.0369 113.062 6.87528C114.901 8.71365 117.099 9.35849 119.425 10.0408C121.752 10.7232 124.151 11.4243 126.142 13.4151C126.951 14.2304 127.619 15.1751 128.117 16.2102C128.117 16.2266 128.133 16.243 128.14 16.2618C128.708 17.5111 129.169 18.8062 129.519 20.1332C130.199 22.4569 130.844 24.6541 132.683 26.4924C134.524 28.3308 136.719 28.9733 139.046 29.6557C140.371 30.0043 141.664 30.4639 142.911 31.0298L142.972 31.0579C144.006 31.5566 144.949 32.2229 145.765 33.0299C147.756 35.0207 148.46 37.4242 149.14 39.748C149.82 42.0717 150.465 44.2689 152.304 46.1096C154.143 47.9503 156.34 48.5905 158.667 49.2728C160.468 49.8004 162.316 50.3444 163.986 51.4887V50.3679C162.358 49.3783 160.625 48.8672 158.929 48.3724C156.722 47.7252 154.638 47.1155 152.968 45.446C151.298 43.7764 150.688 41.6942 150.041 39.4853C149.337 37.0467 148.589 34.5283 146.429 32.3663C145.581 31.5243 144.604 30.823 143.535 30.2888V30.2888C143.195 30.1153 142.85 29.9605 142.505 29.8198L142.4 29.7799C142.268 29.726 142.139 29.6744 142.008 29.6252L141.731 29.5243L141.546 29.4563L141.166 29.3274L141.119 29.3133C140.509 29.1093 139.902 28.9311 139.302 28.7552C137.095 28.108 135.01 27.4984 133.34 25.8288C131.67 24.1593 131.063 22.077 130.415 19.8658C130.197 19.1225 129.974 18.3651 129.712 17.6101L129.662 17.4741C129.625 17.3686 129.585 17.263 129.545 17.1552C129.505 17.0473 129.458 16.9324 129.414 16.8199C129.395 16.773 129.379 16.7284 129.36 16.6839C129.217 16.3392 129.062 15.9992 128.891 15.6592C128.358 14.5893 127.656 13.6122 126.813 12.7656C124.653 10.606 122.122 9.86732 119.695 9.15448C117.488 8.5073 115.403 7.89764 113.733 6.22809C112.063 4.55855 111.453 2.47631 110.806 0.267446C110.783 0.185375 110.759 0.103305 110.733 0.032959H109.755C109.8 0.178341 109.849 0.347171 109.898 0.516001Z" fill="#766DFA"/>
</g>
<path d="M305.844 120.399L323.994 120.399V103L244 103V183.001H260.621V165.621C260.624 153.628 265.389 142.127 273.869 133.646C282.35 125.166 293.851 120.401 305.844 120.399Z" fill="#4CE467"/>
<path d="M290.024 151.657V183.003H324V149.806H291.884C291.64 149.805 291.399 149.852 291.173 149.944C290.948 150.037 290.742 150.173 290.57 150.345C290.397 150.517 290.26 150.721 290.166 150.946C290.073 151.171 290.024 151.413 290.024 151.657Z" fill="#4CE467"/>
<path d="M290.03 151.655C290.03 151.164 290.225 150.693 290.572 150.346C290.919 149.999 291.39 149.804 291.881 149.804H323.997V120.398L305.847 120.398C293.854 120.401 282.352 125.166 273.872 133.646C265.391 142.126 260.626 153.627 260.624 165.62V183.001H290.03V151.655Z" fill="#766DFA"/>
<path d="M173.149 102.963H197.738V95.6941C197.737 90.5661 198.747 85.4883 200.709 80.7504C202.672 76.0125 205.549 71.7074 209.176 68.0811C212.803 64.4547 217.11 61.578 221.85 59.6154C226.589 57.6528 231.669 56.6427 236.8 56.6427H244V27.8339C225.833 31.4355 209.243 40.6129 196.543 54.0867C183.843 67.5605 175.665 84.6594 173.149 103V102.963Z" fill="#FFC844"/>
<path d="M223.134 83.598V102.964H244V81.9985H224.734C224.31 81.9985 223.903 82.1672 223.603 82.4671C223.303 82.767 223.134 83.1738 223.134 83.598V83.598Z" fill="#FFC844"/>
<path d="M193.433 23H164V54.8983C171.7 42.4974 181.688 31.6724 193.433 23Z" fill="#FFC844"/>
<path d="M193.433 23C181.688 31.6724 171.7 42.4974 164 54.8984V102.964H173.149C175.665 84.6233 183.843 67.5244 196.543 54.0505C209.243 40.5767 225.833 31.3995 244 27.7979V23H193.433Z" fill="#766DFA"/>
<path d="M197.739 95.6582V102.928H223.135V83.5619C223.135 83.1378 223.303 82.731 223.604 82.431C223.904 82.1311 224.311 81.9627 224.735 81.9627H244V56.5704H236.771C231.641 56.5704 226.561 57.5806 221.821 59.5432C217.082 61.5058 212.775 64.3824 209.148 68.0088C205.52 71.6351 202.643 75.9402 200.681 80.6781C198.718 85.416 197.709 90.4938 197.709 95.6218L197.739 95.6582Z" fill="#F5333F"/>
</svg>
