<svg width="332" height="331" viewBox="0 0 332 331" fill="none" xmlns="http://www.w3.org/2000/svg">
<path d="M286.45 158.45C281.36 153.37 279.45 146.96 277.45 140.17C275.21 132.54 272.9 124.65 266.09 117.85C259.28 111.05 251.39 108.73 243.76 106.49C237.04 104.49 230.68 102.66 225.61 97.66C220.54 92.66 218.75 86.24 216.78 79.51C214.55 71.88 212.24 63.99 205.43 57.19C205.389 57.1442 205.346 57.1008 205.3 57.06L205.18 56.94C198.37 50.13 190.48 47.82 182.85 45.58C176.13 43.58 169.77 41.75 164.71 36.76C159.65 31.77 157.85 25.34 155.87 18.6C154.04 12.33 152.14 5.88 147.74 0H142.54C144.318 1.93661 145.843 4.09038 147.08 6.41C147.107 6.60265 147.167 6.78896 147.26 6.96C149.149 10.9863 150.665 15.1772 151.79 19.48C153.92 26.77 155.94 33.65 161.79 39.48C161.79 39.48 161.88 39.56 161.92 39.61L162.04 39.73C167.84 45.54 174.73 47.56 182.04 49.73C189.13 51.81 196.47 53.96 202.53 59.95C208.59 65.94 210.68 73.35 212.76 80.45C214.89 87.74 216.91 94.62 222.76 100.45L222.88 100.57L223 100.7C228.81 106.51 235.7 108.53 243 110.7C247.304 111.822 251.495 113.338 255.52 115.23C255.694 115.315 255.879 115.376 256.07 115.41C258.756 116.836 261.217 118.652 263.37 120.8C269.46 126.88 271.62 134.27 273.72 141.42C275.82 148.57 277.87 155.59 283.72 161.42C284.931 162.633 286.25 163.734 287.66 164.71C288.32 163.54 288.97 162.37 289.66 161.19C288.509 160.376 287.435 159.459 286.45 158.45Z" fill="#FC805F"/>
<path d="M301.8 115.87C299.56 108.24 297.25 100.35 290.45 93.54C283.65 86.73 275.75 84.42 268.12 82.19C261.39 80.19 255.03 78.35 249.97 73.36C244.91 68.37 243.11 61.94 241.14 55.21C238.9 47.58 236.59 39.69 229.78 32.88L229.65 32.76L229.54 32.63C222.73 25.83 214.84 23.51 207.21 21.28C200.48 19.28 194.13 17.44 189.06 12.45C185.51 8.85 183.54 4.59 181.98 0H177.6C179.37 5.49 181.6 10.65 186.1 15.16L186.23 15.28L186.35 15.41C192.16 21.22 199.04 23.23 206.35 25.41C213.45 27.49 220.78 29.64 226.84 35.62C232.9 41.6 234.99 49.03 237.07 56.13C239.2 63.42 241.22 70.3 247.07 76.13L247.2 76.25L247.32 76.38C253.13 82.19 260.01 84.2 267.32 86.38C271.626 87.4957 275.817 89.0123 279.84 90.91C280.014 90.9937 280.199 91.051 280.39 91.08C283.077 92.5093 285.54 94.3253 287.7 96.47C293.78 102.56 295.95 109.95 298.04 117.1C299.59 122.38 301.04 127.45 304.04 132.1C304.71 130.55 305.37 129.01 306.04 127.46C304.278 123.733 302.859 119.854 301.8 115.87Z" fill="#FC805F"/>
<path d="M329.09 37.97C325.094 36.171 320.956 34.7028 316.72 33.58C310 31.58 303.64 29.75 298.57 24.75C293.5 19.75 291.71 13.33 289.74 6.6C289.1 4.41 288.45 2.2 287.74 0H283.31C284.22 2.48 284.96 5 285.69 7.48C287.82 14.77 289.84 21.65 295.69 27.48L295.81 27.6C295.81 27.6 295.89 27.69 295.94 27.73C301.75 33.54 308.63 35.55 315.94 37.73C320.244 38.8518 324.435 40.3682 328.46 42.26C328.533 42.297 328.61 42.3239 328.69 42.34C328.78 40.81 328.93 39.41 329.09 37.97Z" fill="#FC805F"/>
<path d="M237.84 207.06C232.75 201.97 230.84 195.57 228.84 188.78C226.6 181.15 224.29 173.26 217.48 166.45C210.67 159.64 202.79 157.34 195.15 155.1C188.43 153.1 182.08 151.27 177.01 146.28C171.94 141.29 170.15 134.85 168.18 128.12C165.94 120.49 163.63 112.6 156.82 105.79L156.69 105.67L156.57 105.54C149.77 98.74 141.88 96.43 134.24 94.19C127.52 92.19 121.16 90.35 116.1 85.37C111.04 80.39 109.31 73.94 107.31 67.21C105.08 59.58 102.77 51.69 95.9602 44.88C89.1502 38.07 81.2601 35.76 73.6301 33.53C66.8501 31.53 60.4402 29.67 55.3602 24.58C50.2802 19.49 48.3602 13.08 46.3602 6.3C45.7402 4.21 45.1202 2.1 44.4102 0H40.1602C41.0602 2.46 41.7901 5 42.5201 7.43C44.6501 14.71 46.6701 21.6 52.5201 27.43C58.3701 33.26 65.2101 35.25 72.5201 37.43C79.8301 39.61 87.0601 41.69 93.1401 47.77C95.2851 49.9258 97.1013 52.3854 98.5302 55.07C98.5658 55.2636 98.6264 55.4519 98.7102 55.63C100.601 59.6557 102.117 63.8466 103.24 68.15C105.37 75.44 107.39 82.32 113.24 88.15L113.37 88.27L113.49 88.4C119.3 94.21 126.18 96.22 133.49 98.4C140.59 100.48 147.92 102.63 153.98 108.62C160.04 114.61 162.13 122.02 164.21 129.12C166.34 136.41 168.36 143.29 174.21 149.12L174.35 149.25L174.46 149.37C180.27 155.18 187.15 157.19 194.46 159.37C198.764 160.49 202.956 162.007 206.98 163.9C207.155 163.984 207.34 164.044 207.53 164.08C210.219 165.502 212.683 167.315 214.84 169.46C220.92 175.55 223.09 182.94 225.18 190.09C227.27 197.24 229.33 204.26 235.18 210.09C239.45 214.36 244.31 216.58 249.48 218.31C250.434 217.217 251.377 216.12 252.31 215.02C246.85 213.16 241.92 211.14 237.84 207.06Z" fill="#FC805F"/>
<path d="M262.14 182.81C257.05 177.72 255.14 171.31 253.19 164.53C250.96 156.9 248.64 149.01 241.84 142.2C235.04 135.39 227.14 133.08 219.51 130.85C212.78 128.85 206.43 127.01 201.36 122.02C196.29 117.03 194.5 110.6 192.53 103.87C190.29 96.2398 187.98 88.3398 181.18 81.5398L181.04 81.4098L180.93 81.2898C174.12 74.4798 166.23 72.1698 158.6 69.9398C151.87 67.9398 145.52 66.0998 140.45 61.1098C135.38 56.1198 133.59 49.6898 131.62 42.9598C129.38 35.3298 127.07 27.4398 120.27 20.6298C113.47 13.8198 105.57 11.5098 97.9399 9.26981C91.1499 7.26981 84.7499 5.4098 79.6599 0.329803L79.3999 0.0498047H74.1499C74.9675 1.14626 75.8632 2.18228 76.83 3.1498C82.64 8.9598 89.52 10.9798 96.83 13.1498C104.14 15.3198 111.37 17.4098 117.46 23.4998C119.602 25.658 121.418 28.1173 122.85 30.7998C122.876 30.9912 122.933 31.177 123.02 31.3498C124.913 35.3777 126.43 39.5723 127.55 43.8798C129.69 51.1598 131.7 58.0498 137.55 63.8798L137.69 63.9998L137.8 64.1198C143.61 69.9298 150.49 71.9498 157.8 74.1198C164.9 76.1998 172.24 78.3598 178.3 84.3398C184.36 90.3198 186.44 97.7398 188.52 104.85C190.66 112.13 192.67 119.02 198.52 124.85L198.65 124.97L198.77 125.09C204.58 130.9 211.46 132.92 218.77 135.09C223.075 136.212 227.266 137.732 231.29 139.63C231.467 139.715 231.656 139.772 231.85 139.8C234.535 141.229 236.994 143.045 239.15 145.19C245.23 151.27 247.4 158.66 249.49 165.82C251.58 172.98 253.64 179.99 259.49 185.82C262.47 188.748 266.006 191.05 269.89 192.59C270.69 191.47 271.47 190.34 272.25 189.22C268.462 187.828 265.015 185.642 262.14 182.81Z" fill="#FC805F"/>
<path d="M292.42 57.89C285.69 55.89 279.34 54.05 274.27 49.06C269.2 44.07 267.41 37.63 265.44 30.9C263.2 23.27 260.89 15.38 254.09 8.57999C254.044 8.5392 254.001 8.4958 253.96 8.45L253.84 8.32999C250.113 4.66648 245.656 1.82833 240.76 0H227.08C228.25 0.36 229.44 0.709998 230.63 1.06C237.73 3.14 245.07 5.3 251.13 11.28C257.19 17.26 259.31 24.68 261.31 31.81C263.45 39.1 265.46 45.99 271.31 51.81C271.358 51.8447 271.402 51.8849 271.44 51.93L271.56 52.05C277.37 57.86 284.25 59.88 291.56 62.05C295.86 63.1748 300.047 64.6911 304.07 66.58C304.245 66.6727 304.434 66.7336 304.63 66.76C307.315 68.1889 309.774 70.005 311.93 72.15C315.644 76.008 318.428 80.6629 320.07 85.76C320.643 83.6067 321.197 81.4467 321.73 79.28C319.99 75.5682 317.622 72.1851 314.73 69.28C307.94 62.43 300.05 60.12 292.42 57.89Z" fill="#FC805F"/>
<path d="M317.2 0C318.028 1.11874 318.937 2.17493 319.92 3.16L320.05 3.28L320.17 3.41C323.285 6.47561 327.004 8.85949 331.09 10.41C331.09 8.93 331.17 7.41 331.2 5.96C328.11 4.66224 325.289 2.80052 322.88 0.470001L322.45 0.0199966L317.2 0Z" fill="#FC805F"/>
<path d="M131.67 286C129.44 278.37 127.13 270.48 120.32 263.67C113.51 256.86 105.62 254.55 97.9901 252.32C91.2601 250.32 84.9101 248.48 79.8401 243.49C74.7701 238.5 72.98 232.07 71.01 225.34C68.78 217.7 66.46 209.81 59.66 203.01L59.53 202.88L59.41 202.76C52.6 195.95 44.7101 193.64 37.0801 191.4C30.3501 189.4 24.0001 187.57 18.9301 182.58C13.8601 177.59 12.0701 171.16 10.1001 164.43C8.0201 157.31 5.8601 149.97 0.100098 143.49V150.11C0.540098 150.81 0.960098 151.51 1.3501 152.23C1.37756 152.421 1.43485 152.607 1.52002 152.78C3.41653 156.805 4.93639 160.996 6.06006 165.3C8.19006 172.59 10.2001 179.47 16.0601 185.3L16.2001 185.43L16.3101 185.55C22.1201 191.36 29.0001 193.38 36.3101 195.55C43.4001 197.63 50.74 199.79 56.8 205.77C62.8601 211.75 64.94 219.17 67.02 226.27C69.16 233.56 71.18 240.44 77.02 246.27L77.15 246.39L77.27 246.52C83.08 252.33 89.96 254.35 97.27 256.52C101.57 257.645 105.757 259.161 109.78 261.05C109.956 261.138 110.145 261.199 110.34 261.23C113.025 262.659 115.484 264.475 117.64 266.62C123.72 272.7 125.89 280.09 127.99 287.24C129.62 292.83 131.19 298.17 134.45 302.98L138.16 301.31C134.81 296.7 133.31 291.47 131.67 286Z" fill="#FC805F"/>
<path d="M164.93 279.97C159.84 274.88 157.93 268.48 155.98 261.69C153.74 254.06 151.43 246.17 144.62 239.37C137.81 232.57 129.92 230.25 122.29 228.01C115.57 226.01 109.22 224.18 104.15 219.19C99.08 214.2 97.3101 207.81 95.3101 201.03C93.0801 193.4 90.7701 185.51 83.9601 178.7L83.8301 178.58L83.7101 178.46C76.9101 171.65 69.02 169.34 61.38 167.1C54.66 165.1 48.3001 163.27 43.2401 158.28C38.1801 153.29 36.38 146.86 34.4 140.12C32.17 132.49 29.86 124.6 23.05 117.79C16.24 110.98 8.35009 108.68 0.720093 106.44L0.0600586 106.24V110.41C7.06006 112.47 14.2701 114.67 20.2201 120.62C22.3679 122.777 24.1843 125.241 25.6101 127.93C25.6431 128.121 25.7037 128.307 25.79 128.48C27.6806 132.506 29.197 136.697 30.3201 141C32.4501 148.29 34.4701 155.17 40.3201 161L40.4501 161.13L40.5701 161.25C46.3801 167.06 53.2601 169.07 60.5701 171.25C67.6701 173.33 75.0001 175.48 81.0601 181.47C87.1201 187.46 89.21 194.87 91.29 201.97C93.42 209.26 95.44 216.14 101.29 221.97L101.43 222.11L101.54 222.22C107.35 228.03 114.23 230.04 121.54 232.22C125.844 233.34 130.036 234.857 134.06 236.75C134.235 236.834 134.42 236.895 134.61 236.93C137.298 238.355 139.761 240.168 141.92 242.31C148 248.4 150.16 255.79 152.26 262.94C154.36 270.09 156.41 277.11 162.26 282.94C163.599 284.289 165.073 285.495 166.66 286.54C167.96 285.78 169.26 285.01 170.56 284.23C168.491 283.084 166.596 281.649 164.93 279.97Z" fill="#FC805F"/>
<path d="M189.23 255.67C184.14 250.58 182.23 244.17 180.23 237.39C177.99 229.76 175.68 221.87 168.88 215.06C162.08 208.25 154.18 205.94 146.55 203.71C139.82 201.71 133.47 199.87 128.4 194.88C123.33 189.89 121.54 183.46 119.57 176.73C117.33 169.1 115.02 161.21 108.21 154.4L108.08 154.27L107.97 154.15C101.16 147.35 93.2702 145.03 85.6302 142.8C78.9102 140.8 72.5604 138.96 67.4904 133.97C62.4204 128.98 60.6303 122.55 58.6603 115.82C56.4203 108.19 54.1103 100.3 47.3003 93.49C40.4903 86.68 32.6103 84.37 24.9803 82.14C18.1903 80.14 11.7903 78.27 6.70032 73.14C3.66814 69.9715 1.38237 66.1654 0.0102539 62V71.17C1.11937 72.9019 2.41376 74.5081 3.87036 75.96C9.68036 81.77 16.5604 83.79 23.8704 85.96C31.1804 88.13 38.4102 90.23 44.5002 96.31C46.6394 98.4684 48.4519 100.928 49.8802 103.61C49.9159 103.804 49.9765 103.992 50.0603 104.17C51.9552 108.194 53.4718 112.385 54.5903 116.69C56.7303 123.97 58.7403 130.86 64.5903 136.69L64.7203 136.81L64.8403 136.93C70.6503 142.74 77.5303 144.76 84.8403 146.93C91.9403 149 99.2803 151.16 105.33 157.14C111.38 163.12 113.48 170.54 115.56 177.65C117.7 184.93 119.71 191.82 125.56 197.65L125.7 197.78L125.81 197.9C131.62 203.7 138.5 205.72 145.81 207.9C150.116 209.016 154.308 210.532 158.33 212.43C158.507 212.515 158.696 212.573 158.89 212.6C161.575 214.029 164.035 215.845 166.19 217.99C172.27 224.07 174.44 231.46 176.53 238.62C178.62 245.78 180.68 252.79 186.53 258.62C189.791 261.805 193.695 264.256 197.98 265.81C199.25 264.86 200.51 263.89 201.76 262.92C197.06 261.24 192.82 259.26 189.23 255.67Z" fill="#FC805F"/>
<path d="M49.38 300.92C42.65 298.92 36.3001 297.09 31.2301 292.09C26.1601 287.09 24.37 280.67 22.4 273.94C20.17 266.31 17.86 258.42 11.05 251.61L10.92 251.49L10.8 251.37C7.69863 248.288 4.05849 245.8 0.0600586 244.03V248.61C3.00907 250.083 5.70859 252.01 8.06006 254.32C14.0601 260.38 16.21 267.72 18.29 274.82C20.42 282.11 22.44 288.99 28.29 294.82L28.41 294.94C28.46 294.94 28.49 295.03 28.54 295.07C34.34 300.88 41.23 302.9 48.54 305.07C52.8443 306.19 57.0356 307.707 61.0601 309.6C61.2347 309.684 61.4197 309.745 61.6101 309.78C67.1568 312.714 71.6619 317.289 74.51 322.88C75.85 322.57 77.19 322.23 78.51 321.88C76.8044 318.332 74.5123 315.096 71.7301 312.31C64.9001 305.47 57.01 303.16 49.38 300.92Z" fill="#FC805F"/>
<path d="M7.92004 11.1001C14 17.1901 16.17 24.5801 18.26 31.7301C20.35 38.8801 22.41 45.9001 28.26 51.7301C34.11 57.5601 40.96 59.5601 48.26 61.7301C55.4 63.8301 62.8 65.9901 68.88 72.0701C71.0278 74.2272 72.8442 76.6907 74.27 79.3801C74.2975 79.5712 74.3549 79.7568 74.4401 79.9301C76.3338 83.9555 77.8536 88.1465 78.9801 92.4501C81.1101 99.7401 83.1201 106.62 88.9801 112.45C89.0183 112.498 89.0619 112.542 89.1101 112.58L89.2201 112.7C95.0301 118.51 101.92 120.53 109.22 122.7C116.32 124.78 123.66 126.93 129.72 132.92C135.78 138.91 137.86 146.32 139.95 153.42C142.08 160.71 144.1 167.59 149.95 173.42L150.08 173.55L150.19 173.67C156 179.48 162.89 181.5 170.19 183.67C174.49 184.795 178.677 186.311 182.7 188.2C182.876 188.288 183.065 188.349 183.26 188.38C185.945 189.809 188.404 191.625 190.56 193.77C196.65 199.85 198.81 207.24 200.91 214.39C203.01 221.54 205.06 228.56 210.91 234.39C215.33 238.81 220.37 241.04 225.74 242.79C226.86 241.79 227.99 240.71 229.09 239.65C223.4 237.92 218.09 235.91 213.73 231.56C208.65 226.48 206.73 220.07 204.73 213.29C202.5 205.66 200.19 197.76 193.38 190.96C186.57 184.16 178.68 181.84 171.05 179.6C164.32 177.6 157.97 175.77 152.91 170.78C147.85 165.79 146.04 159.36 144.07 152.62C141.84 144.99 139.53 137.1 132.72 130.3L132.59 130.17L132.31 129.81C125.5 123 117.61 120.69 109.98 118.45C103.25 116.45 96.9001 114.62 91.8401 109.63C86.7801 104.64 84.97 98.2101 83 91.4801C80.77 83.8401 78.46 75.9501 71.65 69.1501C64.84 62.3501 56.9501 60.0301 49.3201 57.7901C42.5401 55.7901 36.13 53.9301 31.04 48.7901C25.95 43.6501 24.04 37.3001 22.04 30.5101C19.81 22.8801 17.4901 14.9901 10.6901 8.19012C7.60316 5.11836 3.98008 2.63749 0 0.870117V5.34012C2.92604 6.83238 5.59884 8.7762 7.92004 11.1001Z" fill="#FC805F"/>
<path d="M107.37 310.3C105.13 302.67 102.82 294.78 96.02 287.97C89.22 281.16 81.3201 278.85 73.6901 276.62C66.9601 274.62 60.6 272.78 55.54 267.79C50.48 262.8 48.6801 256.37 46.7101 249.64C44.4701 242.01 42.1601 234.12 35.3501 227.31L35.2201 227.19L35.1101 227.06C28.3001 220.26 20.41 217.95 12.77 215.71C8.28002 214.39 3.95006 213.12 0.0600586 210.93V215.59C3.88042 217.326 7.84128 218.734 11.9 219.8C19 221.88 26.33 224.03 32.39 230.01C38.45 235.99 40.5401 243.41 42.6201 250.52C44.7501 257.81 46.7701 264.69 52.6201 270.52L52.75 270.64L52.8701 270.77C58.6801 276.58 65.5601 278.59 72.8701 280.77C77.1711 281.89 81.3589 283.406 85.38 285.3C85.5539 285.383 85.7393 285.441 85.9301 285.47C88.6195 286.896 91.083 288.712 93.2401 290.86C99.3201 296.94 101.49 304.34 103.58 311.49C103.88 312.49 104.17 313.49 104.47 314.49L108.26 313.21L107.37 310.3Z" fill="#FC805F"/>
<path d="M6.93005 316.4C3.77095 313.022 1.42168 308.97 0.0600586 304.55V314.23C1.18786 315.99 2.4985 317.625 3.97009 319.11C4.01807 319.144 4.06172 319.185 4.1001 319.23L4.22009 319.35C10.0301 325.16 16.9101 327.18 24.2201 329.35L26.9401 330.15C30.1701 329.9 33.3801 329.58 36.5801 329.23C32.8449 327.63 29.0021 326.293 25.0801 325.23C18.3101 323.26 12.0001 321.39 6.93005 316.4Z" fill="#FC805F"/>
</svg>
