<svg width="473" height="472" viewBox="0 0 473 472" fill="none" xmlns="http://www.w3.org/2000/svg">
<path d="M63.9091 245.211C71.1783 252.466 73.9061 261.621 76.7623 271.318C79.9614 282.214 83.2603 293.482 92.986 303.194C102.712 312.905 113.98 316.218 124.876 319.417C134.474 322.274 143.556 324.887 150.797 332.028C158.038 339.169 160.594 348.337 163.408 357.949C166.592 368.845 169.891 380.113 179.617 389.825C179.675 389.89 179.737 389.952 179.803 390.01L179.974 390.182C189.7 399.907 200.968 403.206 211.864 406.405C221.461 409.262 230.544 411.875 237.771 419.002C244.997 426.128 247.568 435.311 250.395 444.937C253.009 453.891 255.722 463.103 262.006 471.5L269.433 471.5C266.894 468.734 264.715 465.658 262.949 462.346C262.911 462.071 262.824 461.804 262.692 461.56C259.994 455.81 257.829 449.825 256.222 443.68C253.18 433.269 250.296 423.443 241.941 415.117C241.941 415.117 241.812 415.003 241.755 414.931L241.584 414.76C233.301 406.463 223.461 403.578 213.021 400.479C202.896 397.508 192.413 394.438 183.759 385.883C175.104 377.328 172.119 366.746 169.149 356.606C166.107 346.195 163.222 336.369 154.867 328.043L154.696 327.872L154.525 327.686C146.227 319.389 136.387 316.504 125.962 313.405C119.815 311.803 113.83 309.637 108.081 306.936C107.833 306.814 107.568 306.727 107.296 306.678C103.459 304.642 99.9461 302.048 96.8705 298.981C88.1731 290.298 85.0883 279.744 82.0893 269.533C79.0902 259.321 76.1625 249.296 67.8079 240.97C66.0779 239.237 64.1947 237.664 62.1811 236.271C61.2385 237.942 60.3102 239.613 59.3248 241.298C60.9684 242.461 62.5028 243.771 63.9091 245.211Z" fill="#6B6BB0"/>
<path d="M41.9875 306.021C45.1865 316.918 48.4855 328.186 58.1968 337.912C67.9082 347.637 79.1904 350.936 90.0871 354.121C99.6985 356.978 108.782 359.605 116.008 366.732C123.234 373.858 125.805 383.041 128.618 392.652C131.817 403.549 135.116 414.817 144.842 424.543L145.028 424.714L145.185 424.9C154.91 434.611 166.178 437.924 177.075 441.109C186.687 443.965 195.755 446.593 202.996 453.72C208.066 458.861 210.879 464.945 213.107 471.5L219.362 471.5C216.834 463.66 213.65 456.29 207.223 449.849L207.037 449.678L206.866 449.492C198.569 441.195 188.743 438.324 178.303 435.211C168.164 432.24 157.695 429.17 149.041 420.63C140.386 412.089 137.401 401.478 134.431 391.339C131.389 380.927 128.504 371.102 120.15 362.776L119.964 362.604L119.792 362.419C111.495 354.121 101.669 351.251 91.2297 348.137C85.0806 346.544 79.0944 344.378 73.3494 341.668C73.1011 341.548 72.8365 341.466 72.564 341.425C68.7262 339.384 65.2087 336.79 62.1242 333.727C53.4411 325.03 50.3421 314.476 47.3573 304.265C45.1437 296.724 43.0729 289.484 38.7885 282.843C37.8316 285.056 36.8891 287.256 35.9322 289.469C38.4482 294.792 40.4749 300.332 41.9875 306.021Z" fill="#6B6BB0"/>
<path d="M3.0133 417.274C8.72073 419.843 14.6292 421.94 20.6794 423.543C30.2765 426.399 39.3595 429.013 46.6001 436.154C53.8408 443.294 56.3971 452.463 59.2105 462.074C60.1246 465.202 61.0528 468.358 62.0668 471.5L68.3936 471.5C67.0939 467.958 66.0371 464.359 64.9946 460.818C61.9526 450.406 59.0678 440.581 50.7132 432.255L50.5418 432.083C50.5418 432.083 50.4276 431.955 50.3562 431.898C42.0587 423.6 32.2331 420.73 21.7934 417.616C15.647 416.014 9.66153 413.849 3.91304 411.147C3.80923 411.094 3.69876 411.056 3.58459 411.033C3.45606 413.218 3.2418 415.217 3.0133 417.274Z" fill="#6B6BB0"/>
<path d="M133.331 175.789C140.6 183.059 143.328 192.199 146.184 201.896C149.383 212.793 152.682 224.061 162.408 233.786C172.133 243.512 183.387 246.797 194.298 249.996C203.895 252.852 212.964 255.465 220.205 262.592C227.445 269.718 230.002 278.915 232.815 288.527C236.014 299.423 239.313 310.692 249.039 320.417L249.224 320.589L249.396 320.774C259.107 330.486 270.375 333.785 281.286 336.984C290.883 339.84 299.966 342.468 307.193 349.58C314.419 356.692 316.89 365.903 319.746 375.515C322.931 386.411 326.23 397.679 335.955 407.405C345.681 417.131 356.949 420.43 367.846 423.614C377.529 426.471 386.683 429.127 393.938 436.396C401.193 443.666 403.935 452.82 406.791 462.503C407.676 465.488 408.562 468.501 409.576 471.5L415.646 471.5C414.36 467.987 413.318 464.359 412.275 460.889C409.233 450.492 406.348 440.652 397.994 432.326C389.639 424 379.871 421.158 369.431 418.045C358.991 414.931 348.666 411.961 339.983 403.278C336.919 400.199 334.326 396.686 332.285 392.852C332.234 392.576 332.148 392.307 332.028 392.053C329.328 386.303 327.162 380.318 325.558 374.172C322.516 363.761 319.632 353.936 311.277 345.61L311.091 345.438L310.92 345.252C302.622 336.955 292.797 334.084 282.357 330.971C272.217 328.001 261.749 324.93 253.095 316.376C244.44 307.821 241.455 297.238 238.485 287.099C235.443 276.688 232.558 266.862 224.203 258.536L224.003 258.35L223.846 258.179C215.549 249.881 205.723 247.011 195.284 243.897C189.136 242.298 183.151 240.132 177.403 237.428C177.154 237.308 176.89 237.222 176.618 237.171C172.777 235.14 169.259 232.551 166.178 229.488C157.495 220.79 154.396 210.236 151.411 200.025C148.426 189.814 145.484 179.788 137.13 171.462C131.032 165.364 124.091 162.194 116.707 159.723C115.346 161.284 113.999 162.851 112.666 164.421C120.463 167.078 127.504 169.963 133.331 175.789Z" fill="#6B6BB0"/>
<path d="M98.6276 210.422C105.897 217.691 108.625 226.846 111.409 236.528C114.594 247.425 117.907 258.693 127.619 268.419C137.33 278.144 148.613 281.443 159.509 284.628C169.121 287.484 178.189 290.112 185.43 297.239C192.67 304.365 195.227 313.548 198.04 323.159C201.239 334.056 204.538 345.338 214.25 355.05L214.45 355.235L214.607 355.407C224.332 365.132 235.6 368.431 246.497 371.616C256.108 374.472 265.177 377.1 272.418 384.227C279.658 391.353 282.215 400.536 285.028 410.147C288.227 421.044 291.526 432.312 301.238 442.038C310.949 451.763 322.231 455.062 333.128 458.261C342.825 461.118 351.965 463.774 359.234 471.029L359.606 471.429L367.104 471.429C365.936 469.863 364.657 468.383 363.276 467.001C354.979 458.704 345.153 455.819 334.713 452.72C324.274 449.621 313.948 446.636 305.251 437.939C302.191 434.857 299.598 431.344 297.553 427.513C297.516 427.24 297.434 426.975 297.31 426.728C294.606 420.975 292.441 414.985 290.841 408.833C287.785 398.436 284.914 388.597 276.559 380.271L276.36 380.099L276.202 379.928C267.905 371.63 258.079 368.745 247.64 365.646C237.5 362.676 227.017 359.591 218.363 351.051C209.708 342.511 206.738 331.914 203.767 321.76C200.711 311.363 197.84 301.523 189.486 293.197L189.3 293.026L189.129 292.854C180.831 284.557 171.006 281.672 160.566 278.573C154.418 276.97 148.432 274.8 142.686 272.089C142.433 271.967 142.163 271.885 141.886 271.846C138.052 269.806 134.539 267.212 131.461 264.149C122.777 255.465 119.678 244.912 116.693 234.686C113.709 224.461 110.767 214.449 102.412 206.123C98.1561 201.941 93.1061 198.654 87.5596 196.455C86.4171 198.054 85.3032 199.668 84.1892 201.268C89.5991 203.256 94.5218 206.377 98.6276 210.422Z" fill="#6B6BB0"/>
<path d="M55.3837 388.825C64.9951 391.681 74.0638 394.309 81.3044 401.435C88.5451 408.562 91.1014 417.759 93.9148 427.371C97.1139 438.267 100.413 449.535 110.124 459.247C110.19 459.305 110.252 459.367 110.31 459.432L110.481 459.604C115.804 464.836 122.169 468.889 129.161 471.5L148.698 471.5C147.027 470.986 145.328 470.486 143.628 469.986C133.489 467.016 123.006 463.931 114.352 455.391C105.697 446.85 102.669 436.254 99.8131 426.071C96.7569 415.66 93.8863 405.82 85.5317 397.508C85.4632 397.459 85.4008 397.401 85.346 397.337L85.1746 397.165C76.8772 388.868 67.0516 385.983 56.6119 382.884C50.4714 381.278 44.4911 379.112 38.7458 376.414C38.4966 376.282 38.2259 376.195 37.9462 376.157C34.1123 374.117 30.5994 371.523 27.5207 368.46C22.2168 362.95 18.2408 356.302 15.8956 349.023C15.0768 352.098 14.2865 355.183 13.5248 358.277C16.0093 363.578 19.3915 368.41 23.5218 372.559C33.2189 382.341 44.487 385.64 55.3837 388.825Z" fill="#6B6BB0"/>
<path d="M19.9941 471.5C18.8119 469.902 17.5136 468.394 16.1096 466.987L15.924 466.816L15.7526 466.63C11.304 462.252 5.99292 458.847 0.157266 456.633C0.157266 458.747 0.0430345 460.917 0.000191479 462.988C4.41319 464.842 8.44265 467.5 11.8824 470.829L12.4964 471.471L19.9941 471.5Z" fill="#6B6BB0"/>
<path d="M284.957 63.052C288.141 73.9487 291.44 85.2168 301.166 94.9424C310.892 104.668 322.16 107.967 333.056 111.152C342.668 114.008 351.736 116.636 358.977 123.762C366.218 130.889 368.774 140.072 371.588 149.683C374.772 160.594 378.086 171.862 387.797 181.573L387.983 181.759L388.154 181.93C397.88 191.656 409.148 194.955 420.044 198.154C429.656 201.01 438.724 203.624 445.965 210.75C453.206 217.877 455.762 227.06 458.576 236.671C461.546 246.839 464.631 257.322 472.857 266.576L472.857 257.122C472.229 256.122 471.629 255.122 471.072 254.094C471.033 253.821 470.951 253.556 470.829 253.309C468.121 247.562 465.95 241.576 464.345 235.428C461.303 225.017 458.433 215.192 450.064 206.866L449.864 206.68L449.707 206.509C441.409 198.211 431.584 195.326 421.144 192.227C411.019 189.257 400.536 186.172 391.882 177.632C383.227 169.091 380.257 158.495 377.286 148.355C374.23 137.944 371.345 128.118 363.005 119.792L362.819 119.621L362.648 119.435C354.35 111.137 344.524 108.253 334.085 105.154C327.944 103.547 321.964 101.382 316.219 98.6841C315.967 98.5581 315.697 98.4713 315.419 98.427C311.585 96.3864 308.072 93.7927 304.994 90.7294C296.311 82.0463 293.211 71.4923 290.212 61.2811C287.884 53.2979 285.642 45.6716 280.986 38.8022L275.688 41.1872C280.472 47.7709 282.615 55.2401 284.957 63.052Z" fill="#6B6BB0"/>
<path d="M237.457 71.6638C244.726 78.933 247.454 88.0731 250.239 97.7701C253.438 108.667 256.737 119.935 266.462 129.646C276.188 139.358 287.456 142.671 298.353 145.87C307.95 148.726 317.018 151.34 324.259 158.466C331.5 165.592 334.028 174.718 336.884 184.401C340.069 195.298 343.368 206.566 353.093 216.291L353.279 216.463L353.45 216.634C363.162 226.36 374.43 229.659 385.341 232.858C394.938 235.714 404.021 238.328 411.247 245.454C418.473 252.58 421.044 261.763 423.872 271.389C427.057 282.286 430.356 293.554 440.081 303.279C449.807 313.005 461.075 316.29 471.971 319.489L472.914 319.774L472.914 313.819C462.917 310.877 452.62 307.735 444.123 299.238C441.055 296.157 438.461 292.639 436.425 288.798C436.378 288.525 436.291 288.261 436.168 288.013C433.468 282.263 431.302 276.278 429.699 270.132C426.657 259.721 423.772 249.896 415.417 241.569L415.232 241.384L415.06 241.212C406.763 232.915 396.937 230.044 386.497 226.931C376.358 223.961 365.889 220.89 357.235 212.335C348.58 203.781 345.595 193.198 342.625 183.059C339.583 172.647 336.698 162.822 328.344 154.496L328.144 154.296L327.987 154.139C319.689 145.841 309.863 142.971 299.424 139.857C293.277 138.258 287.291 136.092 281.543 133.388C281.294 133.268 281.03 133.182 280.758 133.131C276.92 131.096 273.402 128.507 270.318 125.447C261.635 116.75 258.55 106.196 255.551 95.985C252.552 85.7738 249.625 75.7482 241.27 67.4222C239.358 65.4963 237.252 63.7734 234.986 62.2809C233.13 63.3663 231.273 64.4659 229.416 65.5799C232.371 67.2173 235.078 69.2657 237.457 71.6638Z" fill="#6B6BB0"/>
<path d="M202.754 106.367C210.023 113.637 212.751 122.791 215.607 132.474C218.806 143.37 222.105 154.638 231.816 164.364C241.528 174.09 252.81 177.389 263.707 180.573C273.318 183.43 282.387 186.057 289.628 193.184C296.868 200.31 299.424 209.493 302.238 219.105C305.437 230.001 308.736 241.269 318.462 250.995L318.647 251.181L318.804 251.352C328.53 261.063 339.798 264.377 350.709 267.561C360.306 270.418 369.375 273.045 376.615 280.172C383.856 287.298 386.412 296.481 389.226 306.093C392.425 316.989 395.724 328.257 405.45 337.983C415.175 347.709 426.429 351.008 437.326 354.192C447.023 357.049 456.163 359.719 463.432 367.046C467.762 371.571 471.027 377.006 472.986 382.955L472.986 369.859C471.402 367.386 469.554 365.092 467.474 363.018C459.176 354.721 449.35 351.836 438.911 348.737C428.471 345.638 418.146 342.639 409.448 333.956C406.393 330.873 403.805 327.361 401.765 323.53C401.714 323.254 401.628 322.985 401.508 322.73C398.802 316.984 396.636 310.998 395.038 304.85C391.982 294.453 389.112 284.613 380.757 276.287L380.571 276.116L380.4 275.945C372.102 267.647 362.277 264.762 351.837 261.663C341.697 258.707 331.215 255.622 322.575 247.082C313.934 238.542 310.935 227.945 307.965 217.791C304.909 207.394 302.038 197.554 293.683 189.228L293.483 189.042L293.326 188.871C285.029 180.588 275.203 177.703 264.764 174.59C258.614 172.996 252.628 170.83 246.883 168.12C246.631 167.998 246.361 167.916 246.084 167.877C242.25 165.837 238.737 163.243 235.658 160.18C226.975 151.497 223.876 140.943 220.891 130.717C217.906 120.492 214.964 110.48 206.61 102.154C201.953 97.606 196.377 94.105 190.257 91.886C188.444 93.2427 186.644 94.628 184.859 96.0133C191.571 98.4126 197.627 101.24 202.754 106.367Z" fill="#6B6BB0"/>
<path d="M402.478 41.7444C412.09 44.6007 421.158 47.2141 428.399 54.3548C435.64 61.4955 438.196 70.6642 441.009 80.2756C444.194 91.1723 447.493 102.44 457.219 112.166L457.404 112.337L457.576 112.509C462.005 116.911 467.204 120.464 472.914 122.991L472.914 116.45C468.702 114.347 464.847 111.595 461.489 108.296C452.92 99.6411 449.85 89.1586 446.879 79.0188C443.837 68.6077 440.952 58.7821 432.598 50.456L432.426 50.2846C432.355 50.2846 432.312 50.1561 432.241 50.099C423.957 41.8015 414.118 38.9166 403.678 35.8176C397.531 34.218 391.545 32.0522 385.798 29.3481C385.548 29.2284 385.284 29.1419 385.012 29.091C377.091 24.9013 370.657 18.3673 366.589 10.3824C364.675 10.8251 362.762 11.3107 360.877 11.8106C363.313 16.8785 366.586 21.4991 370.559 25.4779C380.313 35.2463 391.582 38.5454 402.478 41.7444Z" fill="#6B6BB0"/>
<path d="M461.689 455.648C453.006 446.951 449.907 436.397 446.922 426.185C443.937 415.974 440.995 405.949 432.641 397.623C424.286 389.297 414.503 386.44 404.078 383.341C393.881 380.342 383.313 377.257 374.63 368.574C371.562 365.494 368.968 361.976 366.932 358.135C366.893 357.862 366.811 357.597 366.689 357.349C363.985 351.6 361.814 345.615 360.205 339.469C357.163 329.058 354.293 319.232 345.924 310.906C345.869 310.837 345.807 310.775 345.738 310.72L345.581 310.549C337.284 302.251 327.444 299.367 317.019 296.268C306.879 293.297 296.396 290.227 287.742 281.672C279.087 273.117 276.117 262.535 273.132 252.395C270.09 241.984 267.205 232.158 258.85 223.832L258.665 223.647L258.508 223.475C250.21 215.178 240.37 212.293 229.945 209.194C223.804 207.588 217.824 205.422 212.079 202.724C211.827 202.598 211.557 202.512 211.279 202.467C207.445 200.427 203.932 197.833 200.854 194.77C192.156 186.087 189.072 175.533 186.073 165.322C183.073 155.11 180.146 145.085 171.791 136.759C165.479 130.446 158.281 127.262 150.612 124.762C149.012 126.19 147.398 127.733 145.827 129.247C153.954 131.717 161.537 134.588 167.764 140.8C175.019 148.055 177.761 157.21 180.617 166.892C183.802 177.789 187.101 189.071 196.826 198.783C206.552 208.494 217.82 211.807 228.717 215.006C238.328 217.863 247.397 220.476 254.623 227.603C261.85 234.729 264.434 243.912 267.248 253.538C270.433 264.434 273.732 275.702 283.457 285.414L283.643 285.599L284.043 286.114C293.768 295.839 305.036 299.138 315.933 302.337C325.544 305.193 334.613 307.807 341.84 314.933C349.066 322.06 351.651 331.243 354.464 340.854C357.649 351.765 360.948 363.033 370.674 372.744C380.399 382.456 391.667 385.769 402.564 388.968C412.247 391.824 421.401 394.481 428.671 401.821C435.94 409.162 438.667 418.231 441.524 427.928C444.709 438.824 448.022 450.092 457.733 459.804C462.142 464.191 467.316 467.734 473 470.258L473 463.874C468.821 461.743 465.004 458.967 461.689 455.648Z" fill="#6B6BB0"/>
<path d="M319.66 28.3485C322.859 39.2452 326.159 50.5132 335.87 60.2388C345.581 69.9644 356.863 73.2635 367.76 76.4482C377.372 79.3045 386.455 81.9323 393.681 89.0587C400.907 96.1851 403.478 105.368 406.291 114.979C409.49 125.876 412.789 137.144 422.515 146.87L422.701 147.041L422.858 147.227C432.583 156.938 443.851 160.237 454.762 163.436C461.175 165.321 467.359 167.135 472.914 170.263L472.914 163.608C467.458 161.128 461.801 159.117 456.005 157.595C445.865 154.625 435.397 151.554 426.742 143.014C418.088 134.473 415.103 123.877 412.132 113.723C409.09 103.312 406.206 93.4859 397.851 85.1599L397.665 84.9885L397.494 84.8028C389.196 76.5053 379.371 73.6348 368.931 70.5214C362.789 68.9215 356.808 66.7558 351.065 64.052C350.817 63.9324 350.552 63.8506 350.28 63.8092C346.439 61.7729 342.921 59.1789 339.84 56.1115C331.157 47.4284 328.058 36.8602 325.073 26.649C324.645 25.2209 324.23 23.7927 323.802 22.3646L318.389 24.1926L319.66 28.3485Z" fill="#6B6BB0"/>
<path d="M463.103 19.6371C467.614 24.4611 470.969 30.2483 472.914 36.5605L472.914 22.7361C471.303 20.2228 469.432 17.8868 467.33 15.7668C467.261 15.7173 467.199 15.6598 467.144 15.5954L466.973 15.4241C458.675 7.12657 448.85 4.24172 438.41 1.14266L434.526 0.000168305C429.913 0.357201 425.328 0.814182 420.758 1.31403C426.093 3.59943 431.581 5.5083 437.182 7.02659C446.85 9.84002 455.862 12.5107 463.103 19.6371Z" fill="#6B6BB0"/>
</svg>
