<svg width="253" height="411" viewBox="0 0 253 411" fill="none" xmlns="http://www.w3.org/2000/svg">
<path d="M374 0.0484314L374 91.7836L246.609 91.7836C210.403 91.7836 175.68 103.769 150.078 125.103C124.476 146.437 110.093 175.372 110.093 205.542C110.093 235.713 124.476 264.648 150.078 285.982C175.679 307.316 210.403 319.301 246.609 319.301L374 319.301L374 411L246.609 411C181.204 411 118.478 389.349 72.23 350.81C25.9819 312.272 -1.73169e-05 260.002 -1.25522e-05 205.5C-7.78748e-06 150.998 25.9819 98.7283 72.2301 60.1896C118.478 21.6509 181.204 1.36628e-05 246.609 1.93807e-05L374 0.0484314Z" fill="#766DFA"/>
</svg>
