<svg width="62" height="112" viewBox="0 0 62 112" fill="none" xmlns="http://www.w3.org/2000/svg">
<path d="M57.4789 2.9104C57.475 5.31621 56.4147 7.25365 55.2867 9.3127C54.0369 11.5745 52.7601 13.9274 52.7556 17.039C52.751 20.1505 54.032 22.4926 55.2809 24.7555C56.4017 26.8091 57.4602 28.7463 57.4597 31.1521C57.4592 33.5579 56.3955 35.4953 55.2675 37.5544C54.0178 39.8162 52.7409 42.1691 52.7381 45.2789C52.7397 46.4962 52.9364 47.705 53.3206 48.8593C53.443 49.2272 53.5766 49.5861 53.7215 49.936L53.7652 50.0373L53.9304 50.4119L54.0618 50.6954L54.1393 50.8642L54.3246 51.2422L54.3398 51.2743C54.6347 51.8598 54.9432 52.4285 55.2499 52.9887C56.3707 55.0423 57.4292 56.9795 57.427 59.3836C57.4248 61.7878 56.3628 63.7269 55.2382 65.7826C54.927 66.3468 54.6141 66.9227 54.3165 67.5139C54.2488 67.6445 54.1828 67.778 54.1186 67.9142L54.0509 68.0595L53.9088 68.3635C53.858 68.4783 53.8039 68.5966 53.7599 68.708C53.7396 68.7519 53.721 68.7942 53.7024 68.8398C53.5569 69.1877 53.4243 69.5452 53.3047 69.9122L53.2928 69.9241C52.9053 71.0777 52.7052 72.2857 52.7003 73.5021C52.6992 76.6136 53.9852 78.9642 55.2189 81.2254C56.3397 83.279 57.3999 85.2178 57.3977 87.622C57.3955 90.0261 56.3334 91.9652 55.2072 94.0226C53.9557 96.286 52.6789 98.639 52.6744 101.751C52.6698 104.862 53.9541 107.245 55.1997 109.504C55.5671 110.176 55.9261 110.836 56.2412 111.499L56.956 110.784C56.6679 110.202 56.3544 109.628 56.0358 109.043C54.8543 106.881 53.6323 104.645 53.635 101.778C53.6376 98.9116 54.8637 96.6735 56.0492 94.5097C57.2346 92.3459 58.3542 90.2987 58.3549 87.6498C58.3556 85.0008 57.2433 82.959 56.0618 80.7941C54.8803 78.6291 53.6583 76.3966 53.6609 73.5299C53.6672 72.3608 53.8685 71.2006 54.2567 70.0971C54.2619 70.0793 54.2681 70.0618 54.2753 70.0447C54.7682 68.7355 55.3703 67.4699 56.0751 66.2613C57.2589 64.0958 58.3801 62.0503 58.3826 59.403C58.385 56.7558 57.2675 54.7123 56.0877 52.549C55.3862 51.345 54.7876 50.0839 54.2982 48.779L54.2763 48.7132C53.8906 47.6114 53.6914 46.4528 53.6869 45.2848C53.6895 42.4181 54.9156 40.18 56.1011 38.0128C57.2865 35.8457 58.4061 33.8052 58.4085 31.1546C58.4109 28.504 57.2935 26.4639 56.1137 24.3006C54.9339 22.1373 53.7102 19.9031 53.7128 17.0364C53.7155 14.1697 54.9415 11.9316 56.127 9.76777C57.3125 7.60399 58.432 5.55676 58.4328 2.90783C58.434 2.75814 58.4308 2.60956 58.423 2.46213L57.3317 1.37082C57.4287 1.87822 57.4779 2.39365 57.4789 2.9104Z" fill="#FFC844"/>
<path d="M66.5452 24.7518C67.666 26.8054 68.7244 28.7426 68.7239 31.1484C68.7234 33.5542 67.6597 35.4916 66.5334 37.549C65.2837 39.8108 64.0052 42.1654 64.0023 45.2752C64.0039 46.4925 64.2006 47.7013 64.5849 48.8556C64.7044 49.2252 64.8391 49.583 64.9874 49.934L65.0261 50.0201C65.08 50.1517 65.1356 50.2817 65.1946 50.4116L65.321 50.6833L65.4069 50.8639L65.5838 51.2301L65.6074 51.2773C65.9007 51.8612 66.2091 52.4265 66.5142 52.985C67.635 55.0386 68.6934 56.9758 68.6912 59.38C68.689 61.7841 67.627 63.7232 66.5007 65.7806C66.1219 66.4731 65.7363 67.1792 65.3811 67.9122C65.3608 67.9595 65.3371 68.0068 65.3168 68.0541L65.173 68.3598L65.0242 68.701L64.9666 68.8361C64.8194 69.1857 64.6874 69.5437 64.5655 69.9119C64.5623 69.9143 64.5595 69.9171 64.5571 69.9203C64.1707 71.0754 63.9718 72.2845 63.9679 73.5018C63.9651 76.6116 65.2528 78.9639 66.4848 81.2233C67.6057 83.277 68.6658 85.2158 68.6636 87.62C68.6614 90.0241 67.5994 91.9632 66.4731 94.0206C65.2217 96.284 63.9448 98.637 63.9403 101.749C63.9439 102.371 63.9998 102.992 64.1074 103.605L64.9523 102.761C64.9174 102.424 64.8996 102.086 64.8992 101.748C64.9019 98.8809 66.1279 96.6428 67.3134 94.479C68.4989 92.3152 69.6184 90.268 69.6225 87.6191C69.6267 84.9701 68.5075 82.9283 67.326 80.7634C66.1445 78.5984 64.9242 76.3676 64.9252 73.4992C64.9324 72.3301 65.1337 71.1701 65.5209 70.0663C65.5328 70.0545 65.5345 70.0292 65.5412 70.0089C66.0322 68.7008 66.6338 67.4368 67.3394 66.2306C68.5232 64.0651 69.6444 62.0195 69.6468 59.3723C69.6492 56.7251 68.5318 54.6816 67.352 52.5183C66.6491 51.3139 66.0505 50.0515 65.5625 48.7449L65.5389 48.6842C65.1549 47.5814 64.9563 46.4224 64.9511 45.2541C64.9555 42.3857 66.1798 40.1493 67.3653 37.9855C68.5508 35.8217 69.6703 33.7745 69.6744 31.1255C69.6786 28.4766 68.5594 26.4348 67.3779 24.2698C66.1964 22.1049 64.9745 19.8724 64.9771 17.0057C64.981 14.6167 65.832 12.6626 66.8011 10.8265L66.096 10.1215C65.0136 12.1383 64.0257 14.2766 64.0232 17.0048C64.0254 20.14 65.3047 22.4839 66.5452 24.7518Z" fill="#FFC844"/>
<path d="M79.9954 31.1382C79.9932 33.5423 78.9311 35.4815 77.8048 37.5388C76.5534 39.8023 75.2766 42.1553 75.2738 45.2651C75.2754 46.4823 75.4721 47.6911 75.8563 48.8454L75.8647 48.8538C75.9848 49.2218 76.119 49.5813 76.2672 49.9323L76.306 50.0184C76.3599 50.15 76.4155 50.2799 76.4745 50.4099L76.6025 50.6833L76.6851 50.8605L76.8688 51.2334L76.8856 51.2705C77.1789 51.8544 77.489 52.4248 77.794 52.9833C78.9149 55.0369 79.9733 56.9741 79.9728 59.3765C79.9723 61.779 78.9086 63.7198 77.7789 65.7805C77.4711 66.3447 77.1599 66.9156 76.8623 67.5068L76.666 67.9054C76.6441 67.9544 76.6221 68.0034 76.5984 68.0507L76.4563 68.3547C76.4056 68.4696 76.3531 68.5895 76.304 68.7026C76.2871 68.7465 76.2685 68.7888 76.2499 68.831C76.1044 69.1789 75.969 69.5369 75.8522 69.9034L75.8403 69.9152C75.4524 71.0693 75.2529 72.2781 75.2495 73.495C75.2466 76.6048 76.5259 78.9487 77.7664 81.2166C78.8872 83.2702 79.9474 85.209 79.9452 87.6132C79.9451 87.6706 79.94 87.7263 79.9399 87.7837L80.866 86.8577C80.6807 84.5668 79.6711 82.709 78.6042 80.7566C77.4227 78.595 76.2025 76.3608 76.2034 73.4924C76.2106 72.3234 76.4119 71.1633 76.7991 70.0596L76.8178 70.0072C77.3107 68.698 77.9127 67.4325 78.6176 66.2238C79.8031 64.0566 80.9226 62.0128 80.9267 59.3639C80.9291 56.7166 79.8151 54.6731 78.6319 52.5098C77.9306 51.3066 77.3325 50.046 76.8441 48.7415L76.8205 48.674C76.4353 47.5721 76.2361 46.4136 76.231 45.2456C76.2354 42.3772 77.4597 40.1408 78.6469 37.9753C79.8341 35.8099 80.9502 33.766 80.9543 31.1171C80.9585 28.4682 79.8393 26.4264 78.6578 24.2614C78.079 23.2473 77.5608 22.1998 77.1058 21.1243L75.6198 19.6383C76.0756 21.5237 76.957 23.1419 77.82 24.7214C78.9442 26.7885 79.9976 28.7341 79.9954 31.1382Z" fill="#FFC844"/>
<path d="M20.4413 70.1365L20.4582 70.0825C20.9503 68.7732 21.553 67.5081 22.2597 66.3007C23.4435 64.1353 24.5647 62.0897 24.5654 59.4408C24.5696 56.7919 23.4521 54.7484 22.2706 52.5834C21.5681 51.3788 20.9695 50.1165 20.4811 48.81L20.4592 48.751C20.073 47.6488 19.8743 46.4894 19.8715 45.3209C19.8741 42.4542 21.1002 40.2161 22.284 38.0506C23.4356 35.951 24.5196 33.9629 24.5861 31.4304L23.5333 32.4832C23.2396 34.3186 22.3653 35.9182 21.452 37.6006C20.2023 39.8624 18.9272 42.217 18.9226 45.3285C18.9258 46.5452 19.123 47.7533 19.5069 48.9071L19.517 48.9173C19.6382 49.2852 19.7729 49.643 19.9178 49.994L19.9633 50.1003L20.1234 50.4699L20.2582 50.7568L20.334 50.9205L20.521 51.3002L20.5345 51.3306C20.8294 51.9161 21.1395 52.4865 21.4446 53.0484C22.5654 55.0987 23.6256 57.0375 23.6234 59.4417C23.6212 61.8458 22.5591 63.7849 21.4312 65.844C21.1234 66.4048 20.8122 66.9757 20.5162 67.5652L20.5044 67.577C20.4384 67.7071 20.3741 67.8354 20.3132 67.9672C20.2862 68.0178 20.2642 68.0702 20.2405 68.1209C20.1931 68.2188 20.1475 68.3185 20.1018 68.4181C20.0561 68.5178 19.9986 68.6529 19.9478 68.7711L19.8954 68.8944C19.7499 69.2423 19.6145 69.6004 19.496 69.9685L19.4858 69.9787C19.1009 71.1329 18.9021 72.3407 18.8967 73.5567C18.8977 74.0219 18.9277 74.4864 18.9866 74.9478L20.1909 76.1521C19.9667 75.3051 19.8529 74.4324 19.8523 73.5558C19.8578 72.3916 20.0569 71.2361 20.4413 70.1365Z" fill="#FFC844"/>
<path d="M32.7286 24.7809C33.8494 26.8345 34.9096 28.7734 34.9074 31.1775C34.9052 33.5817 33.8448 35.5225 32.7168 37.5781C31.4654 39.8416 30.1903 42.1962 30.1857 45.3077C30.1889 46.5244 30.3861 47.7325 30.77 48.8864C30.8912 49.2543 31.026 49.6121 31.1708 49.9631L31.2096 50.0492C31.2652 50.1825 31.3207 50.3125 31.3797 50.4424L31.5061 50.7141L31.5887 50.8947L31.769 51.2609L31.7909 51.3064C32.0841 51.8903 32.3925 52.459 32.6976 53.0175C33.8201 55.0695 34.8786 57.0066 34.8764 59.4108C34.8742 61.8149 33.8121 63.754 32.6841 65.8097C32.3764 66.3739 32.0652 66.9482 31.7675 67.5394C31.7016 67.6694 31.6373 67.8012 31.573 67.9363C31.5493 67.9836 31.5256 68.0342 31.5019 68.0849L31.3632 68.3855C31.3108 68.5021 31.26 68.6203 31.211 68.7368C31.1923 68.7791 31.1738 68.8179 31.1568 68.8618C31.0113 69.2098 30.8759 69.5678 30.7574 69.936L30.7473 69.9461C30.3613 71.1007 30.1618 72.3091 30.1564 73.5258C30.1553 76.6373 31.4413 78.9879 32.675 81.2491C33.7959 83.3027 34.8526 85.2416 34.8521 87.6474C34.8453 88.567 34.6929 89.48 34.4005 90.3524L35.1528 91.1047C35.5774 89.9999 35.7987 88.8277 35.806 87.6448C35.8101 84.9959 34.6943 82.9541 33.5128 80.7891C32.3313 78.6241 31.1094 76.3916 31.112 73.5249C31.1194 72.3664 31.3185 71.2167 31.701 70.1225L31.7196 70.0668C32.2115 68.7582 32.8136 67.4937 33.5194 66.2867C34.7032 64.1213 35.8244 62.0757 35.8252 59.4268C35.8276 56.7796 34.7101 54.7361 33.5303 52.5728C32.8277 51.3677 32.228 50.1055 31.7375 48.7994L31.7173 48.7386C31.3319 47.6363 31.1332 46.477 31.1295 45.3086C31.1321 42.4419 32.3582 40.2037 33.542 38.0383C34.7258 35.8728 35.8487 33.8289 35.8494 31.18C35.8502 28.5311 34.7361 26.4876 33.5563 24.3243C33.3355 23.921 33.113 23.516 32.899 23.1026L32.1909 23.8106L32.7286 24.7809Z" fill="#FFC844"/>
<path d="M13.2948 59.4507C13.2972 56.8001 12.1815 54.7583 11 52.5933C10.2979 51.3888 9.69872 50.1271 9.20878 48.8216L9.18857 48.7608C9.01839 48.2616 8.8829 47.7513 8.78309 47.2333L7.97873 48.0377C8.05275 48.3347 8.1369 48.6251 8.2295 48.9103L8.23961 48.9204C8.36082 49.2883 8.49556 49.6461 8.64043 49.9972L8.68256 50.0934L8.84766 50.4748L8.97739 50.7532L9.05827 50.9253L9.24026 51.3L9.2605 51.3371C9.55203 51.9227 9.86047 52.4913 10.1672 53.0516C11.288 55.1018 12.3482 57.0407 12.346 59.4448C12.3438 61.8489 11.2817 63.788 10.1538 65.8471L10.0557 66.0261L10.7607 66.7312C10.8385 66.5893 10.9146 66.4457 10.9924 66.3039C12.1728 64.1451 13.2941 62.0996 13.2948 59.4507Z" fill="#FFC844"/>
<path d="M0.250509 55.7619C0.358327 56.0151 0.457708 56.2699 0.54695 56.5282L1.88623 57.8674C1.70535 56.8879 1.40042 55.9357 0.978829 55.0336L0.250509 55.7619Z" fill="#FFC844"/>
<path d="M41.4886 17.0467C41.4874 20.1582 42.7734 22.5088 44.0071 24.77C45.1263 26.8219 46.1864 28.7607 46.1859 31.1665C46.1854 33.5724 45.1217 35.5098 43.9954 37.5672C42.744 39.8306 41.4672 42.1836 41.4626 45.2951C41.4657 46.5118 41.663 47.7199 42.0468 48.8738C42.1664 49.2434 42.3011 49.6012 42.4494 49.9522L42.4847 50.0349C42.5398 50.1688 42.597 50.3004 42.6566 50.4298L42.7829 50.7015L42.8689 50.8821C42.9262 51.0069 42.9868 51.1284 43.0475 51.2499L43.0694 51.2921C43.3609 51.8777 43.6711 52.4447 43.9745 53.0049C45.097 55.0568 46.1554 56.994 46.1532 59.3981C46.151 61.8023 45.089 63.7414 43.961 65.8004C43.5822 66.493 43.1983 67.1973 42.8431 67.9304L42.7771 68.0672C42.7281 68.1702 42.679 68.2733 42.6316 68.378C42.5843 68.4827 42.5268 68.6111 42.4828 68.7225C42.4642 68.7648 42.4438 68.8087 42.4269 68.8526C42.2803 69.2016 42.1466 69.5602 42.0258 69.9284C41.6398 71.083 41.4404 72.2914 41.435 73.5081C41.4338 76.6196 42.7198 78.9702 43.9536 81.2314C45.0744 83.285 46.1346 85.2239 46.1324 87.628C46.1301 90.0321 45.0681 91.9712 43.9401 94.0303C43.201 95.2962 42.5716 96.623 42.0591 97.9961L42.8198 98.7568C43.2855 97.215 44.0465 95.8434 44.7788 94.4871C45.9626 92.3216 47.0838 90.276 47.0845 87.6271C47.0853 84.9782 45.9729 82.9364 44.7914 80.7714C43.6099 78.6064 42.3879 76.3739 42.3906 73.5072C42.3977 72.3382 42.5991 71.1781 42.9863 70.0744L43.0049 70.0186C43.4968 68.7101 44.0989 67.4456 44.8047 66.2386C45.9885 64.0731 47.1097 62.0276 47.1122 59.3804C47.1146 56.7331 45.9971 54.6896 44.8173 52.5263C44.1159 51.3224 43.5172 50.0613 43.0278 48.7563L43.0043 48.6922C42.6189 47.5898 42.4203 46.4306 42.4165 45.2622C42.4192 42.3954 43.6452 40.1573 44.829 37.9919C46.0128 35.8264 47.1357 33.7825 47.1381 31.1319C47.1406 28.4813 46.0231 26.4412 44.8433 24.2779C43.6635 22.1146 42.4398 19.8804 42.4425 17.0137C42.4617 15.4694 42.8023 13.9454 43.4427 12.5388L41.8813 14.1002C41.6188 15.0606 41.4867 16.0516 41.4886 17.0467Z" fill="#FFC844"/>
</svg>
