<svg width="65" height="139" viewBox="0 0 65 139" fill="none" xmlns="http://www.w3.org/2000/svg">
<path d="M51.0891 85.5875C50.3941 83.6228 49.7272 81.7771 50.0398 79.6888C50.3525 77.6005 51.5835 76.0482 52.8575 74.3985C54.1647 72.7137 55.499 70.9651 56.077 68.5554L55.108 67.2231L55.0683 67.5419C54.6611 70.0403 53.2728 71.8355 51.9315 73.5745C50.5534 75.3586 49.2545 77.0447 48.8764 79.4669L48.8686 79.5167C48.8672 79.5342 48.8638 79.5515 48.8583 79.5682C48.4797 81.9797 49.1984 83.9822 49.9497 86.1152C50.4336 87.3436 50.8014 88.6146 51.0482 89.9116L52.1452 89.1137C51.8803 87.914 51.5273 86.7354 51.0891 85.5875Z" fill="#001705"/>
<path d="M42.1733 91.3494C42.6191 88.5256 41.796 86.2282 41.0016 84.0055C40.3067 82.0408 39.6373 80.1969 39.9499 78.1086C40.2626 76.0203 41.4961 74.4662 42.7677 72.8183C44.2082 70.9484 45.6989 69.0163 46.1464 66.1949L46.1501 66.1445L46.1604 66.093C46.6062 63.2693 45.7831 60.9719 44.9887 58.7492C44.2938 56.7845 43.6244 54.9406 43.9395 52.8505C43.9795 52.602 44.0333 52.3558 44.1005 52.1131L43.2275 50.9129C43.0181 51.4633 42.8661 52.0339 42.7739 52.6155L42.7677 52.6677L42.7575 52.7192C42.3772 55.1283 43.0959 57.1308 43.8489 59.2662C44.5892 61.3338 45.3546 63.4712 44.9741 65.9759C44.5935 68.4806 43.1792 70.2653 41.838 72.0043C40.4616 73.7908 39.161 75.4745 38.7828 77.8967L38.7761 77.953L38.7665 78.0004C38.3861 80.4095 39.1049 82.412 39.8578 84.5474C40.336 85.7624 40.7017 87.0187 40.9504 88.3004C40.9614 88.3578 40.9797 88.4136 41.005 88.4663C41.1304 89.3596 41.1247 90.2664 40.988 91.158C40.5876 93.6808 39.1925 95.492 37.841 97.2421C36.8199 98.5683 35.8394 99.8393 35.2461 101.39L37.433 99.7998C37.8452 99.1807 38.3094 98.5825 38.7803 97.9683C40.2392 96.1035 41.7299 94.1714 42.1733 91.3494Z" fill="#001705"/>
<path d="M17.607 29.223C18.3537 31.3043 19.123 33.4572 18.7268 35.9806C18.5824 36.8719 18.3077 37.7371 17.9113 38.5484C17.8722 38.5905 17.8384 38.6373 17.8107 38.6877C17.1752 39.8448 16.4339 40.9407 15.5962 41.961C14.2198 43.7476 12.9192 45.4313 12.541 47.8535L12.5349 47.9057L12.5247 47.9572C12.1443 50.3663 12.863 52.3688 13.616 54.5042C14.3563 56.5718 15.12 58.7067 14.7419 61.2097C14.3637 63.7126 12.9464 65.5033 11.6051 67.2422C10.2288 69.0288 8.92813 70.7125 8.55 73.1347L8.54387 73.1869L8.53363 73.2384C8.15331 75.6475 8.86962 77.6517 9.625 79.7854C10.107 81.0135 10.4741 82.2836 10.7217 83.5794C10.7327 83.6368 10.7511 83.6926 10.7763 83.7453C10.902 84.6392 10.8955 85.5467 10.7569 86.4387C10.359 88.9598 8.96383 90.771 7.61234 92.5211C6.26086 94.2711 4.93534 95.9913 4.55721 98.4135C4.17908 100.836 4.89495 102.829 5.64858 104.961C6.40221 107.092 7.16457 109.195 6.76592 111.72C6.36728 114.245 4.9728 116.052 3.62132 117.802L3.52267 117.929C4.1023 117.838 4.67954 117.735 5.25437 117.62C6.45353 116.014 7.5656 114.273 7.93937 111.905C8.38515 109.081 7.56213 106.784 6.76769 104.561C6.06229 102.582 5.39137 100.721 5.72455 98.6105C6.05774 96.5 7.26061 94.9241 8.54772 93.2722C9.99239 91.403 11.4814 89.4685 11.9265 86.6489C12.3716 83.8292 11.5492 81.5278 10.7548 79.305C10.0599 77.3403 9.38874 75.494 9.70556 73.4064C10.0224 71.3187 11.2492 69.7657 12.5209 68.1178C13.9614 66.2479 15.4521 64.3158 15.8996 61.4945C15.8996 61.4769 15.9016 61.4594 15.9057 61.4423L15.9136 61.3925C16.3594 58.5688 15.5363 56.2714 14.7419 54.0487C14.047 52.084 13.3758 50.2377 13.6909 48.1476C14.006 46.0576 15.2364 44.5094 16.508 42.8615C17.9485 40.9916 19.4392 39.0595 19.885 36.2357C20.3308 33.412 19.5071 31.1188 18.7126 28.8961C18.0072 26.9169 17.3363 25.0558 17.6815 22.9365C17.9433 21.2779 18.756 19.9527 19.7031 18.6509L18.9716 17.6451C17.8265 19.1643 16.8262 20.6957 16.4956 22.7493C16.1293 25.0969 16.8456 27.1011 17.607 29.223Z" fill="#001705"/>
<path d="M28.7177 96.3821C30.1582 94.5122 31.6489 92.5802 32.0965 89.7588C32.544 86.9374 31.7192 84.6377 30.9206 82.4143C30.2274 80.452 29.5605 78.6064 29.8731 76.5181C30.1858 74.4298 31.4168 72.8774 32.6884 71.2295C34.1314 69.3578 35.6221 67.4257 36.0655 64.6037L36.0727 64.5581L36.0836 64.5025C36.5293 61.6787 35.7063 59.3814 34.9101 57.1562C34.2169 55.1939 33.5458 53.3476 33.8602 51.2617C34.1747 49.1758 35.4039 47.6211 36.6755 45.9731C37.181 45.3156 37.6912 44.6545 38.1617 43.949L37.3847 42.8807C36.8832 43.6749 36.3041 44.4228 35.7502 45.145C34.3745 46.9273 33.0756 48.6135 32.6951 51.0374L32.6866 51.0913L32.6787 51.1411C32.2984 53.5502 33.0147 55.5545 33.7701 57.6881C34.5104 59.7557 35.2734 61.8948 34.8935 64.3953C34.5136 66.8959 33.1131 68.6743 31.7579 70.3941C30.3822 72.1765 29.0833 73.8626 28.7027 76.2865C28.6989 76.3043 28.696 76.3223 28.6942 76.3404L28.6864 76.3902C28.306 78.7993 29.0224 80.8036 29.7777 82.9372C30.259 84.1665 30.6267 85.4373 30.8762 86.7336C30.8843 86.7908 30.9022 86.8461 30.929 86.8971C31.0563 87.7917 31.0504 88.7001 30.9114 89.593C30.5135 92.114 29.1183 93.9252 27.7668 95.6753C26.4153 97.4254 25.0874 99.1473 24.7117 101.568C24.336 103.988 25.0477 105.981 25.8031 108.115L25.8578 108.266L26.8589 107.538C26.1762 105.63 25.5563 103.809 25.879 101.765C26.2253 99.6117 27.4376 98.0436 28.7177 96.3821Z" fill="#001705"/>
<path d="M58.9286 81.0963L58.9184 81.1478C58.7644 82.1415 58.7798 83.1541 58.9641 84.1426L60.0875 83.3255C60.0018 82.6453 60.0083 81.9566 60.1069 81.278C60.3855 79.6072 61.2198 78.2664 62.1824 76.9606L61.4212 75.914C60.2713 77.4367 59.2662 78.9715 58.9332 81.0269C58.9297 81.0499 58.9282 81.0731 58.9286 81.0963Z" fill="#001705"/>
<path d="M16.8576 106.08C16.154 104.103 15.4813 102.24 15.8282 100.123C16.1752 98.006 17.3643 96.4364 18.6451 94.7708C20.0873 92.9033 21.5781 90.9712 22.0238 88.1474C22.4696 85.3237 21.6466 83.0263 20.8497 80.8054C20.1566 78.843 19.4878 76.995 19.7998 74.9109C20.1119 72.8267 21.3442 71.266 22.6158 69.6181C24.0581 67.7506 25.5471 65.8161 25.9946 62.9948L26.0007 62.9426L26.011 62.8911C26.4561 60.0715 25.6337 57.77 24.8368 55.549C24.1419 53.5843 23.4749 51.7387 23.7876 49.6504C24.1003 47.5621 25.3313 46.0097 26.6029 44.3618C28.0452 42.4943 29.5359 40.5622 29.9817 37.7385C30.34 35.4555 29.8727 33.516 29.2517 31.6883L26.9122 28.4716C27.1293 29.2496 27.4013 30.0171 27.6813 30.8008C28.4279 32.8821 29.1997 35.0332 28.801 37.5584C28.658 38.4497 28.3847 39.3152 27.9897 40.1269C27.9478 40.1674 27.9125 40.2141 27.885 40.2655C27.2505 41.4236 26.5097 42.5203 25.6721 43.5412C24.294 45.3254 22.9951 47.0115 22.617 49.4337L22.6091 49.4835L22.5989 49.535C22.221 51.9423 22.9373 53.9466 23.6902 56.082C24.4288 58.1472 25.1942 60.2845 24.8167 62.7834C24.4393 65.2822 23.0206 67.0811 21.6793 68.8201C20.3012 70.6042 19.0023 72.2903 18.6242 74.7125L18.6181 74.7647L18.6061 74.8138C18.2282 77.2211 18.9462 79.2278 19.6975 81.3608C20.18 82.5887 20.5471 83.8589 20.7942 85.1548C20.8046 85.2121 20.8238 85.2675 20.8512 85.3189C20.9769 86.2128 20.9704 87.1204 20.8318 88.0124C20.4332 90.5376 19.0363 92.3464 17.6866 94.0989C16.3368 95.8513 15.0096 97.5691 14.6314 99.9913C14.2533 102.414 14.9698 104.403 15.7228 106.538C16.4758 108.674 17.249 110.721 16.8703 113.228C16.8408 113.415 16.8061 113.594 16.7649 113.775C17.2061 113.564 17.6456 113.351 18.0799 113.13C18.4168 110.444 17.6331 108.221 16.8576 106.08Z" fill="#001705"/>
<path d="M-12.2034 108.651C-11.7576 105.827 -12.5782 103.528 -13.3751 101.307C-14.0787 99.3306 -14.7514 97.4671 -14.4182 95.3565C-14.085 93.246 -12.8821 91.6701 -11.5926 90.0164C-10.1503 88.149 -8.65963 86.2169 -8.21385 83.3931C-7.76808 80.5693 -8.59352 78.2737 -9.38796 76.051C-10.0829 74.0863 -10.7499 72.2407 -10.4372 70.1524C-10.1245 68.0641 -8.8935 66.5117 -7.62188 64.8638C-6.17961 62.9963 -4.69064 61.0618 -4.24312 58.2405L-4.23701 58.1883L-4.22675 58.1368C-3.78338 55.3148 -4.60642 53.0174 -5.40086 50.7947C-6.09578 48.83 -6.7645 46.982 -6.45008 44.896C-6.13566 42.8101 -4.8994 41.265 -3.63783 39.6134C-2.19556 37.7459 -0.704845 35.8138 -0.25907 32.99C0.186708 30.1662 -0.636328 27.8689 -1.43317 25.6479C-2.13682 23.6712 -2.80947 21.8077 -2.47629 19.6971C-2.14311 17.5865 -0.937838 16.0089 0.349271 14.357C1.79154 12.4895 3.28051 10.5551 3.72803 7.73369C3.96183 6.15065 3.85147 4.5358 3.40447 2.99929L2.36743 3.75355C2.67808 4.99336 2.74247 6.28208 2.55697 7.5467C2.15898 10.0678 0.761448 11.8807 -0.590041 13.6308C-1.94152 15.3808 -3.26704 17.101 -3.64517 19.5232C-4.02331 21.9454 -3.30503 23.9372 -2.55381 26.0703C-1.80258 28.2033 -1.03607 30.3068 -1.43405 32.8279C-1.57705 33.7192 -1.85042 34.5846 -2.24538 35.3963C-2.28724 35.4368 -2.32258 35.4836 -2.35013 35.5349C-2.98463 36.6931 -3.72543 37.7897 -4.56295 38.8107C-5.94106 40.5948 -7.2417 42.2785 -7.61809 44.7032L-7.6314 44.7202L-7.64166 44.7717C-8.01957 47.1791 -7.30327 49.1833 -6.55029 51.3187C-5.80998 53.3863 -5.04457 55.5237 -5.42204 58.0225C-5.79952 60.5213 -7.21995 62.3178 -8.55943 64.0592C-9.93754 65.8433 -11.2364 67.5294 -11.6146 69.9516L-11.6224 70.0014L-11.6244 70.0138C-12.0047 72.4229 -11.2843 74.4279 -10.533 76.5609C-10.051 77.7889 -9.68387 79.059 -9.43629 80.3549C-9.42531 80.4123 -9.40697 80.468 -9.38172 80.5207C-9.2551 81.4139 -9.26081 82.3209 -9.39867 83.2124C-9.79732 85.7377 -11.1942 87.5464 -12.5439 89.2989C-13.8937 91.0514 -15.2209 92.7692 -15.5991 95.1914C-15.9772 97.6136 -15.2631 99.6047 -14.5077 101.738C-13.7628 103.817 -12.9917 105.973 -13.3897 108.494C-13.7877 111.015 -15.1852 112.828 -16.535 114.58C-17.0343 115.226 -17.5233 115.861 -17.9611 116.52C-17.5608 116.637 -17.1558 116.749 -16.7518 116.856C-16.3939 116.338 -15.9963 115.825 -15.595 115.302C-14.1375 113.405 -12.6467 111.473 -12.2034 108.651Z" fill="#001705"/>
<path d="M-2.12452 110.24C-1.67875 107.416 -2.50177 105.119 -3.29861 102.898C-4.00226 100.921 -4.67252 99.0561 -4.32798 96.9409C-3.98345 94.8258 -2.78954 93.2527 -1.50243 91.6008C-0.0619072 89.731 1.42881 87.7989 1.87459 84.9751C2.32036 82.1513 1.49732 79.854 0.700481 77.633C0.00730803 75.6707 -0.661415 73.8227 -0.348742 71.7344C-0.0360698 69.6461 1.19671 68.0961 2.46657 66.4458C3.91124 64.5765 5.40195 62.6445 5.84532 59.8225L5.85143 59.7703C5.85591 59.7534 5.85934 59.7362 5.86168 59.7188C6.3092 56.8974 5.48618 54.6001 4.68759 52.3767C3.99268 50.4119 3.32568 48.5663 3.64075 46.4763C3.95583 44.3862 5.1862 42.838 6.45367 41.1895C7.89594 39.322 9.38665 37.3899 9.83243 34.5661C10.2782 31.7423 9.45517 29.445 8.66073 27.2223C7.95708 25.2455 7.28442 23.382 7.61696 21.2756C7.94948 19.1692 9.15542 17.5874 10.4338 15.9235C11.7122 14.2596 13.0377 12.5395 13.6273 10.191L12.6705 8.87553C12.6581 8.95432 12.6522 9.032 12.6373 9.11253C12.2411 11.636 10.8442 13.4448 9.49448 15.1973C8.14474 16.9497 6.81748 18.6675 6.43934 21.0897C6.06121 23.5119 6.77533 25.5031 7.53071 27.6368C8.28608 29.7704 9.0467 31.8709 8.64631 34.3937C8.50429 35.2853 8.23087 36.1508 7.83498 36.9622C7.79473 37.0046 7.76011 37.0519 7.73198 37.1032C7.09612 38.2601 6.35478 39.3559 5.51741 40.3766C4.14171 42.1589 2.84282 43.8451 2.46228 46.269L2.45617 46.3212C2.45252 46.3376 2.4499 46.3542 2.44832 46.3709C2.06626 48.7776 2.78431 50.7843 3.53968 52.918C4.28 54.9855 5.04126 57.1222 4.66378 59.621C4.2863 62.1199 2.87002 63.9171 1.52639 65.6578C0.150683 67.4401 -1.15061 69.128 -1.52874 71.5502L-1.53485 71.6024L-1.54272 71.6521C-1.92304 74.0612 -1.20673 76.0655 -0.451353 78.1992C0.0319964 79.4274 0.400542 80.6977 0.649545 81.9938C0.657199 82.051 0.675094 82.1064 0.702368 82.1573C0.829666 83.0518 0.823732 83.9603 0.684762 84.8532C0.286773 87.3742 -1.1101 89.183 -2.46224 90.9372C-3.81438 92.6914 -5.13924 94.4075 -5.51738 96.8297C-5.89551 99.2519 -5.17898 101.241 -4.42601 103.377C-3.67304 105.512 -2.90763 107.609 -3.30627 110.134C-3.70492 112.66 -5.10353 114.466 -6.45326 116.218C-7.00647 116.936 -7.54942 117.643 -8.02516 118.382C-7.5697 118.418 -7.10944 118.45 -6.64678 118.481C-6.28714 117.966 -5.9118 117.473 -5.50459 116.953C-4.06101 114.996 -2.5703 113.064 -2.12452 110.24Z" fill="#001705"/>
<path d="M-22.2783 107.061C-21.8325 104.237 -22.6556 101.939 -23.4524 99.7185C-24.1578 97.7393 -24.8263 95.8765 -24.4835 93.7589C-24.1408 91.6414 -22.9451 90.0707 -21.658 88.4188C-20.2174 86.5489 -18.7267 84.6168 -18.2792 81.7955C-17.8317 78.9741 -18.6565 76.6744 -19.4527 74.4493C-20.1458 72.4869 -20.817 70.6406 -20.5025 68.5547C-20.1881 66.4688 -18.9588 64.9141 -17.6848 63.2644C-16.2443 61.3945 -14.7536 59.4624 -14.3102 56.6404L-14.3 56.5889L-14.2921 56.5392C-13.8463 53.7154 -14.6694 51.418 -15.4656 49.1929C-16.1587 47.2306 -16.8299 45.3843 -16.5148 43.2943C-16.1997 41.2042 -14.9693 39.656 -13.7001 38.0098C-12.2572 36.1382 -10.7665 34.2061 -10.3231 31.3841C-9.87973 28.5621 -10.6986 26.2654 -11.4948 24.0403C-12.1985 22.0635 -12.8694 20.2024 -12.5242 18.0831C-12.179 15.9638 -10.9881 14.3966 -9.70975 12.7328L-9.33266 12.2419L-12.4413 14.503C-13.0922 15.5397 -13.5304 16.6956 -13.7304 17.9033C-14.1107 20.3124 -13.3944 22.3167 -12.639 24.4504C-11.8836 26.584 -11.123 28.6845 -11.5193 31.208C-11.6636 32.0993 -11.9384 32.9645 -12.3347 33.7758C-12.3742 33.8176 -12.4081 33.8644 -12.4353 33.915C-13.0708 35.0722 -13.8122 36.168 -14.6499 37.1884C-16.0263 38.9749 -17.3269 40.6587 -17.705 43.0809L-17.7112 43.133L-17.7214 43.1845C-18.1017 45.5936 -17.3854 47.5979 -16.63 49.7316C-15.8897 51.7991 -15.1243 53.9365 -15.5059 56.4347C-15.8876 58.9328 -17.2997 60.7307 -18.6433 62.4714C-20.0173 64.2561 -21.3179 65.9399 -21.6985 68.3638C-21.7016 68.3811 -21.7036 68.3985 -21.7046 68.416L-21.7148 68.4675C-22.0952 70.8766 -21.3788 72.8809 -20.6235 75.0145C-20.1428 76.243 -19.7757 77.513 -19.5267 78.8085C-19.5171 78.8663 -19.4987 78.9222 -19.4722 78.9744C-19.3465 79.8683 -19.353 80.7758 -19.4915 81.6679C-19.8895 84.1889 -21.2846 86.0001 -22.6361 87.7502C-23.9876 89.5002 -25.3131 91.2204 -25.6913 93.6426C-26.0694 96.0648 -25.3553 98.056 -24.5999 100.19C-23.8445 102.323 -23.0531 104.35 -23.45 106.878C-23.8469 109.405 -25.2432 111.21 -26.597 112.962L-26.6509 113.034C-26.2932 113.218 -25.9308 113.398 -25.5693 113.572C-24.1554 111.737 -22.7149 109.826 -22.2783 107.061Z" fill="#001705"/>
<path d="M-32.3567 105.468C-31.9109 102.644 -32.734 100.347 -33.5308 98.1256C-34.2345 96.1488 -34.9054 94.2877 -34.5722 92.1772C-34.239 90.0666 -33.0337 88.4889 -31.7553 86.8251C-30.3148 84.9552 -28.8241 83.0231 -28.3783 80.1993C-27.9326 77.3756 -28.7556 75.0782 -29.5524 72.8572C-30.2473 70.8925 -30.9143 69.0469 -30.6017 66.9586C-30.289 64.8703 -29.0562 63.3203 -27.7863 61.67C-26.3441 59.8025 -24.8534 57.8704 -24.4076 55.0467L-24.4015 54.9945L-24.3912 54.943C-23.9461 52.1234 -24.7667 49.8243 -25.5653 47.6009C-26.2602 45.6362 -26.9272 43.7906 -26.6121 41.7005C-26.2971 39.6105 -25.0685 38.0599 -23.7992 36.4137C-22.357 34.5462 -20.8663 32.6141 -20.4205 29.7903C-19.9747 26.9666 -20.7977 24.6692 -21.5946 22.4483C-21.7166 22.1039 -21.8392 21.7637 -21.9673 21.4311L-22.9492 22.1452C-22.8689 22.3767 -22.7844 22.6089 -22.6999 22.8411C-21.9557 24.9242 -21.1839 27.0753 -21.5843 29.5981C-21.7273 30.4894 -22.0007 31.3548 -22.3957 32.1665C-22.437 32.208 -22.4717 32.2555 -22.4987 32.3075C-23.135 33.4642 -23.8763 34.56 -24.7132 35.5809C-26.0889 37.3633 -27.3902 39.0512 -27.7684 41.4734L-27.7762 41.5231L-27.7823 41.5753C-28.1644 43.982 -27.4463 45.9886 -26.691 48.1223C-25.9524 50.1875 -25.1894 52.3266 -25.5669 54.8254C-25.9443 57.3242 -27.363 59.1232 -28.7043 60.8621C-30.0824 62.6462 -31.3813 64.3324 -31.7594 66.7546L-31.7673 66.8043L-31.7734 66.8565C-32.1554 69.2632 -31.4374 71.2699 -30.682 73.4035C-30.1986 74.6321 -29.8308 75.9031 -29.5835 77.1999C-29.5737 77.2564 -29.5551 77.311 -29.5283 77.3616C-29.4007 78.2554 -29.4072 79.1632 -29.5476 80.0551C-29.9439 82.5786 -31.3432 84.3891 -32.6929 86.1416C-34.0426 87.894 -35.3699 89.6118 -35.748 92.034C-36.1262 94.4562 -35.4096 96.4457 -34.6567 98.5811C-33.9037 100.716 -33.1383 102.814 -33.5387 105.336C-33.697 106.304 -34.0069 107.24 -34.4569 108.111C-34.1394 108.361 -33.8188 108.605 -33.4934 108.845C-32.9248 107.792 -32.5403 106.65 -32.3567 105.468Z" fill="#001705"/>
</svg>
