<svg xmlns="http://www.w3.org/2000/svg" xmlns:xlink="http://www.w3.org/1999/xlink" id="Layer_1" x="0px" y="0px" viewBox="0 0 144.1 144" style="enable-background:new 0 0 144.1 144;" xml:space="preserve"><style type="text/css">	.st0{fill:#001705;}	.st1{fill:#766DFA;}	.st2{fill:#FFC844;}	.st3{fill-rule:evenodd;clip-rule:evenodd;fill:#766DFA;}	.st4{fill-rule:evenodd;clip-rule:evenodd;fill:#36414E;}	.st5{fill-rule:evenodd;clip-rule:evenodd;fill:#FFC844;}	.st6{fill-rule:evenodd;clip-rule:evenodd;fill:#001705;}	.st7{fill:none;stroke:#766DFA;stroke-width:4;stroke-miterlimit:10;}	.st8{fill:none;stroke:#001705;stroke-width:3;stroke-linecap:round;stroke-linejoin:round;stroke-miterlimit:10;}	.st9{fill:none;stroke:#766DFA;stroke-miterlimit:10;}</style><g>	<g>		<g>			<circle class="st0" cx="72" cy="72" r="72"></circle>		</g>	</g>	<g>		<path class="st1" d="M116.4,79.3V64.7h-8.1c-1-4.8-2.8-9.2-5.4-13.1l5.7-5.7L98.2,35.4l-5.7,5.7c-3.9-2.6-8.4-4.5-13.1-5.4v-8.1   H64.7v8.1c-4.8,1-9.2,2.8-13.1,5.4l-5.7-5.7L35.5,45.8l5.7,5.7c-2.6,3.9-4.5,8.4-5.4,13.1h-8.1v14.7h8.1c1,4.8,2.8,9.2,5.4,13.1   l-5.7,5.7l10.4,10.4l5.7-5.7c3.9,2.6,8.4,4.5,13.1,5.4v8.1h14.7v-8.1c4.8-1,9.2-2.8,13.1-5.4l5.7,5.7l10.4-10.4l-5.7-5.7   c2.6-3.9,4.5-8.4,5.4-13.1H116.4z M72,99.4c-15.1,0-27.4-12.3-27.4-27.4c0-15.1,12.3-27.4,27.4-27.4c15.1,0,27.4,12.3,27.4,27.4   C99.4,87.1,87.2,99.4,72,99.4z"></path>		<g>			<circle class="st1" cx="72" cy="63.9" r="10.6"></circle>		</g>		<path class="st2" d="M72,74.5C64,74.5,57,79,53.4,85.6c4.2,5.8,11,9.5,18.7,9.5c7.7,0,14.5-3.7,18.7-9.5   C87.1,79,80.1,74.5,72,74.5z"></path>	</g></g></svg>