<svg xmlns="http://www.w3.org/2000/svg" xmlns:xlink="http://www.w3.org/1999/xlink" id="Layer_1" x="0px" y="0px" viewBox="0 0 144.1 144" style="enable-background:new 0 0 144.1 144;" xml:space="preserve"><style type="text/css">	.st0{fill:#001705;}	.st1{fill:#766DFA;}	.st2{fill:#FFC844;}	.st3{fill-rule:evenodd;clip-rule:evenodd;fill:#766DFA;}	.st4{fill-rule:evenodd;clip-rule:evenodd;fill:#36414E;}	.st5{fill-rule:evenodd;clip-rule:evenodd;fill:#FFC844;}	.st6{fill-rule:evenodd;clip-rule:evenodd;fill:#001705;}	.st7{fill:none;stroke:#766DFA;stroke-width:4;stroke-miterlimit:10;}	.st8{fill:none;stroke:#001705;stroke-width:3;stroke-linecap:round;stroke-linejoin:round;stroke-miterlimit:10;}	.st9{fill:none;stroke:#766DFA;stroke-miterlimit:10;}</style><g>	<g>		<g>			<g>				<g>					<circle class="st0" cx="72" cy="72" r="72"></circle>				</g>			</g>		</g>	</g>	<g>		<path class="st1" d="M40.4,39.5h60c4.1,0,7.5,3.4,7.5,7.5v48c0,4.1-3.4,7.5-7.5,7.5H62.5l-17.6,17.6v-17.6h-4.5   c-4.1,0-7.5-3.4-7.5-7.5V47C32.9,42.8,36.2,39.5,40.4,39.5z"></path>		<path class="st6" d="M101.9,45.4c0,2.1-0.3,4-0.8,5.9h-9.6c0.2-1.9,0.4-3.8,0.4-5.9c0-2.1-0.1-4.1-0.4-5.9h9.6   C101.6,41.3,101.9,43.3,101.9,45.4z M89,60.7c-1,2.3-2.3,4.2-3.7,5.6c4-0.9,7.6-2.9,10.3-5.7c2-2,3.6-4.4,4.7-7.1h-9.2   C90.7,56.2,90,58.6,89,60.7z M69.7,53.5h-9.2c1.1,2.7,2.7,5.1,4.7,7.1c2.8,2.8,6.4,4.8,10.3,5.7c-1.4-1.5-2.7-3.4-3.7-5.6   C70.9,58.6,70.2,56.2,69.7,53.5z M69,45.4c0-2.1,0.1-4.1,0.4-5.9h-9.6c-0.5,1.9-0.8,3.9-0.8,5.9c0,2.1,0.3,4,0.8,5.9h9.6   C69.1,49.5,69,47.5,69,45.4z M89.1,51.3c0.2-1.8,0.4-3.8,0.4-5.9c0-2.1-0.1-4.1-0.4-5.9H71.8c-0.2,1.8-0.4,3.8-0.4,5.9   c0,2.1,0.1,4.1,0.4,5.9H89.1z M88.7,53.5H72.1c0.5,2.3,1.1,4.4,1.9,6.2c1.6,3.6,3.9,6.1,6.4,7.2c2.5-1.1,4.7-3.5,6.4-7.2   C87.6,57.9,88.3,55.8,88.7,53.5z"></path>		<path class="st5" d="M65.3,30.2c2.8-2.8,6.4-4.8,10.3-5.7c-1.4,1.5-2.7,3.4-3.7,5.6c-0.9,2.1-1.7,4.5-2.2,7.2h-9.2   C61.6,34.6,63.2,32.2,65.3,30.2L65.3,30.2z M85.3,24.5c4,0.9,7.6,2.9,10.3,5.7c2,2,3.6,4.4,4.7,7.1h-9.2c-0.5-2.7-1.2-5.1-2.2-7.2   C88,27.8,86.7,25.9,85.3,24.5L85.3,24.5z M72.1,37.3h16.6c-0.5-2.3-1.1-4.4-1.9-6.2c-1.6-3.6-3.9-6.1-6.4-7.2   c-2.5,1.1-4.7,3.5-6.4,7.2C73.3,32.9,72.6,35,72.1,37.3L72.1,37.3z"></path>	</g></g></svg>