<svg xmlns="http://www.w3.org/2000/svg" xmlns:xlink="http://www.w3.org/1999/xlink" id="Layer_1" x="0px" y="0px" viewBox="0 0 144.1 144" style="enable-background:new 0 0 144.1 144;" xml:space="preserve"><style type="text/css">	.st0{fill:#001705;}	.st1{fill:#766DFA;}	.st2{fill:#FFC844;}	.st3{fill-rule:evenodd;clip-rule:evenodd;fill:#766DFA;}	.st4{fill-rule:evenodd;clip-rule:evenodd;fill:#36414E;}	.st5{fill-rule:evenodd;clip-rule:evenodd;fill:#FFC844;}	.st6{fill-rule:evenodd;clip-rule:evenodd;fill:#001705;}	.st7{fill:none;stroke:#766DFA;stroke-width:4;stroke-miterlimit:10;}	.st8{fill:none;stroke:#001705;stroke-width:3;stroke-linecap:round;stroke-linejoin:round;stroke-miterlimit:10;}	.st9{fill:none;stroke:#766DFA;stroke-miterlimit:10;}</style><g>	<g>		<g>			<g>				<g>					<circle class="st0" cx="72" cy="72" r="72"></circle>				</g>			</g>		</g>	</g>	<g>		<g>			<path class="st1" d="M109.6,115.8H34.5c-1.1,0-2-0.9-2-2s0.9-2,2-2h75.1c1.1,0,2,0.9,2,2S110.7,115.8,109.6,115.8z"></path>		</g>	</g>	<circle class="st0" cx="89.2" cy="113.8" r="11.1"></circle>	<circle class="st2" cx="89.2" cy="113.8" r="5.8"></circle>	<g>		<g>			<g>				<g>					<circle class="st1" cx="70.2" cy="36.7" r="24"></circle>				</g>			</g>			<path class="st2" d="M94.1,36.7c0-13.2-10.7-24-24-24v47.9C83.4,60.6,94.1,49.9,94.1,36.7z"></path>		</g>		<g>			<g>				<path class="st0" d="M80.7,54.8c-0.9,0-1.5-0.7-1.5-1.5c0-4.9-4-9-9-9s-9,4-9,9c0,0.9-0.7,1.5-1.5,1.5s-1.5-0.7-1.5-1.5     c0-6.7,5.4-12.1,12.1-12.1s12.1,5.4,12.1,12.1C82.2,54.1,81.6,54.8,80.7,54.8z"></path>			</g>		</g>		<g>			<g>				<g>					<circle class="st1" cx="41.8" cy="54.8" r="24"></circle>				</g>			</g>			<path class="st2" d="M65.7,54.8c0-13.2-10.7-24-24-24v47.9C55,78.8,65.7,68,65.7,54.8z"></path>		</g>		<g>			<g>				<path class="st0" d="M41.8,71.8c-9.4,0-17-7.6-17-17c0-0.9,0.7-1.5,1.5-1.5c0.9,0,1.5,0.7,1.5,1.5c0,7.7,6.2,13.9,13.9,13.9     s13.9-6.2,13.9-13.9c0-0.9,0.7-1.5,1.5-1.5c0.9,0,1.5,0.7,1.5,1.5C58.7,64.1,51.1,71.8,41.8,71.8z"></path>			</g>		</g>		<g>			<g>				<g>					<circle class="st0" cx="49.1" cy="49.5" r="4.1"></circle>				</g>			</g>		</g>		<g>			<g>				<g>					<circle class="st0" cx="79" cy="29.5" r="4.1"></circle>				</g>			</g>		</g>	</g>	<rect x="59.3" y="84.1" class="st5" width="10.6" height="17.2"></rect>	<rect x="39.9" y="92.7" class="st5" width="10.6" height="8.6"></rect>	<rect x="78.5" y="67.8" class="st5" width="10.6" height="33.4"></rect>	<rect x="98.8" y="45.5" class="st5" width="10.6" height="55.7"></rect></g></svg>