<svg xmlns="http://www.w3.org/2000/svg" xmlns:xlink="http://www.w3.org/1999/xlink" id="Layer_1" x="0px" y="0px" viewBox="0 0 144.1 144" style="enable-background:new 0 0 144.1 144;" xml:space="preserve"><style type="text/css">	.st0{fill:#001705;}	.st1{fill:#766DFA;}	.st2{fill:#FFC844;}	.st3{fill-rule:evenodd;clip-rule:evenodd;fill:#766DFA;}	.st4{fill-rule:evenodd;clip-rule:evenodd;fill:#36414E;}	.st5{fill-rule:evenodd;clip-rule:evenodd;fill:#FFC844;}	.st6{fill-rule:evenodd;clip-rule:evenodd;fill:#001705;}	.st7{fill:none;stroke:#766DFA;stroke-width:4;stroke-miterlimit:10;}	.st8{fill:none;stroke:#001705;stroke-width:3;stroke-linecap:round;stroke-linejoin:round;stroke-miterlimit:10;}	.st9{fill:none;stroke:#766DFA;stroke-miterlimit:10;}</style><g>	<g>		<g>			<g>				<g>					<circle class="st0" cx="72" cy="72" r="72"></circle>				</g>			</g>		</g>	</g>	<g>		<path class="st1" d="M98.2,37.9h-5.3v5.3c0,2.9-2.4,5.3-5.3,5.3h-3.5c-2.9,0-5.3-2.4-5.3-5.3v-5.3h-14v5.3c0,2.9-2.4,5.3-5.3,5.3   h-3.5c-2.9,0-5.3-2.4-5.3-5.3v-5.3h-5.3c-3.9,0-7,3.1-7,7v8.8h66.5v-8.8C105.2,41,102,37.9,98.2,37.9z"></path>		<path class="st2" d="M87.7,45.4h-3.5c-1.5,0-2.8-1.3-2.8-2.8v-9.5c0-1.5,1.3-2.8,2.8-2.8h3.5c1.5,0,2.8,1.3,2.8,2.8v9.5   C90.5,44.2,89.2,45.4,87.7,45.4z"></path>		<path class="st2" d="M59.6,45.4h-3.5c-1.5,0-2.8-1.3-2.8-2.8v-9.5c0-1.5,1.3-2.8,2.8-2.8h3.5c1.5,0,2.8,1.3,2.8,2.8v9.5   C62.4,44.2,61.2,45.4,59.6,45.4z"></path>		<path class="st2" d="M78.9,97.4c0-11.6,9.4-21,21-21c1.8,0,3.6,0.3,5.3,0.7v-20H38.6v35c0,3.9,3.1,7,7,7H79   C78.9,98.6,78.9,98,78.9,97.4z M85.9,65.9c0-1,0.8-1.8,1.8-1.8h7c1,0,1.8,0.8,1.8,1.8v7c0,1-0.8,1.8-1.8,1.8h-7   c-1,0-1.8-0.8-1.8-1.8V65.9z M57.9,90.4c0,1-0.8,1.8-1.8,1.8h-7c-1,0-1.8-0.8-1.8-1.8v-7c0-1,0.8-1.8,1.8-1.8h7   c1,0,1.8,0.8,1.8,1.8V90.4z M57.9,72.9c0,1-0.8,1.8-1.8,1.8h-7c-1,0-1.8-0.8-1.8-1.8v-7c0-1,0.8-1.8,1.8-1.8h7   c1,0,1.8,0.8,1.8,1.8V72.9z M77.2,90.4c0,1-0.8,1.8-1.8,1.8h-7c-1,0-1.8-0.8-1.8-1.8v-7c0-1,0.8-1.8,1.8-1.8h7   c1,0,1.8,0.8,1.8,1.8V90.4z M77.2,72.9c0,1-0.8,1.8-1.8,1.8h-7c-1,0-1.8-0.8-1.8-1.8v-7c0-1,0.8-1.8,1.8-1.8h7   c1,0,1.8,0.8,1.8,1.8V72.9z"></path>		<path class="st1" d="M99.9,79.9c-9.7,0-17.5,7.8-17.5,17.5c0,9.7,7.8,17.5,17.5,17.5c9.7,0,17.5-7.8,17.5-17.5   C117.4,87.7,109.6,79.9,99.9,79.9z M108.7,99.1H98.2V86.9c0-1,0.8-1.8,1.8-1.8c1,0,1.8,0.8,1.8,1.8v8.8h7c1,0,1.8,0.8,1.8,1.8   C110.4,98.4,109.6,99.1,108.7,99.1z"></path>	</g></g></svg>