<svg xmlns="http://www.w3.org/2000/svg" xmlns:xlink="http://www.w3.org/1999/xlink" id="Layer_1" x="0px" y="0px" viewBox="0 0 144.1 144" style="enable-background:new 0 0 144.1 144;" xml:space="preserve"><style type="text/css">	.st0{fill:#001705;}	.st1{fill:#766DFA;}	.st2{fill:#FFC844;}	.st3{fill-rule:evenodd;clip-rule:evenodd;fill:#766DFA;}	.st4{fill-rule:evenodd;clip-rule:evenodd;fill:#36414E;}	.st5{fill-rule:evenodd;clip-rule:evenodd;fill:#FFC844;}	.st6{fill-rule:evenodd;clip-rule:evenodd;fill:#001705;}	.st7{fill:none;stroke:#766DFA;stroke-width:4;stroke-miterlimit:10;}	.st8{fill:none;stroke:#001705;stroke-width:3;stroke-linecap:round;stroke-linejoin:round;stroke-miterlimit:10;}	.st9{fill:none;stroke:#766DFA;stroke-miterlimit:10;}	.st10{fill:#001705;stroke:#001705;stroke-width:5;stroke-miterlimit:10;}</style><g>	<g>		<g>			<g>				<circle class="st0" cx="72" cy="72" r="72"></circle>			</g>		</g>	</g>	<g>		<g>			<g>				<g>					<path class="st1" d="M47.8,67.9c-12.2,0-22,9.9-22,22h44C69.8,77.8,59.9,67.9,47.8,67.9z"></path>				</g>				<g>					<circle class="st2" cx="47.8" cy="56.9" r="11"></circle>				</g>			</g>			<g>				<path class="st0" d="M54.8,94.9v-5c0-18.3,14.9-33.1,33.1-33.1s33.1,14.9,33.1,33.1v5H54.8z"></path>				<path class="st2" d="M87.9,61.8c-15.5,0-28.1,12.6-28.1,28.1h56.3C116.1,74.4,103.5,61.8,87.9,61.8z"></path>			</g>			<g>				<g>					<path class="st2" d="M87.9,61.8c-15.5,0-28.1,12.6-28.1,28.1h56.3C116.1,74.4,103.5,61.8,87.9,61.8z"></path>				</g>				<g>					<circle class="st1" cx="87.9" cy="47.7" r="14.1"></circle>				</g>			</g>		</g>	</g></g><path class="st10" d="M75.9,107.2l3,2l3.9,2.6l2.2,1.4c0.5,0.3,1,0.6,1.5,0.7c0.5,0.1,1,0.2,1.5,0.2c0.3,0,0.5,0,0.8-0.1 c0.5-0.1,1-0.2,1.5-0.5c0.2-0.1,0.5-0.3,0.7-0.4l6.6-4.4l2.5-1.6c1.4-0.9,2.4-2.2,3.1-3.7c0.5-1.1,0.8-2.3,0.8-3.5V83.8 c0-0.8-0.6-1.5-1.4-1.6c-2.3-0.3-5.1-1-8-2.2c-1.9-0.8-3.6-1.7-5.2-2.6c-0.4-0.3-0.9-0.4-1.4-0.4s-0.9,0.1-1.4,0.4 c-1.5,0.9-3.2,1.8-5.2,2.6c-2.8,1.2-5.6,1.9-8,2.2C72.6,82.3,72,83,72,83.8v16.3c0,2.4,1,4.6,2.7,6.2C75,106.6,75.4,107,75.9,107.2z  M82.1,94.6c0.9-1.2,2.5-1.4,3.7-0.5l0.9,0.7l4.7-4.7c1-1,2.7-1,3.7,0c1,1,1,2.7,0,3.7l-6.3,6.3c-0.5,0.5-1.2,0.8-1.9,0.8 c-0.6,0-1.1-0.2-1.6-0.5l-2.8-2.1C81.4,97.4,81.2,95.8,82.1,94.6z"></path><path class="st1" d="M75.9,107.2l3,2l3.9,2.6l2.2,1.4c0.5,0.3,1,0.6,1.5,0.7c0.5,0.1,1,0.2,1.5,0.2c0.3,0,0.5,0,0.8-0.1 c0.5-0.1,1-0.2,1.5-0.5c0.2-0.1,0.5-0.3,0.7-0.4l6.6-4.4l2.5-1.6c1.4-0.9,2.4-2.2,3.1-3.7c0.5-1.1,0.8-2.3,0.8-3.5V83.8 c0-0.8-0.6-1.5-1.4-1.6c-2.3-0.3-5.1-1-8-2.2c-1.9-0.8-3.6-1.7-5.2-2.6c-0.4-0.3-0.9-0.4-1.4-0.4s-0.9,0.1-1.4,0.4 c-1.5,0.9-3.2,1.8-5.2,2.6c-2.8,1.2-5.6,1.9-8,2.2C72.6,82.3,72,83,72,83.8v16.3c0,2.4,1,4.6,2.7,6.2C75,106.6,75.4,107,75.9,107.2z  M82.1,94.6c0.9-1.2,2.5-1.4,3.7-0.5l0.9,0.7l4.7-4.7c1-1,2.7-1,3.7,0c1,1,1,2.7,0,3.7l-6.3,6.3c-0.5,0.5-1.2,0.8-1.9,0.8 c-0.6,0-1.1-0.2-1.6-0.5l-2.8-2.1C81.4,97.4,81.2,95.8,82.1,94.6z"></path></svg>