<svg xmlns="http://www.w3.org/2000/svg" xmlns:xlink="http://www.w3.org/1999/xlink" id="Layer_1" x="0px" y="0px" viewBox="0 0 144.1 144" style="enable-background:new 0 0 144.1 144;" xml:space="preserve"><style type="text/css">	.st0{fill:#001705;}	.st1{fill:#766DFA;}	.st2{fill:#FFC844;}	.st3{fill-rule:evenodd;clip-rule:evenodd;fill:#766DFA;}	.st4{fill-rule:evenodd;clip-rule:evenodd;fill:#36414E;}	.st5{fill-rule:evenodd;clip-rule:evenodd;fill:#FFC844;}	.st6{fill-rule:evenodd;clip-rule:evenodd;fill:#001705;}	.st7{fill:none;stroke:#766DFA;stroke-width:4;stroke-miterlimit:10;}	.st8{fill:none;stroke:#001705;stroke-width:3;stroke-linecap:round;stroke-linejoin:round;stroke-miterlimit:10;}	.st9{fill:none;stroke:#766DFA;stroke-miterlimit:10;}</style><g>	<g>		<g>			<g>				<g>					<circle class="st0" cx="72" cy="72" r="72"></circle>				</g>			</g>		</g>	</g>	<g>		<g>			<g>				<path class="st2" d="M68.3,103.8h-14c-3.7,0-6.8-3-6.8-6.8v-0.4c0-0.5-0.2-0.9-0.5-1.2C41.1,90.9,37.8,84,38,76.6     c0.2-12.1,9.8-22.2,21.9-22.9c6.5-0.4,12.8,1.8,17.5,6.3c4.7,4.4,7.4,10.6,7.4,17c0,7.2-3.3,13.9-8.9,18.4     c-0.4,0.3-0.7,0.8-0.7,1.3V97C75.1,100.8,72.1,103.8,68.3,103.8z M61.3,58.8c-0.4,0-0.8,0-1.2,0c-9.4,0.6-16.8,8.4-17,17.8     c-0.1,5.8,2.5,11.1,7.1,14.7c1.6,1.2,2.6,3.2,2.6,5.3V97c0,0.9,0.7,1.6,1.6,1.6h14c0.9,0,1.6-0.7,1.6-1.6v-0.4     c0-2.1,1-4.1,2.7-5.4c4.4-3.5,6.9-8.7,6.9-14.3c0-5.1-2-9.8-5.7-13.2C70.4,60.5,66,58.8,61.3,58.8z"></path>			</g>			<g>				<path class="st2" d="M69.1,112.1H53.6c-1.4,0-2.6-1.2-2.6-2.6c0-1.4,1.2-2.6,2.6-2.6h15.4c1.4,0,2.6,1.2,2.6,2.6     C71.7,110.9,70.5,112.1,69.1,112.1z"></path>			</g>			<g>				<path class="st2" d="M65.5,120.8h-8.4c-1.4,0-2.6-1.2-2.6-2.6c0-1.4,1.2-2.6,2.6-2.6h8.4c1.4,0,2.6,1.2,2.6,2.6     C68.2,119.6,67,120.8,65.5,120.8z"></path>			</g>		</g>		<path class="st1" d="M116.5,56.3h-3.1c-1.5,0-2.3-1.8-1.2-2.9l2.2-2.2c0.7-0.7,0.7-1.7,0-2.4l-6.8-6.8c-0.7-0.7-1.7-0.7-2.4,0   l-2.2,2.2c-1.1,1.1-2.9,0.3-2.9-1.2v-3.8c0-0.6-0.5-1-1-1H88.9c-0.9,0-1.7,0.8-1.7,1.7v3.1c0,1.5-1.8,2.3-2.9,1.2l-2.2-2.2   c-0.7-0.7-1.7-0.7-2.4,0l-6.8,6.8c-0.7,0.7-0.7,1.7,0,2.4l2.2,2.2c1.1,1.1,0.3,2.9-1.2,2.9h-3.1c-0.9,0-1.7,0.8-1.7,1.7v9.6   c0,0.9,0.8,1.7,1.7,1.7h3.1c1.5,0,2.3,1.8,1.2,2.9l-2.2,2.2c-0.7,0.7-0.7,1.7,0,2.4l6.8,6.8c0.7,0.7,1.7,0.7,2.4,0l2.2-2.2   c1.1-1.1,2.9-0.3,2.9,1.2v3.1c0,0.9,0.8,1.7,1.7,1.7h9.5c1,0,1.8-0.8,1.8-1.8v-3c0-1.5,1.8-2.3,2.9-1.2l2.2,2.2   c0.7,0.7,1.7,0.7,2.4,0l6.8-6.8c0.7-0.7,0.7-1.7,0-2.4l-2.2-2.2c-1.1-1.1-0.3-2.9,1.2-2.9h3.1c0.9,0,1.7-0.8,1.7-1.7V58   C118.2,57.1,117.5,56.3,116.5,56.3z M93.7,71.4c-4.8,0-8.6-3.9-8.6-8.6c0-4.8,3.9-8.6,8.6-8.6s8.6,3.9,8.6,8.6   C102.3,67.6,98.5,71.4,93.7,71.4z"></path>		<path class="st0" d="M77.4,59.9c-1.5-1.4-3.2-2.6-5-3.6h-1.5c-0.9,0-1.7,0.8-1.7,1.7v2.5c1.7,0.8,3.2,1.8,4.6,3.2   c3.7,3.5,5.7,8.2,5.7,13.2c0,1.9-0.3,3.8-0.9,5.5l1.1,1.1c0.7,0.7,1.7,0.7,2.4,0l2.2-2.2c0.3-1.4,0.4-2.9,0.4-4.4   C84.7,70.5,82,64.3,77.4,59.9z"></path>		<path class="st1" d="M75.2,30h-1.9c-0.9,0-1.4-1.1-0.7-1.8l1.3-1.3c0.4-0.4,0.4-1.1,0-1.5l-4.1-4.1c-0.4-0.4-1.1-0.4-1.5,0   L67,22.7c-0.6,0.6-1.8,0.2-1.8-0.7v-2.3c0-0.3-0.3-0.6-0.6-0.6h-6.2c-0.6,0-1,0.5-1,1V22c0,0.9-1.1,1.4-1.8,0.7l-1.3-1.3   c-0.4-0.4-1.1-0.4-1.5,0l-4.1,4.1c-0.4,0.4-0.4,1.1,0,1.5l1.3,1.3c0.6,0.6,0.2,1.8-0.7,1.8h-1.9c-0.6,0-1,0.5-1,1v5.8   c0,0.6,0.5,1,1,1h1.9c0.9,0,1.4,1.1,0.7,1.8L48.7,41c-0.4,0.4-0.4,1.1,0,1.5l4.1,4.1c0.4,0.4,1.1,0.4,1.5,0l1.3-1.3   c0.6-0.6,1.8-0.2,1.8,0.7v1.9c0,0.6,0.5,1,1,1h5.8c0.6,0,1.1-0.5,1.1-1.1V46c0-0.9,1.1-1.4,1.8-0.7l1.3,1.3c0.4,0.4,1.1,0.4,1.5,0   l4.1-4.1c0.4-0.4,0.4-1.1,0-1.5l-1.3-1.3c-0.6-0.6-0.2-1.8,0.7-1.8h1.9c0.6,0,1-0.5,1-1v-5.8C76.3,30.5,75.8,30,75.2,30z    M61.3,39.2c-2.9,0-5.2-2.3-5.2-5.2c0-2.9,2.3-5.2,5.2-5.2s5.2,2.3,5.2,5.2C66.6,36.9,64.2,39.2,61.3,39.2z"></path>	</g>	<g>		<path class="st2" d="M33.6,105.9c-0.4,0-0.8-0.1-1.1-0.4c-15.9-15.9-15.9-41.7,0-57.5c0.6-0.6,1.5-0.6,2.1,0   c0.6,0.6,0.6,1.5,0,2.1C20,64.7,20,88.7,34.7,103.4c0.6,0.6,0.6,1.5,0,2.1C34.4,105.8,34,105.9,33.6,105.9z"></path>	</g></g></svg>