<svg width="281" height="404" viewBox="0 0 281 404" fill="none" xmlns="http://www.w3.org/2000/svg">
<path d="M206.551 30.0863C209.05 32.5759 211.934 34.6465 215.092 36.2184C216.093 36.7259 217.104 37.1873 218.123 37.6026L218.4 37.7133C218.781 37.8656 219.155 38.0178 219.535 38.1563L220.366 38.4677L220.892 38.6546L222.027 39.0422L222.151 39.0837C223.951 39.6789 225.75 40.2118 227.522 40.7309C234.035 42.6412 240.181 44.4406 245.109 49.3685C250.037 54.2963 251.836 60.4422 253.746 66.955C254.272 68.7476 254.805 70.5609 255.414 72.3812C255.546 72.7895 255.691 73.1979 255.83 73.6062C255.885 73.7516 255.94 73.8969 255.989 74.0422L256.321 74.9489C256.453 75.2949 256.591 75.641 256.722 75.9732C256.778 76.0978 256.826 76.2224 256.875 76.3539C257.29 77.3644 257.751 78.3679 258.259 79.3646L258.259 79.413C259.831 82.5709 261.901 85.4548 264.391 87.9537C269.236 92.7985 274.717 95.2278 280.227 97.0342L280.227 94.1134C275.333 92.4316 270.537 90.1753 266.343 85.995C263.959 83.5863 261.992 80.7984 260.522 77.745C260.499 77.6929 260.474 77.6421 260.446 77.5928C258.777 73.9033 257.418 70.0812 256.383 66.166C254.376 59.3003 252.473 52.8221 247.047 47.389C241.621 41.9629 235.142 40.0595 228.277 38.0524C224.363 37.0211 220.543 35.6621 216.857 33.9897L216.698 33.9136C213.642 32.4439 210.854 30.4743 208.448 28.086C202.572 22.21 200.495 15.1228 198.488 8.26396C197.658 5.42631 196.841 2.66479 195.796 0.00708033L192.792 0.00708006C193.982 2.94334 194.997 5.9478 195.83 9.00452C197.997 16.2717 200.177 23.7119 206.551 30.0863Z" fill="#001705" fill-opacity="0.05"/>
<path d="M60.0454 2.89323C64.9733 7.82798 66.7727 13.967 68.683 20.4936C70.7593 27.6847 72.9671 35.1179 79.3415 41.4992C85.7158 47.8805 93.1491 50.0537 100.354 52.1301C106.867 54.0403 113.013 55.8398 117.947 60.7676C122.882 65.6954 124.675 71.8414 126.585 78.368C128.661 85.559 130.869 92.9923 137.243 99.3666C139.744 101.856 142.628 103.929 145.784 105.506C146.79 106.009 147.801 106.47 148.816 106.89L149.113 107.008L150.221 107.437L151.072 107.748L151.577 107.935L152.733 108.329L152.83 108.364C154.636 108.959 156.436 109.492 158.214 110.011C164.727 111.922 170.873 113.721 175.801 118.649C180.729 123.577 182.528 129.723 184.439 136.235C184.958 138.028 185.498 139.848 186.1 141.668C186.229 142.075 186.367 142.483 186.515 142.894L186.674 143.33L187.006 144.243C187.138 144.582 187.269 144.935 187.408 145.254C187.456 145.385 187.505 145.51 187.56 145.641C187.975 146.652 188.437 147.655 188.944 148.652L188.944 148.7C190.516 151.857 192.584 154.74 195.069 157.241C201.451 163.615 208.912 165.796 216.082 167.9C222.595 169.81 228.748 171.609 233.675 176.537C238.603 181.465 240.403 187.611 242.313 194.131C244.389 201.328 246.597 208.762 252.971 215.143C259.346 221.524 266.869 223.774 274.06 225.85C276.192 226.473 278.282 227.089 280.289 227.802L280.289 224.874C278.503 224.272 276.683 223.739 274.828 223.192C267.969 221.185 260.875 219.109 254.999 213.233C249.123 207.357 247.047 200.263 245.04 193.404C243.033 186.545 241.129 180.06 235.696 174.634C230.263 169.208 223.792 167.304 216.926 165.29C210.06 163.276 202.973 161.207 197.097 155.331C194.711 152.924 192.744 150.136 191.277 147.081C191.251 147.034 191.228 146.985 191.207 146.935C189.533 143.245 188.171 139.42 187.138 135.502C185.124 128.643 183.227 122.158 177.801 116.732C172.375 111.306 165.89 109.409 159.031 107.395C155.122 106.366 151.306 105.009 147.625 103.339L147.445 103.249C144.393 101.783 141.608 99.8183 139.202 97.4357C133.326 91.5596 131.25 84.4655 129.236 77.5997C127.222 70.734 125.332 64.2628 119.899 58.8297C114.466 53.3966 107.988 51.5071 101.129 49.4931C94.2703 47.4791 87.1762 45.4096 81.3001 39.5336C75.4241 33.6576 73.3478 26.5635 71.3406 19.7046C69.3335 12.8458 67.4302 6.36074 61.9971 0.934582C61.6926 0.625439 61.3812 0.327816 61.0628 0.0417289L56.5849 0.0417285C57.8247 0.882335 58.9833 1.83699 60.0454 2.89323Z" fill="#001705" fill-opacity="0.05"/>
<path d="M238.195 13.1154L238.237 13.1154C239.233 13.6207 240.251 14.0844 241.268 14.4997C241.351 14.5412 241.434 14.5689 241.524 14.6035C241.905 14.7627 242.292 14.9149 242.673 15.0603L243.49 15.3579L244.036 15.5517L245.151 15.9323L245.296 15.9808C247.096 16.5829 248.888 17.1089 250.66 17.628C257.173 19.5382 263.319 21.3377 268.253 26.2655C273.188 31.1934 274.974 37.3393 276.884 43.8659C277.528 46.053 278.185 48.2816 278.96 50.5102L279.113 50.9462C279.223 51.2508 279.334 51.5553 279.452 51.8598C279.569 52.1643 279.715 52.552 279.853 52.8842L279.999 53.2579L280.275 53.8877L280.275 45.5824C280.026 44.7518 279.777 43.9213 279.535 43.0908C277.528 36.225 275.624 29.7469 270.198 24.3138C264.765 18.8876 258.287 16.9843 251.421 14.9772C247.509 13.949 243.691 12.5899 240.008 10.9145L239.835 10.8315C236.784 9.36205 233.998 7.39492 231.592 5.01079C230.087 3.50328 228.752 1.83445 227.613 0.034507L224.367 0.0345067C225.803 2.56769 227.575 4.89568 229.634 6.95562C232.137 9.45692 235.028 11.537 238.195 13.1154Z" fill="#001705" fill-opacity="0.05"/>
<path d="M123.455 29.0548C129.968 30.965 136.114 32.7645 141.049 37.6923C145.984 42.6202 147.776 48.7661 149.686 55.2858C151.763 62.4768 153.97 69.917 160.345 76.2914C162.846 78.7808 165.729 80.8534 168.886 82.4304C169.889 82.9426 170.9 83.3994 171.924 83.8146L172.18 83.9115C172.561 84.0707 172.941 84.223 173.329 84.3683L174.146 84.6659L174.692 84.8597L175.807 85.2473L175.952 85.2957C177.751 85.8909 179.544 86.4169 181.316 86.936C187.829 88.8463 193.975 90.6458 198.902 95.5736C203.83 100.501 205.63 106.647 207.54 113.167C208.184 115.361 208.841 117.597 209.616 119.825C209.672 119.964 209.72 120.109 209.775 120.247L210.108 121.168L210.502 122.171L210.661 122.566C211.077 123.583 211.54 124.587 212.046 125.59C212.044 125.602 212.044 125.614 212.046 125.625C213.623 128.782 215.695 131.665 218.185 134.166C224.559 140.54 232.027 142.72 239.19 144.824C245.703 146.734 251.856 148.534 256.784 153.462C261.712 158.39 263.511 164.536 265.421 171.055C267.498 178.253 269.705 185.686 276.08 192.068C277.365 193.335 278.754 194.493 280.232 195.528L280.232 192.068C279.47 191.45 278.74 190.794 278.045 190.102C272.169 184.226 270.093 177.132 268.086 170.273C266.079 163.414 264.175 156.929 258.749 151.496C253.323 146.063 246.838 144.174 239.972 142.16C233.107 140.146 226.026 138.076 220.143 132.2C217.76 129.791 215.793 127.004 214.323 123.95C214.323 123.902 214.274 123.846 214.246 123.791C212.57 120.107 211.211 116.286 210.184 112.371C208.17 105.512 206.273 99.0272 200.847 93.6011C195.421 88.1749 188.936 86.2785 182.077 84.2645C178.164 83.2374 174.346 81.8782 170.664 80.2018L170.491 80.1257C167.441 78.6538 164.656 76.687 162.248 74.305C156.372 68.422 154.296 61.3349 152.289 54.476C150.282 47.6172 148.378 41.1321 142.952 35.6991C137.526 30.266 131.041 28.3765 124.175 26.3625C117.309 24.3484 110.222 22.279 104.346 16.403C99.4529 11.5028 97.1897 5.75832 95.411 0.013793L92.5179 0.0137928C94.4351 6.36044 96.7952 12.7625 102.387 18.3547C108.824 24.7706 116.257 26.9507 123.455 29.0548Z" fill="#001705" fill-opacity="0.05"/>
<path d="M164.152 14.5895C169.08 19.5174 170.88 25.6633 172.79 32.183C174.866 39.3809 177.074 46.8143 183.448 53.1886C185.949 55.678 188.832 57.7506 191.989 59.3276L192.024 59.3276C193.025 59.8352 194.038 60.2966 195.062 60.7118L195.318 60.8087C195.699 60.9679 196.079 61.1202 196.467 61.2655L197.291 61.5631L197.823 61.7569L198.965 62.1445L199.076 62.186C200.876 62.7813 202.682 63.3141 204.454 63.8332C210.967 65.7435 217.113 67.543 222.04 72.4639C226.968 77.3848 228.768 83.5377 230.678 90.0712C231.204 91.8568 231.737 93.6633 232.339 95.4835L232.754 96.7016C232.81 96.847 232.865 96.9923 232.913 97.1377L233.246 98.0512C233.377 98.3904 233.516 98.7434 233.647 99.0756C233.703 99.2002 233.751 99.3247 233.799 99.4493C234.215 100.46 234.671 101.47 235.184 102.46L235.184 102.508C236.756 105.666 238.826 108.55 241.316 111.049C247.69 117.423 255.123 119.604 262.321 121.708C268.834 123.618 274.987 125.417 279.915 130.345C280.032 130.463 280.136 130.587 280.254 130.705L280.254 126.912C275.174 122.6 269.291 120.863 263.097 119.05C256.238 117.043 249.15 114.966 243.268 109.09C240.884 106.682 238.917 103.894 237.447 100.84L237.378 100.695C235.703 97.0047 234.342 93.18 233.308 89.2614C231.294 82.3957 229.398 75.9175 223.971 70.4845C218.545 65.0583 212.067 63.155 205.201 61.1479C201.294 60.12 197.481 58.7632 193.802 57.0921L193.615 57.0021C190.565 55.5344 187.779 53.5698 185.372 51.1884C179.496 45.3054 177.42 38.2182 175.413 31.3524C173.406 24.4867 171.502 18.0155 166.076 12.5824C160.65 7.14931 154.165 5.25985 147.299 3.24582C144.031 2.35436 140.819 1.27047 137.679 -0.00019557L131.582 -0.000196103C136.385 2.92744 141.513 4.43626 146.524 5.90354C153.072 7.83453 159.224 9.66169 164.152 14.5895Z" fill="#001705" fill-opacity="0.05"/>
<path d="M121.982 216.409L121.906 216.264C120.23 212.575 118.871 208.75 117.844 204.83C115.83 197.972 113.933 191.487 108.5 186.06C103.074 180.627 96.5888 178.731 89.7231 176.717C85.8105 175.689 81.9924 174.33 78.3102 172.654L78.144 172.578C75.0904 171.112 72.3042 169.145 69.901 166.757C64.025 160.881 61.9486 153.787 59.9346 146.928C57.9898 140.27 56.1349 133.979 51.0755 128.657L51.0755 132.969C54.2385 137.329 55.7265 142.395 57.3045 147.71C59.3809 154.902 61.5957 162.335 67.97 168.716C70.4726 171.201 73.3557 173.271 76.5106 174.848L76.5522 174.848C77.5558 175.353 78.5662 175.81 79.5836 176.232L79.8951 176.357L80.9817 176.786L81.8469 177.098L82.3382 177.277L83.501 177.672L83.5909 177.707C85.3973 178.302 87.2038 178.835 88.9825 179.361C95.4883 181.264 101.641 183.064 106.569 187.991C111.497 192.919 113.296 199.065 115.207 205.592C115.726 207.37 116.259 209.177 116.861 210.99L116.861 211.039C116.992 211.44 117.124 211.835 117.269 212.229C117.318 212.388 117.38 212.541 117.435 212.693C117.539 212.99 117.65 213.288 117.761 213.586C117.871 213.883 118.03 214.278 118.169 214.624L118.314 214.984C118.729 215.994 119.186 217.005 119.698 218.001L119.698 218.043C121.277 221.195 123.347 224.075 125.83 226.577C126.787 227.527 127.802 228.417 128.869 229.241L133.811 229.241C131.613 227.966 129.589 226.412 127.789 224.618C125.412 222.222 123.45 219.448 121.982 216.409Z" fill="#001705" fill-opacity="0.05"/>
<path d="M54.1402 98.3632C60.6529 100.273 66.8058 102.073 71.7337 107.001C76.6615 111.929 78.4679 118.075 80.3712 124.594C82.4475 131.792 84.6622 139.225 91.0366 145.607C93.5392 148.092 96.4224 150.162 99.5773 151.739C100.581 152.244 101.591 152.701 102.609 153.123L102.865 153.22C103.252 153.379 103.633 153.531 104.021 153.677L104.837 153.974L105.377 154.175L106.498 154.556L106.637 154.604C108.436 155.199 110.236 155.732 112.008 156.251C118.52 158.155 124.666 159.954 129.594 164.882C134.522 169.81 136.321 175.956 138.225 182.476C138.751 184.261 139.291 186.074 139.893 187.895C140.024 188.296 140.163 188.698 140.308 189.106C140.356 189.251 140.412 189.404 140.467 189.556L140.799 190.456C140.931 190.802 141.069 191.148 141.208 191.487C141.256 191.611 141.298 191.729 141.353 191.854C141.768 192.864 142.225 193.875 142.737 194.871L142.737 194.913C144.314 198.068 146.384 200.951 148.869 203.453C155.251 209.828 162.712 212.008 169.882 214.112C176.395 216.022 182.541 217.829 187.475 222.756C189.348 224.654 190.909 226.835 192.099 229.221L195.186 229.221C193.79 226.089 191.839 223.235 189.427 220.798C184.001 215.365 177.523 213.468 170.657 211.454C163.791 209.44 156.704 207.371 150.828 201.495C148.466 199.107 146.516 196.345 145.056 193.321L144.98 193.169C143.304 189.482 141.945 185.659 140.917 181.742C138.903 174.883 137.007 168.398 131.574 162.972C126.147 157.546 119.662 155.649 112.804 153.635C108.89 152.606 105.07 151.25 101.384 149.579L101.218 149.496C98.1653 148.028 95.3794 146.061 92.9745 143.676C87.0985 137.8 85.0221 130.706 83.0081 123.847C80.9941 116.988 79.1046 110.503 73.6715 105.077C68.2385 99.6505 61.7603 97.7472 54.9015 95.7332C53.6211 95.3594 52.3338 94.9857 51.0464 94.5774L51.0464 97.4773L54.1402 98.3632Z" fill="#001705" fill-opacity="0.05"/>
<path d="M85.3968 209.163C79.9637 203.73 73.4856 201.833 66.6198 199.819C62.7083 198.79 58.8905 197.434 55.2069 195.764L55.0407 195.68C53.6675 195.007 52.3424 194.239 51.0749 193.383L51.0749 196.677C51.8363 197.134 52.6046 197.556 53.3797 197.951L53.4212 197.951C54.4248 198.456 55.4352 198.913 56.4527 199.335L56.7364 199.446L57.8577 199.889L58.6951 200.193L59.2142 200.38L60.3562 200.774L60.4739 200.809C62.2734 201.411 64.0729 201.944 65.8516 202.463C72.3574 204.366 78.5102 206.166 83.4381 211.094C88.3659 216.022 90.1654 222.168 92.0756 228.694L92.2417 229.262L95.1348 229.262C95.0033 228.812 94.8649 228.362 94.7334 227.912C92.7262 221.074 90.8299 214.589 85.3968 209.163Z" fill="#001705" fill-opacity="0.05"/>
<path d="M51.0666 228.32C51.8072 228.618 52.5339 228.936 53.2468 229.282L58.7422 229.282C56.3615 227.647 53.7822 226.321 51.0666 225.337L51.0666 228.32Z" fill="#001705" fill-opacity="0.05"/>
<path d="M56.2393 64.5875C62.6206 70.9619 70.0815 73.142 77.2518 75.2461C83.7577 77.1563 89.9105 78.9558 94.8452 83.8836C99.78 88.8114 101.573 94.9574 103.483 101.477C105.559 108.675 107.767 116.108 114.141 122.49C116.644 124.975 119.527 127.045 122.682 128.622C123.686 129.134 124.696 129.591 125.72 130.006L125.963 130.103C126.35 130.264 126.738 130.417 127.125 130.56L127.942 130.857L128.489 131.051C128.863 131.189 129.236 131.314 129.61 131.439L129.742 131.48C131.541 132.082 133.34 132.608 135.112 133.134C141.625 135.038 147.771 136.837 152.699 141.765C157.627 146.693 159.426 152.839 161.336 159.365C161.98 161.559 162.638 163.788 163.413 166.016L163.558 166.432C163.669 166.743 163.78 167.055 163.897 167.366C164.015 167.678 164.16 168.058 164.299 168.377C164.347 168.501 164.396 168.633 164.451 168.757C164.866 169.772 165.328 170.78 165.835 171.782C167.412 174.937 169.482 177.82 171.967 180.322C178.348 186.697 185.809 188.877 192.98 190.981C199.492 192.891 205.645 194.691 210.573 199.618C215.501 204.546 217.301 210.692 219.211 217.219C220.291 221.325 221.722 225.331 223.488 229.192L226.609 229.192C224.402 225.081 223.149 220.714 221.868 216.437C219.854 209.578 217.958 203.093 212.525 197.667C207.092 192.241 200.621 190.337 193.755 188.323C186.889 186.309 179.802 184.24 173.926 178.364C171.542 175.955 169.575 173.167 168.105 170.114L168.029 169.961C166.354 166.275 164.995 162.452 163.966 158.535C161.952 151.676 160.056 145.191 154.63 139.765C149.204 134.339 142.719 132.442 135.86 130.428C131.951 129.399 128.135 128.042 124.454 126.372L124.274 126.289C121.222 124.821 118.436 122.854 116.031 120.469C110.155 114.593 108.078 107.498 106.064 100.64C104.05 93.7808 102.161 87.2957 96.7278 81.8626C91.2948 76.4296 84.8166 74.5401 77.9578 72.526C71.099 70.512 64.0048 68.4426 58.1288 62.5666C54.9998 59.3647 52.5719 55.5462 51 51.3544L51 57.7495C52.4317 60.2535 54.194 62.5535 56.2393 64.5875Z" fill="#001705" fill-opacity="0.05"/>
<path d="M178.338 309.296L178.338 284L120 284L120 404L239.933 404L239.933 398.058C221.846 391.31 206.254 379.191 195.245 363.326C184.236 347.462 178.337 328.609 178.338 309.296Z" fill="#2B5243"/>
<path d="M178.34 309.296C178.344 328.618 184.254 347.476 195.275 363.341C206.297 379.207 221.903 391.321 240.002 398.059L240.002 339.045C240.002 338.884 240.002 338.723 240.002 338.548L240.002 284.001L178.34 284.001L178.34 309.296Z" fill="#FFC844"/>
<path d="M0 209.22V284H90.1041C53.988 267.467 22.8986 241.665 0 209.22Z" fill="#FC805F"/>
<path d="M119.996 242.561V164H30.375C50.1227 199.87 81.8399 227.673 119.996 242.561Z" fill="#FC805F"/>
<path d="M120 242.561C81.8439 227.673 50.1266 199.87 30.3789 164H0V209.179C22.8986 241.624 53.988 267.426 90.104 283.96H120V242.561Z" fill="#F3F1E5"/>
</svg>
