<svg width="332" height="332" viewBox="0 0 332 332" fill="none" xmlns="http://www.w3.org/2000/svg">
<path d="M224.749 43.4692C228.36 47.0664 232.526 50.0581 237.089 52.3292C238.536 53.0625 239.996 53.7292 241.469 54.3292L241.869 54.4892C242.419 54.7092 242.959 54.9292 243.509 55.1292L244.709 55.5792L245.469 55.8492L247.109 56.4092L247.289 56.4692C249.889 57.3292 252.489 58.0992 255.049 58.8492C264.459 61.6092 273.339 64.2092 280.459 71.3292C287.579 78.4492 290.179 87.3292 292.939 96.7392C293.699 99.3292 294.469 101.949 295.349 104.579C295.539 105.169 295.749 105.759 295.949 106.349C296.029 106.559 296.109 106.769 296.179 106.979L296.659 108.289C296.849 108.789 297.049 109.289 297.239 109.769C297.319 109.949 297.389 110.129 297.459 110.319C298.059 111.779 298.726 113.229 299.459 114.669L299.459 114.739C301.73 119.302 304.722 123.469 308.319 127.079C315.319 134.079 323.239 137.589 331.199 140.199L331.199 135.979C324.129 133.549 317.199 130.289 311.139 124.249C307.695 120.769 304.853 116.741 302.729 112.329C302.696 112.254 302.66 112.18 302.619 112.109C300.207 106.779 298.244 101.256 296.749 95.5992C293.849 85.6792 291.099 76.3192 283.259 68.4692C275.419 60.6292 266.059 57.8792 256.139 54.9792C250.484 53.4891 244.965 51.5255 239.639 49.1092L239.409 48.9992C234.995 46.8756 230.966 44.0298 227.489 40.5792C218.999 32.0892 215.999 21.8492 213.099 11.9392C211.899 7.83919 210.719 3.8492 209.209 0.00920564L204.869 0.00920526C206.589 4.25168 208.055 8.59269 209.259 13.0092C212.389 23.5092 215.539 34.2592 224.749 43.4692Z" fill="#001705" fill-opacity="0.12"/>
<path d="M13.0691 4.1796C20.1891 11.3096 22.7891 20.1796 25.5491 29.6096C28.5491 39.9996 31.7391 50.7396 40.9491 59.9596C50.1591 69.1796 60.8991 72.3196 71.3091 75.3196C80.7191 78.0796 89.599 80.6796 96.729 87.7996C103.859 94.9196 106.449 103.8 109.209 113.23C112.209 123.62 115.399 134.36 124.609 143.57C128.222 147.166 132.388 150.161 136.949 152.44C138.402 153.166 139.862 153.833 141.329 154.44L141.759 154.61L143.359 155.23L144.589 155.68L145.319 155.95L146.989 156.52L147.129 156.57C149.739 157.43 152.339 158.2 154.909 158.95C164.319 161.71 173.199 164.31 180.319 171.43C187.439 178.55 190.039 187.43 192.799 196.84C193.549 199.43 194.329 202.06 195.199 204.69C195.386 205.276 195.586 205.866 195.799 206.46L196.029 207.09L196.509 208.41C196.699 208.9 196.889 209.41 197.089 209.87C197.159 210.06 197.229 210.24 197.309 210.43C197.909 211.89 198.576 213.34 199.309 214.78L199.309 214.85C201.58 219.41 204.568 223.576 208.159 227.19C217.379 236.4 228.159 239.55 238.519 242.59C247.929 245.35 256.819 247.95 263.939 255.07C271.059 262.19 273.659 271.07 276.419 280.49C279.419 290.89 282.609 301.63 291.819 310.85C301.029 320.07 311.899 323.32 322.289 326.32C325.369 327.22 328.389 328.11 331.289 329.14L331.289 324.91C328.709 324.04 326.079 323.27 323.399 322.48C313.489 319.58 303.239 316.58 294.749 308.09C286.259 299.6 283.259 289.35 280.359 279.44C277.459 269.53 274.709 260.16 266.859 252.32C259.009 244.48 249.659 241.73 239.739 238.82C229.819 235.91 219.579 232.92 211.089 224.43C207.642 220.952 204.8 216.923 202.679 212.51C202.642 212.442 202.608 212.371 202.579 212.3C200.16 206.967 198.193 201.441 196.699 195.78C193.789 185.87 191.049 176.5 183.209 168.66C175.369 160.82 165.999 158.08 156.089 155.17C150.441 153.683 144.928 151.723 139.609 149.31L139.349 149.18C134.94 147.061 130.915 144.222 127.439 140.78C118.949 132.29 115.949 122.04 113.039 112.12C110.129 102.2 107.399 92.8496 99.5491 84.9996C91.6991 77.1496 82.3391 74.4196 72.4291 71.5096C62.5191 68.5996 52.2691 65.6096 43.7791 57.1196C35.2891 48.6296 32.2891 38.3796 29.3891 28.4696C26.4891 18.5596 23.7391 9.18964 15.8891 1.34964C15.4491 0.902988 14.9991 0.472934 14.5391 0.0596037L8.06912 0.0596031C9.86053 1.27414 11.5345 2.65348 13.0691 4.1796Z" fill="#001705" fill-opacity="0.12"/>
<path d="M270.469 18.9494L270.53 18.9494C271.97 19.6794 273.44 20.3494 274.91 20.9494C275.03 21.0094 275.15 21.0494 275.28 21.0994C275.83 21.3294 276.39 21.5494 276.94 21.7594L278.12 22.1894L278.91 22.4694L280.52 23.0194L280.729 23.0894C283.329 23.9594 285.919 24.7194 288.479 25.4694C297.889 28.2294 306.77 30.8294 313.9 37.9494C321.03 45.0694 323.61 53.9494 326.37 63.3794C327.3 66.5394 328.25 69.7594 329.37 72.9794L329.589 73.6094C329.749 74.0494 329.91 74.4894 330.08 74.9294C330.25 75.3694 330.46 75.9294 330.66 76.4094L330.87 76.9494L331.27 77.8594L331.27 65.8594C330.91 64.6594 330.55 63.4594 330.2 62.2594C327.3 52.3394 324.55 42.9794 316.71 35.1294C308.86 27.2894 299.5 24.5394 289.58 21.6394C283.926 20.1538 278.41 18.19 273.089 15.7694L272.839 15.6494C268.43 13.5263 264.405 10.6841 260.93 7.23937C258.755 5.06124 256.826 2.65002 255.18 0.0493708L250.49 0.0493704C252.565 3.70946 255.125 7.07307 258.099 10.0494C261.716 13.6634 265.893 16.6689 270.469 18.9494Z" fill="#001705" fill-opacity="0.12"/>
<path d="M104.687 41.9797C114.097 44.7397 122.977 47.3398 130.107 54.4598C137.237 61.5798 139.827 70.4597 142.587 79.8797C145.587 90.2697 148.777 101.02 157.987 110.23C161.6 113.827 165.766 116.821 170.327 119.1C171.777 119.84 173.237 120.5 174.717 121.1L175.087 121.24C175.637 121.47 176.187 121.69 176.747 121.9L177.927 122.33L178.717 122.61L180.327 123.17L180.537 123.24C183.137 124.1 185.727 124.86 188.287 125.61C197.697 128.37 206.577 130.97 213.697 138.09C220.817 145.21 223.417 154.09 226.177 163.51C227.107 166.68 228.057 169.91 229.177 173.13C229.257 173.33 229.327 173.54 229.407 173.74L229.887 175.07L230.457 176.52L230.687 177.09C231.287 178.56 231.957 180.01 232.687 181.46C232.685 181.476 232.685 181.493 232.687 181.51C234.966 186.071 237.96 190.237 241.557 193.85C250.767 203.06 261.557 206.21 271.907 209.25C281.317 212.01 290.207 214.61 297.327 221.73C304.447 228.85 307.047 237.73 309.807 247.15C312.807 257.55 315.997 268.29 325.207 277.51C327.064 279.341 329.071 281.014 331.207 282.51L331.207 277.51C330.106 276.618 329.051 275.67 328.047 274.67C319.557 266.18 316.557 255.93 313.657 246.02C310.757 236.11 308.007 226.74 300.167 218.89C292.327 211.04 282.957 208.31 273.037 205.4C263.117 202.49 252.887 199.5 244.387 191.01C240.943 187.53 238.101 183.501 235.977 179.09C235.977 179.02 235.907 178.94 235.867 178.86C233.445 173.537 231.481 168.017 229.997 162.36C227.087 152.45 224.347 143.08 216.507 135.24C208.667 127.4 199.297 124.66 189.387 121.75C183.733 120.266 178.217 118.302 172.897 115.88L172.647 115.77C168.24 113.643 164.215 110.801 160.737 107.36C152.247 98.8597 149.247 88.6198 146.347 78.7098C143.447 68.7998 140.697 59.4298 132.857 51.5798C125.017 43.7297 115.647 40.9998 105.727 38.0898C95.807 35.1798 85.5671 32.1898 77.077 23.6997C70.007 16.6198 66.737 8.31974 64.167 0.019752L59.987 0.0197517C62.757 9.18977 66.167 18.4398 74.247 26.5198C83.547 35.7898 94.287 38.9397 104.687 41.9797Z" fill="#001705" fill-opacity="0.12"/>
<path d="M163.488 21.0796C170.608 28.1996 173.208 37.0796 175.968 46.4996C178.968 56.8996 182.158 67.6396 191.368 76.8496C194.981 80.4465 199.148 83.4411 203.708 85.7196L203.758 85.7196C205.205 86.4529 206.668 87.1196 208.148 87.7196L208.518 87.8595C209.068 88.0896 209.618 88.3096 210.178 88.5196L211.368 88.9496L212.138 89.2295L213.788 89.7895L213.948 89.8496C216.548 90.7096 219.158 91.4795 221.718 92.2295C231.128 94.9895 240.008 97.5896 247.128 104.7C254.248 111.81 256.848 120.7 259.608 130.14C260.368 132.72 261.138 135.33 262.008 137.96L262.608 139.72C262.688 139.93 262.768 140.14 262.838 140.35L263.318 141.67C263.508 142.16 263.708 142.67 263.898 143.15C263.978 143.33 264.048 143.51 264.118 143.69C264.718 145.15 265.378 146.61 266.118 148.04L266.118 148.11C268.389 152.672 271.381 156.839 274.978 160.45C284.188 169.66 294.928 172.81 305.328 175.85C314.738 178.61 323.628 181.21 330.748 188.33C330.918 188.5 331.068 188.68 331.238 188.85L331.238 183.37C323.898 177.14 315.398 174.63 306.448 172.01C296.538 169.11 286.298 166.11 277.798 157.62C274.354 154.139 271.512 150.111 269.388 145.7L269.288 145.49C266.869 140.157 264.902 134.631 263.408 128.97C260.498 119.05 257.758 109.69 249.918 101.84C242.078 93.9996 232.718 91.2496 222.798 88.3496C217.153 86.8645 211.643 84.9041 206.328 82.4896L206.058 82.3595C201.65 80.239 197.625 77.4003 194.148 73.9596C185.658 65.4596 182.658 55.2195 179.758 45.2995C176.858 35.3795 174.108 26.0296 166.268 18.1796C158.428 10.3295 149.058 7.59956 139.138 4.68956C134.417 3.40153 129.775 1.83546 125.238 -0.000445255L116.428 -0.000446025C123.368 4.22955 130.778 6.40959 138.018 8.52959C147.478 11.3196 156.368 13.9596 163.488 21.0796Z" fill="#001705" fill-opacity="0.12"/>
<path d="M102.558 312.68L102.448 312.47C100.026 307.14 98.0624 301.613 96.5785 295.95C93.6685 286.04 90.9285 276.67 83.0785 268.83C75.2385 260.98 65.8685 258.24 55.9485 255.33C50.2954 253.844 44.7788 251.88 39.4585 249.46L39.2184 249.35C34.8064 247.232 30.7807 244.389 27.3085 240.94C18.8185 232.45 15.8185 222.2 12.9085 212.29C10.0985 202.67 7.41841 193.58 0.108411 185.89L0.108411 192.12C4.67841 198.42 6.82841 205.74 9.10841 213.42C12.1084 223.81 15.3084 234.55 24.5184 243.77C28.1344 247.361 32.3 250.351 36.8584 252.63L36.9185 252.63C38.3685 253.36 39.8285 254.02 41.2985 254.63L41.7484 254.81L43.3185 255.43L44.5685 255.88L45.2784 256.14L46.9585 256.71L47.0884 256.76C49.6984 257.62 52.3084 258.39 54.8784 259.15C64.2784 261.9 73.1685 264.5 80.2885 271.62C87.4085 278.74 90.0084 287.62 92.7684 297.05C93.5184 299.62 94.2884 302.23 95.1584 304.85L95.1584 304.92C95.3485 305.5 95.5384 306.07 95.7484 306.64C95.8184 306.87 95.9084 307.09 95.9884 307.31C96.1384 307.74 96.2985 308.17 96.4585 308.6C96.6185 309.03 96.8485 309.6 97.0485 310.1L97.2584 310.62C97.8584 312.08 98.5184 313.54 99.2584 314.98L99.2584 315.04C101.539 319.594 104.53 323.756 108.118 327.37C109.5 328.743 110.967 330.029 112.508 331.22L119.648 331.22C116.473 329.377 113.549 327.132 110.948 324.54C107.514 321.079 104.679 317.071 102.558 312.68Z" fill="#001705" fill-opacity="0.12"/>
<path d="M4.5381 142.119C13.9481 144.879 22.8382 147.479 29.9581 154.599C37.0781 161.719 39.6881 170.599 42.4381 180.019C45.4381 190.419 48.638 201.159 57.848 210.379C61.464 213.97 65.6298 216.961 70.1881 219.239C71.6381 219.969 73.0981 220.629 74.5681 221.239L74.9381 221.379C75.4981 221.609 76.048 221.829 76.608 222.039L77.7881 222.469L78.5681 222.759L80.1881 223.309L80.3881 223.379C82.9881 224.239 85.5881 225.009 88.1481 225.759C97.5581 228.509 106.438 231.109 113.558 238.229C120.678 245.349 123.278 254.229 126.028 263.649C126.788 266.229 127.568 268.849 128.438 271.479C128.628 272.059 128.828 272.639 129.038 273.229C129.108 273.439 129.188 273.659 129.268 273.879L129.748 275.179C129.938 275.679 130.138 276.179 130.338 276.669C130.408 276.849 130.468 277.019 130.548 277.199C131.148 278.659 131.808 280.119 132.548 281.559L132.548 281.619C134.826 286.178 137.817 290.344 141.408 293.959C150.628 303.169 161.408 306.319 171.768 309.359C181.178 312.119 190.058 314.729 197.188 321.849C199.894 324.591 202.149 327.743 203.868 331.189L208.328 331.189C206.312 326.664 203.493 322.541 200.008 319.019C192.168 311.169 182.808 308.429 172.888 305.519C162.968 302.609 152.728 299.619 144.238 291.129C140.826 287.68 138.008 283.689 135.898 279.319L135.788 279.099C133.367 273.772 131.404 268.249 129.918 262.589C127.008 252.679 124.268 243.309 116.418 235.469C108.578 227.629 99.2081 224.889 89.2981 221.979C83.6433 220.493 78.1238 218.533 72.7981 216.119L72.5581 215.999C68.1481 213.878 64.1228 211.036 60.6481 207.589C52.1581 199.099 49.1581 188.849 46.2481 178.939C43.3381 169.029 40.6081 159.659 32.7581 151.819C24.9081 143.979 15.5481 141.229 5.63808 138.319C3.78807 137.779 1.92813 137.239 0.0681322 136.649L0.0681319 140.839L4.5381 142.119Z" fill="#001705" fill-opacity="0.12"/>
<path d="M49.6996 302.209C41.8496 294.359 32.4896 291.619 22.5696 288.709C16.918 287.222 11.4019 285.262 6.07959 282.849L5.83948 282.729C3.85533 281.756 1.94079 280.646 0.109502 279.409L0.109501 284.169C1.2095 284.829 2.31958 285.439 3.43958 286.009L3.49952 286.009C4.94952 286.739 6.40952 287.399 7.87952 288.009L8.28955 288.169L9.90955 288.809L11.1195 289.249L11.8695 289.519L13.5195 290.089L13.6896 290.139C16.2896 291.009 18.8896 291.779 21.4596 292.529C30.8596 295.279 39.7495 297.879 46.8695 304.999C53.9895 312.119 56.5895 320.999 59.3495 330.429L59.5895 331.249L63.7695 331.249C63.5795 330.599 63.3796 329.949 63.1896 329.299C60.2896 319.419 57.5496 310.049 49.6996 302.209Z" fill="#001705" fill-opacity="0.12"/>
<path d="M0.0974122 329.889C1.16741 330.319 2.21744 330.779 3.24744 331.279L11.1875 331.279C7.74776 328.916 4.02103 327.001 0.0974126 325.579L0.0974122 329.889Z" fill="#001705" fill-opacity="0.12"/>
<path d="M7.57058 93.3194C16.7906 102.529 27.5706 105.679 37.9306 108.719C47.3306 111.479 56.2205 114.079 63.3505 121.199C70.4805 128.319 73.0706 137.199 75.8306 146.619C78.8306 157.019 82.0205 167.759 91.2305 176.979C94.8464 180.57 99.0122 183.561 103.571 185.839C105.021 186.579 106.481 187.239 107.961 187.839L108.311 187.979C108.871 188.213 109.43 188.433 109.99 188.639L111.171 189.069L111.961 189.349C112.501 189.549 113.041 189.729 113.581 189.909L113.771 189.969C116.371 190.839 118.971 191.599 121.531 192.359C130.941 195.109 139.821 197.709 146.941 204.829C154.061 211.949 156.661 220.829 159.421 230.259C160.351 233.429 161.301 236.649 162.421 239.869L162.631 240.469C162.791 240.919 162.95 241.369 163.12 241.819C163.29 242.269 163.501 242.819 163.701 243.279C163.771 243.459 163.841 243.649 163.921 243.829C164.521 245.296 165.187 246.753 165.921 248.199C168.199 252.758 171.19 256.923 174.781 260.539C184.001 269.749 194.781 272.899 205.141 275.939C214.551 278.699 223.441 281.299 230.561 288.419C237.681 295.539 240.281 304.419 243.041 313.849C244.602 319.782 246.669 325.57 249.22 331.149L253.73 331.149C250.54 325.209 248.73 318.899 246.88 312.719C243.97 302.809 241.23 293.439 233.38 285.599C225.53 277.759 216.181 275.009 206.261 272.099C196.341 269.189 186.1 266.199 177.61 257.709C174.166 254.229 171.324 250.201 169.201 245.789L169.09 245.569C166.67 240.242 164.706 234.719 163.22 229.059C160.31 219.149 157.57 209.779 149.73 201.939C141.89 194.099 132.52 191.359 122.61 188.449C116.962 186.963 111.449 185.002 106.131 182.589L105.87 182.469C101.46 180.348 97.4353 177.506 93.9606 174.059C85.4706 165.569 82.4706 155.319 79.5606 145.409C76.6506 135.499 73.9206 126.129 66.0706 118.279C58.2206 110.429 48.8606 107.699 38.9506 104.789C29.0406 101.879 18.7906 98.8894 10.3006 90.3994C5.77964 85.7732 2.27177 80.256 0.000510745 74.1994L0.000509937 83.4394C2.06917 87.0574 4.61544 90.3806 7.57058 93.3194Z" fill="#001705" fill-opacity="0.12"/>
</svg>
