<svg width="531" height="967" viewBox="0 0 531 967" fill="none" xmlns="http://www.w3.org/2000/svg">
<path d="M425.977 386.509L425.977 579.906L919.437 579.906L919.437 386.509L425.977 386.509Z" fill="#4CE467"/>
<path d="M327.97 966.777L919.436 966.777L919.436 773.52L226.685 773.52C224.922 773.52 223.176 773.205 221.547 772.593C219.918 771.982 218.437 771.085 217.19 769.955C215.944 768.825 214.955 767.483 214.28 766.007C213.605 764.53 213.258 762.947 213.258 761.349L213.258 205.567C213.258 203.969 213.605 202.386 214.28 200.91C214.955 199.433 215.944 198.092 217.19 196.961C218.437 195.831 219.918 194.935 221.547 194.323C223.176 193.712 224.922 193.397 226.685 193.397L919.437 193.397L919.437 -0.000726918L327.97 -0.000769722C240.987 -0.000776017 157.566 31.3182 96.06 87.0664C34.5536 142.814 -0.000459471 218.425 -0.000465177 297.265L-0.000492108 669.407C-0.0156995 708.453 8.45622 747.119 24.9315 783.198C41.4067 819.276 65.5626 852.058 96.019 879.673C126.475 907.288 162.636 929.194 202.434 944.139C242.233 959.085 284.891 966.777 327.97 966.777Z" fill="#4CE467"/>
</svg>
