<svg width="129" height="138" viewBox="0 0 129 138" fill="none" xmlns="http://www.w3.org/2000/svg">
<g opacity="0.33">
<path d="M36.6304 93.5043C35.0266 90.576 33.5148 87.8112 33.5148 84.379C33.5148 80.9467 35.0266 78.1819 36.6304 75.2536C38.3976 72.0188 40.226 68.6751 40.226 64.2384C40.226 59.8018 38.3976 56.4547 36.627 53.2199C35.0266 50.2916 33.5148 47.5234 33.5114 44.0945C33.508 40.6657 35.0266 37.9009 36.6304 34.9692C38.3976 31.7345 40.226 28.3908 40.226 23.9541C40.226 19.5174 38.3976 16.1702 36.6304 12.9355C35.0266 10.0072 33.5148 7.23899 33.5114 3.81017C33.5134 3.30333 33.5486 2.79714 33.617 2.29492C33.1403 2.43453 32.6704 2.58095 32.2005 2.73418C32.1698 3.07468 32.1494 3.44243 32.1494 3.81017C32.1494 7.5863 33.7464 10.501 35.4352 13.5893C37.1241 16.6776 38.864 19.8647 38.864 23.9541C38.864 28.0435 37.1207 31.2305 35.4318 34.3154C33.7429 37.4003 32.1494 40.3184 32.1494 44.0945C32.1494 47.8707 33.7464 50.7888 35.4352 53.8737C37.1241 56.9586 38.864 60.1491 38.864 64.2384C38.864 68.3278 37.1207 71.5149 35.4352 74.5998C33.7498 77.6848 32.1528 80.6028 32.1528 84.379C32.1528 88.1551 33.7464 91.0731 35.4352 94.1581C37.1241 97.243 38.864 100.433 38.864 104.523C38.8275 106.914 38.2661 109.268 37.2194 111.418C37.6723 111.52 38.1286 111.615 38.5814 111.704C39.6378 109.456 40.1975 107.007 40.2226 104.523C40.226 100.086 38.3976 96.739 36.6304 93.5043Z" fill="#FFC844"/>
<path d="M52.7024 93.5043C51.1021 90.576 49.5868 87.8112 49.5868 84.379C49.5868 80.9468 51.1021 78.1819 52.7024 75.2536C54.473 72.0189 56.3015 68.6752 56.3015 64.2385C56.3015 59.8018 54.473 56.4547 52.7024 53.22C51.1021 50.2917 49.5868 47.5234 49.5868 44.0946C49.5868 40.6658 51.1021 37.9009 52.7024 34.9692C54.473 31.7345 56.3015 28.3908 56.3015 23.9541C56.3015 19.5174 54.4798 16.1873 52.7024 12.9355C51.1021 10.0038 49.5868 7.23902 49.5868 3.8102C49.5947 2.51516 49.8061 1.22938 50.2134 0H49.5732C49.3076 0 49.0421 0 48.7799 0C48.4149 1.23378 48.228 2.51336 48.2249 3.79998C48.2249 7.57611 49.8218 10.4908 51.5107 13.5791C53.1995 16.6674 54.9395 19.8545 54.9395 23.9439C54.9395 28.0333 53.1961 31.2203 51.5073 34.3052C49.8184 37.3902 48.2249 40.3083 48.2249 44.0844C48.2249 47.8605 49.8218 50.7786 51.5073 53.8635C53.1927 56.9484 54.9395 60.1389 54.9395 64.2283C54.9395 68.3176 53.1961 71.5047 51.5073 74.5896C49.8184 77.6746 48.2249 80.5926 48.2249 84.3688C48.2249 88.1449 49.8218 91.063 51.5073 94.1479C53.1927 97.2328 54.9395 100.423 54.9395 104.513C54.9395 107.683 53.8907 110.301 52.6343 112.77H54.1597C55.3515 110.339 56.3015 107.71 56.3015 104.513C56.3015 100.086 54.4798 96.7391 52.7024 93.5043Z" fill="#FFC844"/>
<path d="M97.0047 0C96.637 1.23674 96.4489 2.51994 96.4463 3.8102C96.4463 7.58633 98.0432 10.501 99.7321 13.5893C101.421 16.6776 103.171 19.8647 103.171 23.9541C103.171 28.0435 101.428 31.2305 99.7389 34.3155C98.05 37.4004 96.4565 40.3184 96.4565 44.0946C96.4565 47.8707 98.0534 50.7888 99.7389 53.8737C101.424 56.9586 103.171 60.1491 103.171 64.2385C103.171 68.3279 101.428 71.515 99.7423 74.5999C98.0568 77.6848 96.4599 80.6029 96.4599 84.379C96.4599 88.1551 98.0534 91.0732 99.7423 94.1581C101.431 97.243 103.171 100.434 103.171 104.523C103.171 107.693 102.122 110.311 100.866 112.78H102.391C103.583 110.349 104.533 107.72 104.533 104.523C104.533 100.096 102.705 96.7391 100.937 93.5043C99.3337 90.576 97.8219 87.8112 97.8219 84.379C97.8219 80.9468 99.3337 78.1819 100.937 75.2536C102.705 72.0189 104.533 68.6752 104.533 64.2385C104.533 59.8018 102.705 56.4547 100.934 53.22C99.3337 50.2917 97.8219 47.5234 97.8185 44.0946C97.8151 40.6658 99.3337 37.9009 100.934 34.9692C102.705 31.7345 104.533 28.3908 104.533 23.9541C104.533 19.5174 102.705 16.1703 100.934 12.9355C99.3337 10.0073 97.8219 7.23902 97.8185 3.8102C97.8264 2.51516 98.0378 1.22938 98.445 0H97.0047Z" fill="#FFC844"/>
<path d="M20.5559 93.5043C18.9522 90.576 17.4404 87.8078 17.4404 84.379C17.4404 80.9501 18.9522 78.1853 20.5559 75.2536C22.3231 72.0188 24.155 68.6752 24.155 64.2385C24.155 59.8018 22.3231 56.4547 20.5559 53.2199C18.9522 50.2916 17.4404 47.5234 17.4404 44.0945C17.4404 40.6657 18.9522 37.8975 20.5559 34.9692C22.3231 31.7345 24.155 28.3908 24.155 23.9541C24.155 19.5174 22.3231 16.1702 20.5559 12.9355C19.8749 11.6893 19.1939 10.4703 18.6696 9.2207C18.2814 9.47267 17.9 9.73142 17.5187 9.99701C18.0601 11.2092 18.7036 12.3805 19.3608 13.5893C21.0462 16.6742 22.793 19.8647 22.793 23.9541C22.793 28.0435 21.0462 31.2305 19.3608 34.3154C17.6753 37.4004 16.0784 40.3184 16.0784 44.0945C16.0784 47.8707 17.6719 50.7888 19.3608 53.8737C21.0496 56.9586 22.793 60.1491 22.793 64.2385C22.793 68.3278 21.0462 71.5149 19.3608 74.5998C17.6753 77.6848 16.0784 80.6028 16.0784 84.379C16.0784 88.1551 17.6719 91.0732 19.3608 94.1581C21.0496 97.243 22.793 100.433 22.793 104.523C22.7931 105.011 22.7669 105.498 22.7147 105.984C23.1437 106.215 23.5727 106.44 24.0052 106.665C24.1028 105.956 24.1529 105.242 24.155 104.526C24.155 100.086 22.3231 96.739 20.5559 93.5043Z" fill="#FFC844"/>
<path d="M68.7803 93.5043C67.1799 90.576 65.6647 87.8112 65.6647 84.379C65.6647 80.9468 67.1799 78.1819 68.7803 75.2536C70.5509 72.0189 72.3794 68.6752 72.3794 64.2385C72.3794 59.8018 70.5509 56.4547 68.7803 53.22C67.1765 50.2917 65.6647 47.5234 65.6647 44.0946C65.6647 40.6658 67.1765 37.8975 68.7803 34.9692C70.5509 31.7345 72.3794 28.3908 72.3794 23.9541C72.3794 19.5174 70.5475 16.1873 68.7803 12.9355C67.1765 10.0073 65.6647 7.23902 65.6647 3.8102C65.6715 2.51534 65.8818 1.22957 66.2878 0H64.8611C64.4934 1.23674 64.3053 2.51994 64.3027 3.8102C64.3027 7.58633 65.8963 10.5044 67.5851 13.5893C69.274 16.6742 71.0174 19.8647 71.0174 23.9541C71.0174 28.0435 69.274 31.2305 67.5851 34.3155C65.8963 37.4004 64.3027 40.3184 64.3027 44.0946C64.3027 47.8707 65.8963 50.7888 67.5851 53.8737C69.274 56.9586 71.0174 60.1491 71.0174 64.2385C71.0174 68.3279 69.274 71.515 67.5851 74.5999C65.8963 77.6848 64.3027 80.6029 64.3027 84.379C64.3027 88.1551 65.8963 91.0732 67.5851 94.1581C69.274 97.243 71.0174 100.434 71.0174 104.523C71.0174 107.693 69.9686 110.311 68.7122 112.78H70.2342C71.4294 110.349 72.3794 107.72 72.3794 104.523C72.376 100.086 70.5475 96.7425 68.7803 93.5043Z" fill="#FFC844"/>
<path d="M6.71804 23.9541C6.71804 28.0401 4.97468 31.2305 3.28581 34.3154C1.59694 37.4004 0 40.3184 0 44.1082C0 47.8979 1.59353 50.8024 3.28241 53.8873C4.97128 56.9722 6.71463 60.1627 6.71463 64.2521C6.71463 68.3415 4.97128 71.5285 3.28241 74.6134C1.75016 77.4191 0.296235 80.0853 0.0442665 83.3847C0.498265 84.2087 0.968153 85.0202 1.45393 85.8193C1.39362 85.3461 1.36291 84.8696 1.36199 84.3926C1.36199 80.9638 2.87721 78.1989 4.47755 75.2672C6.24815 72.0325 8.07663 68.6888 8.07663 64.2521C8.07663 59.8154 6.24815 56.4683 4.47755 53.2336C2.87381 50.3053 1.36199 47.537 1.36199 44.1082C1.36199 40.6794 2.87381 37.9111 4.47755 34.9828C6.24815 31.7481 8.07663 28.4044 8.07663 23.9677C8.07365 22.3079 7.81408 20.6586 7.3071 19.0781C6.94617 19.4845 6.59092 19.8965 6.24134 20.3141C6.55419 21.5023 6.71438 22.7255 6.71804 23.9541Z" fill="#FFC844"/>
<path d="M84.8526 93.5043C83.2488 90.576 81.737 87.8112 81.737 84.379C81.737 80.9468 83.2488 78.1853 84.8526 75.2536C86.6198 72.0189 88.4516 68.6752 88.4516 64.2385C88.4516 59.8018 86.6198 56.4547 84.8526 53.22C83.2488 50.2917 81.737 47.5234 81.737 44.0946C81.737 40.6658 83.2488 37.8975 84.8526 34.9692C86.6198 31.7345 88.4516 28.3908 88.4516 23.9541C88.4516 19.5174 86.6198 16.1703 84.8526 12.9355C83.2488 10.0073 81.737 7.23902 81.737 3.8102C81.7438 2.51534 81.9541 1.22957 82.3601 0H80.93C80.5651 1.23727 80.3782 2.52023 80.375 3.8102C80.375 7.58633 81.9685 10.501 83.6574 13.5893C85.3463 16.6776 87.0896 19.8647 87.0896 23.9541C87.0896 28.0435 85.3429 31.2305 83.6574 34.3155C81.9719 37.4004 80.375 40.3184 80.375 44.0946C80.375 47.8707 81.9685 50.7888 83.6574 53.8737C85.3463 56.9586 87.0896 60.1491 87.0896 64.2385C87.0896 68.3279 85.3429 71.515 83.6574 74.5999C81.9719 77.6848 80.375 80.6029 80.375 84.379C80.375 88.1551 81.9685 91.0732 83.6574 94.1581C85.3463 97.243 87.0896 100.434 87.0896 104.523C87.0896 107.693 86.0409 110.311 84.7811 112.78H86.3065C87.4982 110.349 88.4516 107.72 88.4516 104.523C88.4516 100.086 86.6198 96.7425 84.8526 93.5043Z" fill="#FFC844"/>
</g>
<path d="M91.8934 126.563L81.0034 126.563L81.0034 137.002L129 137.002L129 89.0011L119.027 89.0011L119.027 99.4295C119.026 106.625 116.167 113.526 111.078 118.614C105.99 123.702 99.0893 126.561 91.8934 126.563Z" fill="#4CE467"/>
<path d="M101.386 107.808L101.386 88.9998L81.0005 88.9998L81.0005 108.918L100.27 108.918C100.416 108.919 100.561 108.89 100.697 108.835C100.832 108.779 100.955 108.698 101.059 108.595C101.162 108.491 101.245 108.369 101.301 108.234C101.357 108.099 101.386 107.954 101.386 107.808Z" fill="#4CE467"/>
<path d="M101.382 107.809C101.382 108.104 101.265 108.386 101.057 108.595C100.849 108.803 100.566 108.92 100.272 108.92L81.0025 108.92L81.0025 126.563L91.8925 126.563C99.0884 126.562 105.989 123.703 111.078 118.615C116.166 113.527 119.025 106.626 119.026 99.4302L119.026 89.0018L101.382 89.0018L101.382 107.809Z" fill="#766DFA"/>
</svg>
