<svg width="283" height="702" viewBox="0 0 283 702" fill="none" xmlns="http://www.w3.org/2000/svg">
<path d="M155.544 145.906C156.042 144.819 156.751 143.842 157.632 143.033C158.551 142.21 159.613 141.562 160.764 141.121C161.957 140.679 163.219 140.452 164.492 140.452H282.958V0H237.998C174.87 0 114.343 22.7365 69.7061 63.2255C25.0697 103.714 0 158.612 0 215.861V486.108C0.0268585 514.632 6.19872 542.815 18.0948 568.737C30.3613 595.334 47.9109 619.153 69.6745 638.743C92.2503 659.082 118.466 674.964 146.94 685.554C176.076 696.457 206.934 702.027 238.04 702H283V561.725H164.575C163.302 561.726 162.039 561.496 160.848 561.046C159.694 560.609 158.632 559.96 157.716 559.134C156.835 558.325 156.125 557.348 155.627 556.261C155.139 555.203 154.886 554.051 154.886 552.886V149.281C154.86 148.122 155.084 146.971 155.544 145.906Z" fill="#4CE467"/>
</svg>
