<svg width="284" height="284" viewBox="0 0 284 284" fill="none" xmlns="http://www.w3.org/2000/svg">
<path d="M148.131 245.627C152.487 241.263 157.984 239.625 163.806 237.91C170.349 235.989 177.114 234.008 182.945 228.169C188.776 222.329 190.765 215.564 192.686 209.021C194.401 203.259 195.97 197.805 200.258 193.458C204.545 189.11 210.05 187.575 215.821 185.886C222.364 183.974 229.129 181.993 234.96 176.154C235 176.119 235.037 176.081 235.072 176.042L235.175 175.939C241.014 170.1 242.995 163.334 244.916 156.792C246.631 151.029 248.2 145.576 252.479 141.237C256.758 136.898 262.271 135.354 268.051 133.657C273.427 132.087 278.958 130.458 284 126.685L284 122.226C282.339 123.751 280.493 125.059 278.504 126.119C278.338 126.142 278.179 126.194 278.032 126.274C274.579 127.893 270.986 129.194 267.296 130.158C261.045 131.984 255.146 133.717 250.146 138.733C250.146 138.733 250.078 138.81 250.035 138.844L249.932 138.947C244.95 143.921 243.218 149.829 241.357 156.097C239.574 162.177 237.73 168.471 232.594 173.667C227.457 178.863 221.103 180.655 215.015 182.439C208.764 184.265 202.865 185.998 197.865 191.014L197.763 191.117L197.651 191.22C192.669 196.202 190.937 202.11 189.076 208.369C188.114 212.06 186.814 215.654 185.192 219.105C185.119 219.254 185.067 219.413 185.037 219.577C183.815 221.88 182.257 223.99 180.416 225.836C175.202 231.059 168.865 232.911 162.734 234.711C156.603 236.512 150.584 238.27 145.584 243.286C144.544 244.325 143.6 245.456 142.763 246.665C143.767 247.231 144.77 247.788 145.782 248.38C146.48 247.393 147.266 246.472 148.131 245.627Z" fill="#FC805F" fill-opacity="0.33"/>
<path d="M184.643 258.79C191.186 256.869 197.951 254.888 203.791 249.057C209.63 243.226 211.611 236.452 213.523 229.91C215.238 224.139 216.816 218.685 221.095 214.346C225.374 210.007 230.887 208.464 236.658 206.774C243.201 204.854 249.966 202.873 255.806 197.033L255.909 196.922L256.02 196.828C261.851 190.988 263.84 184.223 265.753 177.68C267.468 171.909 269.045 166.464 273.324 162.117C276.411 159.073 280.064 157.383 284 156.046L284 152.29C279.292 153.808 274.868 155.72 271 159.578L270.898 159.69L270.786 159.793C265.804 164.775 264.081 170.674 262.211 176.943C260.428 183.031 258.584 189.316 253.456 194.512C248.329 199.709 241.957 201.501 235.869 203.285C229.618 205.111 223.719 206.843 218.719 211.859L218.617 211.971L218.505 212.074C213.523 217.056 211.8 222.955 209.93 229.224C208.974 232.916 207.673 236.51 206.046 239.959C205.974 240.108 205.925 240.267 205.9 240.431C204.674 242.735 203.117 244.847 201.278 246.699C196.056 251.913 189.719 253.773 183.588 255.566C179.061 256.895 174.713 258.138 170.726 260.71C172.055 261.285 173.376 261.851 174.705 262.425C177.9 260.915 181.227 259.698 184.643 258.79Z" fill="#FC805F" fill-opacity="0.33"/>
<path d="M251.441 282.191C252.984 278.764 254.243 275.216 255.206 271.583C256.921 265.821 258.49 260.367 262.777 256.02C267.065 251.673 272.57 250.138 278.341 248.448C280.218 247.9 282.114 247.342 284 246.733L284 242.935C281.873 243.715 279.713 244.35 277.586 244.976C271.335 246.802 265.435 248.534 260.436 253.55L260.333 253.653C260.333 253.653 260.256 253.722 260.222 253.765C255.24 258.747 253.516 264.646 251.647 270.915C250.685 274.605 249.385 278.199 247.763 281.65C247.731 281.713 247.708 281.779 247.694 281.848C249.006 281.925 250.206 282.053 251.441 282.191Z" fill="#FC805F" fill-opacity="0.33"/>
<path d="M106.449 203.945C110.813 199.58 116.301 197.942 122.124 196.228C128.666 194.307 135.432 192.326 141.271 186.486C147.111 180.647 149.083 173.89 151.004 167.339C152.719 161.576 154.288 156.131 158.567 151.784C162.846 147.436 168.368 145.902 174.139 144.212C180.681 142.292 187.447 140.311 193.286 134.471L193.389 134.36L193.501 134.257C199.332 128.426 201.313 121.66 203.233 115.109C204.948 109.347 206.526 103.893 210.796 99.5544C215.067 95.2156 220.597 93.7321 226.368 92.0171C232.911 90.1049 239.676 88.1241 245.516 82.2846C251.355 76.4452 253.336 69.6795 255.248 63.1369C256.963 57.3231 258.558 51.8267 262.923 47.4707C267.288 43.1147 272.784 41.4683 278.598 39.7533C280.39 39.2217 282.199 38.69 284 38.0811L284 34.4368C281.891 35.2086 279.713 35.8345 277.629 36.4605C271.386 38.2869 265.478 40.0191 260.479 45.0354C255.48 50.0517 253.774 55.9169 251.904 62.1851C250.035 68.4533 248.251 74.653 243.038 79.8665C241.189 81.7058 239.08 83.2631 236.778 84.4883C236.612 84.5189 236.451 84.5709 236.298 84.6427C232.846 86.2639 229.252 87.5642 225.562 88.5272C219.311 90.3536 213.412 92.0857 208.413 97.102L208.31 97.2135L208.198 97.3164C203.216 102.298 201.493 108.198 199.623 114.466C197.84 120.554 195.996 126.84 190.86 132.036C185.723 137.232 179.369 139.025 173.281 140.808C167.03 142.635 161.131 144.367 156.132 149.383L156.02 149.503L155.917 149.597C150.935 154.579 149.212 160.479 147.342 166.747C146.382 170.438 145.081 174.032 143.458 177.483C143.386 177.633 143.334 177.791 143.304 177.954C142.084 180.26 140.529 182.373 138.69 184.223C133.468 189.436 127.131 191.297 121 193.089C114.869 194.881 108.85 196.648 103.851 201.664C100.189 205.325 98.2854 209.493 96.802 213.926C97.7395 214.744 98.6799 215.552 99.6231 216.353C101.218 211.671 102.95 207.443 106.449 203.945Z" fill="#FC805F" fill-opacity="0.33"/>
<path d="M127.243 224.782C131.607 220.417 137.104 218.779 142.918 217.107C149.46 215.195 156.226 213.206 162.065 207.375C167.905 201.544 169.886 194.77 171.798 188.227C173.513 182.456 175.09 177.011 179.369 172.664C183.648 168.316 189.162 166.781 194.933 165.092C201.475 163.171 208.249 161.19 214.08 155.36L214.192 155.239L214.295 155.145C220.134 149.306 222.115 142.54 224.027 135.998C225.742 130.227 227.32 124.782 231.599 120.434C235.878 116.087 241.391 114.552 247.162 112.863C253.705 110.942 260.47 108.961 266.31 103.13C272.149 97.299 274.13 90.5249 276.051 83.9823C277.766 78.16 279.361 72.672 283.717 68.3074L283.957 68.0845L283.957 63.5826C283.017 64.2837 282.128 65.0518 281.299 65.8808C276.317 70.8628 274.585 76.7623 272.724 83.0305C270.863 89.2987 269.071 95.4984 263.849 100.72C261.998 102.557 259.89 104.114 257.589 105.342C257.425 105.365 257.266 105.414 257.118 105.488C253.664 107.112 250.067 108.412 246.373 109.372C240.131 111.208 234.223 112.931 229.224 117.947L229.121 118.067L229.018 118.162C224.036 123.144 222.304 129.043 220.443 135.311C218.659 141.4 216.807 147.694 211.679 152.89C206.552 158.086 200.189 159.87 194.092 161.653C187.85 163.488 181.942 165.212 176.943 170.228L176.84 170.34L176.737 170.443C171.755 175.425 170.023 181.324 168.162 187.592C167.2 191.284 165.897 194.878 164.269 198.328C164.196 198.48 164.147 198.642 164.123 198.808C162.898 201.11 161.341 203.219 159.501 205.068C154.288 210.282 147.951 212.142 141.811 213.935C135.672 215.727 129.661 217.493 124.662 222.509C122.151 225.065 120.177 228.097 118.856 231.427C119.817 232.113 120.786 232.782 121.746 233.451C122.94 230.203 124.814 227.247 127.243 224.782Z" fill="#FC805F" fill-opacity="0.33"/>
<path d="M234.36 250.746C236.075 244.976 237.653 239.531 241.932 235.183C246.211 230.836 251.733 229.301 257.504 227.611C264.046 225.691 270.812 223.71 276.643 217.879C276.678 217.84 276.715 217.803 276.754 217.768L276.857 217.665C279.999 214.468 282.432 210.647 284 206.449L284 194.718C283.691 195.722 283.391 196.742 283.091 197.762C281.307 203.85 279.455 210.144 274.328 215.341C269.2 220.537 262.837 222.355 256.723 224.07C250.472 225.905 244.564 227.629 239.574 232.645C239.544 232.686 239.509 232.724 239.471 232.756L239.368 232.859C234.386 237.841 232.654 243.741 230.793 250.009C229.828 253.696 228.528 257.287 226.909 260.736C226.829 260.886 226.777 261.048 226.754 261.216C225.529 263.518 223.972 265.628 222.132 267.476C218.824 270.661 214.833 273.048 210.462 274.456C212.308 274.948 214.161 275.422 216.018 275.879C219.201 274.388 222.102 272.357 224.593 269.877C230.467 264.055 232.448 257.289 234.36 250.746Z" fill="#FC805F" fill-opacity="0.33"/>
<path d="M284 271.995C283.041 272.705 282.135 273.485 281.29 274.328L281.187 274.439L281.076 274.542C278.447 277.213 276.403 280.402 275.074 283.906C276.343 283.906 277.646 283.974 278.889 284C280.002 281.35 281.599 278.931 283.597 276.866L283.983 276.497L284 271.995Z" fill="#FC805F" fill-opacity="0.33"/>
<path d="M38.7585 112.905C45.3011 110.993 52.0667 109.012 57.9062 103.173C63.7457 97.3334 65.7265 90.5679 67.6386 84.0252C69.3536 78.2544 70.9314 72.8093 75.2103 68.4618C79.4891 64.1144 85.0028 62.5794 90.7737 60.8902C97.3249 58.978 104.09 56.9886 109.921 51.1577L110.033 51.0462L110.136 50.9433C115.975 45.1038 117.956 38.3383 119.877 31.7957C121.592 26.0248 123.161 20.5797 127.44 16.2323C131.719 11.8848 137.232 10.3499 143.003 8.66069C149.109 6.87711 155.402 5.02494 160.959 0.0858154L155.282 0.0858152C154.682 0.46311 154.082 0.823254 153.465 1.15767C153.301 1.18122 153.142 1.23035 152.993 1.30338C149.542 2.92961 145.948 4.23287 142.257 5.19641C136.006 7.02285 130.107 8.7464 125.107 13.7713L124.996 13.8913L124.893 13.9856C119.911 18.9676 118.179 24.8672 116.318 31.1354C114.535 37.215 112.682 43.5089 107.555 48.7053C102.427 53.9017 96.0644 55.6852 89.9762 57.4688C83.7251 59.3038 77.8256 61.0359 72.8265 66.0437L72.7236 66.1551L72.6121 66.258C67.6301 71.24 65.898 77.1396 64.0372 83.4078C63.0727 87.0946 61.7725 90.6854 60.1528 94.135C60.0771 94.2862 60.025 94.4482 59.9984 94.6152C58.7732 96.9172 57.2159 99.0262 55.3766 100.875C50.1631 106.088 43.8262 107.949 37.6952 109.75C32.9019 111.148 28.3229 112.494 24.1983 115.289L25.6304 118.47C29.5834 115.598 34.068 114.312 38.7585 112.905Z" fill="#FC805F" fill-opacity="0.33"/>
<path d="M43.9291 141.425C48.2937 137.061 53.7817 135.423 59.604 133.751C66.1466 131.83 72.9122 129.849 78.7431 124.01C84.574 118.17 86.5634 111.405 88.4842 104.862C90.1991 99.0998 91.7683 93.6547 96.0472 89.3073C100.326 84.9598 105.805 83.4421 111.619 81.7271C118.162 79.8149 124.927 77.8341 130.767 71.9947L130.87 71.8832L130.973 71.7803C136.812 65.9494 138.793 59.1837 140.714 52.6325C142.429 46.8702 143.998 41.4167 148.277 37.0778C152.556 32.7389 158.069 31.1954 163.849 29.4975C170.391 27.5854 177.157 25.6046 182.996 19.7651C188.836 13.9256 190.808 7.16007 192.729 0.617439L192.9 0.0514679L189.325 0.0514677C187.558 6.05388 185.672 12.2364 180.57 17.3384C178.72 19.1802 176.608 20.7377 174.301 21.9603C174.138 21.9886 173.979 22.0406 173.83 22.1146C170.378 23.7357 166.784 25.036 163.094 25.999C156.843 27.8255 150.944 29.5576 145.944 34.5739L145.833 34.6854L145.73 34.7883C140.748 39.7703 139.024 45.6698 137.155 51.938C135.372 58.0262 133.528 64.3116 128.392 69.5079C123.255 74.7043 116.901 76.4964 110.813 78.28C104.562 80.1064 98.6625 81.8386 93.6634 86.8549L93.5434 86.9749L93.449 87.0692C88.467 92.0512 86.7435 97.9508 84.8741 104.219C83.9137 107.91 82.6133 111.504 80.9897 114.955C80.9178 115.105 80.8659 115.263 80.8354 115.426C79.6135 117.731 78.0591 119.843 76.2221 121.695C71 126.908 64.6632 128.76 58.5321 130.561C52.4011 132.362 46.3815 134.12 41.3824 139.136C40.2261 140.284 39.1916 141.548 38.2954 142.909C38.9471 144.024 39.6074 145.138 40.2762 146.253C41.2594 144.479 42.4893 142.854 43.9291 141.425Z" fill="#FC805F" fill-opacity="0.33"/>
<path d="M64.7664 162.263C69.131 157.898 74.6275 156.26 80.4413 154.545C86.9839 152.624 93.7495 150.644 99.5889 144.813C105.428 138.982 107.409 132.208 109.321 125.665C111.036 119.894 112.614 114.449 116.893 110.102C121.172 105.754 126.686 104.219 132.456 102.53C138.999 100.609 145.765 98.6285 151.604 92.789L151.716 92.6775L151.818 92.5832C157.649 86.7437 159.639 79.9781 161.551 73.4269C163.266 67.6646 164.844 62.2196 169.123 57.8721C173.401 53.5247 178.915 51.9897 184.686 50.3005C191.229 48.3797 197.994 46.3989 203.834 40.5594C209.673 34.7199 211.654 27.963 213.566 21.4204C215.281 15.598 216.885 10.1101 221.284 5.74546C224 3.14541 227.264 1.18539 230.836 0.00881958L222.973 0.00881924C221.488 0.959869 220.11 2.06979 218.865 3.31881C213.883 8.30081 212.151 14.2003 210.291 20.4686C208.43 26.7368 206.629 32.9363 201.416 38.1584C199.565 39.9927 197.456 41.5469 195.156 42.7717C194.99 42.8023 194.828 42.8542 194.676 42.9261C191.225 44.5509 187.631 45.8514 183.94 46.8105C177.697 48.6456 171.789 50.3691 166.79 55.3854L166.687 55.4969L166.584 55.5998C161.602 60.5818 159.87 66.4813 158.01 72.7495C156.235 78.8377 154.382 85.1316 149.255 90.3194C144.127 95.5072 137.764 97.3079 131.668 99.0915C125.425 100.927 119.517 102.65 114.518 107.666L114.406 107.786L114.303 107.881C109.33 112.863 107.598 118.762 105.729 125.03C104.772 128.723 103.471 132.317 101.844 135.766C101.771 135.918 101.722 136.08 101.698 136.246C100.473 138.548 98.9158 140.658 97.0765 142.506C91.863 147.72 85.5261 149.58 79.3865 151.372C73.2469 153.165 67.236 154.931 62.2368 159.947C59.5059 162.744 57.4038 166.091 56.0715 169.766C56.8861 170.855 57.7179 171.935 58.5496 173.007C59.9902 168.977 61.688 165.341 64.7664 162.263Z" fill="#FC805F" fill-opacity="0.33"/>
<path d="M25.9637 42.3427C27.6786 36.5718 29.2478 31.1268 33.5353 26.7794C37.8227 22.4319 43.3278 20.897 49.0986 19.2077C55.6413 17.2955 62.4069 15.3147 68.2464 9.47524L68.3492 9.36377L68.4521 9.26087C71.0952 6.60144 73.2285 3.48007 74.7461 0.0514679L70.8188 0.0514677C69.5557 2.58021 67.9035 4.89501 65.9225 6.91137C60.7262 12.0563 54.4322 13.8999 48.3441 15.6834C42.093 17.5099 36.1935 19.242 31.1943 24.2583L31.0914 24.3612C31.0914 24.4041 31.0142 24.4298 30.9799 24.4727C25.9979 29.4461 24.2658 35.3542 22.4051 41.6224C21.4446 45.3133 20.1443 48.9073 18.5207 52.3582C18.4488 52.5079 18.3969 52.6666 18.3663 52.8298C15.8507 57.586 11.9275 61.4492 7.13322 63.8913C7.39904 65.0404 7.69059 66.1894 7.9907 67.3213C11.0336 65.8587 13.808 63.8933 16.1969 61.5076C22.0621 55.651 24.0429 48.8853 25.9637 42.3427Z" fill="#FC805F" fill-opacity="0.33"/>
<path d="M274.482 6.79134C269.26 12.0049 262.923 13.8656 256.792 15.6577C250.661 17.4499 244.641 19.2163 239.642 24.2326C234.643 29.2489 232.928 35.1227 231.067 41.3823C229.267 47.5048 227.414 53.8502 222.201 59.0637C220.351 60.9054 218.239 62.463 215.933 63.6856C215.769 63.7091 215.61 63.7584 215.461 63.8314C212.009 65.4552 208.416 66.7584 204.725 67.7244C198.474 69.5509 192.575 71.2744 187.575 76.2993C187.534 76.332 187.497 76.3695 187.464 76.4108L187.361 76.5051C182.379 81.4871 180.647 87.3952 178.786 93.6548C177.003 99.743 175.159 106.037 170.023 111.233C164.886 116.43 158.532 118.213 152.444 120.005C146.193 121.832 140.294 123.564 135.294 128.58L135.183 128.692L135.08 128.786C130.098 133.768 128.366 139.676 126.505 145.936C125.541 149.623 124.241 153.213 122.621 156.663C122.545 156.814 122.493 156.976 122.466 157.143C121.241 159.445 119.684 161.554 117.845 163.403C112.631 168.625 106.294 170.477 100.163 172.278C94.0322 174.078 88.0126 175.836 83.0135 180.853C79.2234 184.643 77.3112 188.965 75.8106 193.569C76.6681 194.53 77.5942 195.499 78.5031 196.442C79.9866 191.563 81.7101 187.009 85.4402 183.271C89.7962 178.915 95.2927 177.268 101.106 175.553C107.649 173.641 114.423 171.66 120.254 165.821C126.085 159.981 128.074 153.216 129.995 146.673C131.71 140.902 133.279 135.457 137.558 131.118C141.837 126.78 147.351 125.227 153.13 123.538C159.673 121.626 166.438 119.645 172.269 113.806L172.381 113.694L172.69 113.454C178.529 107.615 180.51 100.849 182.431 94.3065C184.146 88.5356 185.715 83.0906 189.994 78.7517C194.272 74.4128 199.786 72.8607 205.557 71.1714C212.108 69.2592 218.874 67.2785 224.705 61.439C230.536 55.5995 232.525 48.834 234.446 42.2913C236.161 36.4776 237.756 30.981 242.163 26.6164C246.571 22.2518 252.016 20.614 257.838 18.8991C264.381 16.9869 271.146 14.9975 276.977 9.16659C279.611 6.51961 281.738 3.41287 283.254 0L279.421 -1.67544e-07C278.141 2.50905 276.475 4.80093 274.482 6.79134Z" fill="#FC805F" fill-opacity="0.33"/>
<path d="M17.9224 92.0685C24.465 90.1477 31.2305 88.1668 37.07 82.3359C42.9095 76.505 44.8903 69.7309 46.8025 63.1882C48.5175 57.4174 50.0953 51.9637 54.3741 47.6248C58.653 43.286 64.1667 41.7425 69.9375 40.0533C76.4802 38.1325 83.2457 36.1517 89.0852 30.3122L89.1881 30.2007L89.2996 30.1064C95.1305 24.2669 97.1113 17.5013 99.0321 10.9501C100.164 7.09998 101.253 3.38709 103.131 0.0514679L99.135 0.0514677C97.6464 3.32738 96.4387 6.72377 95.525 10.2041C93.7414 16.2922 91.8978 22.5776 86.77 27.774C81.6422 32.9704 75.2797 34.7626 69.1829 36.5462C62.9319 38.3726 57.0324 40.1047 52.0332 45.121L51.9303 45.2324L51.8188 45.3354C46.8368 50.3174 45.1133 56.2169 43.244 62.4852C42.2833 66.1732 40.983 69.7642 39.3595 73.2122C39.2878 73.3613 39.2386 73.5203 39.2138 73.6839C37.9911 75.9901 36.4336 78.1025 34.5919 79.9522C29.3784 85.1657 23.033 87.0264 16.902 88.8185C16.0445 89.0758 15.187 89.3245 14.3295 89.5817L15.4271 92.8315L17.9224 92.0685Z" fill="#FC805F" fill-opacity="0.33"/>
<path d="M12.6903 5.94246C15.5868 3.23357 19.0615 1.2191 22.8516 0.0515289L14.5511 0.0515286C13.042 1.0186 11.6394 2.14246 10.3666 3.40433C10.3368 3.44547 10.3023 3.4829 10.2636 3.51581L10.1607 3.6187C5.17874 8.6007 3.44661 14.5002 1.58586 20.7684L0.899884 23.1008C1.11425 25.8705 1.38864 28.623 1.68876 31.367C3.06097 28.1641 4.20709 24.869 5.11871 21.5059C6.80796 15.7007 8.41147 10.2899 12.6903 5.94246Z" fill="#FC805F" fill-opacity="0.33"/>
</svg>
