<svg width="294" height="293" viewBox="0 0 294 293" fill="none" xmlns="http://www.w3.org/2000/svg">
<path d="M253.413 151.898C248.91 156.392 247.221 162.063 245.451 168.07C243.47 174.82 241.426 181.8 235.402 187.816C229.377 193.831 222.397 195.884 215.647 197.865C209.702 199.635 204.076 201.254 199.591 205.677C195.105 210.1 193.522 215.78 191.779 221.734C189.806 228.484 187.763 235.464 181.738 241.479C181.702 241.52 181.664 241.558 181.623 241.594L181.517 241.701C175.492 247.725 168.512 249.769 161.762 251.75C155.817 253.52 150.191 255.139 145.715 259.553C141.238 263.968 139.646 269.656 137.894 275.619C136.275 281.165 134.594 286.871 130.702 292.073L126.102 292.073C127.674 290.36 129.024 288.455 130.118 286.403C130.141 286.232 130.195 286.067 130.277 285.916C131.948 282.354 133.29 278.647 134.285 274.84C136.169 268.391 137.956 262.304 143.131 257.147C143.131 257.147 143.211 257.076 143.246 257.032L143.352 256.926C148.484 251.786 154.579 249.999 161.046 248.079C167.318 246.239 173.811 244.337 179.172 239.038C184.534 233.739 186.382 227.183 188.223 220.902C190.107 214.453 191.894 208.366 197.069 203.209L197.175 203.103L197.282 202.988C202.421 197.848 208.517 196.061 214.975 194.141C218.782 193.149 222.49 191.807 226.051 190.134C226.205 190.058 226.369 190.005 226.537 189.974C228.914 188.713 231.09 187.106 232.995 185.206C238.383 179.827 240.294 173.29 242.152 166.964C244.009 160.639 245.823 154.429 250.998 149.271C252.07 148.198 253.237 147.223 254.484 146.36C255.068 147.395 255.643 148.431 256.253 149.474C255.235 150.195 254.285 151.006 253.413 151.898Z" fill="white"/>
<path d="M266.992 189.567C265.011 196.317 262.967 203.297 256.951 209.322C250.936 215.346 243.947 217.39 237.197 219.363C231.243 221.132 225.617 222.76 221.14 227.174C216.664 231.589 215.071 237.277 213.329 243.231C211.347 249.981 209.303 256.961 203.279 262.986L203.164 263.092L203.067 263.207C197.042 269.222 190.062 271.275 183.312 273.248C177.358 275.017 171.741 276.645 167.255 281.059C164.115 284.244 162.372 288.013 160.992 292.073L157.117 292.073C158.683 287.216 160.656 282.652 164.637 278.662L164.752 278.556L164.858 278.441C169.998 273.301 176.084 271.523 182.551 269.594C188.832 267.754 195.317 265.852 200.678 260.562C206.039 255.271 207.888 248.698 209.728 242.417C211.612 235.968 213.399 229.881 218.575 224.724L218.69 224.618L218.796 224.503C223.936 219.363 230.022 217.585 236.489 215.656C240.298 214.669 244.006 213.327 247.565 211.649C247.719 211.574 247.883 211.524 248.052 211.498C250.429 210.234 252.608 208.627 254.519 206.73C259.897 201.342 261.817 194.805 263.666 188.479C265.037 183.808 266.32 179.323 268.974 175.209C269.567 176.58 270.151 177.943 270.743 179.314C269.185 182.611 267.929 186.043 266.992 189.567Z" fill="white"/>
<path d="M291.141 258.483C287.605 260.074 283.945 261.373 280.197 262.366C274.252 264.136 268.626 265.755 264.141 270.178C259.655 274.601 258.072 280.281 256.329 286.234C255.763 288.172 255.188 290.127 254.56 292.073L250.641 292.073C251.446 289.879 252.1 287.65 252.746 285.456C254.63 279.007 256.417 272.92 261.593 267.763L261.699 267.657C261.699 267.657 261.77 267.577 261.814 267.542C266.954 262.402 273.04 260.623 279.507 258.695C283.315 257.702 287.022 256.361 290.583 254.687C290.647 254.655 290.716 254.631 290.787 254.617C290.866 255.97 290.999 257.209 291.141 258.483Z" fill="white"/>
<path d="M210.411 108.895C205.909 113.398 204.219 119.06 202.449 125.067C200.468 131.817 198.424 138.797 192.4 144.821C186.375 150.846 179.404 152.88 172.645 154.862C166.7 156.631 161.083 158.25 156.597 162.665C152.112 167.079 150.529 172.776 148.786 178.73C146.804 185.48 144.761 192.46 138.736 198.485L138.621 198.591L138.515 198.706C132.499 204.722 125.519 206.765 118.76 208.747C112.815 210.516 107.189 212.144 102.713 216.55C98.2362 220.955 96.7057 226.661 94.9364 232.615C92.9636 239.365 90.92 246.345 84.8955 252.37C78.8709 258.394 71.8909 260.438 65.1409 262.41C59.1429 264.18 53.4723 265.825 48.9782 270.328C44.4841 274.831 42.7856 280.502 41.0162 286.5C40.4677 288.349 39.9192 290.215 39.2911 292.073L35.5312 292.073C36.3274 289.897 36.9732 287.65 37.619 285.5C39.5034 279.06 41.2904 272.965 46.4657 267.807C51.6409 262.649 57.692 260.889 64.1589 258.96C70.6258 257.032 77.0219 255.192 82.4007 249.813C84.2983 247.906 85.9049 245.73 87.169 243.355C87.2006 243.184 87.2541 243.017 87.3283 242.859C89.0008 239.298 90.3423 235.59 91.3359 231.783C93.2202 225.334 95.0072 219.248 100.182 214.09L100.297 213.984L100.404 213.869C105.544 208.729 111.63 206.951 118.097 205.022C124.378 203.182 130.863 201.28 136.224 195.981C141.585 190.682 143.434 184.127 145.274 177.846C147.158 171.396 148.945 165.31 154.12 160.152L154.244 160.037L154.342 159.931C159.481 154.791 165.568 153.013 172.035 151.084C175.843 150.094 179.55 148.752 183.111 147.077C183.265 147.003 183.429 146.949 183.597 146.918C185.976 145.66 188.156 144.056 190.064 142.158C195.443 136.771 197.363 130.233 199.212 123.908C201.061 117.582 202.883 111.372 208.058 106.214C211.836 102.437 216.135 100.473 220.709 98.9425C221.552 99.9097 222.387 100.88 223.213 101.853C218.382 103.498 214.021 105.285 210.411 108.895Z" fill="white"/>
<path d="M231.902 130.349C227.399 134.852 225.709 140.523 223.984 146.521C222.011 153.271 219.959 160.251 213.943 166.275C207.927 172.3 200.938 174.344 194.188 176.316C188.235 178.086 182.617 179.713 178.132 184.128C173.647 188.542 172.063 194.231 170.32 200.185C168.339 206.935 166.295 213.923 160.279 219.939L160.155 220.054L160.058 220.16C154.034 226.185 147.054 228.228 140.304 230.201C134.35 231.97 128.732 233.598 124.247 238.013C119.762 242.427 118.178 248.116 116.435 254.069C114.454 260.819 112.41 267.799 106.394 273.824C100.379 279.848 93.3899 281.892 86.6399 283.874C80.6331 285.643 74.9712 287.288 70.4683 291.783L70.2382 292.03L65.5938 292.03C66.3171 291.06 67.1095 290.144 67.9647 289.288C73.1046 284.148 79.1911 282.361 85.658 280.441C92.1248 278.521 98.521 276.673 103.909 271.285C105.804 269.376 107.41 267.2 108.677 264.827C108.7 264.658 108.751 264.493 108.827 264.34C110.502 260.777 111.844 257.066 112.835 253.255C114.728 246.815 116.506 240.72 121.681 235.562L121.805 235.456L121.903 235.35C127.042 230.21 133.129 228.423 139.596 226.503C145.877 224.663 152.37 222.752 157.731 217.462C163.092 212.172 164.933 205.608 166.773 199.318C168.666 192.877 170.444 186.782 175.619 181.624L175.734 181.518L175.84 181.412C180.98 176.272 187.067 174.485 193.534 172.565C197.342 171.573 201.05 170.228 204.61 168.549C204.766 168.474 204.933 168.423 205.105 168.399C207.48 167.135 209.656 165.528 211.563 163.63C216.942 158.252 218.862 151.714 220.711 145.38C222.56 139.045 224.382 132.844 229.557 127.686C232.194 125.096 235.322 123.06 238.758 121.697C239.465 122.688 240.155 123.688 240.845 124.679C237.494 125.91 234.445 127.844 231.902 130.349Z" fill="white"/>
<path d="M258.694 240.86C252.741 242.629 247.123 244.257 242.638 248.672C238.153 253.086 236.569 258.783 234.826 264.737C232.845 271.487 230.801 278.467 224.785 284.483C224.745 284.519 224.706 284.557 224.67 284.598L224.564 284.704C221.267 287.945 217.324 290.456 212.993 292.073L200.891 292.073C201.926 291.755 202.978 291.445 204.031 291.136C210.312 289.295 216.806 287.385 222.167 282.094C227.528 276.804 229.403 270.24 231.173 263.932C233.066 257.483 234.844 251.388 240.019 246.239C240.062 246.208 240.1 246.173 240.134 246.133L240.24 246.027C245.38 240.887 251.467 239.1 257.934 237.18C261.737 236.185 265.442 234.843 269.001 233.172C269.155 233.09 269.323 233.036 269.496 233.013C271.871 231.749 274.047 230.142 275.954 228.245C279.24 224.832 281.703 220.714 283.155 216.205C283.663 218.11 284.152 220.02 284.624 221.937C283.085 225.221 280.99 228.214 278.431 230.784C272.424 236.844 265.444 238.887 258.694 240.86Z" fill="white"/>
<path d="M280.617 292.073C281.35 291.084 282.154 290.149 283.023 289.278L283.138 289.172L283.245 289.057C286 286.345 289.29 284.236 292.905 282.864C292.905 284.173 292.976 285.518 293.002 286.801C290.269 287.949 287.773 289.596 285.642 291.657L285.262 292.056L280.617 292.073Z" fill="white"/>
<path d="M116.481 39.0585C114.508 45.8085 112.465 52.7885 106.44 58.813C100.416 64.8376 93.4356 66.8811 86.6856 68.854C80.7318 70.6233 75.1142 72.2511 70.629 76.6655C66.1437 81.08 64.5601 86.7684 62.8173 92.7222C60.8445 99.481 58.7921 106.461 52.7764 112.477L52.6614 112.592L52.5552 112.698C46.5307 118.722 39.5507 120.766 32.8008 122.748C26.847 124.517 21.2293 126.136 16.7441 130.55C12.2589 134.965 10.6754 140.653 8.93257 146.607C7.09247 152.906 5.1816 159.399 0.0859375 165.132L0.085937 159.275C0.475189 158.656 0.846747 158.037 1.19177 157.4C1.21606 157.231 1.26674 157.067 1.34209 156.913C3.01986 153.353 4.36442 149.645 5.35849 145.837C7.24282 139.388 9.021 133.302 14.2051 128.144L14.329 128.029L14.4263 127.923C19.5662 122.783 25.6527 120.996 32.1195 119.076C38.3918 117.236 44.8852 115.325 50.2463 110.035C55.6073 104.745 57.4474 98.1805 59.2875 91.8994C61.1807 85.4502 62.9677 79.3638 68.1341 74.2062L68.2492 74.1L68.3553 73.985C73.4952 68.8451 79.5817 67.0581 86.0486 65.1384C89.8523 64.1433 93.5568 62.8019 97.1157 61.1309C97.2717 61.0528 97.4389 60.9991 97.6112 60.9716C99.9861 59.7075 102.162 58.1009 104.069 56.2033C109.448 50.8245 111.368 44.2869 113.225 37.9615C114.667 33.0163 116.056 28.2921 118.94 24.0369L122.222 25.5143C119.259 29.5926 117.932 34.2194 116.481 39.0585Z" fill="white"/>
<path d="M145.909 44.3924C141.406 48.8954 139.716 54.5572 137.991 60.5641C136.01 67.314 133.966 74.294 127.942 80.3098C121.917 86.3255 114.937 88.3779 108.187 90.3595C102.242 92.1288 96.6245 93.7478 92.1392 98.1623C87.654 102.577 86.0882 108.23 84.3188 114.228C82.346 120.978 80.3025 127.958 74.2779 133.982L74.1629 134.088L74.0568 134.195C68.0411 140.219 61.061 142.263 54.3022 144.244C48.3572 146.014 42.7309 147.633 38.2545 152.047C33.7781 156.462 32.1856 162.15 30.434 168.113C28.4612 174.863 26.4176 181.843 20.3931 187.867C14.3685 193.892 7.38857 195.926 0.638595 197.908L0.0546875 198.085L0.0546872 194.396C6.24733 192.573 12.6258 190.627 17.8895 185.363C19.7896 183.455 21.3965 181.276 22.6579 178.897C22.6871 178.728 22.7407 178.564 22.817 178.41C24.4896 174.849 25.8311 171.141 26.8246 167.334C28.7089 160.885 30.4959 154.798 35.6712 149.641L35.7862 149.526L35.8924 149.42C41.0323 144.28 47.1188 142.502 53.5857 140.573C59.8668 138.733 66.3513 136.831 71.7124 131.532C77.0734 126.233 78.9224 119.677 80.7625 113.396C82.6468 106.947 84.4338 100.86 89.6091 95.7029L89.733 95.579L89.8303 95.4817C94.9702 90.3418 101.057 88.5637 107.524 86.6351C111.331 85.6442 115.039 84.3026 118.6 82.6276C118.754 82.5534 118.918 82.4999 119.086 82.4683C121.464 81.2077 123.643 79.604 125.553 77.7088C130.932 72.3212 132.843 65.7836 134.7 59.4582C136.558 53.1329 138.372 46.9226 143.547 41.765C144.731 40.572 146.036 39.5047 147.44 38.5802C148.59 39.2525 149.74 39.9337 150.89 40.6238C149.06 41.638 147.383 42.9069 145.909 44.3924Z" fill="white"/>
<path d="M167.404 65.8929C162.901 70.3958 161.211 76.0665 159.442 82.0645C157.46 88.8145 155.417 95.7945 149.401 101.819C143.385 107.844 136.396 109.887 129.646 111.86C123.693 113.629 118.075 115.257 113.59 119.672C109.104 124.086 107.521 129.774 105.778 135.728C103.797 142.478 101.753 149.458 95.7284 155.483L95.6134 155.598L95.5161 155.704C89.4915 161.72 82.5115 163.772 75.7526 165.745C69.8077 167.514 64.1902 169.142 59.705 173.556C55.2197 177.971 53.6361 183.659 51.8933 189.613C49.9117 196.363 47.8681 203.343 41.8436 209.368C35.819 215.392 28.8479 217.436 22.0979 219.408C16.0911 221.178 10.4292 222.832 5.92626 227.37C3.24381 230.173 1.22167 233.541 0.0078125 237.226L0.00781179 229.113C0.989003 227.581 2.1341 226.16 3.42271 224.876C8.5626 219.736 14.6491 217.949 21.116 216.029C27.5829 214.109 33.9789 212.252 39.3665 206.873C41.2589 204.963 42.8623 202.788 44.126 200.415C44.1575 200.243 44.2111 200.077 44.2852 199.919C45.9616 196.36 47.3032 192.652 48.2928 188.843C50.186 182.403 51.9641 176.308 57.1394 171.15L57.2544 171.044L57.3606 170.938C62.5005 165.798 68.587 164.011 75.0538 162.091C81.3349 160.26 87.8284 158.349 93.1806 153.059C98.5328 147.768 100.391 141.204 102.231 134.914C104.124 128.474 105.902 122.379 111.077 117.221L111.201 117.106L111.298 117C116.438 111.869 122.525 110.082 128.992 108.153C132.801 107.166 136.509 105.825 140.068 104.146C140.224 104.07 140.391 104.02 140.563 103.995C142.938 102.731 145.114 101.125 147.021 99.227C152.4 93.8483 154.32 87.3106 156.169 80.9764C158.017 74.6422 159.84 68.4407 165.015 63.2831C167.9 60.4657 171.354 58.297 175.145 56.9224C176.268 57.7628 177.383 58.621 178.489 59.4791C174.331 60.9653 170.58 62.717 167.404 65.8929Z" fill="white"/>
<path d="M43.6862 25.8581C37.7324 27.6274 32.1149 29.2463 27.6297 33.6696C23.1444 38.0929 21.5608 43.7725 19.818 49.7262C17.8452 56.4762 15.8017 63.4562 9.77712 69.4808L9.66211 69.5869L9.55596 69.6931C6.81225 72.42 3.59195 74.6208 0.0546875 76.1865L0.0546871 72.1348C2.66357 70.8317 5.05173 69.1271 7.13199 67.0833C12.44 61.7223 14.342 55.2289 16.1821 48.9477C18.0664 42.4985 19.8534 36.4121 25.0287 31.2545L25.1349 31.1483C25.1791 31.1483 25.2056 31.0687 25.2499 31.0333C30.3809 25.8934 36.4762 24.1064 42.9431 22.1867C46.751 21.1958 50.4588 19.8542 54.0191 18.1792C54.1736 18.105 54.3373 18.0515 54.5057 18.0199C59.4126 15.4246 63.3982 11.3771 65.9178 6.43084C67.1032 6.70509 68.2887 7.00587 69.4564 7.3155C67.9475 10.4549 65.9198 13.3171 63.4585 15.7817C57.4163 21.8328 50.4362 23.8764 43.6862 25.8581Z" fill="white"/>
<path d="M7.00657 282.254C12.3853 276.866 14.305 270.328 16.154 264.003C18.0029 257.678 19.8253 251.467 25.0006 246.31C30.1759 241.152 36.2358 239.383 42.6938 237.463C49.0103 235.605 55.5568 233.694 60.9356 228.316C62.8357 226.407 64.4426 224.228 65.7039 221.849C65.7282 221.68 65.779 221.516 65.8544 221.362C67.5297 217.801 68.8741 214.094 69.8708 210.286C71.7551 203.837 73.5333 197.751 78.7174 192.593C78.7512 192.55 78.7898 192.512 78.8324 192.478L78.9297 192.372C84.0696 187.232 90.1649 185.445 96.623 183.525C102.904 181.685 109.397 179.783 114.759 174.484C120.12 169.185 121.96 162.629 123.809 156.348C125.693 149.899 127.48 143.813 132.655 138.655L132.77 138.54L132.868 138.434C138.007 133.294 144.103 131.507 150.561 129.587C154.365 128.592 158.069 127.251 161.628 125.58C161.784 125.502 161.951 125.448 162.123 125.421C164.498 124.156 166.674 122.55 168.581 120.652C173.969 115.273 175.88 108.736 177.738 102.41C179.595 96.0851 181.409 89.8748 186.584 84.7172C190.494 80.807 194.953 78.8342 199.704 77.286C200.695 78.1707 201.694 79.1261 202.667 80.0639C197.634 81.5943 192.936 83.3725 189.079 87.2208C184.585 91.7149 182.886 97.3855 181.117 103.384C179.144 110.134 177.101 117.122 171.076 123.138C165.052 129.154 158.072 131.206 151.322 133.188C145.368 134.957 139.75 136.576 135.274 140.991C130.797 145.405 129.196 151.093 127.453 157.056C125.481 163.806 123.437 170.786 117.413 176.802L117.298 176.917L117.05 177.235C111.025 183.26 104.045 185.303 97.2953 187.285C91.3415 189.054 85.7239 190.673 81.2475 195.088C76.7711 199.502 75.1698 205.191 73.427 211.144C71.4542 217.903 69.4107 224.883 63.3861 230.899C57.3616 236.915 50.3816 238.967 43.6316 240.949C37.6336 242.718 31.9629 244.363 27.46 248.911C22.957 253.458 21.2673 259.075 19.498 265.082C17.5252 271.832 15.4728 278.812 9.4571 284.828C6.72623 287.545 3.52103 289.74 0 291.304L-3.45709e-07 287.349C2.58856 286.029 4.95308 284.309 7.00657 282.254Z" fill="white"/>
<path d="M94.9879 17.5627C93.0063 24.3127 90.9626 31.2927 84.9469 37.3172C78.9312 43.3418 71.9424 45.3854 65.1924 47.3582C59.2386 49.1275 53.6122 50.7553 49.1358 55.1697C44.6594 59.5842 43.067 65.2726 41.3242 71.2264C39.3426 77.9764 37.299 84.9563 31.2745 90.9809L31.1595 91.087L31.0622 91.2021C25.0376 97.2178 18.0575 99.2613 11.2987 101.243C7.32658 102.411 3.49603 103.534 0.0546875 105.472L0.0546871 101.349C3.43442 99.8134 6.93845 98.5674 10.5291 97.6247C16.8102 95.7846 23.2947 93.8826 28.6558 88.5923C34.0169 83.302 35.8659 76.7378 37.706 70.4479C39.5903 63.9987 41.3773 57.9122 46.5526 52.7546L46.6675 52.6485L46.7738 52.5335C51.9137 47.3936 58.0002 45.6154 64.467 43.6868C68.272 42.6958 71.9768 41.3542 75.5341 39.6793C75.6879 39.6052 75.8519 39.5545 76.0207 39.5289C78.4 38.2675 80.5793 36.6607 82.4876 34.7606C87.8664 29.3818 89.7861 22.8353 91.635 16.51C91.9004 15.6253 92.157 14.7406 92.4224 13.856L95.7752 14.9883L94.9879 17.5627Z" fill="white"/>
<path d="M6.13232 12.1642C3.33758 15.1524 1.25927 18.7373 0.0546875 22.6475L0.0546868 14.0839C1.05241 12.527 2.21189 11.08 3.51375 9.76677C3.55619 9.73611 3.59481 9.70045 3.62876 9.66059L3.73491 9.55443C8.87481 4.41454 14.9613 2.62752 21.4282 0.707802L23.8344 8.18444e-05C26.6919 0.221248 29.5317 0.504325 32.3626 0.813956C29.0582 2.22965 25.6587 3.4121 22.189 4.35261C16.1998 6.0954 10.6176 7.74973 6.13232 12.1642Z" fill="white"/>
</svg>
