<svg width="348" height="347" viewBox="0 0 348 347" fill="none" xmlns="http://www.w3.org/2000/svg">
<path d="M308.413 151.898C303.91 156.392 302.221 162.063 300.451 168.07C298.47 174.82 296.426 181.8 290.402 187.816C284.377 193.831 277.397 195.884 270.647 197.865C264.702 199.635 259.076 201.254 254.591 205.677C250.105 210.1 248.522 215.78 246.779 221.734C244.806 228.484 242.763 235.464 236.738 241.479C236.702 241.52 236.664 241.558 236.623 241.594L236.517 241.701C230.492 247.725 223.512 249.769 216.762 251.75C210.817 253.52 205.191 255.139 200.715 259.553C196.238 263.968 194.646 269.656 192.894 275.619C191.275 281.165 189.594 286.871 185.702 292.073L181.102 292.073C182.674 290.36 184.024 288.455 185.118 286.403C185.141 286.232 185.195 286.067 185.277 285.916C186.948 282.354 188.29 278.647 189.285 274.84C191.169 268.391 192.956 262.304 198.131 257.147C198.131 257.147 198.211 257.076 198.246 257.032L198.352 256.926C203.484 251.786 209.579 249.999 216.046 248.079C222.318 246.239 228.811 244.337 234.172 239.038C239.534 233.739 241.382 227.183 243.223 220.902C245.107 214.453 246.894 208.366 252.069 203.209L252.175 203.103L252.282 202.988C257.421 197.848 263.517 196.061 269.975 194.141C273.782 193.149 277.49 191.807 281.051 190.134C281.205 190.058 281.369 190.005 281.537 189.974C283.914 188.713 286.09 187.106 287.995 185.206C293.383 179.827 295.294 173.29 297.152 166.964C299.009 160.639 300.823 154.429 305.998 149.271C307.07 148.198 308.237 147.223 309.484 146.36C310.068 147.395 310.643 148.431 311.253 149.474C310.235 150.195 309.285 151.006 308.413 151.898Z" fill="white"/>
<path d="M321.992 189.567C320.011 196.317 317.967 203.297 311.951 209.322C305.936 215.346 298.947 217.39 292.197 219.363C286.243 221.132 280.617 222.76 276.14 227.174C271.664 231.589 270.071 237.277 268.329 243.231C266.347 249.981 264.303 256.961 258.279 262.986L258.164 263.092L258.067 263.207C252.042 269.222 245.062 271.275 238.312 273.248C232.358 275.017 226.741 276.645 222.255 281.059C219.115 284.244 217.372 288.013 215.992 292.073L212.117 292.073C213.683 287.216 215.656 282.652 219.637 278.662L219.752 278.556L219.858 278.441C224.998 273.301 231.084 271.523 237.551 269.594C243.832 267.754 250.317 265.852 255.678 260.562C261.039 255.271 262.888 248.698 264.728 242.417C266.612 235.968 268.399 229.881 273.575 224.724L273.69 224.618L273.796 224.503C278.936 219.363 285.022 217.585 291.489 215.656C295.298 214.669 299.006 213.327 302.565 211.649C302.719 211.574 302.883 211.524 303.052 211.498C305.429 210.234 307.608 208.627 309.519 206.73C314.897 201.342 316.817 194.805 318.666 188.479C320.037 183.808 321.32 179.323 323.974 175.209C324.567 176.58 325.151 177.943 325.743 179.314C324.185 182.611 322.929 186.043 321.992 189.567Z" fill="white"/>
<path d="M346.141 258.483C342.605 260.074 338.945 261.373 335.197 262.366C329.252 264.136 323.626 265.755 319.141 270.178C314.655 274.601 313.072 280.281 311.329 286.234C310.763 288.172 310.188 290.127 309.56 292.073L305.641 292.073C306.446 289.879 307.1 287.65 307.746 285.456C309.63 279.007 311.417 272.92 316.593 267.763L316.699 267.657C316.699 267.657 316.77 267.577 316.814 267.542C321.954 262.402 328.04 260.623 334.507 258.695C338.315 257.702 342.022 256.361 345.583 254.687C345.647 254.655 345.716 254.631 345.787 254.617C345.866 255.97 345.999 257.209 346.141 258.483Z" fill="white"/>
<path d="M265.411 108.895C260.909 113.398 259.219 119.06 257.449 125.067C255.468 131.817 253.424 138.797 247.4 144.821C241.375 150.846 234.404 152.88 227.645 154.862C221.7 156.631 216.083 158.25 211.597 162.665C207.112 167.079 205.529 172.776 203.786 178.73C201.804 185.48 199.761 192.46 193.736 198.485L193.621 198.591L193.515 198.706C187.499 204.722 180.519 206.765 173.76 208.747C167.815 210.516 162.189 212.144 157.713 216.55C153.236 220.955 151.706 226.661 149.936 232.615C147.964 239.365 145.92 246.345 139.895 252.37C133.871 258.394 126.891 260.438 120.141 262.41C114.143 264.18 108.472 265.825 103.978 270.328C99.4841 274.831 97.7856 280.502 96.0162 286.5C95.4677 288.349 94.9192 290.215 94.2911 292.073L90.5312 292.073C91.3274 289.897 91.9732 287.65 92.619 285.5C94.5034 279.06 96.2904 272.965 101.466 267.807C106.641 262.649 112.692 260.889 119.159 258.96C125.626 257.032 132.022 255.192 137.401 249.813C139.298 247.906 140.905 245.73 142.169 243.355C142.201 243.184 142.254 243.017 142.328 242.859C144.001 239.298 145.342 235.59 146.336 231.783C148.22 225.334 150.007 219.248 155.182 214.09L155.297 213.984L155.404 213.869C160.544 208.729 166.63 206.951 173.097 205.022C179.378 203.182 185.863 201.28 191.224 195.981C196.585 190.682 198.434 184.127 200.274 177.846C202.158 171.396 203.945 165.31 209.12 160.152L209.244 160.037L209.342 159.931C214.481 154.791 220.568 153.013 227.035 151.084C230.843 150.094 234.55 148.752 238.111 147.077C238.265 147.003 238.429 146.949 238.597 146.918C240.976 145.66 243.156 144.056 245.064 142.158C250.443 136.771 252.363 130.233 254.212 123.908C256.061 117.582 257.883 111.372 263.058 106.214C266.836 102.437 271.135 100.473 275.709 98.9425C276.552 99.9097 277.387 100.88 278.213 101.853C273.382 103.498 269.021 105.285 265.411 108.895Z" fill="white"/>
<path d="M286.902 130.349C282.399 134.852 280.709 140.523 278.984 146.521C277.011 153.271 274.959 160.251 268.943 166.275C262.927 172.3 255.938 174.344 249.188 176.316C243.235 178.086 237.617 179.713 233.132 184.128C228.647 188.542 227.063 194.231 225.32 200.185C223.339 206.935 221.295 213.923 215.279 219.939L215.155 220.054L215.058 220.16C209.034 226.185 202.054 228.228 195.304 230.201C189.35 231.97 183.732 233.598 179.247 238.013C174.762 242.427 173.178 248.116 171.435 254.069C169.454 260.819 167.41 267.799 161.394 273.824C155.379 279.848 148.39 281.892 141.64 283.874C135.633 285.643 129.971 287.288 125.468 291.783L125.238 292.03L120.594 292.03C121.317 291.06 122.109 290.144 122.965 289.288C128.105 284.148 134.191 282.361 140.658 280.441C147.125 278.521 153.521 276.673 158.909 271.285C160.804 269.376 162.41 267.2 163.677 264.827C163.7 264.658 163.751 264.493 163.827 264.34C165.502 260.777 166.844 257.066 167.835 253.255C169.728 246.815 171.506 240.72 176.681 235.562L176.805 235.456L176.903 235.35C182.042 230.21 188.129 228.423 194.596 226.503C200.877 224.663 207.37 222.752 212.731 217.462C218.092 212.172 219.933 205.608 221.773 199.318C223.666 192.877 225.444 186.782 230.619 181.624L230.734 181.518L230.84 181.412C235.98 176.272 242.067 174.485 248.534 172.565C252.342 171.573 256.05 170.228 259.61 168.549C259.766 168.474 259.933 168.423 260.105 168.399C262.48 167.135 264.656 165.528 266.563 163.63C271.942 158.252 273.862 151.714 275.711 145.38C277.56 139.045 279.382 132.844 284.557 127.686C287.194 125.096 290.322 123.06 293.758 121.697C294.465 122.688 295.155 123.688 295.845 124.679C292.494 125.91 289.445 127.844 286.902 130.349Z" fill="white"/>
<path d="M313.694 240.86C307.741 242.629 302.123 244.257 297.638 248.672C293.153 253.086 291.569 258.783 289.826 264.737C287.845 271.487 285.801 278.467 279.785 284.483C279.745 284.519 279.706 284.557 279.67 284.598L279.564 284.704C276.267 287.945 272.324 290.456 267.993 292.073L255.891 292.073C256.926 291.755 257.978 291.445 259.031 291.136C265.312 289.295 271.806 287.385 277.167 282.094C282.528 276.804 284.403 270.24 286.173 263.932C288.066 257.483 289.844 251.388 295.019 246.239C295.062 246.208 295.1 246.173 295.134 246.133L295.24 246.027C300.38 240.887 306.467 239.1 312.934 237.18C316.737 236.185 320.442 234.843 324.001 233.172C324.155 233.09 324.323 233.036 324.496 233.013C326.871 231.749 329.047 230.142 330.954 228.245C334.24 224.832 336.703 220.714 338.155 216.205C338.663 218.11 339.152 220.02 339.624 221.937C338.085 225.221 335.99 228.214 333.431 230.784C327.424 236.844 320.444 238.887 313.694 240.86Z" fill="white"/>
<path d="M335.617 292.073C336.35 291.084 337.154 290.149 338.023 289.278L338.138 289.172L338.245 289.057C341 286.345 344.29 284.236 347.905 282.864C347.905 284.173 347.976 285.518 348.002 286.801C345.269 287.949 342.773 289.596 340.642 291.657L340.262 292.056L335.617 292.073Z" fill="white"/>
<path d="M171.481 39.0585C169.508 45.8085 167.465 52.7885 161.44 58.813C155.416 64.8376 148.436 66.8811 141.686 68.854C135.732 70.6233 130.114 72.2511 125.629 76.6655C121.144 81.08 119.56 86.7684 117.817 92.7222C115.845 99.481 113.792 106.461 107.776 112.477L107.661 112.592L107.555 112.698C101.531 118.722 94.5507 120.766 87.8008 122.748C81.847 124.517 76.2293 126.136 71.7441 130.55C67.2589 134.965 65.6754 140.653 63.9326 146.607C62.0925 152.906 60.1816 159.399 55.0859 165.132L55.0859 159.275C55.4752 158.656 55.8467 158.037 56.1918 157.4C56.2161 157.231 56.2667 157.067 56.3421 156.913C58.0199 153.353 59.3644 149.645 60.3585 145.837C62.2428 139.388 64.021 133.302 69.2051 128.144L69.329 128.029L69.4263 127.923C74.5662 122.783 80.6527 120.996 87.1195 119.076C93.3918 117.236 99.8852 115.325 105.246 110.035C110.607 104.745 112.447 98.1805 114.288 91.8994C116.181 85.4502 117.968 79.3638 123.134 74.2062L123.249 74.1L123.355 73.985C128.495 68.8451 134.582 67.0581 141.049 65.1384C144.852 64.1433 148.557 62.8019 152.116 61.1309C152.272 61.0528 152.439 60.9991 152.611 60.9716C154.986 59.7075 157.162 58.1009 159.069 56.2033C164.448 50.8245 166.368 44.2869 168.225 37.9615C169.667 33.0163 171.056 28.2921 173.94 24.0369L177.222 25.5143C174.259 29.5926 172.932 34.2194 171.481 39.0585Z" fill="white"/>
<path d="M200.909 44.3924C196.406 48.8954 194.716 54.5572 192.991 60.5641C191.01 67.314 188.966 74.294 182.942 80.3098C176.917 86.3255 169.937 88.3779 163.187 90.3595C157.242 92.1288 151.624 93.7478 147.139 98.1623C142.654 102.577 141.088 108.23 139.319 114.228C137.346 120.978 135.302 127.958 129.278 133.982L129.163 134.088L129.057 134.195C123.041 140.219 116.061 142.263 109.302 144.244C103.357 146.014 97.7309 147.633 93.2545 152.047C88.7781 156.462 87.1856 162.15 85.434 168.113C83.4612 174.863 81.4176 181.843 75.3931 187.867C69.3685 193.892 62.3886 195.926 55.6386 197.908L55.0547 198.085L55.0547 194.396C61.2473 192.573 67.6258 190.627 72.8895 185.363C74.7896 183.455 76.3965 181.276 77.6579 178.897C77.6871 178.728 77.7407 178.564 77.817 178.41C79.4896 174.849 80.8311 171.141 81.8246 167.334C83.7089 160.885 85.4959 154.798 90.6712 149.641L90.7862 149.526L90.8924 149.42C96.0323 144.28 102.119 142.502 108.586 140.573C114.867 138.733 121.351 136.831 126.712 131.532C132.073 126.233 133.922 119.677 135.762 113.396C137.647 106.947 139.434 100.86 144.609 95.7029L144.733 95.579L144.83 95.4817C149.97 90.3418 156.057 88.5637 162.524 86.6351C166.331 85.6442 170.039 84.3026 173.6 82.6276C173.754 82.5534 173.918 82.4999 174.086 82.4683C176.464 81.2077 178.643 79.604 180.553 77.7088C185.932 72.3212 187.843 65.7836 189.7 59.4582C191.558 53.1329 193.372 46.9226 198.547 41.765C199.731 40.572 201.036 39.5047 202.44 38.5802C203.59 39.2525 204.74 39.9337 205.89 40.6238C204.06 41.638 202.383 42.9069 200.909 44.3924Z" fill="white"/>
<path d="M222.404 65.8929C217.901 70.3958 216.211 76.0665 214.442 82.0645C212.46 88.8145 210.417 95.7945 204.401 101.819C198.385 107.844 191.396 109.887 184.646 111.86C178.693 113.629 173.075 115.257 168.59 119.672C164.104 124.086 162.521 129.774 160.778 135.728C158.797 142.478 156.753 149.458 150.728 155.483L150.613 155.598L150.516 155.704C144.492 161.72 137.511 163.772 130.753 165.745C124.808 167.514 119.19 169.142 114.705 173.556C110.22 177.971 108.636 183.659 106.893 189.613C104.912 196.363 102.868 203.343 96.8436 209.368C90.819 215.392 83.8479 217.436 77.0979 219.408C71.0911 221.178 65.4292 222.832 60.9263 227.37C58.2438 230.173 56.2217 233.541 55.0078 237.226L55.0078 229.113C55.989 227.581 57.1341 226.16 58.4227 224.876C63.5626 219.736 69.6491 217.949 76.116 216.029C82.5829 214.109 88.9789 212.252 94.3665 206.873C96.2589 204.963 97.8623 202.788 99.126 200.415C99.1575 200.243 99.2111 200.077 99.2852 199.919C100.962 196.36 102.303 192.652 103.293 188.843C105.186 182.403 106.964 176.308 112.139 171.15L112.254 171.044L112.361 170.938C117.5 165.798 123.587 164.011 130.054 162.091C136.335 160.26 142.828 158.349 148.181 153.059C153.533 147.768 155.391 141.204 157.231 134.914C159.124 128.474 160.902 122.379 166.077 117.221L166.201 117.106L166.298 117C171.438 111.869 177.525 110.082 183.992 108.153C187.801 107.166 191.509 105.825 195.068 104.146C195.224 104.07 195.391 104.02 195.563 103.995C197.938 102.731 200.114 101.125 202.021 99.227C207.4 93.8483 209.32 87.3106 211.169 80.9764C213.017 74.6422 214.84 68.4407 220.015 63.2831C222.9 60.4657 226.354 58.297 230.145 56.9224C231.268 57.7628 232.383 58.621 233.489 59.4791C229.331 60.9653 225.58 62.717 222.404 65.8929Z" fill="white"/>
<path d="M98.6862 25.8581C92.7324 27.6274 87.1149 29.2463 82.6297 33.6696C78.1444 38.0929 76.5608 43.7725 74.818 49.7262C72.8452 56.4762 70.8017 63.4562 64.7771 69.4808L64.6621 69.5869L64.556 69.6931C61.8122 72.42 58.592 74.6208 55.0547 76.1865L55.0547 72.1348C57.6636 70.8317 60.0517 69.1271 62.132 67.0833C67.44 61.7223 69.342 55.2289 71.1821 48.9477C73.0664 42.4985 74.8534 36.4121 80.0287 31.2545L80.1349 31.1483C80.1791 31.1483 80.2056 31.0687 80.2499 31.0333C85.3809 25.8934 91.4762 24.1064 97.9431 22.1867C101.751 21.1958 105.459 19.8542 109.019 18.1792C109.174 18.105 109.337 18.0515 109.506 18.0199C114.413 15.4246 118.398 11.3771 120.918 6.43084C122.103 6.70509 123.289 7.00587 124.456 7.3155C122.948 10.4549 120.92 13.3171 118.459 15.7817C112.416 21.8328 105.436 23.8764 98.6862 25.8581Z" fill="white"/>
<path d="M62.0066 282.254C67.3853 276.866 69.305 270.328 71.154 264.003C73.0029 257.678 74.8253 251.467 80.0006 246.31C85.1759 241.152 91.2358 239.383 97.6938 237.463C104.01 235.605 110.557 233.694 115.936 228.316C117.836 226.407 119.443 224.228 120.704 221.849C120.728 221.68 120.779 221.516 120.854 221.362C122.53 217.801 123.874 214.094 124.871 210.286C126.755 203.837 128.533 197.751 133.717 192.593C133.751 192.55 133.79 192.512 133.832 192.478L133.93 192.372C139.07 187.232 145.165 185.445 151.623 183.525C157.904 181.685 164.397 179.783 169.759 174.484C175.12 169.185 176.96 162.629 178.809 156.348C180.693 149.899 182.48 143.813 187.655 138.655L187.77 138.54L187.868 138.434C193.007 133.294 199.103 131.507 205.561 129.587C209.365 128.592 213.069 127.251 216.628 125.58C216.784 125.502 216.951 125.448 217.123 125.421C219.498 124.156 221.674 122.55 223.581 120.652C228.969 115.273 230.88 108.736 232.738 102.41C234.595 96.0851 236.409 89.8748 241.584 84.7172C245.494 80.807 249.953 78.8342 254.704 77.286C255.695 78.1707 256.694 79.1261 257.667 80.0639C252.634 81.5943 247.936 83.3725 244.079 87.2208C239.585 91.7149 237.886 97.3855 236.117 103.384C234.144 110.134 232.101 117.122 226.076 123.138C220.052 129.154 213.072 131.206 206.322 133.188C200.368 134.957 194.75 136.576 190.274 140.991C185.797 145.405 184.196 151.093 182.453 157.056C180.481 163.806 178.437 170.786 172.413 176.802L172.298 176.917L172.05 177.235C166.025 183.26 159.045 185.303 152.295 187.285C146.342 189.054 140.724 190.673 136.248 195.088C131.771 199.502 130.17 205.191 128.427 211.144C126.454 217.903 124.411 224.883 118.386 230.899C112.362 236.915 105.382 238.967 98.6316 240.949C92.6336 242.718 86.9629 244.363 82.46 248.911C77.957 253.458 76.2673 259.075 74.498 265.082C72.5252 271.832 70.4728 278.812 64.4571 284.828C61.7262 287.545 58.521 289.74 55 291.304L55 287.349C57.5886 286.029 59.9531 284.309 62.0066 282.254Z" fill="white"/>
<path d="M149.988 17.5627C148.006 24.3127 145.963 31.2927 139.947 37.3172C133.931 43.3418 126.942 45.3854 120.192 47.3582C114.239 49.1275 108.612 50.7553 104.136 55.1697C99.6594 59.5842 98.067 65.2726 96.3242 71.2264C94.3426 77.9764 92.299 84.9563 86.2745 90.9809L86.1595 91.087L86.0622 91.2021C80.0376 97.2178 73.0575 99.2613 66.2987 101.243C62.3266 102.411 58.496 103.534 55.0547 105.472L55.0547 101.349C58.4344 99.8134 61.9384 98.5674 65.5291 97.6247C71.8102 95.7846 78.2947 93.8826 83.6558 88.5923C89.0169 83.302 90.8659 76.7378 92.706 70.4479C94.5903 63.9987 96.3773 57.9122 101.553 52.7546L101.668 52.6485L101.774 52.5335C106.914 47.3936 113 45.6154 119.467 43.6868C123.272 42.6958 126.977 41.3542 130.534 39.6793C130.688 39.6052 130.852 39.5545 131.021 39.5289C133.4 38.2675 135.579 36.6607 137.488 34.7606C142.866 29.3818 144.786 22.8353 146.635 16.51C146.9 15.6253 147.157 14.7406 147.422 13.856L150.775 14.9883L149.988 17.5627Z" fill="white"/>
<path d="M61.1323 12.1642C58.3376 15.1524 56.2593 18.7373 55.0547 22.6475L55.0547 14.0839C56.0524 12.527 57.2119 11.08 58.5137 9.76677C58.5562 9.73611 58.5948 9.70045 58.6288 9.66059L58.7349 9.55443C63.8748 4.41454 69.9613 2.62752 76.4282 0.707802L78.8344 8.18444e-05C81.6919 0.221248 84.5317 0.504325 87.3626 0.813956C84.0582 2.22965 80.6587 3.4121 77.189 4.35261C71.1998 6.0954 65.6176 7.74973 61.1323 12.1642Z" fill="white"/>
<path d="M109.912 237H0V346.912H109.912V237Z" fill="#FC805F"/>
<path d="M53.4219 322.487V346.912H109.911V322.487H53.4219Z" fill="#FFC844"/>
<path d="M4.64062 311.202V346.942H29.0655V299.606C29.0655 299.198 29.2276 298.807 29.5162 298.518C29.8047 298.23 30.1962 298.067 30.6043 298.067H109.912V273.667H42.2C32.2429 273.667 22.6932 277.621 15.6502 284.659C8.60711 291.698 4.6471 301.245 4.64062 311.202Z" fill="#766DFA"/>
</svg>
