<svg width="141" height="142" viewBox="0 0 141 142" fill="none" xmlns="http://www.w3.org/2000/svg">
<path d="M111.092 12.2029C112.106 13.2127 113.275 14.0526 114.556 14.6901C114.962 14.896 115.372 15.0831 115.786 15.2516L115.898 15.2965C116.053 15.3582 116.204 15.42 116.359 15.4762L116.695 15.6025L116.909 15.6783L117.369 15.8355L117.42 15.8523C118.15 16.0937 118.879 16.3099 119.598 16.5204C122.24 17.2952 124.733 18.0251 126.731 20.0239C128.73 22.0226 129.46 24.5154 130.235 27.157C130.448 27.8841 130.664 28.6196 130.911 29.3579C130.965 29.5235 131.024 29.6891 131.08 29.8547C131.102 29.9137 131.125 29.9726 131.144 30.0316L131.279 30.3993C131.332 30.5397 131.388 30.6801 131.442 30.8148C131.464 30.8653 131.484 30.9159 131.504 30.9692C131.672 31.3791 131.859 31.7861 132.065 32.1903L132.065 32.21C132.703 33.4908 133.542 34.6605 134.552 35.6741C136.517 37.6392 138.741 38.6245 140.975 39.3572L140.975 38.1725C138.99 37.4904 137.045 36.5752 135.344 34.8797C134.377 33.9027 133.579 32.7719 132.983 31.5335C132.974 31.5123 132.963 31.4917 132.952 31.4717C132.275 29.9752 131.724 28.425 131.304 26.837C130.49 24.0522 129.718 21.4247 127.517 19.221C125.316 17.0201 122.689 16.2481 119.904 15.434C118.317 15.0157 116.767 14.4645 115.272 13.7862L115.208 13.7553C113.968 13.1592 112.837 12.3603 111.861 11.3916C109.478 9.00832 108.636 6.13372 107.822 3.35177C107.485 2.20081 107.154 1.08073 106.73 0.00275503L105.511 0.00275493C105.994 1.19371 106.406 2.41232 106.744 3.65214C107.623 6.59972 108.507 9.61749 111.092 12.2029Z" fill="#766DFA" fill-opacity="0.15"/>
<path d="M51.6687 1.17341C53.6674 3.17496 54.3973 5.66496 55.1721 8.31216C56.0142 11.2289 56.9097 14.2438 59.4952 16.8321C62.0806 19.4203 65.0956 20.3018 68.0179 21.144C70.6595 21.9188 73.1523 22.6486 75.1538 24.6474C77.1554 26.6461 77.8825 29.1389 78.6573 31.7861C79.4994 34.7028 80.3949 37.7178 82.9804 40.3033C83.9946 41.313 85.1642 42.1536 86.4445 42.7933C86.8525 42.9973 87.2623 43.1844 87.6741 43.3547L87.7948 43.4024L88.2439 43.5765L88.5892 43.7028L88.7941 43.7786L89.2629 43.9386L89.3022 43.9526C90.0349 44.1941 90.7648 44.4102 91.4863 44.6208C94.1278 45.3956 96.6207 46.1254 98.6194 48.1242C100.618 50.1229 101.348 52.6157 102.123 55.2573C102.333 55.9844 102.552 56.7227 102.797 57.461C102.849 57.6257 102.905 57.7913 102.965 57.9579L103.03 58.1347L103.164 58.5053C103.218 58.6428 103.271 58.786 103.327 58.9151C103.347 58.9685 103.366 59.019 103.389 59.0723C103.557 59.4822 103.744 59.8892 103.95 60.2935L103.95 60.3131C104.588 61.5933 105.427 62.7629 106.435 63.7772C109.023 66.3627 112.049 67.247 114.957 68.1004C117.599 68.8752 120.095 69.605 122.093 71.6038C124.092 73.6025 124.822 76.0953 125.597 78.7397C126.439 81.6592 127.334 84.6742 129.92 87.2624C132.505 89.8507 135.557 90.763 138.474 91.6052C139.338 91.8579 140.186 92.1077 141 92.3969L141 91.2094C140.276 90.9652 139.537 90.749 138.785 90.5272C136.003 89.7131 133.126 88.871 130.742 86.4876C128.359 84.1043 127.517 81.2269 126.703 78.445C125.889 75.663 125.117 73.0326 122.913 70.8318C120.709 68.6309 118.085 67.8589 115.3 67.042C112.515 66.2251 109.641 65.3858 107.257 63.0024C106.29 62.0262 105.492 60.8952 104.896 59.6562C104.886 59.6371 104.876 59.6175 104.868 59.5973C104.189 58.1004 103.637 56.5491 103.218 54.9598C102.401 52.1778 101.632 49.5474 99.4307 47.3466C97.2298 45.1457 94.5994 44.3765 91.8175 43.5596C90.2319 43.1423 88.6843 42.592 87.1912 41.9146L87.1182 41.8781C85.8804 41.2834 84.7505 40.4865 83.7748 39.52C81.3915 37.1367 80.5493 34.2593 79.7324 31.4745C78.9155 28.6898 78.1492 26.065 75.9455 23.8614C73.7418 21.6577 71.1143 20.8913 68.3323 20.0744C65.5504 19.2575 62.6729 18.4182 60.2896 16.0348C57.9063 13.6515 57.0641 10.7741 56.25 7.99216C55.4359 5.21021 54.664 2.57984 52.4603 0.378975C52.3368 0.253586 52.2104 0.132866 52.0813 0.0168379L50.2651 0.0168378C50.7679 0.35778 51.2379 0.744987 51.6687 1.17341Z" fill="#766DFA" fill-opacity="0.15"/>
<path d="M123.927 5.31961L123.944 5.31961C124.348 5.52453 124.76 5.71262 125.173 5.88105C125.207 5.89789 125.241 5.90913 125.277 5.92316C125.431 5.98773 125.589 6.04948 125.743 6.10843L126.074 6.22914L126.296 6.30775L126.748 6.46215L126.807 6.4818C127.537 6.72603 128.264 6.93938 128.983 7.14992C131.624 7.92471 134.117 8.65458 136.118 10.6533C138.12 12.6521 138.844 15.1449 139.619 17.7921C139.88 18.6792 140.147 19.5831 140.461 20.487L140.523 20.6639C140.568 20.7874 140.613 20.9109 140.661 21.0344C140.708 21.1579 140.767 21.3152 140.823 21.4499L140.882 21.6015L140.995 21.8569L140.995 18.4883C140.894 18.1514 140.793 17.8145 140.694 17.4777C139.88 14.6929 139.108 12.0654 136.907 9.86169C134.704 7.66083 132.076 6.88884 129.291 6.07475C127.704 5.65769 126.156 5.10643 124.662 4.42691L124.592 4.39323C123.354 3.79722 122.224 2.99936 121.249 2.03234C120.638 1.42089 120.097 0.744011 119.635 0.0139523L118.318 0.0139522C118.901 1.04142 119.619 1.98566 120.454 2.82117C121.469 3.8357 122.642 4.67941 123.927 5.31961Z" fill="#766DFA" fill-opacity="0.15"/>
<path d="M77.3879 11.7848C80.0295 12.5596 82.5223 13.2895 84.5238 15.2882C86.5254 17.287 87.2524 19.7798 88.0272 22.4242C88.8694 25.3409 89.7649 28.3586 92.3504 30.9441C93.3646 31.9538 94.5342 32.7945 95.8145 33.4341C96.2215 33.6418 96.6314 33.8271 97.0468 33.9956L97.1507 34.0348C97.3051 34.0994 97.4595 34.1612 97.6167 34.2201L97.948 34.3408L98.1697 34.4194L98.6217 34.5766L98.6807 34.5963C99.4105 34.8377 100.138 35.0511 100.856 35.2616C103.498 36.0364 105.991 36.7663 107.989 38.765C109.988 40.7638 110.718 43.2566 111.493 45.901C111.754 46.7909 112.021 47.6976 112.335 48.6015C112.357 48.6577 112.377 48.7166 112.4 48.7727L112.534 49.1461L112.694 49.5532L112.759 49.7132C112.927 50.1258 113.115 50.5329 113.32 50.9399C113.32 50.9446 113.32 50.9493 113.32 50.954C113.96 52.2343 114.801 53.4038 115.81 54.4181C118.396 57.0035 121.425 57.8878 124.33 58.7412C126.972 59.516 129.467 60.2459 131.466 62.2446C133.465 64.2433 134.195 66.7362 134.97 69.3806C135.812 72.3001 136.707 75.315 139.293 77.9033C139.814 78.4175 140.377 78.887 140.977 79.3069L140.977 77.9033C140.668 77.6528 140.372 77.3867 140.09 77.106C137.707 74.7227 136.864 71.8453 136.05 69.0633C135.236 66.2814 134.464 63.651 132.263 61.4474C130.063 59.2437 127.432 58.4773 124.647 57.6604C121.863 56.8435 118.991 56.0042 116.605 53.6208C115.638 52.6438 114.84 51.5131 114.244 50.2746C114.244 50.255 114.224 50.2325 114.213 50.21C113.533 48.7157 112.982 47.1661 112.565 45.5781C111.748 42.7962 110.979 40.1658 108.778 37.9649C106.577 35.7641 103.947 34.9949 101.165 34.178C99.5779 33.7614 98.0293 33.2101 96.5359 32.5302L96.4658 32.4993C95.2286 31.9023 94.0988 31.1045 93.1223 30.1384C90.739 27.7523 89.8969 24.8777 89.0828 22.0957C88.2687 19.3138 87.4967 16.6834 85.2958 14.4798C83.095 12.2761 80.4646 11.5097 77.6798 10.6928C74.8951 9.87591 72.0205 9.03655 69.6372 6.65322C67.6525 4.66571 66.7345 2.33572 66.013 0.00572312L64.8396 0.00572302C65.6172 2.57995 66.5745 5.17662 68.8427 7.44486C71.4534 10.0472 74.4684 10.9314 77.3879 11.7848Z" fill="#766DFA" fill-opacity="0.15"/>
<path d="M93.8947 5.91766C95.8935 7.9164 96.6233 10.4092 97.3981 13.0536C98.2403 15.9731 99.1358 18.9881 101.721 21.5735C102.736 22.5833 103.905 23.4239 105.185 24.0635L105.199 24.0635C105.606 24.2694 106.016 24.4565 106.432 24.625L106.536 24.6643C106.69 24.7288 106.844 24.7906 107.002 24.8496L107.336 24.9703L107.552 25.0489L108.015 25.2061L108.06 25.2229C108.79 25.4643 109.523 25.6805 110.241 25.891C112.883 26.6658 115.376 27.3957 117.374 29.3916C119.373 31.3876 120.103 33.8832 120.878 36.5332C121.091 37.2575 121.307 37.9902 121.551 38.7285L121.72 39.2225C121.742 39.2815 121.765 39.3404 121.784 39.3994L121.919 39.7699C121.973 39.9075 122.029 40.0507 122.082 40.1854C122.104 40.2359 122.124 40.2865 122.144 40.337C122.312 40.7468 122.497 41.1567 122.705 41.5581L122.705 41.5778C123.343 42.8586 124.183 44.0283 125.192 45.0419C127.778 47.6273 130.793 48.5116 133.712 49.365C136.354 50.1398 138.85 50.8697 140.848 52.8684C140.896 52.9161 140.938 52.9667 140.986 53.0144L140.986 51.476C138.925 49.7271 136.539 49.0225 134.027 48.287C131.245 47.4729 128.37 46.6308 125.984 44.2474C125.017 43.2705 124.219 42.1397 123.623 40.9012L123.595 40.8423C122.916 39.3454 122.364 37.7941 121.944 36.2048C121.128 33.42 120.358 30.7924 118.158 28.5888C115.957 26.3879 113.329 25.6159 110.544 24.8018C108.96 24.3849 107.413 23.8346 105.921 23.1568L105.845 23.1203C104.608 22.525 103.478 21.7281 102.502 20.7622C100.118 18.3761 99.2762 15.5015 98.4621 12.7167C97.648 9.93198 96.876 7.30723 94.6751 5.10356C92.4743 2.89989 89.8439 2.13353 87.0592 1.31662C85.7337 0.955043 84.4307 0.515414 83.1571 3.69061e-05L80.684 3.66899e-05C82.6322 1.18749 84.7123 1.79947 86.7447 2.3946C89.4004 3.17782 91.896 3.91892 93.8947 5.91766Z" fill="#766DFA" fill-opacity="0.15"/>
<path d="M76.7904 87.7762L76.7595 87.7173C76.0795 86.2211 75.5282 84.6696 75.1117 83.0798C74.2947 80.2978 73.5256 77.6675 71.3219 75.4666C69.121 73.2629 66.4907 72.4937 63.7059 71.6768C62.119 71.2598 60.5703 70.7085 59.0768 70.029L59.0094 69.9981C57.7709 69.4035 56.6408 68.6055 55.666 67.6373C53.2827 65.2539 52.4405 62.3765 51.6236 59.5946C50.8348 56.894 50.0825 54.3423 48.0304 52.1835L48.0304 53.9324C49.3133 55.701 49.9168 57.7558 50.5569 59.9118C51.399 62.8285 52.2974 65.8434 54.8828 68.4317C55.8979 69.4397 57.0673 70.2793 58.3469 70.9189L58.3638 70.9189C58.7708 71.1238 59.1807 71.3091 59.5933 71.4803L59.7196 71.5309L60.1604 71.7049L60.5113 71.8312L60.7106 71.9042L61.1822 72.0642L61.2187 72.0783C61.9514 72.3197 62.6841 72.5359 63.4055 72.7492C66.0443 73.5212 68.5399 74.2511 70.5387 76.2498C72.5374 78.2485 73.2673 80.7414 74.0421 83.3886C74.2526 84.11 74.4688 84.8427 74.713 85.5782L74.713 85.5978C74.7663 85.7607 74.8197 85.9207 74.8786 86.0807C74.8983 86.1453 74.9235 86.207 74.946 86.2688C74.9881 86.3895 75.033 86.5102 75.078 86.6309C75.1229 86.7516 75.1874 86.9116 75.2436 87.052L75.3025 87.198C75.471 87.6078 75.6562 88.0177 75.864 88.4219L75.864 88.4388C76.5041 89.7172 77.3437 90.8855 78.3512 91.9001C78.7391 92.2856 79.1507 92.6465 79.5835 92.9808L81.5879 92.9808C80.6964 92.4635 79.8756 91.8333 79.1456 91.1056C78.1815 90.134 77.3855 89.0089 76.7904 87.7762Z" fill="#766DFA" fill-opacity="0.15"/>
<path d="M49.2741 39.8962C51.9157 40.671 54.4113 41.4009 56.41 43.3996C58.4088 45.3983 59.1415 47.8911 59.9135 50.5355C60.7556 53.4551 61.6539 56.47 64.2394 59.0583C65.2544 60.0663 66.4239 60.9059 67.7035 61.5455C68.1105 61.7504 68.5204 61.9357 68.933 62.1069L69.0369 62.1462C69.1941 62.2108 69.3485 62.2725 69.5057 62.3315L69.837 62.4522L70.0559 62.5336L70.5107 62.688L70.5668 62.7076C71.2967 62.9491 72.0266 63.1652 72.7452 63.3758C75.3868 64.1478 77.8797 64.8776 79.8784 66.8764C81.8771 68.8751 82.607 71.3679 83.379 74.0123C83.5923 74.7366 83.8113 75.4721 84.0555 76.2104C84.1089 76.3732 84.165 76.536 84.224 76.7016C84.2436 76.7606 84.2661 76.8224 84.2885 76.8841L84.4233 77.249C84.4766 77.3894 84.5327 77.5298 84.5889 77.6673C84.6085 77.7178 84.6254 77.7656 84.6479 77.8161C84.8163 78.226 85.0016 78.6358 85.2093 79.0401L85.2093 79.0569C85.8489 80.3365 86.6885 81.5059 87.6965 82.521C90.2848 85.1065 93.3109 85.9907 96.2192 86.8441C98.8608 87.6189 101.354 88.3516 103.355 90.3503C104.115 91.1198 104.748 92.0048 105.23 92.9723L106.482 92.9723C105.916 91.7019 105.125 90.5445 104.147 89.5559C101.946 87.3522 99.3184 86.5831 96.5336 85.7662C93.7489 84.9493 90.8743 84.1099 88.4909 81.7266C87.5331 80.7581 86.742 79.6379 86.1497 78.4112L86.1188 78.3495C85.4393 76.854 84.888 75.3036 84.471 73.7148C83.6541 70.9328 82.8849 68.3024 80.6813 66.1016C78.4804 63.9007 75.85 63.1315 73.0681 62.3146C71.4807 61.8973 69.9312 61.347 68.4362 60.6696L68.3688 60.6359C67.1308 60.0404 66.0008 59.2425 65.0254 58.2751C62.6421 55.8917 61.7999 53.0143 60.983 50.2324C60.1661 47.4504 59.3997 44.82 57.196 42.6192C54.9924 40.4183 52.3648 39.6463 49.5829 38.8294C49.0635 38.6778 48.5414 38.5263 48.0193 38.3606L48.0193 39.5369L49.2741 39.8962Z" fill="#766DFA" fill-opacity="0.15"/>
<path d="M61.9516 84.8369C59.748 82.6332 57.1204 81.864 54.3356 81.0471C52.7491 80.6298 51.2006 80.0795 49.7065 79.4021L49.6391 79.3684C49.0821 79.0951 48.5447 78.7837 48.0306 78.4364L48.0306 79.7726C48.3394 79.9579 48.651 80.1291 48.9654 80.2892L48.9822 80.2892C49.3893 80.4941 49.7992 80.6794 50.2118 80.8506L50.3269 80.8955L50.7817 81.0752L51.1213 81.1987L51.3319 81.2745L51.7951 81.4345L51.8428 81.4485C52.5727 81.6928 53.3026 81.9089 54.024 82.1195C56.6628 82.8915 59.1584 83.6213 61.1572 85.6201C63.1559 87.6188 63.8858 90.1116 64.6606 92.7588L64.7279 92.989L65.9014 92.989C65.848 92.8065 65.7919 92.6241 65.7386 92.4416C64.9245 89.6681 64.1553 87.0377 61.9516 84.8369Z" fill="#766DFA" fill-opacity="0.15"/>
<path d="M48.0274 92.6074C48.3278 92.7281 48.6225 92.8572 48.9117 92.9976L51.1406 92.9976C50.175 92.3342 49.1288 91.7965 48.0274 91.3974L48.0274 92.6074Z" fill="#766DFA" fill-opacity="0.15"/>
<path d="M50.125 26.1969C52.7133 28.7824 55.7395 29.6667 58.6478 30.5201C61.2865 31.2949 63.7821 32.0247 65.7837 34.0235C67.7852 36.0222 68.5123 38.515 69.2871 41.1594C70.1293 44.0789 71.0248 47.0939 73.6102 49.6821C74.6253 50.6902 75.7947 51.5298 77.0744 52.1693C77.4814 52.3771 77.8913 52.5624 78.3067 52.7308L78.405 52.7701C78.5622 52.8356 78.7194 52.8974 78.8766 52.9554L79.2078 53.0761L79.4296 53.1547C79.5812 53.2108 79.7328 53.2614 79.8844 53.3119L79.9377 53.3287C80.6676 53.573 81.3975 53.7863 82.1161 53.9996C84.7577 54.7716 87.2505 55.5015 89.2493 57.5003C91.248 59.499 91.9779 61.9918 92.7527 64.639C93.0137 65.5289 93.2804 66.4328 93.5948 67.3368L93.6538 67.5052C93.6987 67.6315 93.7436 67.7578 93.7913 67.8842C93.839 68.0105 93.898 68.1649 93.9542 68.294C93.9738 68.3446 93.9935 68.3979 94.0159 68.4484C94.1843 68.8601 94.3715 69.2691 94.5774 69.6752C95.2169 70.9548 96.0565 72.1242 97.0646 73.1393C99.6528 75.7247 102.679 76.609 105.587 77.4624C108.229 78.2372 110.724 78.9671 112.723 80.9658C114.722 82.9645 115.452 85.4574 116.227 88.1046C116.665 89.77 117.245 91.3948 117.961 92.9611L119.228 92.9611C118.332 91.2936 117.824 89.5222 117.305 87.7874C116.488 85.0054 115.719 82.375 113.515 80.1742C111.311 77.9733 108.686 77.2013 105.902 76.3844C103.117 75.5675 100.242 74.7282 97.859 72.3448C96.8922 71.3679 96.0944 70.2371 95.4981 68.9986L95.4672 68.9369C94.7877 67.4414 94.2364 65.8909 93.8194 64.3021C93.0025 61.5202 92.2333 58.8898 90.0325 56.689C87.8316 54.4881 85.2012 53.7189 82.4193 52.902C80.8337 52.4847 79.2861 51.9344 77.793 51.257L77.72 51.2233C76.482 50.6278 75.352 49.8298 74.3766 48.8624C71.9933 46.4791 71.1511 43.6017 70.3342 40.8198C69.5173 38.0378 68.7509 35.4074 66.5473 33.2038C64.3436 31.0001 61.7161 30.2337 58.9341 29.4168C56.1521 28.5999 53.2747 27.7606 50.8914 25.3772C49.6223 24.0785 48.6376 22.5298 48 20.8295L48 23.4234C48.5807 24.4391 49.2955 25.3719 50.125 26.1969Z" fill="#766DFA" fill-opacity="0.15"/>
<path d="M48 45H0V93H48V45Z" fill="#FC805F"/>
<path d="M23.3281 82.3309V92.9956H48.0001V82.3309H23.3281Z" fill="#FFC844"/>
<path d="M2.02441 77.4044V93H12.6935V72.3382C12.6935 72.16 12.7642 71.9891 12.8903 71.863C13.0163 71.737 13.1873 71.6662 13.3655 71.6662H47.9996V61.0015H18.4273C14.0769 61.0015 9.90482 62.7296 6.82868 65.8057C3.75253 68.8819 2.02441 73.0541 2.02441 77.4044Z" fill="#766DFA"/>
<path d="M96 93.0045H48V141.005H96V93.0045Z" fill="#766DFA"/>
<path d="M48 130.335V141.005C60.7304 141.005 72.9394 135.947 81.9411 126.946C90.9429 117.944 96 105.735 96 93.0045H85.3309C85.3309 102.905 81.3979 112.401 74.397 119.401C67.3961 126.402 57.9008 130.335 48 130.335Z" fill="#FFC844"/>
<path d="M72.6724 103.665V93H48.0003V103.665H72.6724Z" fill="#FFC844"/>
</svg>
