<svg width="245" height="352" viewBox="0 0 245 352" fill="none" xmlns="http://www.w3.org/2000/svg">
<path d="M131.799 46.1875C135.636 50.0096 140.063 53.1883 144.911 55.6014C146.448 56.3806 147.999 57.0889 149.564 57.7264L149.99 57.8964C150.574 58.1302 151.148 58.3639 151.732 58.5764L153.007 59.0546L153.815 59.3415L155.557 59.9365L155.748 60.0002C158.511 60.914 161.274 61.7322 163.994 62.529C173.992 65.4616 183.427 68.2241 190.992 75.7892C198.557 83.3544 201.32 92.7895 204.252 102.788C205.06 105.54 205.878 108.324 206.813 111.118C207.015 111.745 207.238 112.372 207.451 112.999C207.536 113.222 207.621 113.445 207.695 113.668L208.205 115.06C208.407 115.591 208.619 116.122 208.821 116.632C208.906 116.824 208.981 117.015 209.055 117.217C209.692 118.768 210.401 120.309 211.18 121.839L211.18 121.913C213.593 126.761 216.772 131.188 220.594 135.025C228.032 142.462 236.447 146.192 244.904 148.965L244.904 144.481C237.392 141.899 230.029 138.435 223.59 132.018C219.931 128.32 216.911 124.04 214.654 119.352C214.62 119.272 214.581 119.194 214.537 119.119C211.975 113.455 209.888 107.587 208.3 101.577C205.219 91.0364 202.297 81.0912 193.967 72.7505C185.637 64.4203 175.692 61.4983 165.152 58.417C159.143 56.8338 153.279 54.7474 147.62 52.1801L147.376 52.0632C142.685 49.8069 138.405 46.7832 134.711 43.1168C125.69 34.096 122.502 23.2158 119.421 12.6863C118.146 8.32998 116.892 4.09053 115.288 0.0104715L110.676 0.0104711C112.504 4.51818 114.061 9.13056 115.341 13.8232C118.667 24.9796 122.013 36.4017 131.799 46.1875Z" fill="#766DFA"/>
<path d="M-93.1143 4.44244C-85.5492 12.0182 -82.7867 21.4427 -79.8541 31.4623C-76.6666 42.5018 -73.2771 53.9133 -63.4913 63.7097C-53.7056 73.5061 -42.2941 76.8424 -31.2333 80.03C-21.235 82.9625 -11.8 85.725 -4.22421 93.2902C3.35154 100.855 6.10357 110.29 9.03612 120.31C12.2237 131.35 15.613 142.761 25.3988 152.547C29.2378 156.369 33.6645 159.55 38.5103 161.971C40.0545 162.743 41.6058 163.452 43.1642 164.096L43.621 164.277L45.321 164.936L46.6279 165.414L47.4036 165.701L49.1779 166.306L49.3267 166.36C52.0999 167.273 54.8625 168.091 57.5931 168.888C67.5914 171.821 77.0266 174.583 84.5917 182.149C92.1569 189.714 94.9194 199.149 97.8519 209.147C98.6488 211.899 99.4776 214.693 100.402 217.488C100.6 218.111 100.813 218.738 101.039 219.369L101.284 220.038L101.794 221.44C101.996 221.961 102.198 222.503 102.41 222.992C102.484 223.194 102.559 223.385 102.644 223.587C103.281 225.138 103.99 226.679 104.769 228.209L104.769 228.283C107.182 233.128 110.357 237.555 114.172 241.395C123.969 251.18 135.423 254.527 146.43 257.757C156.429 260.69 165.874 263.452 173.439 271.018C181.005 278.583 183.767 288.018 186.7 298.027C189.887 309.077 193.277 320.488 203.062 330.285C212.848 340.081 224.398 343.534 235.437 346.722C238.71 347.678 241.919 348.624 245 349.718L245 345.224C242.259 344.299 239.464 343.481 236.617 342.642C226.087 339.561 215.196 336.373 206.176 327.352C197.155 318.331 193.967 307.441 190.886 296.911C187.805 286.382 184.883 276.426 176.542 268.096C168.201 259.765 158.267 256.844 147.726 253.752C137.186 250.66 126.306 247.483 117.285 238.462C113.623 234.767 110.603 230.486 108.35 225.797C108.31 225.725 108.274 225.65 108.243 225.574C105.673 219.908 103.583 214.037 101.996 208.021C98.9039 197.491 95.9926 187.536 87.6624 179.205C79.3323 170.875 69.3764 167.964 58.8468 164.872C52.8454 163.292 46.988 161.21 41.3365 158.646L41.0603 158.508C36.3753 156.257 32.0985 153.24 28.4058 149.582C19.385 140.562 16.1974 129.671 13.1055 119.131C10.0136 108.59 7.11294 98.6559 -1.22784 90.3151C-9.5686 81.9744 -19.5138 79.0737 -30.0433 75.9818C-40.5729 72.8899 -51.4637 69.7129 -60.4845 60.6921C-69.5053 51.6714 -72.6928 40.7806 -75.7741 30.251C-78.8554 19.7215 -81.7773 9.76569 -90.1181 1.43555C-90.5856 0.960969 -91.0637 0.504029 -91.5525 0.0648815L-98.4269 0.0648809C-96.5235 1.35535 -94.7449 2.82089 -93.1143 4.44244Z" fill="#766DFA"/>
<path d="M180.377 20.1346L180.441 20.1346C181.971 20.9103 183.533 21.6222 185.095 22.2597C185.223 22.3234 185.35 22.366 185.488 22.4191C186.073 22.6635 186.668 22.8972 187.252 23.1203L188.506 23.5772L189.345 23.8747L191.056 24.4591L191.279 24.5335C194.041 25.4579 196.793 26.2654 199.513 27.0623C209.512 29.9948 218.947 32.7574 226.523 40.3225C234.098 47.8876 236.84 57.3228 239.772 67.3423C240.76 70.6999 241.77 74.1211 242.96 77.5424L243.193 78.2118C243.363 78.6793 243.534 79.1469 243.714 79.6144C243.895 80.0819 244.118 80.6769 244.33 81.1869L244.553 81.7607L244.979 82.7275L244.979 69.9773C244.596 68.7023 244.214 67.4273 243.842 66.1523C240.76 55.6121 237.838 45.6669 229.508 37.3262C221.168 28.996 211.222 26.0741 200.682 22.9928C194.676 21.4143 188.814 19.3278 183.161 16.7558L182.896 16.6284C178.211 14.3725 173.934 11.3526 170.241 7.69254C167.93 5.37824 165.881 2.81627 164.132 0.0530401L159.148 0.0530397C161.354 3.94194 164.074 7.51583 167.234 10.6782C171.077 14.5182 175.515 17.7115 180.377 20.1346Z" fill="#766DFA"/>
<path d="M4.23061 44.6049C14.2289 47.5375 23.664 50.3001 31.2397 57.8652C38.8155 65.4303 41.5674 74.8655 44.4999 84.8744C47.6875 95.914 51.0769 107.336 60.8627 117.122C64.7017 120.944 69.1284 124.125 73.9743 126.546C75.5149 127.333 77.0661 128.034 78.6386 128.671L79.0317 128.82C79.6161 129.064 80.2005 129.298 80.7956 129.521L82.0494 129.978L82.8887 130.276L84.5995 130.871L84.8225 130.945C87.5851 131.859 90.337 132.666 93.0571 133.463C103.055 136.396 112.491 139.158 120.056 146.724C127.621 154.289 130.383 163.724 133.316 173.733C134.304 177.101 135.313 180.533 136.503 183.954C136.588 184.167 136.663 184.39 136.748 184.602L137.258 186.015L137.863 187.556L138.108 188.162C138.745 189.724 139.457 191.264 140.233 192.805C140.23 192.823 140.23 192.84 140.233 192.858C142.654 197.704 145.836 202.131 149.657 205.97C159.443 215.755 170.908 219.102 181.905 222.332C191.903 225.265 201.349 228.027 208.914 235.593C216.479 243.158 219.242 252.593 222.174 262.602C225.362 273.652 228.751 285.063 238.537 294.86C240.51 296.806 242.642 298.583 244.912 300.172L244.912 294.86C243.742 293.912 242.621 292.905 241.555 291.842C232.534 282.821 229.346 271.931 226.265 261.401C223.184 250.872 220.262 240.916 211.932 232.575C203.601 224.234 193.646 221.334 183.105 218.242C172.565 215.15 161.696 211.973 152.664 202.952C149.005 199.254 145.985 194.974 143.728 190.287C143.728 190.212 143.654 190.127 143.612 190.042C141.038 184.386 138.951 178.521 137.375 172.511C134.283 161.981 131.371 152.026 123.041 143.695C114.711 135.365 104.755 132.454 94.2258 129.362C88.2187 127.785 82.3571 125.699 76.7049 123.125L76.4393 123.008C71.7567 120.749 67.4806 117.729 63.7846 114.072C54.7639 105.041 51.5763 94.1608 48.495 83.6313C45.4137 73.1017 42.4918 63.1459 34.1617 54.8052C25.8315 46.4644 15.8757 43.5637 5.33555 40.4718C-5.20463 37.3799 -16.0847 34.2029 -25.1055 25.1822C-32.6175 17.6595 -36.092 8.84064 -38.8226 0.0217342L-43.264 0.0217338C-40.3208 9.76502 -36.6976 19.5933 -28.1125 28.1785C-18.2311 38.028 -6.81957 41.3749 4.23061 44.6049Z" fill="#766DFA"/>
<path d="M66.708 22.3976C74.2731 29.9627 77.0356 39.3979 79.9682 49.4068C83.1557 60.457 86.5452 71.8685 96.331 81.6542C100.17 85.476 104.597 88.6578 109.443 91.0788L109.496 91.0788C111.033 91.858 112.588 92.5663 114.16 93.2038L114.553 93.3525C115.138 93.5969 115.722 93.8307 116.317 94.0538L117.581 94.5107L118.399 94.8082L120.153 95.4032L120.323 95.467C123.085 96.3807 125.858 97.1988 128.578 97.9957C138.577 100.928 148.012 103.691 155.577 111.245C163.142 118.8 165.905 128.246 168.837 138.276C169.645 141.017 170.463 143.79 171.387 146.585L172.025 148.455C172.11 148.678 172.195 148.901 172.269 149.124L172.779 150.527C172.981 151.047 173.194 151.589 173.395 152.099C173.48 152.29 173.555 152.482 173.629 152.673C174.267 154.224 174.968 155.775 175.754 157.295L175.754 157.369C178.167 162.217 181.346 166.644 185.168 170.481C194.954 180.267 206.365 183.613 217.416 186.844C227.414 189.776 236.86 192.539 244.425 200.104C244.605 200.284 244.765 200.476 244.945 200.656L244.945 194.834C237.146 188.214 228.115 185.547 218.606 182.763C208.076 179.682 197.196 176.495 188.164 167.474C184.505 163.776 181.485 159.496 179.229 154.809L179.122 154.585C176.552 148.92 174.462 143.048 172.875 137.033C169.783 126.493 166.872 116.547 158.541 108.207C150.211 99.8764 140.266 96.9545 129.726 93.8732C123.728 92.2952 117.873 90.2123 112.226 87.6468L111.939 87.5087C107.256 85.2555 102.979 82.2394 99.2848 78.5836C90.264 69.5522 87.0765 58.6719 83.9952 48.1318C80.9139 37.5916 77.992 27.657 69.6618 19.3163C61.3317 10.9755 51.3759 8.07486 40.8357 4.98292C35.8188 3.61438 30.8872 1.95039 26.0667 -0.000293793L16.706 -0.000294612C24.0799 4.49417 31.9531 6.81048 39.6457 9.06302C49.6971 12.0274 59.1429 14.8325 66.708 22.3976Z" fill="#766DFA"/>
<path d="M1.97052 332.229L1.85366 332.006C-0.720127 326.343 -2.80666 320.471 -4.38331 314.453C-7.47524 303.924 -10.3865 293.968 -18.7273 285.638C-27.0574 277.297 -37.0132 274.386 -47.5534 271.294C-53.56 269.715 -59.4214 267.629 -65.0743 265.057L-65.3294 264.94C-70.0172 262.689 -74.2946 259.669 -77.9839 256.004C-87.0047 246.983 -90.1923 236.093 -93.2842 225.563C-96.2699 215.342 -99.1175 205.683 -106.884 197.513L-106.884 204.132C-102.029 210.826 -99.7444 218.603 -97.3218 226.764C-94.1343 237.803 -90.7342 249.215 -80.9484 259.011C-77.1064 262.826 -72.6803 266.004 -67.837 268.425L-67.7731 268.425C-66.2325 269.201 -64.6812 269.902 -63.1193 270.55L-62.6412 270.741L-60.973 271.4L-59.6449 271.878L-58.8905 272.154L-57.1054 272.76L-56.9674 272.813C-54.1943 273.727 -51.421 274.545 -48.6904 275.353C-38.7027 278.275 -29.2569 281.037 -21.6918 288.602C-14.1266 296.167 -11.3641 305.602 -8.43157 315.622C-7.63468 318.353 -6.81653 321.126 -5.89214 323.91L-5.89214 323.984C-5.69026 324.6 -5.48842 325.206 -5.26529 325.812C-5.19091 326.056 -5.0953 326.29 -5.0103 326.523C-4.85092 326.98 -4.68082 327.437 -4.51081 327.894C-4.34081 328.351 -4.09647 328.957 -3.88396 329.488L-3.66088 330.04C-3.02337 331.592 -2.32211 333.143 -1.53584 334.673L-1.53584 334.737C0.887212 339.575 4.06491 343.998 7.87805 347.838C9.34637 349.297 10.9042 350.663 12.5425 351.928L20.1289 351.928C16.7548 349.97 13.6479 347.585 10.8851 344.831C7.23584 341.153 4.22326 336.895 1.97052 332.229Z" fill="#766DFA"/>
<path d="M-102.179 151.006C-92.1806 153.938 -82.7348 156.701 -75.1697 164.266C-67.6046 171.831 -64.8314 181.266 -61.9095 191.275C-58.7219 202.325 -55.322 213.737 -45.5362 223.533C-41.6942 227.349 -37.268 230.526 -32.4246 232.947C-30.884 233.723 -29.3327 234.424 -27.7708 235.072L-27.3777 235.221C-26.7827 235.465 -26.1984 235.699 -25.6034 235.922L-24.3495 236.379L-23.5207 236.687L-21.7995 237.272L-21.587 237.346C-18.8245 238.26 -16.0619 239.078 -13.3419 239.875C-3.34356 242.797 6.09163 245.559 13.6568 253.124C21.2219 260.689 23.9844 270.125 26.9063 280.134C27.7138 282.875 28.5426 285.659 29.467 288.453C29.6689 289.069 29.8814 289.686 30.1045 290.312C30.1789 290.536 30.2639 290.769 30.3489 291.003L30.8588 292.384C31.0607 292.916 31.2732 293.447 31.4857 293.968C31.5601 294.159 31.6239 294.339 31.7089 294.531C32.3464 296.082 33.0477 297.633 33.834 299.163L33.834 299.227C36.2546 304.07 39.4325 308.496 43.2478 312.338C53.0442 322.124 64.4982 325.471 75.5059 328.701C85.5041 331.634 94.9394 334.407 102.515 341.972C105.39 344.885 107.786 348.234 109.613 351.896L114.352 351.896C112.209 347.088 109.214 342.707 105.511 338.965C97.1812 330.624 87.236 327.713 76.6959 324.621C66.1557 321.529 55.2755 318.352 46.2547 309.332C42.6292 305.666 39.635 301.426 37.3934 296.783L37.2765 296.549C34.7044 290.889 32.6179 285.021 31.0395 279.007C27.9476 268.478 25.0363 258.522 16.6955 250.192C8.3654 241.862 -1.59038 238.95 -12.1199 235.858C-18.1282 234.279 -23.9928 232.196 -29.6515 229.632L-29.9065 229.505C-34.5922 227.25 -38.8692 224.23 -42.5611 220.569C-51.5819 211.548 -54.7694 200.657 -57.8614 190.128C-60.9533 179.598 -63.854 169.642 -72.1947 161.312C-80.5355 152.982 -90.4806 150.06 -101.01 146.968C-102.976 146.394 -104.952 145.821 -106.928 145.194L-106.928 149.646L-102.179 151.006Z" fill="#766DFA"/>
<path d="M-98.9574 99.1549C-89.161 108.941 -77.7071 112.288 -66.6994 115.518C-56.7117 118.45 -47.266 121.213 -39.6903 128.778C-32.1145 136.343 -29.3625 145.778 -26.43 155.787C-23.2424 166.837 -19.8531 178.249 -10.0673 188.045C-6.22528 191.86 -1.79907 195.038 3.04425 197.459C4.5849 198.245 6.1362 198.947 7.70872 199.584L8.08058 199.733C8.67558 199.981 9.27052 200.215 9.86554 200.434L11.1194 200.891L11.9588 201.189C12.5325 201.401 13.1063 201.592 13.6801 201.784L13.8819 201.847C16.6444 202.772 19.407 203.579 22.127 204.387C32.1253 207.309 41.5605 210.071 49.1256 217.636C56.6908 225.201 59.4533 234.637 62.3858 244.656C63.374 248.024 64.3834 251.446 65.5734 254.867L65.7965 255.504C65.9665 255.983 66.1365 256.461 66.3171 256.939C66.4977 257.417 66.7209 258.001 66.9334 258.49C67.0078 258.681 67.0822 258.883 67.1672 259.074C67.8047 260.633 68.513 262.181 69.2922 263.718C71.7129 268.561 74.8908 272.987 78.7061 276.829C88.5025 286.615 99.9564 289.962 110.964 293.192C120.962 296.124 130.408 298.887 137.973 306.452C145.538 314.017 148.301 323.452 151.234 333.472C152.893 339.776 155.089 345.925 157.8 351.854L162.592 351.854C159.202 345.542 157.279 338.838 155.314 332.271C152.222 321.742 149.31 311.786 140.97 303.456C132.629 295.126 122.694 292.204 112.154 289.112C101.614 286.02 90.7337 282.843 81.713 273.822C78.0536 270.124 75.034 265.844 72.7773 261.157L72.6603 260.923C70.0882 255.263 68.0017 249.395 66.4233 243.381C63.3314 232.852 60.4201 222.896 52.09 214.566C43.7598 206.235 33.804 203.324 23.2745 200.232C17.2731 198.653 11.4156 196.57 5.76423 194.006L5.48797 193.878C0.802199 191.624 -3.47461 188.604 -7.16652 184.943C-16.1873 175.922 -19.3749 165.031 -22.4668 154.502C-25.5587 143.972 -28.4594 134.016 -36.8002 125.675C-45.1409 117.335 -55.0861 114.434 -65.6156 111.342C-76.1452 108.25 -87.036 105.073 -96.0568 96.0524C-100.86 91.1369 -104.588 85.2748 -107.001 78.8396L-107.001 88.6573C-104.803 92.5015 -102.097 96.0324 -98.9574 99.1549Z" fill="#766DFA"/>
</svg>
