<svg width="251" height="253" viewBox="0 0 251 253" fill="none" xmlns="http://www.w3.org/2000/svg">
<path d="M216.858 243.968C218.385 238.83 219.79 233.983 223.599 230.112C227.409 226.241 232.318 224.875 237.464 223.371C242.732 221.844 248.152 220.225 253 216.087V211.85L252.435 212.453C247.808 217.034 242.205 218.668 236.784 220.256C231.219 221.882 225.966 223.424 221.515 227.89L221.424 227.982C221.394 228.016 221.361 228.047 221.324 228.073C216.889 232.517 215.354 237.769 213.69 243.342C212.838 246.63 211.68 249.83 210.231 252.901H213.72C214.984 250.005 216.033 247.019 216.858 243.968Z" fill="#FFC844" fill-opacity="0.16"/>
<path d="M189.595 242.464C194.794 237.265 196.558 231.241 198.268 225.416C199.795 220.278 201.192 215.43 205.002 211.56C208.811 207.689 213.728 206.322 218.866 204.818C224.691 203.108 230.715 201.345 235.914 196.153L235.998 196.054L236.097 195.962C241.296 190.763 243.06 184.74 244.77 178.914C246.297 173.776 247.694 168.929 251.511 165.058C251.971 164.601 252.455 164.171 252.962 163.768V159.95C251.693 160.779 250.514 161.735 249.442 162.806L249.351 162.905L249.251 162.997C244.816 167.432 243.281 172.685 241.617 178.266C240.029 183.686 238.387 189.29 233.807 193.924C229.226 198.558 223.584 200.131 218.164 201.719C212.598 203.353 207.346 204.887 202.895 209.353L202.795 209.46L202.704 209.544C198.268 213.98 196.734 219.232 195.069 224.813C194.226 228.064 193.086 231.23 191.664 234.272C191.6 234.408 191.554 234.552 191.527 234.7C190.436 236.748 189.053 238.625 187.419 240.273C182.77 244.915 177.128 246.571 171.669 248.167C167.539 249.381 163.577 250.541 159.996 252.87H166.951C168.745 252.206 170.616 251.664 172.525 251.099C178.38 249.427 184.404 247.663 189.595 242.464Z" fill="#FFC844" fill-opacity="0.16"/>
<path d="M232.486 76.0775C230.89 81.5362 229.234 87.1781 224.592 91.8275C222.943 93.463 221.063 94.847 219.011 95.9349C218.866 95.9633 218.725 96.0095 218.591 96.0723C215.519 97.5179 212.319 98.6756 209.033 99.5308C203.467 101.165 198.215 102.699 193.764 107.165L193.672 107.265L193.573 107.356C189.137 111.792 187.603 117.044 185.939 122.625C184.351 128.046 182.709 133.642 178.136 138.276C173.563 142.91 167.906 144.49 162.485 146.078C156.92 147.712 151.667 149.247 147.216 153.713L147.125 153.812L147.025 153.904C142.59 158.339 141.048 163.592 139.391 169.173C138.536 172.456 137.378 175.654 135.933 178.723C135.869 178.859 135.822 179.003 135.795 179.151C134.704 181.201 133.318 183.078 131.68 184.724C127.038 189.366 121.396 191.023 115.938 192.618C110.479 194.214 105.12 195.787 100.669 200.253C96.2178 204.719 94.6909 209.949 93.0342 215.522C91.3775 221.095 89.7819 226.622 85.1325 231.272C80.4831 235.921 74.8488 237.57 69.3902 239.166L68.9932 239.28C70.3368 239.967 71.6932 240.627 73.0624 241.258C77.9866 239.731 82.9338 237.792 87.2931 233.432C92.4922 228.233 94.2558 222.21 95.9659 216.385C97.4928 211.201 98.9128 206.315 102.799 202.429C106.685 198.543 111.571 197.084 116.747 195.596C122.58 193.893 128.603 192.122 133.795 186.931C138.986 181.739 140.758 175.708 142.468 169.883C143.995 164.745 145.392 159.889 149.209 156.026C153.026 152.163 157.928 150.789 163.066 149.285C168.891 147.575 174.914 145.811 180.113 140.62C180.14 140.583 180.171 140.55 180.205 140.52L180.297 140.429C185.496 135.23 187.259 129.206 188.969 123.381C190.496 118.243 191.893 113.387 195.711 109.517C199.528 105.646 204.429 104.287 209.567 102.783C215.392 101.073 221.416 99.3094 226.615 94.1103C231.814 88.9112 233.57 82.8952 235.28 77.07C236.807 71.8862 238.227 67.0001 242.151 63.1142C245.205 60.0604 248.9 58.5335 252.84 57.2585V54.0596C248.16 55.4873 243.762 57.1592 239.968 60.9307C235.654 65.2595 234.112 70.512 232.486 76.0775Z" fill="#FFC844" fill-opacity="0.16"/>
<path d="M153.996 232.577C159.821 230.867 165.844 229.104 171.044 223.912C176.243 218.721 178.006 212.69 179.709 206.857C181.236 201.726 182.64 196.879 186.45 193.008C190.26 189.137 195.169 187.771 200.307 186.267C206.139 184.556 212.163 182.793 217.355 177.594L217.439 177.51L217.545 177.41C222.744 172.211 224.508 166.188 226.218 160.355C227.745 155.225 229.142 150.369 232.952 146.506C236.761 142.643 241.67 141.269 246.808 139.765C248.854 139.162 250.916 138.559 252.962 137.803V134.405C250.717 135.299 248.381 135.978 246.137 136.642C240.579 138.268 235.326 139.811 230.868 144.277L230.768 144.376L230.677 144.468C226.241 148.903 224.699 154.156 223.042 159.737C221.454 165.157 219.805 170.761 215.232 175.387C210.659 180.014 205.055 181.594 199.635 183.121C194.077 184.747 188.824 186.289 184.366 190.756C184.331 190.787 184.298 190.82 184.267 190.855L184.175 190.946C179.739 195.382 178.197 200.635 176.54 206.215C175.682 209.501 174.524 212.7 173.082 215.774C173.012 215.905 172.966 216.047 172.945 216.194C171.856 218.247 170.469 220.128 168.83 221.775C164.188 226.416 158.546 228.073 153.087 229.669C147.629 231.264 142.261 232.837 137.818 237.303C133.375 241.769 131.84 246.991 130.184 252.572L130.069 252.969H133.253C134.719 247.969 136.184 243.243 139.948 239.479C143.926 235.524 148.82 234.097 153.996 232.577Z" fill="#FFC844" fill-opacity="0.16"/>
<path d="M239.96 246.487L239.861 246.579C238.037 248.413 236.538 250.543 235.425 252.877H238.998C239.849 251.333 240.904 249.91 242.136 248.648C245.243 245.594 249.007 244.067 252.985 242.808V239.479C248.289 240.907 243.877 242.579 240.075 246.35C240.033 246.393 239.995 246.439 239.96 246.487Z" fill="#FFC844" fill-opacity="0.16"/>
<path d="M114.655 234.807C116.182 229.631 117.602 224.737 121.526 220.859C125.45 216.98 130.298 215.514 135.482 213.988C141.307 212.285 147.331 210.522 152.53 205.322C157.729 200.123 159.492 194.1 161.195 188.275C162.722 183.144 164.127 178.289 167.929 174.426C171.731 170.563 176.655 169.181 181.793 167.677C187.618 165.974 193.642 164.203 198.841 159.012L198.932 158.912L199.032 158.821C204.223 153.629 205.994 147.598 207.697 141.773C209.224 136.635 210.628 131.787 214.438 127.916C218.248 124.045 223.157 122.679 228.295 121.175C234.12 119.472 240.143 117.709 245.342 112.51C249.541 108.303 251.504 103.562 252.977 98.8211V88.5908C252.252 90.5376 251.656 92.5455 251.053 94.5992C249.457 100.058 247.808 105.7 243.159 110.349C241.513 111.987 239.635 113.373 237.586 114.464C237.437 114.485 237.293 114.529 237.158 114.594C234.086 116.043 230.887 117.203 227.6 118.06C222.034 119.686 216.782 121.228 212.331 125.695L212.239 125.786L212.14 125.878C207.712 130.313 206.17 135.566 204.506 141.147C202.918 146.56 201.276 152.163 196.711 156.79C192.145 161.416 186.473 163.012 181.052 164.6C175.487 166.226 170.234 167.768 165.783 172.234L165.692 172.334L165.592 172.418C161.164 176.853 159.622 182.114 157.958 187.687C157.104 190.971 155.946 194.168 154.5 197.237C154.434 197.372 154.391 197.517 154.37 197.665C153.279 199.715 151.892 201.592 150.255 203.238C145.605 207.888 139.963 209.537 134.505 211.14C129.046 212.743 123.687 214.308 119.236 218.774C114.785 223.241 113.266 228.463 111.601 234.043C109.937 239.624 108.448 245.052 103.867 249.694C103.524 250.038 103.18 250.358 102.822 250.671C104.058 250.9 105.295 251.122 106.532 251.32C111.296 246.243 113.029 240.434 114.655 234.807Z" fill="#FFC844" fill-opacity="0.16"/>
<path d="M50.3191 196.191C55.5182 190.992 57.2894 184.968 58.9919 179.143C60.5188 173.967 61.9388 169.073 65.8247 165.187C69.7107 161.302 74.5968 159.843 79.7806 158.355C85.6058 156.652 91.6294 154.889 96.8285 149.689C102.028 144.49 103.784 138.467 105.494 132.642C107.021 127.504 108.425 122.656 112.235 118.785C116.045 114.914 120.954 113.548 126.092 112.044C131.917 110.341 137.94 108.57 143.139 103.379L143.231 103.279L143.33 103.188C148.522 97.9886 150.285 91.9649 151.995 86.1398C153.522 81.0018 154.927 76.1462 158.737 72.2832C162.546 68.4201 167.455 67.0764 172.578 65.5495C178.403 63.847 184.427 62.0835 189.626 56.8844C194.825 51.6853 196.589 45.6617 198.291 39.8365C199.818 34.6603 201.238 29.7666 205.124 25.8806C209.01 21.9947 213.904 20.5365 219.08 19.0478C224.905 17.3453 230.929 15.5741 236.128 10.3826C239.009 7.44354 241.222 3.91767 242.617 0.0454712H239.319C238.089 3.09427 236.274 5.87225 233.975 8.22203C229.333 12.8638 223.683 14.5205 218.225 16.1161C212.766 17.7117 207.407 19.2844 202.956 23.7506C198.505 28.2168 196.986 33.4464 195.321 39.0196C193.657 44.5928 192.069 50.1278 187.427 54.7696C185.781 56.4072 183.904 57.7937 181.854 58.8846C181.706 58.9055 181.561 58.9493 181.426 59.0144C178.355 60.4635 175.155 61.6238 171.868 62.4805C166.303 64.1066 161.05 65.6412 156.599 70.115L156.546 70.1302L156.446 70.2218C152.018 74.6575 150.476 79.91 148.812 85.4909C147.224 90.9114 145.582 96.5151 141.017 101.142C136.452 105.768 130.779 107.356 125.359 108.952C119.793 110.578 114.541 112.12 110.09 116.586L109.998 116.678L109.975 116.701C105.539 121.136 104.005 126.397 102.341 131.97C101.485 135.253 100.328 138.451 98.8821 141.521C98.8182 141.657 98.772 141.8 98.7447 141.948C97.6569 143.997 96.2729 145.875 94.6374 147.521C89.9879 152.171 84.3461 153.82 78.8874 155.423C73.4287 157.026 68.0693 158.591 63.6184 163.057C59.1675 167.524 57.6406 172.746 55.9839 178.326C54.3883 183.777 52.7316 189.427 48.0898 194.069C43.448 198.711 37.7985 200.367 32.3398 201.971C30.3243 202.558 28.347 203.139 26.4384 203.849C27.0949 204.696 27.7668 205.543 28.4462 206.376C29.9731 205.841 31.5764 205.376 33.2025 204.895C39.104 203.154 45.1276 201.39 50.3191 196.191Z" fill="#FFC844" fill-opacity="0.16"/>
<path d="M68.8784 214.743C74.0775 209.544 75.8411 203.52 77.5436 197.695C79.0705 192.519 80.4982 187.625 84.4147 183.747C88.3312 179.869 93.1943 178.403 98.3705 176.914C104.196 175.204 110.219 173.44 115.418 168.241C120.618 163.042 122.381 157.019 124.084 151.193C125.61 146.063 127.015 141.208 130.825 137.337C134.634 133.466 139.543 132.107 144.681 130.596C150.514 128.893 156.538 127.13 161.729 121.93L161.821 121.831C161.856 121.803 161.889 121.772 161.92 121.74C167.119 116.548 168.883 110.524 170.585 104.692C172.112 99.5537 173.517 94.7058 177.334 90.8351C181.151 86.9644 186.053 85.6054 191.183 84.0938C197.008 82.3913 203.032 80.6278 208.231 75.4287C213.43 70.2296 215.194 64.2059 216.904 58.3808C218.431 53.2046 219.851 48.3109 223.729 44.4326C227.607 40.5542 232.509 39.0884 237.685 37.5615C242.861 36.0346 248.221 34.4619 253 30.469V26.2853C252.855 26.4304 252.725 26.5831 252.572 26.7281C247.931 31.3775 242.289 33.0266 236.83 34.6298C231.371 36.2331 226.012 37.7982 221.561 42.2644C217.11 46.7305 215.583 51.9525 213.926 57.5334C212.27 63.1142 210.674 68.6339 206.025 73.2757C204.381 74.9153 202.502 76.302 200.452 77.3907C200.304 77.418 200.16 77.4641 200.024 77.5281C196.951 78.9727 193.751 80.1304 190.466 80.9866C184.908 82.6127 179.655 84.1549 175.197 88.6211L175.105 88.7203C175.073 88.7489 175.042 88.7795 175.013 88.8119C170.578 93.24 169.036 98.5001 167.379 104.081C165.791 109.501 164.142 115.098 159.576 119.724C155.011 124.351 149.346 125.946 143.918 127.534C138.36 129.16 133.1 130.702 128.649 135.169L128.557 135.268L128.466 135.36C124.03 139.795 122.488 145.048 120.831 150.629C119.979 153.914 118.823 157.114 117.38 160.187C117.31 160.318 117.263 160.46 117.243 160.607C116.155 162.66 114.768 164.541 113.128 166.188C108.486 170.829 102.844 172.479 97.3781 174.082C91.9118 175.685 86.56 177.25 82.109 181.716C77.6581 186.182 76.1389 191.404 74.4745 196.985C72.8102 202.566 71.2299 208.086 66.5804 212.735C61.931 217.385 56.2892 219.026 50.8305 220.629C48.5936 221.286 46.3948 221.935 44.2877 222.752C45.181 223.515 46.0895 224.279 47.0056 225.042C48.5325 224.515 50.0594 224.057 51.6932 223.592C57.6557 221.706 63.6793 219.942 68.8784 214.743Z" fill="#FFC844" fill-opacity="0.16"/>
<path d="M24.1098 102.691C29.9425 100.989 35.9661 99.2253 41.1576 94.0262C46.3491 88.8271 48.1355 82.8035 49.8304 77.0013C51.3573 71.8633 52.7544 67.0154 56.5717 63.1447C60.3889 59.274 65.2903 57.915 70.4283 56.3881C76.2534 54.6856 82.2771 52.9144 87.4762 47.723L87.5678 47.6237L87.6594 47.5321C92.8585 42.333 94.6221 36.3094 96.3322 30.4843C97.8591 25.3462 99.2639 20.4907 103.073 16.6276C106.883 12.7646 111.792 11.3903 116.93 9.88635C122.755 8.17622 128.779 6.41265 133.978 1.22119C134.36 0.831826 134.741 0.457735 135.07 0.0454712H130.749C129.367 1.25511 127.853 2.30513 126.237 3.17562C126.091 3.19776 125.949 3.2415 125.817 3.30541C122.746 4.75537 119.546 5.91328 116.258 6.76384C110.693 8.39762 105.44 9.93216 100.989 14.3983L100.898 14.4976L100.798 14.5892C96.3627 19.0249 94.8282 24.2774 93.1639 29.8582C91.5759 35.2787 89.9345 40.8824 85.3614 45.509C80.7883 50.1355 75.1312 51.7234 69.7107 53.3114C64.1451 54.9452 58.8926 56.4797 54.4417 60.9459L54.3501 61.0452L54.2508 61.1368C49.8152 65.5724 48.2806 70.825 46.6163 76.4058C45.761 79.6894 44.6032 82.8867 43.1578 85.9566C43.0938 86.0926 43.0477 86.2363 43.0204 86.3841C41.9299 88.4319 40.5462 90.3094 38.9131 91.9573C34.2636 96.6067 28.6217 98.2558 23.1631 99.8514C17.7044 101.447 12.345 103.02 7.89405 107.486C3.44314 111.952 1.91623 117.182 0.259547 122.755C0.175568 123.045 0.0839796 123.343 0 123.64C0 124.625 0 125.61 0 126.603C0 128.58 0.053436 130.55 0.137416 132.504C1.36846 129.617 2.38905 126.644 3.19122 123.61C4.71812 118.434 6.13814 113.54 10.0623 109.654C13.9864 105.768 18.9336 104.211 24.1098 102.691Z" fill="#FFC844" fill-opacity="0.16"/>
<path d="M31.7672 177.64C36.9663 172.441 38.7299 166.417 40.4324 160.592C41.9593 155.408 43.3869 150.522 47.3034 146.636C51.2199 142.75 56.0831 141.292 61.2593 139.803C67.0844 138.093 73.1081 136.329 78.3072 131.138C83.5063 125.946 85.2698 119.915 86.98 114.082C88.5069 108.952 89.904 104.096 93.7136 100.233C97.5232 96.3704 102.432 94.9962 107.578 93.4922C113.403 91.782 119.427 90.0185 124.618 84.8194L124.717 84.7277L124.809 84.6361C130.008 79.437 131.772 73.4134 133.482 67.5807C135.009 62.4503 136.406 57.5947 140.223 53.724C144.04 49.8533 148.942 48.4944 154.072 46.9904C159.905 45.2803 165.928 43.5167 171.12 38.3176C176.311 33.1185 178.083 27.1025 179.793 21.2697C181.32 16.0935 182.74 11.2075 186.664 7.32149C190.588 3.43553 195.436 1.97734 200.612 0.450439L202.139 0H192.252C189.33 1.17185 186.67 2.91321 184.427 5.12275C179.991 9.5584 178.449 14.8109 176.792 20.3918C175.136 25.9726 173.54 31.4923 168.898 36.1418C167.25 37.7773 165.369 39.1612 163.317 40.2491C163.172 40.2763 163.031 40.3225 162.897 40.3865C159.825 41.8321 156.625 42.9899 153.339 43.845C147.774 45.4788 142.521 47.0133 138.07 51.4795L137.978 51.5787L137.879 51.6703C133.444 56.106 131.901 61.3585 130.245 66.9394C128.657 72.3599 127.015 77.9636 122.442 82.5825C117.869 87.2013 112.212 88.8046 106.784 90.3925C101.226 92.0263 95.9734 93.5609 91.5149 98.0271C91.4823 98.0582 91.4517 98.0914 91.4232 98.1263L91.324 98.2179C86.8884 102.654 85.3462 107.906 83.6895 113.487C82.8308 116.769 81.6731 119.966 80.231 123.038C80.1637 123.172 80.1173 123.317 80.0936 123.465C79.0027 125.515 77.6162 127.393 75.9786 129.038C71.3368 133.68 65.6949 135.337 60.2363 136.933C54.7776 138.528 49.4182 140.101 44.9673 144.567C40.5163 149.033 38.9894 154.255 37.3327 159.836C35.6761 165.417 34.256 170.83 29.6066 175.487C24.9572 180.144 19.3229 181.785 13.8566 183.381L13.6353 183.45C14.101 184.373 14.5819 185.297 15.0705 186.206C20.7888 184.526 26.675 182.732 31.7672 177.64Z" fill="#FFC844" fill-opacity="0.16"/>
<path d="M31.271 58.419C32.7979 53.2886 34.2027 48.4331 38.0123 44.57C41.8219 40.7069 46.7309 39.3327 51.8689 37.8287C57.7017 36.1186 63.7253 34.355 68.9168 29.1559L69.0084 29.0643L69.1076 28.9727C74.3067 23.7736 76.0703 17.75 77.7804 11.9172C78.0171 11.1003 78.2538 10.2911 78.4981 9.48944C77.2231 10.0162 75.9482 10.5583 74.6808 11.1232V11.253C73.0929 16.6735 71.4514 22.2696 66.8783 26.8961C62.3053 31.5226 56.6481 33.1182 51.2276 34.7062C45.6621 36.3324 40.4095 37.8745 35.9586 42.3407C35.926 42.3719 35.8954 42.405 35.867 42.44L35.7677 42.5316C31.3321 46.9672 29.7899 52.2198 28.1332 57.8006C27.2746 61.0856 26.1169 64.2851 24.6748 67.359C24.6074 67.4936 24.5611 67.6378 24.5374 67.7865C23.4465 69.836 22.06 71.7139 20.4224 73.3597C16.9792 76.8029 12.9864 78.597 8.93248 79.9483C8.44896 81.1545 7.99085 82.3684 7.55823 83.59C12.7421 82.0631 17.987 80.1162 22.583 75.5203C27.805 70.2754 29.5685 64.2518 31.271 58.419Z" fill="#FFC844" fill-opacity="0.16"/>
<path d="M13.2155 159.08C18.4146 153.881 20.1781 147.857 21.8806 142.032C23.4075 136.856 24.8275 131.97 28.7135 128.084C32.5995 124.198 37.4932 122.74 42.6694 121.213C48.4945 119.503 54.5181 117.739 59.7172 112.54C64.9163 107.341 66.6799 101.318 68.3824 95.4924C69.9093 90.3544 71.314 85.5065 75.1236 81.6358C78.9333 77.7651 83.8423 76.4061 88.9803 74.8945C94.8054 73.192 100.829 71.4284 106.028 66.2293L106.12 66.1301L106.219 66.0385C111.41 60.847 113.182 54.8234 114.884 48.9906C116.411 43.8526 117.816 39.0047 121.633 35.134C125.45 31.2633 130.352 29.8967 135.482 28.3927C141.307 26.6902 147.331 24.9267 152.53 19.7276C157.729 14.5285 159.493 8.50484 161.195 2.67971C161.462 1.77884 161.722 0.885603 161.959 0H158.836C158.653 0.603126 158.477 1.21389 158.302 1.82465C156.698 7.28332 155.049 12.9252 150.4 17.567C148.754 19.2046 146.876 20.5911 144.827 21.682C144.678 21.7057 144.534 21.752 144.399 21.8194C141.326 23.2628 138.126 24.4205 134.841 25.2779C129.283 26.904 124.023 28.4462 119.572 32.9124L119.48 33.004L119.389 33.1032C114.953 37.5312 113.411 42.7914 111.754 48.3722C110.166 53.7851 108.517 59.3888 103.952 64.0153C99.3861 68.6419 93.7137 70.2375 88.2932 71.8254C82.7276 73.4516 77.4751 74.9938 73.0242 79.4599L72.9325 79.5516L72.8409 79.6508C68.4053 84.0788 66.8631 89.339 65.2064 94.9198C64.3534 98.2066 63.1956 101.407 61.748 104.478C61.683 104.611 61.6392 104.752 61.6182 104.898C60.5314 106.95 59.1445 108.829 57.5032 110.471C52.8615 115.121 47.2119 116.77 41.7532 118.373C36.2946 119.976 30.9352 121.541 26.4842 126.008C22.0333 130.474 20.514 135.696 18.8497 141.277C17.1854 146.857 15.605 152.377 10.9556 157.019C9.16279 158.792 7.10161 160.271 4.84802 161.401C5.1305 162.401 5.42823 163.394 5.74125 164.386C8.51681 163.056 11.0446 161.262 13.2155 159.08Z" fill="#FFC844" fill-opacity="0.16"/>
</svg>
