<svg width="202" height="202" viewBox="0 0 202 202" fill="none" xmlns="http://www.w3.org/2000/svg">
<mask id="mask0_1425_1891" style="mask-type:alpha" maskUnits="userSpaceOnUse" x="0" y="0" width="202" height="202">
<path d="M-8.46003e-07 131.055L0 202L85.2256 202L85.2256 90.5879C85.2256 89.8832 85.3644 89.1855 85.6343 88.5345C85.9041 87.8836 86.2996 87.2923 86.7981 86.7942C87.2966 86.2962 87.8884 85.9014 88.5396 85.6322C89.1908 85.363 89.8886 85.2248 90.5933 85.2255L201.999 85.2255L201.999 -3.29264e-05L131.061 -3.20805e-05C58.6752 -3.12173e-05 -1.70913e-06 58.6751 -8.46003e-07 131.055Z" fill="#1D1D1B"/>
</mask>
<g mask="url(#mask0_1425_1891)">
<path d="M298.551 129.599C296.976 126.491 296.021 123.227 295.093 120.066C293.566 114.855 292.126 109.93 288.08 105.894C284.034 101.859 279.124 100.419 273.908 98.8812C268.432 97.2628 262.768 95.6174 257.993 90.8378C253.219 86.0581 251.558 80.4044 249.955 74.9234C248.429 69.7122 246.988 64.7868 242.942 60.7516C238.896 56.7164 233.982 55.276 228.765 53.7385C223.29 52.1201 217.631 50.5017 212.851 45.7005C208.071 40.8992 206.42 35.2618 204.813 29.7862C203.286 24.5695 201.846 19.6495 197.8 15.6089C193.753 11.5683 188.839 10.1333 183.622 8.59582C178.147 6.97742 172.488 5.359 167.708 0.557732C162.928 -4.24354 161.278 -9.88098 159.67 -15.3566C158.143 -20.5732 156.703 -25.4931 152.657 -29.5338C148.611 -33.5744 143.696 -35.0094 138.48 -36.5469C133.004 -38.1653 127.345 -39.7837 122.571 -44.585C117.796 -49.3863 116.135 -55.0237 114.527 -60.4993C113.001 -65.716 111.56 -70.636 107.514 -74.6766C103.468 -78.7172 98.5536 -80.1522 93.3423 -81.6897C90.181 -82.6175 86.9173 -83.5724 83.8099 -85.1476" stroke="#766DFA" stroke-width="6" stroke-linecap="round" stroke-linejoin="round"/>
<path d="M280.559 147.608C278.984 144.5 278.023 141.237 277.101 138.075C275.574 132.864 274.134 127.939 270.088 123.904C266.042 119.868 261.127 118.428 255.916 116.89C250.44 115.272 244.776 113.654 240.002 108.847C235.227 104.04 233.566 98.4136 231.964 92.9326C230.437 87.7214 228.997 82.8014 224.951 78.7608C220.905 74.7202 215.985 73.2852 210.774 71.7477C205.298 70.1293 199.633 68.4839 194.859 63.7096C190.085 58.9353 188.429 53.2709 186.821 47.7953C185.294 42.5786 183.854 37.6587 179.808 33.6181C175.762 29.5775 170.847 28.1425 165.631 26.605C160.155 24.9866 154.496 23.3682 149.716 18.5669C144.937 13.7657 143.286 8.12822 141.678 2.65261C140.152 -2.55865 138.711 -7.48401 134.665 -11.5246C130.619 -15.5653 125.705 -17.0002 120.488 -18.5377C115.012 -20.1561 109.353 -21.7745 104.574 -26.5757C99.7939 -31.377 98.1431 -37.0145 96.5355 -42.4901C95.0088 -47.7013 93.5684 -52.6267 89.5224 -56.6619C85.4764 -60.6971 80.5619 -62.1429 75.3506 -63.675C72.1893 -64.6029 68.9256 -65.5578 65.8182 -67.1331" stroke="#766DFA" stroke-width="6" stroke-linecap="round" stroke-linejoin="round"/>
<path d="M262.535 165.614C260.96 162.506 260 159.243 259.077 156.081C257.551 150.87 256.11 145.945 252.064 141.909C248.018 137.874 243.104 136.434 237.892 134.896C232.417 133.278 226.752 131.633 221.978 126.858C217.204 122.084 215.542 116.42 213.94 110.944C212.413 105.727 210.973 100.807 206.927 96.7667C202.881 92.726 197.966 91.2911 192.755 89.7536C187.28 88.1352 181.615 86.5167 176.841 81.7155C172.067 76.9142 170.405 71.2768 168.803 65.8012C167.276 60.5845 165.835 55.6646 161.789 51.624C157.743 47.5834 152.829 46.1484 147.618 44.6109C142.142 42.9925 136.478 41.3741 131.703 36.5728C126.929 31.7715 125.273 26.1341 123.665 20.6585C122.139 15.4472 120.698 10.5219 116.652 6.48663C112.606 2.4514 107.692 1.00563 102.475 -0.526462C96.9994 -2.14487 91.3404 -3.76329 86.5607 -8.56455C81.781 -13.3658 80.1303 -19.0033 78.5227 -24.4789C76.996 -29.6901 75.5556 -34.6155 71.5096 -38.6507C67.4636 -42.6859 62.549 -44.1317 57.3377 -45.6638C54.1765 -46.5863 50.9071 -47.5465 47.8051 -49.1218" stroke="#766DFA" stroke-width="6" stroke-linecap="round" stroke-linejoin="round"/>
<path d="M244.529 183.621C242.954 180.519 241.993 177.25 241.071 174.088C239.544 168.877 238.098 163.957 234.058 159.916C230.017 155.876 225.097 154.441 219.886 152.903C214.41 151.285 208.746 149.667 203.971 144.865C199.197 140.064 197.536 134.427 195.933 128.951C194.407 123.734 192.966 118.814 188.92 114.774C184.874 110.733 179.96 109.298 174.749 107.761C169.273 106.142 163.608 104.497 158.834 99.7225C154.06 94.9482 152.398 89.2838 150.796 83.8082C149.269 78.5969 147.829 73.6716 143.783 69.6364C139.737 65.6012 134.822 64.1554 129.611 62.6233C124.136 61.0049 118.471 59.3865 113.697 54.5852C108.923 49.784 107.261 44.1465 105.659 38.6709C104.132 33.4596 102.692 28.5343 98.6458 24.4991C94.5998 20.4638 89.6851 19.0181 84.4684 17.486C78.9928 15.8676 73.3338 14.2492 68.5541 9.44788C63.7744 4.64662 62.1237 -0.99083 60.5161 -6.46643C58.9894 -11.6777 57.549 -16.603 53.503 -20.6382C49.457 -24.6734 44.5424 -26.1192 39.3311 -27.6513C36.1699 -28.5738 32.9007 -29.5341 29.7988 -31.1094" stroke="#766DFA" stroke-width="6" stroke-linecap="round" stroke-linejoin="round"/>
<path d="M226.521 201.63C224.946 198.528 223.986 195.259 223.063 192.098C221.537 186.887 220.091 181.967 216.05 177.926C212.01 173.885 207.09 172.45 201.878 170.913C196.403 169.295 190.738 167.676 185.964 162.875C181.19 158.074 179.528 152.436 177.926 146.961C176.399 141.744 174.959 136.824 170.913 132.783C166.867 128.743 161.952 127.308 156.741 125.77C151.266 124.152 145.601 122.533 140.827 117.732C136.053 112.931 134.391 107.293 132.789 101.818C131.262 96.6066 129.822 91.6813 125.776 87.6461C121.73 83.6108 116.815 82.1651 111.604 80.633C106.128 79.0146 100.464 77.3962 95.6896 72.5949C90.9153 67.7936 89.2538 62.1562 87.6516 56.6806C86.1249 51.4693 84.6845 46.5439 80.6385 42.5087C76.5925 38.4735 71.6779 37.0277 66.4666 35.4956C60.991 33.8772 55.3266 32.2588 50.5523 27.4575C45.778 22.6563 44.1219 17.0188 42.5143 11.5432C40.9876 6.33195 39.5472 1.4066 35.5012 -2.62863C31.4552 -6.66385 26.5406 -8.10963 21.3293 -9.64172C18.1681 -10.5642 14.8987 -11.5244 11.7967 -13.0997" stroke="#766DFA" stroke-width="6" stroke-linecap="round" stroke-linejoin="round"/>
<path d="M208.512 219.646C206.937 216.544 205.977 213.275 205.054 210.114C203.527 204.903 202.082 199.983 198.041 195.942C194 191.902 189.08 190.467 183.869 188.929C178.394 187.311 172.729 185.692 167.955 180.891C163.181 176.09 161.519 170.452 159.917 164.977C158.39 159.76 156.95 154.84 152.904 150.805C148.858 146.77 143.943 145.324 138.732 143.792C133.256 142.173 127.592 140.528 122.818 135.754C118.043 130.979 116.382 125.315 114.78 119.839C113.253 114.628 111.812 109.703 107.766 105.668C103.72 101.632 98.8059 100.187 93.5946 98.6544C88.119 97.036 82.4546 95.4176 77.6803 90.6163C72.906 85.8151 71.2442 80.1776 69.642 74.702C68.1153 69.4907 66.6749 64.5655 62.6289 60.5302C58.5829 56.495 53.6683 55.0492 48.4571 53.5171C42.9815 51.8987 37.3171 50.2803 32.5428 45.4791C27.7685 40.6778 26.107 35.0403 24.5047 29.5647C22.978 24.3535 21.5377 19.4281 17.4916 15.3929C13.4456 11.3577 8.53119 9.91189 3.31453 8.3798C0.158644 7.45731 -3.11062 6.49703 -6.21256 4.92179" stroke="#766DFA" stroke-width="6" stroke-linecap="round" stroke-linejoin="round"/>
<path d="M190.505 237.644C188.925 234.542 187.97 231.273 187.048 228.117C185.521 222.9 184.075 217.98 180.034 213.939C175.994 209.899 171.074 208.464 165.863 206.926C160.387 205.308 154.723 203.69 149.948 198.888C145.174 194.087 143.512 188.45 141.91 182.974C140.384 177.763 138.938 172.837 134.897 168.802C130.857 164.767 125.937 163.321 120.725 161.789C115.25 160.171 109.585 158.552 104.811 153.751C100.037 148.95 98.3749 143.312 96.7727 137.837C95.246 132.625 93.8002 127.7 89.7596 123.665C85.719 119.63 80.799 118.184 75.5878 116.652C70.1122 115.033 64.4478 113.415 59.6735 108.614C54.8992 103.812 53.2377 98.1749 51.6354 92.6993C50.1087 87.488 48.6684 82.5627 44.6223 78.5275C40.5763 74.4922 35.6618 73.0465 30.4505 71.5144C24.9749 69.896 19.3105 68.2775 14.5362 63.4763C9.76188 58.675 8.10037 53.0376 6.49815 47.562C4.97145 42.3507 3.53107 37.4253 -0.514946 33.3901C-4.56096 29.3549 -9.47013 27.9091 -14.6868 26.377C-17.8427 25.4545 -21.1118 24.4943 -24.2192 22.919" stroke="#766DFA" stroke-width="6" stroke-linecap="round" stroke-linejoin="round"/>
<path d="M172.498 255.656C170.917 252.549 169.962 249.28 169.04 246.124C167.513 240.907 166.067 235.987 162.027 231.952C157.986 227.917 153.066 226.471 147.855 224.939C142.379 223.321 136.715 221.702 131.941 216.901C127.166 212.1 125.505 206.462 123.903 200.987C122.376 195.775 120.93 190.85 116.89 186.815C112.849 182.779 107.929 181.334 102.718 179.802C97.2421 178.183 91.5777 176.538 86.8034 171.763C82.0291 166.989 80.3676 161.325 78.7654 155.849C77.2387 150.638 75.7929 145.713 71.7523 141.677C67.7117 137.642 62.7917 136.196 57.5805 134.664C52.1049 133.046 46.4404 131.427 41.6661 126.626C36.8918 121.825 35.2303 116.187 33.6281 110.712C32.1014 105.501 30.661 100.575 26.615 96.54C22.569 92.5048 17.6544 91.059 12.4432 89.5269C6.96756 87.9085 1.30315 86.2901 -3.47115 81.4888C-8.24545 76.6876 -9.90696 71.0501 -11.5092 65.5745C-13.0359 60.3633 -14.4763 55.4379 -18.5223 51.4027C-22.5683 47.3675 -27.4775 45.9217 -32.6941 44.3896C-35.85 43.4671 -39.1191 42.5122 -42.2265 40.9316" stroke="#766DFA" stroke-width="6" stroke-linecap="round" stroke-linejoin="round"/>
<path d="M154.492 273.663C152.911 270.556 151.956 267.286 151.028 264.131C149.502 258.914 148.061 253.994 144.015 249.959C139.969 245.923 135.055 244.478 129.843 242.946C124.368 241.327 118.703 239.709 113.929 234.908C109.155 230.106 107.493 224.469 105.891 218.993C104.364 213.782 102.919 208.857 98.878 204.821C94.8374 200.786 89.9174 199.34 84.7061 197.808C79.2305 196.19 73.5661 194.572 68.7918 189.77C64.0175 184.969 62.3557 179.332 60.7535 173.856C59.2268 168.645 57.7811 163.719 53.7404 159.684C49.6998 155.649 44.7799 154.203 39.5686 152.671C34.093 151.053 28.4286 149.407 23.6543 144.633C18.88 139.859 17.2185 134.194 15.6162 128.719C14.0895 123.507 12.6438 118.582 8.60315 114.547C4.56254 110.512 -0.357427 109.066 -5.56869 107.534C-11.0443 105.915 -16.7087 104.297 -21.483 99.4956C-26.2573 94.6944 -27.9188 89.0569 -29.521 83.5813C-31.0477 78.37 -32.4881 73.4447 -36.5341 69.4095C-40.5801 65.3742 -45.4947 63.9285 -50.706 62.3964C-53.8619 61.4739 -57.131 60.519 -60.2383 58.9384" stroke="#766DFA" stroke-width="6" stroke-linecap="round" stroke-linejoin="round"/>
<path d="M136.479 291.672C134.904 288.564 133.949 285.295 133.021 282.139C131.494 276.928 130.054 272.003 126.008 267.967C121.962 263.932 117.048 262.486 111.836 260.954C106.355 259.336 100.696 257.718 95.9219 252.916C91.1476 248.115 89.486 242.478 87.8784 237.002C86.3571 231.791 84.9113 226.865 80.8653 222.83C76.8193 218.795 71.9047 217.349 66.6934 215.817C61.2178 214.199 55.5534 212.553 50.7791 207.779C46.0048 203.005 44.3433 197.34 42.7411 191.865C41.2144 186.653 39.7686 181.728 35.728 177.693C31.6874 173.658 26.7674 172.212 21.5562 170.68C16.0806 169.061 10.4161 167.443 5.64184 162.642C0.867544 157.84 -0.793966 152.203 -2.39619 146.727C-3.92288 141.516 -5.36866 136.591 -9.40928 132.556C-13.4499 128.52 -18.3699 127.075 -23.5811 125.542C-29.0567 123.924 -34.7211 122.306 -39.4954 117.504C-44.2697 112.703 -45.9315 107.066 -47.5337 101.59C-49.0604 96.3788 -50.5008 91.4535 -54.5468 87.4182C-58.5928 83.383 -63.5074 81.9426 -68.7187 80.4051C-71.8746 79.4773 -75.1437 78.5224 -78.251 76.9417" stroke="#766DFA" stroke-width="6" stroke-linecap="round" stroke-linejoin="round"/>
<path d="M118.47 309.679C116.894 306.572 115.94 303.303 115.012 300.147C113.485 294.935 112.045 290.01 107.999 285.975C103.953 281.94 99.038 280.494 93.8267 278.962C88.3457 277.343 82.6868 275.725 77.9071 270.924C73.1274 266.122 71.4767 260.485 69.8691 255.009C68.3424 249.798 66.902 244.873 62.856 240.838C58.81 236.802 53.8954 235.357 48.6842 233.824C43.2086 232.206 37.5441 230.588 32.7698 225.786C27.9955 220.985 26.3338 215.348 24.7316 209.872C23.2049 204.661 21.7591 199.735 17.7185 195.7C13.6778 191.665 8.75788 190.219 3.54662 188.687C-1.92899 187.069 -7.59341 185.45 -12.3677 180.649C-17.142 175.848 -18.8035 170.21 -20.4057 164.735C-21.9324 159.523 -23.3782 154.598 -27.4188 150.563C-31.4594 146.528 -36.3794 145.082 -41.5907 143.55C-47.0663 141.931 -52.7307 140.313 -57.505 135.512C-62.2793 130.71 -63.9408 125.078 -65.543 119.597C-67.0697 114.386 -68.5155 109.461 -72.5561 105.426C-76.5967 101.39 -81.5167 99.95 -86.7279 98.4125C-89.8892 97.4846 -93.153 96.5297 -96.2603 94.9545" stroke="#766DFA" stroke-width="6" stroke-linecap="round" stroke-linejoin="round"/>
</g>
</svg>
