<svg width="241" height="270" viewBox="0 0 241 270" fill="none" xmlns="http://www.w3.org/2000/svg">
<g opacity="0.33">
<path d="M208.437 154.033C204.733 157.729 203.344 162.394 201.888 167.334C200.258 172.886 198.577 178.628 193.622 183.576C188.667 188.524 182.925 190.212 177.373 191.842C172.484 193.297 167.856 194.629 164.166 198.267C160.477 201.905 159.175 206.577 157.741 211.474C156.119 217.026 154.438 222.767 149.482 227.715C149.453 227.749 149.421 227.78 149.388 227.81L149.3 227.897C144.345 232.853 138.604 234.534 133.052 236.164C128.162 237.619 123.534 238.95 119.852 242.581C116.17 246.212 114.86 250.891 113.42 255.796C112.088 260.358 110.706 265.052 107.504 269.33L103.72 269.33C105.013 267.921 106.124 266.354 107.024 264.666C107.043 264.526 107.087 264.39 107.154 264.266C108.529 261.336 109.632 258.286 110.451 255.155C112.001 249.851 113.471 244.844 117.727 240.602C117.727 240.602 117.793 240.544 117.822 240.508L117.909 240.42C122.13 236.193 127.143 234.723 132.462 233.144C137.622 231.63 142.963 230.066 147.372 225.707C151.782 221.348 153.302 215.956 154.816 210.79C156.366 205.486 157.836 200.479 162.093 196.237L162.18 196.15L162.267 196.055C166.495 191.827 171.508 190.358 176.82 188.778C179.952 187.962 183.002 186.859 185.931 185.482C186.057 185.42 186.192 185.376 186.331 185.351C188.286 184.314 190.076 182.992 191.643 181.429C196.074 177.005 197.646 171.628 199.174 166.425C200.702 161.222 202.194 156.114 206.451 151.872C207.332 150.989 208.292 150.188 209.318 149.478C209.798 150.329 210.271 151.18 210.773 152.039C209.935 152.631 209.154 153.299 208.437 154.033Z" fill="#FFC844"/>
<path d="M219.607 185.017C217.977 190.569 216.296 196.31 211.348 201.265C206.4 206.22 200.651 207.901 195.099 209.524C190.202 210.979 185.574 212.318 181.892 215.949C178.211 219.58 176.901 224.259 175.467 229.156C173.837 234.708 172.156 240.449 167.201 245.405L167.106 245.492L167.026 245.587C162.071 250.535 156.33 252.223 150.778 253.846C145.881 255.301 141.26 256.64 137.571 260.271C134.988 262.89 133.554 265.99 132.419 269.33L129.232 269.33C130.52 265.335 132.143 261.581 135.417 258.299L135.512 258.212L135.599 258.117C139.827 253.889 144.833 252.427 150.152 250.84C155.318 249.327 160.652 247.762 165.062 243.411C169.471 239.06 170.992 233.653 172.506 228.487C174.056 223.182 175.525 218.176 179.782 213.934L179.877 213.846L179.964 213.752C184.192 209.524 189.198 208.061 194.517 206.475C197.65 205.663 200.7 204.56 203.628 203.179C203.754 203.118 203.889 203.076 204.028 203.055C205.983 202.015 207.775 200.694 209.347 199.133C213.771 194.702 215.35 189.324 216.871 184.121C217.999 180.279 219.054 176.59 221.237 173.207C221.724 174.335 222.205 175.455 222.692 176.583C221.41 179.295 220.378 182.118 219.607 185.017Z" fill="#FFC844"/>
<path d="M239.465 241.701C236.557 243.01 233.547 244.078 230.464 244.895C225.574 246.351 220.946 247.682 217.257 251.321C213.568 254.959 212.265 259.63 210.832 264.528C210.366 266.121 209.893 267.729 209.377 269.33L206.153 269.33C206.815 267.526 207.354 265.692 207.885 263.887C209.435 258.583 210.905 253.576 215.161 249.334L215.249 249.247C215.249 249.247 215.307 249.181 215.343 249.152C219.571 244.925 224.577 243.462 229.897 241.876C233.028 241.059 236.078 239.956 239.007 238.579C239.06 238.552 239.116 238.533 239.174 238.521C239.24 239.634 239.349 240.653 239.465 241.701Z" fill="#FFC844"/>
<path d="M173.066 118.661C169.362 122.365 167.973 127.022 166.517 131.963C164.887 137.515 163.206 143.256 158.251 148.212C153.296 153.167 147.562 154.841 142.002 156.471C137.113 157.926 132.492 159.257 128.803 162.888C125.114 166.519 123.811 171.206 122.378 176.103C120.748 181.655 119.067 187.396 114.111 192.351L114.017 192.439L113.929 192.533C108.981 197.481 103.24 199.162 97.6809 200.792C92.7911 202.247 88.1632 203.586 84.4812 207.21C80.7993 210.834 79.5404 215.527 78.0851 220.424C76.4624 225.976 74.7815 231.718 69.8262 236.673C64.8709 241.628 59.1296 243.309 53.5776 244.932C48.644 246.387 43.9798 247.741 40.2833 251.444C36.5868 255.148 35.1897 259.812 33.7344 264.746C33.2833 266.267 32.8321 267.802 32.3154 269.33L29.2229 269.33C29.8778 267.54 30.409 265.692 30.9402 263.924C32.4901 258.626 33.9599 253.613 38.2167 249.371C42.4735 245.128 47.4507 243.68 52.7699 242.094C58.089 240.508 63.35 238.994 67.7742 234.57C69.335 233.001 70.6565 231.211 71.6962 229.258C71.7222 229.117 71.7663 228.98 71.8273 228.851C73.2029 225.921 74.3064 222.872 75.1236 219.74C76.6735 214.436 78.1433 209.429 82.4001 205.187L82.4947 205.1L82.582 205.005C86.8097 200.778 91.816 199.315 97.1352 197.729C102.302 196.215 107.635 194.651 112.045 190.292C116.454 185.933 117.975 180.541 119.489 175.375C121.039 170.07 122.509 165.064 126.765 160.822L126.867 160.727L126.947 160.64C131.175 156.412 136.181 154.95 141.5 153.363C144.632 152.548 147.682 151.445 150.611 150.067C150.738 150.006 150.872 149.962 151.011 149.936C152.968 148.901 154.76 147.582 156.33 146.021C160.754 141.59 162.333 136.213 163.854 131.01C165.375 125.807 166.874 120.699 171.131 116.457C174.238 113.35 177.774 111.734 181.536 110.475C182.23 111.271 182.916 112.069 183.595 112.869C179.622 114.223 176.035 115.693 173.066 118.661Z" fill="#FFC844"/>
<path d="M190.749 136.308C187.045 140.011 185.655 144.676 184.236 149.609C182.613 155.161 180.925 160.902 175.977 165.858C171.029 170.813 165.281 172.494 159.729 174.117C154.831 175.572 150.211 176.911 146.522 180.542C142.832 184.173 141.53 188.852 140.096 193.749C138.466 199.301 136.786 205.049 131.837 209.998L131.736 210.092L131.656 210.179C126.7 215.135 120.959 216.816 115.407 218.438C110.51 219.894 105.889 221.233 102.2 224.864C98.5108 228.495 97.2083 233.173 95.7748 238.071C94.1449 243.623 92.4639 249.364 87.5158 254.319C82.5678 259.274 76.8193 260.955 71.2673 262.585C66.3265 264.041 61.6695 265.394 57.9657 269.091L57.7765 269.294L53.9563 269.294C54.5512 268.496 55.203 267.743 55.9065 267.039C60.1341 262.811 65.1404 261.341 70.4596 259.762C75.7788 258.183 81.0397 256.662 85.4712 252.231C87.0299 250.66 88.3512 248.871 89.3933 246.919C89.4122 246.78 89.454 246.644 89.5169 246.519C90.8946 243.588 91.9981 240.535 92.8132 237.401C94.3704 232.104 95.833 227.09 100.09 222.848L100.192 222.761L100.272 222.673C104.499 218.446 109.506 216.976 114.825 215.397C119.991 213.883 125.332 212.311 129.742 207.96C134.151 203.609 135.665 198.209 137.178 193.036C138.736 187.739 140.198 182.725 144.455 178.483L144.55 178.395L144.637 178.308C148.865 174.08 153.871 172.611 159.19 171.031C162.323 170.215 165.373 169.109 168.3 167.728C168.429 167.666 168.566 167.624 168.708 167.604C170.661 166.565 172.451 165.243 174.02 163.682C178.444 159.258 180.023 153.881 181.544 148.671C183.065 143.461 184.564 138.36 188.82 134.117C190.989 131.987 193.562 130.312 196.388 129.191C196.97 130.006 197.538 130.828 198.105 131.643C195.349 132.656 192.841 134.247 190.749 136.308Z" fill="#FFC844"/>
<path d="M212.781 227.206C207.884 228.661 203.264 230 199.574 233.631C195.885 237.262 194.583 241.948 193.149 246.846C191.519 252.398 189.838 258.139 184.89 263.087C184.857 263.117 184.825 263.148 184.796 263.181L184.708 263.269C181.996 265.935 178.753 268 175.191 269.33L165.236 269.33C166.088 269.068 166.954 268.814 167.819 268.559C172.986 267.045 178.327 265.474 182.736 261.122C187.146 256.771 188.689 251.372 190.144 246.183C191.701 240.879 193.164 235.865 197.421 231.63C197.455 231.605 197.487 231.576 197.515 231.543L197.602 231.456C201.83 227.228 206.836 225.758 212.156 224.179C215.284 223.361 218.331 222.257 221.259 220.883C221.386 220.815 221.524 220.771 221.666 220.752C223.619 219.712 225.409 218.391 226.978 216.83C229.68 214.022 231.706 210.635 232.901 206.926C233.318 208.493 233.721 210.065 234.109 211.641C232.843 214.342 231.12 216.804 229.015 218.918C224.075 223.903 218.333 225.583 212.781 227.206Z" fill="#FFC844"/>
<path d="M230.813 269.33C231.415 268.516 232.077 267.748 232.792 267.031L232.887 266.943L232.974 266.849C235.24 264.618 237.947 262.883 240.92 261.755C240.92 262.832 240.978 263.938 241 264.993C238.751 265.938 236.698 267.292 234.946 268.988L234.633 269.316L230.813 269.33Z" fill="#FFC844"/>
<path d="M95.8108 61.2198C94.1881 66.7719 92.5073 72.5131 87.5519 77.4684C82.5966 82.4238 76.8554 84.1047 71.3034 85.7273C66.4062 87.1826 61.7856 88.5216 58.0964 92.1526C54.4071 95.7836 53.1046 100.462 51.6711 105.36C50.0484 110.919 48.3603 116.66 43.4122 121.608L43.3176 121.703L43.2303 121.79C38.2749 126.745 32.5338 128.426 26.9817 130.056C22.0846 131.512 17.464 132.843 13.7747 136.474C10.0855 140.105 8.78305 144.784 7.34957 149.681C5.83604 154.862 4.2643 160.203 0.072998 164.918L0.0729976 160.101C0.393167 159.592 0.698783 159.082 0.982569 158.559C1.00255 158.419 1.04424 158.284 1.10621 158.158C2.48622 155.23 3.59216 152.18 4.4098 149.048C5.95971 143.743 7.4223 138.737 11.6864 134.495L11.7883 134.4L11.8683 134.313C16.096 130.085 21.1023 128.615 26.4214 127.036C31.5805 125.523 36.9215 123.951 41.3311 119.6C45.7407 115.248 47.2542 109.849 48.7678 104.683C50.3249 99.3782 51.7948 94.3719 56.0443 90.1297L56.1389 90.0424L56.2262 89.9478C60.4539 85.7201 65.4602 84.2502 70.7794 82.6712C73.908 81.8527 76.9551 80.7494 79.8824 79.3749C80.0107 79.3107 80.1482 79.2665 80.2899 79.2439C82.2433 78.2042 84.0331 76.8827 85.6018 75.3218C90.0259 70.8977 91.605 65.5203 93.1331 60.3176C94.3192 56.25 95.4615 52.3643 97.8337 48.8642L100.533 50.0794C98.0956 53.4339 97.0042 57.2396 95.8108 61.2198Z" fill="#FFC844"/>
<path d="M120.013 65.6073C116.309 69.3111 114.919 73.9681 113.501 78.9089C111.871 84.4609 110.19 90.2021 105.234 95.1502C100.279 100.098 94.5377 101.786 88.9857 103.416C84.0958 104.872 79.4752 106.203 75.786 109.834C72.0968 113.465 70.8088 118.115 69.3535 123.049C67.7308 128.601 66.05 134.342 61.0946 139.297L61 139.385L60.9127 139.472C55.9646 144.427 50.2234 146.108 44.6641 147.738C39.7742 149.193 35.1464 150.525 31.4645 154.156C27.7825 157.787 26.4727 162.466 25.0319 167.37C23.4092 172.922 21.7284 178.663 16.773 183.619C11.8177 188.574 6.07649 190.248 0.524468 191.878L0.0441895 192.023L0.0441892 188.989C5.13779 187.49 10.3842 185.889 14.7138 181.56C16.2766 179.99 17.5984 178.197 18.6359 176.24C18.6599 176.101 18.704 175.966 18.7668 175.84C20.1425 172.911 21.2459 169.861 22.0631 166.73C23.613 161.425 25.0829 156.419 29.3397 152.177L29.4343 152.082L29.5216 151.995C33.7493 147.767 38.7556 146.305 44.0747 144.718C49.2411 143.205 54.5748 141.64 58.9844 137.282C63.394 132.923 64.9148 127.531 66.4283 122.365C67.9782 117.06 69.4481 112.054 73.7049 107.811L73.8068 107.71L73.8868 107.63C78.1145 103.402 83.1208 101.939 88.4399 100.353C91.572 99.5379 94.6218 98.4345 97.5502 97.0567C97.6773 96.9957 97.8119 96.9516 97.9505 96.9257C99.906 95.8888 101.698 94.5697 103.27 93.0109C107.694 88.5795 109.265 83.2021 110.794 77.9993C112.322 72.7966 113.813 67.6884 118.07 63.4462C119.044 62.4649 120.117 61.5871 121.272 60.8266C122.218 61.3796 123.164 61.9399 124.11 62.5075C122.604 63.3418 121.225 64.3855 120.013 65.6073Z" fill="#FFC844"/>
<path d="M137.694 83.2907C133.991 86.9945 132.601 91.6588 131.146 96.5923C129.516 102.144 127.835 107.886 122.887 112.841C117.938 117.796 112.19 119.477 106.638 121.1C101.741 122.555 97.1202 123.894 93.431 127.525C89.7418 131.156 88.4393 135.835 87.0058 140.732C85.3758 146.284 83.695 152.025 78.7396 156.981L78.645 157.075L78.565 157.162C73.6097 162.111 67.8684 163.799 62.3091 165.421C57.4192 166.877 52.7987 168.216 49.1095 171.847C45.4202 175.478 44.1177 180.156 42.6842 185.054C41.0542 190.606 39.3734 196.347 34.418 201.302C29.4627 206.258 23.7288 207.938 18.1767 209.561C13.236 211.016 8.57893 212.377 4.87515 216.11C2.66877 218.416 1.00551 221.185 0.00708008 224.216L0.00707949 217.543C0.814133 216.283 1.75601 215.115 2.81591 214.058C7.0436 209.83 12.0499 208.36 17.3691 206.781C22.6882 205.202 27.9491 203.674 32.3805 199.25C33.9371 197.68 35.256 195.89 36.2953 193.938C36.3213 193.797 36.3654 193.66 36.4264 193.531C37.8052 190.603 38.9087 187.553 39.7227 184.421C41.2798 179.123 42.7424 174.11 46.9992 169.867L47.0938 169.78L47.1811 169.693C51.4088 165.465 56.4151 163.995 61.7343 162.416C66.9007 160.91 72.2416 159.338 76.644 154.987C81.0463 150.635 82.5744 145.236 84.0879 140.063C85.6451 134.765 87.1077 129.752 91.3645 125.509L91.4663 125.415L91.5464 125.327C95.7741 121.107 100.78 119.637 106.1 118.051C109.233 117.239 112.283 116.136 115.21 114.755C115.338 114.693 115.476 114.651 115.617 114.631C117.571 113.591 119.361 112.27 120.929 110.709C125.353 106.285 126.932 100.907 128.453 95.6973C129.974 90.4873 131.473 85.3864 135.73 81.1442C138.103 78.8267 140.943 77.0429 144.061 75.9123C144.986 76.6036 145.902 77.3094 146.812 78.0152C143.392 79.2377 140.307 80.6785 137.694 83.2907Z" fill="#FFC844"/>
<path d="M35.9322 50.3626C31.0351 51.8179 26.4145 53.1495 22.7253 56.7878C19.0361 60.4261 17.7335 65.0977 16.3 69.9948C14.6773 75.5468 12.9965 81.2881 8.04113 86.2434L7.94653 86.3307L7.85922 86.418C5.60245 88.6609 2.95368 90.4712 0.0441895 91.759L0.0441892 88.4264C2.19006 87.3545 4.15438 85.9525 5.86544 84.2714C10.2314 79.8618 11.7958 74.5208 13.3094 69.3545C14.8593 64.0498 16.3291 59.0436 20.5859 54.8013L20.6732 54.714C20.7096 54.714 20.7315 54.6485 20.7678 54.6194C24.9883 50.3917 30.0018 48.9219 35.321 47.3428C38.453 46.5278 41.5028 45.4243 44.4313 44.0466C44.5583 43.9855 44.6929 43.9415 44.8315 43.9156C48.8676 41.7808 52.1458 38.4517 54.2182 34.3833C55.1933 34.6088 56.1683 34.8562 57.1288 35.1109C55.8877 37.6931 54.2199 40.0474 52.1954 42.0746C47.2255 47.0518 41.4842 48.7327 35.9322 50.3626Z" fill="#FFC844"/>
<path d="M5.76308 261.252C10.1872 256.821 11.7662 251.443 13.287 246.241C14.8078 241.038 16.3068 235.93 20.5636 231.688C24.8204 227.445 29.8048 225.99 35.1167 224.411C40.3122 222.883 45.6969 221.311 50.121 216.887C51.6839 215.317 53.0056 213.525 54.0431 211.568C54.0631 211.429 54.1049 211.294 54.1668 211.168C55.5448 208.238 56.6507 205.189 57.4704 202.057C59.0203 196.753 60.4829 191.746 64.747 187.504C64.7748 187.469 64.8065 187.437 64.8416 187.41L64.9216 187.322C69.1493 183.095 74.1629 181.625 79.4748 180.046C84.6411 178.532 89.9821 176.968 94.3917 172.609C98.8013 168.25 100.315 162.858 101.836 157.692C103.386 152.387 104.855 147.381 109.112 143.139L109.207 143.044L109.287 142.957C113.515 138.729 118.528 137.259 123.84 135.68C126.969 134.862 130.016 133.759 132.943 132.384C133.071 132.32 133.209 132.276 133.35 132.253C135.304 131.213 137.094 129.892 138.662 128.331C143.094 123.907 144.666 118.53 146.194 113.327C147.722 108.124 149.213 103.016 153.47 98.7737C156.686 95.5574 160.354 93.9347 164.261 92.6613C165.076 93.389 165.899 94.1749 166.699 94.9462C162.559 96.205 158.695 97.6676 155.522 100.833C151.826 104.529 150.429 109.194 148.973 114.127C147.351 119.679 145.67 125.428 140.714 130.376C135.759 135.324 130.018 137.012 124.466 138.642C119.569 140.097 114.948 141.429 111.266 145.06C107.584 148.691 106.267 153.37 104.834 158.274C103.211 163.826 101.53 169.567 96.5747 174.515L96.4801 174.61L96.2763 174.872C91.321 179.827 85.5798 181.508 80.0278 183.138C75.1307 184.594 70.51 185.925 66.8281 189.556C63.1461 193.187 61.829 197.866 60.3955 202.763C58.7729 208.322 57.092 214.064 52.1366 219.012C47.1813 223.96 41.4401 225.648 35.8881 227.278C30.9546 228.733 26.2903 230.087 22.5865 233.827C18.8827 237.567 17.4929 242.188 16.0376 247.128C14.4149 252.68 12.7268 258.422 7.7787 263.37C5.53249 265.605 2.89613 267.41 0 268.696L-2.84354e-07 265.444C2.12916 264.358 4.07403 262.943 5.76308 261.252Z" fill="#FFC844"/>
<path d="M78.1291 43.5391C76.4992 49.0911 74.8182 54.8323 69.8701 59.7877C64.9221 64.743 59.1736 66.4239 53.6216 68.0466C48.7244 69.5019 44.0965 70.8408 40.4146 74.4718C36.7326 78.1028 35.4229 82.7816 33.9894 87.6788C32.3595 93.2308 30.6786 98.972 25.7232 103.927L25.6286 104.015L25.5486 104.109C20.5933 109.057 14.852 110.738 9.29268 112.368C6.0255 113.329 2.87478 114.253 0.0441895 115.846L0.0441892 112.455C2.8241 111.192 5.70625 110.167 8.65962 109.392C13.826 107.879 19.1597 106.314 23.5693 101.963C27.9789 97.6113 29.4998 92.2121 31.0133 87.0384C32.5632 81.7338 34.0331 76.7275 38.2899 72.4853L38.3844 72.398L38.4718 72.3034C42.6995 68.0757 47.7058 66.6131 53.0249 65.0268C56.1546 64.2116 59.2019 63.1082 62.1278 61.7305C62.2544 61.6696 62.3893 61.6279 62.5281 61.6068C64.4851 60.5693 66.2777 59.2476 67.8473 57.6847C72.2715 53.2606 73.8505 47.8759 75.3713 42.6732C75.5896 41.9455 75.8006 41.2179 76.0189 40.4902L78.7766 41.4216L78.1291 43.5391Z" fill="#FFC844"/>
<path d="M5.04319 39.0986C2.74445 41.5565 1.03498 44.5052 0.0441895 47.7214L0.0441888 40.6776C0.86484 39.3971 1.81854 38.2068 2.88935 37.1267C2.92426 37.1015 2.95602 37.0721 2.98395 37.0394L3.07127 36.952C7.29895 32.7243 12.3052 31.2545 17.6244 29.6755L19.6036 29.0933C21.9539 29.2753 24.2897 29.5081 26.6182 29.7628C23.9003 30.9272 21.1041 31.8998 18.2502 32.6734C13.3239 34.1069 8.73241 35.4676 5.04319 39.0986Z" fill="#FFC844"/>
</g>
<path d="M214.415 86.9966C210.73 100.709 203.228 113.094 192.782 122.711C180.339 114.971 166.289 110.183 151.708 108.716V86.9966L214.415 86.9966Z" fill="#2B5243"/>
<path d="M236.463 86.9966H238.402V173.72H233.362C228.537 159.535 220.477 146.667 209.82 136.135C223.364 122.749 232.635 105.65 236.463 86.9966Z" fill="#2B5243"/>
<path d="M210.266 173.721H151.707V163.554C166.288 162.087 180.339 157.3 192.782 149.559C200.165 156.365 206.11 164.58 210.266 173.721Z" fill="#2B5243"/>
<path d="M151.707 141.939V130.309C158.839 131.241 165.799 133.2 172.37 136.124C165.799 139.048 158.839 141.007 151.707 141.939Z" fill="#2B5243"/>
<path d="M172.371 136.134C165.799 133.21 158.839 131.251 151.707 130.319V108.706C166.288 110.173 180.339 114.96 192.782 122.701C186.758 128.265 179.863 132.802 172.371 136.134Z" fill="#FC805F"/>
<path d="M192.781 149.558C198.934 145.732 204.639 141.23 209.79 136.135C220.457 146.664 228.527 159.532 233.361 173.72H210.294C206.13 164.577 200.175 156.361 192.781 149.558Z" fill="#FC805F"/>
<path d="M172.371 136.135C179.862 139.463 186.758 143.998 192.782 149.558C180.339 157.298 166.288 162.086 151.707 163.553V141.94C158.839 141.011 165.798 139.055 172.371 136.135Z" fill="#F6C85B"/>
<path d="M209.791 136.135C204.639 131.04 198.934 126.537 192.781 122.711C203.227 113.094 210.729 100.709 214.414 86.9966H236.463C232.626 105.653 223.345 122.753 209.791 136.135Z" fill="#F6C85B"/>
<path d="M209.792 136.135C204.641 141.23 198.936 145.733 192.783 149.559C186.759 143.998 179.864 139.464 172.372 136.135C179.864 132.807 186.759 128.272 192.783 122.712C198.936 126.538 204.641 131.041 209.792 136.135Z" fill="#E14547"/>
<path d="M84.6901 19.1557L65.0218 19.1557V0.30127L151.708 0.30127V86.9966H133.696V68.1616C133.693 55.1652 128.53 42.7019 119.34 33.512C110.15 24.3222 97.6865 19.1582 84.6901 19.1557Z" fill="#4CE467"/>
<path d="M101.829 53.0282V86.9971H65.0112V51.0226L99.8134 51.0226C100.078 51.0213 100.339 51.0723 100.584 51.1725C100.828 51.2727 101.051 51.4202 101.238 51.6066C101.425 51.7929 101.574 52.0145 101.675 52.2584C101.776 52.5024 101.829 52.764 101.829 53.0282Z" fill="#4CE467"/>
<path d="M101.829 53.0277C101.829 52.4958 101.618 51.9856 101.242 51.6095C100.865 51.2334 100.355 51.0221 99.8233 51.0221L65.0211 51.0221V19.1556H84.6894C97.6858 19.1582 110.149 24.3222 119.339 33.512C128.529 42.7018 133.693 55.1652 133.695 68.1616V86.9966H101.829V53.0277Z" fill="#766DFA"/>
</svg>
