<?xml version="1.0" encoding="UTF-8"?>
<svg xmlns="http://www.w3.org/2000/svg" xmlns:xlink="http://www.w3.org/1999/xlink" width="593px" height="91px" viewBox="0 0 598 91" version="1.1">
<g id="surface1">
<path style=" stroke:none;fill-rule:nonzero;fill:rgb(100%,100%,100%);fill-opacity:1;" d="M 305.601562 31.347656 C 289.671875 31.347656 276.753906 44.277344 276.753906 60.226562 C 276.753906 76.175781 289.671875 89.109375 305.601562 89.109375 C 321.53125 89.109375 334.449219 76.175781 334.449219 60.226562 C 334.449219 44.277344 321.53125 31.347656 305.601562 31.347656 Z M 305.601562 75.699219 C 297.085938 75.699219 290.148438 68.753906 290.148438 60.226562 C 290.148438 51.703125 297.085938 44.757812 305.601562 44.757812 C 314.117188 44.757812 321.054688 51.703125 321.054688 60.226562 C 321.054688 68.753906 314.117188 75.699219 305.601562 75.699219 Z M 305.601562 75.699219 "/>
<path style=" stroke:none;fill-rule:nonzero;fill:rgb(100%,100%,100%);fill-opacity:1;" d="M 211.117188 31.347656 L 201.742188 31.347656 C 190.355469 31.347656 181.171875 40.589844 181.171875 51.941406 L 181.171875 89.058594 L 194.566406 89.058594 L 194.566406 45.621094 C 194.566406 45.140625 194.949219 44.757812 195.425781 44.757812 L 217.480469 44.757812 C 217.960938 44.757812 218.339844 45.140625 218.339844 45.621094 L 218.339844 89.109375 L 231.738281 89.109375 L 231.738281 51.988281 C 231.6875 40.589844 222.503906 31.347656 211.117188 31.347656 Z M 211.117188 31.347656 "/>
<path style=" stroke:none;fill-rule:nonzero;fill:rgb(100%,100%,100%);fill-opacity:1;" d="M 378.75 74.882812 C 378.75 75.363281 378.367188 75.746094 377.886719 75.746094 L 355.785156 75.746094 C 355.308594 75.746094 354.972656 75.363281 354.972656 74.882812 L 354.972656 31.394531 L 341.578125 31.394531 L 341.578125 68.511719 C 341.578125 79.914062 350.761719 89.109375 362.148438 89.109375 L 371.527344 89.109375 C 382.910156 89.109375 392.097656 79.914062 392.097656 68.511719 L 392.097656 31.347656 L 378.703125 31.347656 Z M 378.75 74.882812 "/>
<path style=" stroke:none;fill-rule:nonzero;fill:rgb(100%,100%,100%);fill-opacity:1;" d="M 253.21875 17.648438 L 239.820312 17.648438 L 239.820312 68.511719 C 239.820312 79.914062 249.007812 89.109375 260.394531 89.109375 L 273.5 89.109375 L 273.5 75.699219 L 254.03125 75.699219 C 253.550781 75.699219 253.21875 75.316406 253.21875 74.835938 L 253.21875 44.757812 L 273.5 44.757812 L 273.5 31.347656 L 253.21875 31.347656 Z M 253.21875 17.648438 "/>
<path style=" stroke:none;fill-rule:nonzero;fill:rgb(100%,100%,100%);fill-opacity:1;" d="M 159.164062 10.945312 L 172.558594 10.945312 L 172.558594 89.15625 L 159.164062 89.15625 Z M 159.164062 10.945312 "/>
<path style=" stroke:none;fill-rule:nonzero;fill:rgb(100%,100%,100%);fill-opacity:1;" d="M 493.851562 31.347656 L 477.300781 31.347656 L 477.300781 10.945312 L 463.90625 10.945312 L 463.90625 89.15625 L 477.300781 89.15625 L 477.300781 45.621094 C 477.300781 45.140625 477.683594 44.757812 478.113281 44.757812 L 500.214844 44.757812 C 500.695312 44.757812 501.074219 45.140625 501.074219 45.621094 L 501.074219 89.109375 L 514.472656 89.109375 L 514.472656 51.941406 C 514.421875 40.589844 505.191406 31.347656 493.851562 31.347656 Z M 493.851562 31.347656 "/>
<path style=" stroke:none;fill-rule:nonzero;fill:rgb(100%,100%,100%);fill-opacity:1;" d="M 428.167969 44.757812 C 435.390625 44.757812 441.417969 49.691406 443.140625 56.347656 L 456.726562 56.347656 C 454.816406 42.21875 442.757812 31.347656 428.167969 31.347656 C 412.238281 31.347656 399.320312 44.277344 399.320312 60.226562 C 399.320312 76.175781 412.238281 89.109375 428.167969 89.109375 C 442.808594 89.109375 454.863281 78.234375 456.726562 64.105469 L 443.140625 64.105469 C 441.417969 70.8125 435.34375 75.746094 428.167969 75.746094 C 419.652344 75.746094 412.714844 68.800781 412.714844 60.277344 C 412.714844 51.75 419.605469 44.757812 428.167969 44.757812 Z M 428.167969 44.757812 "/>
<path style=" stroke:none;fill-rule:nonzero;fill:rgb(100%,100%,100%);fill-opacity:1;" d="M 585.179688 10.945312 L 521.933594 10.945312 C 521.457031 10.945312 521.074219 11.328125 521.074219 11.804688 L 521.074219 49.785156 C 521.074219 50.265625 521.457031 50.601562 521.933594 50.601562 L 585.179688 50.601562 C 585.65625 50.601562 586.039062 50.21875 586.039062 49.785156 L 586.039062 11.757812 C 586.039062 11.277344 585.65625 10.945312 585.179688 10.945312 Z M 540.925781 43.894531 C 533.703125 43.894531 527.820312 38.003906 527.820312 30.773438 C 527.820312 23.539062 533.703125 17.648438 540.925781 17.648438 C 547.289062 17.648438 552.792969 22.296875 553.84375 28.519531 L 548.292969 28.519531 C 547.289062 25.265625 544.324219 23.0625 540.925781 23.0625 C 536.667969 23.0625 533.226562 26.507812 533.226562 30.773438 C 533.226562 35.035156 536.667969 38.484375 540.925781 38.484375 C 544.324219 38.484375 547.289062 36.230469 548.292969 33.023438 L 553.84375 33.023438 C 552.792969 39.25 547.289062 43.894531 540.925781 43.894531 Z M 579.34375 43.894531 L 572.550781 43.894531 L 566.472656 35.515625 L 560.398438 43.894531 L 553.605469 43.894531 L 563.078125 30.773438 L 553.605469 17.601562 L 560.398438 17.601562 L 566.519531 26.03125 L 572.644531 17.601562 L 579.4375 17.601562 L 569.964844 30.773438 Z M 579.34375 43.894531 "/>
<path style=" stroke:none;fill-rule:nonzero;fill:rgb(29.803922%,89.411765%,40.392157%);fill-opacity:1;" d="M 65.492188 58.121094 L 78.886719 58.121094 L 78.886719 89.109375 L 65.492188 89.109375 Z M 65.492188 58.121094 "/>
<path style=" stroke:none;fill-rule:nonzero;fill:rgb(29.803922%,89.411765%,40.392157%);fill-opacity:1;" d="M 11.960938 62.191406 L 11.960938 89.109375 L 25.355469 89.109375 L 25.355469 62.191406 C 25.355469 36.28125 46.308594 15.300781 72.191406 15.300781 C 98.070312 15.300781 119.027344 36.28125 119.027344 62.191406 L 119.027344 89.109375 L 132.421875 89.109375 L 132.421875 62.191406 C 132.421875 28.90625 105.4375 1.890625 72.191406 1.890625 C 38.941406 1.890625 11.960938 28.90625 11.960938 62.191406 Z M 11.960938 62.191406 "/>
<path style=" stroke:none;fill-rule:nonzero;fill:rgb(29.803922%,89.411765%,40.392157%);fill-opacity:1;" d="M 38.703125 51.988281 L 38.703125 89.15625 L 52.097656 89.15625 L 52.097656 45.621094 C 52.097656 45.140625 52.480469 44.757812 52.957031 44.757812 L 91.421875 44.757812 C 91.902344 44.757812 92.285156 45.140625 92.285156 45.621094 L 92.285156 89.109375 L 105.679688 89.109375 L 105.679688 51.941406 C 105.679688 40.542969 96.445312 31.347656 85.105469 31.347656 L 59.320312 31.347656 C 47.9375 31.347656 38.703125 40.589844 38.703125 51.988281 Z M 38.703125 51.988281 "/>
<path style=" stroke:none;fill-rule:nonzero;fill:rgb(100%,100%,100%);fill-opacity:1;" d="M 524.996094 78.285156 L 521.121094 78.285156 L 521.121094 76.65625 L 530.785156 76.65625 L 530.785156 78.285156 L 526.910156 78.285156 L 526.910156 89.109375 L 525.042969 89.109375 L 525.042969 78.285156 Z M 524.996094 78.285156 "/>
<path style=" stroke:none;fill-rule:nonzero;fill:rgb(100%,100%,100%);fill-opacity:1;" d="M 532.363281 76.65625 L 534.660156 76.65625 L 538.628906 86.570312 L 542.601562 76.65625 L 544.851562 76.65625 L 544.851562 89.109375 L 543.078125 89.109375 L 543.078125 79.816406 L 539.347656 89.109375 L 537.863281 89.109375 L 534.132812 79.816406 L 534.132812 89.109375 L 532.363281 89.109375 Z M 532.363281 76.65625 "/>
</g>
</svg>
