<svg width="139" height="136" viewBox="0 0 139 136" fill="none" xmlns="http://www.w3.org/2000/svg">
<path d="M109.479 16.5336C110.853 17.9018 112.437 19.0396 114.173 19.9035C114.723 20.1824 115.278 20.4359 115.839 20.6641L115.991 20.725C116.2 20.8087 116.405 20.8924 116.614 20.9684L117.071 21.1396L117.36 21.2423L117.984 21.4553L118.052 21.4781C119.041 21.8052 120.03 22.098 121.003 22.3833C124.582 23.4331 127.96 24.4219 130.668 27.13C133.376 29.838 134.365 33.2155 135.414 36.7945C135.703 37.7796 135.996 38.7761 136.331 39.7764C136.403 40.0008 136.483 40.2252 136.559 40.4496C136.59 40.5295 136.62 40.6093 136.647 40.6892L136.829 41.1875C136.901 41.3776 136.977 41.5678 137.05 41.7504C137.08 41.8188 137.107 41.8873 137.133 41.9596C137.362 42.5149 137.615 43.0664 137.894 43.614L137.894 43.6407C138.758 45.376 139.896 46.9609 141.264 48.3341C143.926 50.9965 146.938 52.3315 149.966 53.3242L149.966 51.7192C147.277 50.7949 144.641 49.555 142.336 47.2577C141.026 45.9341 139.946 44.402 139.138 42.7241C139.125 42.6954 139.111 42.6675 139.096 42.6404C138.179 40.6129 137.432 38.5125 136.863 36.3609C135.76 32.5879 134.714 29.0279 131.733 26.0422C128.751 23.0603 125.191 22.0144 121.418 20.9114C119.267 20.3446 117.168 19.5978 115.143 18.6787L115.055 18.6369C113.376 17.8292 111.844 16.7469 110.521 15.4344C107.292 12.2053 106.151 8.31059 105.048 4.54139C104.592 2.98199 104.143 1.46442 103.569 0.00390219L101.918 0.00390205C102.572 1.6175 103.13 3.26857 103.588 4.94836C104.778 8.94197 105.976 13.0307 109.479 16.5336Z" fill="#FFC844"/>
<path d="M28.9704 1.58969C31.6784 4.30153 32.6673 7.67518 33.717 11.2618C34.858 15.2136 36.0713 19.2985 39.5741 22.8052C43.077 26.312 47.1618 27.5063 51.121 28.6473C54.7 29.6971 58.0773 30.6859 60.7891 33.394C63.5008 36.102 64.4859 39.4795 65.5357 43.0661C66.6767 47.0179 67.8899 51.1028 71.3928 54.6057C72.7669 55.9738 74.3515 57.1128 76.0861 57.9794C76.6388 58.2558 77.1941 58.5093 77.752 58.7401L77.9155 58.8047L78.524 59.0405L78.9918 59.2117L79.2695 59.3144L79.9046 59.5312L79.9579 59.5502C80.9505 59.8773 81.9394 60.1702 82.9169 60.4554C86.4958 61.5052 89.8732 62.4941 92.5811 65.2021C95.2891 67.9101 96.278 71.2876 97.3277 74.8666C97.6129 75.8517 97.9096 76.852 98.2405 77.8523C98.3115 78.0755 98.3875 78.2999 98.4687 78.5255L98.5562 78.7651L98.7387 79.2672C98.811 79.4536 98.8832 79.6475 98.9593 79.8225C98.9859 79.8948 99.0126 79.9632 99.043 80.0355C99.2712 80.5908 99.5247 81.1423 99.8037 81.69L99.8037 81.7166C100.667 83.4511 101.804 85.0357 103.17 86.41C106.676 89.913 110.776 91.1111 114.716 92.2673C118.295 93.3171 121.677 94.306 124.385 97.014C127.093 99.7221 128.081 103.099 129.131 106.682C130.272 110.638 131.485 114.723 134.988 118.23C138.491 121.736 142.625 122.972 146.577 124.113C147.748 124.456 148.897 124.794 150 125.186L150 123.577C149.019 123.246 148.018 122.953 146.999 122.653C143.23 121.55 139.332 120.409 136.103 117.18C132.874 113.951 131.733 110.052 130.63 106.283C129.527 102.514 128.481 98.95 125.495 95.9681C122.51 92.9862 118.953 91.9402 115.18 90.8334C111.408 89.7266 107.513 88.5894 104.284 85.3603C102.973 84.0376 101.892 82.5053 101.085 80.8266C101.071 80.8007 101.058 80.7741 101.047 80.7467C100.127 78.7187 99.379 76.6169 98.811 74.4635C97.7042 70.6943 96.6621 67.1305 93.6803 64.1486C90.6985 61.1667 87.1347 60.1245 83.3656 59.0177C81.2174 58.4523 79.1207 57.7067 77.0977 56.7889L76.9989 56.7395C75.3218 55.9337 73.791 54.854 72.4691 53.5446C69.2401 50.3155 68.0991 46.4169 66.9923 42.6439C65.8856 38.8709 64.8472 35.3147 61.8616 32.329C58.876 29.3433 55.3161 28.305 51.547 27.1982C47.7779 26.0914 43.8795 24.9542 40.6505 21.7251C37.4214 18.4959 36.2804 14.5974 35.1775 10.8282C34.0745 7.05904 33.0286 3.49523 30.043 0.513333C29.8756 0.34345 29.7045 0.179891 29.5295 0.0226793L27.0688 0.0226791C27.7501 0.484616 28.3868 1.00924 28.9704 1.58969Z" fill="#FFC844"/>
<path d="M126.868 7.20776L126.891 7.20776C127.438 7.48541 127.998 7.74024 128.557 7.96845C128.602 7.99127 128.648 8.00649 128.697 8.02551C128.907 8.11299 129.12 8.19665 129.329 8.27652L129.777 8.44007L130.078 8.54658L130.69 8.75576L130.77 8.78239C131.759 9.11329 132.744 9.40235 133.718 9.68761C137.297 10.7374 140.674 11.7262 143.386 14.4343C146.098 17.1423 147.079 20.5198 148.129 24.1064C148.482 25.3083 148.844 26.533 149.27 27.7577L149.353 27.9973C149.414 28.1647 149.475 28.332 149.54 28.4994C149.604 28.6667 149.684 28.8797 149.76 29.0623L149.84 29.2677L149.992 29.6138L149.992 25.0497C149.855 24.5932 149.718 24.1368 149.585 23.6804C148.482 19.9074 147.436 16.3474 144.455 13.3617C141.469 10.3798 137.909 9.33388 134.136 8.23089C131.986 7.66583 129.888 6.91893 127.864 5.99827L127.769 5.95263C126.092 5.14512 124.562 4.06411 123.24 2.75393C122.412 1.9255 121.679 1.0084 121.053 0.0192636L119.269 0.0192634C120.058 1.41135 121.032 2.69068 122.163 3.8227C123.539 5.19726 125.127 6.34037 126.868 7.20776Z" fill="#FFC844"/>
<path d="M63.8162 15.9672C67.3951 17.017 70.7725 18.0059 73.4842 20.7139C76.196 23.4219 77.1811 26.7994 78.2308 30.3822C79.3718 34.334 80.5851 38.4227 84.0879 41.9256C85.4621 43.2937 87.0467 44.4327 88.7813 45.2993C89.3327 45.5807 89.888 45.8318 90.4509 46.06L90.5916 46.1132C90.8008 46.2007 91.01 46.2844 91.223 46.3643L91.6718 46.5278L91.9722 46.6343L92.5846 46.8473L92.6644 46.8739C93.6533 47.201 94.6384 47.4901 95.612 47.7753C99.191 48.8251 102.568 49.814 105.276 52.522C107.984 55.2301 108.973 58.6075 110.023 62.1903C110.377 63.396 110.738 64.6245 111.164 65.8492C111.194 65.9253 111.221 66.0052 111.251 66.0812L111.434 66.5871L111.651 67.1386L111.738 67.3554C111.966 67.9145 112.221 68.466 112.499 69.0175C112.498 69.0238 112.498 69.0302 112.499 69.0365C113.365 70.7712 114.504 72.3557 115.872 73.73C119.375 77.2329 123.479 78.431 127.415 79.5872C130.994 80.637 134.376 81.6259 137.084 84.3339C139.792 87.0419 140.78 90.4194 141.83 94.0022C142.971 97.9578 144.184 102.043 147.687 105.549C148.393 106.246 149.157 106.882 149.969 107.451L149.969 105.549C149.55 105.21 149.149 104.85 148.767 104.469C145.538 101.24 144.397 97.3417 143.294 93.5725C142.191 89.8033 141.145 86.2394 138.164 83.2537C135.182 80.268 131.618 79.2297 127.845 78.1229C124.072 77.0161 120.182 75.8789 116.949 72.6498C115.639 71.3261 114.558 69.794 113.75 68.1161C113.75 68.0895 113.723 68.059 113.708 68.0286C112.787 66.004 112.04 63.9045 111.476 61.7529C110.369 57.9837 109.327 54.4199 106.345 51.438C103.363 48.4561 99.7995 47.414 96.0304 46.3072C93.8801 45.7428 91.7819 44.9958 89.7587 44.0746L89.6636 44.0327C87.9875 43.2239 86.4568 42.143 85.1338 40.834C81.9048 37.6011 80.7638 33.7064 79.6608 29.9372C78.5579 26.168 77.512 22.6042 74.5301 19.6185C71.5483 16.6328 67.9846 15.5945 64.2117 14.4877C60.4388 13.3809 56.5442 12.2437 53.3152 9.01454C50.6262 6.32171 49.3825 3.16486 48.4051 0.00801724L46.8153 0.0080171C47.8688 3.49576 49.1657 7.01394 52.2388 10.0871C55.7759 13.6129 59.8607 14.811 63.8162 15.9672Z" fill="#FFC844"/>
<path d="M86.1796 8.01793C88.8876 10.726 89.8764 14.1034 90.9262 17.6863C92.0672 21.6418 93.2804 25.7267 96.7833 29.2297C98.1575 30.5977 99.742 31.7367 101.477 32.6033L101.496 32.6033C102.046 32.8822 102.602 33.1358 103.165 33.364L103.306 33.4172C103.515 33.5047 103.724 33.5884 103.937 33.6683L104.39 33.8318L104.683 33.9383L105.31 34.1513L105.371 34.1741C106.36 34.5012 107.353 34.7941 108.326 35.0793C111.905 36.1291 115.283 37.118 117.991 39.8222C120.699 42.5265 121.687 45.9077 122.737 49.4982C123.026 50.4794 123.319 51.4721 123.65 52.4725L123.878 53.1419C123.909 53.2217 123.939 53.3016 123.966 53.3815L124.148 53.8835C124.221 54.0699 124.297 54.2639 124.369 54.4464C124.399 54.5149 124.426 54.5833 124.453 54.6518C124.681 55.2071 124.932 55.7624 125.213 56.3063L125.213 56.3329C126.077 58.0683 127.215 59.6531 128.583 61.0264C132.086 64.5293 136.171 65.7274 140.126 66.8837C143.705 67.9334 147.086 68.9223 149.794 71.6303C149.859 71.695 149.916 71.7635 149.98 71.8281L149.98 69.7438C147.189 67.3743 143.956 66.4196 140.552 65.4231C136.783 64.3201 132.888 63.1791 129.655 59.95C128.346 58.6263 127.265 57.0942 126.457 55.4163L126.419 55.3364C125.499 53.3084 124.751 51.2066 124.182 49.0532C123.076 45.2802 122.034 41.7202 119.052 38.7345C116.07 35.7526 112.51 34.7066 108.737 33.6036C106.59 33.0388 104.495 32.2932 102.473 31.3748L102.37 31.3254C100.694 30.5188 99.1631 29.4391 97.8406 28.1305C94.6116 24.8976 93.4706 21.0028 92.3676 17.2298C91.2647 13.4568 90.2188 9.90062 87.2369 6.91493C84.2551 3.92923 80.6914 2.8909 76.9185 1.7841C75.1227 1.29421 73.3574 0.698564 71.6319 0.000290697L68.2812 0.000290404C70.9207 1.60914 73.7389 2.4383 76.4925 3.24463C80.0905 4.30579 83.4716 5.30989 86.1796 8.01793Z" fill="#FFC844"/>
<path d="M63.006 118.926L62.9642 118.846C62.0429 116.819 61.296 114.717 60.7316 112.563C59.6248 108.794 58.5827 105.23 55.5971 102.248C52.6153 99.2622 49.0516 98.2201 45.2787 97.1133C43.1286 96.5482 41.0305 95.8013 39.007 94.8807L38.9157 94.8389C37.2376 94.0332 35.7065 92.952 34.3859 91.6402C31.1569 88.411 30.0159 84.5125 28.9091 80.7433C27.8404 77.0844 26.8211 73.6271 24.0408 70.7023L24.0408 73.0718C25.779 75.468 26.5967 78.2521 27.4638 81.1731C28.6048 85.1249 29.8219 89.2098 33.3248 92.7165C34.7 94.0823 36.2844 95.2198 38.0181 96.0864L38.0409 96.0864C38.5924 96.364 39.1477 96.615 39.7068 96.8471L39.8779 96.9155L40.4751 97.1513L40.9505 97.3225L41.2205 97.4214L41.8595 97.6382L41.9089 97.6572C42.9015 97.9843 43.8942 98.2772 44.8717 98.5662C48.4468 99.6122 51.828 100.601 54.536 103.309C57.2439 106.017 58.2328 109.395 59.2825 112.981C59.5678 113.959 59.8606 114.951 60.1915 115.948L60.1915 115.975C60.2638 116.195 60.336 116.412 60.4159 116.629C60.4425 116.716 60.4767 116.8 60.5072 116.884C60.5642 117.047 60.6251 117.211 60.686 117.374C60.7468 117.538 60.8343 117.755 60.9103 117.945L60.9902 118.142C61.2184 118.698 61.4694 119.253 61.7509 119.801L61.7509 119.824C62.6182 121.556 63.7557 123.139 65.1206 124.513C65.6462 125.036 66.2038 125.525 66.7903 125.978L69.5059 125.978C68.2981 125.277 67.1859 124.423 66.197 123.437C64.8907 122.12 63.8124 120.596 63.006 118.926Z" fill="#FFC844"/>
<path d="M25.7258 54.0543C29.3047 55.1041 32.6859 56.093 35.3939 58.801C38.1019 61.5091 39.0945 64.8865 40.1404 68.4693C41.2814 72.4249 42.4985 76.5098 46.0013 80.0166C47.3766 81.3823 48.961 82.5199 50.6947 83.3864C51.2462 83.664 51.8014 83.9151 52.3605 84.1471L52.5013 84.2003C52.7142 84.2878 52.9234 84.3715 53.1364 84.4513L53.5852 84.6149L53.8819 84.7252L54.498 84.9344L54.5741 84.961C55.5629 85.2881 56.5518 85.581 57.5254 85.8662C61.1044 86.9122 64.4817 87.9011 67.1897 90.6091C69.8977 93.3171 70.8865 96.6946 71.9325 100.277C72.2215 101.259 72.5182 102.255 72.8491 103.256C72.9213 103.476 72.9974 103.697 73.0773 103.921C73.1039 104.001 73.1343 104.085 73.1647 104.168L73.3473 104.663C73.4195 104.853 73.4956 105.043 73.5717 105.229C73.5983 105.298 73.6211 105.363 73.6516 105.431C73.8798 105.986 74.1308 106.542 74.4122 107.089L74.4122 107.112C75.2787 108.846 76.4163 110.43 77.782 111.806C81.2887 115.309 85.3886 116.507 89.3289 117.663C92.9078 118.713 96.2852 119.705 98.997 122.413C100.026 123.456 100.884 124.655 101.538 125.966L103.234 125.966C102.467 124.245 101.395 122.676 100.069 121.337C97.0877 118.351 93.5278 117.309 89.7549 116.202C85.982 115.096 82.0873 113.958 78.8583 110.729C77.5605 109.417 76.4888 107.899 75.6863 106.237L75.6445 106.154C74.7238 104.128 73.977 102.027 73.412 99.8743C72.3052 96.1051 71.2631 92.5413 68.2775 89.5594C65.2957 86.5775 61.7319 85.5353 57.9628 84.4285C55.8121 83.8631 53.7129 83.1175 51.6873 82.1997L51.5961 82.1541C49.9188 81.3472 48.3878 80.2661 47.0663 78.9554C43.8373 75.7263 42.6962 71.8278 41.5895 68.0586C40.4827 64.2894 39.4444 60.7255 36.4588 57.7437C33.4732 54.7618 29.9133 53.7158 26.1442 52.609C25.4405 52.4036 24.7331 52.1983 24.0257 51.9739L24.0257 53.5675L25.7258 54.0543Z" fill="#FFC844"/>
<path d="M42.9022 114.944C39.9165 111.958 36.3566 110.916 32.5837 109.809C30.4342 109.244 28.3363 108.498 26.312 107.58L26.2207 107.535C25.4661 107.164 24.7379 106.742 24.0414 106.272L24.0414 108.082C24.4598 108.333 24.882 108.565 25.3079 108.782L25.3307 108.782C25.8822 109.06 26.4375 109.311 26.9966 109.543L27.1525 109.604L27.7687 109.847L28.2289 110.014L28.5141 110.117L29.1417 110.334L29.2064 110.353C30.1952 110.684 31.1841 110.977 32.1616 111.262C35.7367 112.308 39.1178 113.297 41.8258 116.005C44.5338 118.713 45.5226 122.09 46.5723 125.677L46.6636 125.989L48.2534 125.989C48.1812 125.742 48.1051 125.494 48.0328 125.247C46.9299 121.489 45.8878 117.926 42.9022 114.944Z" fill="#FFC844"/>
<path d="M24.037 125.471C24.4439 125.635 24.8433 125.81 25.235 126L28.2549 126C26.9466 125.101 25.5292 124.373 24.037 123.832L24.037 125.471Z" fill="#FFC844"/>
<path d="M26.8792 35.4937C30.3859 38.9966 34.4859 40.1947 38.4261 41.351C42.0012 42.4007 45.3824 43.3896 48.0941 46.0976C50.8059 48.8057 51.791 52.1831 52.8407 55.7659C53.9817 59.7215 55.195 63.8064 58.6978 67.3132C60.0731 68.6789 61.6575 69.8165 63.3912 70.683C63.9427 70.9645 64.498 71.2155 65.0608 71.4437L65.194 71.4969C65.4069 71.5857 65.6199 71.6694 65.8329 71.748L66.2817 71.9115L66.5822 72.018C66.7876 72.0941 66.9929 72.1626 67.1983 72.231L67.2706 72.2538C68.2594 72.5847 69.2483 72.8738 70.2219 73.1628C73.8009 74.2088 77.1782 75.1977 79.8862 77.9057C82.5942 80.6138 83.583 83.9912 84.6328 87.5779C84.9865 88.7836 85.3478 90.0082 85.7738 91.233L85.8536 91.4612C85.9145 91.6323 85.9753 91.8035 86.04 91.9746C86.1046 92.1458 86.1845 92.355 86.2606 92.5299C86.2872 92.5984 86.3138 92.6707 86.3443 92.7391C86.5725 93.297 86.826 93.851 87.1049 94.4012C87.9714 96.135 89.109 97.7193 90.4747 99.0946C93.9814 102.598 98.0813 103.796 102.022 104.952C105.601 106.002 108.982 106.991 111.69 109.699C114.398 112.407 115.386 115.784 116.436 119.371C117.03 121.627 117.816 123.829 118.787 125.951L120.502 125.951C119.289 123.691 118.6 121.291 117.897 118.941C116.79 115.172 115.748 111.608 112.762 108.626C109.777 105.644 106.22 104.598 102.448 103.491C98.6747 102.385 94.78 101.247 91.551 98.0183C90.2411 96.6946 89.1602 95.1625 88.3524 93.4846L88.3106 93.4009C87.3899 91.3748 86.643 89.2741 86.078 87.1214C84.9712 83.3522 83.9291 79.7884 80.9473 76.8065C77.9655 73.8246 74.4018 72.7825 70.6327 71.6757C68.4845 71.1103 66.3878 70.3647 64.3648 69.4469L64.2659 69.4013C62.5886 68.5944 61.0577 67.5133 59.7362 66.2026C56.5072 62.9735 55.3661 59.0749 54.2594 55.3057C53.1526 51.5365 52.1143 47.9727 49.1287 44.987C46.1431 42.0013 42.5832 40.963 38.8141 39.8562C35.045 38.7494 31.1465 37.6122 27.9175 34.3831C26.1981 32.6235 24.8639 30.5251 24.0001 28.2215L24.0001 31.7359C24.7868 33.112 25.7553 34.3759 26.8792 35.4937Z" fill="#FFC844"/>
<path d="M48 88H0V136H48V88Z" fill="#FFC844"/>
<path d="M21.443 98.6691C26.3625 98.6624 31.2345 99.6312 35.7772 101.519C40.32 103.408 44.4431 106.178 47.9084 109.67H48V96.0117C40.1351 90.7729 30.893 87.9847 21.443 88.0001H0V98.6691H21.443Z" fill="#766DFA"/>
<path d="M17.4633 112H0.00878906V122.669H22.5339C22.7122 122.669 22.8831 122.74 23.0091 122.866C23.1351 122.992 23.2058 123.163 23.2058 123.341V135.996H33.875V128.399C33.8744 126.244 33.4494 124.111 32.6243 122.121C31.7992 120.131 30.5901 118.322 29.0661 116.8C27.5421 115.277 25.733 114.069 23.7421 113.246C21.7513 112.422 19.6178 111.999 17.4633 112Z" fill="#FC805F"/>
</svg>
