<svg width="343" height="338" viewBox="0 0 343 338" fill="none" xmlns="http://www.w3.org/2000/svg">
<g opacity="0.33">
<path d="M250.995 37.1351C254.079 40.208 257.639 42.7637 261.536 44.7039C262.772 45.3303 264.02 45.8998 265.278 46.4124L265.62 46.549C266.09 46.737 266.551 46.9249 267.021 47.0958L268.046 47.4802L268.695 47.7109L270.096 48.1892L270.25 48.2405C272.471 48.9752 274.692 49.633 276.879 50.2737C284.918 52.6314 292.504 54.8525 298.586 60.9348C304.668 67.0172 306.889 74.603 309.247 82.6416C309.896 84.8541 310.554 87.0923 311.306 89.339C311.468 89.843 311.648 90.3471 311.818 90.8511C311.887 91.0305 311.955 91.2098 312.015 91.3892L312.425 92.5083C312.587 92.9354 312.758 93.3626 312.92 93.7726C312.989 93.9264 313.049 94.0802 313.108 94.2425C313.621 95.4897 314.19 96.7284 314.817 97.9585L314.817 98.0183C316.757 101.916 319.313 105.476 322.386 108.56C328.365 114.54 335.131 117.538 341.931 119.768L341.931 116.163C335.891 114.087 329.971 111.302 324.795 106.142C321.852 103.169 319.425 99.7282 317.61 95.9596C317.582 95.8952 317.551 95.8325 317.516 95.7716C315.456 91.2178 313.778 86.5002 312.502 81.6678C310.024 73.1935 307.675 65.1976 300.978 58.4916C294.28 51.7942 286.284 49.445 277.81 46.9676C272.979 45.6947 268.264 44.0173 263.715 41.9531L263.518 41.8591C259.747 40.0451 256.306 37.614 253.336 34.6663C246.083 27.4136 243.52 18.6659 241.043 10.2002C240.018 6.69774 239.01 3.28924 237.72 0.0088715L234.012 0.00887118C235.481 3.63306 236.734 7.34141 237.762 11.1143C240.436 20.084 243.127 29.2674 250.995 37.1351Z" fill="#FFC844"/>
<path d="M70.1668 3.57151C76.2491 9.66239 78.4702 17.2397 80.828 25.2954C83.3907 34.1711 86.1159 43.3459 93.9836 51.2222C101.851 59.0985 111.026 61.7809 119.919 64.3437C127.958 66.7014 135.543 68.9225 141.634 75.0049C147.725 81.0872 149.938 88.673 152.296 96.7287C154.858 105.604 157.583 114.779 165.451 122.647C168.538 125.72 172.097 128.278 175.993 130.224C177.234 130.845 178.481 131.415 179.734 131.933L180.102 132.078L181.468 132.608L182.519 132.992L183.143 133.223L184.569 133.71L184.689 133.752C186.919 134.487 189.14 135.145 191.335 135.786C199.374 138.143 206.96 140.364 213.042 146.447C219.124 152.529 221.345 160.115 223.703 168.154C224.344 170.366 225.01 172.613 225.753 174.859C225.913 175.361 226.084 175.865 226.266 176.372L226.462 176.91L226.872 178.037C227.035 178.456 227.197 178.892 227.368 179.285C227.428 179.447 227.488 179.601 227.556 179.763C228.068 181.01 228.638 182.249 229.264 183.479L229.264 183.539C231.204 187.434 233.757 190.994 236.825 194.08C244.701 201.948 253.91 204.639 262.76 207.236C270.799 209.594 278.393 211.815 284.475 217.897C290.558 223.98 292.779 231.565 295.137 239.613C297.699 248.497 300.424 257.672 308.292 265.548C316.16 273.424 325.446 276.201 334.322 278.763C336.953 279.532 339.532 280.292 342.01 281.172L342.01 277.559C339.806 276.816 337.559 276.158 335.27 275.483C326.804 273.006 318.048 270.443 310.795 263.19C303.542 255.937 300.98 247.181 298.502 238.716C296.025 230.25 293.676 222.245 286.97 215.548C280.264 208.851 272.276 206.501 263.802 204.015C255.328 201.53 246.58 198.975 239.328 191.723C236.383 188.752 233.955 185.31 232.143 181.54C232.111 181.482 232.083 181.422 232.058 181.36C229.991 176.805 228.311 172.085 227.035 167.248C224.549 158.782 222.208 150.778 215.511 144.08C208.813 137.383 200.809 135.042 192.343 132.556C187.518 131.286 182.809 129.612 178.265 127.55L178.043 127.439C174.276 125.63 170.838 123.205 167.869 120.264C160.616 113.011 158.053 104.255 155.567 95.7805C153.081 87.3062 150.749 79.3189 144.043 72.6129C137.337 65.907 129.341 63.5748 120.876 61.0889C112.41 58.603 103.654 56.0488 96.4011 48.7961C89.1484 41.5434 86.5857 32.7873 84.1083 24.3215C81.6309 15.8558 79.2817 7.85139 72.5758 1.15397C72.1999 0.772407 71.8155 0.405036 71.4225 0.0519478L65.8955 0.0519473C67.4258 1.08948 68.8558 2.2678 70.1668 3.57151Z" fill="#FFC844"/>
<path d="M290.051 16.1882L290.103 16.1882C291.333 16.8118 292.589 17.3841 293.844 17.8967C293.947 17.9479 294.049 17.9821 294.16 18.0248C294.63 18.2213 295.109 18.4092 295.579 18.5886L296.587 18.956L297.261 19.1952L298.637 19.665L298.816 19.7248C301.037 20.468 303.25 21.1173 305.437 21.758C313.475 24.1157 321.061 26.3368 327.152 32.4191C333.243 38.5015 335.447 46.0873 337.805 54.143C338.599 56.8425 339.411 59.5932 340.367 62.3439L340.555 62.8821C340.692 63.258 340.829 63.6338 340.974 64.0097C341.119 64.3856 341.299 64.864 341.469 65.2741L341.649 65.7353L341.991 66.5127L341.991 56.2616C341.683 55.2364 341.376 54.2113 341.077 53.1862C338.599 44.712 336.25 36.7161 329.553 30.0101C322.847 23.3127 314.851 20.9635 306.376 18.4861C301.547 17.217 296.835 15.5394 292.29 13.4716L292.076 13.3691C288.309 11.5554 284.871 9.12743 281.902 6.18473C280.044 4.32404 278.397 2.26422 276.99 0.0425892L272.983 0.0425889C274.757 3.16926 276.943 6.04266 279.484 8.58521C282.574 11.6725 286.142 14.24 290.051 16.1882Z" fill="#FFC844"/>
<path d="M148.428 35.8618C156.467 38.2196 164.053 40.4407 170.143 46.523C176.234 52.6054 178.447 60.1912 180.805 68.2384C183.367 77.1141 186.093 86.2974 193.96 94.1652C197.047 97.2378 200.606 99.7961 204.502 101.743C205.741 102.375 206.988 102.938 208.252 103.451L208.568 103.571C209.038 103.767 209.508 103.955 209.986 104.134L210.994 104.502L211.669 104.741L213.045 105.219L213.224 105.279C215.445 106.014 217.658 106.663 219.844 107.304C227.883 109.661 235.469 111.883 241.551 117.965C247.634 124.047 249.855 131.633 252.212 139.68C253.007 142.388 253.818 145.148 254.775 147.898C254.844 148.069 254.903 148.248 254.972 148.419L255.382 149.556L255.869 150.794L256.065 151.281C256.578 152.537 257.15 153.776 257.774 155.014C257.772 155.028 257.772 155.043 257.774 155.057C259.72 158.953 262.278 162.512 265.351 165.599C273.219 173.466 282.436 176.157 291.278 178.754C299.316 181.112 306.911 183.333 312.993 189.415C319.076 195.498 321.297 203.084 323.654 211.131C326.217 220.015 328.942 229.19 336.81 237.066C338.396 238.631 340.11 240.06 341.936 241.337L341.936 237.066C340.995 236.304 340.094 235.494 339.236 234.64C331.983 227.387 329.421 218.631 326.943 210.165C324.466 201.7 322.117 193.695 315.419 186.989C308.722 180.283 300.717 177.951 292.243 175.465C283.769 172.979 275.03 170.425 267.768 163.172C264.826 160.199 262.399 156.758 260.584 152.99C260.584 152.93 260.524 152.862 260.49 152.793C258.421 148.246 256.743 143.53 255.476 138.698C252.99 130.232 250.649 122.228 243.952 115.53C237.254 108.833 229.25 106.492 220.784 104.006C215.954 102.739 211.242 101.061 206.697 98.9918L206.484 98.8978C202.719 97.0811 199.281 94.6535 196.309 91.7135C189.057 84.4522 186.494 75.7046 184.017 67.2389C181.539 58.7732 179.19 50.7687 172.493 44.0628C165.795 37.3568 157.791 35.0247 149.317 32.5388C140.842 30.0529 132.095 27.4986 124.842 20.246C118.802 14.1978 116.009 7.1074 113.813 0.0170394L110.243 0.0170391C112.609 7.85061 115.522 15.7525 122.424 22.655C130.369 30.574 139.544 33.2649 148.428 35.8618Z" fill="#FFC844"/>
<path d="M198.661 18.0079C204.744 24.0902 206.965 31.6761 209.323 39.7232C211.885 48.6075 214.61 57.7823 222.478 65.6501C225.565 68.7227 229.124 71.2809 233.02 73.2274L233.063 73.2274C234.298 73.8538 235.548 74.4233 236.813 74.9359L237.129 75.0555C237.599 75.2519 238.069 75.4399 238.547 75.6193L239.563 75.9866L240.221 76.2258L241.631 76.7042L241.767 76.7555C243.989 77.4901 246.218 78.1479 248.405 78.7886C256.444 81.1463 264.029 83.3675 270.112 89.4413C276.194 95.5151 278.415 103.109 280.773 111.174C281.422 113.378 282.08 115.607 282.823 117.854L283.336 119.358C283.404 119.537 283.472 119.716 283.532 119.896L283.942 121.023C284.105 121.442 284.275 121.878 284.438 122.288C284.506 122.441 284.566 122.595 284.626 122.749C285.138 123.996 285.702 125.243 286.334 126.465L286.334 126.525C288.274 130.422 290.83 133.982 293.903 137.066C301.771 144.934 310.946 147.625 319.83 150.222C327.869 152.58 335.463 154.801 341.545 160.883C341.69 161.028 341.819 161.182 341.964 161.327L341.964 156.646C335.693 151.324 328.432 149.18 320.787 146.942C312.321 144.464 303.573 141.901 296.312 134.649C293.37 131.676 290.942 128.235 289.128 124.466L289.042 124.287C286.975 119.732 285.295 115.011 284.019 110.174C281.533 101.7 279.193 93.704 272.495 86.9981C265.798 80.3007 257.802 77.9515 249.328 75.4741C244.505 74.2054 239.798 72.5307 235.258 70.4681L235.027 70.357C231.262 68.5455 227.823 66.1205 224.853 63.1813C217.6 55.92 215.038 47.1724 212.56 38.6981C210.083 30.2238 207.734 22.2365 201.036 15.5305C194.339 8.82457 186.334 6.49243 177.86 4.00653C173.827 2.90622 169.862 1.56839 165.986 4.56507e-05L158.46 4.49927e-05C164.388 3.61357 170.719 5.47589 176.903 7.28693C184.985 9.67032 192.579 11.9256 198.661 18.0079Z" fill="#FFC844"/>
<path d="M146.612 267.11L146.518 266.931C144.449 262.378 142.771 257.656 141.504 252.818C139.018 244.353 136.677 236.348 129.971 229.651C123.274 222.945 115.269 220.604 106.795 218.118C101.966 216.849 97.2531 215.172 92.7082 213.104L92.5031 213.01C88.7341 211.2 85.2951 208.772 82.3289 205.825C75.0762 198.573 72.5134 189.817 70.0275 181.351C67.627 173.133 65.3376 165.368 59.0929 158.798L59.0929 164.12C62.9969 169.502 64.8336 175.755 66.7813 182.316C69.3441 191.192 72.0777 200.367 79.9455 208.243C83.0344 211.311 86.593 213.866 90.487 215.812L90.5383 215.812C91.777 216.435 93.0242 216.999 94.28 217.52L94.6644 217.674L96.0056 218.204L97.0735 218.588L97.6799 218.81L99.1151 219.297L99.2261 219.34C101.456 220.075 103.685 220.732 105.881 221.382C113.911 223.731 121.505 225.952 127.588 232.034C133.67 238.117 135.891 245.702 138.249 253.758C138.89 255.954 139.547 258.183 140.291 260.421L140.291 260.481C140.453 260.977 140.615 261.464 140.794 261.951C140.854 262.147 140.931 262.335 141 262.523C141.128 262.89 141.264 263.258 141.401 263.625C141.538 263.992 141.734 264.479 141.905 264.906L142.084 265.35C142.597 266.598 143.161 267.845 143.793 269.075L143.793 269.126C145.741 273.017 148.296 276.572 151.362 279.659C152.542 280.832 153.795 281.931 155.112 282.948L161.211 282.948C158.499 281.374 156.001 279.456 153.779 277.242C150.845 274.285 148.423 270.861 146.612 267.11Z" fill="#FFC844"/>
<path d="M62.8739 121.409C70.9126 123.767 78.507 125.988 84.5893 132.07C90.6716 138.152 92.9013 145.738 95.2505 153.785C97.8133 162.67 100.547 171.844 108.415 179.721C111.504 182.788 115.062 185.343 118.956 187.289C120.195 187.913 121.442 188.477 122.698 188.998L123.014 189.118C123.492 189.314 123.962 189.502 124.441 189.681L125.449 190.049L126.115 190.296L127.499 190.766L127.67 190.826C129.891 191.561 132.112 192.219 134.299 192.859C142.337 195.208 149.923 197.43 156.006 203.512C162.088 209.594 164.309 217.18 166.658 225.227C167.307 227.431 167.974 229.669 168.717 231.916C168.879 232.412 169.05 232.907 169.229 233.411C169.289 233.59 169.358 233.778 169.426 233.966L169.836 235.077C169.998 235.504 170.169 235.931 170.34 236.35C170.4 236.503 170.451 236.649 170.519 236.802C171.032 238.05 171.596 239.297 172.228 240.527L172.228 240.578C174.174 244.472 176.729 248.031 179.797 251.12C187.673 258.988 196.882 261.679 205.732 264.276C213.771 266.633 221.357 268.863 227.447 274.945C229.759 277.287 231.685 279.98 233.154 282.924L236.964 282.924C235.241 279.058 232.833 275.536 229.856 272.528C223.159 265.822 215.163 263.481 206.689 260.995C198.215 258.509 189.467 255.955 182.214 248.702C179.299 245.755 176.892 242.346 175.09 238.614L174.996 238.426C172.928 233.875 171.25 229.157 169.981 224.322C167.495 215.856 165.155 207.852 158.449 201.154C151.751 194.457 143.747 192.116 135.281 189.63C130.451 188.36 125.735 186.686 121.186 184.624L120.981 184.522C117.213 182.709 113.775 180.281 110.807 177.337C103.554 170.085 100.991 161.328 98.5052 152.863C96.0193 144.397 93.6871 136.393 86.9812 129.695C80.2752 122.998 72.2793 120.649 63.8136 118.163C62.2332 117.701 60.6443 117.24 59.0554 116.736L59.0554 120.315L62.8739 121.409Z" fill="#FFC844"/>
<path d="M101.455 258.167C94.7488 251.461 86.7529 249.12 78.2787 246.634C73.4508 245.364 68.7385 243.69 64.1919 241.628L63.9868 241.526C62.2918 240.694 60.6563 239.747 59.0919 238.69L59.0919 242.756C60.0316 243.32 60.9799 243.841 61.9366 244.328L61.9878 244.328C63.2265 244.951 64.4737 245.515 65.7295 246.036L66.0798 246.173L67.4637 246.72L68.4973 247.096L69.138 247.326L70.5475 247.813L70.6928 247.856C72.9139 248.599 75.135 249.257 77.3304 249.898C85.3605 252.247 92.9548 254.468 99.0372 260.55C105.119 266.633 107.341 274.218 109.698 282.274L109.903 282.975L113.474 282.975C113.312 282.419 113.141 281.864 112.979 281.309C110.501 272.869 108.161 264.864 101.455 258.167Z" fill="#FFC844"/>
<path d="M59.082 281.812C59.9961 282.179 60.8931 282.572 61.7729 283L68.5558 283C65.6174 280.981 62.4338 279.345 59.082 278.13L59.082 281.812Z" fill="#FFC844"/>
<path d="M65.4668 79.7196C73.3431 87.5874 82.552 90.2783 91.4022 92.8753C99.4323 95.233 107.027 97.4541 113.117 103.536C119.208 109.619 121.421 117.205 123.779 125.252C126.342 134.136 129.067 143.311 136.934 151.187C140.023 154.255 143.582 156.81 147.476 158.756C148.715 159.388 149.962 159.952 151.226 160.464L151.525 160.584C152.004 160.783 152.482 160.971 152.96 161.148L153.968 161.515L154.643 161.754C155.105 161.925 155.566 162.079 156.027 162.233L156.189 162.284C158.41 163.027 160.632 163.676 162.818 164.326C170.857 166.675 178.443 168.896 184.525 174.978C190.608 181.061 192.829 188.647 195.186 196.702C195.981 199.41 196.792 202.161 197.749 204.912L197.929 205.424C198.065 205.809 198.202 206.193 198.347 206.577C198.492 206.962 198.672 207.432 198.843 207.825C198.903 207.979 198.962 208.141 199.031 208.295C199.543 209.547 200.113 210.792 200.739 212.028C202.685 215.922 205.24 219.48 208.308 222.569C216.184 230.437 225.393 233.128 234.243 235.725C242.282 238.083 249.876 240.304 255.959 246.386C262.041 252.468 264.262 260.054 266.62 268.11C267.954 273.178 269.72 278.122 271.899 282.889L275.752 282.889C273.027 277.814 271.481 272.424 269.9 267.145C267.414 258.679 265.074 250.675 258.368 243.977C251.662 237.28 243.674 234.93 235.2 232.445C226.726 229.959 217.978 227.404 210.725 220.152C207.783 217.179 205.356 213.738 203.541 209.969L203.447 209.781C201.379 205.23 199.702 200.512 198.433 195.677C195.947 187.211 193.606 179.207 186.909 172.51C180.211 165.812 172.207 163.471 163.741 160.986C158.916 159.716 154.207 158.041 149.663 155.98L149.441 155.877C145.673 154.065 142.235 151.637 139.267 148.693C132.014 141.44 129.451 132.684 126.965 124.218C124.479 115.752 122.147 107.748 115.441 101.042C108.735 94.3361 100.739 92.0039 92.2736 89.518C83.8078 87.0321 75.0516 84.4779 67.799 77.2252C63.9369 73.2732 60.9403 68.5601 59 63.3862L59 71.2795C60.7672 74.3703 62.9424 77.2091 65.4668 79.7196Z" fill="#FFC844"/>
</g>
<path d="M109.912 228H0V337.912H109.912V228Z" fill="#FFC844"/>
<path d="M49.1062 252.425C60.3708 252.411 71.5265 254.63 81.928 258.954C92.3295 263.279 101.77 269.623 109.704 277.619H109.912V246.343C91.901 234.358 70.7403 227.983 49.1062 228.025H0V252.449L49.1062 252.425Z" fill="#766DFA"/>
<path d="M39.9896 282.956H0V307.381H51.5853C51.9934 307.381 52.3849 307.543 52.6734 307.832C52.962 308.12 53.1241 308.512 53.1241 308.92V337.912H77.549V320.515C77.549 315.583 76.5775 310.699 74.69 306.142C72.8024 301.585 70.0358 297.445 66.5481 293.957C63.0604 290.469 58.9198 287.703 54.3629 285.815C49.806 283.928 44.922 282.956 39.9896 282.956Z" fill="#FC805F"/>
</svg>
