<svg width="258" height="205" viewBox="0 0 258 205" fill="none" xmlns="http://www.w3.org/2000/svg">
<g opacity="0.87">
<path d="M257.989 149.448L257.071 149.176C255.039 148.58 253.122 148.019 251.582 146.481C250.043 144.944 249.483 143.027 248.887 140.991C248.24 138.748 247.551 136.429 245.562 134.441C243.573 132.452 241.243 131.772 239.006 131.114C236.974 130.518 235.054 129.956 233.517 128.419C231.979 126.882 231.418 124.965 230.822 122.931C230.174 120.688 229.485 118.367 227.496 116.379C225.508 114.39 223.178 113.71 220.943 113.052C218.911 112.458 216.991 111.894 215.453 110.357C213.916 108.82 213.352 106.903 212.756 104.869C212.109 102.626 211.42 100.305 209.431 98.3164C207.442 96.328 205.112 95.6479 202.877 94.9894C200.845 94.3957 198.925 93.8322 197.388 92.295C195.85 90.7578 195.287 88.8406 194.693 86.8068C194.045 84.5636 193.354 82.2427 191.365 80.2543C190.586 79.4777 189.686 78.8318 188.701 78.3414H188.688C188.374 78.1831 188.059 78.0392 187.742 77.9096L187.658 77.8772C187.539 77.8276 187.42 77.7822 187.301 77.7369L187.047 77.6419L186.878 77.5815L186.524 77.4606L186.487 77.4476C185.926 77.2619 185.364 77.0957 184.809 76.9338C182.78 76.3379 180.86 75.7765 179.322 74.2393C177.785 72.7021 177.224 70.785 176.63 68.7533C176.466 68.1963 176.299 67.6307 176.109 67.0628C176.068 66.9376 176.025 66.8124 175.98 66.6893C175.965 66.6397 175.945 66.5922 175.928 66.5425C175.896 66.4519 175.861 66.359 175.826 66.2662C175.792 66.1733 175.742 66.0503 175.697 65.938C175.684 65.9013 175.669 65.8668 175.656 65.8301C175.524 65.5127 175.382 65.1996 175.224 64.8866V64.8736C174.732 63.8898 174.087 62.9911 173.311 62.2116C171.32 60.221 168.992 59.5431 166.755 58.8846C164.723 58.2887 162.805 57.7274 161.268 56.1902C159.73 54.653 159.167 52.7358 158.571 50.702C157.923 48.4588 157.234 46.1379 155.245 44.1494C153.256 42.161 150.926 41.4809 148.691 40.8224C146.659 40.2287 144.74 39.6652 143.202 38.128C141.665 36.5908 141.101 34.6736 140.507 32.6398C139.849 30.3967 139.169 28.0757 137.18 26.0873C135.191 24.0989 132.861 23.4188 130.626 22.7603C128.594 22.1666 126.674 21.6031 125.137 20.0659C123.599 18.5287 123.036 16.6115 122.442 14.5777C121.783 12.3345 121.105 10.0136 119.114 8.02516C117.123 6.03673 114.795 5.35665 112.56 4.69816C110.528 4.10443 108.609 3.54309 107.071 2.00373L107.009 1.93896V3.11346C108.583 4.4326 110.403 4.96803 112.319 5.52721C114.459 6.15548 116.67 6.80317 118.503 8.63616C120.336 10.4691 120.986 12.6821 121.613 14.8217C122.239 16.9612 122.831 18.9842 124.526 20.6769C126.221 22.3695 128.242 22.9632 130.382 23.5894C132.522 24.2155 134.735 24.8653 136.569 26.6983C138.402 28.5313 139.05 30.7421 139.678 32.8838C140.307 35.0255 140.896 37.0442 142.591 38.739C144.286 40.4338 146.307 41.0254 148.447 41.6515C150.587 42.2776 152.801 42.9275 154.634 44.7604C156.467 46.5934 157.115 48.8064 157.744 50.9459C158.372 53.0855 158.962 55.1085 160.657 56.8012C162.352 58.4938 164.371 59.0875 166.513 59.7136C168.655 60.3397 170.866 60.9874 172.7 62.8226C173.444 63.5722 174.058 64.4414 174.516 65.3939L174.539 65.4414C175.062 66.5916 175.486 67.784 175.807 69.0059C176.435 71.1477 177.027 73.1685 178.722 74.8633C180.415 76.5581 182.438 77.1497 184.578 77.7758C185.798 78.0977 186.988 78.5209 188.137 79.0409L188.193 79.069C189.146 79.5263 190.015 80.1401 190.765 80.8847C192.598 82.7177 193.246 84.9307 193.875 87.0702C194.503 89.2098 195.092 91.2328 196.788 92.9254C198.483 94.6181 200.504 95.2118 202.644 95.8379C204.784 96.464 206.997 97.1117 208.831 98.9469C210.664 100.782 211.312 102.991 211.94 105.13C212.569 107.27 213.158 109.293 214.853 110.988C216.548 112.682 218.569 113.274 220.709 113.9C222.849 114.526 225.063 115.176 226.896 117.009C228.729 118.842 229.377 121.053 230.003 123.195C230.63 125.336 231.224 127.355 232.919 129.05C234.614 130.745 236.633 131.334 238.775 131.962C240.917 132.59 243.128 133.236 244.962 135.069C246.795 136.902 247.443 139.115 248.069 141.255C248.695 143.394 249.289 145.417 250.984 147.112C252.679 148.807 254.698 149.396 256.843 150.024C257.225 150.137 257.613 150.24 258 150.372L257.989 149.448Z" fill="#FFC844"/>
<path d="M117.605 150.974C117.287 150.769 116.958 150.581 116.62 150.411H116.607C116.296 150.253 115.979 150.109 115.661 149.979L115.579 149.944L115.223 149.804L114.966 149.711L114.798 149.651L114.448 149.53L114.405 149.517C113.843 149.331 113.284 149.165 112.731 149.003C110.699 148.407 108.781 147.846 107.244 146.311C107.16 146.224 107.078 146.14 107 146.052V147.265C108.615 148.699 110.503 149.251 112.491 149.834C113.62 150.137 114.726 150.521 115.8 150.983L117.605 150.974Z" fill="#FFC844"/>
<path d="M238.354 141.647C236.363 139.657 234.035 138.977 231.798 138.32C229.766 137.724 227.846 137.163 226.309 135.626C224.771 134.089 224.21 132.171 223.614 130.138C222.966 127.895 222.277 125.574 220.288 123.585C218.299 121.597 215.969 120.917 213.734 120.258C211.702 119.664 209.783 119.101 208.245 117.564C206.708 116.027 206.144 114.109 205.548 112.076C204.9 109.832 204.211 107.511 202.223 105.523C200.234 103.535 197.904 102.855 195.669 102.196C193.637 101.602 191.717 101.039 190.18 99.5016C188.642 97.9644 188.079 96.0472 187.485 94.0134C186.826 91.7702 186.146 89.4493 184.157 87.4609C183.377 86.6843 182.478 86.0384 181.492 85.548H181.482C181.169 85.3897 180.854 85.2458 180.536 85.1162L180.447 85.0817L180.097 84.9435L179.834 84.8463L179.674 84.788L179.318 84.6671H179.281C178.72 84.4793 178.158 84.3131 177.603 84.1512C175.574 83.5574 173.654 82.9939 172.116 81.4589C170.579 79.9238 170.017 78.0045 169.421 75.9686C169.221 75.2842 169.015 74.5868 168.774 73.8895C168.761 73.8484 168.746 73.8096 168.73 73.7686C168.694 73.6692 168.659 73.5699 168.62 73.4706C168.581 73.3713 168.543 73.2677 168.501 73.1662L168.45 73.0366C168.32 72.7193 168.175 72.4062 168.018 72.0953V72.0824C167.526 71.0979 166.88 70.1985 166.105 69.4182C164.114 67.4276 161.786 66.7497 159.549 66.0912C157.517 65.4974 155.599 64.934 154.059 63.3967C152.52 61.8595 151.961 59.9423 151.365 57.9086C150.717 55.6654 150.028 53.3445 148.039 51.356C146.05 49.3676 143.72 48.6875 141.485 48.029C139.453 47.4353 137.534 46.8718 135.996 45.3346C134.459 43.7974 133.895 41.8802 133.299 39.8464C132.651 37.6032 131.962 35.2823 129.974 33.2939C127.985 31.3055 125.655 30.6254 123.42 29.9669C121.388 29.3732 119.468 28.8118 117.931 27.2725C116.393 25.7331 115.83 23.8181 115.236 21.7843C114.577 19.5411 113.897 17.2202 111.908 15.2318C110.397 13.7205 108.714 12.9756 107.011 12.4121V13.3254C108.522 13.8478 110.004 14.5495 111.297 15.8428C113.13 17.6757 113.778 19.8887 114.407 22.0283C115.035 24.1678 115.624 26.1908 117.32 27.8835C119.015 29.5761 121.036 30.1698 123.176 30.7959C125.316 31.4221 127.529 32.0719 129.362 33.9049C131.196 35.7379 131.844 37.9508 132.472 40.0904C133.1 42.23 133.69 44.2529 135.385 45.9456C137.08 47.6383 139.101 48.232 141.241 48.8581C143.381 49.4842 145.595 50.1341 147.428 51.967C149.261 53.8 149.909 56.013 150.535 58.1525C151.162 60.2921 151.755 62.3151 153.451 64.0077C155.146 65.7004 157.165 66.2941 159.307 66.9202C161.449 67.5463 163.66 68.1962 165.493 70.0292C166.238 70.7788 166.852 71.648 167.31 72.6005L167.333 72.6502C167.856 73.8002 168.28 74.9927 168.601 76.2147C169.229 78.3543 169.821 80.3751 171.516 82.0699C173.209 83.7647 175.232 84.3563 177.372 84.9824C178.593 85.3047 179.784 85.7286 180.933 86.2497L180.987 86.2756C181.94 86.7329 182.809 87.3467 183.559 88.0913C185.392 89.9243 186.04 92.1373 186.669 94.2768C187.297 96.4164 187.886 98.4394 189.582 100.132C191.277 101.825 193.298 102.418 195.438 103.045C197.578 103.671 199.791 104.32 201.624 106.153C203.458 107.986 204.106 110.199 204.734 112.337C205.362 114.474 205.952 116.499 207.647 118.194C209.342 119.889 211.363 120.481 213.503 121.107C215.643 121.733 217.857 122.383 219.69 124.216C221.523 126.049 222.171 128.259 222.797 130.401C223.424 132.543 224.017 134.564 225.713 136.256C227.408 137.949 229.427 138.543 231.569 139.169C233.711 139.795 235.922 140.443 237.755 142.278C239.589 144.113 240.237 146.322 240.863 148.461C241.118 149.325 241.368 150.188 241.686 150.994H242.621C242.258 150.087 241.949 149.16 241.692 148.217C241.023 145.948 240.342 143.636 238.354 141.647Z" fill="#FFC844"/>
<path d="M209.197 144.551C208.55 142.307 207.861 139.987 205.872 137.998C203.883 136.01 201.553 135.33 199.316 134.671C197.286 134.077 195.366 133.516 193.827 131.977C192.287 130.437 191.728 128.522 191.132 126.488C190.484 124.245 189.795 121.924 187.806 119.936C185.818 117.948 183.488 117.267 181.25 116.611C179.218 116.015 177.301 115.454 175.761 113.915C174.222 112.375 173.662 110.46 173.066 108.426C172.419 106.183 171.73 103.864 169.741 101.874C168.957 101.098 168.055 100.452 167.068 99.9609H167.057C166.744 99.8033 166.428 99.6608 166.111 99.5291L166.025 99.4967C165.908 99.4471 165.789 99.4018 165.67 99.3564L165.414 99.2614L165.247 99.201L164.893 99.0801H164.856C164.295 98.8922 163.733 98.726 163.179 98.5641C161.147 97.9704 159.229 97.4068 157.692 95.8718C156.154 94.3368 155.593 92.4174 154.997 90.3836C154.796 89.6992 154.591 89.0019 154.349 88.3067L154.303 88.175C154.269 88.08 154.234 87.9828 154.198 87.8857L154.075 87.5726C154.057 87.5338 154.042 87.4906 154.025 87.4496C153.895 87.1344 153.751 86.8191 153.593 86.5083V86.4953C153.101 85.5112 152.455 84.6118 151.68 83.8311C149.689 81.8405 147.361 81.1626 145.124 80.5041C143.092 79.9104 141.172 79.3469 139.635 77.8097C138.097 76.2725 137.536 74.3553 136.94 72.3215C136.292 70.0783 135.603 67.7596 133.614 65.769C131.625 63.7784 129.295 63.1004 127.06 62.4441C125.028 61.8482 123.109 61.2869 121.569 59.7475C120.03 58.2082 119.47 56.2931 118.874 54.2594C118.226 52.0162 117.538 49.6974 115.549 47.7068C113.56 45.7162 111.23 45.0383 108.993 44.382C108.313 44.1812 107.648 43.9847 107.002 43.7559V44.6713C107.572 44.8634 108.157 45.0362 108.751 45.2089C110.891 45.8371 113.104 46.4848 114.938 48.3178C116.771 50.1508 117.419 52.3638 118.045 54.5033C118.671 56.6429 119.265 58.6659 120.96 60.3585C122.655 62.0512 124.677 62.6449 126.816 63.271C128.956 63.8971 131.17 64.547 133.003 66.38C134.836 68.2129 135.484 70.4259 136.11 72.5655C136.737 74.705 137.331 76.728 139.026 78.4207C140.721 80.1133 142.74 80.707 144.882 81.3331C147.024 81.9592 149.233 82.6091 151.069 84.4421C151.813 85.1931 152.427 86.0628 152.885 87.0156C152.893 87.0303 152.9 87.0454 152.906 87.061C153.429 88.212 153.854 89.4051 154.176 90.6276C154.804 92.7672 155.396 94.7902 157.089 96.4828C158.782 98.1776 160.805 98.7692 162.945 99.3953C164.165 99.718 165.355 100.142 166.504 100.663L166.56 100.689C167.512 101.147 168.382 101.76 169.132 102.504C170.965 104.337 171.613 106.55 172.241 108.69C172.87 110.829 173.459 112.852 175.155 114.545C176.85 116.238 178.871 116.831 181.011 117.457C183.151 118.084 185.364 118.733 187.197 120.566C189.031 122.399 189.679 124.612 190.305 126.752C190.931 128.891 191.525 130.914 193.22 132.607C194.915 134.3 196.936 134.893 199.076 135.52C201.216 136.146 203.43 136.796 205.263 138.629C207.096 140.461 207.744 142.674 208.37 144.814C208.997 146.954 209.59 148.977 211.283 150.669C211.399 150.781 211.513 150.889 211.627 150.993H213.041C212.629 150.72 212.245 150.407 211.894 150.058C210.355 148.502 209.793 146.582 209.197 144.551Z" fill="#FFC844"/>
<path d="M192.117 141.878C190.085 141.284 188.167 140.723 186.628 139.183C185.088 137.644 184.529 135.729 183.933 133.695C183.285 131.452 182.596 129.133 180.607 127.143C178.619 125.152 176.289 124.474 174.052 123.818C172.02 123.222 170.102 122.66 168.562 121.121C167.023 119.582 166.463 117.667 165.867 115.633C165.22 113.39 164.531 111.071 162.542 109.08C161.761 108.305 160.862 107.659 159.877 107.168C159.564 107.01 159.249 106.867 158.931 106.736L158.841 106.701L158.493 106.563L158.23 106.466L158.07 106.41L157.711 106.287H157.679C157.115 106.099 156.554 105.935 155.999 105.771C153.969 105.177 152.049 104.616 150.512 103.078C148.974 101.541 148.413 99.624 147.817 97.5881C147.653 97.0311 147.487 96.4654 147.299 95.8998L147.169 95.5219C147.152 95.4766 147.137 95.4291 147.12 95.3838L147.016 95.1009C146.975 94.993 146.932 94.885 146.891 94.7814C146.873 94.7425 146.858 94.7037 146.843 94.6648C146.714 94.3467 146.57 94.033 146.411 93.7235V93.7105C145.92 92.7265 145.274 91.8277 144.498 91.0485C142.509 89.0601 140.179 88.38 137.944 87.7215C135.912 87.1278 133.993 86.5643 132.455 85.0271C130.918 83.4899 130.356 81.5727 129.76 79.5389C129.112 77.2957 128.424 74.977 126.435 72.9864C124.446 70.9958 122.116 70.3178 119.879 69.6615C117.847 69.0656 115.929 68.5043 114.39 66.9649C112.85 65.4256 112.291 63.5105 111.695 61.4768C111.047 59.2336 110.358 56.9148 108.369 54.9242C107.956 54.5127 107.508 54.1377 107.03 53.8037V54.8832C107.285 55.0855 107.528 55.3017 107.758 55.5309C109.591 57.3639 110.239 59.5769 110.865 61.7164C111.492 63.856 112.086 65.879 113.781 67.5716C115.476 69.2643 117.497 69.858 119.637 70.4841C121.777 71.1102 123.99 71.7601 125.824 73.593C127.657 75.426 128.305 77.639 128.931 79.7786C129.557 81.9181 130.151 83.9411 131.844 85.6338C133.537 87.3264 135.56 87.9201 137.702 88.5462C139.845 89.1723 142.056 89.8222 143.889 91.6552C144.633 92.406 145.247 93.2758 145.705 94.2287L145.727 94.2719C146.25 95.4237 146.674 96.6175 146.996 97.8407C147.625 99.9803 148.217 102.003 149.909 103.696C151.602 105.391 153.626 105.982 155.766 106.611C156.987 106.931 158.179 107.355 159.329 107.878L159.378 107.902C160.331 108.359 161.201 108.973 161.952 109.717C163.786 111.55 164.434 113.763 165.062 115.903C165.69 118.042 166.28 120.065 167.975 121.758C169.67 123.451 171.691 124.044 173.831 124.671C175.971 125.297 178.185 125.946 180.018 127.779C181.851 129.612 182.499 131.825 183.125 133.965C183.752 136.105 184.345 138.128 186.038 139.82C187.731 141.513 189.757 142.107 191.897 142.733C194.037 143.359 196.25 144.009 198.083 145.842C199.625 147.383 200.327 149.19 200.891 150.999H201.795C201.193 149.005 200.459 146.99 198.701 145.231C196.673 143.216 194.354 142.536 192.117 141.878Z" fill="#FFC844"/>
<path d="M179.411 146.39C177.874 144.853 177.312 142.936 176.716 140.902C176.068 138.659 175.379 136.34 173.391 134.35C171.402 132.359 169.072 131.681 166.835 131.025C164.803 130.429 162.885 129.868 161.346 128.33C159.806 126.793 159.247 124.876 158.651 122.842C158.003 120.597 157.314 118.278 155.325 116.288C154.544 115.512 153.645 114.867 152.66 114.375H152.647C152.337 114.217 152.021 114.075 151.704 113.943L151.611 113.906L151.265 113.77L151.002 113.673L150.842 113.617L150.484 113.494H150.451C149.888 113.306 149.326 113.142 148.771 112.978C146.739 112.384 144.82 111.823 143.282 110.286C141.745 108.748 141.185 106.831 140.589 104.8C140.427 104.24 140.259 103.673 140.069 103.105C140.028 102.98 139.983 102.852 139.939 102.725L139.89 102.589L139.786 102.304C139.745 102.198 139.704 102.088 139.661 101.989C139.646 101.948 139.631 101.909 139.613 101.868C139.484 101.55 139.34 101.236 139.182 100.926V100.913C138.691 99.9283 138.045 99.0287 137.268 98.2492C135.279 96.2608 132.949 95.5807 130.714 94.9222C128.682 94.3284 126.763 93.765 125.225 92.2278C123.688 90.6906 123.126 88.7734 122.53 86.7396C121.883 84.4964 121.194 82.1776 119.205 80.187C117.216 78.1965 114.886 77.5185 112.649 76.8622C110.617 76.2663 108.699 75.705 107.16 74.1678L107.009 74.0059V75.1998C108.604 76.5729 110.464 77.1191 112.407 77.6912C114.547 78.3174 116.76 78.9651 118.594 80.798C120.427 82.631 121.075 84.844 121.701 86.9836C122.327 89.1231 122.921 91.1461 124.614 92.8388C126.307 94.5314 128.331 95.1251 130.473 95.7512C132.615 96.3773 134.824 97.0272 136.659 98.8602C137.403 99.6116 138.017 100.481 138.475 101.434C138.475 101.449 138.49 101.466 138.499 101.481C139.021 102.632 139.445 103.824 139.767 105.046C140.393 107.185 140.987 109.208 142.68 110.901C144.373 112.594 146.396 113.185 148.536 113.813C149.758 114.134 150.949 114.558 152.099 115.081L152.149 115.104C153.102 115.562 153.972 116.176 154.723 116.92C156.556 118.753 157.204 120.966 157.83 123.106C158.456 125.245 159.05 127.268 160.743 128.961C162.436 130.654 164.459 131.247 166.601 131.875C168.744 132.504 170.955 133.149 172.788 134.982C174.621 136.815 175.269 139.028 175.895 141.168C176.522 143.307 177.116 145.33 178.809 147.023C180.502 148.716 182.525 149.309 184.667 149.935C185.725 150.222 186.764 150.576 187.776 150.996H189.644C188.133 150.052 186.498 149.573 184.909 149.109C182.868 148.491 180.951 147.93 179.411 146.39Z" fill="#FFC844"/>
<path d="M224.59 145.527C222.558 144.934 220.638 144.37 219.101 142.833C217.563 141.296 217.002 139.379 216.406 137.345C215.758 135.102 215.069 132.781 213.08 130.792C211.091 128.804 208.761 128.124 206.527 127.465C204.495 126.872 202.575 126.308 201.035 124.771C199.496 123.234 198.936 121.317 198.34 119.283C197.692 117.04 197.004 114.719 195.015 112.73C193.026 110.742 190.696 110.062 188.459 109.403C186.429 108.809 184.509 108.248 182.97 106.709C181.43 105.169 180.871 103.254 180.275 101.221C179.627 98.9774 178.938 96.6565 176.949 94.6681C176.17 93.8914 175.27 93.2455 174.285 92.7552H174.274C173.961 92.5976 173.645 92.4551 173.328 92.3234L173.239 92.2889L172.89 92.1507L172.628 92.0557C172.574 92.0363 172.52 92.0147 172.464 91.9974C172.346 91.9542 172.227 91.9132 172.108 91.8743H172.073C171.512 91.6865 170.95 91.5203 170.396 91.3583C168.366 90.7646 166.446 90.2011 164.909 88.6661C163.371 87.131 162.81 85.2117 162.214 83.1779C162.052 82.6209 161.883 82.0531 161.695 81.4874C161.654 81.3622 161.611 81.2348 161.566 81.1096C161.548 81.0621 161.533 81.0168 161.516 80.9714L161.412 80.6886C161.371 80.5806 161.328 80.4727 161.287 80.3691C161.27 80.3302 161.257 80.2913 161.24 80.2525C161.11 79.9373 160.968 79.622 160.808 79.3111V79.296C160.316 78.3122 159.67 77.4135 158.895 76.634C156.904 74.6434 154.576 73.9655 152.339 73.307C150.307 72.7133 148.387 72.1498 146.85 70.6126C145.312 69.0754 144.751 67.1582 144.155 65.1244C143.507 62.8812 142.818 60.5603 140.829 58.5719C138.84 56.5834 136.51 55.9033 134.275 55.2449C132.243 54.6511 130.324 54.0898 128.786 52.5504C127.249 51.0111 126.685 49.096 126.089 47.0623C125.441 44.8191 124.752 42.4982 122.764 40.5097C120.775 38.5213 118.445 37.8412 116.21 37.1849C114.178 36.589 112.258 36.0276 110.721 34.4883C109.183 32.9489 108.62 31.0339 108.026 29.0001C107.744 27.9742 107.404 26.9651 107.009 25.9775V28.6158L107.197 29.2506C107.823 31.3901 108.414 33.4131 110.11 35.1058C111.805 36.7984 113.826 37.3921 115.966 38.0182C118.106 38.6444 120.319 39.2942 122.152 41.1272C123.986 42.9602 124.634 45.1732 125.262 47.3127C125.89 49.4523 126.48 51.4753 128.175 53.1679C129.87 54.8606 131.87 55.4176 134.029 56.0437C136.189 56.6698 138.382 57.3196 140.216 59.1526C142.049 60.9856 142.697 63.1986 143.323 65.3381C143.949 67.4777 144.543 69.5007 146.238 71.1933C147.934 72.886 149.953 73.4797 152.095 74.1058C154.237 74.7319 156.448 75.3818 158.281 77.2148C159.026 77.9656 159.639 78.8354 160.097 79.7883C160.105 79.803 160.113 79.8181 160.119 79.8336C160.643 80.9843 161.068 82.1775 161.389 83.4003C162.017 85.5398 162.609 87.5607 164.302 89.2555C165.995 90.9503 168.018 91.5419 170.158 92.168C171.377 92.4907 172.568 92.9146 173.717 93.4353L173.773 93.4612C174.725 93.9192 175.594 94.5329 176.345 95.2769C178.178 97.1099 178.826 99.3229 179.454 101.462C180.083 103.602 180.672 105.625 182.367 107.318C184.062 109.01 186.084 109.604 188.223 110.23C190.363 110.856 192.577 111.506 194.41 113.339C196.244 115.172 196.891 117.385 197.518 119.525C198.144 121.664 198.738 123.685 200.433 125.38C202.128 127.075 204.149 127.666 206.289 128.292C208.429 128.918 210.642 129.568 212.476 131.401C214.309 133.234 214.957 135.445 215.583 137.587C216.209 139.728 216.803 141.749 218.498 143.442C220.193 145.135 222.212 145.728 224.354 146.354C226.497 146.98 228.708 147.628 230.541 149.463C230.999 149.922 231.407 150.429 231.757 150.975H232.77C232.327 150.199 231.783 149.487 231.152 148.854C229.155 146.864 226.836 146.186 224.59 145.527Z" fill="#FFC844"/>
<path d="M152.419 145.439C150.387 144.843 148.467 144.282 146.929 142.744C145.392 141.207 144.831 139.29 144.235 137.254C143.587 135.011 142.898 132.692 140.909 130.701C140.128 129.926 139.229 129.28 138.244 128.789H138.234C137.92 128.629 137.605 128.486 137.288 128.357L137.197 128.322L136.849 128.184L136.586 128.089L136.424 128.031L136.068 127.908L136.035 127.897C135.472 127.711 134.91 127.545 134.355 127.381C132.323 126.787 130.406 126.226 128.868 124.689C127.331 123.151 126.769 121.234 126.173 119.203C126.011 118.643 125.843 118.078 125.655 117.512C125.614 117.387 125.571 117.262 125.528 117.136L125.476 116.994C125.443 116.901 125.409 116.808 125.374 116.715C125.34 116.623 125.29 116.5 125.245 116.387L125.202 116.277C125.072 115.962 124.927 115.647 124.77 115.336V115.323C124.279 114.338 123.633 113.438 122.857 112.659C120.868 110.67 118.538 109.99 116.303 109.334C114.271 108.738 112.351 108.177 110.814 106.639C109.276 105.102 108.715 103.185 108.119 101.149C107.821 100.047 107.451 98.9651 107.013 97.9106V100.46C107.108 100.771 107.199 101.082 107.289 101.391C107.918 103.533 108.509 105.553 110.202 107.246C111.895 108.939 113.919 109.533 116.061 110.161C118.203 110.789 120.412 111.435 122.245 113.268C122.991 114.018 123.605 114.888 124.064 115.841L124.085 115.886C124.608 117.038 125.032 118.231 125.355 119.453C125.981 121.593 126.575 123.616 128.268 125.308C129.963 127.001 131.984 127.592 134.126 128.221C135.346 128.542 136.536 128.965 137.685 129.486L137.741 129.514C138.693 129.972 139.562 130.585 140.313 131.328C142.146 133.161 142.794 135.374 143.42 137.513C144.047 139.653 144.64 141.676 146.333 143.37C148.026 145.065 150.05 145.655 152.192 146.283C154.334 146.911 156.543 147.557 158.379 149.39C158.86 149.874 159.286 150.41 159.648 150.989H160.659C160.206 150.179 159.644 149.435 158.988 148.779C156.984 146.775 154.662 146.095 152.419 145.439Z" fill="#FFC844"/>
<path d="M137.026 144.462C136.379 142.219 135.69 139.898 133.701 137.91C132.921 137.133 132.021 136.487 131.036 135.995H131.023C130.712 135.835 130.395 135.693 130.077 135.563L129.991 135.531L129.639 135.39L129.378 135.295L129.216 135.237L128.862 135.116L128.823 135.103C128.261 134.915 127.7 134.751 127.147 134.589C125.115 133.993 123.195 133.432 121.658 131.895C120.12 130.358 119.561 128.441 118.965 126.409C118.801 125.85 118.635 125.282 118.445 124.714C118.402 124.587 118.358 124.459 118.313 124.332L118.266 124.196C118.231 124.101 118.196 124.006 118.16 123.911C118.123 123.816 118.08 123.695 118.037 123.596C118.022 123.557 118.004 123.516 117.989 123.475C117.86 123.16 117.715 122.844 117.557 122.534V122.521C117.067 121.536 116.421 120.636 115.644 119.856C113.655 117.868 111.325 117.188 109.09 116.532C108.378 116.316 107.68 116.117 107.009 115.873V116.791C107.609 116.996 108.222 117.177 108.848 117.361C110.988 117.987 113.2 118.634 115.033 120.467C115.778 121.218 116.393 122.088 116.851 123.041L116.875 123.091C117.396 124.241 117.82 125.432 118.142 126.653C118.769 128.792 119.36 130.815 121.056 132.508C122.751 134.201 124.772 134.792 126.914 135.421C128.135 135.741 129.326 136.165 130.475 136.688L130.527 136.712C131.479 137.17 132.349 137.784 133.101 138.527C134.934 140.363 135.582 142.573 136.208 144.713C136.834 146.852 137.428 148.875 139.121 150.57C139.268 150.717 139.419 150.851 139.57 150.983H141.015C140.551 150.689 140.121 150.346 139.732 149.959C138.184 148.413 137.622 146.494 137.026 144.462Z" fill="#FFC844"/>
<path d="M126.491 145.117C125.712 144.34 124.813 143.693 123.828 143.202H123.815C123.502 143.042 123.187 142.9 122.869 142.77L122.787 142.738L122.431 142.597L122.174 142.504L122.006 142.444L121.656 142.323L121.613 142.31C121.051 142.122 120.492 141.958 119.939 141.796C117.907 141.2 115.987 140.639 114.45 139.102C112.913 137.565 112.353 135.647 111.757 133.612C111.556 132.929 111.351 132.232 111.109 131.539L111.062 131.403C111.027 131.308 110.993 131.213 110.956 131.118C110.919 131.023 110.874 130.902 110.831 130.8L110.786 130.682C110.654 130.364 110.511 130.051 110.354 129.74V129.727C109.863 128.742 109.217 127.843 108.44 127.063C108.003 126.626 107.525 126.231 107.013 125.882V126.962C107.299 127.186 107.571 127.427 107.829 127.683C108.574 128.434 109.187 129.304 109.645 130.256L109.671 130.306C110.187 131.453 110.606 132.641 110.924 133.858C111.55 135.999 112.144 138.02 113.837 139.715C115.532 141.408 117.553 141.999 119.695 142.627C120.915 142.948 122.105 143.372 123.254 143.893L123.308 143.919C124.26 144.377 125.13 144.991 125.882 145.734C127.447 147.302 128.149 149.143 128.711 150.983H129.613C129.006 148.951 128.277 146.9 126.491 145.117Z" fill="#FFC844"/>
<path d="M166.183 141.556C164.192 139.568 161.864 138.888 159.627 138.232C157.595 137.636 155.675 137.074 154.138 135.537C152.6 134 152.039 132.083 151.443 130.049C150.795 127.804 150.106 125.485 148.117 123.494C147.336 122.719 146.437 122.073 145.452 121.581H145.442C145.129 121.422 144.811 121.279 144.494 121.15L144.416 121.119C144.297 121.07 144.176 121.022 144.055 120.977L143.8 120.884L143.63 120.822L143.28 120.703L143.237 120.688C142.678 120.502 142.116 120.336 141.563 120.174C139.531 119.58 137.614 119.019 136.074 117.482C134.535 115.944 133.977 114.027 133.381 111.991C133.181 111.307 132.975 110.612 132.734 109.916C132.718 109.873 132.703 109.828 132.686 109.785C132.652 109.688 132.617 109.593 132.58 109.498C132.544 109.403 132.498 109.282 132.457 109.18L132.41 109.061C132.278 108.744 132.135 108.431 131.978 108.118C131.487 107.133 130.841 106.233 130.065 105.454C128.076 103.465 125.746 102.785 123.511 102.129C121.479 101.533 119.559 100.972 118.022 99.4324C116.484 97.893 115.923 95.978 115.327 93.9442C114.679 91.701 113.99 89.3823 111.999 87.3917C110.472 85.8631 108.747 85.1096 107.013 84.5439V85.455C108.555 85.9797 110.071 86.6835 111.39 88.0026C113.223 89.8356 113.871 92.0486 114.497 94.1882C115.124 96.3277 115.718 98.3507 117.411 100.043C119.103 101.736 121.127 102.33 123.269 102.958C125.411 103.586 127.62 104.232 129.456 106.065C130.199 106.816 130.813 107.686 131.272 108.638L131.293 108.684C131.816 109.835 132.24 111.028 132.563 112.25C133.189 114.39 133.783 116.413 135.476 118.106C137.171 119.798 139.194 120.39 141.334 121.018C142.554 121.339 143.745 121.762 144.893 122.283L144.949 122.309C145.901 122.768 146.77 123.381 147.521 124.125C149.354 125.958 150.002 128.171 150.629 130.31C151.255 132.45 151.849 134.473 153.542 136.165C155.234 137.858 157.258 138.452 159.4 139.08C161.542 139.708 163.753 140.354 165.587 142.187C167.42 144.02 168.068 146.233 168.694 148.372C168.957 149.273 169.217 150.151 169.558 150.993H170.495C170.114 150.059 169.791 149.102 169.527 148.128C168.852 145.866 168.171 143.547 166.183 141.556Z" fill="#FFC844"/>
<path d="M248.933 0C249.374 1.02908 250.004 1.96643 250.79 2.76351C252.483 4.45616 254.506 5.04773 256.646 5.67599C257.091 5.80553 257.538 5.93723 257.985 6.07973V5.18158C257.616 5.06716 257.249 4.96568 256.886 4.85126C254.854 4.25753 252.936 3.6962 251.399 2.15899C250.777 1.52926 250.266 0.799396 249.887 0H248.933Z" fill="#FFC844"/>
<path d="M171.41 9.89047C173.105 11.5831 175.127 12.1768 177.269 12.803C179.411 13.4291 181.62 14.0768 183.453 15.9097C185.286 17.7427 185.936 19.9557 186.563 22.0974C187.189 24.2391 187.783 26.2578 189.476 27.9526C191.169 29.6474 193.196 30.2368 195.334 30.8737C197.472 31.5106 199.685 32.1475 201.519 33.9805C202.263 34.7314 202.877 35.6011 203.335 36.554C203.344 36.5699 203.352 36.5865 203.358 36.6037C203.881 37.7533 204.306 38.945 204.628 40.166C205.254 42.3078 205.846 44.3286 207.541 46.0234C209.236 47.716 211.258 48.3098 213.4 48.9359C214.62 49.2566 215.81 49.6806 216.958 50.2032C216.977 50.2105 216.995 50.2192 217.012 50.2291C217.965 50.6864 218.834 51.3002 219.584 52.0448C221.42 53.8778 222.067 56.0886 222.694 58.2282C223.32 60.3677 223.914 62.3907 225.607 64.0855C227.3 65.7803 229.323 66.3719 231.463 66.998C233.603 67.6241 235.816 68.2718 237.65 70.1048C239.483 71.9378 240.133 74.1507 240.759 76.2903C241.385 78.4299 241.979 80.4529 243.672 82.1477C245.365 83.8425 247.397 84.4168 249.533 85.0645C251.668 85.7122 253.884 86.3383 255.717 88.1713C256.722 89.2018 257.496 90.4337 257.989 91.7854V89.7538C257.538 88.9502 256.98 88.2121 256.328 87.5603C254.34 85.5718 252.01 84.8917 249.775 84.2354C247.743 83.6395 245.823 83.0782 244.285 81.541C242.748 80.0038 242.184 78.0866 241.591 76.0528C240.932 73.8096 240.254 71.4887 238.263 69.5003C236.272 67.5118 233.944 66.8296 231.709 66.1733C229.677 65.5774 227.757 65.0161 226.22 63.4789C224.682 61.9416 224.119 60.0245 223.525 57.9907C222.877 55.7475 222.188 53.4266 220.197 51.4381C219.419 50.6611 218.52 50.0151 217.535 49.5253H217.522C217.208 49.3684 216.893 49.2245 216.576 49.0935L216.494 49.0632C216.376 49.0129 216.257 48.9654 216.138 48.9208L215.881 48.8279L215.712 48.7675L215.36 48.6466L215.319 48.6336C214.758 48.4458 214.199 48.2817 213.646 48.1198C211.614 47.5239 209.694 46.9626 208.157 45.4254C206.619 43.8881 206.058 41.9709 205.462 39.935C205.263 39.2528 205.058 38.5554 204.814 37.8624L204.766 37.7264C204.732 37.6314 204.697 37.5364 204.661 37.4414C204.624 37.3464 204.579 37.2255 204.535 37.1219L204.49 37.0053C204.358 36.6901 204.216 36.3748 204.058 36.0639V36.051C203.568 35.0659 202.922 34.1663 202.145 33.3868C200.156 31.3984 197.826 30.7183 195.591 30.0619C193.559 29.4661 191.639 28.9047 190.102 27.3675C188.564 25.8303 188.001 23.9131 187.407 21.8794C186.759 19.6362 186.07 17.3152 184.079 15.3268C182.088 13.3384 179.761 12.6561 177.526 11.9998C175.494 11.4039 173.574 10.8426 172.036 9.30538C170.499 7.76818 169.935 5.85099 169.342 3.81722C169.001 2.51899 168.546 1.25326 167.983 0.034668H167.005C167.711 1.33006 168.117 2.70966 168.517 4.05903C169.123 6.17484 169.717 8.2043 171.41 9.89047Z" fill="#FFC844"/>
<path d="M158.18 5.05619C160.013 6.88917 160.663 9.09998 161.289 11.2395C161.916 13.3791 162.509 15.4021 164.202 17.0969C165.895 18.7917 167.919 19.3833 170.061 20.0094C170.594 20.167 171.141 20.3246 171.672 20.5016C173.283 21.0349 174.87 21.743 176.245 23.1183C177.735 24.6059 178.444 26.346 178.992 28.084C179.119 28.4877 179.236 28.8915 179.355 29.293C179.981 31.4326 180.575 33.4534 182.268 35.1482C183.961 36.843 185.982 37.4324 188.124 38.0607C190.266 38.689 192.477 39.3345 194.311 41.1675C195.055 41.9188 195.67 42.7885 196.129 43.741C196.135 43.7572 196.142 43.7731 196.151 43.7885C196.673 44.9389 197.098 46.1313 197.42 47.353C198.047 49.4947 198.638 51.5156 200.333 53.2104C202.028 54.903 204.05 55.4967 206.192 56.1229C207.411 56.4442 208.6 56.8674 209.748 57.388L209.807 57.4161C210.758 57.874 211.627 58.4877 212.376 59.2318C214.21 61.0648 214.86 63.2756 215.486 65.4173C216.112 67.559 216.706 69.5798 218.399 71.2725C220.092 72.9652 222.115 73.5589 224.255 74.185C226.395 74.8111 228.608 75.4588 230.442 77.2939C232.275 79.1291 232.925 81.3377 233.551 83.4773C234.178 85.6169 234.769 87.6398 236.464 89.3346C238.159 91.0295 240.181 91.6189 242.321 92.2471C244.461 92.8754 246.674 93.5209 248.507 95.3539C250.341 97.1869 250.988 99.3999 251.617 101.539C252.245 103.679 252.835 105.702 254.53 107.397C255.513 108.352 256.692 109.083 257.985 109.538V108.608C256.923 108.199 255.955 107.579 255.139 106.786C253.601 105.249 253.038 103.331 252.442 101.298C251.794 99.0523 251.105 96.7335 249.116 94.7451C247.127 92.7567 244.797 92.0744 242.562 91.4181C240.53 90.8222 238.611 90.2608 237.073 88.7236C235.536 87.1864 234.972 85.2693 234.378 83.2355C233.72 80.9923 233.04 78.6714 231.051 76.6829C229.062 74.6945 226.732 74.0123 224.497 73.3559C222.465 72.7622 220.545 72.1987 219.008 70.6615C217.47 69.1243 216.907 67.2071 216.313 65.1733C215.654 62.9302 214.976 60.6092 212.985 58.6208C212.206 57.8437 211.306 57.1978 210.321 56.7079C210.007 56.5503 209.69 56.4057 209.373 56.2761L209.288 56.2416C209.172 56.1941 209.053 56.1466 208.934 56.1034C208.815 56.0602 208.761 56.0386 208.675 56.0084L208.509 55.948L208.155 55.8271L208.12 55.8141C207.557 55.6284 206.995 55.4622 206.44 55.3003C204.41 54.7044 202.493 54.143 200.955 52.608C199.418 51.073 198.854 49.1536 198.26 47.1198C198.096 46.5628 197.93 45.9972 197.74 45.4294C197.699 45.3041 197.656 45.1789 197.612 45.0537L197.561 44.9112C197.526 44.8184 197.494 44.7255 197.457 44.6327C197.42 44.5398 197.373 44.4168 197.33 44.3067L197.286 44.1966C197.155 43.8792 197.012 43.5662 196.855 43.2531V43.2401C196.364 42.2559 195.718 41.357 194.941 40.5781C192.953 38.5875 190.623 37.9074 188.385 37.2511C186.353 36.6552 184.436 36.0939 182.898 34.5567C181.361 33.0195 180.797 31.1023 180.203 29.0685C180.039 28.5072 179.873 27.9415 179.685 27.378C179.124 25.6854 178.368 24.0078 176.878 22.516C175.511 21.1472 173.987 20.398 172.438 19.8518C171.734 19.6013 171.026 19.3941 170.324 19.189C168.292 18.5952 166.373 18.0317 164.835 16.4945C163.298 14.9573 162.734 13.0401 162.14 11.0064C161.492 8.76317 160.803 6.44226 158.813 4.45382C156.822 2.46539 154.494 1.78531 152.259 1.12682C151.171 0.839413 150.107 0.468399 149.076 0.0170898H147.331C148.756 0.999432 150.354 1.46793 152.015 1.96018C154.133 2.57334 156.346 3.22104 158.18 5.05619Z" fill="#FFC844"/>
<path d="M184.477 5.5965C186.617 6.2226 188.828 6.8703 190.661 8.70328C192.495 10.5363 193.145 12.7492 193.771 14.8888C194.397 17.0284 194.991 19.0513 196.684 20.7462C198.377 22.441 200.4 23.0304 202.542 23.6586C204.685 24.2869 206.894 24.9324 208.727 26.7654C209.471 27.5167 210.086 28.3864 210.545 29.3389L210.567 29.3864C211.089 30.5369 211.514 31.7293 211.836 32.9509C212.463 35.0927 213.054 37.1135 214.749 38.8083C216.445 40.5009 218.466 41.0947 220.608 41.7208C221.829 42.0415 223.02 42.4655 224.169 42.9881L224.221 43.0118C225.174 43.4703 226.044 44.0847 226.795 44.8297C228.628 46.6627 229.276 48.8735 229.902 51.0131C230.528 53.1526 231.122 55.1756 232.815 56.8704C234.508 58.5652 236.531 59.1546 238.673 59.7829C240.816 60.4112 243.025 61.0567 244.858 62.8897C246.691 64.7227 247.341 66.9357 247.967 69.0752C248.594 71.2148 249.187 73.2378 250.88 74.9326C252.573 76.6274 254.597 77.2168 256.739 77.845C257.153 77.966 257.57 78.089 257.987 78.2207V77.3161C257.65 77.2125 257.315 77.1124 256.981 77.016C254.949 76.4201 253.029 75.8588 251.492 74.3216C249.954 72.7844 249.39 70.8672 248.797 68.8334C248.149 66.5881 247.46 64.2693 245.469 62.2809C243.478 60.2924 241.15 59.6102 238.915 58.9539C236.883 58.358 234.964 57.7966 233.426 56.2594C231.889 54.7222 231.327 52.805 230.731 50.7713C230.083 48.5281 229.394 46.2072 227.403 44.2187C226.625 43.4417 225.726 42.7957 224.741 42.3059H224.728C224.414 42.149 224.099 42.005 223.782 41.8741L223.696 41.8417L223.344 41.7013L223.083 41.6063L222.921 41.5481L222.566 41.4272L222.528 41.4142C221.966 41.2285 221.405 41.0623 220.852 40.9004C218.82 40.3045 216.902 39.7431 215.363 38.2059C213.823 36.6687 213.266 34.7515 212.67 32.7199C212.506 32.1607 212.34 31.5929 212.15 31.0251C212.106 30.8977 212.063 30.7704 212.018 30.643C212.003 30.5976 211.985 30.5523 211.968 30.5048C211.936 30.412 211.901 30.317 211.864 30.222C211.828 30.127 211.782 30.0061 211.739 29.9046L211.694 29.7859C211.562 29.4706 211.42 29.1554 211.262 28.8445V28.8316C210.772 27.8465 210.126 26.9469 209.349 26.1674C207.36 24.179 205.03 23.4989 202.795 22.8425C200.763 22.2466 198.843 21.6853 197.306 20.1481C195.768 18.6109 195.205 16.6937 194.611 14.66C193.952 12.4146 193.274 10.0958 191.283 8.10524C189.292 6.11465 186.965 5.43673 184.73 4.7804C182.698 4.18451 180.778 3.62317 179.24 2.08597C178.643 1.48179 178.148 0.784734 177.774 0.0219727H176.813C177.249 1.0174 177.865 1.92413 178.629 2.69696C180.314 4.37666 182.335 4.96607 184.477 5.5965Z" fill="#FFC844"/>
<path d="M128.808 7.5933C129.434 9.73286 130.028 11.7558 131.721 13.4485C133.414 15.1411 135.437 15.7349 137.577 16.361C139.717 16.9871 141.93 17.6369 143.764 19.4699C145.597 21.3029 146.245 23.5137 146.873 25.6533C147.501 27.7928 148.091 29.8158 149.793 31.5214C151.494 33.227 153.509 33.8078 155.649 34.4339C157.789 35.06 160.002 35.7077 161.836 37.5429C163.669 39.378 164.317 41.5867 164.945 43.7284C165.573 45.8701 166.163 47.8909 167.858 49.5836C169.553 51.2762 171.574 51.8699 173.714 52.4961C175.854 53.1222 178.068 53.7699 179.901 55.605C180.646 56.355 181.26 57.225 181.717 58.1785C181.717 58.1936 181.732 58.2087 181.741 58.2217C182.263 59.3729 182.688 60.566 183.011 61.7884C183.637 63.9301 184.229 65.9509 185.924 67.6457C187.617 69.3405 189.64 69.9321 191.782 70.5582C193.002 70.8809 194.193 71.3048 195.343 71.8255L195.395 71.8514C196.347 72.3088 197.217 72.9225 197.967 73.6671C199.8 75.5001 200.448 77.7109 201.076 79.8527C201.704 81.9944 202.294 84.0152 203.989 85.7078C205.684 87.4005 207.705 87.9942 209.845 88.6203C211.985 89.2464 214.199 89.8941 216.032 91.7293C217.865 93.5644 218.513 95.7731 219.142 97.9126C219.77 100.052 220.359 102.075 222.055 103.77C223.75 105.465 225.771 106.056 227.911 106.682C230.051 107.309 232.264 107.956 234.098 109.791C235.931 111.627 236.579 113.835 237.205 115.975C237.831 118.114 238.425 120.137 240.12 121.832C241.815 123.527 243.836 124.116 245.976 124.745C248.116 125.373 250.33 126.018 252.163 127.851C253.996 129.684 254.644 131.897 255.27 134.037C255.873 136.094 256.447 138.04 257.993 139.691V138.331C257.037 136.984 256.579 135.425 256.1 133.797C255.452 131.554 254.763 129.235 252.774 127.247C250.785 125.258 248.455 124.576 246.218 123.92C244.186 123.324 242.269 122.763 240.731 121.225C239.194 119.688 238.63 117.771 238.034 115.737C237.386 113.494 236.697 111.173 234.709 109.185C232.72 107.196 230.39 106.516 228.155 105.858C226.123 105.264 224.203 104.701 222.666 103.163C221.128 101.626 220.565 99.7089 219.971 97.6751C219.323 95.4319 218.632 93.111 216.643 91.1226C214.654 89.1342 212.324 88.4541 210.089 87.7956C208.057 87.2019 206.138 86.6384 204.6 85.1012C203.063 83.564 202.499 81.6468 201.905 79.613C201.257 77.3698 200.566 75.0489 198.578 73.0605C197.798 72.2838 196.898 71.6379 195.913 71.1476H195.9C195.588 70.9893 195.272 70.8453 194.954 70.7158L194.868 70.6813C194.749 70.6338 194.632 70.5863 194.516 70.5431L194.257 70.4481L194.09 70.3876L193.736 70.2667L193.7 70.2538C193.138 70.0681 192.577 69.9019 192.022 69.7399C189.992 69.1462 188.072 68.5827 186.535 67.0477C184.997 65.5126 184.436 63.5933 183.84 61.5573C183.678 61.0003 183.512 60.4368 183.324 59.8733V59.8561C183.283 59.733 183.242 59.6099 183.198 59.4869C183.181 59.4372 183.162 59.3876 183.144 59.3401C183.112 59.2472 183.078 59.1565 183.043 59.0637C183.008 58.9709 182.959 58.8478 182.916 58.7377L182.87 58.6276C182.741 58.3095 182.597 57.9957 182.438 57.6863V57.6712C181.947 56.6874 181.301 55.7886 180.525 55.0091C178.534 53.0185 176.206 52.3384 173.969 51.6821C171.937 51.0862 170.02 50.5249 168.482 48.9877C166.945 47.4505 166.381 45.5333 165.785 43.4995C165.137 41.2563 164.448 38.9354 162.46 36.947C160.471 34.9585 158.141 34.2785 155.906 33.62C153.874 33.0262 151.954 32.4627 150.417 30.9255C148.879 29.3883 148.316 27.4712 147.722 25.4374C147.063 23.1942 146.383 20.8733 144.394 18.8848C142.405 16.8964 140.075 16.2163 137.84 15.5578C135.808 14.9641 133.889 14.4006 132.351 12.8634C130.814 11.3262 130.25 9.40901 129.656 7.37524C129.008 5.13204 128.317 2.81113 126.329 0.822699C126.048 0.54197 125.75 0.278796 125.437 0.034668H123.925C124.582 0.423862 125.188 0.89387 125.728 1.4337C127.531 3.23862 128.181 5.45158 128.808 7.5933Z" fill="#FFC844"/>
<path d="M138.929 6.24175C140.622 7.9344 142.645 8.52813 144.785 9.15424C146.925 9.78035 149.139 10.428 150.972 12.2632C152.805 14.0983 153.455 16.307 154.081 18.4465C154.708 20.5861 155.299 22.6091 156.994 24.3039C158.69 25.9987 160.711 26.5903 162.851 27.2164C164.991 27.8425 167.204 28.4902 169.037 30.3253C170.871 32.1605 171.519 34.3691 172.147 36.5087C172.775 38.6482 173.365 40.6712 175.06 42.366C176.755 44.0608 178.776 44.6502 180.916 45.2785C183.056 45.9068 185.27 46.5523 187.103 48.3853C187.847 49.1361 188.461 50.0059 188.919 50.9588L188.943 51.0063C189.465 52.1568 189.89 53.3492 190.212 54.5708C190.839 56.7125 191.43 58.7334 193.125 60.4282C194.818 62.123 196.842 62.7145 198.984 63.3407C200.204 63.6633 201.395 64.0873 202.545 64.608L202.597 64.6339C203.549 65.0912 204.419 65.705 205.168 66.4496C207.002 68.2826 207.652 70.4956 208.278 72.633C208.904 74.7704 209.496 76.7955 211.191 78.4903C212.886 80.1851 214.907 80.7767 217.047 81.4028C219.187 82.0289 221.401 82.6766 223.234 84.5117C225.067 86.3469 225.715 88.5555 226.343 90.6951C226.972 92.8347 227.561 94.8576 229.256 96.5525C230.952 98.2473 232.973 98.8388 235.113 99.4649C237.253 100.091 239.466 100.739 241.299 102.572C243.133 104.405 243.78 106.618 244.409 108.757C245.037 110.897 245.627 112.92 247.322 114.615C249.017 116.309 251.036 116.899 253.178 117.527C254.806 118.004 256.473 118.494 257.987 119.507V118.481C256.514 117.605 254.951 117.145 253.42 116.698C251.388 116.102 249.47 115.541 247.933 114.004C246.396 112.466 245.832 110.549 245.236 108.515C244.588 106.272 243.899 103.951 241.91 101.963C239.922 99.9745 237.592 99.2944 235.357 98.6359C233.325 98.04 231.405 97.4787 229.868 95.9415C228.33 94.4043 227.766 92.4871 227.173 90.4533C226.525 88.2101 225.834 85.8892 223.845 83.9007C221.856 81.9123 219.526 81.2301 217.291 80.5737C215.259 79.98 213.339 79.4165 211.802 77.8793C210.265 76.3421 209.701 74.4249 209.107 72.3912C208.448 70.148 207.77 67.827 205.779 65.8386C205 65.0615 204.1 64.4156 203.115 63.9257H203.102C202.789 63.7689 202.474 63.6249 202.156 63.4939L202.067 63.4594C201.951 63.4119 201.834 63.3644 201.718 63.3212C201.601 63.278 201.543 63.2565 201.456 63.2241L201.294 63.1658L200.938 63.0449L200.901 63.0319C200.34 62.8462 199.778 62.68 199.224 62.5181C197.194 61.9222 195.274 61.3609 193.737 59.8258C192.199 58.2908 191.638 56.3714 191.044 54.3355C190.843 53.6511 190.636 52.9537 190.396 52.2585L190.348 52.129C190.314 52.0318 190.279 51.9368 190.243 51.8397C190.206 51.7425 190.161 51.6238 190.12 51.5288C190.102 51.4878 190.087 51.4446 190.07 51.4036C189.94 51.0884 189.798 50.7731 189.638 50.4622V50.4493C189.147 49.465 188.501 48.5662 187.725 47.7873C185.734 45.7967 183.406 45.1166 181.169 44.4603C179.139 43.8644 177.219 43.303 175.682 41.7658C174.144 40.2286 173.581 38.3114 172.987 36.2777C172.328 34.0345 171.65 31.7136 169.659 29.7251C167.668 27.7367 165.34 27.0566 163.105 26.3981C161.073 25.8044 159.154 25.2409 157.616 23.7037C156.079 22.1665 155.515 20.2493 154.921 18.2155C154.274 15.9723 153.585 13.6514 151.594 11.663C149.603 9.67455 147.275 8.99446 145.04 8.33597C143.008 7.74225 141.088 7.17876 139.551 5.64155C138.013 4.10435 137.45 2.18716 136.856 0.153388L136.817 0.0195312H135.917L136.027 0.397355C136.642 2.52612 137.236 4.5491 138.929 6.24175Z" fill="#FFC844"/>
<path d="M224.166 2.03778C226.306 2.66389 228.518 3.31158 230.351 5.14457C231.096 5.89524 231.711 6.76504 232.169 7.71809L232.191 7.76558C232.713 8.91605 233.138 10.1084 233.461 11.3301C234.087 13.4696 234.681 15.4926 236.374 17.1853C238.069 18.8779 240.09 19.4695 242.232 20.0978C243.453 20.4182 244.644 20.8421 245.793 21.3651L245.845 21.3888C246.797 21.8474 247.667 22.461 248.419 23.2045C250.252 25.0375 250.9 27.2505 251.526 29.3901C252.152 31.5296 252.746 33.5526 254.439 35.2474C255.446 36.2253 256.658 36.9678 257.987 37.4215V36.4932C256.89 36.0842 255.89 35.4519 255.05 34.6364C253.513 33.0992 252.951 31.182 252.355 29.1483C251.707 26.9029 251.019 24.5842 249.03 22.5936C248.249 21.8183 247.349 21.1726 246.365 20.6807H246.352C246.041 20.5231 245.724 20.3806 245.406 20.2489L245.329 20.2187C245.208 20.169 245.089 20.1215 244.968 20.0762L244.713 19.9833L244.543 19.9207L244.195 19.802L244.15 19.7869C243.588 19.6012 243.029 19.435 242.476 19.273C240.444 18.6793 238.524 18.118 236.987 16.5808C235.449 15.0436 234.89 13.1264 234.294 11.0948C234.13 10.5356 233.964 9.96992 233.776 9.40211L233.646 9.02428L233.594 8.88396C233.562 8.79112 233.527 8.69827 233.493 8.60328C233.458 8.50828 233.409 8.38738 233.366 8.28159L233.32 8.16717C233.191 7.85195 233.048 7.53673 232.888 7.22584V7.21288C232.398 6.22781 231.752 5.32822 230.975 4.54869C228.986 2.56026 226.656 1.88018 224.421 1.22384C223.266 0.92124 222.139 0.519613 221.053 0.0234375H219.366C220.809 1.05112 222.448 1.53474 224.166 2.03778Z" fill="#FFC844"/>
<path d="M200.97 7.68152C201.596 9.82324 202.19 11.8441 203.883 13.5389C205.576 15.2337 207.6 15.8231 209.742 16.4514C211.884 17.0796 214.093 17.7252 215.926 19.5581C216.671 20.3088 217.286 21.1786 217.744 22.1317C217.751 22.1472 217.758 22.1623 217.766 22.177C218.288 23.3282 218.713 24.5213 219.036 25.7437C219.662 27.8832 220.254 29.9062 221.949 31.5988C223.644 33.2915 225.665 33.8831 227.807 34.5113C229.028 34.8323 230.219 35.2555 231.368 35.7765L231.422 35.8024C232.374 36.2615 233.243 36.8751 233.994 37.6181C235.827 39.4511 236.475 41.6641 237.101 43.8058C237.727 45.9475 238.321 47.9662 240.014 49.661C241.707 51.3558 243.731 51.9452 245.873 52.5735C248.015 53.2017 250.224 53.8473 252.059 55.6803C253.895 57.5132 254.54 59.7262 255.167 61.8658C255.78 63.9622 256.363 65.9419 257.974 67.6152V66.2809C256.955 64.9078 256.484 63.3037 255.992 61.6218C255.344 59.3786 254.655 57.0599 252.664 55.0693C250.673 53.0787 248.345 52.4007 246.11 51.7444C244.078 51.1485 242.159 50.5872 240.621 49.05C239.084 47.5128 238.522 45.5956 237.926 43.5597C237.278 41.3165 236.589 38.9977 234.598 37.0093C233.819 36.2323 232.92 35.5857 231.936 35.0943C231.622 34.9359 231.306 34.792 230.988 34.6625L230.902 34.6279C230.785 34.5826 230.668 34.5351 230.55 34.4919C230.463 34.4574 230.375 34.4271 230.288 34.3947L230.122 34.3278L229.766 34.2048L229.731 34.194C229.17 34.0083 228.606 33.842 228.053 33.6801C226.021 33.0842 224.104 32.5229 222.566 30.9879C221.029 29.4528 220.467 27.5335 219.871 25.4997C219.707 24.9405 219.541 24.3749 219.353 23.8092C219.312 23.684 219.269 23.5588 219.226 23.4335L219.174 23.291L219.072 23.0125C219.031 22.9024 218.986 22.7966 218.943 22.6844C218.928 22.6477 218.915 22.611 218.9 22.5764C218.77 22.259 218.625 21.9438 218.468 21.6329V21.62C217.977 20.6349 217.331 19.7353 216.555 18.9558C214.566 16.9673 212.236 16.2873 210.001 15.6309C207.969 15.0351 206.049 14.4737 204.512 12.9365C202.974 11.3993 202.413 9.48212 201.817 7.44835C201.158 5.20299 200.48 2.88424 198.489 0.893647C198.174 0.579104 197.838 0.286245 197.483 0.0170898H195.919C196.636 0.423524 197.294 0.923801 197.878 1.50464C199.705 3.32899 200.353 5.54196 200.97 7.68152Z" fill="#FFC844"/>
<path d="M240.85 1.80674L240.8 1.67072C240.766 1.57573 240.731 1.48074 240.694 1.38574C240.658 1.29074 240.615 1.16984 240.571 1.06837C240.554 1.02951 240.541 0.988481 240.524 0.949619C240.394 0.632966 240.25 0.319196 240.092 0.00830078H239.109C239.202 0.174543 239.293 0.342942 239.375 0.511343L239.397 0.55668C239.919 1.70774 240.344 2.90087 240.666 4.12334C241.293 6.2629 241.886 8.28587 243.579 9.97852C245.272 11.6712 247.294 12.2627 249.436 12.891C250.656 13.212 251.847 13.6352 252.997 14.1562L253.051 14.1821C254.002 14.6412 254.871 15.2548 255.622 15.9978C256.681 17.0919 257.487 18.4053 257.983 19.8451V17.7358C256.988 15.8926 255.446 14.4034 253.569 13.4739H253.556C253.245 13.3163 252.93 13.1738 252.612 13.0421L252.521 13.0076L252.174 12.8694L251.91 12.7744L251.748 12.7161C251.63 12.673 251.511 12.6341 251.39 12.5931H251.36C250.796 12.4074 250.235 12.2412 249.68 12.0771C247.648 11.4833 245.73 10.922 244.193 9.3848C242.655 7.8476 242.094 5.93042 241.498 3.89449C241.334 3.33747 241.167 2.77181 240.98 2.20615L240.85 1.80674Z" fill="#FFC844"/>
<path d="M208.187 0.475026C208.813 2.61675 209.407 4.63756 211.1 6.33021C212.793 8.02287 214.816 8.61659 216.958 9.24486C219.101 9.87312 221.31 10.5187 223.143 12.3517C223.888 13.1023 224.503 13.9721 224.961 14.9252C224.961 14.9403 224.976 14.9554 224.983 14.9727C225.506 16.123 225.93 17.3154 226.253 18.5372C226.879 20.6767 227.473 22.6997 229.166 24.3923C230.861 26.085 232.882 26.6766 235.024 27.3048C236.244 27.6258 237.434 28.049 238.583 28.57L238.639 28.5959C239.59 29.0551 240.46 29.6686 241.211 30.4116C243.044 32.2446 243.692 34.4576 244.318 36.5971C244.944 38.7367 245.538 40.7597 247.231 42.4545C248.924 44.1493 250.947 44.7387 253.089 45.367C254.748 45.8527 256.449 46.3536 257.987 47.4072V46.3752C256.488 45.4641 254.893 44.9935 253.331 44.5379C251.299 43.942 249.38 43.3807 247.842 41.8435C246.305 40.3063 245.743 38.3891 245.147 36.3553C244.499 34.11 243.811 31.7912 241.822 29.8006C241.041 29.0254 240.141 28.3796 239.157 27.8878C238.844 27.728 238.526 27.5855 238.209 27.456L238.112 27.4193C237.991 27.3696 237.872 27.3221 237.751 27.2768L237.496 27.1839L237.326 27.1213L236.976 27.0026L236.933 26.9896C236.371 26.8018 235.812 26.6377 235.259 26.4758C233.227 25.8799 231.308 25.3186 229.77 23.7814C228.233 22.2442 227.673 20.327 227.077 18.291C226.877 17.6066 226.671 16.9093 226.43 16.2141L226.384 16.0889C226.35 15.9917 226.313 15.8945 226.276 15.7952C226.24 15.6959 226.196 15.5901 226.155 15.4865C226.138 15.4433 226.123 15.4023 226.106 15.3613C225.974 15.0439 225.831 14.7309 225.674 14.4178C225.183 13.4327 224.537 12.5331 223.761 11.7536C221.772 9.76517 219.442 9.08508 217.207 8.42875C215.175 7.83287 213.255 7.27153 211.718 5.73433C210.18 4.19713 209.619 2.27994 209.023 0.246173C209.001 0.170608 208.98 0.0950432 208.956 0.0302734H208.055C208.096 0.164131 208.142 0.319578 208.187 0.475026Z" fill="#FFC844"/>
</g>
<path d="M79.9995 205V125.037H0.028038V205H79.9995Z" fill="#2B5243"/>
<path d="M0.0289314 125.182C5.84203 130.952 10.4547 137.816 13.6004 145.379C16.7462 152.941 18.3629 161.051 18.3571 169.242V204.963H36.0961V169.242C36.123 153.5 31.4803 138.103 22.7554 125H0L0.0289314 125.182Z" fill="#FFC844"/>
<path d="M79.9998 150.116V125.029H62.2244V158.549C62.2244 158.845 62.1065 159.13 61.8966 159.34C61.6866 159.55 61.4017 159.668 61.1048 159.668H0.0356445V177.442H52.6788C59.9255 177.44 66.8747 174.56 71.9982 169.436C77.1217 164.311 79.9998 157.362 79.9998 150.116Z" fill="#FC805F"/>
<path d="M18.3571 169.242V177.413H36.0962V169.242C36.0951 166.033 35.9057 162.826 35.5291 159.639H17.5938C18.0914 162.816 18.3466 166.026 18.3571 169.242Z" fill="#F3F1E5"/>
<path d="M160 42H80.0067V124.955H160V42Z" fill="#4CE467"/>
<path d="M80 106.516V124.955C101.216 124.955 121.562 116.215 136.564 100.658C151.566 85.101 159.993 64.0011 159.993 42H142.22C142.219 59.1115 135.662 75.5215 123.994 87.6205C112.326 99.7194 96.5006 106.516 80 106.516Z" fill="#766DFA"/>
</svg>
