<svg xmlns="http://www.w3.org/2000/svg" id="Layer_1" viewBox="0 0 266 266"><defs><style>      .st0 {        fill: #766dfa;      }      .st1 {        fill: #ffc844;      }      .st2 {        fill: #001705;      }    </style></defs><circle class="st2" cx="133" cy="133" r="131.5"></circle><g><g><path class="st0" d="M202.9,96.6h-5.9c-2.9,0-4.3-3.5-2.2-5.5l4.2-4.2c1.2-1.2,1.2-3.3,0-4.6l-12.9-12.9c-1.2-1.2-3.3-1.2-4.6,0l-4.2,4.2c-2.1,2.1-5.5.6-5.5-2.2v-7.2c0-1.1-.8-2-2-2h-19.5c-1.7,0-3.2,1.5-3.2,3.2v5.9c0,2.9-3.5,4.3-5.5,2.2l-4.2-4.2c-1.2-1.2-3.3-1.2-4.6,0l-12.9,12.9c-1.2,1.2-1.2,3.3,0,4.6l4.2,4.2c2.1,2.1.6,5.5-2.2,5.5h-5.9c-1.7,0-3.2,1.5-3.2,3.2v4.2c9.7,1.2,18.5,4.9,25.9,10.5-.5-1.7-.7-3.7-.7-5.6,0-11.9,9.7-21.6,21.6-21.6s21.6,9.7,21.6,21.6-9.7,21.6-21.6,21.6-5.2-.5-7.5-1.3c4.8,7.8,7.6,16.8,7.9,26.5h8.6c1.9,0,3.4-1.5,3.4-3.4v-5.7c0-2.9,3.5-4.3,5.5-2.2l4.2,4.2c1.2,1.2,3.3,1.2,4.6,0l12.9-12.9c1.2-1.2,1.2-3.3,0-4.6l-4.2-4.2c-2.1-2.1-.6-5.5,2.2-5.5h5.9c1.7,0,3.2-1.5,3.2-3.2v-18.3c0-1.7-1.5-3.2-3.2-3.2h0c0-.1-.2-.1-.2-.1h0Z"></path><circle class="st0" cx="159.3" cy="109" r="10.5"></circle></g><g><path class="st1" d="M152.3,155.8c-.8-22.6-17.8-41.1-39.7-44.2-2.1-.3-4.3-.5-6.6-.5-25.6,0-46.3,20.7-46.3,46.3s20.7,46.3,46.3,46.3,46.3-20.7,46.3-46.3,0-1.1,0-1.6h0ZM121.6,177.9h0c-2.7,2.6-7,4.9-13,6.7v6h-4.2v-4.7c-5.9,0-11.4-1.7-16.4-5.2l-1.7-12.5h6.6l2.6,7c2.5,3,5.5,4.7,8.9,5.1v-18.3l-6.2-3.1c-3.7-1.7-6.4-3.8-8-6-1.7-2.1-2.6-4.7-2.6-7.6s1.4-6.6,4.3-9.2,7-4.6,12.6-6.1v-5.6h4.2v4.9c2.6.1,5.2.6,7.9,1.3,1,.3,2,.7,2.9,1,1.5.6,2.9,1.3,4.1,2.1v12h-5.5l-2.2-7.1c-2.2-2.2-4.6-3.5-7.2-3.8v16.1l5.4,2.6c4.2,2.1,7.2,4.2,8.9,6.5,1.7,2.2,2.6,5,2.6,8.3s-1.3,7.2-4.1,9.8h0c0-.1,0-.2,0-.2Z"></path><path class="st1" d="M114.5,172.1c0,2-.6,3.7-1.6,5.1-1,1.3-2.5,2.2-4.3,2.8v-16.1c3.9,2.1,5.8,4.8,5.8,8.2h0Z"></path><path class="st1" d="M104.4,134.6v14.1l-.3-.2c-2.1-1-3.6-2.1-4.6-3.2s-1.5-2.6-1.5-4.2.6-3.1,1.7-4.3c1.2-1.2,2.6-1.8,4.6-2.1h0Z"></path></g></g></svg>