<svg xmlns="http://www.w3.org/2000/svg" id="Layer_1" viewBox="0 0 266 266"><defs><style>      .st0 {        fill: #766dfa;      }      .st1 {        fill: #ffc844;      }      .st2 {        fill: #001705;      }    </style></defs><circle class="st2" cx="133" cy="133" r="131.5"></circle><g><path class="st0" d="M81.7,165.8c-5.3,6.7-8.2,14.9-8.2,23.4v14.5c0,3.5,2.9,6.3,6.3,6.3h13.4c3,0,5.5-1.8,6.8-4.5,1.4-3,4-5.2,7.2-6l26-6.5c11.1-2.8,21.8-7.6,31.2-14l25.8-17.7c1.5-1.1,2.4-2.7,2.4-4.6v-.8c0-3-2.4-5.5-5.5-5.5-2,.3-4,.5-6,.7l-22.5,5.6c-3.7.9-6.9,3.3-9.2,6.3-.3.4-.7.7-1.1.8l-3.4,1.5c-3.9,1.7-7.8,3-11.9,4l-20.3,5.1c-2.3.6-4.6-.7-5.2-2.9-.6-2.3.8-4.5,3-5.1l27-6.8c1.8-.4,3.4-1.8,3.8-3.6.7-3.1-1.7-5.8-4.6-5.8h-25.7c-2.4,0-4.9.3-7.2.9l-3.9.9c-6.2,1.5-11.9,5.2-15.9,10.1l-2.6,3.2h0c0,.1.2.2.2.2Z"></path><g><path class="st0" d="M117.9,72.8l1.8-1.8,15.2-15.2,16.8,16.8c7.6,7.6,7.6,20,0,27.7l-16.8,16.8-16.8-16.8c-7.6-7.6-7.6-20,0-27.7h0c0,.1-.1.1-.1.1Z"></path><path class="st1" d="M151.6,72.8c1.6,1.6,2.9,3.5,3.9,5.5,3.4,7.3,2.2,16.2-3.9,22.2l-16.8,16.8-.3-61,1.7,1.1,15.5,15.5h-.1,0Z"></path><path class="st0" d="M135.3,138.6h-29.1c-13.2,0-23.8-10.7-23.8-23.8v-29.1h29.1c13.2,0,23.9,10.7,23.9,23.9v29.1h0c0-.1-.1-.1-.1-.1Z"></path><path class="st1" d="M135.3,109.5c0-13.2-10.7-23.8-23.9-23.8h-29.1l52.5,52.9.5-2.4v-26.7h.1Z"></path><path class="st0" d="M163.8,138.6h-29.1v-29.1c0-13.2,10.7-23.8,23.9-23.8h29.1v29.1c0,13.2-10.7,23.9-23.9,23.8Z"></path><path class="st1" d="M187.7,114.7c0,13.2-10.7,23.8-23.9,23.8h-29.1l52.5-52.9.5,2.4v26.7h.1Z"></path></g></g></svg>