<svg xmlns="http://www.w3.org/2000/svg" id="Layer_1" viewBox="0 0 266 266"><defs><style>      .st0 {        fill: #766dfa;      }      .st1 {        fill: #ffc844;      }      .st2 {        fill: #001705;      }    </style></defs><circle class="st2" cx="133" cy="133" r="131.5"></circle><g><path class="st0" d="M108.9,64.7v25.4h5.4v-5.6h9v5.6h7c4.8,0,9.1,2.1,11.9,5.4v-12.3l21.6,13-17.8,10.7v20.8h47.4v-63h-84.5ZM123.3,79.2h-9v-9h9v9ZM188,122.3h-9v-9h9v9ZM188,108h-9v-9h9s0,9,0,9ZM188,93.5h-9v-9h9v9ZM188,79.2h-9v-9h9v9Z"></path><path class="st1" d="M130.3,97h-58.2c-4.9,0-8.8,4-8.8,8.8v45.2l.3,2.3c1,3.8,4.5,6.6,8.5,6.6h11.4c.8-1.7,1.8-3.3,2.9-4.8h-14.3c-2.2,0-4.1-1.8-4.1-4.1v-2.2l10.5-10.5,9.7,9.7,29-29,16.9,17v6.8h4.8v-36.9c0-4.9-4-8.8-8.8-8.8h.2ZM85.1,125.2c-3.5,0-6.5-2.8-6.5-6.4s2.8-6.5,6.5-6.5,6.4,2.8,6.4,6.5-2.8,6.4-6.4,6.4Z"></path><path class="st0" d="M174.5,148.9c-.9-.2-1.8-.2-2.7-.2h-59.2c-.9,0-1.8,0-2.7.2-13.2,1.3-23.5,12.5-23.5,26.1s11.7,26.3,26.3,26.3,15.7-3.8,20.6-9.9h18c4.8,6.1,12.3,9.9,20.6,9.9,14.5,0,26.3-11.7,26.3-26.3s-10.2-24.8-23.5-26.1h.1-.1ZM125.5,177.8h-9.1v9.1h-7.5v-9.1h-9.1v-7.5h9.1v-9.1h7.5v9.1h9.1v7.5ZM166.4,190.7c-3.8,0-7-3.2-7-7s3.2-7,7-7,7,3.2,7,7-3.2,7-7,7ZM181.5,175.5c-3.8,0-7-3.2-7-7s3.2-7,7-7,7,3.2,7,7-3.2,7-7,7Z"></path></g></svg>