<svg xmlns="http://www.w3.org/2000/svg" id="Layer_1" viewBox="0 0 266 266"><defs><style>      .st0 {        fill: #766dfa;      }      .st1 {        fill: #ffc844;      }      .st2 {        fill: #001705;      }    </style></defs><circle class="st2" cx="133" cy="133" r="131.5"></circle><g><g><path class="st1" d="M156.1,69.3h-79.6c-9.6,0-17.3,7.8-17.3,17.3v58c0,.4,0,.8.2,1.2h-.2c0,7.3,6,13.3,13.3,13.3h78.8c2.7-1.9,5.6-3.5,8.7-4.8-3.3-3.1-5.8-7-7-11.5h-74.1c-6.2,0-11.3-5.1-11.3-11.3v-44.8c0-5,4.1-9.1,9.1-9.1h79.6c5.1,0,9.1,4.1,9.1,9.1v26.4c2.5-1.4,5.2-2.4,8.2-2.8v-23.5c0-9.6-7.8-17.3-17.3-17.3v-.2h0Z"></path><path class="st1" d="M136.8,175.3c-1.4,2.6-2.5,5.3-3.4,8.2h-37.4c-2.2,0-4.1-1.8-4.1-4.1s1.8-4.1,4.1-4.1h5.3c1.6,0,2.8-1.3,2.8-2.8,0-2.9,2.4-5.3,5.3-5.3h13.8c2.9,0,5.3,2.4,5.3,5.3s1.3,2.8,2.8,2.8h5.5-.1Z"></path></g><circle class="st1" cx="177.6" cy="135.5" r="20.5"></circle><path class="st0" d="M177.6,155.9c-22.7,0-40.9,18.4-40.9,40.9h81.9c0-22.7-18.4-40.9-40.9-40.9h-.1,0Z"></path></g></svg>