<svg xmlns="http://www.w3.org/2000/svg" id="Layer_1" viewBox="0 0 266 266"><defs><style>      .st0 {        fill: #766dfa;      }      .st1 {        fill: #ffc844;      }      .st2 {        fill: #001705;      }    </style></defs><circle class="st2" cx="133" cy="133" r="131.5"></circle><g id="Layer_11"><g><path class="st0" d="M193.5,136.9c-8.3-30.5-36.2-53-69.3-53s-61.3,22.5-69.6,53h138.9Z"></path><path class="st1" d="M199.8,156.8H59.4c-2.6,0-4.6-2.1-4.6-4.6v-24.6c0-7.3,5.9-13.2,13.2-13.2h132c11,0,20,8.9,20,20v2.5c-.1,11-9.1,20-20.1,20Z"></path><g><g><circle class="st0" cx="84.6" cy="156.8" r="15.5"></circle><circle class="st1" cx="84.6" cy="156.8" r="7.1"></circle></g><g><circle class="st0" cx="177.6" cy="156.8" r="15.5"></circle><circle class="st1" cx="177.6" cy="156.8" r="7.1"></circle></g></g><rect class="st0" x="46.1" y="141.3" width="8.7" height="11.6"></rect><path class="st0" d="M219.8,131.4h-4.6c-4.4,0-8.1-3.6-8.1-8.1v-1c0-4.4,3.6-8.1,8.1-8.1h4.6v17.1h0Z"></path></g></g></svg>