<svg width="174" height="145" viewBox="0 0 174 145" fill="none" xmlns="http://www.w3.org/2000/svg">
<path d="M166.299 97.2073L166.203 97.2537C163.983 98.2759 161.682 99.1069 159.324 99.7379C155.194 100.963 151.294 102.121 148.023 105.437C144.751 108.753 143.61 112.708 142.401 116.899C141.778 119.286 140.96 121.616 139.955 123.865L139.905 123.966C139.021 125.831 137.837 127.533 136.401 129.002C134.568 130.831 132.391 132.268 130 133.227C130.779 133.493 131.567 133.751 132.35 134C136.22 132.077 139.355 128.914 141.272 125.002V124.976C141.576 124.368 141.851 123.747 142.105 123.126C142.105 123.071 142.147 123.012 142.172 122.957C142.264 122.729 142.351 122.496 142.439 122.268C142.526 122.04 142.564 121.93 142.622 121.757C142.66 121.651 142.701 121.546 142.735 121.44C142.818 121.208 142.893 120.975 142.972 120.747C142.974 120.722 142.974 120.697 142.972 120.671C143.335 119.573 143.655 118.474 143.968 117.393C145.114 113.417 146.202 109.662 149.168 106.654C152.135 103.646 155.836 102.547 159.753 101.385C160.832 101.064 161.928 100.739 163.024 100.367L163.757 100.11L164.024 100.017L164.57 99.8097C164.774 99.7337 164.987 99.6491 165.178 99.5689L165.412 99.4759C166.023 99.2196 166.628 98.938 167.229 98.631H167.258C169.158 97.6725 170.893 96.4085 172.396 94.888C172.969 94.3051 173.505 93.6856 174 93.0333V90C173.232 91.3416 172.297 92.5769 171.216 93.6755C169.782 95.1208 168.12 96.3144 166.299 97.2073Z" fill="#FC805F" fill-opacity="0.33"/>
<path d="M173.513 141C173.665 140.521 173.827 140.047 174 139.582V136C173.171 137.54 172.499 139.21 172 140.968C172.506 140.986 173.01 140.997 173.513 141Z" fill="#FC805F" fill-opacity="0.33"/>
<path d="M154.778 41.5709C151.457 44.8827 150.297 48.8365 149.07 53.0269C147.843 57.2174 146.57 61.5429 142.978 65.1293C141.506 66.5869 139.802 67.7891 137.934 68.6861L137.845 68.7283C135.589 69.7511 133.251 70.582 130.855 71.2122C126.662 72.4372 122.698 73.5946 119.381 76.9106C116.063 80.2266 114.904 84.1805 113.673 88.3709C113.044 90.7582 112.214 93.0884 111.193 95.3366L111.143 95.438C110.245 97.3009 109.042 99.0013 107.584 100.469C103.992 104.06 99.6552 105.327 95.4622 106.552C92.4708 107.426 89.5979 108.271 87 109.881C87.4739 110.261 87.952 110.634 88.4343 111C90.736 109.699 93.2874 108.951 95.9403 108.174C100.341 106.886 104.885 105.559 108.786 101.664C110.306 100.139 111.572 98.381 112.535 96.4561V96.4307C112.844 95.8182 113.123 95.2015 113.381 94.5805C113.381 94.5256 113.427 94.4664 113.449 94.4073C113.542 94.1792 113.631 93.9511 113.719 93.723C113.808 93.4949 113.846 93.3851 113.906 93.2119L114.02 92.8951C114.104 92.6628 114.181 92.4304 114.261 92.198V92.1305C114.629 91.028 114.951 89.9297 115.272 88.844C116.436 84.8733 117.536 81.1221 120.548 78.1145C123.561 75.1068 127.318 74.0043 131.3 72.8427C132.396 72.5216 133.504 72.1964 134.613 71.8247L135.349 71.5754L135.632 71.474L136.174 71.2713L136.817 71.0221L137.033 70.9376C137.651 70.6799 138.268 70.4011 138.878 70.0927H138.903C140.833 69.1318 142.595 67.8683 144.124 66.3501C148.021 62.4596 149.354 57.9017 150.644 53.5254C151.808 49.5504 152.912 45.7993 155.925 42.7917C158.937 39.7841 162.694 38.6815 166.68 37.5199C169.19 36.8588 171.639 35.9841 174 34.9051V33C171.491 34.3517 168.817 35.1332 166.202 35.8978C162.06 37.0974 158.095 38.2592 154.778 41.5709Z" fill="#FC805F" fill-opacity="0.33"/>
<path d="M154.89 139.888C155.199 139.265 155.478 138.638 155.736 138.003C155.761 137.947 155.783 137.887 155.804 137.831C155.897 137.599 155.985 137.367 156.074 137.131L156.265 136.611C156.303 136.504 156.341 136.396 156.375 136.289C156.459 136.051 156.539 135.815 156.616 135.58V135.511C156.983 134.395 157.309 133.273 157.626 132.174C158.789 128.132 159.889 124.318 162.899 121.259C165.91 118.201 169.666 117.084 173.649 115.899L174 115.791V114L173.154 114.245C168.964 115.491 165.005 116.667 161.686 120.039C158.366 123.411 157.208 127.432 155.981 131.693C155.349 134.12 154.519 136.489 153.499 138.776L153.448 138.883C153.309 139.175 153.156 139.463 153 139.742C153.592 139.833 154.193 139.914 154.789 140C154.818 139.959 154.852 139.921 154.89 139.888Z" fill="#FC805F" fill-opacity="0.33"/>
<path d="M109.975 122.071C114.375 120.804 118.923 119.457 122.827 115.563C124.348 114.038 125.615 112.28 126.579 110.356V110.33C126.888 109.718 127.167 109.102 127.426 108.481L127.489 108.32C127.582 108.088 127.675 107.856 127.764 107.623C127.828 107.455 127.887 107.286 127.951 107.121C128.014 106.956 128.027 106.901 128.069 106.791C128.15 106.563 128.226 106.335 128.302 106.103C128.302 106.078 128.323 106.052 128.332 106.023C128.696 104.925 129.022 103.831 129.339 102.75C130.504 98.7759 131.609 95.0215 134.62 92.0146C137.63 89.0077 141.395 87.9097 145.388 86.7441C146.73 86.3556 148.094 85.9544 149.457 85.4771L149.72 85.3842L150.279 85.1773L150.905 84.9323L151.134 84.8437C151.757 84.586 152.375 84.3073 152.985 83.999H153.01C154.942 83.0399 156.706 81.7764 158.235 80.2572C162.135 76.3677 163.469 71.8109 164.76 67.44C165.925 63.466 167.03 59.7115 170.045 56.7046C171.204 55.5592 172.539 54.6068 174 53.8835V52C172.083 52.8485 170.337 54.0377 168.847 55.5095C165.523 58.8205 164.362 62.7775 163.134 66.9669C161.906 71.1563 160.632 75.4767 157.037 79.0622C155.567 80.5187 153.862 81.7192 151.994 82.6138L151.896 82.6603C149.64 83.6821 147.301 84.5127 144.905 85.1435C140.709 86.3682 136.741 87.5254 133.421 90.8405C130.097 94.1557 128.937 98.1087 127.705 102.298C127.075 104.683 126.245 107.012 125.224 109.258L125.173 109.363C124.273 111.227 123.07 112.928 121.612 114.397C118.017 117.983 113.676 119.25 109.48 120.475C107.951 120.922 106.452 121.361 105 121.898C105.661 122.269 106.317 122.641 106.982 123C107.968 122.658 108.963 122.367 109.975 122.071Z" fill="#FC805F" fill-opacity="0.33"/>
<path d="M80.9313 72.9637C82.4546 71.4411 83.7234 69.6871 84.6899 67.7677V67.7424C84.9996 67.1318 85.2796 66.5171 85.5384 65.8981C85.5384 65.8434 85.5808 65.7844 85.6063 65.7296C85.6996 65.498 85.7887 65.2707 85.8778 65.0433L86.0644 64.5381L86.179 64.2138C86.2596 63.9864 86.3402 63.7548 86.4165 63.5232L86.442 63.4517C86.8111 62.3569 87.1335 61.2621 87.4559 60.1799C88.6225 56.2218 89.7255 52.4785 92.746 49.4804C95.7665 46.4824 99.5336 45.3875 103.526 44.2296C104.624 43.9095 105.736 43.5811 106.852 43.2148L107.594 42.9621L107.865 42.8653L108.421 42.6632L109.049 42.419L109.278 42.3264C109.897 42.0737 110.513 41.793 111.123 41.4842H111.153C113.087 40.5249 114.854 39.2655 116.388 37.7535C120.295 33.8712 121.632 29.332 122.921 24.9696C124.092 21.0073 125.195 17.2682 128.216 14.2702C131.236 11.2721 135.003 10.1731 139.004 9.01095C143.411 7.74773 147.968 6.40454 151.879 2.52645C152.656 1.7444 153.365 0.899315 154 0H151.879C151.499 0.463671 151.095 0.907744 150.67 1.33056C147.068 4.90548 142.72 6.16866 138.516 7.39399C134.312 8.61931 130.337 9.76884 127.011 13.0743C123.685 16.3797 122.518 20.321 121.284 24.4939C120.049 28.6667 118.781 32.9827 115.179 36.5576C113.704 38.0091 111.995 39.206 110.122 40.0989L110.033 40.1452C107.771 41.164 105.427 41.9923 103.025 42.6211C98.8209 43.8422 94.8459 44.996 91.52 48.3014C88.194 51.6026 87.0317 55.5481 85.7972 59.7251C85.1669 62.1055 84.3338 64.4284 83.307 66.6686L83.2603 66.7697C82.3603 68.6266 81.1545 70.3216 79.6925 71.7847C76.0909 75.3597 71.7425 76.6228 67.5385 77.8482C64.8998 78.6145 62.3502 79.3556 60 80.6146C60.3309 81.082 60.6745 81.5368 61.0097 82C63.1775 80.8715 65.5531 80.181 68.0178 79.4736C72.4637 78.1724 77.0199 76.8418 80.9313 72.9637Z" fill="#FC805F" fill-opacity="0.33"/>
<path d="M53.6227 66.1102C58.0302 64.833 62.5904 63.4708 66.4974 59.5499C68.0232 58.0117 69.2935 56.238 70.2601 54.2964C70.2619 54.288 70.2619 54.2794 70.2601 54.271C70.574 53.6537 70.854 53.0321 71.1085 52.4063L71.1721 52.2403C71.2655 52.0061 71.3588 51.7719 71.4479 51.5378C71.5115 51.3717 71.5709 51.2015 71.6303 51.0354C71.6897 50.8694 71.7109 50.8141 71.7491 50.7034C71.8339 50.4692 71.9103 50.2394 71.9866 50.0052L72.0121 49.9328C72.3811 48.8259 72.7035 47.719 73.0217 46.6249C74.1925 42.6231 75.2954 38.8385 78.3158 35.8074C81.3361 32.7762 85.1031 31.6694 89.0949 30.4986C90.1936 30.1751 91.305 29.8473 92.4164 29.4727C92.6624 29.3932 92.9085 29.308 93.1545 29.2172L93.4387 29.115L93.9817 28.915C94.1995 28.8327 94.4158 28.7475 94.6308 28.6595L94.8386 28.5786C95.4622 28.3189 96.0816 28.038 96.6924 27.7272H96.7178C98.6515 26.7573 100.419 25.4839 101.953 23.9553C105.86 20.0301 107.196 15.4409 108.485 11.0304C109.656 7.02437 110.759 3.244 113.779 0.212861L114 0H111.739C109.096 3.1248 108.036 6.74334 106.92 10.5535C105.69 14.7724 104.417 19.1362 100.816 22.7505C99.3404 24.218 97.6314 25.4281 95.7591 26.3308L95.6658 26.3777C93.406 27.4082 91.063 28.2442 88.6622 28.8766C84.4583 30.1155 80.4835 31.2819 77.1577 34.6239C73.8319 37.9615 72.6696 41.9506 71.4352 46.1695C70.8045 48.5741 69.9729 50.921 68.9493 53.1854L68.8984 53.2961C67.9969 55.1726 66.7913 56.8859 65.3308 58.3664C61.7293 61.9807 57.3812 63.258 53.1773 64.4968C52.0998 64.8118 51.0563 65.1225 50 65.4674C50.2672 65.9782 50.5303 66.4934 50.806 67C51.7138 66.6807 52.6683 66.3912 53.6227 66.1102Z" fill="#FC805F" fill-opacity="0.33"/>
<path d="M55.5405 39.5124C55.5405 39.5124 55.5405 39.5123 55.5405 39.4914C55.8563 38.8828 56.138 38.2701 56.394 37.6532L56.4666 37.4769C56.5605 37.2545 56.6501 37.0279 56.7354 36.8013C56.8208 36.5747 56.8677 36.4614 56.9274 36.2893L57.0427 35.9787L57.2859 35.282C57.2841 35.2611 57.2841 35.24 57.2859 35.2191C57.6529 34.1238 57.9815 33.0326 58.3015 31.954C59.4794 28.0091 60.5889 24.2782 63.6273 21.2901C66.6657 18.3021 70.4552 17.2108 74.4794 16.0525C75.8321 15.6622 77.2105 15.2635 78.5846 14.7935L78.8279 14.7096L79.4125 14.4956C79.6131 14.4242 79.8136 14.3446 80.0142 14.2648L80.2703 14.164C80.8976 13.9122 81.5164 13.631 82.1352 13.3246C84.0804 12.3685 85.8581 11.1134 87.4011 9.60639C90.3883 6.66867 91.8862 3.3448 93 0H91.1992C90.1622 2.97129 88.771 5.87546 86.1934 8.41868C84.7093 9.86533 82.9902 11.0583 81.1067 11.9482L81.0085 11.9943C78.7369 13.0109 76.3813 13.8351 73.9673 14.4578C69.734 15.6791 65.7397 16.829 62.3898 20.1234C59.0441 23.4137 57.8748 27.346 56.633 31.5049C55.9997 33.8776 55.1617 36.1928 54.128 38.4254C54.128 38.4631 54.0981 38.4967 54.0811 38.5303C53.1757 40.3811 51.9628 42.0704 50.4922 43.5287C47.9317 46.0467 44.9915 47.4148 42 48.4304C42.1963 48.955 42.4012 49.4796 42.606 50C45.7724 48.9256 48.9004 47.4819 51.6956 44.7163C53.254 43.1967 54.5524 41.4394 55.5405 39.5124Z" fill="#FC805F" fill-opacity="0.33"/>
<path d="M170.247 3.33828C169.032 7.55805 167.775 11.9227 164.218 15.5378C160.661 19.1529 156.366 20.4303 152.214 21.6694C148.062 22.9085 144.136 24.071 140.851 27.4136C137.566 30.7562 136.414 34.7418 135.195 38.9616C133.975 43.1813 132.723 47.5458 129.165 51.161C127.708 52.6288 126.02 53.839 124.171 54.742L124.079 54.7889C121.846 55.8191 119.532 56.6566 117.161 57.2926C113.009 58.5274 109.083 59.6941 105.798 63.0367C102.514 66.3793 101.366 70.365 100.146 74.589C99.5238 76.9962 98.701 79.3452 97.6868 81.6106C97.6732 81.6454 97.6578 81.6796 97.6407 81.7128C96.7518 83.5906 95.5609 85.3046 94.117 86.7841C90.5598 90.3993 86.2652 91.681 82.113 92.9159C78.87 93.8824 75.7695 94.8107 73 96.7481C73.3897 97.174 73.7793 97.5997 74.1773 98C76.6913 96.2968 79.5781 95.4451 82.5823 94.5424C86.9398 93.2437 91.4397 91.9067 95.3028 87.9807C96.8091 86.4426 98.0625 84.6684 99.015 82.7262V82.7007C99.3209 82.0833 99.5974 81.4615 99.853 80.8356C99.853 80.7802 99.8949 80.7207 99.92 80.6653C100.012 80.4354 100.1 80.2011 100.188 79.9712C100.276 79.7413 100.314 79.6263 100.373 79.456L100.486 79.1366C100.569 78.9024 100.645 78.6683 100.72 78.4341L100.745 78.3616C101.11 77.2545 101.428 76.1475 101.747 75.0532C102.899 71.0506 103.988 67.2651 106.972 64.2333C109.955 61.2015 113.675 60.0944 117.626 58.9192C118.955 58.5232 120.308 58.1187 121.657 57.6418L121.896 57.5566L122.47 57.3437L123.061 57.1052C123.145 57.0712 123.233 57.0414 123.316 57.0031C123.928 56.7476 124.54 56.4665 125.143 56.1514C127.054 55.1828 128.8 53.9092 130.313 52.3788C134.172 48.4529 135.492 43.8626 136.766 39.4555C137.922 35.4486 139.012 31.6632 141.995 28.6314C144.978 25.5997 148.699 24.4883 152.65 23.3173C157.003 22.0186 161.503 20.6815 165.366 16.7555C169.229 12.8296 170.545 8.23941 171.818 3.83228C172.196 2.52079 172.568 1.23911 173 0H171.228C170.913 1.0773 170.591 2.20137 170.247 3.33828Z" fill="#FC805F" fill-opacity="0.33"/>
<path d="M41.7317 26.0672C41.7317 26.0672 41.7317 26.0673 41.7317 26.0459C42.0339 25.4257 42.3087 24.7998 42.556 24.1682L42.6137 24.0054C42.7085 23.7696 42.7992 23.5338 42.8857 23.2937C42.9476 23.1266 43.0052 22.9551 43.0629 22.7879C43.1207 22.6208 43.1413 22.565 43.1784 22.4536C43.2567 22.2178 43.335 21.9864 43.4092 21.7549L43.4339 21.6734C43.7925 20.5588 44.1057 19.4443 44.4149 18.3469C45.5524 14.3174 46.6241 10.5066 49.5546 7.45448C52.4851 4.40237 56.1492 3.28785 60.0318 2.10901C61.0994 1.78322 62.1792 1.4489 63.2632 1.07596C63.5064 0.994513 63.7454 0.908738 63.9886 0.818718L64.2524 0.720132L64.7883 0.51438L65.4024 0.26572L65.6249 0.171425C65.7486 0.119985 65.8764 0.0600135 66 0H61.054C60.5594 0.158607 60.0648 0.308565 59.5702 0.458599C55.4815 1.70602 51.6237 2.88057 48.3882 6.24132C45.1568 9.60208 44.0233 13.6187 42.828 17.8668C42.2153 20.2881 41.4073 22.6512 40.4127 24.9313C40.3974 24.9697 40.3795 25.0069 40.3592 25.0427C39.5068 26.8843 38.3723 28.5694 37 30.0324C37.136 30.6882 37.2679 31.3484 37.4122 32C37.6306 31.7942 37.849 31.5713 38.0592 31.3613C39.548 29.8124 40.7879 28.025 41.7317 26.0672Z" fill="#FC805F" fill-opacity="0.33"/>
<path d="M71.3349 107.118L71.3349 97L48 97L48 145L95.9728 145L95.9728 142.623C88.7384 139.924 82.5015 135.076 78.098 128.731C73.6944 122.385 71.3347 114.844 71.3349 107.118Z" fill="#2B5243"/>
<path d="M71.3359 107.118C71.3377 114.847 73.7014 122.39 78.11 128.736C82.5186 135.082 88.7612 139.928 96.0006 142.623L96.0006 119.017C96.0006 118.953 96.0006 118.889 96.0006 118.819L96.0006 96.9997L71.3359 96.9997L71.3359 107.118Z" fill="#FFC844"/>
<path d="M0 67.0879V97.0003H36.0416C21.5952 90.3869 9.15943 80.066 0 67.0879Z" fill="#FC805F"/>
<path d="M47.9987 80.4247V49H12.1503C20.0493 63.3479 32.7362 74.4693 47.9987 80.4247Z" fill="#FC805F"/>
<path d="M48 80.4247C32.7376 74.4693 20.0506 63.3479 12.1516 49H0V67.0719C9.15943 80.05 21.5952 90.3709 36.0416 96.9843H48V80.4247Z" fill="#F3F1E5"/>
</svg>
