<svg width="160" height="160" viewBox="0 0 160 160" fill="none" xmlns="http://www.w3.org/2000/svg">
<path d="M118.891 96.8639L118.891 80.0002L80 80.0002L80 160L159.954 160L159.954 156.039C147.897 151.54 137.502 143.461 130.163 132.884C122.824 122.308 118.891 109.74 118.891 96.8639Z" fill="#2B5243"/>
<path d="M118.893 96.8661C118.896 109.747 122.835 122.319 130.183 132.896C137.53 143.473 147.935 151.549 160 156.041L160 116.698C160 116.591 160 116.484 160 116.367L160 80.0024L118.893 80.0024L118.893 96.8661Z" fill="#FFC844"/>
<path d="M0 30.1465V80.0001H60.0689C35.9917 68.9779 15.2656 51.7765 0 30.1465Z" fill="#FC805F"/>
<path d="M79.9969 52.374V0H20.25C33.415 23.9131 54.5597 42.4485 79.9969 52.374Z" fill="#FC805F"/>
<path d="M79.9994 52.374C54.5622 42.4485 33.4175 23.9131 20.2525 0H0V30.1196C15.2656 51.7496 35.9917 68.951 60.0689 79.9732H79.9994V52.374Z" fill="#F3F1E5"/>
</svg>
