<svg width="253" height="253" viewBox="0 0 253 253" fill="none" xmlns="http://www.w3.org/2000/svg">
<g opacity="0.33">
<path d="M243.33 129.864C242.277 133.451 241.191 137.16 238.118 140.233C235.045 143.306 231.336 144.392 227.749 145.445C224.162 146.499 220.771 147.487 217.933 150.328C215.095 153.169 214.1 156.557 213.051 160.144C212.001 163.73 210.912 167.44 207.839 170.513C206.58 171.761 205.122 172.789 203.524 173.557L203.445 173.597C201.516 174.473 199.517 175.185 197.469 175.725C193.882 176.775 190.491 177.766 187.653 180.607C184.816 183.445 183.824 186.836 182.771 190.427C182.233 192.472 181.523 194.469 180.65 196.395L180.606 196.482C179.839 198.078 178.81 199.535 177.563 200.793C174.49 203.866 170.78 204.955 167.193 206.005C163.606 207.054 160.215 208.046 157.377 210.887C154.54 213.728 153.544 217.116 152.495 220.703C151.518 224.04 150.504 227.482 147.895 230.421L149.27 231.04C151.872 227.956 152.889 224.481 153.881 221.112C154.873 217.742 155.821 214.488 158.398 211.911C160.975 209.334 164.189 208.39 167.598 207.394C171.363 206.309 175.25 205.15 178.587 201.817C179.887 200.508 180.969 199.001 181.794 197.351V197.329C182.058 196.804 182.297 196.276 182.518 195.744C182.518 195.697 182.554 195.646 182.575 195.599C182.655 195.403 182.731 195.204 182.807 195.009C182.883 194.814 182.916 194.716 182.966 194.571C183.017 194.426 183.035 194.39 183.064 194.296C183.136 194.101 183.202 193.901 183.27 193.702C183.275 193.681 183.281 193.661 183.288 193.641C183.603 192.7 183.882 191.759 184.153 190.829C185.149 187.426 186.09 184.209 188.667 181.632C191.244 179.055 194.458 178.114 197.867 177.115C199.015 176.782 200.184 176.434 201.349 176.029L201.566 175.949L202.055 175.772C202.229 175.707 202.417 175.634 202.576 175.566L202.782 175.482C203.316 175.265 203.843 175.024 204.364 174.759H204.382C206.032 173.934 207.54 172.851 208.848 171.552C212.182 168.215 213.322 164.313 214.426 160.563C215.421 157.158 216.366 153.944 218.943 151.367C221.52 148.79 224.734 147.845 228.143 146.846C231.904 145.76 235.791 144.606 239.128 141.272C242.465 137.939 243.602 134.033 244.702 130.287C245.701 126.881 246.642 123.664 249.219 121.087C250.232 120.086 251.4 119.256 252.679 118.629V117.008C251.011 117.738 249.492 118.77 248.198 120.052C245.372 122.886 244.369 126.277 243.33 129.864Z" fill="#FC805F"/>
<path d="M251.912 169.608C248.325 170.657 244.934 171.653 242.096 174.49C239.259 177.328 238.263 180.719 237.214 184.306C236.164 187.893 235.075 191.603 232.002 194.676C230.745 195.925 229.286 196.954 227.688 197.719L227.612 197.759C225.682 198.636 223.682 199.348 221.632 199.887C218.046 200.937 214.654 201.929 211.817 204.77C208.975 207.611 207.984 210.999 206.934 214.589C206.393 216.633 205.682 218.628 204.81 220.554L204.766 220.645C203.998 222.241 202.969 223.698 201.722 224.955C198.649 228.028 194.94 229.118 191.353 230.167C187.766 231.217 184.375 232.212 181.537 235.05C179.535 237.051 178.453 239.328 177.617 241.753L179.003 242.176C179.782 239.936 180.78 237.851 182.561 236.074C185.138 233.497 188.352 232.552 191.762 231.557C195.522 230.453 199.409 229.317 202.746 225.98C204.049 224.673 205.132 223.165 205.953 221.513V221.495C206.218 220.97 206.46 220.438 206.677 219.906L206.728 219.776C206.81 219.573 206.889 219.371 206.967 219.168C207.021 219.027 207.072 218.886 207.122 218.744C207.173 218.603 207.195 218.553 207.227 218.455C207.296 218.263 207.361 218.068 207.426 217.872C207.426 217.847 207.444 217.825 207.452 217.8C207.763 216.859 208.042 215.918 208.313 214.991C209.308 211.589 210.253 208.371 212.826 205.794C215.4 203.217 218.617 202.276 222.031 201.277C223.178 200.944 224.347 200.597 225.512 200.192L225.722 200.116L226.215 199.935C226.388 199.869 226.576 199.801 226.732 199.728L226.946 199.645C227.474 199.428 228.002 199.189 228.524 198.921H228.545C230.197 198.099 231.705 197.016 233.012 195.714C236.349 192.381 237.485 188.476 238.589 184.73C239.585 181.324 240.529 178.106 243.106 175.529C245.683 172.952 248.897 172.007 252.307 171.012L252.669 170.9V169.391L251.912 169.608Z" fill="#FC805F"/>
<path d="M25.4955 79.0032C28.0725 76.4262 31.2865 75.4816 34.6959 74.4862C38.4565 73.3823 42.3473 72.2459 45.6808 68.9088C46.9834 67.604 48.0663 66.0969 48.8875 64.4461V64.428C49.1517 63.9032 49.3942 63.3712 49.6114 62.8391C49.6114 62.7957 49.6476 62.7522 49.6621 62.7088C49.7465 62.5061 49.8261 62.3034 49.9009 62.1007C49.9552 61.9596 50.0059 61.8184 50.0565 61.6772C50.1072 61.5361 50.129 61.4855 50.1615 61.3914C50.2303 61.1959 50.2955 61.0004 50.3606 60.805L50.386 60.7326C50.6972 59.7916 50.9759 58.8542 51.2473 57.9276C52.2427 54.5218 53.1873 51.3042 55.7607 48.7272C58.3341 46.1502 61.5518 45.2091 64.9648 44.2137C66.1122 43.8771 67.2776 43.5333 68.443 43.1279L68.6674 43.0483L69.1488 42.871C69.3261 42.8058 69.5108 42.7335 69.6809 42.6611L69.8799 42.585C70.4083 42.3642 70.9368 42.1253 71.458 41.8611H71.4797C73.1316 41.04 74.6398 39.9571 75.946 38.6544C79.283 35.321 80.4196 31.4156 81.5235 27.6696C82.5188 24.2637 83.4634 21.0461 86.0404 18.4691C88.6174 15.8922 91.8314 14.9511 95.2409 13.9522C99.0014 12.8664 102.892 11.7118 106.226 8.37475C108.788 5.81223 110.051 2.92394 111.003 0.0175781H109.476C108.593 2.60181 107.413 5.14262 105.201 7.35044C102.129 10.4269 98.4187 11.5127 94.8319 12.5623C91.2451 13.6119 87.8537 14.6072 85.0161 17.4448C82.1785 20.2824 81.1832 23.6738 80.1336 27.2642C79.084 30.8547 77.9982 34.5573 74.9217 37.6301C73.6651 38.8795 72.208 39.9097 70.611 40.6777L70.5314 40.7138C68.6017 41.5901 66.6015 42.3021 64.5522 42.8421C60.9654 43.8917 57.5777 44.8834 54.7365 47.7246C51.8953 50.5658 50.9035 53.9535 49.8539 57.5439C49.3145 59.5883 48.6038 61.5836 47.7293 63.5086L47.6859 63.6027C46.9175 65.1986 45.8888 66.6554 44.642 67.9135C41.5691 70.9863 37.8593 72.0721 34.2725 73.1217C30.6857 74.1713 27.2943 75.1667 24.4567 78.0043C21.6191 80.8419 20.6238 84.2333 19.5742 87.8237C19.0411 89.8266 18.3489 91.7836 17.5039 93.6762C17.7392 94.2698 17.9744 94.8633 18.2278 95.4569C19.538 93.1151 20.2655 90.6467 20.9749 88.2181C21.9739 84.7942 22.9185 81.5911 25.4955 79.0032Z" fill="#FC805F"/>
<path d="M33.0596 100.296C34.0549 96.8905 34.9996 93.6728 37.5766 91.0958C40.1536 88.5188 43.3676 87.5778 46.7771 86.5788C50.5376 85.493 54.4284 84.3385 57.7618 81.0014C59.0645 79.6965 60.1474 78.1895 60.9686 76.5387V76.5169C61.2316 75.9909 61.4729 75.4625 61.6925 74.9317C61.7142 74.8846 61.7323 74.834 61.7504 74.787C61.83 74.5915 61.9097 74.396 61.9821 74.197C62.0364 74.0522 62.0906 73.9074 62.1413 73.759C62.1775 73.6685 62.2101 73.578 62.2427 73.4876C62.3114 73.2885 62.3802 73.0895 62.4454 72.894L62.467 72.8288C62.7783 71.8878 63.057 70.9467 63.3285 70.0202C64.3274 66.6143 65.2685 63.3967 67.8455 60.8198C70.4224 58.2428 73.6364 57.3053 77.0423 56.3064C77.9761 56.0313 78.928 55.7526 79.8799 55.4341L80.5169 55.2133L80.7485 55.1337L81.2226 54.9564C81.4 54.8912 81.5846 54.8224 81.7511 54.7501L81.9538 54.6704C82.487 54.4509 83.0131 54.2096 83.5319 53.9466H83.5571C85.2079 53.1254 86.715 52.0424 88.0198 50.7398C91.3569 47.4063 92.4934 43.5011 93.5973 39.755C94.5962 36.3492 95.5372 33.1315 98.1142 30.5545C100.691 27.9775 103.905 27.0328 107.315 26.0375C111.075 24.9517 114.966 23.7972 118.3 20.4601C121.633 17.123 122.773 13.2213 123.877 9.47525C124.872 6.06942 125.817 2.85182 128.394 0.274823C128.481 0.187958 128.571 0.10473 128.662 0.0214844H126.66C124.358 2.6962 123.443 5.81249 122.487 9.06992C121.438 12.6567 120.348 16.3629 117.275 19.4358C114.202 22.5086 110.493 23.5981 106.906 24.6477C103.319 25.6974 99.9276 26.6927 97.09 29.5303C94.2524 32.3679 93.2571 35.7592 92.2075 39.3496C91.1579 42.94 90.072 46.6427 86.9955 49.7155C85.7379 50.9638 84.2811 51.9937 82.6849 52.763L82.6017 52.8029C80.6735 53.6758 78.6759 54.3865 76.6297 54.9274C73.0393 55.977 69.6515 56.9687 66.8103 59.8099C63.9691 62.6511 62.9774 66.0389 61.9277 69.6293C61.3868 71.6744 60.6762 73.6708 59.8032 75.5977L59.7597 75.6846C58.9922 77.282 57.9635 78.7401 56.7159 79.9988C53.643 83.0717 49.9331 84.1574 46.3463 85.2071C42.7595 86.2567 39.3682 87.252 36.5306 90.0896C33.693 92.9272 32.6977 96.3186 31.6481 99.909C30.5985 103.499 29.5127 107.202 26.4362 110.278C26.0788 110.636 25.7031 110.974 25.3105 111.292L25.9621 112.624C26.4874 112.212 26.9877 111.77 27.4604 111.299C30.8265 107.958 31.9557 104.057 33.0596 100.296Z" fill="#FC805F"/>
<path d="M9.43481 32.6752C10.7353 31.3671 11.8179 29.8592 12.6416 28.2089V28.1872C12.9058 27.6624 13.1447 27.1339 13.3655 26.6019C13.3655 26.5548 13.4017 26.5042 13.4234 26.4571C13.503 26.2581 13.5791 26.0626 13.6551 25.8671L13.8143 25.4328L13.912 25.1541C13.9844 24.9587 14.0496 24.7597 14.1183 24.5606V24.499C14.4332 23.558 14.7119 22.6169 14.9833 21.6867C15.9787 18.2845 16.9197 15.0705 19.4967 12.4899C22.0737 9.90932 25.2878 8.97191 28.6972 7.97658C29.631 7.70151 30.5792 7.42285 31.5311 7.10434C31.741 7.03558 31.9546 6.96315 32.1645 6.88715L32.3962 6.80391L32.8703 6.63018C33.0476 6.56504 33.2322 6.49262 33.4059 6.42023L33.6014 6.34062C34.1298 6.12345 34.6583 5.88458 35.1758 5.61674H35.2012C36.8499 4.79209 38.3564 3.70951 39.6638 2.40994C40.3972 1.6752 41.0611 0.874386 41.6473 0.0175781H39.8376C39.4627 0.497721 39.0591 0.954617 38.6287 1.38571C37.3692 2.63333 35.9112 3.66314 34.3144 4.4332L34.2384 4.4658C32.3095 5.34485 30.3092 6.05799 28.2592 6.59758C24.6724 7.6472 21.2811 8.6389 18.4435 11.4801C15.6023 14.3213 14.6106 17.7091 13.5573 21.2995C13.0187 23.3448 12.3091 25.3413 11.4363 27.2679L11.3929 27.3547C10.6251 28.9509 9.59629 30.4078 8.349 31.6654C6.55356 33.4128 4.39805 34.7469 2.0332 35.5743C2.10197 36.0629 2.17439 36.5516 2.24678 37.0402C4.79482 36.1172 7.23423 34.8758 9.43481 32.6752Z" fill="#FC805F"/>
<path d="M136.218 220.018C139.551 216.681 140.692 212.779 141.792 209.033C142.791 205.627 143.732 202.41 146.309 199.833C148.886 197.256 152.1 196.311 155.513 195.316C159.273 194.212 163.161 193.071 166.498 189.738C167.797 188.429 168.88 186.922 169.704 185.272V185.25C169.969 184.725 170.208 184.197 170.428 183.665C170.446 183.618 170.465 183.567 170.486 183.52C170.566 183.321 170.642 183.125 170.718 182.93C170.794 182.735 170.823 182.64 170.877 182.492L170.975 182.217C171.047 182.022 171.112 181.823 171.178 181.623L171.199 181.562C171.514 180.621 171.789 179.68 172.064 178.75C173.06 175.347 174.001 172.13 176.578 169.553C179.155 166.976 182.369 166.035 185.782 165.036C186.712 164.764 187.657 164.486 188.601 164.171H188.63C188.84 164.102 189.046 164.033 189.253 163.957L189.499 163.87L189.958 163.7L190.509 163.487L190.693 163.411C191.222 163.194 191.75 162.955 192.271 162.687H192.293C193.941 161.861 195.448 160.779 196.756 159.48C200.089 156.143 201.229 152.241 202.33 148.492C203.329 145.086 204.27 141.872 206.85 139.295C209.431 136.718 212.641 135.773 216.051 134.774C219.811 133.688 223.698 132.534 227.035 129.2C230.373 125.867 231.509 121.962 232.609 118.216C233.608 114.81 234.549 111.592 237.126 109.015C239.703 106.438 242.917 105.493 246.33 104.498C248.444 103.876 250.598 103.246 252.668 102.222V100.582C250.496 101.766 248.187 102.442 245.921 103.116C242.335 104.165 238.943 105.157 236.106 107.998C233.268 110.839 232.273 114.227 231.219 117.814C230.166 121.401 229.084 125.11 226.011 128.183C222.938 131.256 219.228 132.342 215.642 133.395C212.055 134.448 208.663 135.437 205.826 138.278C202.988 141.119 201.993 144.503 200.94 148.093C199.886 151.684 198.804 155.39 195.731 158.463C194.473 159.711 193.015 160.739 191.417 161.507L191.341 161.543C189.413 162.423 187.412 163.135 185.362 163.671C181.775 164.725 178.384 165.716 175.546 168.557C172.709 171.395 171.717 174.786 170.664 178.377C170.126 180.423 169.415 182.42 168.539 184.345L168.499 184.432C167.731 186.028 166.703 187.485 165.455 188.743C162.382 191.816 158.673 192.901 155.086 193.955C151.499 195.008 148.108 195.996 145.27 198.837C142.432 201.678 141.437 205.066 140.384 208.653C139.331 212.24 138.249 215.95 135.176 219.022C133.956 220.231 132.549 221.234 131.01 221.994L132.53 222.823C133.882 222.061 135.123 221.117 136.218 220.018Z" fill="#FC805F"/>
<path d="M101.066 201.429C104.83 200.343 108.717 199.189 112.055 195.855C115.392 192.522 116.528 188.617 117.628 184.867C118.627 181.465 119.568 178.247 122.145 175.667C124.722 173.086 127.936 172.148 131.346 171.15C135.106 170.064 138.997 168.909 142.331 165.576C143.632 164.268 144.716 162.76 145.541 161.109C145.809 160.585 146.048 160.056 146.265 159.524C146.283 159.473 146.301 159.426 146.323 159.376C146.402 159.18 146.478 158.985 146.554 158.789L146.714 158.348L146.811 158.076C146.88 157.881 146.949 157.682 147.014 157.483L147.036 157.421C147.347 156.48 147.626 155.539 147.897 154.609C148.896 151.207 149.837 147.989 152.414 145.412C154.991 142.835 158.205 141.894 161.618 140.895C162.766 140.559 163.935 140.215 165.1 139.809L165.306 139.737C165.473 139.675 165.639 139.618 165.802 139.552L166.313 139.353L166.533 139.266C167.062 139.049 167.587 138.807 168.111 138.543H168.13C169.779 137.718 171.287 136.635 172.596 135.336C175.929 131.999 177.069 128.097 178.17 124.347C179.169 120.942 180.11 117.724 182.687 115.147C185.264 112.57 188.478 111.629 191.887 110.63C195.651 109.544 199.538 108.39 202.876 105.056C206.213 101.723 207.349 97.8173 208.449 94.0712C209.448 90.6654 210.389 87.4478 212.966 84.8708C215.543 82.2938 218.757 81.3492 222.167 80.3502C225.931 79.2644 229.818 78.1099 233.155 74.7764C236.492 71.443 237.629 67.5376 238.729 63.7916C239.728 60.3857 240.669 57.1681 243.246 54.5912C245.823 52.0142 249.037 51.0695 252.447 50.0706L252.671 50.0053V48.4961L252.037 48.6843C248.451 49.7339 245.063 50.7256 242.222 53.5668C239.381 56.4081 238.392 59.7958 237.339 63.3826C236.286 66.9694 235.204 70.6793 232.131 73.7521C229.058 76.825 225.348 77.9107 221.761 78.964C218.175 80.0172 214.783 81.0053 211.942 83.8465C209.101 86.6877 208.113 90.0755 207.059 93.6623C206.006 97.2491 204.924 100.959 201.851 104.032C198.778 107.105 195.068 108.19 191.482 109.24C187.895 110.29 184.504 111.285 181.666 114.126C178.828 116.967 177.833 120.352 176.78 123.942C175.727 127.532 174.644 131.239 171.572 134.312C170.312 135.558 168.854 136.587 167.257 137.355L167.178 137.395C165.25 138.271 163.25 138.982 161.202 139.52C157.615 140.573 154.224 141.565 151.386 144.402C148.549 147.24 147.557 150.631 146.504 154.218C145.966 156.264 145.257 158.26 144.383 160.186L144.339 160.277C143.571 161.873 142.543 163.33 141.295 164.588C138.223 167.66 134.513 168.746 130.926 169.8C127.339 170.853 123.948 171.841 121.107 174.682C118.265 177.523 117.277 180.911 116.224 184.498C115.171 188.085 114.089 191.794 111.016 194.867C107.943 197.94 104.233 199.026 100.646 200.076C99.9224 200.293 99.1985 200.503 98.4746 200.731L99.8898 201.816L101.066 201.429Z" fill="#FC805F"/>
<path d="M165.956 233.19C166.955 229.784 167.896 226.567 170.477 223.99C173.057 221.413 176.268 220.468 179.677 219.473C183.438 218.369 187.325 217.229 190.662 213.895C191.962 212.587 193.045 211.079 193.869 209.429V209.407C194.133 208.886 194.372 208.354 194.593 207.822C194.593 207.771 194.632 207.724 194.65 207.674C194.73 207.478 194.806 207.283 194.882 207.087C194.958 206.892 194.991 206.794 195.041 206.646L195.139 206.378C195.212 206.179 195.28 205.976 195.345 205.777V205.723C195.66 204.782 195.935 203.837 196.21 202.907C197.206 199.505 198.147 196.287 200.724 193.71C203.301 191.133 206.515 190.192 209.924 189.197C210.858 188.922 211.806 188.643 212.755 188.324H212.773C212.983 188.256 213.189 188.183 213.399 188.107L213.641 188.024C213.797 187.966 213.953 187.912 214.105 187.85L214.655 187.637L214.839 187.564C215.368 187.343 215.896 187.105 216.417 186.84H216.443C218.091 186.015 219.597 184.933 220.905 183.634C224.239 180.3 225.379 176.395 226.483 172.645C227.478 169.239 228.423 166.025 231 163.448C233.577 160.871 236.791 159.927 240.2 158.931C243.961 157.828 247.848 156.691 251.185 153.354C251.713 152.825 252.203 152.262 252.655 151.667V149.047C251.974 150.248 251.136 151.352 250.161 152.33C247.088 155.403 243.378 156.488 239.791 157.542C236.205 158.595 232.813 159.583 229.976 162.424C227.138 165.265 226.143 168.649 225.093 172.24C224.043 175.83 222.954 179.536 219.881 182.609C218.622 183.857 217.164 184.887 215.567 185.657L215.491 185.693C213.561 186.569 211.561 187.281 209.512 187.821C205.925 188.871 202.534 189.863 199.696 192.704C196.855 195.545 195.863 198.933 194.81 202.523C194.272 204.566 193.563 206.561 192.689 208.484L192.645 208.582C191.877 210.176 190.848 211.632 189.601 212.889C186.529 215.962 182.819 217.051 179.232 218.101C175.645 219.151 172.254 220.146 169.416 222.983C166.579 225.821 165.583 229.212 164.534 232.799C164.139 234.142 163.741 235.499 163.234 236.838L164.595 237.345C165.149 235.959 165.554 234.569 165.956 233.19Z" fill="#FC805F"/>
<path d="M249.683 224.351L249.911 224.272L250.385 224.094L250.917 223.888L251.116 223.808C251.65 223.589 252.176 223.348 252.695 223.085V221.441C252.416 221.597 252.137 221.745 251.851 221.887L251.775 221.923C249.847 222.799 247.848 223.51 245.8 224.051C242.209 225.101 238.821 226.092 235.98 228.934C233.139 231.775 232.147 235.162 231.098 238.753C230.557 240.797 229.847 242.792 228.973 244.718L228.93 244.808C228.162 246.406 227.133 247.864 225.886 249.122C225.028 249.976 224.074 250.725 223.041 251.356C223.765 251.439 224.507 251.522 225.242 251.598C225.829 251.153 226.387 250.669 226.91 250.15C228.214 248.845 229.297 247.336 230.117 245.684V245.666C230.381 245.141 230.62 244.613 230.841 244.077C230.863 244.03 230.881 243.979 230.899 243.932C230.978 243.737 231.054 243.541 231.13 243.342L231.293 242.904C231.326 242.814 231.358 242.723 231.387 242.633C231.46 242.435 231.528 242.236 231.594 242.036L231.612 241.978C231.927 241.037 232.205 240.092 232.477 239.165C233.472 235.76 234.417 232.546 236.99 229.969C239.563 227.392 242.781 226.451 246.191 225.452C247.128 225.177 248.076 224.898 249.028 224.579L249.683 224.351Z" fill="#FC805F"/>
<path d="M249.296 196.387C248.246 199.974 247.16 203.684 244.084 206.757C242.827 208.005 241.37 209.034 239.773 209.8L239.69 209.84C237.762 210.717 235.763 211.428 233.715 211.968C230.128 213.018 226.74 214.01 223.899 216.851C221.058 219.692 220.066 223.08 219.016 226.67C218.475 228.716 217.765 230.712 216.892 232.639L216.848 232.726C216.082 234.323 215.053 235.779 213.804 237.036C210.732 240.113 207.022 241.198 203.435 242.248C200.203 243.196 197.133 244.098 194.48 246.342C195.089 246.486 195.692 246.628 196.29 246.765C198.531 245.191 201.118 244.431 203.829 243.638C207.59 242.534 211.481 241.398 214.814 238.061C216.117 236.756 217.2 235.249 218.021 233.598V233.576C218.284 233.05 218.525 232.522 218.745 231.991L218.799 231.853C218.879 231.654 218.958 231.455 219.034 231.256C219.089 231.111 219.139 230.967 219.194 230.825L219.295 230.543C219.364 230.348 219.429 230.152 219.498 229.953L219.519 229.888C219.831 228.947 220.109 228.006 220.381 227.079C221.376 223.674 222.321 220.456 224.898 217.879C227.475 215.302 230.689 214.361 234.095 213.366C235.028 213.09 235.98 212.812 236.929 212.493L237.562 212.276L237.797 212.193C237.953 212.135 238.112 212.081 238.268 212.019L238.811 211.809L238.999 211.733C239.531 211.512 240.056 211.274 240.577 211.009H240.602C242.252 210.187 243.759 209.104 245.065 207.802C248.402 204.469 249.538 200.564 250.642 196.818C251.148 194.881 251.82 192.992 252.651 191.171V188.309C250.946 190.763 250.139 193.51 249.296 196.387Z" fill="#FC805F"/>
<path d="M45.141 112.378C46.1363 108.972 47.0809 105.755 49.6579 103.178C52.2349 100.601 55.4489 99.6599 58.8584 98.6609C62.6189 97.5751 66.5098 96.4205 69.8432 93.0834C71.1458 91.7785 72.2287 90.2716 73.0499 88.6208V88.599C73.3153 88.0778 73.5566 87.5506 73.7738 87.0173L73.839 86.8581C73.915 86.6663 73.991 86.4745 74.0634 86.2827C74.1357 86.0908 74.1719 85.9859 74.2262 85.8339C74.2588 85.747 74.2914 85.66 74.3203 85.5732C74.3927 85.3705 74.4615 85.1678 74.5303 84.9688V84.9181C74.8452 83.9735 75.1238 83.0324 75.3953 82.1023C76.3942 78.6964 77.3353 75.4824 79.9087 72.9054C82.4821 70.3284 85.6997 69.3873 89.1091 68.3884C90.0429 68.1133 90.9912 67.8347 91.9431 67.5198L92.5729 67.3062L92.8117 67.2193L93.2787 67.0492L93.8252 66.8321L94.0098 66.7597C94.5418 66.5425 95.0666 66.3 95.5914 66.0358H95.6131C97.2639 65.2146 98.771 64.1317 100.076 62.8291C103.413 59.4956 104.549 55.5903 105.653 51.8442C106.652 48.4384 107.593 45.2208 110.17 42.6438C112.747 40.0668 115.961 39.1258 119.371 38.1268C123.131 37.0229 127.022 35.8864 130.356 32.5493C133.689 29.2123 134.829 25.3106 135.933 21.5646C136.928 18.1587 137.873 14.9411 140.45 12.3641C143.027 9.78707 146.241 8.84604 149.65 7.8471C153.411 6.76128 157.302 5.60673 160.635 2.26967C161.326 1.5795 161.955 0.829825 162.514 0.0292969H160.704C160.365 0.455595 160.002 0.862748 159.618 1.24898C156.545 4.32183 152.835 5.40769 149.249 6.45731C145.662 7.50693 142.274 8.50225 139.433 11.3398C136.592 14.1774 135.6 17.5687 134.55 21.1592C133.501 24.7496 132.411 28.4523 129.338 31.5287C126.266 34.6052 122.559 35.6874 118.969 36.737C115.379 37.7866 111.991 38.7819 109.153 41.6195C106.316 44.4571 105.32 47.8485 104.271 51.4389C103.221 55.0293 102.135 58.7319 99.0588 61.8048C97.8015 63.0551 96.3432 64.0853 94.7445 64.8523L94.6684 64.8885C92.74 65.7648 90.741 66.4766 88.6928 67.0166C85.1024 68.0663 81.7147 69.0617 78.8735 71.8993C76.0323 74.7405 75.0406 78.1282 73.991 81.7186C73.45 83.7637 72.7393 85.76 71.8664 87.6869L71.823 87.7738C71.0555 89.3712 70.0267 90.8294 68.7791 92.0881C65.7063 95.1609 62 96.2468 58.4096 97.2964C54.8191 98.346 51.4315 99.3413 48.5939 102.179C45.7563 105.017 44.7609 108.408 43.7113 111.998C42.6617 115.589 41.5758 119.291 38.4994 122.368C36.9408 123.898 35.0959 125.105 33.0703 125.922C33.3128 126.345 33.5589 126.765 33.7942 127.185C35.9318 126.304 37.8768 125.015 39.5201 123.388C42.9006 120.03 44.0371 116.139 45.141 112.378Z" fill="#FC805F"/>
<path d="M10.5316 50.3344C14.2922 49.2305 18.1794 48.094 21.5165 44.7569C22.8168 43.4501 23.8994 41.9435 24.7232 40.2943V40.2725C24.9874 39.7477 25.2263 39.2193 25.4471 38.6873C25.4652 38.6402 25.4833 38.5895 25.505 38.5425C25.5846 38.347 25.6606 38.148 25.7366 37.9526C25.8126 37.7571 25.8452 37.6594 25.8959 37.5146C25.9284 37.4241 25.9646 37.3337 25.9936 37.2432C26.066 37.0441 26.1311 36.845 26.1999 36.6459C26.202 36.6255 26.202 36.6049 26.1999 36.5844C26.5148 35.6434 26.7935 34.7023 27.065 33.7722C28.0603 30.3699 29.005 27.1524 31.582 24.5754C34.159 21.9984 37.3729 21.0572 40.7824 20.0583C41.9297 19.7253 43.0952 19.3815 44.2607 18.9725L44.4814 18.8929L44.9664 18.7155L45.4948 18.5057L45.6939 18.426C46.2248 18.2088 46.7519 17.9675 47.2755 17.7021H47.2973C48.9487 16.8801 50.4568 15.7973 51.7636 14.4954C55.1007 11.1583 56.2371 7.25658 57.341 3.51052C57.703 2.31613 58.0323 1.14711 58.4268 0.0214844H56.8886C56.5267 1.02405 56.2407 2.05558 55.9367 3.10158C54.8834 6.68838 53.7977 10.3982 50.7248 13.4711C49.4681 14.7194 48.011 15.7483 46.4142 16.515L46.3309 16.5548C44.4025 17.431 42.4035 18.143 40.3553 18.683C36.7685 19.7326 33.3771 20.7243 30.5395 23.5655C27.6983 26.4067 26.7066 29.7944 25.657 33.3849C25.116 35.4299 24.4054 37.4263 23.5325 39.3532L23.489 39.4401C22.7223 41.0369 21.6935 42.4941 20.4451 43.7508C17.3723 46.8237 13.6624 47.913 10.0756 48.9627C8.23077 49.4527 6.42465 50.0781 4.67188 50.8339C4.7696 51.3225 4.87459 51.8075 4.97593 52.2816C6.77025 51.4786 8.62861 50.8273 10.5316 50.3344Z" fill="#FC805F"/>
<path d="M203.734 0.310769C200.147 1.36401 196.759 2.35571 193.918 5.1933C191.077 8.03089 190.085 11.4222 189.036 15.0126C187.986 18.603 186.9 22.3093 183.824 25.3822C180.747 28.455 177.045 29.5408 173.458 30.5904C169.871 31.6401 166.48 32.6354 163.638 35.473C160.797 38.3106 159.805 41.702 158.756 45.2924C157.706 48.8828 156.62 52.589 153.544 55.6619C150.468 58.7347 146.765 59.8205 143.178 60.8701C139.591 61.9197 136.2 62.915 133.359 65.7526C130.518 68.5902 129.529 71.9816 128.476 75.572C127.423 79.1625 126.341 82.8651 123.268 85.9415C122.008 87.1881 120.55 88.2167 118.954 88.9855L118.878 89.0216C116.948 89.8973 114.948 90.6093 112.898 91.1498C109.308 92.1995 105.92 93.1948 103.079 96.0324C100.241 98.87 99.2461 102.258 98.1965 105.848C97.6561 107.895 96.9454 109.892 96.0719 111.82L96.0321 111.903C95.2635 113.501 94.2335 114.959 92.9846 116.218C89.9117 119.29 86.2055 120.376 82.6151 121.426C79.0247 122.476 75.6369 123.471 72.7993 126.308C69.9617 129.146 68.9664 132.537 67.9168 136.128C66.8672 139.718 65.7814 143.421 62.7085 146.497C59.6357 149.574 55.9258 150.656 52.339 151.706C51.7273 151.887 51.1229 152.068 50.5293 152.249C50.8406 152.658 51.1482 153.07 51.4595 153.475L52.748 153.095C56.5086 152.01 60.3993 150.855 63.7328 147.522C67.0662 144.188 68.21 140.283 69.3103 136.533C70.3056 133.127 71.2503 129.91 73.8273 127.333C76.4043 124.756 79.6182 123.815 83.0277 122.816C86.7882 121.73 90.6791 120.575 94.0125 117.242C95.3145 115.935 96.3972 114.427 97.2192 112.776V112.754C97.4847 112.233 97.726 111.705 97.9431 111.172L98.0011 111.027C98.0807 110.828 98.1603 110.633 98.2327 110.438C98.3051 110.242 98.3412 110.144 98.3919 109.999C98.4281 109.909 98.4607 109.815 98.4933 109.724C98.562 109.525 98.6308 109.33 98.696 109.131L98.7177 109.066C99.029 108.125 99.3076 107.184 99.5791 106.257C100.578 102.851 101.519 99.6336 104.096 97.0566C106.673 94.4796 109.887 93.5422 113.293 92.5433C114.23 92.2682 115.179 91.9895 116.13 91.6746L116.764 91.4574L116.999 91.3742L117.47 91.2005L118.009 90.987L118.201 90.9109C118.734 90.6937 119.26 90.4525 119.779 90.187H119.804C121.455 89.3658 122.962 88.283 124.267 86.9803C127.604 83.6469 128.744 79.7415 129.844 75.9955C130.843 72.5896 131.784 69.3721 134.361 66.7951C136.938 64.2181 140.152 63.277 143.562 62.2781C147.322 61.1923 151.213 60.0376 154.547 56.7006C157.88 53.3635 159.024 49.48 160.124 45.7158C161.123 42.31 162.064 39.096 164.641 36.5154C167.218 33.9348 170.432 32.9973 173.841 31.9983C177.602 30.9125 181.493 29.758 184.826 26.4245C188.16 23.0911 189.3 19.1858 190.404 15.4362C191.399 12.0303 192.344 8.81626 194.921 6.23564C197.498 3.65503 200.712 2.71761 204.121 1.71867C205.841 1.24705 207.532 0.679133 209.188 0.0175781H204.762L203.734 0.310769Z" fill="#FC805F"/>
<path d="M244.235 85.79C241.162 88.8629 237.452 89.9487 233.865 91.0019C230.278 92.0551 226.887 93.0432 224.046 95.8844C221.538 98.3963 220.47 101.335 219.529 104.466C219.406 104.875 219.286 105.288 219.167 105.7C218.841 106.822 218.508 107.955 218.114 109.077C217.245 111.546 216.072 113.956 213.959 116.07C211.461 118.567 208.53 119.751 205.634 120.674C204.957 120.883 204.28 121.083 203.607 121.282C200.017 122.331 196.629 123.323 193.791 126.164C190.954 129.005 189.959 132.389 188.905 135.98C187.852 139.57 186.77 143.277 183.697 146.349C182.438 147.597 180.98 148.626 179.383 149.393L179.303 149.433C177.375 150.31 175.376 151.021 173.328 151.558C169.741 152.611 166.349 153.603 163.512 156.444C160.674 159.281 159.683 162.673 158.629 166.26C158.091 168.304 157.382 170.299 156.508 172.224L156.465 172.318C155.697 173.915 154.668 175.371 153.421 176.629C150.348 179.702 146.638 180.788 143.051 181.841C139.465 182.894 136.073 183.882 133.232 186.724C130.391 189.565 129.403 192.952 128.35 196.539C127.296 200.126 126.214 203.836 123.141 206.909C120.434 209.616 117.234 210.782 114.057 211.737L115.635 212.765C118.599 211.809 121.552 210.546 124.166 207.933C127.499 204.596 128.639 200.694 129.739 196.948C130.738 193.542 131.679 190.325 134.256 187.748C136.833 185.171 140.047 184.226 143.457 183.231C147.221 182.127 151.108 180.987 154.445 177.653C155.745 176.345 156.827 174.837 157.652 173.187V173.169C157.916 172.644 158.155 172.116 158.376 171.584L158.43 171.443C158.51 171.243 158.589 171.044 158.665 170.845C158.72 170.704 158.77 170.559 158.821 170.418C158.872 170.277 158.89 170.23 158.922 170.136C158.995 169.937 159.06 169.741 159.125 169.542L159.147 169.481C159.462 168.54 159.737 167.599 160.012 166.669C161.007 163.263 161.948 160.049 164.525 157.472C167.102 154.895 170.316 153.954 173.722 152.958C174.659 152.683 175.608 152.401 176.556 152.086C176.766 152.016 176.976 151.944 177.186 151.869L177.428 151.782L177.892 151.612C178.077 151.544 178.262 151.472 178.445 151.395L178.623 151.322C179.156 151.105 179.683 150.864 180.204 150.599H180.226C181.876 149.774 183.384 148.691 184.692 147.392C188.026 144.055 189.166 140.153 190.266 136.403C191.265 132.998 192.206 129.78 194.783 127.203C197.36 124.626 200.574 123.685 203.987 122.686C204.925 122.411 205.873 122.132 206.821 121.821C209.655 120.88 212.471 119.613 214.972 117.116C217.263 114.821 218.519 112.269 219.438 109.674C219.855 108.494 220.202 107.304 220.546 106.131C221.27 103.677 221.957 101.321 223.253 99.2323C223.459 98.8957 223.684 98.57 223.923 98.2479C224.024 98.114 224.129 97.9801 224.234 97.8498C224.495 97.5296 224.771 97.2228 225.063 96.9305C227.643 94.3499 230.854 93.4088 234.267 92.4099C238.028 91.3241 241.915 90.1694 245.252 86.836C248.589 83.5025 249.725 79.5973 250.826 75.8512C251.309 74.0282 251.931 72.2447 252.686 70.5163V67.5918C251.043 69.977 250.254 72.6589 249.429 75.4422C248.393 79.0037 247.308 82.7172 244.235 85.79Z" fill="#FC805F"/>
<path d="M247.525 0C245.317 2.63852 244.42 5.68607 243.478 8.89645C242.429 12.4833 241.343 16.1931 238.267 19.2659C235.19 22.3388 231.487 23.4246 227.901 24.4779C224.314 25.5311 220.923 26.5192 218.081 29.3604C215.24 32.2016 214.248 35.5893 213.199 39.1761C212.149 42.7629 211.063 46.4728 207.99 49.5457C204.918 52.6185 201.208 53.7043 197.621 54.7539C194.034 55.8035 190.643 56.7989 187.802 59.6401C184.96 62.4813 183.972 65.8691 182.919 69.4559C181.866 73.0427 180.784 76.7525 177.711 79.8253C174.638 82.8982 170.928 83.984 167.341 85.0336C163.754 86.0832 160.363 87.0785 157.522 89.9161C154.681 92.7537 153.693 96.1451 152.639 99.7355C151.586 103.326 150.504 107.029 147.431 110.105C146.171 111.352 144.714 112.38 143.117 113.149L143.037 113.189C141.108 114.062 139.109 114.772 137.062 115.313C133.471 116.367 130.083 117.358 127.242 120.196C124.405 123.033 123.409 126.425 122.36 130.012C121.822 132.056 121.112 134.051 120.239 135.976L120.192 136.07C119.424 137.667 118.395 139.124 117.148 140.381C114.075 143.454 110.369 144.54 106.782 145.589C103.195 146.639 99.8037 147.634 96.9625 150.472C94.1213 153.31 93.1332 156.701 92.08 160.291C91.0267 163.882 89.9446 167.588 86.8717 170.661C83.7989 173.734 80.089 174.819 76.5022 175.869C74.9965 176.311 73.5271 176.745 72.1191 177.317L73.2302 178.442C74.4174 178.005 75.648 177.643 76.9076 177.273C80.6717 176.188 84.5589 175.033 87.8923 171.7C91.2258 168.366 92.3695 164.461 93.4698 160.711C94.4688 157.305 95.4098 154.091 97.9868 151.511C100.564 148.93 103.778 147.993 107.187 146.994C110.948 145.908 114.839 144.753 118.172 141.42C119.474 140.113 120.557 138.605 121.379 136.954C121.379 136.954 121.379 136.954 121.379 136.935C121.642 136.412 121.883 135.882 122.103 135.347L122.157 135.205C122.237 135.01 122.316 134.811 122.392 134.612C122.447 134.467 122.497 134.322 122.551 134.181L122.649 133.902C122.718 133.703 122.787 133.504 122.852 133.305L122.874 133.247C123.185 132.306 123.464 131.365 123.735 130.435C124.734 127.029 125.675 123.815 128.252 121.238C130.829 118.661 134.043 117.72 137.449 116.721C138.383 116.45 139.335 116.168 140.283 115.853L140.913 115.635L141.155 115.549L141.618 115.378C141.803 115.31 141.98 115.234 142.172 115.161L142.349 115.089C142.88 114.872 143.408 114.63 143.931 114.365H143.953C145.604 113.54 147.111 112.457 148.419 111.155C151.753 107.821 152.893 103.916 153.993 100.17C154.992 96.764 155.933 93.5464 158.51 90.9694C161.087 88.3924 164.301 87.4514 167.71 86.4524C171.471 85.3666 175.362 84.212 178.699 80.8785C182.036 77.5451 183.172 73.6398 184.273 69.8902C185.272 66.4843 186.213 63.2703 188.79 60.6897C191.367 58.1091 194.581 57.1716 197.99 56.1727C201.751 55.0869 205.641 53.9323 208.975 50.5989C212.308 47.2654 213.452 43.3601 214.552 39.6104C215.551 36.2046 216.492 32.9906 219.069 30.41C221.646 27.8294 224.86 26.892 228.27 25.893C232.03 24.8072 235.921 23.6527 239.255 20.3192C242.588 16.9858 243.728 13.0804 244.832 9.33438C245.827 5.92855 246.772 2.71095 249.349 0.133959C249.383 0.0971068 249.42 0.0620577 249.458 0.0289833L247.525 0Z" fill="#FC805F"/>
<path d="M239.982 36.5589C236.392 37.6085 233.004 38.6002 230.163 41.4414C227.321 44.2826 226.333 47.6704 225.28 51.2572C224.227 54.844 223.145 58.5538 220.072 61.6267C216.999 64.6995 213.289 65.7853 209.702 66.8349C206.116 67.8845 202.724 68.8799 199.883 71.7211C197.042 74.5623 196.054 77.9501 195 81.5368C193.947 85.1237 192.865 88.8335 189.792 91.9063C186.719 94.9792 183.009 96.065 179.423 97.1147C175.836 98.1643 172.444 99.1596 169.603 102.001C166.762 104.842 165.774 108.226 164.721 111.817C163.667 115.407 162.585 119.113 159.512 122.186C158.254 123.434 156.796 124.462 155.198 125.23L155.122 125.266C153.192 126.142 151.192 126.854 149.143 127.394C145.556 128.448 142.165 129.439 139.324 132.277C136.486 135.114 135.494 138.506 134.441 142.093C133.903 144.137 133.193 146.132 132.32 148.057C132.307 148.09 132.291 148.121 132.273 148.151C131.506 149.747 130.479 151.204 129.233 152.462C126.16 155.535 122.45 156.621 118.86 157.674C115.269 158.727 111.885 159.715 109.044 162.557C106.203 165.398 105.215 168.786 104.161 172.372C103.108 175.959 102.026 179.669 98.953 182.742C95.8802 185.815 92.1704 186.9 88.5836 187.95C87.2335 188.348 85.9124 188.736 84.6348 189.213C85.0474 189.575 85.4637 189.937 85.8763 190.299C86.8897 189.937 87.9284 189.644 88.9889 189.333C92.753 188.247 96.6403 187.092 99.9773 183.759C103.314 180.425 104.451 176.52 105.551 172.77C106.55 169.365 107.491 166.151 110.068 163.57C112.645 160.989 115.859 160.052 119.269 159.053C123.033 157.967 126.92 156.813 130.253 153.479C131.555 152.171 132.639 150.664 133.464 149.013C133.727 148.487 133.968 147.957 134.188 147.424C134.188 147.381 134.22 147.337 134.238 147.29C134.322 147.091 134.401 146.892 134.477 146.689C134.531 146.548 134.582 146.403 134.633 146.262C134.684 146.121 134.702 146.074 134.734 145.98C134.803 145.781 134.872 145.585 134.937 145.39L134.959 145.321C135.273 144.38 135.549 143.439 135.82 142.512C136.819 139.11 137.76 135.893 140.337 133.316C142.914 130.739 146.128 129.798 149.534 128.799C150.471 128.527 151.42 128.245 152.371 127.93L153.008 127.713L153.24 127.63L153.711 127.456L154.25 127.246L154.445 127.166C154.974 126.949 155.499 126.708 156.02 126.442H156.045C157.696 125.621 159.204 124.539 160.511 123.239C163.845 119.902 164.985 116.001 166.085 112.251C167.084 108.845 168.025 105.627 170.602 103.05C173.179 100.473 176.393 99.5324 179.806 98.5334C183.567 97.4476 187.454 96.2931 190.791 92.9596C194.128 89.6262 195.265 85.7208 196.365 81.9748C197.364 78.569 198.305 75.3513 200.882 72.7707C203.459 70.1901 206.673 69.2527 210.082 68.2538C213.847 67.1679 217.734 66.0133 221.067 62.6799C224.401 59.3464 225.544 55.4412 226.645 51.6915C227.644 48.2893 228.585 45.0717 231.162 42.4911C233.739 39.9105 236.953 38.973 240.362 37.9776C244.123 36.8737 248.013 35.7337 251.347 32.4002C251.827 31.9167 252.276 31.4042 252.693 30.8656V28.332C252.042 29.4342 251.254 30.4496 250.348 31.3542C247.264 34.4199 243.569 35.5056 239.982 36.5589Z" fill="#FC805F"/>
<path d="M75.8082 159.611C79.1453 156.274 80.2853 152.372 81.3856 148.622C82.3846 145.217 83.3256 142.003 85.9026 139.422C88.4796 136.841 91.6937 135.904 95.1031 134.905C98.8636 133.819 102.754 132.665 106.088 129.331C107.39 128.024 108.473 126.516 109.295 124.865C109.295 124.865 109.295 124.865 109.295 124.843C109.56 124.322 109.801 123.795 110.019 123.262L110.08 123.11C110.16 122.914 110.236 122.722 110.308 122.527C110.38 122.331 110.417 122.23 110.471 122.085L110.569 121.814L110.775 121.217C110.775 121.198 110.775 121.18 110.775 121.162C111.09 120.218 111.369 119.277 111.64 118.346C112.639 114.941 113.58 111.727 116.157 109.15C118.734 106.573 121.948 105.632 125.357 104.633C126.295 104.358 127.243 104.079 128.191 103.764L128.832 103.547L129.06 103.464L129.538 103.29L130.066 103.08L130.269 103C130.797 102.783 131.322 102.542 131.843 102.276H131.869C133.52 101.454 135.028 100.372 136.335 99.0696C139.668 95.7361 140.809 91.849 141.909 88.0848C142.908 84.679 143.849 81.4613 146.426 78.8843C149.003 76.3073 152.217 75.3663 155.626 74.3673C159.39 73.2815 163.278 72.127 166.611 68.7935C169.944 65.4601 171.088 61.5547 172.189 57.8051C173.188 54.3992 174.129 51.1853 176.706 48.6046C179.283 46.024 182.497 45.0866 185.906 44.0877C189.666 43.0019 193.557 41.8472 196.891 38.5138C200.224 35.1803 201.368 31.2751 202.468 27.5254C203.464 24.1196 204.408 20.9056 206.985 18.325C209.562 15.7444 212.776 14.8069 216.186 13.808C219.946 12.7222 223.837 11.5676 227.17 8.23411C229.704 5.70055 230.956 2.88108 231.897 0.0253906H230.37C229.494 2.55895 228.314 5.04179 226.146 7.2098C223.073 10.2826 219.367 11.3685 215.777 12.4218C212.186 13.475 208.798 14.4631 205.961 17.3043C203.123 20.1455 202.128 23.5332 201.078 27.12C200.029 30.7068 198.943 34.4167 195.866 37.4896C192.79 40.5624 189.087 41.6482 185.501 42.6978C181.914 43.7474 178.522 44.7427 175.681 47.5803C172.84 50.4179 171.848 53.8129 170.799 57.3997C169.749 60.9865 168.663 64.6964 165.59 67.7692C162.518 70.8421 158.808 71.9279 155.221 72.9775C151.634 74.0272 148.243 75.0225 145.402 77.8601C142.56 80.6977 141.572 84.089 140.519 87.6794C139.466 91.2698 138.384 94.9725 135.311 98.049C134.051 99.2975 132.592 100.326 130.993 101.093C130.97 101.107 130.946 101.119 130.92 101.129C128.991 102.005 126.99 102.717 124.941 103.257C121.351 104.31 117.963 105.302 115.122 108.14C112.284 110.977 111.289 114.365 110.239 117.956C109.701 120.002 108.99 122 108.115 123.927L108.075 124.011C107.306 125.608 106.276 127.067 105.027 128.325C101.955 131.398 98.2483 132.484 94.6579 133.533C91.0675 134.583 87.6797 135.578 84.8421 138.416C82.0045 141.253 81.0092 144.645 79.9596 148.235C78.91 151.826 77.8242 155.532 74.7514 158.605C71.6785 161.678 67.9686 162.763 64.3818 163.813C63.1331 164.175 61.9062 164.537 60.7227 164.971C61.0605 165.367 61.3994 165.759 61.7396 166.147C62.7277 165.807 63.7484 165.507 64.7872 165.203C68.5839 164.084 72.4747 162.944 75.8082 159.611Z" fill="#FC805F"/>
<path d="M252.693 237.895C250.968 238.634 249.396 239.691 248.06 241.011C245.219 243.852 244.227 247.24 243.178 250.83C242.979 251.507 242.78 252.191 242.562 252.871L244.068 252.922C244.242 252.358 244.41 251.794 244.571 251.232C245.57 247.826 246.511 244.609 249.088 242.032C250.145 240.991 251.368 240.135 252.708 239.498L252.693 237.895Z" fill="#FC805F"/>
<path d="M0.1701 16.8599C0.307636 16.6174 0.437874 16.3749 0.560933 16.1361V16.1143C0.825147 15.5895 1.06403 15.0611 1.28481 14.5291L1.33915 14.3879C1.41878 14.1924 1.49837 13.9934 1.57438 13.7907C1.62867 13.6496 1.6794 13.5047 1.73007 13.3636C1.78074 13.2224 1.79876 13.1754 1.83134 13.0813C1.90372 12.8823 1.96889 12.6868 2.03404 12.4913L2.05578 12.4262C2.37067 11.4852 2.6457 10.5441 2.92077 9.61393C3.9161 6.21172 4.85722 2.99413 7.43421 0.417131C7.57537 0.275976 7.72012 0.142016 7.8649 0.0117188H5.8525C3.45286 2.71901 2.52271 5.8787 1.54548 9.21214C1.11168 10.7966 0.59582 12.3575 0 13.8884C0.0410196 14.8777 0.0977125 15.8682 0.1701 16.8599Z" fill="#FC805F"/>
<path d="M22.6135 62.4156C26.374 61.3117 30.2648 60.1753 33.5982 56.8382C34.9009 55.532 35.9839 54.0238 36.805 52.3718C37.0692 51.847 37.3081 51.3186 37.5289 50.783C37.5506 50.7359 37.5687 50.6852 37.5868 50.6381C37.6664 50.4427 37.7425 50.2437 37.8185 50.0482L37.9813 49.6103C38.0103 49.5198 38.0465 49.4293 38.0754 49.3388C38.1478 49.1386 38.2166 48.9395 38.2818 48.7416L38.2998 48.6837C38.6147 47.7427 38.8934 46.798 39.1649 45.8715C40.1602 42.4656 41.1012 39.2517 43.6782 36.6747C46.2552 34.0977 49.4692 33.1566 52.8786 32.1577C53.8124 31.8826 54.7607 31.6039 55.7126 31.289L56.3424 31.0755L56.5813 30.9886L57.0445 30.8185L57.5947 30.6013L57.7793 30.529C58.3113 30.3082 58.8362 30.0693 59.3574 29.8051H59.3826C61.0335 28.9839 62.5405 27.9009 63.8454 26.5983C67.1824 23.2648 68.3189 19.3596 69.4228 15.6099C70.4181 12.2041 71.3629 8.99001 73.9399 6.41302C76.5169 3.83602 79.7308 2.89137 83.1403 1.89604C84.9876 1.39465 86.801 0.775727 88.5693 0.0429688H84.2912C83.77 0.202221 83.2488 0.354246 82.7312 0.506259C79.1444 1.55588 75.7531 2.5512 72.9155 5.38879C70.078 8.22638 69.0826 11.6177 68.033 15.2045C66.9834 18.7913 65.8939 22.5011 62.8211 25.574C61.5632 26.8235 60.1049 27.8537 58.5068 28.6215L58.4308 28.6577C56.5011 29.534 54.501 30.246 52.4516 30.7859C48.8648 31.8355 45.477 32.8273 42.6358 35.6685C39.7946 38.5097 38.8029 41.8974 37.7533 45.4878C37.2122 47.5317 36.5016 49.5268 35.6287 51.4525L35.5853 51.543C34.8186 53.1399 33.7897 54.597 32.5414 55.8537C29.4685 58.9266 25.7587 60.016 22.1719 61.0656C18.5851 62.1152 15.1937 63.1105 12.3561 65.9481C11.1402 67.1743 10.1502 68.6054 9.43164 70.1756C9.64156 70.914 9.85511 71.6499 10.0723 72.3834C10.7677 70.3603 11.8967 68.5136 13.3804 66.9724C15.9864 64.3556 19.204 63.4109 22.6135 62.4156Z" fill="#FC805F"/>
<path d="M57.2216 124.459C58.2169 121.053 59.1616 117.835 61.7386 115.258C64.3156 112.681 67.5297 111.74 70.9391 110.741C74.6996 109.656 78.5904 108.501 81.9239 105.168C83.2191 103.865 84.2969 102.363 85.1162 100.719C85.3804 100.195 85.6229 99.6625 85.84 99.1304C85.8581 99.087 85.8762 99.0435 85.8907 99.0037C85.9727 98.801 86.0524 98.5984 86.1296 98.3957C86.1839 98.2509 86.2382 98.1097 86.2888 97.9649L86.3902 97.6827C86.459 97.4873 86.5278 97.2918 86.5929 97.0927L86.6146 97.0276C86.9258 96.0865 87.2046 95.1455 87.476 94.2189C88.475 90.8131 89.416 87.5991 91.993 85.0185C94.57 82.4379 97.784 81.504 101.193 80.5051C102.341 80.1685 103.51 79.8246 104.679 79.4193L104.885 79.3433L105.381 79.1623L105.899 78.9596L106.109 78.8764C106.641 78.6556 107.165 78.4167 107.687 78.1525H107.708C109.359 77.3313 110.866 76.2484 112.171 74.9458C115.508 71.6123 116.648 67.707 117.748 63.9609C118.747 60.5551 119.688 57.3375 122.265 54.7605C124.842 52.1835 128.056 51.2425 131.466 50.2435C135.226 49.1577 139.117 48.0031 142.451 44.666C145.784 41.3289 146.924 37.4454 148.028 33.6813C149.024 30.2754 149.968 27.0578 152.545 24.4808C155.122 21.9038 158.336 20.9627 161.746 19.9638C165.506 18.878 169.397 17.7234 172.73 14.39C176.064 11.0565 177.204 7.15127 178.308 3.40159C178.641 2.26149 178.97 1.14303 179.354 0.0644531H177.819C177.497 1.01997 177.208 2.00085 176.918 2.99618C175.868 6.58298 174.783 10.2928 171.706 13.3657C168.63 16.4385 164.923 17.5244 161.34 18.574C157.757 19.6236 154.362 20.6189 151.521 23.4565C148.68 26.2941 147.688 29.6854 146.638 33.2758C145.589 36.8663 144.499 40.5726 141.426 43.6454C138.354 46.7183 134.647 47.804 131.061 48.8536C127.474 49.9033 124.082 50.8986 121.241 53.7362C118.4 56.5738 117.412 59.9652 116.359 63.5556C115.305 67.146 114.223 70.8486 111.15 73.9214C109.892 75.1704 108.434 76.2003 106.836 76.9689L106.756 77.0052C104.828 77.8809 102.829 78.5928 100.781 79.1334C97.1904 80.183 93.8026 81.1783 90.9614 84.0159C88.1202 86.8571 87.1285 90.2448 86.0789 93.8353C85.5414 95.8786 84.8319 97.8727 83.958 99.7964C83.958 99.8289 83.929 99.8615 83.9109 99.8941C83.143 101.49 82.1143 102.947 80.867 104.205C77.7942 107.278 74.0844 108.363 70.5012 109.413C66.918 110.463 63.523 111.458 60.6818 114.296C57.8406 117.133 56.8489 120.524 55.7992 124.115C54.7496 127.705 53.6638 131.408 50.5874 134.484C47.833 137.239 44.5683 138.397 41.3398 139.363C41.6149 139.783 41.8972 140.203 42.1759 140.623C45.4334 139.628 48.7342 138.386 51.6116 135.505C54.9812 132.11 56.1213 128.227 57.2216 124.459Z" fill="#FC805F"/>
</g>
</svg>
