<svg width="243" height="390" viewBox="0 0 243 390" fill="none" xmlns="http://www.w3.org/2000/svg">
<path d="M0.000167847 3.98304e-05L0.000165944 43.5313L72.1547 43.5313C88.8783 43.5152 105.441 46.7973 120.895 53.1897C136.348 59.5822 150.39 68.9595 162.215 80.7849C174.041 92.6103 183.418 106.652 189.81 122.105C196.203 137.559 199.485 154.122 199.469 170.845L199.469 390L243 390L243 170.845C243.017 148.405 238.61 126.181 230.03 105.445C221.451 84.7095 208.867 65.8689 192.999 50.001C177.131 34.1331 158.29 21.5493 137.555 12.9697C116.819 4.39001 94.5953 -0.0172078 72.1547 4.29844e-05L0.000167847 3.98304e-05Z" fill="#4CE467" fill-opacity="0.05"/>
</svg>
