<svg width="150" height="150" viewBox="0 0 150 150" fill="none" xmlns="http://www.w3.org/2000/svg">
<path d="M146.9 22.176C146.246 21.8442 145.582 21.5408 144.919 21.2279L144.748 21.171L143.99 20.8677L143.468 20.6779L143.098 20.5453L142.378 20.2988H142.273C141.098 19.9101 139.932 19.5689 138.766 19.2275C134.509 17.976 130.489 16.8004 127.265 13.5389C124.041 10.2774 122.866 6.29524 121.576 2.03824C121.387 1.37456 121.197 0.720275 120.988 0.0471191H119.092C119.348 0.881453 119.595 1.71591 119.841 2.54076C121.15 7.02531 122.392 11.2633 125.947 14.8187C129.502 18.3646 133.741 19.6066 138.272 20.9245C140.829 21.5997 143.325 22.4877 145.734 23.5792L145.848 23.6267C147.351 24.3642 148.761 25.2775 150.048 26.3476V24.0438C149.05 23.338 147.998 22.7134 146.9 22.176Z" fill="#FFC844"/>
<path d="M150.02 2.90096C147.969 2.24744 146.029 1.28847 144.264 0.0563965H141.42C143.886 2.26873 146.824 3.89007 150.01 4.79733L150.02 2.90096Z" fill="#FFC844"/>
<path d="M122.267 56.4122C120.636 54.7816 118.75 53.4271 116.683 52.4017C116.029 52.0699 115.365 51.7665 114.702 51.4536L114.512 51.3777L113.782 51.0932L113.232 50.8941L112.891 50.7708L112.142 50.515H112.075C110.9 50.1263 109.715 49.7753 108.558 49.434C104.301 48.192 100.271 47.0164 97.0479 43.7928C93.8243 40.5693 92.6486 36.5492 91.4066 32.2827C91.0653 31.1165 90.7145 29.9219 90.3163 28.7368L90.0413 27.9405L89.9371 27.656L89.719 27.0586L89.4535 26.395C89.4277 26.3107 89.396 26.2283 89.3587 26.1484C89.0837 25.4848 88.7898 24.8213 88.4106 24.1765C87.3782 22.1171 86.0245 20.2351 84.4001 18.6016C80.2284 14.4299 75.3646 12.9984 70.6525 11.6236C66.3955 10.3721 62.3756 9.19646 59.152 5.93497C57.5086 4.26252 56.2188 2.27611 55.3596 0.0944824H53.397C54.3507 2.75966 55.8673 5.18817 57.8436 7.21478C61.3895 10.7702 65.6276 12.0121 70.169 13.3205C74.7104 14.6289 79.2898 15.9943 83.1391 19.8436C84.6943 21.4186 85.976 23.2418 86.9315 25.2383C86.9529 25.2668 86.969 25.299 86.9789 25.3332C88.0777 27.7433 88.9691 30.2426 89.6432 32.8042C90.961 37.2982 92.203 41.5362 95.7489 45.1296C99.2948 48.685 103.533 49.9269 108.027 51.2353C110.584 51.9106 113.08 52.7986 115.489 53.8901L115.602 53.947C117.597 54.9048 119.42 56.1863 120.997 57.7394C122.636 59.3931 123.977 61.3177 124.96 63.4281C125.548 63.2574 126.145 63.0962 126.743 62.9445C125.659 60.5139 124.143 58.3005 122.267 56.4122Z" fill="#FFC844"/>
<path d="M104.956 71.9707L106.615 71.0226C105.108 69.6211 103.409 68.4401 101.571 67.5147C100.917 67.1828 100.253 66.8794 99.5895 66.5666L99.4189 66.5001L98.6698 66.2062L98.1294 66.0071L97.7786 65.884L97.0391 65.628H96.9633C95.7781 65.2392 94.6025 64.8883 93.4458 64.547C89.1888 63.305 85.1594 62.1198 81.9358 58.8583C78.7122 55.5968 77.5461 51.6149 76.2471 47.3579C75.83 45.9263 75.3938 44.4566 74.8819 43.006L74.7775 42.7215C74.7112 42.5224 74.6353 42.3234 74.5595 42.1243L74.3035 41.4702C74.3035 41.3849 74.2371 41.29 74.1992 41.2047C73.9243 40.541 73.6303 39.8868 73.2511 39.2326C72.2167 37.1715 70.8632 35.2869 69.2406 33.6483C65.0689 29.4766 60.2052 28.0544 55.4931 26.6796C51.2361 25.4281 47.2161 24.2525 43.9925 20.991C40.769 17.7295 39.5838 13.7381 38.3039 9.48107C37.4812 6.18 36.2486 2.99489 34.6347 0H32.5015C34.5683 3.13823 35.5828 6.63675 36.5688 9.95513C37.8772 14.4397 39.1192 18.6777 42.6746 22.2805C46.23 25.8833 50.4586 27.021 54.9526 28.3863C59.4467 29.7515 64.0734 31.0598 67.9227 34.8997C69.4766 36.4757 70.7581 38.2989 71.7152 40.2946L71.772 40.3987C72.8622 42.8113 73.7502 45.3104 74.4267 47.8699C75.7446 52.3639 76.9866 56.602 80.5326 60.1953C84.0785 63.7507 88.326 64.9927 92.8579 66.3011C95.418 66.9761 97.917 67.8642 100.329 68.9558L100.433 69.0125C102.064 69.7958 103.585 70.7905 104.956 71.9707Z" fill="#FFC844"/>
<path d="M144.349 55.0374C142.974 50.2969 141.505 45.471 137.381 41.2993C135.745 39.6738 133.859 38.3199 131.796 37.2889C131.142 36.957 130.478 36.6536 129.815 36.3408L129.635 36.2746L128.895 35.9806L128.355 35.7815L128.004 35.6581L127.264 35.4021H127.189C126.003 35.0134 124.828 34.6627 123.671 34.3309C119.405 33.0794 115.385 31.9037 112.161 28.6422C108.937 25.3808 107.762 21.3986 106.472 17.1321C106.055 15.7004 105.629 14.2405 105.107 12.7804C105.107 12.6856 105.05 12.6003 105.012 12.5054C104.974 12.4106 104.87 12.0976 104.794 11.8985L104.529 11.2349C104.529 11.1496 104.462 11.0737 104.434 10.9884C104.159 10.3247 103.856 9.66117 103.486 9.00698C102.456 6.94078 101.098 5.05481 99.4659 3.4225C98.1651 2.11785 96.6988 0.989419 95.1045 0.0661621H90.9424C93.6512 1.0946 96.1176 2.67333 98.1859 4.70254C99.7441 6.27494 101.026 8.09867 101.978 10.0972C101.984 10.1318 101.984 10.167 101.978 10.2016C103.079 12.6111 103.97 15.1105 104.642 17.6726C105.951 22.1571 107.193 26.3951 110.748 29.9505C114.294 33.5059 118.532 34.7479 123.074 36.0658C125.627 36.7376 128.12 37.6225 130.526 38.711L130.649 38.768C132.642 39.729 134.465 41.0101 136.044 42.5604C139.884 46.4002 141.239 51.0459 142.557 55.5304C143.012 57.0758 143.505 58.5929 143.989 60.0719C144.624 60.0719 145.259 59.9962 145.885 59.9677C145.335 58.3939 144.852 56.7345 144.349 55.0374Z" fill="#FFC844"/>
<path d="M56.2323 112.844C55.5781 112.512 54.9145 112.209 54.2508 111.896L54.0707 111.82L53.3216 111.526L52.7907 111.327L52.4399 111.203L51.7004 110.948H51.615C50.4394 110.559 49.2638 110.218 48.0976 109.876C43.8406 108.625 39.8206 107.449 36.5971 104.188C33.3735 100.926 32.1978 96.9441 30.9084 92.6776C30.4913 91.246 30.0646 89.7858 29.5431 88.3257C29.5431 88.2309 29.4767 88.1456 29.4483 88.0508L29.2208 87.4441C29.1449 87.226 29.0501 87.0078 28.9648 86.7897L28.8605 86.5339C28.595 85.8702 28.2916 85.2065 27.9598 84.5618C26.9334 82.4959 25.579 80.6099 23.9493 78.9773C19.7776 74.8056 14.9138 73.3836 10.2112 71.9994C6.54205 70.928 3.04354 69.9041 0.0854492 67.5718V69.8187C3.0151 71.7813 6.28608 72.739 9.69927 73.744C14.1933 75.0524 18.8295 76.408 22.6694 80.2573C24.2246 81.8323 25.5063 83.6555 26.4618 85.652C26.4794 85.6859 26.4952 85.7209 26.5092 85.7564C27.6054 88.1676 28.4966 90.6667 29.1734 93.2274C30.4818 97.7119 31.7238 101.95 35.2792 105.506C38.8346 109.051 43.0726 110.246 47.6046 111.611C50.1615 112.287 52.6574 113.175 55.0662 114.266L55.1799 114.313C57.1716 115.272 58.9912 116.554 60.5652 118.106C61.9646 119.5 63.1442 121.098 64.0637 122.846C64.3102 122.078 64.5662 121.301 64.8317 120.542C63.9836 119.169 62.9816 117.896 61.8452 116.75C60.1962 115.155 58.301 113.836 56.2323 112.844Z" fill="#FFC844"/>
<path d="M71.3356 97.7305C70.6814 97.3987 70.0177 97.1048 69.3541 96.7824L69.1644 96.7067C68.9274 96.6119 68.6809 96.5076 68.4249 96.4223L67.8845 96.2137L67.5432 96.0903L66.7942 95.8438H66.7183C65.5426 95.4456 64.367 95.1044 63.2009 94.7631C58.9439 93.5116 54.9239 92.3359 51.7003 89.0744C48.4767 85.8129 47.3011 81.8308 46.0117 77.5738C45.6704 76.4076 45.3195 75.213 44.9308 74.0279C44.8455 73.7624 44.7507 73.5066 44.6559 73.2411C44.6559 73.1463 44.5895 73.0419 44.5516 72.9376L44.343 72.3592C44.2482 72.1316 44.1629 71.8946 44.0681 71.6671C44.0405 71.5896 44.0088 71.5137 43.9732 71.4395C43.7077 70.7759 43.4044 70.1218 43.0251 69.4676C41.9964 67.4031 40.6423 65.5175 39.0146 63.8832C34.843 59.7115 29.9792 58.2895 25.2766 56.9052C21.0101 55.6632 16.9901 54.4876 13.7665 51.2166C10.543 47.9456 9.36732 43.9634 8.07789 39.7064C6.70314 34.9659 5.23359 30.14 1.10933 25.9684C0.739565 25.5986 0.369762 25.2667 0 24.9443V27.4285C3.7071 31.2209 5.05341 35.8003 6.34284 40.2184C7.63227 44.6366 8.90273 48.941 12.4487 52.4964C15.9946 56.0518 20.2421 57.2843 24.7267 58.6021C29.2112 59.92 33.8569 61.2759 37.6968 65.1157C39.2499 66.6924 40.5314 68.5152 41.4892 70.5104C41.4856 70.5451 41.4856 70.5801 41.4892 70.6148C42.5823 73.0262 43.4703 75.5253 44.1439 78.0858C45.4617 82.5703 46.7038 86.8083 50.2592 90.3637C53.8146 93.9097 58.0526 95.1044 62.5846 96.4697C65.1451 97.1432 67.6443 98.0311 70.0557 99.1242L70.1599 99.1812C71.5067 99.8231 72.7786 100.612 73.9524 101.532C74.2747 101.02 74.6161 100.509 74.9479 100.006C73.8045 99.1202 72.579 98.3453 71.2882 97.6926L71.3356 97.7305Z" fill="#FFC844"/>
<path d="M2.04828 5.60315C6.53283 6.92102 11.1691 8.2767 15.0089 12.126C18.8487 15.9753 20.214 20.6023 21.5319 25.0963C22.8497 29.5903 24.0823 33.8189 27.6377 37.4217C31.1931 41.0245 35.4311 42.1622 39.9631 43.5274C44.495 44.8927 49.0839 46.2012 52.9332 50.041C54.4893 51.6188 55.771 53.4453 56.7256 55.4452V55.5304C57.8245 57.9437 58.7158 60.4464 59.3898 63.0111C60.7077 67.5051 61.9497 71.7431 65.4956 75.289C69.051 78.835 73.2891 80.0769 77.7736 81.3948C80.3305 82.07 82.8264 82.9581 85.2352 84.0495L85.3585 84.1065C86.0442 84.4446 86.7119 84.818 87.359 85.2252C87.8046 84.789 88.3071 84.3625 88.7147 83.9359C87.9819 83.4538 87.2222 83.0137 86.4393 82.6179C85.7756 82.2955 85.1214 81.9922 84.4483 81.7172L84.2776 81.6508L83.5286 81.3568L82.9882 81.1578L82.6374 81.0251L81.8978 80.7786H81.822C80.6464 80.3899 79.4707 80.039 78.3045 79.6976C74.0475 78.4556 70.0276 77.2705 66.804 74.0564C63.5804 70.8424 62.4048 66.8035 61.1154 62.537C60.774 61.3709 60.4232 60.1857 60.025 59.0006C59.9397 58.7351 59.8449 58.4696 59.7501 58.2041C59.7501 58.1093 59.6837 58.0145 59.6458 57.9196C59.6079 57.8248 59.5035 57.5215 59.4277 57.3224C59.3518 57.1233 59.2571 56.8769 59.1623 56.6493C59.1623 56.5735 59.1054 56.4881 59.0675 56.4028C58.7925 55.7391 58.4986 55.0849 58.1668 54.4307C57.1347 52.3682 55.7809 50.4833 54.1562 48.8464C49.9845 44.6747 45.1208 43.2525 40.4182 41.8777C36.1517 40.6262 32.1317 39.4506 28.9081 36.1891C25.6846 32.9276 24.5089 28.9362 23.2195 24.6792C21.8447 19.9386 20.3752 15.1126 16.2414 10.9409C12.1077 6.76921 7.20597 5.34718 2.50335 3.96294C1.66902 3.71643 0.844181 3.47938 0.0288086 3.22339V5.1196L2.04828 5.60315Z" fill="#FFC844"/>
<path d="M53.6822 145.705C52.3075 140.965 50.8379 136.139 46.7137 131.967C45.076 130.339 43.1872 128.985 41.1198 127.957C40.4656 127.625 39.802 127.321 39.1383 127.009L38.9676 126.952L38.2186 126.648L37.6782 126.449L37.3274 126.326L36.5879 126.07H36.5025C35.3269 125.681 34.1513 125.33 32.9946 124.998C28.7376 123.747 24.7081 122.571 21.4845 119.31C18.261 116.048 17.0853 112.066 15.7959 107.809C15.4451 106.634 15.0943 105.449 14.7056 104.264C14.6202 103.998 14.5254 103.733 14.4401 103.477C14.4401 103.372 14.3642 103.277 14.3358 103.183C14.3073 103.088 14.1936 102.784 14.1177 102.595C14.0419 102.405 13.9376 102.149 13.8523 101.922C13.8523 101.836 13.7859 101.761 13.7574 101.675C13.4825 101.012 13.1791 100.357 12.8093 99.7031C11.7863 97.6352 10.4316 95.7489 8.79886 94.1188C6.31806 91.696 3.32865 89.8562 0.0478516 88.7334V90.6296C2.84253 91.6695 5.38773 93.2845 7.51888 95.3701C9.07713 96.9426 10.3592 98.7665 11.3113 100.765C11.3113 100.765 11.3113 100.831 11.3113 100.86C12.4075 103.274 13.2987 105.777 13.9755 108.34C15.2839 112.825 16.5259 117.063 20.0813 120.618C23.6272 124.174 27.8653 125.416 32.4067 126.734C34.9603 127.405 37.4531 128.29 39.8589 129.379L39.9821 129.445C41.9778 130.402 43.8008 131.684 45.3769 133.238C49.2167 137.03 50.5725 141.723 51.8903 146.208C52.2696 147.497 52.6393 148.758 53.066 150H54.9622C54.5356 148.616 54.1184 147.175 53.6822 145.705Z" fill="#FFC844"/>
<path d="M26.0166 143.079C25.3624 142.747 24.6987 142.443 24.035 142.13L23.8264 142.055L23.1153 141.77L22.556 141.562L22.2336 141.448L21.4751 141.192H21.4088C20.2331 140.794 19.048 140.443 17.8913 140.102C13.6343 138.86 9.60486 137.684 6.38129 134.46C3.15773 131.237 1.98206 127.217 0.740041 122.95C0.531457 122.268 0.332322 121.566 0.114258 120.865V127.103C1.06471 130.338 2.77455 133.3 5.10131 135.74C8.64723 139.296 12.8853 140.538 17.3793 141.846C19.9365 142.524 22.4324 143.416 24.8409 144.51L24.9547 144.558C26.9499 145.515 28.7728 146.797 30.3494 148.35C30.869 148.87 31.3566 149.421 31.8095 150H34.066C33.3417 148.953 32.5264 147.973 31.6294 147.07C29.9851 145.447 28.0898 144.099 26.0166 143.079Z" fill="#FFC844"/>
<path d="M126 71H78V119H126V71Z" fill="#2B5243"/>
<path d="M78 108.335V119C90.7304 119 102.939 113.943 111.941 104.941C120.943 95.9394 126 83.7304 126 71H115.331C115.331 80.9012 111.398 90.3969 104.397 97.3985C97.3965 104.4 87.9012 108.334 78 108.335Z" fill="#766DFA"/>
<path d="M93.0545 71H78V81.6691H98.1208C98.299 81.6691 98.4699 81.7399 98.5959 81.8659C98.7219 81.992 98.7928 82.1629 98.7928 82.3411V118.996H109.457V87.3986C109.456 83.049 107.728 78.878 104.652 75.8028C101.576 72.7276 97.4041 71 93.0545 71Z" fill="#4CE467"/>
<path d="M109.457 107.258V91.1123C106.686 95.4401 103.056 99.153 98.792 102.021V114.288C102.643 112.427 106.229 110.063 109.457 107.258Z" fill="#F3F1E5"/>
</svg>
