<svg width="110" height="110" viewBox="0 0 110 110" fill="none" xmlns="http://www.w3.org/2000/svg">
<path d="M109.912 0H0V109.912H109.912V0Z" fill="#FFC844"/>
<path d="M49.1062 24.4241C60.3708 24.4097 71.5265 26.629 81.928 30.9535C92.3295 35.278 101.77 41.6219 109.704 49.6183H109.912V18.3423C91.901 6.35712 70.7403 -0.0178379 49.1062 0.0236386H0V24.4485L49.1062 24.4241Z" fill="#766DFA"/>
<path d="M39.9896 54.957H0V79.3819H51.5853C51.9934 79.3819 52.3849 79.5441 52.6734 79.8326C52.962 80.1212 53.1241 80.5126 53.1241 80.9207V109.913H77.549V92.5164C77.549 87.584 76.5775 82.7 74.69 78.1431C72.8024 73.5862 70.0358 69.4456 66.5481 65.9579C63.0604 62.4702 58.9198 59.7037 54.3629 57.8161C49.806 55.9286 44.922 54.957 39.9896 54.957Z" fill="#FC805F"/>
</svg>
