<svg width="259" height="283" viewBox="0 0 259 283" fill="none" xmlns="http://www.w3.org/2000/svg">
<path d="M166.994 37.1349C170.078 40.2079 173.637 42.7635 177.535 44.7037C178.771 45.3301 180.018 45.8997 181.277 46.4122L181.619 46.5489C182.088 46.7368 182.55 46.9248 183.02 47.0956L184.045 47.48L184.694 47.7107L186.095 48.1891L186.249 48.2403C188.47 48.975 190.691 49.6328 192.878 50.2735C200.916 52.6312 208.502 54.8523 214.585 60.9346C220.667 67.017 222.888 74.6028 225.246 82.6414C225.895 84.8539 226.553 87.0921 227.304 89.3388C227.467 89.8428 227.646 90.3469 227.817 90.8509C227.885 91.0303 227.954 91.2096 228.013 91.389L228.423 92.5081C228.586 92.9352 228.757 93.3624 228.919 93.7724C228.987 93.9262 229.047 94.08 229.107 94.2423C229.619 95.4895 230.189 96.7281 230.815 97.9583L230.815 98.0181C232.756 101.916 235.311 105.475 238.384 108.56C244.364 114.54 251.13 117.538 257.93 119.768L257.93 116.163C251.89 114.087 245.97 111.302 240.793 106.142C237.851 103.169 235.423 99.728 233.609 95.9593C233.581 95.895 233.55 95.8323 233.515 95.7714C231.454 91.2176 229.777 86.5 228.5 81.6676C226.023 73.1933 223.674 65.1974 216.976 58.4915C210.279 51.7941 202.283 49.4448 193.809 46.9674C188.978 45.6945 184.263 44.0171 179.714 41.9529L179.517 41.859C175.746 40.0449 172.304 37.6139 169.334 34.6661C162.082 27.4134 159.519 18.6658 157.041 10.2001C156.016 6.69761 155.008 3.28911 153.718 0.00875706L150.011 0.00875674C151.48 3.63294 152.732 7.34128 153.761 11.1141C156.435 20.0839 159.126 29.2672 166.994 37.1349Z" fill="#FFC844"/>
<path d="M-13.837 3.57236C-7.75461 9.66325 -5.53355 17.2405 -3.17579 25.2962C-0.613016 34.172 2.1121 43.3468 9.97985 51.223C17.8476 59.0993 27.0223 61.7817 35.9152 64.3445C43.9538 66.7023 51.5396 68.9233 57.6304 75.0056C63.7213 81.088 65.9339 88.6738 68.2917 96.7295C70.8545 105.605 73.5795 114.78 81.4472 122.648C84.5338 125.72 88.0928 128.279 91.9889 130.225C93.2304 130.846 94.4776 131.415 95.7305 131.934L96.0978 132.079L97.4646 132.608L98.5153 132.993L99.139 133.224L100.566 133.71L100.685 133.753C102.915 134.488 105.136 135.146 107.331 135.786C115.37 138.144 122.956 140.365 129.038 146.447C135.12 152.53 137.342 160.116 139.699 168.154C140.34 170.367 141.006 172.613 141.75 174.86C141.909 175.361 142.08 175.865 142.262 176.372L142.459 176.91L142.869 178.038C143.031 178.457 143.193 178.892 143.364 179.285C143.424 179.448 143.484 179.601 143.552 179.764C144.065 181.011 144.634 182.25 145.261 183.48L145.261 183.54C147.201 187.435 149.753 190.994 152.821 194.081C160.697 201.949 169.906 204.64 178.756 207.237C186.795 209.594 194.389 211.816 200.471 217.898C206.554 223.98 208.775 231.566 211.133 239.613C213.695 248.497 216.42 257.672 224.288 265.549C232.156 273.425 241.442 276.201 250.318 278.764C252.949 279.533 255.529 280.293 258.006 281.173L258.006 277.559C255.802 276.816 253.555 276.158 251.266 275.484C242.8 273.006 234.044 270.443 226.791 263.191C219.538 255.938 216.976 247.182 214.498 238.716C212.021 230.25 209.672 222.246 202.966 215.549C196.26 208.851 188.273 206.502 179.798 204.016C171.324 201.53 162.576 198.976 155.324 191.723C152.379 188.752 149.951 185.311 148.139 181.541C148.107 181.482 148.079 181.423 148.054 181.361C145.987 176.806 144.307 172.085 143.031 167.249C140.545 158.783 138.204 150.779 131.507 144.081C124.81 137.384 116.805 135.043 108.339 132.557C103.514 131.287 98.8048 129.613 94.2611 127.551L94.039 127.44C90.2723 125.63 86.8338 123.205 83.8648 120.264C76.6122 113.012 74.0494 104.256 71.5635 95.7813C69.0776 87.307 66.7454 79.3197 60.0395 72.6137C53.3336 65.9078 45.3377 63.5756 36.872 61.0897C28.4062 58.6039 19.65 56.0496 12.3974 48.7969C5.14469 41.5443 2.5819 32.7881 0.104545 24.3224C-2.37281 15.8567 -4.72202 7.85224 -11.428 1.15485C-11.8038 0.773261 -12.1882 0.405891 -12.5812 0.0528023L-18.1083 0.0528018C-16.5779 1.09034 -15.1479 2.26865 -13.837 3.57236Z" fill="#FFC844"/>
<path d="M206.051 16.1877L206.102 16.1877C207.333 16.8113 208.588 17.3837 209.844 17.8962C209.947 17.9475 210.049 17.9817 210.16 18.0244C210.63 18.2209 211.108 18.4088 211.578 18.5882L212.586 18.9555L213.261 19.1947L214.637 19.6646L214.816 19.7244C217.037 20.4676 219.249 21.1168 221.436 21.7575C229.475 24.1153 237.061 26.3363 243.152 32.4187C249.243 38.501 251.447 46.0868 253.804 54.1425C254.599 56.842 255.41 59.5927 256.367 62.3434L256.555 62.8816C256.692 63.2575 256.828 63.6334 256.974 64.0092C257.119 64.3851 257.298 64.8635 257.469 65.2736L257.649 65.7349L257.99 66.5122L257.99 56.2611C257.683 55.236 257.375 54.2109 257.076 53.1858C254.599 44.7115 252.25 36.7156 245.552 30.0097C238.846 23.3123 230.85 20.963 222.376 18.4857C217.547 17.2166 212.834 15.539 208.289 13.4712L208.076 13.3687C204.309 11.555 200.871 9.12701 197.902 6.18431C196.044 4.32362 194.396 2.2638 192.99 0.0421772L188.983 0.0421769C190.756 3.16884 192.943 6.04224 195.484 8.58478C198.574 11.6721 202.142 14.2395 206.051 16.1877Z" fill="#FFC844"/>
<path d="M64.4304 35.862C72.469 38.2198 80.0547 40.4409 86.1456 46.5233C92.2365 52.6056 94.449 60.1914 96.8067 68.2385C99.3695 77.1143 102.095 86.2976 109.962 94.1653C113.049 97.238 116.608 99.7962 120.504 101.743C121.743 102.375 122.99 102.939 124.254 103.451L124.57 103.571C125.04 103.767 125.51 103.955 125.988 104.135L126.996 104.502L127.671 104.741L129.047 105.219L129.226 105.279C131.447 106.014 133.66 106.663 135.847 107.304C143.885 109.662 151.471 111.883 157.553 117.965C163.636 124.047 165.857 131.633 168.214 139.68C169.009 142.388 169.82 145.148 170.777 147.898C170.846 148.069 170.905 148.249 170.974 148.419L171.384 149.556L171.871 150.794L172.067 151.281C172.58 152.537 173.152 153.776 173.776 155.014C173.774 155.029 173.774 155.043 173.776 155.057C175.722 158.953 178.28 162.512 181.353 165.599C189.221 173.466 198.438 176.157 207.28 178.754C215.318 181.112 222.913 183.333 228.995 189.415C235.077 195.498 237.299 203.084 239.656 211.131C242.219 220.015 244.944 229.19 252.812 237.066C254.398 238.631 256.112 240.06 257.938 241.337L257.938 237.066C256.997 236.304 256.096 235.494 255.238 234.64C247.985 227.387 245.423 218.631 242.945 210.165C240.468 201.7 238.119 193.695 231.421 186.989C224.724 180.283 216.719 177.951 208.245 175.465C199.771 172.979 191.032 170.425 183.771 163.173C180.828 160.2 178.401 156.758 176.586 152.99C176.586 152.93 176.526 152.862 176.492 152.793C174.423 148.246 172.745 143.53 171.478 138.698C168.992 130.232 166.651 122.228 159.954 115.53C153.256 108.833 145.252 106.492 136.786 104.006C131.957 102.739 127.244 101.061 122.699 98.9919L122.486 98.898C118.721 97.0813 115.283 94.6536 112.312 91.7136C105.059 84.4524 102.496 75.7048 100.019 67.2391C97.5414 58.7733 95.1922 50.7689 88.4948 44.063C81.7974 37.357 73.793 35.0249 65.3187 32.539C56.8445 30.0531 48.0969 27.4989 40.8442 20.2462C34.8046 14.198 32.0111 7.10766 29.8157 0.0172835L26.2448 0.0172832C28.6112 7.85086 31.5242 15.7528 38.4266 22.6552C46.3712 30.5742 55.5461 33.2651 64.4304 35.862Z" fill="#FFC844"/>
<path d="M114.659 18.0078C120.741 24.0901 122.962 31.6759 125.32 39.7231C127.883 48.6074 130.608 57.7822 138.476 65.6499C141.562 68.7226 145.121 71.2808 149.017 73.2272L149.06 73.2272C150.296 73.8537 151.546 74.4232 152.81 74.9357L153.126 75.0553C153.596 75.2518 154.066 75.4397 154.544 75.6191L155.561 75.9865L156.219 76.2256L157.628 76.704L157.765 76.7553C159.986 77.49 162.215 78.1477 164.402 78.7884C172.441 81.1462 180.027 83.3673 186.109 89.4411C192.191 95.5149 194.412 103.109 196.77 111.173C197.419 113.377 198.077 115.607 198.82 117.854L199.333 119.357C199.401 119.537 199.47 119.716 199.529 119.895L199.94 121.023C200.102 121.442 200.273 121.877 200.435 122.287C200.503 122.441 200.563 122.595 200.623 122.749C201.136 123.996 201.699 125.243 202.331 126.465L202.331 126.525C204.272 130.422 206.827 133.982 209.9 137.066C217.768 144.934 226.943 147.625 235.827 150.222C243.866 152.58 251.46 154.801 257.542 160.883C257.688 161.028 257.816 161.182 257.961 161.327L257.961 156.646C251.691 151.324 244.43 149.18 236.784 146.941C228.318 144.464 219.571 141.901 212.309 134.649C209.367 131.676 206.939 128.234 205.125 124.466L205.04 124.286C202.973 119.731 201.292 115.011 200.016 110.174C197.531 101.7 195.19 93.7039 188.493 86.9979C181.795 80.3005 173.799 77.9513 165.325 75.4739C160.502 74.2052 155.796 72.5306 151.255 70.4679L151.025 70.3569C147.259 68.5454 143.821 66.1204 140.85 63.1811C133.598 55.9199 131.035 47.1722 128.558 38.698C126.08 30.2237 123.731 22.2364 117.034 15.5304C110.336 8.82447 102.332 6.49234 93.8575 4.00644C89.8239 2.90613 85.8589 1.5683 81.9832 -4.5902e-05L74.4573 -4.656e-05C80.3858 3.61348 86.7159 5.47578 92.9007 7.28682C100.982 9.67021 108.576 11.9254 114.659 18.0078Z" fill="#FFC844"/>
<path d="M62.6117 267.113L62.5177 266.933C60.4484 262.38 58.7708 257.659 57.5032 252.821C55.0173 244.355 52.6766 236.351 45.9707 229.653C39.2733 222.947 31.2688 220.607 22.7946 218.121C17.9653 216.852 13.2528 215.174 8.70782 213.106L8.50271 213.012C4.73373 211.203 1.29475 208.774 -1.67146 205.828C-8.92413 198.575 -11.4869 189.819 -13.9728 181.353C-16.3733 173.135 -18.6628 165.37 -24.9074 158.801L-24.9074 164.123C-21.0034 169.505 -19.1668 175.758 -17.2191 182.319C-14.6563 191.194 -11.9226 200.369 -4.05489 208.245C-0.965913 211.313 2.59263 213.868 6.48666 215.814L6.53797 215.814C7.77665 216.438 9.02387 217.002 10.2796 217.523L10.664 217.676L12.0053 218.206L13.0731 218.591L13.6796 218.813L15.1148 219.3L15.2257 219.342C17.4554 220.077 19.685 220.735 21.8805 221.384C29.9105 223.733 37.5049 225.954 43.5873 232.037C49.6696 238.119 51.8906 245.705 54.2484 253.76C54.8891 255.956 55.5469 258.186 56.2901 260.424L56.2901 260.484C56.4524 260.979 56.6147 261.466 56.7941 261.953C56.8539 262.149 56.9308 262.337 56.9991 262.525C57.1272 262.893 57.264 263.26 57.4007 263.627C57.5374 263.995 57.7338 264.481 57.9047 264.909L58.084 265.353C58.5966 266.6 59.1604 267.847 59.7926 269.077L59.7926 269.129C61.7407 273.019 64.2955 276.574 67.3613 279.662C68.5418 280.835 69.7943 281.933 71.1115 282.951L77.2109 282.951C74.4982 281.376 72.0002 279.458 69.7789 277.244C66.845 274.287 64.4229 270.864 62.6117 267.113Z" fill="#FFC844"/>
<path d="M-21.125 121.407C-13.0864 123.765 -5.49194 125.986 0.590376 132.068C6.67271 138.151 8.90233 145.737 11.2515 153.784C13.8143 162.668 16.5479 171.843 24.4156 179.719C27.5046 182.787 31.0632 185.342 34.9573 187.288C36.1959 187.911 37.4432 188.475 38.6989 188.996L39.015 189.116C39.4934 189.312 39.9632 189.5 40.4416 189.68L41.4496 190.047L42.116 190.295L43.4999 190.765L43.6707 190.825C45.8918 191.559 48.1128 192.217 50.2998 192.858C58.3383 195.207 65.9242 197.428 72.0065 203.51C78.0889 209.593 80.3099 217.178 82.6592 225.226C83.3084 227.43 83.9747 229.668 84.718 231.914C84.8803 232.41 85.0511 232.905 85.2305 233.409C85.2903 233.589 85.3586 233.777 85.4269 233.965L85.837 235.075C85.9993 235.502 86.1701 235.929 86.341 236.348C86.4008 236.502 86.4521 236.647 86.5204 236.801C87.033 238.048 87.5968 239.295 88.2289 240.525L88.2289 240.577C90.1752 244.471 92.7302 248.029 95.7977 251.118C103.674 258.986 112.883 261.677 121.733 264.274C129.772 266.632 137.357 268.861 143.448 274.944C145.76 277.285 147.686 279.978 149.155 282.922L152.965 282.922C151.242 279.056 148.834 275.534 145.857 272.526C139.16 265.82 131.164 263.479 122.69 260.994C114.216 258.508 105.468 255.953 98.2152 248.701C95.3003 245.754 92.893 242.345 91.0907 238.612L90.9967 238.424C88.9288 233.873 87.2513 229.155 85.9822 224.32C83.4963 215.854 81.1557 207.85 74.4497 201.153C67.7523 194.455 59.7479 192.114 51.2822 189.629C46.4515 188.359 41.7364 186.684 37.1869 184.623L36.9819 184.52C33.2145 182.708 29.7759 180.28 26.8076 177.336C19.5549 170.083 16.9921 161.327 14.5062 152.861C12.0203 144.395 9.6882 136.391 2.98225 129.694C-3.7237 122.996 -11.7196 120.647 -20.1853 118.161C-21.7657 117.7 -23.3546 117.238 -24.9435 116.734L-24.9435 120.314L-21.125 121.407Z" fill="#FFC844"/>
<path d="M17.4572 258.168C10.7512 251.462 2.75533 249.121 -5.71894 246.635C-10.5468 245.366 -15.2591 243.691 -19.8057 241.63L-20.0108 241.527C-21.7058 240.695 -23.3413 239.748 -24.9057 238.691L-24.9057 242.757C-23.966 243.321 -23.0177 243.842 -22.061 244.329L-22.0098 244.329C-20.7711 244.953 -19.5238 245.516 -18.2681 246.037L-17.9178 246.174L-16.5339 246.721L-15.5003 247.097L-14.8596 247.327L-13.45 247.814L-13.3048 247.857C-11.0837 248.6 -8.86261 249.258 -6.66715 249.899C1.3629 252.248 8.9572 254.469 15.0395 260.551C21.1219 266.634 23.3429 274.22 25.7007 282.275L25.9057 282.976L29.4766 282.976C29.3143 282.42 29.1434 281.865 28.9811 281.31C26.5038 272.87 24.1631 264.865 17.4572 258.168Z" fill="#FFC844"/>
<path d="M-18.5328 79.7189C-10.6565 87.5866 -1.44757 90.2776 7.40256 92.8745C15.4326 95.2323 23.0269 97.4533 29.1178 103.536C35.2087 109.618 37.4213 117.204 39.7791 125.251C42.3418 134.135 45.0668 143.31 52.9346 151.186C56.0236 154.254 59.5822 156.809 63.4763 158.755C64.7149 159.387 65.9622 159.951 67.2265 160.464L67.5254 160.583C68.0038 160.782 68.4822 160.97 68.9605 161.147L69.9686 161.514L70.6435 161.754C71.1048 161.924 71.5661 162.078 72.0274 162.232L72.1897 162.283C74.4107 163.026 76.6318 163.676 78.8187 164.325C86.8573 166.674 94.4432 168.895 100.526 174.978C106.608 181.06 108.829 188.646 111.187 196.701C111.981 199.409 112.793 202.16 113.749 204.911L113.929 205.423C114.066 205.808 114.202 206.192 114.347 206.577C114.493 206.961 114.672 207.431 114.843 207.824C114.903 207.978 114.963 208.14 115.031 208.294C115.543 209.547 116.113 210.791 116.739 212.027C118.686 215.921 121.241 219.479 124.308 222.568C132.184 230.436 141.393 233.127 150.243 235.724C158.282 238.082 165.876 240.303 171.959 246.385C178.041 252.467 180.262 260.053 182.62 268.109C183.954 273.177 185.72 278.122 187.899 282.888L191.752 282.888C189.027 277.813 187.481 272.423 185.9 267.144C183.414 258.678 181.074 250.674 174.368 243.976C167.662 237.279 159.674 234.93 151.2 232.444C142.726 229.958 133.978 227.403 126.726 220.151C123.784 217.178 121.356 213.737 119.541 209.968L119.447 209.78C117.379 205.229 115.702 200.511 114.433 195.676C111.947 187.21 109.606 179.206 102.909 172.509C96.2114 165.811 88.207 163.471 79.7413 160.985C74.9162 159.715 70.2068 158.04 65.6631 155.979L65.441 155.876C61.6736 154.064 58.2351 151.636 55.2668 148.692C48.0141 141.439 45.4513 132.683 42.9654 124.217C40.4795 115.752 38.1474 107.747 31.4415 101.041C24.7355 94.3353 16.7397 92.0031 8.27393 89.5172C-0.191801 87.0313 -8.948 84.4771 -16.2007 77.2244C-20.0627 73.2724 -23.0593 68.5593 -24.9996 63.3854L-24.9996 71.2788C-23.2324 74.3695 -21.0572 77.2084 -18.5328 79.7189Z" fill="#FFC844"/>
</svg>
