<svg width="283" height="283" viewBox="0 0 283 283" fill="none" xmlns="http://www.w3.org/2000/svg">
<g opacity="0.33">
<path d="M191.995 37.1351C195.08 40.208 198.639 42.7637 202.537 44.7039C203.773 45.3303 205.02 45.8998 206.279 46.4124L206.62 46.549C207.09 46.737 207.552 46.9249 208.021 47.0958L209.047 47.4802L209.696 47.7109L211.097 48.1892L211.251 48.2405C213.472 48.9752 215.693 49.633 217.88 50.2737C225.918 52.6314 233.504 54.8525 239.586 60.9348C245.669 67.0172 247.89 74.603 250.248 82.6416C250.897 84.8541 251.555 87.0923 252.306 89.339C252.469 89.843 252.648 90.3471 252.819 90.8511C252.887 91.0305 252.956 91.2098 253.015 91.3892L253.425 92.5083C253.588 92.9354 253.759 93.3626 253.921 93.7726C253.989 93.9264 254.049 94.0802 254.109 94.2425C254.621 95.4897 255.191 96.7284 255.817 97.9585L255.817 98.0183C257.758 101.916 260.313 105.476 263.386 108.56C269.366 114.54 276.132 117.538 282.932 119.768L282.932 116.163C276.892 114.087 270.972 111.302 265.795 106.142C262.853 103.169 260.425 99.7282 258.611 95.9596C258.583 95.8952 258.551 95.8325 258.517 95.7716C256.456 91.2178 254.779 86.5002 253.502 81.6678C251.025 73.1935 248.676 65.1976 241.978 58.4916C235.281 51.7942 227.285 49.445 218.811 46.9676C213.98 45.6947 209.265 44.0173 204.715 41.9531L204.519 41.8591C200.748 40.0451 197.306 37.614 194.336 34.6663C187.083 27.4136 184.521 18.6659 182.043 10.2002C181.018 6.69774 180.01 3.28924 178.72 0.0088715L175.013 0.00887118C176.482 3.63306 177.734 7.34141 178.763 11.1143C181.437 20.084 184.128 29.2674 191.995 37.1351Z" fill="#4CE467"/>
<path d="M11.1667 3.57139C17.249 9.66227 19.4701 17.2395 21.8279 25.2952C24.3906 34.171 27.1158 43.3458 34.9835 51.2221C42.8513 59.0984 52.026 61.7808 60.9189 64.3436C68.9575 66.7013 76.5432 68.9224 82.6341 75.0047C88.725 81.0871 90.9377 88.6729 93.2954 96.7286C95.8582 105.604 98.5832 114.779 106.451 122.647C109.537 125.72 113.097 128.278 116.993 130.224C118.234 130.845 119.481 131.414 120.734 131.933L121.102 132.078L122.468 132.608L123.519 132.992L124.143 133.223L125.569 133.71L125.689 133.752C127.919 134.487 130.14 135.145 132.335 135.785C140.374 138.143 147.96 140.364 154.042 146.447C160.124 152.529 162.345 160.115 164.703 168.153C165.344 170.366 166.01 172.613 166.753 174.859C166.913 175.361 167.084 175.865 167.266 176.371L167.462 176.91L167.872 178.037C168.035 178.456 168.197 178.891 168.368 179.284C168.428 179.447 168.487 179.601 168.556 179.763C169.068 181.01 169.638 182.249 170.264 183.479L170.264 183.539C172.204 187.434 174.757 190.993 177.825 194.08C185.701 201.948 194.91 204.639 203.76 207.236C211.799 209.594 219.393 211.815 225.475 217.897C231.558 223.979 233.779 231.565 236.136 239.612C238.699 248.497 241.424 257.671 249.292 265.548C257.16 273.424 266.446 276.2 275.321 278.763C277.953 279.532 280.532 280.292 283.01 281.172L283.01 277.559C280.806 276.815 278.559 276.158 276.27 275.483C267.804 273.005 259.048 270.443 251.795 263.19C244.542 255.937 241.98 247.181 239.502 238.715C237.025 230.25 234.676 222.245 227.97 215.548C221.264 208.85 213.276 206.501 204.802 204.015C196.328 201.529 187.58 198.975 180.327 191.722C177.383 188.752 174.955 185.31 173.143 181.54C173.111 181.482 173.083 181.422 173.058 181.36C170.991 176.805 169.311 172.085 168.035 167.248C165.549 158.782 163.208 150.778 156.511 144.08C149.813 137.383 141.809 135.042 133.343 132.556C128.518 131.286 123.809 129.612 119.265 127.55L119.043 127.439C115.276 125.63 111.838 123.204 108.869 120.264C101.616 113.011 99.0531 104.255 96.5672 95.7804C94.0813 87.3061 91.7492 79.3188 85.0432 72.6128C78.3373 65.9069 70.3414 63.5747 61.8756 61.0888C53.4099 58.6029 44.6537 56.0487 37.401 48.796C30.1484 41.5433 27.5856 32.7871 25.1082 24.3214C22.6309 15.8557 20.2816 7.85126 13.5757 1.15385C13.1998 0.772285 12.8154 0.404914 12.4224 0.0518257L6.89538 0.0518252C8.42571 1.08936 9.85571 2.26768 11.1667 3.57139Z" fill="#4CE467"/>
<path d="M231.051 16.1882L231.102 16.1882C232.333 16.8118 233.588 17.3841 234.844 17.8967C234.947 17.9479 235.049 17.9821 235.16 18.0248C235.63 18.2213 236.108 18.4092 236.578 18.5886L237.586 18.956L238.261 19.1952L239.636 19.665L239.816 19.7248C242.037 20.468 244.249 21.1173 246.436 21.758C254.475 24.1157 262.061 26.3368 268.152 32.4191C274.243 38.5015 276.447 46.0873 278.804 54.143C279.599 56.8425 280.41 59.5932 281.367 62.3439L281.555 62.8821C281.692 63.258 281.828 63.6338 281.974 64.0097C282.119 64.3856 282.298 64.864 282.469 65.2741L282.649 65.7353L282.99 66.5127L282.99 56.2616C282.683 55.2364 282.375 54.2113 282.076 53.1862C279.599 44.712 277.25 36.7161 270.552 30.0101C263.846 23.3127 255.85 20.9635 247.376 18.4861C242.547 17.217 237.834 15.5394 233.289 13.4716L233.076 13.3691C229.309 11.5554 225.871 9.12743 222.902 6.18473C221.043 4.32404 219.396 2.26422 217.99 0.0425892L213.983 0.0425889C215.756 3.16926 217.943 6.04266 220.484 8.58521C223.573 11.6725 227.142 14.24 231.051 16.1882Z" fill="#4CE467"/>
<path d="M89.4282 35.8617C97.4668 38.2195 105.053 40.4406 111.143 46.5229C117.234 52.6053 119.447 60.1911 121.805 68.2382C124.367 77.114 127.093 86.2973 134.96 94.1651C138.047 97.2377 141.606 99.796 145.502 101.742C146.741 102.375 147.988 102.938 149.252 103.451L149.568 103.57C150.038 103.767 150.508 103.955 150.986 104.134L151.994 104.502L152.669 104.741L154.045 105.219L154.224 105.279C156.445 106.014 158.658 106.663 160.844 107.304C168.883 109.661 176.469 111.882 182.551 117.965C188.634 124.047 190.855 131.633 193.212 139.68C194.007 142.388 194.818 145.147 195.775 147.898C195.844 148.069 195.903 148.248 195.972 148.419L196.382 149.555L196.869 150.794L197.065 151.281C197.578 152.537 198.15 153.775 198.774 155.014C198.772 155.028 198.772 155.043 198.774 155.057C200.72 158.953 203.278 162.512 206.351 165.598C214.219 173.466 223.436 176.157 232.278 178.754C240.316 181.112 247.911 183.333 253.993 189.415C260.076 195.498 262.297 203.083 264.654 211.131C267.217 220.015 269.942 229.19 277.81 237.066C279.396 238.631 281.11 240.059 282.936 241.337L282.936 237.066C281.995 236.304 281.094 235.494 280.236 234.64C272.983 227.387 270.421 218.631 267.943 210.165C265.466 201.7 263.117 193.695 256.419 186.989C249.722 180.283 241.717 177.951 233.243 175.465C224.769 172.979 216.03 170.425 208.768 163.172C205.826 160.199 203.399 156.758 201.584 152.99C201.584 152.93 201.524 152.861 201.49 152.793C199.421 148.246 197.743 143.53 196.476 138.698C193.99 130.232 191.649 122.228 184.952 115.53C178.254 108.833 170.25 106.492 161.784 104.006C156.954 102.738 152.242 101.061 147.697 98.9917L147.484 98.8977C143.719 97.081 140.281 94.6534 137.309 91.7133C130.057 84.4521 127.494 75.7045 125.017 67.2388C122.539 58.773 120.19 50.7686 113.493 44.0627C106.795 37.3567 98.7908 35.0246 90.3165 32.5387C81.8423 30.0528 73.0947 27.4985 65.842 20.2458C59.8024 14.1977 57.0089 7.10728 54.8135 0.0169173L51.2426 0.016917C53.6089 7.85049 56.522 15.7524 63.4244 22.6548C71.369 30.5738 80.5439 33.2648 89.4282 35.8617Z" fill="#4CE467"/>
<path d="M139.661 18.0079C145.743 24.0902 147.964 31.6761 150.322 39.7232C152.884 48.6075 155.61 57.7823 163.477 65.6501C166.564 68.7227 170.123 71.2809 174.019 73.2274L174.062 73.2274C175.297 73.8538 176.548 74.4233 177.812 74.9359L178.128 75.0555C178.598 75.2519 179.068 75.4399 179.546 75.6193L180.563 75.9866L181.22 76.2258L182.63 76.7042L182.767 76.7555C184.988 77.4901 187.217 78.1479 189.404 78.7886C197.443 81.1463 205.029 83.3675 211.111 89.4413C217.193 95.5151 219.414 103.109 221.772 111.174C222.421 113.378 223.079 115.607 223.822 117.854L224.335 119.358C224.403 119.537 224.472 119.716 224.531 119.896L224.942 121.023C225.104 121.442 225.275 121.878 225.437 122.288C225.505 122.441 225.565 122.595 225.625 122.749C226.137 123.996 226.701 125.243 227.333 126.465L227.333 126.525C229.274 130.422 231.829 133.982 234.902 137.066C242.77 144.934 251.945 147.625 260.829 150.222C268.868 152.58 276.462 154.801 282.544 160.883C282.69 161.028 282.818 161.182 282.963 161.327L282.963 156.646C276.693 151.324 269.431 149.18 261.786 146.942C253.32 144.464 244.572 141.901 237.311 134.649C234.369 131.676 231.941 128.235 230.127 124.466L230.041 124.287C227.974 119.732 226.294 115.011 225.018 110.174C222.532 101.7 220.192 93.704 213.494 86.9981C206.797 80.3007 198.801 77.9515 190.327 75.4741C185.504 74.2054 180.797 72.5307 176.257 70.4681L176.026 70.357C172.261 68.5455 168.822 66.1205 165.852 63.1813C158.6 55.92 156.037 47.1724 153.559 38.6981C151.082 30.2238 148.733 22.2365 142.035 15.5305C135.338 8.82457 127.334 6.49243 118.859 4.00653C114.826 2.90622 110.861 1.56839 106.985 4.56507e-05L99.459 4.49927e-05C105.388 3.61357 111.718 5.47589 117.903 7.28693C125.984 9.67032 133.578 11.9256 139.661 18.0079Z" fill="#4CE467"/>
<path d="M87.6116 267.11L87.5177 266.931C85.4484 262.378 83.7708 257.656 82.5032 252.818C80.0173 244.353 77.6766 236.348 70.9706 229.651C64.2732 222.945 56.2688 220.604 47.7945 218.118C42.9653 216.849 38.2527 215.172 33.7078 213.104L33.5026 213.01C29.7337 211.2 26.2947 208.772 23.3285 205.825C16.0758 198.573 13.513 189.817 11.0271 181.351C8.62661 173.133 6.33715 165.368 0.092502 158.798L0.0925015 164.12C3.99648 169.502 5.83314 175.755 7.78085 182.316C10.3436 191.192 13.0773 200.367 20.945 208.243C24.034 211.311 27.5926 213.866 31.4866 215.812L31.5379 215.812C32.7766 216.435 34.0238 216.999 35.2796 217.52L35.664 217.674L37.0052 218.204L38.073 218.588L38.6795 218.81L40.1147 219.297L40.2257 219.34C42.4553 220.075 44.685 220.732 46.8804 221.382C54.9105 223.731 62.5049 225.952 68.5872 232.034C74.6696 238.117 76.8906 245.702 79.2484 253.758C79.8891 255.954 80.5469 258.183 81.2901 260.421L81.2901 260.481C81.4524 260.977 81.6147 261.464 81.7941 261.951C81.8539 262.147 81.9307 262.335 81.9991 262.523C82.1272 262.89 82.264 263.258 82.4007 263.625C82.5373 263.992 82.7338 264.479 82.9047 264.906L83.084 265.35C83.5966 266.598 84.1604 267.845 84.7925 269.075L84.7925 269.126C86.7407 273.017 89.2955 276.572 92.3613 279.659C93.5418 280.832 94.7943 281.931 96.1115 282.948L102.211 282.948C99.4982 281.374 97.0002 279.456 94.7789 277.242C91.8449 274.285 89.4228 270.861 87.6116 267.11Z" fill="#4CE467"/>
<path d="M3.87486 121.409C11.9135 123.767 19.5079 125.988 25.5902 132.07C31.6726 138.152 33.9022 145.738 36.2514 153.785C38.8142 162.67 41.5477 171.844 49.4155 179.721C52.5045 182.788 56.0631 185.343 59.9571 187.289C61.1958 187.913 62.443 188.477 63.6988 188.998L64.0149 189.118C64.4933 189.314 64.9631 189.502 65.4414 189.681L66.4495 190.049L67.1159 190.296L68.4998 190.766L68.6706 190.826C70.8916 191.561 73.1127 192.219 75.2997 192.859C83.3382 195.208 90.9241 197.43 97.0065 203.512C103.089 209.594 105.31 217.18 107.659 225.227C108.308 227.431 108.975 229.669 109.718 231.916C109.88 232.412 110.051 232.907 110.23 233.411C110.29 233.59 110.359 233.778 110.427 233.966L110.837 235.077C110.999 235.504 111.17 235.931 111.341 236.35C111.401 236.503 111.452 236.649 111.52 236.802C112.033 238.05 112.597 239.297 113.229 240.527L113.229 240.578C115.175 244.472 117.73 248.031 120.798 251.12C128.674 258.988 137.883 261.679 146.733 264.276C154.772 266.633 162.357 268.863 168.448 274.945C170.76 277.287 172.686 279.98 174.155 282.924L177.965 282.924C176.242 279.058 173.834 275.536 170.857 272.528C164.16 265.822 156.164 263.481 147.69 260.995C139.215 258.509 130.468 255.955 123.215 248.702C120.3 245.755 117.893 242.346 116.091 238.614L115.997 238.426C113.929 233.875 112.251 229.157 110.982 224.322C108.496 215.856 106.156 207.852 99.4496 201.154C92.7522 194.457 84.7478 192.116 76.2821 189.63C71.4514 188.36 66.7363 186.686 62.1868 184.624L61.9817 184.522C58.2144 182.709 54.7757 180.281 51.8075 177.337C44.5548 170.085 41.992 161.328 39.5061 152.863C37.0202 144.397 34.688 136.393 27.9821 129.695C21.2761 122.998 13.2803 120.649 4.81453 118.163C3.23415 117.701 1.64526 117.24 0.0563347 116.736L0.0563344 120.315L3.87486 121.409Z" fill="#4CE467"/>
<path d="M42.4552 258.167C35.7492 251.461 27.7533 249.12 19.2791 246.634C14.4512 245.364 9.73891 243.69 5.19231 241.628L4.98719 241.526C3.2922 240.694 1.65668 239.747 0.0922852 238.69L0.0922849 242.756C1.03197 243.32 1.98027 243.841 2.93704 244.328L2.98824 244.328C4.22692 244.951 5.47415 245.515 6.72992 246.036L7.08019 246.173L8.46409 246.72L9.49771 247.096L10.1384 247.326L11.548 247.813L11.6932 247.856C13.9143 248.599 16.1354 249.257 18.3309 249.898C26.3609 252.247 33.9552 254.468 40.0376 260.55C46.1199 266.633 48.341 274.218 50.6987 282.274L50.9037 282.975L54.4746 282.975C54.3123 282.419 54.1415 281.864 53.9792 281.309C51.5018 272.869 49.1611 264.864 42.4552 258.167Z" fill="#4CE467"/>
<path d="M0.0828048 281.812C0.996864 282.179 1.89386 282.572 2.77375 283L9.55664 283C6.6182 280.981 3.4346 279.345 0.0828051 278.13L0.0828048 281.812Z" fill="#4CE467"/>
<path d="M6.46698 79.7196C14.3433 87.5874 23.5522 90.2783 32.4024 92.8753C40.4324 95.233 48.0267 97.4541 54.1176 103.536C60.2085 109.619 62.4211 117.205 64.7789 125.252C67.3417 134.136 70.0667 143.311 77.9344 151.187C81.0234 154.255 84.5821 156.81 88.4761 158.756C89.7148 159.388 90.962 159.952 92.2263 160.464L92.5253 160.584C93.0037 160.783 93.482 160.971 93.9604 161.148L94.9685 161.515L95.6434 161.754C96.1047 161.925 96.566 162.079 97.0273 162.233L97.1895 162.284C99.4106 163.027 101.632 163.676 103.819 164.326C111.857 166.675 119.443 168.896 125.525 174.978C131.608 181.061 133.829 188.647 136.187 196.702C136.981 199.41 137.793 202.161 138.749 204.912L138.929 205.424C139.065 205.809 139.202 206.193 139.347 206.577C139.493 206.962 139.672 207.432 139.843 207.825C139.903 207.979 139.962 208.141 140.031 208.295C140.543 209.547 141.113 210.792 141.739 212.028C143.686 215.922 146.241 219.48 149.308 222.569C157.184 230.437 166.393 233.128 175.243 235.725C183.282 238.083 190.876 240.304 196.959 246.386C203.041 252.468 205.262 260.054 207.62 268.11C208.954 273.178 210.72 278.122 212.899 282.889L216.752 282.889C214.027 277.814 212.481 272.424 210.9 267.145C208.414 258.679 206.074 250.675 199.368 243.977C192.662 237.28 184.674 234.93 176.2 232.445C167.726 229.959 158.978 227.404 151.726 220.152C148.783 217.179 146.356 213.738 144.541 209.969L144.447 209.781C142.379 205.23 140.702 200.512 139.433 195.677C136.947 187.211 134.606 179.207 127.909 172.51C121.211 165.812 113.207 163.471 104.741 160.986C99.9161 159.716 95.2067 158.041 90.663 155.98L90.4408 155.877C86.6735 154.065 83.235 151.637 80.2667 148.693C73.014 141.44 70.4512 132.684 67.9653 124.218C65.4794 115.752 63.1472 107.748 56.4413 101.042C49.7353 94.3361 41.7395 92.0039 33.2737 89.518C24.808 87.0321 16.0518 84.4779 8.79911 77.2252C4.93706 73.2732 1.94042 68.5601 0.000171777 63.3862L0.000171087 71.2795C1.76735 74.3703 3.94252 77.2091 6.46698 79.7196Z" fill="#4CE467"/>
</g>
</svg>
