<svg width="218" height="672" viewBox="0 0 218 672" fill="none" xmlns="http://www.w3.org/2000/svg">
<path d="M227.936 671.9L638.999 671.9L638.999 537.588L157.544 537.588C156.319 537.588 155.105 537.37 153.973 536.945C152.841 536.519 151.812 535.896 150.945 535.111C150.079 534.326 149.392 533.393 148.923 532.367C148.454 531.341 148.212 530.241 148.212 529.13L148.212 142.868C148.212 141.757 148.454 140.657 148.923 139.631C149.392 138.605 150.079 137.672 150.945 136.887C151.812 136.101 152.841 135.478 153.973 135.053C155.105 134.628 156.319 134.409 157.544 134.409L638.999 134.409L638.999 0.00014283L227.936 9.02121e-05C167.484 8.24739e-05 109.507 21.7664 66.7611 60.5108C24.0148 99.2551 8.07732e-05 151.804 7.37594e-05 206.597L4.06529e-05 465.231C-0.0105298 492.368 5.87736 519.241 17.3275 544.314C28.7776 569.388 45.5656 592.172 66.7325 611.364C87.8994 630.556 113.03 645.78 140.69 656.167C168.35 666.554 197.996 671.9 227.936 671.9Z" fill="#FFC844"/>
</svg>
