<svg width="109" height="124" viewBox="0 0 109 124" fill="none" xmlns="http://www.w3.org/2000/svg">
<path d="M41.1593 110.875C40.0694 109.79 38.8117 108.887 37.4345 108.201C36.9978 107.98 36.5571 107.778 36.1124 107.597L35.9916 107.549C35.8256 107.483 35.6626 107.416 35.4966 107.356L35.1343 107.22L34.905 107.139L34.4099 106.969L34.3556 106.951C33.5708 106.692 32.786 106.459 32.0132 106.233C29.1728 105.4 26.4924 104.615 24.3432 102.466C22.194 100.317 21.4092 97.6363 20.5761 94.7959C20.3467 94.0141 20.1143 93.2232 19.8487 92.4294C19.7913 92.2513 19.7279 92.0732 19.6676 91.8951C19.6434 91.8317 19.6193 91.7683 19.5981 91.705L19.4532 91.3095C19.3959 91.1586 19.3355 91.0077 19.2782 90.8628C19.254 90.8084 19.2329 90.7541 19.2118 90.6968C19.0306 90.2561 18.8294 89.8184 18.6081 89.3837V89.3626C17.9225 87.9854 17.0195 86.7276 15.9337 85.6378C13.8207 83.5248 11.4301 82.4653 9.02734 81.6775V82.9513C11.1614 83.6848 13.2533 84.6688 15.0825 86.492C16.1221 87.5425 16.9799 88.7584 17.621 90.09C17.6309 90.1128 17.642 90.1349 17.6542 90.1565C18.3823 91.7655 18.975 93.4325 19.4261 95.14C20.3015 98.1343 21.1315 100.96 23.498 103.329C25.8645 105.696 28.6899 106.526 31.6842 107.401C33.3912 107.851 35.0572 108.444 36.6647 109.173L36.7342 109.206C38.0666 109.847 39.2827 110.706 40.3322 111.748C42.8949 114.31 43.8005 117.401 44.6758 120.393C45.0381 121.63 45.3942 122.835 45.85 123.994H47.1601C46.641 122.713 46.1985 121.403 45.8349 120.07C44.8901 116.9 43.9393 113.655 41.1593 110.875Z" fill="#FFC844"/>
<path d="M105.055 122.735C102.905 120.583 102.121 117.906 101.288 115.059C100.382 111.923 99.4191 108.681 96.6391 105.898C93.859 103.115 90.6172 102.167 87.4749 101.262C84.6345 100.428 81.9541 99.6436 79.8019 97.4945C77.6497 95.3453 76.8679 92.6649 76.0348 89.8184C75.1293 86.6822 74.1664 83.4403 71.3863 80.6603C70.2957 79.5746 69.0382 78.6706 67.6615 77.9829C67.2228 77.7635 66.7821 77.5623 66.3394 77.3792L66.2096 77.3279L65.7267 77.1407L65.3554 77.0049L65.135 76.9234L64.6309 76.7513L64.5887 76.7362C63.8009 76.4766 63.016 76.2442 62.2403 76.0178C59.3999 75.1847 56.7194 74.3999 54.5703 72.2507C52.4211 70.1016 51.6363 67.4211 50.8032 64.5807C50.5768 63.7989 50.3413 63.0051 50.0787 62.2112C50.0224 62.0341 49.962 61.856 49.8976 61.6769L49.8282 61.4868L49.6833 61.0883C49.626 60.9404 49.5686 60.7865 49.5083 60.6476C49.4871 60.5903 49.466 60.536 49.4418 60.4786C49.2607 60.0379 49.0595 59.6002 48.8381 59.1655V59.1444C48.1527 57.7679 47.2507 56.5103 46.1668 55.4196C43.3837 52.6396 40.1298 51.6887 37.0026 50.7711C34.1622 49.938 31.4788 49.1532 29.3296 47.004C27.1804 44.8548 26.3956 42.1744 25.5625 39.331C24.657 36.1918 23.694 32.9499 20.914 30.1668C18.134 27.3838 14.8529 26.4028 11.7166 25.4972C10.787 25.2256 9.87536 24.9569 9 24.646V25.9228C9.77877 26.1854 10.5726 26.4179 11.3816 26.6563C14.3729 27.5317 17.4669 28.4372 20.0296 30.9999C22.5923 33.5626 23.4979 36.6566 24.3732 39.6479C25.2486 42.6393 26.0787 45.4676 28.4482 47.8341C30.8177 50.2006 33.64 51.0307 36.6344 51.9091C39.6287 52.7875 42.7197 53.69 45.2824 56.2527C46.3229 57.3024 47.1808 58.5185 47.8209 59.8507C47.8322 59.8713 47.8423 59.8924 47.8511 59.9141C48.5814 61.5236 49.1752 63.1917 49.626 64.9007C50.5043 67.892 51.3314 70.7204 53.6979 73.0869C56.0644 75.4534 58.8928 76.2804 61.8841 77.1588C63.589 77.6076 65.2531 78.1993 66.8586 78.9277L66.9371 78.9669C68.268 79.6064 69.483 80.4633 70.5321 81.5024C73.0948 84.0651 74.0004 87.1591 74.8787 90.1535C75.7571 93.1478 76.5812 95.9701 78.9507 98.3396C81.3202 100.709 84.1455 101.533 87.1369 102.412C90.1282 103.29 93.2222 104.192 95.7849 106.755C98.3476 109.318 99.2531 112.412 100.128 115.403C101.004 118.395 101.834 121.223 104.203 123.589C104.336 123.724 104.472 123.854 104.611 123.979H106.564C106.023 123.612 105.518 123.196 105.055 122.735Z" fill="#FFC844"/>
<path d="M27.3583 118.277H27.3402C26.9056 118.056 26.4618 117.854 26.0181 117.673C25.9819 117.655 25.9457 117.643 25.9064 117.628C25.7404 117.558 25.5714 117.492 25.4053 117.429L25.0492 117.299L24.8107 117.214L24.3247 117.048L24.2614 117.027C23.4766 116.765 22.6948 116.535 21.922 116.309C19.0816 115.476 16.4012 114.691 14.249 112.542C12.0968 110.393 11.318 107.712 10.4849 104.866C10.2042 103.912 9.91745 102.94 9.57938 101.968L9.51298 101.778C9.46469 101.645 9.41636 101.512 9.36504 101.379C9.31373 101.246 9.25035 101.077 9.18998 100.933L9.12661 100.77L9.00586 100.495V104.117C9.11453 104.479 9.22318 104.842 9.32882 105.204C10.2042 108.198 11.0343 111.023 13.4008 113.393C15.7703 115.759 18.5956 116.589 21.59 117.465C23.2964 117.913 24.9616 118.506 26.5675 119.237L26.643 119.273C27.9739 119.914 29.1888 120.772 30.238 121.812C30.8945 122.469 31.4766 123.197 31.9736 123.982H33.3893C32.7627 122.877 31.9901 121.862 31.0922 120.963C30.0005 119.872 28.7396 118.965 27.3583 118.277Z" fill="#FFC844"/>
<path d="M77.3985 111.325C74.5581 110.492 71.8777 109.707 69.7255 107.558C67.5733 105.409 66.7915 102.728 65.9584 99.885C65.0528 96.7488 64.0899 93.5039 61.3099 90.7239C60.2193 89.6382 58.9617 88.7342 57.585 88.0465C57.1474 87.8231 56.7067 87.6239 56.26 87.4428L56.1483 87.4005C55.9823 87.3311 55.8162 87.2647 55.6472 87.2013L55.291 87.0715L55.0526 86.987L54.5665 86.818L54.5032 86.7968C53.7184 86.5372 52.9366 86.3078 52.1638 86.0814C49.3234 85.2483 46.643 84.4635 44.4938 82.3143C42.3446 80.1652 41.5598 77.4847 40.7267 74.6413C40.446 73.6845 40.1593 72.7095 39.8212 71.7375C39.797 71.6772 39.7759 71.6138 39.7518 71.5534L39.6069 71.1519L39.4348 70.7143L39.3654 70.5422C39.1843 70.0985 38.982 69.6608 38.7617 69.2231C38.7624 69.2181 38.7624 69.213 38.7617 69.208C38.0739 67.8314 37.17 66.5738 36.0843 65.4832C33.3042 62.7032 30.0473 61.7523 26.9231 60.8347C24.0827 60.0016 21.3993 59.2168 19.2501 57.0676C17.1009 54.9185 16.3161 52.238 15.483 49.3946C14.5775 46.2554 13.6146 43.0135 10.8345 40.2304C10.2741 39.6776 9.66832 39.1727 9.02344 38.7212V40.2304C9.35581 40.4997 9.67418 40.7859 9.97729 41.0877C12.54 43.6504 13.4456 46.7444 14.3209 49.7357C15.1963 52.727 16.0264 55.5554 18.3929 57.9249C20.7594 60.2944 23.5877 61.1184 26.5821 61.9968C29.5764 62.8752 32.6643 63.7777 35.2301 66.3405C36.2697 67.391 37.1275 68.6068 37.7686 69.9385C37.7686 69.9596 37.7898 69.9838 37.8018 70.0079C38.533 71.6147 39.1257 73.2809 39.5737 74.9885C40.4521 77.9798 41.2791 80.8081 43.6456 83.1746C46.0121 85.5411 48.8405 86.3682 51.8318 87.2466C53.5384 87.6945 55.2036 88.2873 56.8093 89.0184L56.8848 89.0516C58.215 89.6936 59.4298 90.5514 60.4798 91.5902C63.0425 94.1559 63.9481 97.2469 64.8234 100.238C65.6988 103.23 66.5289 106.058 68.8954 108.427C71.2619 110.797 74.0902 111.621 77.0846 112.499C80.0789 113.378 83.1698 114.28 85.7325 116.843C87.8666 118.98 88.8537 121.485 89.6294 123.991H90.8912C90.0551 121.223 89.0257 118.431 86.5868 115.992C83.7796 113.194 80.5377 112.243 77.3985 111.325Z" fill="#FFC844"/>
<path d="M59.6509 117.634C57.5018 115.485 56.717 112.804 55.8839 109.961C54.9783 106.822 54.0154 103.58 51.2354 100.8C50.1447 99.7139 48.8872 98.81 47.5105 98.1222H47.4954C47.0588 97.9009 46.6171 97.6996 46.1703 97.5185L46.0586 97.4763C45.8926 97.4068 45.7266 97.3404 45.5576 97.277L45.1984 97.1472L44.9659 97.0627L44.4679 96.8937L44.4196 96.8756C43.6348 96.616 42.847 96.3836 42.0742 96.1572C39.2338 95.3241 36.5534 94.5393 34.4042 92.3931C32.255 90.247 31.4702 87.5635 30.6371 84.714C30.4077 83.9353 30.1753 83.1474 29.9127 82.3536L29.7316 81.8223C29.7074 81.7589 29.6833 81.6955 29.6622 81.6321L29.5172 81.2337C29.4599 81.0858 29.3995 80.9319 29.3422 80.787C29.318 80.7326 29.2969 80.6783 29.2758 80.624C29.0947 80.1833 28.8955 79.7426 28.6721 79.3109V79.2898C27.9865 77.9126 27.0835 76.6548 25.9977 75.565C23.2177 72.7849 19.9758 71.8341 16.8365 70.9165C13.9961 70.0834 11.3127 69.2986 9.16353 67.1494C9.11221 67.0981 9.06694 67.0437 9.01562 66.9924V68.6466C11.2312 70.5271 13.7969 71.2847 16.4985 72.0756C19.4898 72.951 22.5807 73.8565 25.1465 76.4192C26.1861 77.4697 27.0439 78.6856 27.685 80.0173L27.7152 80.0807C28.4456 81.6902 29.0393 83.3582 29.4901 85.0672C30.3685 88.0616 31.1955 90.8869 33.562 93.2564C35.9285 95.6229 38.7539 96.453 41.7482 97.3283C43.4523 97.7766 45.1154 98.3684 46.7197 99.0972L46.8012 99.1364C48.1318 99.7765 49.3467 100.633 50.3962 101.672C52.9589 104.238 53.8645 107.329 54.7398 110.323C55.6152 113.317 56.4453 116.14 58.8118 118.509C61.1783 120.879 64.0066 121.703 67.001 122.581C68.4262 122.97 69.8273 123.443 71.1967 123.997H73.856C71.7611 122.72 69.5244 122.062 67.3391 121.422C64.4835 120.58 61.8001 119.783 59.6509 117.634Z" fill="#FFC844"/>
<path d="M78.0414 29.6144L78.0746 29.6778C78.8058 31.2866 79.3986 32.9548 79.8465 34.6643C80.7249 37.6556 81.5519 40.484 83.9214 42.8505C86.2879 45.22 89.1163 46.0471 92.1106 46.9254C93.817 47.3739 95.4822 47.9666 97.0881 48.6973L97.1606 48.7305C98.4924 49.3699 99.7075 50.228 100.756 51.2691C103.318 53.8318 104.224 56.9257 105.102 59.9171C105.95 62.8209 106.759 65.5647 108.966 67.8859V66.0054C107.587 64.1037 106.938 61.8942 106.249 59.576C105.344 56.4398 104.378 53.1979 101.598 50.4148C100.506 49.3309 99.2489 48.4281 97.873 47.7404H97.8548C97.4172 47.5201 96.9765 47.3209 96.5327 47.1367L96.3969 47.0824L95.923 46.8953L95.5457 46.7594L95.3314 46.681L94.8243 46.5089L94.7851 46.4938C93.9972 46.2342 93.2094 46.0018 92.4336 45.7724C89.5962 44.9423 86.9128 44.1575 84.7636 42.0083C82.6144 39.8591 81.8296 37.1787 80.9965 34.3323C80.7702 33.5565 80.5377 32.7687 80.2751 31.9778V31.9567C80.2178 31.7816 80.1604 31.6096 80.097 31.4375C80.0759 31.3681 80.0487 31.3017 80.0246 31.2353C79.9793 31.1055 79.931 30.9757 79.8827 30.8459C79.8344 30.7161 79.765 30.5441 79.7046 30.3931L79.6412 30.2362C79.4601 29.7955 79.2609 29.3548 79.0375 28.9201V28.902C78.3492 27.5274 77.4464 26.2711 76.3632 25.1802C75.946 24.7657 75.5034 24.3775 75.038 24.0181H72.8828C73.8414 24.5743 74.724 25.252 75.5089 26.0344C76.5456 27.0792 77.4014 28.289 78.0414 29.6144Z" fill="#FFC844"/>
<path d="M107.629 81.0981C104.789 80.265 102.105 79.4802 99.9562 77.331C97.807 75.1818 97.0192 72.5014 96.1891 69.658C95.2836 66.5187 94.3177 63.2769 91.5376 60.4938C90.4462 59.4099 89.1887 58.5071 87.8128 57.8194C87.3751 57.5991 86.9344 57.3999 86.4907 57.2157L86.379 57.1735C86.21 57.1041 86.044 57.0377 85.8749 56.9743L85.5187 56.8445L85.2833 56.7569L84.7943 56.5909L84.7339 56.5698C83.9491 56.3102 83.1643 56.0778 82.3916 55.8514C79.5512 55.0213 76.8707 54.2365 74.7216 52.0873C72.5724 49.9381 71.7876 47.2577 70.9575 44.4143C70.7281 43.6355 70.4926 42.8447 70.23 42.0508C70.1727 41.8757 70.1123 41.7007 70.0489 41.5226C70.0278 41.4592 70.0037 41.3928 69.9795 41.3264L69.8346 40.934C69.7773 40.783 69.7169 40.6321 69.6565 40.4842C69.6354 40.4299 69.6173 40.3785 69.5931 40.3242C69.412 39.8835 69.2128 39.4428 68.9894 39.0082V38.99C68.3017 37.6141 67.3989 36.3567 66.315 35.2652C63.532 32.4852 60.278 31.5343 57.1509 30.6167C54.3105 29.7836 51.63 28.9958 49.4778 26.8466C48.6611 26.0192 47.9805 25.0677 47.4615 24.0273H46.1152C46.7239 25.3933 47.5747 26.6379 48.6266 27.7009C50.9931 30.0704 53.8185 30.8974 56.8128 31.7758C59.8072 32.6542 62.8981 33.5567 65.4608 36.1194C66.4908 37.1608 67.3414 38.3653 67.9782 39.6843L68.0114 39.7507C68.7421 41.3587 69.3349 43.0259 69.7833 44.7342C70.6617 47.7256 71.4887 50.5539 73.8583 52.9204C76.2248 55.2869 79.0531 56.114 82.0444 56.9924C83.7513 57.4411 85.4174 58.0328 87.025 58.7612L87.0974 58.7974C88.4286 59.4378 89.6436 60.2958 90.6924 61.336C93.2551 63.8987 94.1607 66.9927 95.0391 69.984C95.9175 72.9753 96.7415 75.8036 99.111 78.1702C101.481 80.5367 104.306 81.3667 107.297 82.2451C107.856 82.4081 108.417 82.5711 108.978 82.7492V81.4845L107.629 81.0981Z" fill="#FFC844"/>
<path d="M93.999 32.7747C96.3685 35.1443 99.1938 35.9713 102.188 36.8497C103.894 37.2984 105.559 37.8901 107.166 38.6186L107.238 38.6548C107.837 38.9486 108.415 39.2835 108.968 39.6569V38.2201C108.636 38.0209 108.301 37.8368 107.963 37.6647H107.944C107.507 37.4444 107.066 37.2451 106.622 37.061L106.499 37.0127L106.01 36.8195L105.644 36.6867L105.418 36.6052L104.92 36.4332L104.869 36.4181C104.084 36.1555 103.299 35.923 102.523 35.6967C99.6858 34.8666 97.0024 34.0818 94.8532 31.9326C92.7041 29.7834 91.9192 27.103 91.0861 24.2566L91.0137 24.009H89.752C89.8093 24.2052 89.8697 24.4014 89.927 24.5976C90.8024 27.5799 91.6294 30.4082 93.999 32.7747Z" fill="#FFC844"/>
<path d="M108.971 24.4196C108.648 24.2898 108.331 24.1509 108.02 24H105.623C106.661 24.7133 107.786 25.2914 108.971 25.7205V24.4196Z" fill="#FFC844"/>
<path d="M106.715 95.8282C103.932 93.0482 100.678 92.0974 97.5513 91.1798C94.7139 90.3466 92.0305 89.5618 89.8783 87.4127C87.7261 85.2635 86.9443 82.5831 86.1112 79.7397C85.2056 76.6004 84.2427 73.3586 81.4627 70.5755C80.3712 69.4916 79.1138 68.5888 77.7379 67.9011C77.3002 67.6777 76.8595 67.4785 76.4127 67.2974L76.3071 67.2552C76.1381 67.1847 75.969 67.1183 75.8 67.0559L75.4438 66.9261L75.2053 66.8416C75.0423 66.7812 74.8793 66.7269 74.7163 66.6726L74.659 66.6545C73.8742 66.3918 73.0894 66.1625 72.3166 65.933C69.4762 65.103 66.7958 64.3181 64.6466 62.169C62.4975 60.0198 61.7127 57.3394 60.8795 54.4929C60.5988 53.5361 60.3121 52.5641 59.974 51.5922L59.9106 51.411C59.8623 51.2752 59.814 51.1394 59.7627 51.0035C59.7114 50.8677 59.648 50.7017 59.5876 50.5628C59.5665 50.5085 59.5454 50.4512 59.5212 50.3968C59.3401 49.9541 59.1389 49.5144 58.9175 49.0777C58.2298 47.7018 57.327 46.4444 56.2431 45.3529C53.4601 42.5729 50.2061 41.6221 47.079 40.7044C44.2386 39.8713 41.5551 39.0865 39.4059 36.9374C37.2568 34.7882 36.472 32.1077 35.6389 29.2613C35.1676 27.4705 34.5435 25.7234 33.7735 24.0393H32.4121C33.375 25.8323 33.9214 27.737 34.4798 29.6024C35.3582 32.5937 36.1852 35.4221 38.5547 37.7886C40.9243 40.1551 43.7466 40.9851 46.7409 41.8635C49.7353 42.7419 52.8262 43.6444 55.3889 46.2072C56.4285 47.2577 57.2863 48.4736 57.9274 49.8052L57.9607 49.8716C58.6914 51.4796 59.2841 53.1468 59.7325 54.8552C60.6109 57.8465 61.438 60.6748 63.8045 63.0413C66.171 65.4078 68.9993 66.2349 71.9907 67.1133C73.6956 67.562 75.3596 68.1537 76.9651 68.8821L77.0436 68.9183C78.3748 69.5587 79.5898 70.4167 80.6386 71.4569C83.2013 74.0196 84.1069 77.1136 84.9853 80.1049C85.8637 83.0962 86.6877 85.9245 89.0572 88.2941C91.4267 90.6636 94.2521 91.4877 97.2434 92.366C100.235 93.2444 103.329 94.1469 105.891 96.7096C107.256 98.1061 108.315 99.7714 109 101.6V98.8105C108.376 97.7184 107.607 96.7153 106.715 95.8282Z" fill="#FFC844"/>
<path d="M48 0H0V48H48V0Z" fill="#2B5243"/>
<path d="M0 37.3353V48C12.7304 48 24.9394 42.9429 33.9411 33.9411C42.9429 24.9394 48 12.7304 48 0H37.3309C37.3309 9.90117 33.398 19.3969 26.3972 26.3985C19.3965 33.4001 9.90117 37.3341 0 37.3353Z" fill="#766DFA"/>
<path d="M15.0545 0H0V10.6691H20.1208C20.299 10.6691 20.4699 10.7399 20.5959 10.8659C20.7219 10.992 20.7928 11.1629 20.7928 11.3411V47.9956H31.4575V16.3986C31.4563 12.049 29.7276 7.87797 26.6516 4.80277C23.5756 1.72757 19.4041 -1.53912e-07 15.0545 0Z" fill="#4CE467"/>
<path d="M31.4577 36.2578V20.1123C28.6866 24.4401 25.0568 28.153 20.793 31.0214V43.2875C24.6437 41.4273 28.23 39.0634 31.4577 36.2578Z" fill="#F3F1E5"/>
</svg>
