<svg width="282" height="282" viewBox="0 0 282 282" fill="none" xmlns="http://www.w3.org/2000/svg">
<g opacity="0.1">
<path d="M281.979 279.101L280.265 278.593C276.471 277.48 272.889 276.432 270.014 273.561C267.139 270.69 266.094 267.11 264.981 263.307C263.771 259.118 262.485 254.788 258.771 251.074C255.056 247.361 250.705 246.091 246.527 244.861C242.732 243.748 239.147 242.7 236.276 239.829C233.404 236.958 232.356 233.378 231.243 229.579C230.033 225.39 228.747 221.056 225.032 217.342C221.318 213.629 216.967 212.359 212.793 211.129C208.998 210.02 205.413 208.968 202.542 206.097C199.67 203.226 198.618 199.646 197.505 195.848C196.295 191.658 195.008 187.324 191.294 183.61C187.58 179.897 183.229 178.627 179.055 177.397C175.26 176.288 171.675 175.236 168.803 172.365C165.932 169.494 164.88 165.914 163.77 162.116C162.561 157.926 161.27 153.592 157.556 149.878C156.1 148.428 154.42 147.222 152.58 146.306H152.555C151.969 146.01 151.38 145.742 150.789 145.5L150.632 145.439C150.41 145.346 150.188 145.262 149.966 145.177L149.49 145L149.176 144.887L148.515 144.661L148.446 144.637C147.397 144.29 146.349 143.98 145.312 143.677C141.522 142.564 137.937 141.516 135.065 138.645C132.194 135.774 131.145 132.194 130.036 128.4C129.73 127.36 129.419 126.303 129.064 125.243C128.988 125.009 128.907 124.775 128.822 124.545C128.794 124.452 128.758 124.364 128.726 124.271C128.665 124.102 128.601 123.928 128.536 123.755C128.472 123.581 128.379 123.352 128.294 123.142C128.27 123.073 128.242 123.009 128.218 122.94C127.972 122.348 127.705 121.763 127.411 121.178V121.154C126.493 119.317 125.287 117.638 123.838 116.183C120.12 112.465 115.772 111.199 111.594 109.969C107.8 108.857 104.218 107.808 101.347 104.937C98.4758 102.067 97.4232 98.4862 96.3102 94.688C95.1004 90.4987 93.8139 86.1643 90.0997 82.4508C86.3856 78.7373 82.0342 77.4672 77.8602 76.2374C74.0654 75.1286 70.4803 74.0762 67.6089 71.2054C64.7376 68.3346 63.6851 64.7542 62.576 60.956C61.3461 56.7668 60.0758 52.4323 56.3616 48.7188C52.6474 45.0053 48.296 43.7352 44.1221 42.5055C40.3272 41.3967 36.7421 40.3443 33.8708 37.4735C30.9994 34.6027 29.9469 31.0223 28.8379 27.2241C27.6079 23.0348 26.3415 18.7004 22.6233 14.9869C18.9051 11.2734 14.5578 10.0033 10.3839 8.77354C6.58904 7.66473 3.00383 6.6164 0.132493 3.74156L0.015625 3.62061V5.81403C2.95552 8.2776 6.35509 9.27754 9.93216 10.3218C13.9286 11.4952 18.0583 12.7048 21.4821 16.128C24.9059 19.5511 26.1197 23.684 27.2892 27.6797C28.4588 31.6755 29.5637 35.4535 32.7295 38.6146C35.8952 41.7757 39.6699 42.8845 43.6664 44.0538C47.6629 45.2231 51.7964 46.4367 55.2203 49.8599C58.6441 53.2831 59.8539 57.4119 61.0274 61.4117C62.201 65.4114 63.3019 69.1814 66.4676 72.3465C69.6334 75.5117 73.4081 76.6164 77.4046 77.7857C81.4011 78.955 85.5346 80.1686 88.9584 83.5918C92.3823 87.015 93.5922 91.1479 94.7657 95.1436C95.9392 99.1393 97.0402 102.917 100.206 106.078C103.372 109.24 107.142 110.348 111.143 111.518C115.143 112.687 119.273 113.897 122.697 117.324C124.088 118.724 125.234 120.347 126.088 122.126L126.133 122.215C127.109 124.363 127.901 126.59 128.5 128.872C129.673 132.871 130.778 136.645 133.944 139.81C137.106 142.976 140.885 144.08 144.881 145.25C147.158 145.851 149.381 146.641 151.527 147.612L151.632 147.665C153.411 148.519 155.035 149.665 156.435 151.056C159.859 154.479 161.069 158.612 162.242 162.607C163.416 166.603 164.517 170.381 167.682 173.542C170.848 176.703 174.623 177.812 178.619 178.982C182.616 180.151 186.749 181.36 190.173 184.788C193.597 188.215 194.807 192.34 195.98 196.335C197.154 200.331 198.255 204.109 201.421 207.274C204.586 210.439 208.361 211.544 212.357 212.713C216.354 213.883 220.488 215.096 223.911 218.52C227.335 221.943 228.545 226.072 229.714 230.071C230.884 234.071 231.993 237.841 235.159 241.006C238.324 244.171 242.095 245.272 246.096 246.445C250.096 247.619 254.226 248.824 257.65 252.248C261.073 255.671 262.283 259.804 263.453 263.799C264.622 267.795 265.731 271.573 268.897 274.738C272.063 277.903 275.833 279.004 279.838 280.177C280.552 280.387 281.278 280.581 281.999 280.827L281.979 279.101Z" fill="#766DFA"/>
<path d="M19.8049 281.952C19.2109 281.569 18.597 281.217 17.9659 280.899H17.9418C17.3611 280.605 16.7682 280.335 16.1754 280.093L16.0222 280.028L15.3567 279.766L14.8769 279.593L14.5623 279.48L13.909 279.254L13.8284 279.23C12.7799 278.883 11.7354 278.573 10.703 278.27C6.90816 277.158 3.32699 276.109 0.455657 273.242C0.298378 273.081 0.14518 272.924 0 272.759V275.025C3.01652 277.702 6.54114 278.734 10.2553 279.823C12.3636 280.388 14.4284 281.105 16.4336 281.968L19.8049 281.952Z" fill="#766DFA"/>
<path d="M245.309 264.533C241.591 260.816 237.244 259.545 233.066 258.32C229.271 257.207 225.686 256.159 222.814 253.288C219.943 250.417 218.895 246.837 217.781 243.038C216.572 238.849 215.285 234.515 211.571 230.801C207.857 227.088 203.505 225.818 199.332 224.588C195.537 223.479 191.951 222.427 189.08 219.556C186.209 216.685 185.156 213.105 184.043 209.306C182.833 205.117 181.547 200.783 177.833 197.069C174.119 193.356 169.767 192.086 165.593 190.856C161.798 189.747 158.213 188.695 155.342 185.824C152.471 182.953 151.418 179.373 150.309 175.574C149.079 171.385 147.809 167.051 144.094 163.337C142.638 161.887 140.958 160.681 139.118 159.765H139.098C138.515 159.469 137.926 159.2 137.332 158.958L137.166 158.894L136.513 158.636L136.021 158.454L135.722 158.346L135.057 158.12H134.989C133.94 157.769 132.892 157.459 131.855 157.156C128.064 156.047 124.479 154.995 121.608 152.128C118.736 149.261 117.688 145.677 116.575 141.875C116.2 140.597 115.817 139.294 115.365 137.992C115.341 137.915 115.313 137.843 115.284 137.766C115.216 137.581 115.151 137.395 115.079 137.21C115.006 137.024 114.933 136.831 114.857 136.641L114.76 136.399C114.518 135.807 114.248 135.222 113.954 134.641V134.617C113.036 132.779 111.83 131.099 110.381 129.642C106.662 125.924 102.315 124.658 98.137 123.428C94.3422 122.319 90.7611 121.267 87.8857 118.396C85.0103 115.525 83.9659 111.945 82.8528 108.147C81.643 103.958 80.3565 99.6231 76.6423 95.9097C72.9281 92.1962 68.5768 90.9261 64.4029 89.6963C60.608 88.5875 57.0229 87.5351 54.1516 84.6643C51.2802 81.7935 50.2277 78.2131 49.1146 74.4149C47.9048 70.2256 46.6183 65.8912 42.9041 62.1777C39.1899 58.4642 34.8386 57.1941 30.6647 55.9643C26.8699 54.8555 23.2846 53.8072 20.4133 50.9324C17.542 48.0576 16.4894 44.4811 15.3804 40.683C14.1504 36.4937 12.8801 32.1593 9.16594 28.4458C6.343 25.6233 3.20139 24.2323 0.0195312 23.1799V24.8855C2.84247 25.8612 5.609 27.1716 8.02463 29.5868C11.4485 33.01 12.6583 37.1429 13.8318 41.1386C15.0053 45.1343 16.1064 48.9123 19.2721 52.0735C22.4378 55.2346 26.2125 56.3434 30.2089 57.5127C34.2054 58.6819 38.339 59.8956 41.7628 63.3188C45.1866 66.742 46.3965 70.8748 47.5701 74.8705C48.7436 78.8663 49.8445 82.6443 53.0103 85.8054C56.176 88.9665 59.9506 90.0753 63.9471 91.2446C67.9436 92.4139 72.0772 93.6275 75.5011 97.0507C78.9249 100.474 80.1347 104.607 81.3042 108.602C82.4737 112.598 83.5827 116.376 86.7484 119.537C89.9142 122.698 93.6849 123.807 97.6854 124.977C101.686 126.146 105.815 127.359 109.239 130.783C110.63 132.183 111.777 133.806 112.631 135.585L112.675 135.678C113.652 137.825 114.444 140.052 115.042 142.334C116.216 146.33 117.321 150.104 120.487 153.269C123.648 156.434 127.427 157.539 131.424 158.708C133.702 159.31 135.927 160.102 138.074 161.075L138.174 161.124C139.954 161.978 141.577 163.124 142.978 164.515C146.401 167.938 147.611 172.071 148.785 176.066C149.958 180.062 151.059 183.84 154.225 187.001C157.391 190.162 161.165 191.271 165.162 192.44C169.158 193.61 173.292 194.823 176.716 198.247C180.14 201.67 181.349 205.803 182.523 209.794C183.696 213.786 184.797 217.568 187.963 220.733C191.129 223.898 194.904 225.003 198.9 226.172C202.896 227.342 207.03 228.555 210.454 231.978C213.878 235.402 215.088 239.53 216.257 243.53C217.427 247.53 218.536 251.304 221.701 254.465C224.867 257.626 228.638 258.735 232.638 259.904C236.639 261.074 240.768 262.283 244.192 265.71C247.616 269.138 248.826 273.262 249.995 277.258C250.471 278.871 250.939 280.484 251.532 281.988H253.278C252.602 280.294 252.023 278.562 251.544 276.803C250.294 272.565 249.023 268.247 245.309 264.533Z" fill="#766DFA"/>
<path d="M190.859 269.956C189.649 265.767 188.363 261.433 184.649 257.719C180.934 254.006 176.583 252.736 172.405 251.506C168.614 250.397 165.029 249.349 162.154 246.474C159.278 243.599 158.234 240.023 157.121 236.224C155.911 232.035 154.625 227.701 150.91 223.987C147.196 220.274 142.845 219.004 138.667 217.778C134.872 216.665 131.291 215.617 128.416 212.742C125.54 209.867 124.496 206.291 123.383 202.493C122.173 198.303 120.886 193.973 117.172 190.255C115.709 188.806 114.024 187.6 112.18 186.683H112.159C111.575 186.389 110.986 186.122 110.393 185.877L110.232 185.816C110.014 185.723 109.792 185.639 109.57 185.554L109.091 185.377L108.78 185.264L108.119 185.038H108.05C107.001 184.687 105.953 184.377 104.917 184.074C101.122 182.965 97.5406 181.913 94.6693 179.046C91.798 176.18 90.7494 172.595 89.6364 168.797C89.2614 167.519 88.8782 166.216 88.4266 164.918L88.3418 164.672C88.2773 164.495 88.2127 164.313 88.1442 164.132L87.9144 163.547C87.8821 163.475 87.8539 163.394 87.8216 163.317C87.5797 162.729 87.3095 162.14 87.0151 161.559V161.535C86.0963 159.697 84.8901 158.018 83.442 156.56C79.7238 152.842 75.3764 151.576 71.1985 150.346C67.4036 149.238 63.8185 148.185 60.9472 145.314C58.0758 142.444 57.0273 138.863 55.9143 135.065C54.7044 130.876 53.418 126.545 49.7038 122.828C45.9897 119.11 41.6382 117.844 37.4643 116.618C33.6695 115.506 30.0844 114.457 27.209 111.582C24.3336 108.708 23.2891 105.131 22.1761 101.333C20.9663 97.1437 19.6798 92.8133 15.9656 89.0958C12.2514 85.3782 7.90007 84.1122 3.72211 82.8865C2.45179 82.5115 1.20971 82.1446 0.00390625 81.7172V83.4267C1.06856 83.7856 2.16138 84.1082 3.2704 84.4307C7.26688 85.6041 11.4005 86.8136 14.8244 90.2368C18.2482 93.66 19.458 97.7929 20.6275 101.789C21.797 105.784 22.906 109.562 26.0717 112.723C29.2375 115.885 33.0122 116.993 37.0087 118.163C41.0051 119.332 45.1387 120.546 48.5625 123.969C51.9864 127.392 53.1961 131.525 54.3657 135.521C55.5352 139.516 56.6442 143.294 59.8099 146.455C62.9756 149.617 66.7463 150.725 70.7468 151.895C74.7474 153.064 78.8728 154.278 82.3007 157.701C83.6905 159.103 84.8368 160.728 85.6923 162.507C85.7074 162.534 85.7208 162.563 85.7326 162.592C86.709 164.741 87.5023 166.969 88.1039 169.252C89.2775 173.248 90.3824 177.026 93.5441 180.187C96.7058 183.352 100.484 184.457 104.481 185.627C106.758 186.229 108.981 187.021 111.127 187.993L111.232 188.042C113.01 188.897 114.634 190.043 116.035 191.433C119.459 194.856 120.669 198.989 121.842 202.984C123.016 206.98 124.117 210.758 127.282 213.919C130.448 217.08 134.223 218.189 138.219 219.359C142.216 220.528 146.349 221.741 149.773 225.165C153.197 228.588 154.407 232.721 155.576 236.716C156.746 240.712 157.855 244.49 161.021 247.651C164.186 250.812 167.961 251.921 171.957 253.09C175.954 254.26 180.087 255.473 183.511 258.897C186.935 262.32 188.145 266.453 189.314 270.448C190.484 274.444 191.593 278.222 194.755 281.383C194.97 281.593 195.184 281.794 195.396 281.988H198.037C197.267 281.479 196.55 280.894 195.896 280.242C193.021 277.335 191.972 273.751 190.859 269.956Z" fill="#766DFA"/>
<path d="M158.958 264.965C155.163 263.856 151.582 262.808 148.707 259.933C145.832 257.058 144.787 253.481 143.674 249.683C142.464 245.494 141.178 241.164 137.463 237.446C133.749 233.729 129.398 232.463 125.22 231.237C121.425 230.124 117.844 229.076 114.969 226.201C112.093 223.326 111.049 219.75 109.936 215.951C108.726 211.762 107.439 207.432 103.725 203.714C102.267 202.266 100.587 201.06 98.7488 200.142C98.1641 199.847 97.5753 199.581 96.9825 199.335L96.8131 199.271L96.1638 199.013L95.6719 198.831L95.3734 198.727L94.7039 198.497H94.6435C93.5909 198.146 92.5424 197.84 91.506 197.533C87.7152 196.424 84.1301 195.376 81.2587 192.505C78.3874 189.634 77.3389 186.054 76.2258 182.252C75.9193 181.211 75.6087 180.155 75.2579 179.099L75.016 178.393C74.9837 178.308 74.9555 178.22 74.9232 178.135L74.7296 177.607C74.653 177.405 74.5724 177.204 74.4958 177.01C74.4635 176.937 74.4353 176.865 74.407 176.792C74.1651 176.198 73.8962 175.612 73.6005 175.034V175.01C72.6834 173.172 71.477 171.494 70.0274 170.039C66.3132 166.325 61.9618 165.055 57.7879 163.825C53.993 162.717 50.4079 161.664 47.5366 158.793C44.6653 155.923 43.6167 152.342 42.5037 148.544C41.2939 144.355 40.0075 140.024 36.2933 136.307C32.5791 132.589 28.2277 131.323 24.0497 130.097C20.2549 128.985 16.6738 127.936 13.7984 125.061C10.9231 122.187 9.87857 118.61 8.76552 114.812C7.55569 110.623 6.26918 106.292 2.55499 102.575C1.78374 101.806 0.94717 101.106 0.0546875 100.482V102.498C0.529677 102.876 0.983433 103.28 1.41378 103.708C4.83761 107.131 6.0474 111.264 7.2169 115.26C8.38641 119.255 9.49542 123.033 12.6612 126.194C15.8269 129.356 19.6016 130.464 23.5981 131.634C27.5946 132.803 31.7281 134.017 35.152 137.44C38.5758 140.863 39.7856 144.996 40.9551 148.992C42.1246 152.987 43.2336 156.765 46.3953 159.926C49.557 163.087 53.3357 164.196 57.3363 165.366C61.3368 166.535 65.4663 167.748 68.8901 171.172C70.2803 172.574 71.4266 174.198 72.2818 175.978L72.322 176.059C73.2984 178.21 74.0917 180.439 74.6934 182.723C75.8669 186.719 76.9719 190.497 80.1336 193.658C83.2953 196.823 87.0739 197.928 91.0704 199.102C93.3517 199.7 95.5778 200.492 97.7245 201.468L97.8172 201.513C99.5971 202.368 101.222 203.514 102.624 204.904C106.048 208.327 107.258 212.46 108.432 216.455C109.605 220.451 110.706 224.229 113.872 227.39C117.037 230.551 120.812 231.66 124.809 232.829C128.805 233.999 132.939 235.212 136.363 238.636C139.786 242.059 140.996 246.192 142.166 250.187C143.335 254.183 144.444 257.961 147.606 261.122C150.768 264.283 154.55 265.392 158.547 266.561C162.543 267.731 166.677 268.944 170.101 272.368C172.98 275.246 174.291 278.621 175.343 282H177.033C175.908 278.274 174.537 274.513 171.254 271.226C167.467 267.465 163.136 266.194 158.958 264.965Z" fill="#766DFA"/>
<path d="M135.231 273.391C132.359 270.521 131.311 266.94 130.198 263.142C128.988 258.953 127.701 254.622 123.987 250.905C120.273 247.187 115.922 245.921 111.744 244.696C107.949 243.583 104.368 242.534 101.492 239.664C98.617 236.793 97.5725 233.212 96.4594 229.414C95.2496 225.221 93.9632 220.89 90.249 217.173C88.7908 215.725 87.1108 214.519 85.2725 213.601H85.2483C84.6676 213.306 84.0789 213.04 83.486 212.794L83.3126 212.726L82.6674 212.472L82.1754 212.29L81.877 212.185L81.2075 211.955H81.147C80.0945 211.605 79.0459 211.298 78.0095 210.992C74.2147 209.883 70.6295 208.835 67.7582 205.964C64.8869 203.093 63.8423 199.513 62.7292 195.718C62.4268 194.674 62.1123 193.614 61.7574 192.553C61.6808 192.32 61.5961 192.082 61.5155 191.844L61.4226 191.59L61.2291 191.057C61.1524 190.86 61.0759 190.654 60.9952 190.469C60.967 190.392 60.9388 190.32 60.9065 190.243C60.6646 189.649 60.3957 189.063 60.1 188.485V188.461C59.1841 186.621 57.9775 184.941 56.5269 183.485C52.8127 179.772 48.4613 178.502 44.2874 177.272C40.4925 176.163 36.9074 175.111 34.0361 172.24C31.1647 169.369 30.1162 165.789 29.0032 161.991C27.7933 157.801 26.5069 153.471 22.7927 149.753C19.0786 146.036 14.7271 144.77 10.5492 143.544C6.75434 142.431 3.17327 141.383 0.2979 138.512L0.015625 138.21V140.439C2.99585 143.004 6.46807 144.024 10.0976 145.092C14.0941 146.262 18.2276 147.471 21.6514 150.894C25.0753 154.318 26.2851 158.45 27.4546 162.446C28.6241 166.442 29.7331 170.22 32.8948 173.381C36.0565 176.542 39.8352 177.651 43.8357 178.82C47.8363 179.99 51.9618 181.203 55.3896 184.626C56.7785 186.03 57.9247 187.654 58.7812 189.433C58.7812 189.461 58.8094 189.493 58.8256 189.521C59.8 191.67 60.5919 193.897 61.1928 196.178C62.3623 200.174 63.4714 203.952 66.633 207.113C69.7947 210.274 73.5734 211.379 77.5699 212.552C79.8512 213.151 82.0773 213.942 84.224 214.919L84.3167 214.963C86.0966 215.818 87.7214 216.964 89.1239 218.354C92.5477 221.778 93.7575 225.91 94.927 229.906C96.0965 233.902 97.2055 237.68 100.367 240.841C103.529 244.002 107.308 245.111 111.308 246.284C115.309 247.457 119.438 248.663 122.862 252.086C126.286 255.509 127.496 259.642 128.665 263.638C129.835 267.634 130.944 271.412 134.105 274.573C137.267 277.734 141.046 278.843 145.046 280.012C147.022 280.547 148.962 281.208 150.854 281.992H154.342C151.519 280.23 148.466 279.335 145.498 278.468C141.687 277.315 138.106 276.266 135.231 273.391Z" fill="#766DFA"/>
<path d="M219.604 271.779C215.809 270.67 212.224 269.618 209.353 266.747C206.482 263.876 205.433 260.296 204.32 256.498C203.11 252.308 201.824 247.974 198.11 244.26C194.395 240.547 190.044 239.277 185.87 238.047C182.075 236.938 178.49 235.886 175.615 233.015C172.739 230.144 171.695 226.564 170.582 222.766C169.372 218.576 168.086 214.242 164.371 210.528C160.657 206.815 156.306 205.545 152.128 204.315C148.337 203.206 144.752 202.158 141.877 199.283C139.001 196.408 137.957 192.832 136.844 189.034C135.634 184.844 134.347 180.51 130.633 176.796C129.177 175.346 127.497 174.14 125.657 173.224H125.637C125.052 172.93 124.463 172.664 123.87 172.418L123.705 172.353L123.052 172.095L122.564 171.918C122.463 171.881 122.362 171.841 122.257 171.809C122.037 171.728 121.815 171.652 121.592 171.579H121.527C120.479 171.228 119.43 170.918 118.394 170.615C114.603 169.507 111.018 168.454 108.146 165.587C105.275 162.721 104.227 159.136 103.114 155.338C102.811 154.298 102.497 153.237 102.146 152.181C102.069 151.947 101.988 151.709 101.904 151.475C101.871 151.387 101.843 151.302 101.811 151.217L101.617 150.689C101.541 150.487 101.46 150.286 101.383 150.092C101.351 150.02 101.327 149.947 101.295 149.875C101.053 149.286 100.787 148.697 100.488 148.117V148.088C99.5704 146.251 98.364 144.573 96.9151 143.117C93.1969 139.399 88.8496 138.133 84.6717 136.904C80.8768 135.795 77.2917 134.742 74.4204 131.872C71.549 129.001 70.5004 125.42 69.3874 121.622C68.1775 117.433 66.8911 113.098 63.1769 109.385C59.4627 105.671 55.1113 104.401 50.9374 103.172C47.1426 102.063 43.5575 101.014 40.6861 98.1396C37.8148 95.2648 36.7622 91.6884 35.6492 87.8902C34.4394 83.7009 33.1529 79.3665 29.4388 75.653C25.7246 71.9395 21.3732 70.6694 17.1992 69.4437C13.4044 68.3308 9.81928 67.2825 6.94795 64.4077C4.07661 61.5328 3.02406 57.9564 1.91505 54.1583C1.38891 52.2423 0.754768 50.3577 0.015625 48.5134V53.4406L0.366425 54.626C1.53593 58.6217 2.64091 62.3997 5.80664 65.5608C8.97237 68.7219 12.7471 69.8308 16.7436 71.0001C20.7401 72.1693 24.8736 73.383 28.2974 76.8062C31.7213 80.2293 32.9311 84.3622 34.1046 88.3579C35.2781 92.3537 36.3791 96.1317 39.5448 99.2928C42.7105 102.454 46.4449 103.494 50.4777 104.663C54.5105 105.833 58.6078 107.046 62.0316 110.47C65.4554 113.893 66.6653 118.026 67.8348 122.021C69.0043 126.017 70.1133 129.795 73.2791 132.956C76.4448 136.117 80.2154 137.226 84.2159 138.395C88.2164 139.565 92.346 140.778 95.7699 144.202C97.16 145.604 98.3062 147.228 99.1614 149.008C99.1765 149.035 99.19 149.063 99.2018 149.092C100.18 151.241 100.973 153.47 101.573 155.753C102.747 159.749 103.852 163.523 107.013 166.688C110.175 169.853 113.954 170.958 117.95 172.127C120.227 172.73 122.451 173.522 124.596 174.494L124.701 174.543C126.479 175.398 128.103 176.544 129.504 177.933C132.928 181.357 134.138 185.489 135.311 189.485C136.485 193.481 137.586 197.259 140.751 200.42C143.917 203.581 147.692 204.69 151.688 205.859C155.685 207.029 159.818 208.242 163.242 211.665C166.666 215.089 167.876 219.221 169.045 223.217C170.215 227.213 171.324 230.987 174.49 234.152C177.655 237.317 181.43 238.422 185.426 239.591C189.423 240.76 193.557 241.974 196.98 245.397C200.404 248.821 201.614 252.949 202.784 256.949C203.953 260.949 205.062 264.723 208.228 267.884C211.394 271.045 215.164 272.154 219.165 273.323C223.165 274.492 227.295 275.702 230.719 279.129C231.574 279.987 232.335 280.933 232.989 281.952H234.88C234.053 280.504 233.038 279.173 231.86 277.992C228.13 274.275 223.798 273.009 219.604 271.779Z" fill="#766DFA"/>
<path d="M84.8206 271.613C81.0258 270.501 77.4407 269.452 74.5694 266.582C71.698 263.711 70.6495 260.13 69.5365 256.328C68.3266 252.139 67.0402 247.808 63.326 244.091C61.8678 242.643 60.1878 241.437 58.3495 240.518H58.3294C57.7446 240.22 57.1559 239.954 56.563 239.712L56.3936 239.648L55.7444 239.389L55.2524 239.212L54.9499 239.103L54.2845 238.873L54.224 238.853C53.1715 238.506 52.1229 238.196 51.0865 237.89C47.2917 236.781 43.7106 235.732 40.8393 232.862C37.9679 229.991 36.9194 226.41 35.8064 222.616C35.5039 221.572 35.1893 220.516 34.8384 219.459C34.7618 219.225 34.6811 218.991 34.6005 218.758L34.5037 218.492C34.4432 218.318 34.3787 218.145 34.3142 217.971C34.2496 217.798 34.1569 217.568 34.0722 217.359L33.9916 217.153C33.7496 216.564 33.4794 215.976 33.1851 215.395V215.371C32.2691 213.531 31.0626 211.851 29.612 210.395C25.8978 206.682 21.5464 205.412 17.3725 204.186C13.5776 203.073 9.9925 202.025 7.12116 199.154C4.24983 196.283 3.20131 192.703 2.08827 188.9C1.53158 186.842 0.841824 184.822 0.0234375 182.852V187.614C0.20088 188.195 0.370268 188.775 0.539645 189.352C1.71318 193.352 2.81816 197.126 5.97986 200.287C9.14155 203.448 12.9203 204.557 16.9208 205.73C20.9213 206.903 25.0468 208.109 28.4707 211.532C29.8622 212.934 31.0099 214.559 31.8663 216.338L31.9066 216.423C32.8824 218.573 33.6756 220.801 34.2779 223.084C35.4474 227.08 36.5564 230.858 39.7181 234.019C42.8839 237.18 46.6585 238.285 50.659 239.458C52.9368 240.057 55.16 240.848 57.305 241.821L57.4099 241.873C59.1876 242.728 60.8108 243.873 62.213 245.26C65.6368 248.683 66.8466 252.816 68.0161 256.812C69.1856 260.808 70.2946 264.586 73.4563 267.751C76.618 270.916 80.3968 272.017 84.3973 273.19C88.3978 274.363 92.5233 275.569 95.9511 278.992C96.851 279.896 97.6464 280.898 98.3224 281.98H100.21C99.3639 280.467 98.3136 279.077 97.0884 277.851C93.346 274.109 89.0107 272.839 84.8206 271.613Z" fill="#766DFA"/>
<path d="M56.0752 269.791C54.8653 265.602 53.5789 261.267 49.8647 257.554C48.4076 256.103 46.7275 254.896 44.8882 253.977H44.8641C44.2834 253.679 43.6905 253.413 43.0977 253.171L42.9364 253.11L42.2791 252.848L41.7911 252.671L41.4886 252.562L40.8273 252.336L40.7547 252.312C39.7061 251.961 38.6576 251.655 37.6252 251.352C33.8304 250.24 30.2453 249.191 27.3739 246.32C24.5026 243.45 23.4581 239.869 22.3451 236.075C22.0386 235.031 21.7281 233.97 21.3732 232.91C21.2925 232.672 21.2118 232.434 21.1272 232.196L21.0384 231.942C20.9739 231.765 20.9094 231.587 20.8408 231.41C20.7723 231.233 20.6916 231.007 20.6109 230.821C20.5827 230.749 20.5505 230.672 20.5222 230.596C20.2803 230.007 20.0101 229.418 19.7157 228.838V228.813C18.7998 226.974 17.5934 225.294 16.1427 223.838C12.4285 220.124 8.0771 218.854 3.90318 217.629C2.57236 217.225 1.26982 216.854 0.015625 216.399V218.112C1.13674 218.495 2.28196 218.834 3.45146 219.177C7.44794 220.346 11.5776 221.556 15.0014 224.979C16.393 226.381 17.5406 228.005 18.397 229.785L18.4414 229.878C19.4147 232.026 20.2064 234.251 20.8086 236.531C21.9781 240.526 23.083 244.304 26.2488 247.466C29.4145 250.627 33.1892 251.731 37.1897 252.905C39.4695 253.504 41.6942 254.296 43.8398 255.272L43.9366 255.316C45.7157 256.172 47.3401 257.318 48.7436 258.707C52.1674 262.134 53.3773 266.263 54.5468 270.259C55.7163 274.254 56.8253 278.032 59.987 281.198C60.2613 281.472 60.5435 281.722 60.8258 281.968H63.5238C62.6583 281.419 61.855 280.779 61.1283 280.056C58.2368 277.169 57.1882 273.585 56.0752 269.791Z" fill="#766DFA"/>
<path d="M36.3992 271.013C34.9443 269.562 33.2653 268.354 31.4267 267.436H31.4025C30.8177 267.138 30.229 266.872 29.6362 266.63L29.4829 266.569L28.8175 266.307L28.3376 266.134L28.0231 266.021L27.3697 265.795L27.2891 265.771C26.2406 265.42 25.1961 265.114 24.1637 264.811C20.3688 263.699 16.7837 262.65 13.9124 259.78C11.0411 256.909 9.99658 253.328 8.88353 249.526C8.50849 248.252 8.12537 246.95 7.6737 245.655L7.58489 245.401C7.52037 245.224 7.45585 245.047 7.38729 244.869C7.31873 244.692 7.23411 244.466 7.15346 244.276L7.06878 244.055C6.82278 243.462 6.55662 242.877 6.26223 242.297V242.272C5.34633 240.433 4.1398 238.753 2.68915 237.297C1.87149 236.48 0.978989 235.742 0.0234375 235.091V237.107C0.557339 237.526 1.06635 237.976 1.54784 238.454C2.93797 239.856 4.0843 241.481 4.93947 243.26L4.98781 243.353C5.95041 245.495 6.73281 247.714 7.32684 249.986C8.49634 253.985 9.60535 257.759 12.767 260.925C15.9328 264.086 19.7075 265.19 23.708 266.364C25.9858 266.963 28.209 267.754 30.354 268.727L30.4549 268.775C32.234 269.631 33.8584 270.777 35.2619 272.166C38.1856 275.093 39.4963 278.532 40.5449 281.968H42.2305C41.0973 278.174 39.7343 274.343 36.3992 271.013Z" fill="#766DFA"/>
<path d="M110.526 264.364C106.807 260.651 102.46 259.38 98.2821 258.155C94.4873 257.042 90.9022 255.994 88.0308 253.123C85.1595 250.252 84.1109 246.671 82.9978 242.873C81.788 238.68 80.5016 234.35 76.7874 230.632C75.3292 229.184 73.6492 227.978 71.8109 227.06H71.7908C71.2061 226.761 70.6132 226.495 70.0204 226.253L69.8753 226.197C69.6535 226.104 69.4275 226.015 69.2017 225.931L68.7259 225.757L68.4073 225.64L67.754 225.419L67.6733 225.39C66.6288 225.044 65.5803 224.733 64.5479 224.431C60.753 223.322 57.172 222.274 54.2966 219.403C51.4212 216.532 50.3808 212.952 49.2677 209.149C48.8927 207.871 48.5096 206.573 48.0579 205.275C48.0297 205.194 48.0014 205.109 47.9692 205.029C47.9047 204.847 47.8401 204.67 47.7716 204.492C47.703 204.315 47.6183 204.089 47.5417 203.9L47.453 203.678C47.207 203.085 46.9408 202.501 46.6464 201.916C45.7305 200.076 44.524 198.396 43.0733 196.94C39.3591 193.227 35.0078 191.957 30.8339 190.731C27.0391 189.618 23.454 188.57 20.5826 185.695C17.7113 182.82 16.6627 179.244 15.5496 175.446C14.3398 171.256 13.0534 166.926 9.33515 163.209C6.48398 160.354 3.26176 158.947 0.0234375 157.89V159.592C2.90284 160.572 5.73386 161.886 8.19788 164.35C11.6217 167.773 12.8316 171.906 14.0011 175.901C15.1706 179.897 16.2796 183.675 19.4413 186.836C22.603 189.997 26.3817 191.106 30.3822 192.279C34.3827 193.453 38.5083 194.658 41.9362 198.082C43.3251 199.485 44.4712 201.109 45.3277 202.888L45.3681 202.972C46.3438 205.122 47.137 207.35 47.7393 209.633C48.9088 213.629 50.0178 217.407 53.1795 220.568C56.3452 223.729 60.124 224.834 64.1205 226.007C66.3983 226.607 68.6215 227.397 70.7665 228.37L70.8713 228.418C72.6492 229.275 74.2723 230.421 75.6743 231.809C79.0982 235.233 80.3081 239.365 81.4776 243.361C82.6471 247.357 83.7561 251.135 86.9178 254.296C90.0795 257.457 93.8581 258.566 97.8586 259.739C101.859 260.913 105.989 262.118 109.413 265.541C112.836 268.965 114.046 273.097 115.216 277.093C115.708 278.774 116.192 280.416 116.829 281.988H118.579C117.868 280.243 117.264 278.456 116.772 276.637C115.51 272.412 114.24 268.082 110.526 264.364Z" fill="#766DFA"/>
<path d="M265.066 0C265.89 1.92186 267.066 3.6724 268.535 5.16099C271.696 8.3221 275.475 9.42688 279.471 10.6002C280.302 10.8421 281.137 11.0881 281.972 11.3542V9.67686C281.282 9.46317 280.597 9.27366 279.919 9.05997C276.124 7.95116 272.543 6.90283 269.672 4.03203C268.511 2.85598 267.557 1.49291 266.849 0H265.066Z" fill="#766DFA"/>
<path d="M120.289 18.4707C123.455 21.6318 127.23 22.7406 131.23 23.9099C135.231 25.0791 139.356 26.2888 142.78 29.712C146.204 33.1351 147.418 37.268 148.587 41.2677C149.757 45.2675 150.866 49.0374 154.028 52.2026C157.189 55.3677 160.976 56.4685 164.968 57.6579C168.961 58.8474 173.095 60.0368 176.518 63.46C177.909 64.8622 179.055 66.4866 179.91 68.2662C179.927 68.2959 179.942 68.3269 179.954 68.3589C180.931 70.5058 181.724 72.7314 182.326 75.0118C183.495 79.0115 184.6 82.7855 187.766 85.9507C190.932 89.1118 194.706 90.2206 198.707 91.3899C200.985 91.9889 203.209 92.7807 205.353 93.7567C205.387 93.7704 205.421 93.7865 205.454 93.8051C207.233 94.6591 208.856 95.8053 210.257 97.196C213.684 100.619 214.894 104.748 216.064 108.744C217.233 112.739 218.342 116.517 221.504 119.683C224.666 122.848 228.444 123.953 232.441 125.122C236.437 126.291 240.571 127.501 243.995 130.924C247.419 134.347 248.633 138.48 249.802 142.476C250.972 146.471 252.081 150.249 255.242 153.415C258.404 156.58 262.199 157.652 266.187 158.862C270.176 160.071 274.313 161.241 277.737 164.664C279.613 166.589 281.059 168.889 281.98 171.414V167.619C281.138 166.119 280.095 164.74 278.878 163.523C275.164 159.809 270.813 158.539 266.639 157.314C262.844 156.201 259.259 155.152 256.388 152.282C253.516 149.411 252.464 145.83 251.355 142.032C250.125 137.843 248.858 133.508 245.14 129.795C241.422 126.081 237.075 124.807 232.901 123.582C229.106 122.469 225.521 121.42 222.649 118.55C219.778 115.679 218.725 112.098 217.616 108.3C216.407 104.111 215.12 99.7765 211.402 96.063C209.948 94.6118 208.269 93.4054 206.429 92.4906H206.405C205.819 92.1976 205.23 91.9288 204.639 91.6842L204.486 91.6278C204.265 91.5337 204.043 91.445 203.82 91.3617L203.34 91.1883L203.026 91.0754L202.368 90.8496L202.292 90.8254C201.243 90.4746 200.199 90.1682 199.166 89.8658C195.372 88.7529 191.786 87.7046 188.915 84.8338C186.044 81.963 184.995 78.3825 183.882 74.5803C183.511 73.3062 183.128 72.0039 182.672 70.7096L182.584 70.4556C182.519 70.2782 182.455 70.1008 182.386 69.9234C182.318 69.7459 182.233 69.5202 182.152 69.3266L182.068 69.1089C181.822 68.5202 181.555 67.9315 181.261 67.3509V67.3267C180.345 65.4871 179.139 63.807 177.688 62.3512C173.974 58.6377 169.622 57.3676 165.448 56.1419C161.654 55.029 158.068 53.9807 155.197 51.1099C152.326 48.2391 151.273 44.6587 150.164 40.8605C148.954 36.6712 147.668 32.3368 143.95 28.6233C140.231 24.9098 135.884 23.6357 131.71 22.41C127.915 21.2971 124.33 20.2488 121.459 17.378C118.588 14.5072 117.535 10.9267 116.426 7.12856C115.789 4.70404 114.94 2.34023 113.889 0.0644531H112.062C113.381 2.48367 114.139 5.06013 114.885 7.58015C116.019 11.5315 117.128 15.3216 120.289 18.4707Z" fill="#766DFA"/>
<path d="M95.581 9.44299C99.0048 12.8662 100.219 16.995 101.388 20.9907C102.558 24.9864 103.667 28.7645 106.828 31.9296C109.99 35.0947 113.769 36.1995 117.769 37.3688C118.765 37.6631 119.786 37.9575 120.778 38.2881C123.786 39.284 126.75 40.6065 129.319 43.1749C132.102 45.953 133.425 49.2028 134.449 52.4486C134.687 53.2026 134.905 53.9566 135.126 54.7065C136.296 58.7023 137.405 62.4762 140.567 65.6414C143.728 68.8065 147.503 69.9072 151.503 71.0806C155.504 72.2539 159.633 73.4595 163.057 76.8827C164.447 78.2858 165.595 79.9099 166.453 81.6888C166.465 81.7191 166.478 81.7488 166.493 81.7775C167.47 83.9258 168.263 86.1527 168.865 88.4344C170.034 92.4342 171.139 96.2082 174.305 99.3733C177.471 102.534 181.245 103.643 185.246 104.813C187.522 105.413 189.744 106.203 191.888 107.175L191.997 107.228C193.774 108.083 195.396 109.229 196.796 110.619C200.219 114.042 201.433 118.171 202.603 122.17C203.772 126.17 204.881 129.944 208.043 133.105C211.205 136.266 214.983 137.375 218.98 138.544C222.976 139.714 227.11 140.923 230.534 144.351C233.958 147.778 235.171 151.903 236.341 155.898C237.51 159.894 238.616 163.672 241.781 166.837C244.947 170.002 248.722 171.103 252.718 172.276C256.715 173.45 260.848 174.655 264.272 178.078C267.696 181.502 268.906 185.635 270.079 189.63C271.253 193.626 272.354 197.404 275.519 200.569C277.355 202.354 279.557 203.718 281.972 204.569V202.831C279.989 202.067 278.181 200.909 276.657 199.428C273.785 196.557 272.733 192.977 271.62 189.179C270.41 184.985 269.123 180.655 265.409 176.941C261.695 173.228 257.344 171.954 253.17 170.728C249.375 169.615 245.79 168.567 242.918 165.696C240.047 162.825 238.995 159.245 237.886 155.447C236.656 151.257 235.385 146.923 231.671 143.21C227.957 139.496 223.605 138.222 219.432 136.996C215.637 135.887 212.052 134.835 209.18 131.964C206.309 129.093 205.256 125.513 204.147 121.715C202.917 117.525 201.651 113.191 197.933 109.478C196.477 108.026 194.797 106.82 192.956 105.905C192.372 105.611 191.779 105.341 191.186 105.099L191.029 105.034C190.811 104.946 190.589 104.857 190.367 104.776C190.145 104.696 190.045 104.655 189.883 104.599L189.573 104.486L188.911 104.26L188.847 104.236C187.794 103.889 186.746 103.579 185.71 103.276C181.919 102.163 178.338 101.115 175.466 98.2484C172.595 95.3816 171.542 91.7971 170.433 87.999C170.127 86.9587 169.816 85.9023 169.461 84.8419C169.385 84.608 169.304 84.3742 169.223 84.1403L169.127 83.8742C169.062 83.7008 169.002 83.5274 168.933 83.3541C168.865 83.1807 168.776 82.9509 168.695 82.7452L168.615 82.5396C168.369 81.9469 168.102 81.3623 167.808 80.7776V80.7534C166.891 78.9153 165.685 77.2366 164.235 75.7819C160.521 72.0644 156.169 70.7943 151.991 69.5686C148.197 68.4557 144.616 67.4074 141.744 64.5366C138.873 61.6658 137.82 58.0854 136.711 54.2872C136.405 53.2389 136.094 52.1825 135.743 51.1301C134.695 47.969 133.283 44.8361 130.501 42.05C127.948 39.4937 125.101 38.0946 122.209 37.0745C120.895 36.6068 119.572 36.2197 118.261 35.8366C114.466 34.7278 110.881 33.6755 108.01 30.8047C105.139 27.9339 104.086 24.3534 102.977 20.5552C101.767 16.366 100.481 12.0315 96.7626 8.31805C93.0443 4.60455 88.697 3.33446 84.523 2.10469C82.4912 1.56796 80.5038 0.875068 78.5787 0.0322266H75.3203C77.9819 1.8668 80.9662 2.74175 84.0674 3.66105C88.0235 4.80615 92.1572 6.01577 95.581 9.44299Z" fill="#766DFA"/>
<path d="M144.691 10.451C148.688 11.6203 152.817 12.8299 156.241 16.2531C159.665 19.6763 160.879 23.8091 162.048 27.8048C163.218 31.8006 164.327 35.5786 167.489 38.7437C170.65 41.9089 174.429 43.0096 178.43 44.1829C182.43 45.3562 186.556 46.5618 189.979 49.985C191.369 51.3881 192.517 53.0123 193.375 54.7912L193.415 54.8799C194.391 57.0284 195.184 59.2552 195.787 61.5368C196.956 65.5365 198.061 69.3105 201.227 72.4757C204.393 75.6368 208.167 76.7456 212.168 77.9149C214.447 78.5139 216.672 79.3057 218.818 80.2817L218.915 80.326C220.695 81.1822 222.319 82.3297 223.722 83.721C227.145 87.1442 228.355 91.273 229.525 95.2687C230.694 99.2645 231.803 103.042 234.965 106.208C238.127 109.373 241.905 110.473 245.906 111.647C249.906 112.82 254.032 114.026 257.456 117.449C260.88 120.872 262.093 125.005 263.263 129.001C264.432 132.996 265.541 136.774 268.703 139.94C271.865 143.105 275.644 144.205 279.644 145.379C280.418 145.605 281.197 145.834 281.975 146.08V144.391C281.346 144.197 280.719 144.011 280.096 143.83C276.301 142.718 272.716 141.669 269.844 138.798C266.973 135.928 265.921 132.347 264.812 128.549C263.602 124.356 262.315 120.025 258.597 116.312C254.879 112.598 250.532 111.324 246.358 110.099C242.563 108.986 238.978 107.937 236.106 105.067C233.235 102.196 232.186 98.6153 231.073 94.8171C229.864 90.6278 228.577 86.2934 224.859 82.5799C223.405 81.1287 221.726 79.9224 219.886 79.0075H219.862C219.276 78.7145 218.687 78.4457 218.096 78.2011L217.935 78.1406L217.277 77.8786L216.789 77.7012L216.487 77.5923L215.825 77.3665L215.753 77.3423C214.704 76.9956 213.656 76.6851 212.623 76.3827C208.829 75.2699 205.247 74.2215 202.372 71.3507C199.497 68.4799 198.456 64.8995 197.343 61.1053C197.037 60.061 196.726 59.0006 196.371 57.9402C196.291 57.7023 196.21 57.4644 196.125 57.2265C196.097 57.1418 196.065 57.0572 196.033 56.9685C195.972 56.7951 195.908 56.6177 195.839 56.4403C195.77 56.2629 195.686 56.0371 195.605 55.8476L195.52 55.6258C195.274 55.0371 195.008 54.4484 194.714 53.8678V53.8436C193.798 52.004 192.591 50.3239 191.141 48.8681C187.427 45.1546 183.075 43.8845 178.901 42.6588C175.106 41.546 171.521 40.4976 168.65 37.6268C165.779 34.756 164.726 31.1756 163.617 27.3774C162.387 23.1841 161.121 18.8537 157.403 15.1362C153.684 11.4187 149.337 10.1526 145.163 8.92688C141.368 7.81404 137.783 6.7657 134.912 3.8949C133.797 2.76657 132.872 1.46478 132.174 0.0402832H130.379C131.194 1.89929 132.343 3.59267 133.771 5.03596C136.916 8.17288 140.691 9.27363 144.691 10.451Z" fill="#766DFA"/>
<path d="M40.7275 14.1806C41.897 18.1763 43.006 21.9543 46.1677 25.1154C49.3294 28.2765 53.1081 29.3854 57.1046 30.5547C61.1011 31.7239 65.2347 32.9376 68.6585 36.3608C72.0824 39.7839 73.2922 43.9128 74.4657 47.9085C75.6392 51.9042 76.7402 55.6822 79.918 58.8675C83.0959 62.0528 86.8585 63.1374 90.855 64.3067C94.8515 65.476 98.985 66.6856 102.409 70.1129C105.833 73.5401 107.042 77.6648 108.216 81.6646C109.39 85.6644 110.49 89.4384 113.656 92.5995C116.822 95.7606 120.597 96.8694 124.593 98.0387C128.59 99.208 132.723 100.418 136.147 103.845C137.539 105.245 138.686 106.87 139.539 108.651C139.539 108.679 139.567 108.707 139.583 108.732C140.559 110.882 141.352 113.11 141.954 115.393C143.124 119.392 144.229 123.166 147.394 126.331C150.556 129.497 154.335 130.601 158.335 131.771C160.614 132.373 162.838 133.165 164.985 134.137L165.082 134.186C166.861 135.04 168.485 136.186 169.885 137.577C173.309 141 174.519 145.129 175.692 149.128C176.866 153.128 177.967 156.902 181.133 160.063C184.298 163.224 188.073 164.333 192.07 165.503C196.066 166.672 200.2 167.881 203.623 171.309C207.047 174.736 208.257 178.861 209.431 182.856C210.604 186.852 211.705 190.63 214.871 193.795C218.037 196.96 221.811 198.065 225.808 199.234C229.804 200.404 233.938 201.613 237.362 205.041C240.785 208.468 241.995 212.593 243.165 216.588C244.334 220.584 245.443 224.362 248.609 227.527C251.775 230.692 255.549 231.793 259.546 232.966C263.542 234.14 267.676 235.345 271.1 238.769C274.524 242.192 275.734 246.325 276.903 250.32C278.028 254.163 279.101 257.796 281.988 260.88V258.34C280.202 255.824 279.347 252.913 278.452 249.873C277.242 245.683 275.955 241.353 272.241 237.64C268.527 233.926 264.176 232.652 259.998 231.426C256.203 230.313 252.622 229.265 249.75 226.394C246.879 223.523 245.826 219.943 244.713 216.145C243.504 211.956 242.217 207.621 238.503 203.908C234.789 200.194 230.437 198.924 226.263 197.694C222.469 196.585 218.883 195.533 216.012 192.662C213.141 189.791 212.088 186.211 210.979 182.413C209.769 178.224 208.479 173.889 204.765 170.176C201.051 166.462 196.699 165.192 192.525 163.962C188.73 162.854 185.145 161.801 182.274 158.93C179.403 156.06 178.35 152.479 177.241 148.681C176.031 144.492 174.741 140.157 171.027 136.444C169.57 134.993 167.89 133.787 166.05 132.871H166.026C165.442 132.576 164.854 132.307 164.259 132.065L164.098 132C163.876 131.912 163.659 131.823 163.441 131.742L162.957 131.565L162.646 131.452L161.985 131.226L161.917 131.202C160.868 130.855 159.819 130.545 158.783 130.242C154.992 129.134 151.407 128.081 148.536 125.215C145.664 122.348 144.616 118.763 143.503 114.961C143.2 113.921 142.89 112.868 142.539 111.816V111.784C142.462 111.554 142.386 111.324 142.305 111.094C142.273 111.002 142.237 110.909 142.204 110.82C142.144 110.647 142.079 110.477 142.015 110.304C141.95 110.131 141.857 109.901 141.777 109.695L141.692 109.49C141.45 108.896 141.181 108.31 140.886 107.732V107.703C139.968 105.866 138.761 104.188 137.313 102.732C133.594 99.0144 129.247 97.7443 125.069 96.5186C121.274 95.4058 117.693 94.3574 114.822 91.4866C111.95 88.6158 110.898 85.0354 109.785 81.2372C108.575 77.0479 107.288 72.7135 103.574 69C99.8601 65.2865 95.5088 64.0164 91.3348 62.7867C87.54 61.6778 83.9548 60.6255 81.0835 57.7547C78.2121 54.8839 77.1596 51.3035 76.0506 47.5053C74.8206 43.316 73.5503 38.9816 69.8361 35.2681C66.1219 31.5546 61.7705 30.2845 57.5966 29.0547C53.8017 27.9459 50.2166 26.8936 47.3453 24.0228C44.4739 21.152 43.4214 17.5715 42.3124 13.7733C41.1025 9.58406 39.8121 5.24964 36.0979 1.53614C35.5735 1.01186 35.0172 0.520374 34.4323 0.0644531H31.6094C32.8366 0.791293 33.9679 1.66906 34.9768 2.67721C38.3442 6.04799 39.558 10.1808 40.7275 14.1806Z" fill="#766DFA"/>
<path d="M59.6296 11.6567C62.7913 14.8178 66.5701 15.9266 70.5665 17.0959C74.563 18.2652 78.6966 19.4748 82.1204 22.902C85.5442 26.3292 86.7582 30.454 87.9277 34.4497C89.0972 38.4455 90.2022 42.2235 93.3679 45.3886C96.5336 48.5538 100.308 49.6585 104.305 50.8278C108.301 51.9971 112.435 53.2067 115.859 56.634C119.283 60.0612 120.492 64.1859 121.666 68.1817C122.839 72.1774 123.94 75.9554 127.106 79.1206C130.272 82.2857 134.046 83.3864 138.043 84.5598C142.039 85.7331 146.173 86.9387 149.597 90.3619C150.987 91.7641 152.133 93.3885 152.988 95.1681L153.033 95.2567C154.009 97.4053 154.802 99.6321 155.404 101.914C156.574 105.913 157.679 109.687 160.844 112.853C164.006 116.018 167.785 117.122 171.785 118.292C174.064 118.894 176.288 119.686 178.435 120.659L178.532 120.707C180.311 121.561 181.935 122.707 183.335 124.098C186.759 127.521 187.973 131.654 189.142 135.646C190.312 139.637 191.417 143.419 194.583 146.584C197.748 149.75 201.523 150.854 205.519 152.024C209.516 153.193 213.65 154.403 217.073 157.83C220.497 161.257 221.707 165.382 222.88 169.378C224.054 173.373 225.155 177.151 228.321 180.316C231.486 183.482 235.261 184.586 239.258 185.756C243.254 186.925 247.388 188.135 250.812 191.558C254.235 194.981 255.445 199.114 256.619 203.109C257.792 207.105 258.893 210.883 262.059 214.048C265.225 217.214 268.995 218.314 272.996 219.488C276.037 220.379 279.15 221.294 281.977 223.185V221.27C279.226 219.633 276.307 218.774 273.447 217.939C269.653 216.826 266.072 215.778 263.2 212.907C260.329 210.036 259.276 206.456 258.163 202.658C256.953 198.469 255.667 194.134 251.953 190.421C248.239 186.707 243.887 185.437 239.713 184.207C235.918 183.094 232.333 182.046 229.462 179.175C226.591 176.305 225.538 172.724 224.429 168.926C223.219 164.737 221.929 160.402 218.215 156.689C214.5 152.975 210.149 151.701 205.975 150.475C202.18 149.367 198.595 148.314 195.724 145.443C192.852 142.573 191.8 138.992 190.691 135.194C189.461 131.005 188.195 126.67 184.476 122.957C183.021 121.506 181.34 120.299 179.5 119.384H179.476C178.892 119.091 178.304 118.823 177.709 118.578L177.544 118.513C177.326 118.425 177.108 118.336 176.891 118.255C176.673 118.175 176.564 118.134 176.403 118.074L176.1 117.965L175.435 117.739L175.366 117.715C174.318 117.368 173.269 117.058 172.233 116.756C168.442 115.643 164.857 114.594 161.986 111.728C159.114 108.861 158.066 105.276 156.957 101.474C156.582 100.196 156.194 98.8936 155.747 97.5953L155.658 97.3534C155.594 97.172 155.529 96.9945 155.461 96.8131C155.392 96.6317 155.307 96.4099 155.231 96.2325C155.198 96.1559 155.17 96.0753 155.138 95.9986C154.896 95.41 154.63 94.8213 154.331 94.2407V94.2165C153.415 92.3783 152.208 90.6997 150.758 89.245C147.04 85.5275 142.693 84.2574 138.515 83.0316C134.724 81.9188 131.139 80.8705 128.267 77.9997C125.396 75.1289 124.344 71.5484 123.235 67.7503C122.005 63.561 120.738 59.2265 117.02 55.513C113.302 51.7995 108.954 50.5295 104.781 49.2997C100.986 48.1909 97.4006 47.1385 94.5293 44.2677C91.6579 41.3969 90.6054 37.8165 89.4964 34.0183C88.2865 29.829 87.0001 25.4946 83.2819 21.7811C79.5637 18.0676 75.2163 16.7975 71.0424 15.5677C67.2475 14.4589 63.6624 13.4066 60.7911 10.5358C57.9198 7.66498 56.8672 4.08453 55.7582 0.286361L55.6855 0.036377H54.0039L54.2096 0.741982C55.3589 4.71756 56.4679 8.49557 59.6296 11.6567Z" fill="#766DFA"/>
<path d="M218.816 3.80632C222.813 4.97561 226.943 6.18521 230.366 9.6084C231.758 11.0103 232.906 12.6347 233.762 14.4146L233.802 14.5033C234.778 16.6518 235.571 18.8786 236.174 21.1602C237.343 25.1559 238.452 28.9339 241.614 32.095C244.779 35.2561 248.554 36.3609 252.555 37.5342C254.835 38.1326 257.059 38.9244 259.205 39.901L259.302 39.9454C261.081 40.8018 262.705 41.9477 264.109 43.3363C267.532 46.7595 268.742 50.8923 269.912 54.8881C271.081 58.8838 272.19 62.6618 275.352 65.827C277.233 67.6533 279.496 69.0399 281.978 69.8872V68.1535C279.929 67.3896 278.062 66.2089 276.493 64.6859C273.622 61.8151 272.573 58.2347 271.46 54.4365C270.25 50.2432 268.964 45.9128 265.25 42.1953C263.792 40.7474 262.112 39.5415 260.273 38.6229H260.249C259.668 38.3285 259.076 38.0624 258.483 37.8165L258.338 37.76C258.112 37.6673 257.89 37.5786 257.664 37.4939L257.188 37.3205L256.87 37.2036L256.22 36.9818L256.136 36.9536C255.087 36.6069 254.043 36.2964 253.01 35.994C249.216 34.8852 245.63 33.8369 242.759 30.9661C239.888 28.0952 238.843 24.5148 237.73 20.7207C237.424 19.6764 237.113 18.62 236.762 17.5596L236.52 16.854L236.424 16.5919C236.363 16.4185 236.299 16.2451 236.234 16.0677C236.17 15.8903 236.077 15.6645 235.996 15.4669L235.911 15.2533C235.669 14.6646 235.403 14.0759 235.105 13.4953V13.4711C234.189 11.6314 232.982 9.95137 231.532 8.49557C227.818 4.78207 223.466 3.51199 219.292 2.28625C217.135 1.72112 215.03 0.971067 213.001 0.0444336H209.852C212.545 1.96368 215.606 2.86686 218.816 3.80632Z" fill="#766DFA"/>
<path d="M175.495 14.3459C176.665 18.3457 177.774 22.1197 180.935 25.2848C184.097 28.45 187.876 29.5507 191.876 30.724C195.877 31.8973 200.002 33.1029 203.426 36.5261C204.818 37.928 205.965 39.5524 206.822 41.3323C206.833 41.3613 206.847 41.3895 206.862 41.4169C207.838 43.5669 208.631 45.795 209.233 48.0779C210.403 52.0736 211.508 55.8516 214.674 59.0127C217.839 62.1738 221.614 63.2786 225.614 64.4519C227.894 65.0513 230.118 65.8417 232.265 66.8147L232.365 66.8631C234.143 67.7206 235.766 68.8663 237.168 70.254C240.592 73.6772 241.802 77.81 242.972 81.8098C244.141 85.8096 245.25 89.5795 248.412 92.7447C251.573 95.9098 255.352 97.0106 259.353 98.1839C263.353 99.3572 267.479 100.563 270.907 103.986C274.334 107.409 275.54 111.542 276.71 115.538C277.855 119.453 278.944 123.15 281.952 126.275V123.783C280.049 121.219 279.17 118.223 278.25 115.082C277.04 110.893 275.754 106.562 272.036 102.845C268.318 99.1274 263.97 97.8613 259.796 96.6356C256.001 95.5227 252.416 94.4744 249.545 91.6036C246.674 88.7328 245.625 85.1524 244.512 81.3502C243.302 77.1609 242.016 72.8305 238.298 69.117C236.843 67.6659 235.164 66.4583 233.325 65.5406C232.739 65.2449 232.149 64.9761 231.555 64.7342L231.393 64.6697C231.176 64.585 230.958 64.4963 230.736 64.4156C230.575 64.3511 230.409 64.2947 230.248 64.2342L229.938 64.1092L229.272 63.8794L229.208 63.8592C228.159 63.5125 227.107 63.202 226.074 62.8996C222.279 61.7868 218.698 60.7384 215.827 57.8717C212.956 55.0049 211.907 51.4204 210.794 47.6222C210.488 46.5779 210.177 45.5216 209.826 44.4652C209.749 44.2313 209.669 43.9974 209.588 43.7636L209.491 43.4975L209.302 42.9774C209.225 42.7717 209.141 42.5742 209.06 42.3645C209.032 42.2959 209.008 42.2274 208.979 42.1629C208.737 41.5702 208.467 40.9815 208.173 40.4009V40.3767C207.257 38.537 206.05 36.857 204.6 35.4012C200.885 31.6877 196.534 30.4176 192.36 29.1919C188.565 28.079 184.98 27.0307 182.109 24.1599C179.237 21.2891 178.189 17.7086 177.076 13.9105C175.846 9.71716 174.58 5.38677 170.861 1.66924C170.273 1.08182 169.645 0.534888 168.982 0.0322266H166.062C167.4 0.791263 168.63 1.72555 169.72 2.8103C173.132 6.21736 174.342 10.3502 175.495 14.3459Z" fill="#766DFA"/>
<path d="M249.973 3.37479L249.88 3.12077C249.816 2.94336 249.751 2.76596 249.683 2.58855C249.614 2.41114 249.533 2.18535 249.453 1.99584C249.42 1.92326 249.396 1.84665 249.364 1.77407C249.122 1.18271 248.853 0.596725 248.557 0.0161133H246.723C246.896 0.326579 247.065 0.641072 247.219 0.95557L247.259 1.04024C248.235 3.18991 249.029 5.41812 249.63 7.70116C250.8 11.6969 251.909 15.4749 255.07 18.636C258.232 21.7971 262.007 22.9019 266.007 24.0752C268.286 24.6746 270.511 25.465 272.657 26.438L272.758 26.4864C274.535 27.3438 276.158 28.4896 277.561 29.8773C279.539 31.9206 281.044 34.3734 281.969 37.0624V33.1231C280.112 29.6808 277.232 26.8997 273.726 25.1639H273.702C273.121 24.8695 272.532 24.6034 271.94 24.3574L271.77 24.2929L271.121 24.0349L270.629 23.8575L270.326 23.7486C270.105 23.668 269.883 23.5954 269.657 23.5188H269.601C268.548 23.172 267.5 22.8616 266.463 22.5551C262.668 21.4463 259.087 20.398 256.216 17.5272C253.344 14.6564 252.296 11.076 251.183 7.27376C250.876 6.2335 250.566 5.1771 250.215 4.12071L249.973 3.37479Z" fill="#766DFA"/>
<path d="M188.973 0.887237C190.142 4.88701 191.251 8.66098 194.413 11.8221C197.574 14.9832 201.353 16.092 205.354 17.2653C209.354 18.4387 213.48 19.6442 216.904 23.0674C218.295 24.4693 219.443 26.0937 220.299 27.8736C220.299 27.9018 220.327 27.93 220.339 27.9623C221.316 30.1106 222.109 32.3375 222.711 34.6192C223.88 38.6149 224.989 42.3929 228.151 45.554C231.317 48.7151 235.091 49.8199 239.092 50.9932C241.37 51.5927 243.593 52.3831 245.738 53.356L245.843 53.4044C247.62 54.2619 249.243 55.4077 250.646 56.7953C254.07 60.2185 255.279 64.3513 256.449 68.3471C257.618 72.3428 258.727 76.1208 261.889 79.286C265.051 82.4511 268.83 83.5519 272.83 84.7252C275.927 85.6324 279.105 86.5678 281.976 88.5355V86.6081C279.178 84.9066 276.197 84.0276 273.282 83.1769C269.487 82.064 265.902 81.0157 263.03 78.1449C260.159 75.2741 259.111 71.6937 257.998 67.8955C256.788 63.7022 255.501 59.3718 251.787 55.6543C250.329 54.2064 248.649 53.0005 246.811 52.0819C246.226 51.7835 245.633 51.5174 245.04 51.2755L244.859 51.2069C244.633 51.1142 244.411 51.0255 244.185 50.9408L243.709 50.7674L243.391 50.6505L242.738 50.4288L242.657 50.4046C241.608 50.0538 240.564 49.7473 239.531 49.4449C235.737 48.3321 232.152 47.2838 229.28 44.413C226.409 41.5422 225.364 37.9617 224.251 34.1595C223.876 32.8814 223.493 31.579 223.041 30.2807L222.957 30.0469C222.892 29.8654 222.824 29.684 222.755 29.4985C222.687 29.313 222.606 29.1154 222.529 28.9219C222.497 28.8413 222.469 28.7647 222.436 28.6881C222.19 28.0954 221.924 27.5107 221.63 26.9261C220.714 25.0864 219.508 23.4063 218.057 21.9505C214.343 18.237 209.991 16.9669 205.817 15.7412C202.023 14.6284 198.437 13.5801 195.566 10.7093C192.695 7.83845 191.646 4.25801 190.533 0.459843C190.493 0.318722 190.453 0.177601 190.408 0.0566406H188.727C188.803 0.306626 188.888 0.596931 188.973 0.887237Z" fill="#766DFA"/>
</g>
<path d="M282 162L202 162L202 242L282 242L282 162Z" fill="#FFC844"/>
<path d="M220.222 198.888L202 198.888L202 241.999L220.222 241.999L220.222 198.888Z" fill="#766DFA"/>
<path d="M229.077 162L202 162L202 180.558L237.867 180.558C238.178 180.558 238.477 180.682 238.697 180.902C238.917 181.123 239.041 181.422 239.041 181.735L239.041 242L257.556 242L257.556 190.53C257.555 186.782 256.818 183.072 255.386 179.61C253.955 176.148 251.857 173.003 249.212 170.353C246.568 167.704 243.428 165.603 239.973 164.17C236.519 162.736 232.816 161.999 229.077 162Z" fill="#766DFA"/>
<path d="M122 139.866C134.649 136.465 146.074 129.543 154.946 119.904C147.805 108.422 143.389 95.4562 142.036 82.0017L122 82.0017L122 139.866Z" fill="#2B5243"/>
<path d="M122 160.211L122 162L201.999 162L201.999 157.349C188.914 152.897 177.044 145.459 167.328 135.626C154.981 148.123 139.207 156.679 122 160.211Z" fill="#2B5243"/>
<path d="M202 136.036L202 82L192.621 82C191.267 95.4545 186.851 108.42 179.711 119.902C185.989 126.715 193.567 132.201 202 136.036Z" fill="#2B5243"/>
<path d="M172.682 82.0007L161.953 82.0007C162.813 88.5818 164.62 95.004 167.317 101.068C170.015 95.004 171.821 88.5818 172.682 82.0007Z" fill="#2B5243"/>
<path d="M167.329 101.068C164.632 95.0042 162.825 88.582 161.965 82.0009L142.027 82.0009C143.381 95.4554 147.797 108.421 154.937 119.903C160.07 114.345 164.256 107.982 167.329 101.068Z" fill="#FC805F"/>
<path d="M179.711 119.902C176.181 125.58 172.028 130.844 167.328 135.598C177.041 145.441 188.912 152.888 201.999 157.348L201.999 136.063C193.565 132.22 185.986 126.725 179.711 119.902Z" fill="#FC805F"/>
<path d="M167.328 101.068C170.398 107.982 174.581 114.344 179.711 119.903C186.851 108.421 191.267 95.4554 192.621 82.0009L172.683 82.0009C171.826 88.5816 170.022 95.0037 167.328 101.068Z" fill="#F6C85B"/>
<path d="M167.328 135.599C162.628 130.846 158.475 125.581 154.946 119.903C146.074 129.543 134.649 136.465 122 139.865L122 160.211C139.21 156.671 154.984 148.106 167.328 135.599Z" fill="#F6C85B"/>
<path d="M167.328 135.6C172.028 130.847 176.181 125.582 179.71 119.904C174.581 114.346 170.398 107.983 167.328 101.069C164.258 107.983 160.075 114.346 154.945 119.904C158.475 125.582 162.628 130.847 167.328 135.6Z" fill="#E14547"/>
</svg>
