<svg width="411" height="335" viewBox="0 0 411 335" fill="none" xmlns="http://www.w3.org/2000/svg">
<path d="M392.208 228.72L391.978 228.83C386.649 231.25 381.126 233.217 375.468 234.71C365.558 237.61 356.198 240.35 348.348 248.2C340.498 256.05 337.758 265.41 334.858 275.33C333.363 280.98 331.4 286.496 328.988 291.82L328.868 292.06C326.747 296.474 323.905 300.503 320.458 303.98C316.059 308.309 310.836 311.71 305.098 313.98C306.968 314.61 308.858 315.22 310.738 315.81C320.023 311.259 327.549 303.772 332.148 294.51V294.45C332.878 293.01 333.538 291.54 334.148 290.07C334.148 289.94 334.248 289.8 334.308 289.67C334.528 289.13 334.738 288.58 334.948 288.04C335.158 287.5 335.248 287.24 335.388 286.83C335.478 286.58 335.578 286.33 335.658 286.08C335.858 285.53 336.038 284.98 336.228 284.44C336.232 284.38 336.232 284.32 336.228 284.26C337.098 281.66 337.868 279.06 338.618 276.5C341.368 267.09 343.978 258.2 351.098 251.08C358.218 243.96 367.098 241.36 376.498 238.61C379.088 237.85 381.718 237.08 384.348 236.2L386.108 235.59L386.748 235.37L388.058 234.88C388.548 234.7 389.058 234.5 389.518 234.31L390.078 234.09C391.544 233.483 392.998 232.817 394.438 232.09H394.508C399.069 229.821 403.232 226.829 406.838 223.23C408.213 221.851 409.499 220.384 410.688 218.84V211.66C408.845 214.836 406.6 217.76 404.008 220.36C400.565 223.781 396.577 226.607 392.208 228.72Z" fill="#FC805F" fill-opacity="0.33"/>
<path d="M409.419 331.17C409.849 330.11 410.309 329.06 410.799 328.03V320.1C408.449 323.51 406.543 327.207 405.129 331.1C406.562 331.14 407.992 331.163 409.419 331.17Z" fill="#FC805F" fill-opacity="0.33"/>
<path d="M365.249 97.7803C357.399 105.62 354.659 114.98 351.759 124.9C348.859 134.82 345.849 145.06 337.359 153.55C333.882 157.001 329.853 159.847 325.438 161.97L325.229 162.07C319.897 164.491 314.371 166.458 308.708 167.95C298.798 170.85 289.428 173.59 281.589 181.44C273.749 189.29 271.009 198.65 268.099 208.57C266.612 214.222 264.652 219.738 262.239 225.06L262.119 225.3C259.997 229.71 257.155 233.736 253.708 237.21C245.218 245.71 234.969 248.71 225.059 251.61C217.989 253.68 211.199 255.68 205.059 259.49C206.179 260.39 207.308 261.273 208.448 262.14C213.888 259.06 219.918 257.29 226.188 255.45C236.588 252.4 247.329 249.26 256.549 240.04C260.141 236.43 263.133 232.267 265.409 227.71V227.65C266.139 226.2 266.799 224.74 267.409 223.27C267.409 223.14 267.518 223 267.568 222.86C267.788 222.32 267.998 221.78 268.208 221.24C268.418 220.7 268.509 220.44 268.649 220.03L268.919 219.28C269.119 218.73 269.299 218.18 269.489 217.63V217.47C270.359 214.86 271.119 212.26 271.879 209.69C274.629 200.29 277.229 191.41 284.349 184.29C291.469 177.17 300.349 174.56 309.759 171.81C312.349 171.05 314.968 170.28 317.589 169.4L319.328 168.81L319.999 168.57L321.279 168.09L322.799 167.5L323.309 167.3C324.769 166.69 326.229 166.03 327.669 165.3H327.729C332.289 163.025 336.455 160.034 340.068 156.44C349.278 147.23 352.429 136.44 355.479 126.08C358.229 116.67 360.839 107.79 367.958 100.67C375.078 93.5502 383.959 90.9402 393.379 88.1902C399.312 86.6253 405.1 84.5544 410.679 82.0002V77.4902C404.749 80.6902 398.429 82.5401 392.249 84.3501C382.459 87.1901 373.089 89.9403 365.249 97.7803Z" fill="#FC805F" fill-opacity="0.33"/>
<path d="M365.521 327.86C366.251 326.41 366.911 324.95 367.521 323.47C367.581 323.34 367.631 323.2 367.681 323.07C367.901 322.53 368.111 321.99 368.321 321.44L368.771 320.23C368.861 319.98 368.951 319.73 369.031 319.48C369.231 318.927 369.421 318.376 369.601 317.83V317.67C370.471 315.07 371.241 312.46 371.991 309.9C374.741 300.49 377.341 291.61 384.461 284.49C391.581 277.37 400.461 274.77 409.881 272.01L410.711 271.76V267.59L408.711 268.16C398.801 271.06 389.441 273.8 381.591 281.65C373.741 289.5 371.001 298.86 368.101 308.78C366.606 314.43 364.643 319.946 362.231 325.27L362.111 325.52C361.781 326.2 361.421 326.87 361.051 327.52C362.451 327.73 363.871 327.92 365.281 328.12C365.35 328.024 365.431 327.937 365.521 327.86Z" fill="#FC805F" fill-opacity="0.33"/>
<path d="M259.551 288.84C269.941 285.84 280.681 282.65 289.901 273.43C293.494 269.819 296.485 265.657 298.761 261.1V261.04C299.491 259.59 300.151 258.13 300.761 256.66L300.911 256.28C301.131 255.73 301.351 255.18 301.561 254.63C301.711 254.23 301.851 253.83 302.001 253.44C302.151 253.05 302.181 252.92 302.281 252.66C302.471 252.12 302.651 251.58 302.831 251.03C302.831 250.97 302.881 250.91 302.901 250.84C303.761 248.24 304.531 245.65 305.281 243.09C308.031 233.68 310.641 224.79 317.751 217.67C324.861 210.55 333.751 207.95 343.181 205.19C346.351 204.27 349.571 203.32 352.791 202.19L353.411 201.97L354.731 201.48L356.211 200.9L356.751 200.69C358.221 200.08 359.681 199.42 361.121 198.69H361.181C365.743 196.419 369.91 193.427 373.521 189.83C382.731 180.62 385.881 169.83 388.931 159.48C391.681 150.07 394.291 141.18 401.411 134.06C404.147 131.348 407.3 129.092 410.751 127.38V122.92C406.224 124.929 402.1 127.745 398.581 131.23C390.731 139.07 387.991 148.44 385.091 158.36C382.191 168.28 379.181 178.51 370.691 187C367.218 190.449 363.193 193.292 358.781 195.41L358.551 195.52C353.222 197.94 347.699 199.906 342.041 201.4C332.131 204.3 322.761 207.04 314.921 214.89C307.071 222.74 304.331 232.1 301.421 242.02C299.934 247.668 297.974 253.181 295.561 258.5L295.441 258.75C293.317 263.162 290.475 267.19 287.031 270.67C278.541 279.16 268.291 282.16 258.381 285.06C254.771 286.12 251.231 287.16 247.801 288.43C249.361 289.31 250.911 290.19 252.481 291.04C254.811 290.23 257.161 289.54 259.551 288.84Z" fill="#FC805F" fill-opacity="0.33"/>
<path d="M189.758 173.29C193.349 169.674 196.34 165.508 198.618 160.95V160.89C199.348 159.44 200.008 157.98 200.618 156.51C200.618 156.38 200.718 156.24 200.778 156.11C200.998 155.56 201.208 155.02 201.418 154.48L201.858 153.28L202.128 152.51C202.318 151.97 202.508 151.42 202.688 150.87L202.748 150.7C203.618 148.1 204.378 145.5 205.138 142.93C207.888 133.53 210.488 124.64 217.608 117.52C224.728 110.4 233.608 107.8 243.018 105.05C245.608 104.29 248.228 103.51 250.858 102.64L252.608 102.04L253.248 101.81L254.558 101.33L256.038 100.75L256.578 100.53C258.038 99.9298 259.488 99.2631 260.928 98.5298H260.998C265.556 96.2515 269.722 93.2605 273.338 89.6697C282.548 80.4497 285.698 69.6696 288.738 59.3096C291.498 49.8996 294.098 41.0197 301.218 33.8997C308.338 26.7797 317.218 24.1697 326.648 21.4097C337.038 18.4097 347.778 15.2198 356.998 6.00977C358.829 4.15251 360.501 2.14553 361.998 0.00976562H356.998C356.102 1.11093 355.151 2.16555 354.148 3.16968C345.658 11.6597 335.408 14.6596 325.498 17.5696C315.588 20.4796 306.218 23.2096 298.378 31.0596C290.538 38.9096 287.788 48.2697 284.878 58.1797C281.968 68.0897 278.978 78.3396 270.488 86.8296C267.01 90.2767 262.981 93.1192 258.568 95.2397L258.358 95.3496C253.026 97.7692 247.5 99.7363 241.838 101.23C231.928 104.13 222.558 106.87 214.718 114.72C206.878 122.56 204.138 131.93 201.228 141.85C199.742 147.503 197.779 153.019 195.358 158.34L195.248 158.58C193.126 162.99 190.284 167.015 186.838 170.49C178.348 178.98 168.098 181.98 158.188 184.89C151.968 186.71 145.958 188.47 140.418 191.46C141.198 192.57 142.008 193.65 142.798 194.75C147.908 192.07 153.508 190.43 159.318 188.75C169.798 185.66 180.538 182.5 189.758 173.29Z" fill="#FC805F" fill-opacity="0.33"/>
<path d="M126.001 155.32C136.391 152.32 147.141 149.12 156.351 139.91C159.948 136.297 162.942 132.131 165.221 127.57C165.225 127.55 165.225 127.53 165.221 127.51C165.961 126.06 166.621 124.6 167.221 123.13L167.371 122.74C167.591 122.19 167.811 121.64 168.021 121.09C168.171 120.7 168.311 120.3 168.451 119.91C168.591 119.52 168.641 119.39 168.731 119.13C168.931 118.58 169.111 118.04 169.291 117.49L169.351 117.32C170.221 114.72 170.981 112.12 171.731 109.55C174.491 100.15 177.091 91.2601 184.211 84.1401C191.331 77.0201 200.211 74.4202 209.621 71.6702C212.211 70.9102 214.831 70.1403 217.451 69.2603C218.031 69.0736 218.611 68.8735 219.191 68.6602L219.861 68.4202L221.141 67.9502C221.654 67.7569 222.164 67.5568 222.671 67.3501L223.161 67.1602C224.631 66.5502 226.091 65.8902 227.531 65.1602H227.591C232.149 62.8819 236.315 59.8909 239.931 56.3C249.141 47.08 252.291 36.3002 255.331 25.9402C258.091 16.5302 260.691 7.65027 267.811 0.530273L268.331 0.0302734H263.001C256.771 7.37027 254.271 15.8701 251.641 24.8201C248.741 34.7301 245.741 44.9802 237.251 53.4702C233.773 56.9173 229.745 59.7596 225.331 61.8801L225.111 61.9902C219.784 64.411 214.261 66.3746 208.601 67.8601C198.691 70.7701 189.321 73.5101 181.481 81.3601C173.641 89.2001 170.901 98.5702 167.991 108.48C166.504 114.128 164.544 119.641 162.131 124.96L162.011 125.22C159.886 129.628 157.044 133.653 153.601 137.13C145.111 145.62 134.861 148.62 124.951 151.53C122.411 152.27 119.951 153 117.461 153.81C118.091 155.01 118.711 156.22 119.361 157.41C121.501 156.66 123.751 155.98 126.001 155.32Z" fill="#FC805F" fill-opacity="0.33"/>
<path d="M131.859 94.1902C131.859 94.1902 131.859 94.1901 131.859 94.1401C132.599 92.6901 133.259 91.2303 133.859 89.7603L134.029 89.3401C134.249 88.8101 134.459 88.2702 134.659 87.7302C134.859 87.1902 134.969 86.9203 135.109 86.5103L135.379 85.7703L135.949 84.1101C135.945 84.0602 135.945 84.0101 135.949 83.9602C136.809 81.3502 137.579 78.7502 138.329 76.1802C141.089 66.7802 143.689 57.8903 150.809 50.7703C157.929 43.6503 166.809 41.05 176.239 38.29C179.409 37.36 182.639 36.41 185.859 35.29L186.429 35.0901L187.799 34.5801C188.269 34.4101 188.739 34.2203 189.209 34.0303L189.809 33.79C191.279 33.19 192.729 32.52 194.179 31.79C198.737 29.5118 202.903 26.521 206.519 22.9302C213.519 15.9302 217.029 8.01004 219.639 0.0400391H215.419C212.989 7.12004 209.729 14.0401 203.689 20.1001C200.211 23.5472 196.183 26.3897 191.769 28.5103L191.539 28.6201C186.216 31.0423 180.696 33.0062 175.039 34.4902C165.119 37.4002 155.759 40.1402 147.909 47.9902C140.069 55.8302 137.329 65.2001 134.419 75.1101C132.935 80.7637 130.971 86.2804 128.549 91.6001C128.549 91.6901 128.479 91.7701 128.439 91.8501C126.317 96.2602 123.475 100.286 120.029 103.76C114.029 109.76 107.139 113.02 100.129 115.44C100.589 116.69 101.069 117.94 101.549 119.18C108.969 116.62 116.299 113.18 122.849 106.59C126.501 102.969 129.543 98.782 131.859 94.1902Z" fill="#FC805F" fill-opacity="0.33"/>
<path d="M401.998 7.85938C399.098 17.7694 396.098 28.0195 387.608 36.5095C379.118 44.9995 368.868 47.9994 358.958 50.9094C349.048 53.8194 339.678 56.5494 331.838 64.3994C323.998 72.2494 321.248 81.6095 318.338 91.5195C315.428 101.43 312.438 111.679 303.948 120.169C300.471 123.617 296.442 126.459 292.028 128.579L291.808 128.689C286.48 131.109 280.957 133.076 275.298 134.569C265.388 137.469 256.018 140.209 248.178 148.059C240.338 155.909 237.598 165.269 234.688 175.189C233.203 180.843 231.239 186.359 228.818 191.679C228.786 191.761 228.749 191.841 228.708 191.919C226.587 196.329 223.745 200.355 220.298 203.829C211.808 212.319 201.558 215.329 191.648 218.229C183.908 220.499 176.508 222.679 169.898 227.229C170.828 228.229 171.758 229.229 172.708 230.169C178.708 226.169 185.598 224.169 192.768 222.049C203.168 218.999 213.908 215.859 223.128 206.639C226.724 203.027 229.715 198.861 231.988 194.299V194.24C232.718 192.79 233.378 191.329 233.988 189.859C233.988 189.729 234.088 189.589 234.148 189.459C234.368 188.919 234.578 188.369 234.788 187.829C234.998 187.289 235.088 187.019 235.228 186.619L235.498 185.869C235.698 185.319 235.878 184.769 236.058 184.219L236.118 184.049C236.988 181.449 237.748 178.85 238.508 176.28C241.258 166.88 243.858 157.989 250.978 150.869C258.098 143.749 266.978 141.149 276.408 138.389C279.578 137.459 282.808 136.509 286.028 135.389L286.598 135.189L287.968 134.689L289.378 134.129C289.578 134.049 289.788 133.979 289.988 133.889C291.448 133.289 292.908 132.629 294.348 131.889C298.909 129.615 303.075 126.624 306.688 123.03C315.898 113.81 319.048 103.029 322.088 92.6794C324.848 83.2694 327.448 74.3795 334.568 67.2595C341.688 60.1395 350.568 57.5295 359.998 54.7795C370.388 51.7295 381.128 48.5894 390.348 39.3694C399.568 30.1494 402.708 19.3695 405.748 9.01953C406.648 5.93953 407.538 2.92953 408.568 0.0195312H404.338C403.588 2.54953 402.818 5.18937 401.998 7.85938Z" fill="#FC805F" fill-opacity="0.33"/>
<path d="M98.48 60.8098C98.48 60.8098 98.48 60.81 98.48 60.76C99.2133 59.3133 99.88 57.8532 100.48 56.3799L100.62 56C100.85 55.45 101.07 54.8998 101.28 54.3398C101.43 53.9498 101.57 53.5499 101.71 53.1599C101.85 52.7699 101.9 52.6399 101.99 52.3799C102.18 51.8299 102.37 51.29 102.55 50.75L102.61 50.5598C103.48 47.9598 104.24 45.3598 104.99 42.7998C107.75 33.3998 110.35 24.5099 117.46 17.3899C124.57 10.2699 133.46 7.66992 142.88 4.91992C145.47 4.15992 148.09 3.38001 150.72 2.51001C151.31 2.32001 151.89 2.11991 152.48 1.90991L153.12 1.67993L154.42 1.19995L155.91 0.619873L156.45 0.399902C156.75 0.279902 157.06 0.14 157.36 0H145.36C144.16 0.37 142.96 0.719824 141.76 1.06982C131.84 3.97982 122.48 6.71981 114.63 14.5598C106.79 22.3998 104.04 31.7699 101.14 41.6799C99.6533 47.3282 97.6931 52.841 95.28 58.1599C95.2428 58.2495 95.1993 58.3364 95.15 58.4199C93.082 62.7159 90.3294 66.647 87 70.0598C87.33 71.5898 87.65 73.1299 88 74.6499C88.53 74.1699 89.0599 73.6499 89.5699 73.1599C93.1819 69.5467 96.1902 65.3769 98.48 60.8098Z" fill="#FC805F" fill-opacity="0.33"/>
<path d="M163.476 248.188L163.476 225L110 225L110 335L219.937 335L219.937 329.553C203.359 323.367 189.066 312.258 178.974 297.716C168.883 283.173 163.475 265.892 163.476 248.188Z" fill="#2B5243"/>
<path d="M163.477 248.188C163.481 265.9 168.897 283.186 179 297.73C189.103 312.273 203.409 323.377 220 329.554L220 275.457C220 275.31 220 275.162 220 275.003L220 225.001L163.477 225.001L163.477 248.188Z" fill="#FFC844"/>
<path d="M0 156.45V224.999H82.5948C49.4886 209.843 20.9902 186.191 0 156.45Z" fill="#FC805F"/>
<path d="M109.996 187.014V115H27.8438C45.9456 147.88 75.0196 173.367 109.996 187.014Z" fill="#FC805F"/>
<path d="M109.999 187.014C75.023 173.367 45.9491 147.88 27.8472 115H0V156.414C20.9902 186.156 49.4886 209.808 82.5948 224.963H109.999V187.014Z" fill="#F3F1E5"/>
</svg>
