<svg width="113" height="148" viewBox="0 0 113 148" fill="none" xmlns="http://www.w3.org/2000/svg">
<g opacity="0.33">
<path d="M106.524 80.0607L106.444 80.0997C104.577 80.9593 102.641 81.6581 100.658 82.1887C97.1859 83.2189 93.9061 84.1923 91.1553 86.9811C88.4046 89.7699 87.4445 93.095 86.4283 96.6192C85.9045 98.6265 85.2165 100.586 84.3713 102.477L84.3293 102.563C83.5862 104.131 82.5902 105.562 81.3823 106.797C79.8411 108.335 78.0107 109.543 76 110.35C76.6553 110.574 77.3176 110.79 77.9763 111C81.2301 109.383 83.8671 106.723 85.4787 103.433V103.412C85.7345 102.9 85.9657 102.378 86.1795 101.856C86.1795 101.81 86.2145 101.76 86.2356 101.714C86.3127 101.522 86.3862 101.326 86.4598 101.135C86.5334 100.943 86.5649 100.85 86.614 100.705C86.6455 100.616 86.6806 100.527 86.7086 100.438C86.7787 100.243 86.8418 100.047 86.9083 99.8556C86.9099 99.8343 86.9099 99.813 86.9083 99.7917C87.2132 98.868 87.483 97.9444 87.7458 97.0349C88.7095 93.6919 89.624 90.5336 92.119 88.0042C94.6139 85.4748 97.7256 84.5511 101.019 83.5742C101.927 83.3042 102.849 83.0307 103.77 82.718L104.387 82.5013L104.611 82.4231L105.07 82.2491C105.242 82.1851 105.421 82.114 105.582 82.0465L105.778 81.9684C106.292 81.7529 106.801 81.516 107.306 81.2579H107.33C108.929 80.4518 110.388 79.389 111.651 78.1104C112.133 77.6202 112.584 77.0992 113 76.5507V74C112.354 75.1281 111.568 76.167 110.659 77.0907C109.453 78.3061 108.055 79.3098 106.524 80.0607Z" fill="#FC805F"/>
<path d="M112.513 116C112.665 115.617 112.827 115.238 113 114.865V112C112.171 113.232 111.499 114.568 111 115.975C111.506 115.989 112.01 115.998 112.513 116Z" fill="#FC805F"/>
<path d="M97.0922 34.1424C94.3434 36.9023 93.384 40.1971 92.3685 43.6891C91.3531 47.1811 90.2991 50.7858 87.3262 53.7744C86.1087 54.9891 84.698 55.9909 83.1523 56.7384L83.0788 56.7736C81.2119 57.6259 79.2768 58.3183 77.2941 58.8435C73.824 59.8643 70.543 60.8289 67.7978 63.5922C65.0525 66.3555 64.0931 69.6504 63.0741 73.1424C62.5535 75.1318 61.8671 77.0736 61.0222 78.9472L60.9801 79.0316C60.2373 80.5841 59.242 82.0011 58.0353 83.2242C55.0624 86.2164 51.4733 87.2724 48.0032 88.2932C45.5276 89.0219 43.15 89.726 41 91.0672C41.3922 91.384 41.7878 91.6949 42.187 92C44.0919 90.9158 46.2033 90.2927 48.3989 89.645C52.0405 88.5714 55.8013 87.466 59.0298 84.2204C60.2878 82.9494 61.3352 81.4841 62.1322 79.8801V79.8589C62.3878 79.3485 62.6189 78.8346 62.8325 78.3171C62.8325 78.2714 62.871 78.222 62.8885 78.1727C62.9655 77.9827 63.0391 77.7926 63.1126 77.6025C63.1861 77.4124 63.2177 77.3209 63.2667 77.1766L63.3612 76.9126C63.4313 76.719 63.4943 76.5253 63.5608 76.3317V76.2754C63.8655 75.3566 64.1316 74.4414 64.3977 73.5367C65.3606 70.2277 66.2711 67.1018 68.7642 64.5954C71.2573 62.089 74.3668 61.1703 77.6618 60.2022C78.5687 59.9347 79.4861 59.6637 80.4035 59.3539L81.0128 59.1462L81.2474 59.0617L81.6956 58.8927L82.2279 58.6851L82.4065 58.6146C82.9177 58.3999 83.4289 58.1676 83.9332 57.9106H83.9542C85.5511 57.1099 87.0099 56.0569 88.2751 54.7918C91.5001 51.5497 92.6031 47.7514 93.6711 44.1045C94.6341 40.792 95.548 37.6661 98.0411 35.1597C100.534 32.6534 103.644 31.7346 106.942 30.7666C109.02 30.2157 111.046 29.4867 113 28.5876V27C110.924 28.1265 108.711 28.7776 106.547 29.4148C103.118 30.4145 99.8374 31.3826 97.0922 34.1424Z" fill="#FC805F"/>
<path d="M97.5302 114.91C97.7801 114.407 98.006 113.9 98.2149 113.387C98.2354 113.342 98.2525 113.293 98.2696 113.248C98.345 113.061 98.4168 112.873 98.4887 112.682L98.6428 112.263C98.6736 112.176 98.7044 112.089 98.7318 112.003C98.8002 111.811 98.8653 111.62 98.9269 111.43V111.375C99.2247 110.473 99.4883 109.567 99.7451 108.679C100.686 105.414 101.576 102.333 104.014 99.8633C106.451 97.3931 109.491 96.4911 112.716 95.5335L113 95.4468V94L112.315 94.1978C108.923 95.2039 105.719 96.1545 103.031 98.8779C100.344 101.601 99.4061 104.849 98.4134 108.29C97.9017 110.251 97.2296 112.164 96.4039 114.011L96.3628 114.098C96.2499 114.334 96.1267 114.566 96 114.792C96.4793 114.865 96.9654 114.931 97.448 115C97.4718 114.967 97.4994 114.936 97.5302 114.91Z" fill="#FC805F"/>
<path d="M60.1102 101.228C63.7446 100.175 67.5014 99.0557 70.7266 95.82C71.9834 94.5529 73.0297 93.092 73.8258 91.4929V91.4718C74.0812 90.9629 74.312 90.4506 74.5254 89.9347L74.5779 89.8014C74.6549 89.6084 74.7318 89.4153 74.8053 89.2223C74.8578 89.0819 74.9067 88.9416 74.9592 88.8047C75.0116 88.6678 75.0222 88.6222 75.0571 88.531C75.1236 88.3415 75.1865 88.152 75.2495 87.959C75.2495 87.9379 75.267 87.9168 75.274 87.8922C75.5748 86.9798 75.8442 86.0708 76.1065 85.1724C77.0685 81.8701 77.9815 78.7503 80.4685 76.2516C82.9556 73.7529 86.0654 72.8404 89.364 71.8718C90.4729 71.549 91.5992 71.2156 92.7256 70.819L92.9424 70.7418L93.4042 70.5699L93.9219 70.3663L94.1108 70.2926C94.625 70.0785 95.1357 69.8469 95.6394 69.5907H95.6604C97.2564 68.7937 98.7139 67.7438 99.9769 66.4814C103.199 63.2492 104.3 59.4626 105.367 55.8304C106.329 52.528 107.242 49.4081 109.733 46.9094C110.69 45.9577 111.793 45.1662 113 44.5652V43C111.416 43.7051 109.974 44.6933 108.743 45.9163C105.997 48.6677 105.039 51.956 104.024 55.4373C103.01 58.9186 101.957 62.5088 98.987 65.4883C97.7724 66.6987 96.3642 67.6963 94.8209 68.4396L94.7404 68.4783C92.8764 69.3274 90.9446 70.0176 88.9652 70.5418C85.4987 71.5595 82.2211 72.5211 79.4786 75.2759C76.7327 78.0308 75.7742 81.3157 74.7563 84.797C74.2363 86.7792 73.5506 88.7139 72.7065 90.5805L72.6645 90.6682C71.9215 92.2164 70.9274 93.6301 69.7227 94.8514C66.7529 97.8309 63.1674 98.8837 59.7009 99.9014C58.4381 100.273 57.1998 100.638 56 101.084C56.5457 101.393 57.0879 101.702 57.637 102C58.4521 101.716 59.2741 101.474 60.1102 101.228Z" fill="#FC805F"/>
<path d="M36.1459 60.5064C37.3937 59.2438 38.433 57.7893 39.2247 56.1976V56.1766C39.4784 55.6703 39.7078 55.1605 39.9197 54.6472C39.9197 54.6018 39.9545 54.5529 39.9754 54.5075C40.0518 54.3154 40.1248 54.1269 40.1978 53.9384L40.3506 53.5194L40.4445 53.2505C40.5105 53.0619 40.5765 52.8698 40.6391 52.6778L40.6599 52.6184C40.9623 51.7106 41.2264 50.8027 41.4905 49.9053C42.4461 46.623 43.3496 43.5187 45.8238 41.0326C48.2981 38.5464 51.3839 37.6384 54.6539 36.6782C55.554 36.4128 56.4644 36.1405 57.3784 35.8367L57.9865 35.6271L58.2089 35.5468L58.6642 35.3792L59.1785 35.1767L59.3661 35.0999C59.8734 34.8904 60.3773 34.6576 60.8778 34.4016H60.9021C62.4861 33.606 63.9337 32.5616 65.1903 31.3078C68.3908 28.0883 69.4854 24.3241 70.5418 20.7065C71.5009 17.4207 72.4044 14.32 74.8787 11.8338C77.3529 9.34761 80.4388 8.43624 83.7157 7.47249C87.3263 6.42494 91.0585 5.31108 94.2625 2.0951C94.8987 1.44658 95.4799 0.745774 96 0H94.2625C93.9513 0.384508 93.6207 0.752763 93.2721 1.10339C90.3218 4.06796 86.7599 5.11547 83.3161 6.1316C79.8723 7.14772 76.6162 8.10099 73.8918 10.8421C71.1673 13.5832 70.2117 16.8516 69.2005 20.312C68.1892 23.7724 67.1502 27.3515 64.1999 30.3161C62.9914 31.5197 61.5914 32.5123 60.0576 33.2527L59.9846 33.2911C58.1317 34.136 56.2113 34.8228 54.2439 35.3443C50.8001 36.357 47.544 37.3137 44.8195 40.0548C42.0951 42.7924 41.143 46.0642 40.1317 49.5281C39.6154 51.5021 38.933 53.4284 38.0919 55.2862L38.0536 55.37C37.3164 56.9099 36.3287 58.3155 35.1311 59.5288C32.1808 62.4934 28.6189 63.5409 25.1751 64.557C23.0136 65.1925 20.9252 65.8071 19 66.8512C19.2711 67.2388 19.5525 67.6159 19.8271 68C21.6028 67.0642 23.5488 66.4915 25.5678 65.9049C29.2096 64.8259 32.9419 63.7224 36.1459 60.5064Z" fill="#FC805F"/>
<path d="M13.9435 54.2696C17.5246 53.2212 21.2297 52.1029 24.4041 48.8842C25.6439 47.6215 26.676 46.1656 27.4613 44.5717C27.4628 44.5648 27.4628 44.5577 27.4613 44.5508C27.7164 44.0441 27.9439 43.5338 28.1507 43.0201L28.2024 42.8838C28.2782 42.6916 28.354 42.4993 28.4264 42.3071C28.4781 42.1708 28.5263 42.0311 28.5746 41.8948C28.6229 41.7585 28.6401 41.713 28.6711 41.6222C28.74 41.43 28.8021 41.2413 28.8641 41.0491L28.8848 40.9896C29.1847 40.081 29.4466 39.1723 29.7051 38.2742C30.6564 34.9891 31.5525 31.8824 34.0066 29.3941C36.4606 26.9059 39.5213 25.9972 42.7646 25.0362C43.6573 24.7706 44.5603 24.5015 45.4633 24.194C45.6632 24.1288 45.8631 24.0588 46.063 23.9843L46.294 23.9004L46.7352 23.7362C46.9121 23.6686 47.0879 23.5987 47.2625 23.5265L47.4314 23.4601C47.9381 23.2469 48.4413 23.0162 48.9376 22.7611H48.9582C50.5294 21.9649 51.9652 20.9197 53.2115 19.6648C56.3859 16.4426 57.4715 12.6754 58.5193 9.05481C59.4706 5.76627 60.3668 2.66298 62.8208 0.174736L63 0H61.1629C59.0157 2.56513 58.154 5.53558 57.2475 8.66336C56.248 12.1266 55.214 15.7088 52.2877 18.6758C51.0891 19.8805 49.7005 20.8738 48.1793 21.6148L48.1035 21.6533C46.2674 22.4993 44.3637 23.1855 42.413 23.7047C38.9974 24.7217 35.7678 25.6792 33.0656 28.4226C30.3634 31.1624 29.419 34.437 28.4161 37.9003C27.9036 39.8742 27.228 41.8008 26.3963 43.6596L26.355 43.7505C25.6225 45.2909 24.6429 46.6974 23.4563 47.9127C20.5301 50.8797 16.9972 51.9282 13.5816 52.9451C12.7061 53.2038 11.8582 53.4588 11 53.7419C11.2171 54.1612 11.4308 54.5841 11.6549 55C12.3925 54.7379 13.168 54.5002 13.9435 54.2696Z" fill="#FC805F"/>
<path d="M15.8855 33.1904C15.8855 33.1904 15.8855 33.1904 15.8855 33.1727C16.1394 32.6616 16.3658 32.1469 16.5717 31.6287L16.63 31.4806C16.7055 31.2938 16.7775 31.1034 16.8461 30.9131C16.9147 30.7227 16.9525 30.6275 17.0005 30.483L17.0931 30.2221L17.2887 29.6369C17.2872 29.6193 17.2872 29.6016 17.2887 29.584C17.5837 28.6639 17.8479 27.7474 18.1052 26.8414C19.052 23.5276 19.944 20.3937 22.3867 17.8837C24.8293 15.3737 27.8757 14.4571 31.1109 13.4841C32.1984 13.1563 33.3065 12.8214 34.4112 12.4265L34.6067 12.3561L35.0767 12.1763C35.238 12.1163 35.3992 12.0494 35.5604 11.9824L35.7663 11.8978C36.2706 11.6862 36.7681 11.45 37.2655 11.1927C38.8293 10.3896 40.2584 9.33523 41.499 8.06937C43.9004 5.60169 45.1046 2.80963 46 0H44.5523C43.7186 2.49588 42.6002 4.93539 40.528 7.07169C39.335 8.28687 37.9529 9.28895 36.4387 10.0365L36.3598 10.0752C34.5336 10.9291 32.6399 11.6214 30.6992 12.1446C27.296 13.1704 24.0849 14.1364 21.3918 16.9037C18.7021 19.6675 17.7621 22.9706 16.7638 26.4642C16.2547 28.4572 15.581 30.402 14.75 32.2773C14.75 32.309 14.7259 32.3372 14.7122 32.3654C13.9844 33.9201 13.0093 35.3392 11.8271 36.5641C9.76865 38.6792 7.4049 39.8284 5 40.6816C5.15781 41.1222 5.3225 41.5629 5.48717 42C8.03273 41.0975 10.5474 39.8848 12.7945 37.5617C14.0473 36.2852 15.0911 34.8091 15.8855 33.1904Z" fill="#FC805F"/>
<path d="M110.688 2.75919C109.667 6.24696 108.611 9.85444 105.623 12.8425C102.635 15.8305 99.0276 16.8863 95.5397 17.9104C92.0519 18.9346 88.7541 19.8954 85.9948 22.6581C83.2355 25.4209 82.2677 28.7152 81.2435 32.2029C80.2193 35.6907 79.167 39.2981 76.1789 42.2861C74.955 43.4993 73.5371 44.4996 71.9837 45.2459L71.9063 45.2847C70.0309 46.1362 68.0871 46.8284 66.0956 47.3541C62.6078 48.3747 59.31 49.339 56.5507 52.1018C53.7914 54.8646 52.827 58.1588 51.8028 61.6501C51.28 63.6397 50.5888 65.5812 49.7369 67.4537C49.7255 67.4825 49.7125 67.5107 49.6982 67.5381C48.9515 69.0902 47.9512 70.5069 46.7383 71.7298C43.7503 74.7178 40.1428 75.7772 36.6549 76.7978C33.9308 77.5967 31.3264 78.364 29 79.9653C29.3273 80.3172 29.6546 80.6692 29.989 81C32.1007 79.5922 34.5256 78.8883 37.0491 78.1422C40.7094 77.0687 44.4893 75.9637 47.7343 72.7187C48.9997 71.4475 50.0525 69.9811 50.8526 68.3757V68.3547C51.1095 67.8443 51.3418 67.3305 51.5565 66.8131C51.5565 66.7673 51.5917 66.7181 51.6128 66.6724C51.6902 66.4823 51.7642 66.2887 51.8381 66.0986C51.912 65.9086 51.9436 65.8136 51.9929 65.6728L52.0879 65.4088C52.1583 65.2153 52.2217 65.0217 52.2851 64.8282L52.3062 64.7683C52.6123 63.8532 52.8798 62.9382 53.1473 62.0337C54.1152 58.7255 55.0302 55.5966 57.5361 53.0908C60.042 50.5849 63.1674 49.6699 66.4863 48.6985C67.6019 48.3712 68.7387 48.0369 69.872 47.6427L70.0726 47.5723L70.5548 47.3963L71.051 47.1992C71.1214 47.1711 71.1953 47.1464 71.2657 47.1148C71.7796 46.9036 72.2934 46.6713 72.8002 46.4109C74.4053 45.6103 75.8716 44.5576 77.1433 43.2927C80.3847 40.0478 81.4934 36.2538 82.5633 32.6111C83.5347 29.2994 84.4498 26.1706 86.9557 23.6647C89.4615 21.1589 92.5869 20.2403 95.9058 19.2725C99.5625 18.1991 103.342 17.0939 106.587 13.849C109.832 10.604 110.938 6.81013 112.008 3.1675C112.324 2.08351 112.637 1.02416 113 0H111.511C111.247 0.89042 110.976 1.8195 110.688 2.75919Z" fill="#FC805F"/>
<path d="M4.07902 21.1796C4.07902 21.1796 4.07902 21.1797 4.07902 21.1623C4.33958 20.6584 4.57646 20.1498 4.78965 19.6367L4.8394 19.5044C4.92112 19.3128 4.9993 19.1212 5.07392 18.9262C5.12721 18.7903 5.17693 18.651 5.22668 18.5152C5.27642 18.3794 5.2942 18.3341 5.32618 18.2435C5.39369 18.052 5.46122 17.8639 5.52518 17.6758L5.54647 17.6096C5.8556 16.704 6.12564 15.7985 6.39212 14.9069C7.3728 11.6329 8.29661 8.53661 10.8229 6.05677C13.3492 3.57693 16.508 2.67138 19.855 1.71357C20.7753 1.44887 21.7062 1.17723 22.6407 0.874218C22.8503 0.808042 23.0564 0.738349 23.2661 0.665208L23.4935 0.585108L23.9554 0.417934L24.4848 0.215897L24.6767 0.139283C24.7832 0.0974879 24.8934 0.048761 25 0H20.7362C20.3098 0.128868 19.8835 0.250709 19.4571 0.372612C15.9324 1.38614 12.6066 2.34046 9.81737 5.07107C7.0317 7.80169 6.05458 11.0652 5.02417 14.5168C4.49592 16.4841 3.79941 18.4041 2.94202 20.2567C2.92878 20.2879 2.91334 20.3181 2.89583 20.3472C2.16101 21.8435 1.18298 23.2127 0 24.4013C0.117254 24.9342 0.230955 25.4706 0.355316 26C0.543633 25.8328 0.731931 25.6517 0.913142 25.481C2.19652 24.2226 3.26543 22.7703 4.07902 21.1796Z" fill="#FC805F"/>
</g>
<path d="M17 72.0847V101.996H53.0435C38.5973 95.3859 26.1606 85.0652 17 72.0847Z" fill="#FC805F"/>
<path d="M65.0004 85.421V54H29.1533C37.0537 68.3493 49.7403 79.4696 65.0004 85.421Z" fill="#FC805F"/>
<path d="M64.9998 85.4254C49.7409 79.472 37.0549 68.3523 29.1527 54.0044H17V72.0801C26.1594 85.0638 38.5962 95.3876 53.0435 102H64.9998V85.4254Z" fill="#F3F1E5"/>
<path d="M88.3368 110.115V100H65V148H112.974V145.613C105.738 142.911 99.5013 138.062 95.0981 131.716C90.695 125.37 88.3359 117.83 88.3368 110.106V110.115Z" fill="#2B5243"/>
<path d="M88.3369 110.115C88.3355 117.842 90.6975 125.386 95.1059 131.732C99.5144 138.079 105.758 142.926 113 145.622V100H88.3369V110.115Z" fill="#FFC844"/>
</svg>
