<svg width="152" height="153" viewBox="0 0 152 153" fill="none" xmlns="http://www.w3.org/2000/svg">
<g opacity="0.1">
<path d="M103.118 19.9452C104.775 21.5957 106.686 22.9683 108.78 24.0104C109.444 24.3469 110.114 24.6527 110.79 24.928L110.973 25.0014C111.225 25.1024 111.473 25.2033 111.726 25.2951L112.276 25.5016L112.625 25.6255L113.377 25.8824L113.46 25.9099C114.653 26.3045 115.846 26.6578 117.02 27.0019C121.338 28.2683 125.412 29.4612 128.679 32.7281C131.946 35.9949 133.138 40.0693 134.405 44.3869C134.753 45.5752 135.107 46.7774 135.51 47.9841C135.598 48.2548 135.694 48.5255 135.786 48.7962C135.822 48.8926 135.859 48.9889 135.891 49.0852L136.112 49.6863C136.199 49.9157 136.29 50.1452 136.378 50.3654C136.414 50.448 136.446 50.5306 136.479 50.6177C136.754 51.2876 137.06 51.9529 137.396 52.6136L137.396 52.6457C138.438 54.7392 139.811 56.651 141.461 58.3077C144.673 61.5195 148.307 63.1299 151.959 64.3275L151.959 62.3912C148.715 61.2763 145.536 59.7805 142.755 57.0092C141.175 55.4124 139.871 53.5642 138.896 51.54C138.882 51.5054 138.865 51.4717 138.846 51.439C137.739 48.9932 136.839 46.4593 136.153 43.8638C134.822 39.3123 133.56 35.0176 129.963 31.4159C126.366 27.8187 122.072 26.5569 117.52 25.2263C114.926 24.5426 112.393 23.6416 109.95 22.5329L109.844 22.4825C107.819 21.5081 105.971 20.2024 104.375 18.6192C100.48 14.7237 99.1035 10.0253 97.773 5.47836C97.2224 3.59717 96.681 1.76646 95.9882 0.00456511L93.9969 0.00456494C94.786 1.95113 95.4585 3.94289 96.0111 5.96931C97.4472 10.787 98.8925 15.7194 103.118 19.9452Z" fill="#766DFA"/>
<path d="M5.99609 1.91802C9.26285 5.18946 10.4557 9.25923 11.7221 13.586C13.0985 18.3532 14.5621 23.281 18.7878 27.5114C23.0135 31.7418 27.9412 33.1825 32.7174 34.559C37.0349 35.8253 41.1091 37.0183 44.3805 40.2851C47.6518 43.552 48.8402 47.6263 50.1065 51.9531C51.483 56.7203 52.9465 61.6481 57.1722 65.8739C58.83 67.5242 60.7415 68.8982 62.834 69.9437C63.5008 70.2771 64.1707 70.583 64.8436 70.8613L65.0409 70.9393L65.775 71.2238L66.3393 71.4303L66.6743 71.5542L67.4405 71.8157L67.5047 71.8386C68.7022 72.2332 69.8952 72.5865 71.0743 72.9306C75.3918 74.197 79.466 75.3899 82.7328 78.6568C85.9996 81.9236 87.1925 85.998 88.4588 90.3156C88.8029 91.504 89.1608 92.7107 89.56 93.9174C89.6456 94.1866 89.7374 94.4573 89.8352 94.7295L89.9408 95.0186L90.161 95.6242C90.2482 95.8491 90.3353 96.083 90.4271 96.2941C90.4592 96.3813 90.4913 96.4639 90.5281 96.551C90.8033 97.2209 91.1092 97.8862 91.4457 98.5469L91.4457 98.5791C92.4876 100.671 93.8585 102.583 95.5062 104.241C99.7364 108.467 104.682 109.912 109.436 111.307C113.753 112.573 117.832 113.766 121.099 117.033C124.366 120.3 125.559 124.374 126.825 128.696C128.201 133.468 129.665 138.396 133.891 142.626C138.116 146.857 143.104 148.348 147.871 149.724C149.284 150.137 150.669 150.546 152 151.018L152 149.078C150.816 148.678 149.61 148.325 148.38 147.963C143.833 146.632 139.13 145.255 135.235 141.36C131.34 137.465 129.963 132.762 128.633 128.215C127.302 123.668 126.04 119.368 122.439 115.771C118.837 112.174 114.547 110.912 109.996 109.577C105.444 108.242 100.746 106.87 96.8505 102.975C95.2689 101.379 93.9648 99.5305 92.9919 97.5054C92.9747 97.4742 92.9594 97.442 92.946 97.409C91.8359 94.9625 90.9334 92.427 90.2482 89.8292C88.913 85.2823 87.6559 80.9831 84.0588 77.3859C80.4617 73.7887 76.1625 72.5314 71.6157 71.1963C69.0242 70.5141 66.4948 69.6147 64.0544 68.5075L63.9351 68.4479C61.9121 67.4759 60.0653 66.1733 58.4707 64.5938C54.5754 60.6983 53.1989 55.9953 51.8637 51.4438C50.5286 46.8922 49.276 42.6022 45.6743 39.0004C42.0727 35.3986 37.7782 34.146 33.2313 32.8108C28.6845 31.4756 23.9816 30.1037 20.0863 26.2083C16.1909 22.3129 14.8145 17.6099 13.4839 13.0629C12.1533 8.51596 10.8916 4.21675 7.28991 0.619555C7.08804 0.414614 6.88159 0.217303 6.67053 0.0276515L3.70201 0.0276512C4.52394 0.584918 5.29196 1.21779 5.99609 1.91802Z" fill="#766DFA"/>
<path d="M124.095 8.69486L124.122 8.69486C124.783 9.02981 125.457 9.33722 126.132 9.61252C126.187 9.64004 126.242 9.65841 126.302 9.68135C126.554 9.78688 126.811 9.88781 127.063 9.98416L127.605 10.1815L127.967 10.3099L128.706 10.5623L128.802 10.5944C129.995 10.9936 131.183 11.3423 132.358 11.6864C136.675 12.9528 140.75 14.1457 144.021 17.4126C147.292 20.6794 148.476 24.7538 149.743 29.0805C150.169 30.5304 150.605 32.0078 151.119 33.4853L151.22 33.7743C151.293 33.9762 151.367 34.1781 151.445 34.38C151.523 34.5819 151.619 34.8388 151.711 35.0591L151.807 35.3068L151.991 35.7243L151.991 30.2184C151.826 29.6678 151.66 29.1172 151.5 28.5666C150.169 24.0151 148.908 19.7205 145.31 16.1187C141.709 12.5215 137.414 11.2597 132.863 9.92911C130.269 9.24745 127.738 8.34644 125.297 7.2358L125.182 7.18074C123.159 6.2066 121.313 4.90252 119.718 3.32199C118.72 2.32261 117.835 1.21627 117.08 0.0230263L114.928 0.0230261C115.88 1.70237 117.055 3.24568 118.419 4.61129C120.079 6.2695 121.995 7.64849 124.095 8.69486Z" fill="#766DFA"/>
<path d="M48.0322 19.2618C52.3497 20.5282 56.4239 21.7211 59.6953 24.988C62.9666 28.2548 64.1549 32.3292 65.4213 36.6513C66.7977 41.4186 68.2613 46.3509 72.487 50.5767C74.1448 52.2271 76.0563 53.6011 78.1488 54.6465C78.8141 54.9861 79.4839 55.2889 80.163 55.5642L80.3327 55.6284C80.5851 55.7339 80.8374 55.8349 81.0944 55.9313L81.6358 56.1285L81.9982 56.257L82.737 56.5139L82.8333 56.5461C84.0262 56.9407 85.2145 57.2894 86.3891 57.6335C90.7066 58.8998 94.7808 60.0928 98.0476 63.3597C101.314 66.6265 102.507 70.7009 103.774 75.023C104.2 76.4775 104.636 77.9595 105.15 79.4369C105.187 79.5287 105.219 79.6251 105.256 79.7168L105.476 80.3271L105.737 80.9924L105.843 81.2539C106.118 81.9284 106.426 82.5937 106.76 83.259C106.759 83.2666 106.759 83.2743 106.76 83.2819C107.806 85.3745 109.18 87.2861 110.83 88.9438C115.056 93.1696 120.006 94.6149 124.755 96.0098C129.073 97.2761 133.151 98.4691 136.418 101.736C139.685 105.003 140.878 109.077 142.144 113.399C143.521 118.171 144.984 123.099 149.21 127.329C150.062 128.17 150.983 128.937 151.963 129.623L151.963 127.329C151.458 126.92 150.974 126.485 150.513 126.026C146.618 122.131 145.241 117.428 143.911 112.881C142.58 108.334 141.318 104.035 137.721 100.433C134.124 96.8311 129.825 95.5785 125.274 94.2433C120.722 92.9081 116.029 91.5362 112.129 87.6408C110.548 86.0439 109.244 84.1957 108.27 82.1716C108.27 82.1394 108.238 82.1027 108.219 82.066C107.108 79.6236 106.207 77.0909 105.526 74.4954C104.191 69.9484 102.934 65.6492 99.3368 62.052C95.7397 58.4548 91.4406 57.1976 86.8938 55.8624C84.2998 55.1815 81.7687 54.2805 79.3279 53.1691L79.2132 53.1186C77.1912 52.1429 75.3447 50.839 73.7488 49.2599C69.8534 45.3599 68.477 40.6615 67.1464 36.1145C65.8158 31.5676 64.5541 27.2683 60.957 23.6666C57.3599 20.0648 53.0608 18.8122 48.5094 17.477C43.9579 16.1418 39.2597 14.7699 35.3644 10.8745C32.1206 7.62597 30.6202 3.81771 29.4411 0.00944974L27.5232 0.00944957C28.7941 4.21689 30.3587 8.46103 34.0659 12.1684C38.3329 16.4217 43.2606 17.867 48.0322 19.2618Z" fill="#766DFA"/>
<path d="M75.0104 9.67219C78.2772 12.939 79.4701 17.0134 80.7364 21.3356C82.1129 26.1074 83.5765 31.0352 87.8022 35.261C89.4599 36.9113 91.3715 38.2853 93.464 39.3308L93.4869 39.3308C94.1507 39.6672 94.8221 39.9731 95.5011 40.2484L95.6709 40.3126C95.9232 40.4182 96.1756 40.5191 96.4325 40.6155L96.9785 40.8128L97.3318 40.9412L98.0888 41.1982L98.1623 41.2257C99.3552 41.6203 100.553 41.9736 101.727 42.3177C106.045 43.5841 110.119 44.777 113.386 48.0393C116.652 51.3015 117.845 55.3805 119.112 59.7118C119.46 60.8956 119.814 62.0932 120.213 63.2999L120.488 64.1074C120.525 64.2038 120.562 64.3001 120.594 64.3965L120.814 65.0021C120.901 65.2269 120.993 65.4609 121.08 65.6812C121.117 65.7638 121.149 65.8463 121.181 65.9289C121.456 66.5988 121.759 67.2687 122.099 67.9248L122.099 67.9569C123.141 70.0504 124.513 71.9622 126.164 73.6189C130.389 77.8447 135.317 79.29 140.089 80.6848C144.406 81.9512 148.485 83.1441 151.752 86.411C151.83 86.489 151.899 86.5716 151.977 86.6496L151.977 84.1352C148.609 81.2767 144.709 80.125 140.603 78.9229C136.056 77.5923 131.357 76.2158 127.458 72.3204C125.877 70.7236 124.573 68.8754 123.599 66.8512L123.553 66.7548C122.443 64.3083 121.54 61.7728 120.855 59.175C119.52 54.6235 118.263 50.3288 114.666 46.727C111.069 43.1298 106.774 41.8681 102.223 40.5375C99.6325 39.8561 97.1046 38.9566 94.6661 37.8487L94.5422 37.7891C92.5197 36.8161 90.673 35.5137 89.0777 33.935C85.1824 30.0349 83.8059 25.3365 82.4754 20.785C81.1448 16.2334 79.8831 11.9434 76.286 8.34158C72.6889 4.73979 68.3898 3.4872 63.8383 2.15202C61.6719 1.56103 59.5424 0.842475 57.4608 0.000113807L53.4187 0.000113454C56.6028 1.94096 60.0026 2.94121 63.3244 3.91393C67.6648 5.19405 71.7437 6.40534 75.0104 9.67219Z" fill="#766DFA"/>
<path d="M47.0549 143.466L47.0044 143.37C45.893 140.924 44.992 138.388 44.3112 135.79C42.976 131.243 41.7189 126.944 38.1172 123.347C34.5201 119.745 30.221 118.488 25.6695 117.152C23.0758 116.471 20.5447 115.57 18.1037 114.459L17.9935 114.409C15.9692 113.437 14.1222 112.132 12.5291 110.55C8.63375 106.654 7.2573 101.951 5.92215 97.4045C4.63288 92.9906 3.40323 88.8199 0.0493032 85.2915L0.0493029 88.15C2.14609 91.0406 3.13254 94.3992 4.17863 97.923C5.55507 102.69 7.0233 107.618 11.249 111.848C12.908 113.496 14.8193 114.868 16.9107 115.914L16.9383 115.914C17.6036 116.249 18.2734 116.551 18.9479 116.831L19.1543 116.914L19.8747 117.198L20.4482 117.405L20.774 117.524L21.5448 117.786L21.6044 117.809C22.8019 118.203 23.9994 118.556 25.1786 118.905C29.4914 120.167 33.5703 121.36 36.8371 124.627C40.1038 127.894 41.2967 131.968 42.5631 136.295C42.9072 137.474 43.2605 138.671 43.6596 139.874L43.6596 139.906C43.7468 140.172 43.834 140.433 43.9303 140.695C43.9624 140.8 44.0037 140.901 44.0404 141.002C44.1093 141.2 44.1827 141.397 44.2561 141.594C44.3295 141.791 44.435 142.053 44.5268 142.282L44.6231 142.521C44.8984 143.191 45.2012 143.861 45.5408 144.521L45.5408 144.549C46.5871 146.638 47.9593 148.548 49.6059 150.206C50.2399 150.836 50.9126 151.426 51.6201 151.973L54.896 151.973C53.439 151.127 52.0974 150.097 50.9043 148.908C49.3285 147.32 48.0276 145.481 47.0549 143.466Z" fill="#766DFA"/>
<path d="M2.08168 65.2085C6.39912 66.4748 10.478 67.6678 13.7448 70.9347C17.0115 74.2015 18.209 78.2759 19.4708 82.598C20.8472 87.3698 22.3154 92.2976 26.5411 96.528C28.2001 98.1756 30.1114 99.5479 32.2029 100.593C32.8681 100.928 33.538 101.231 34.2125 101.511L34.3822 101.575C34.6392 101.681 34.8915 101.782 35.1484 101.878L35.6898 102.075L36.0477 102.208L36.791 102.461L36.8827 102.493C38.0757 102.887 39.2686 103.241 40.4431 103.585C44.7606 104.847 48.8349 106.039 52.1016 109.306C55.3684 112.573 56.5613 116.648 57.823 120.97C58.1717 122.153 58.5296 123.356 58.9288 124.562C59.016 124.828 59.1077 125.095 59.2041 125.365C59.2362 125.462 59.2729 125.563 59.3096 125.664L59.5298 126.26C59.617 126.489 59.7087 126.719 59.8005 126.944C59.8326 127.026 59.8602 127.104 59.8969 127.187C60.1722 127.857 60.475 128.527 60.8145 129.187L60.8145 129.215C61.8598 131.306 63.2321 133.218 64.8796 134.877C69.1099 139.103 74.0559 140.548 78.8092 141.943C83.1267 143.209 87.2009 144.407 90.4723 147.673C91.7138 148.931 92.7482 150.377 93.5371 151.959L95.5835 151.959C94.6583 149.882 93.365 147.991 91.7661 146.375C88.169 142.773 83.8745 141.516 79.3231 140.181C74.7716 138.846 70.0734 137.474 66.178 133.578C64.6125 131.995 63.3195 130.164 62.3515 128.16L62.3011 128.059C61.1904 125.614 60.2894 123.08 59.6078 120.483C58.2727 115.936 57.0155 111.637 53.4138 108.04C49.8167 104.443 45.5176 103.186 40.9708 101.85C38.3763 101.168 35.8439 100.269 33.4004 99.1617L33.2902 99.1066C31.2668 98.1332 29.42 96.8291 27.8257 95.2479C23.9304 91.3524 22.554 86.6495 21.2188 82.1025C19.8837 77.5555 18.6311 73.2563 15.0294 69.6591C11.4277 66.0619 7.13322 64.8001 2.58636 63.465C1.73756 63.2172 0.884186 62.9694 0.0307924 62.6987L0.0307922 64.6212L2.08168 65.2085Z" fill="#766DFA"/>
<path d="M22.8028 138.662C19.2011 135.06 14.9066 133.803 10.3552 132.468C7.76216 131.786 5.23126 130.886 2.78932 129.779L2.67916 129.724C1.7688 129.277 0.890381 128.768 0.0501577 128.201L0.0501575 130.385C0.554853 130.687 1.06417 130.967 1.57804 131.229L1.60554 131.229C2.27083 131.564 2.9407 131.867 3.61515 132.147L3.80329 132.22L4.54656 132.514L5.10171 132.715L5.44582 132.839L6.20287 133.101L6.28089 133.124C7.47381 133.523 8.66674 133.876 9.84589 134.22C14.1587 135.482 18.2376 136.675 21.5043 139.942C24.7711 143.209 25.964 147.283 27.2303 151.61L27.3404 151.986L29.2583 151.986C29.1711 151.688 29.0794 151.39 28.9922 151.092C27.6616 146.558 26.4045 142.259 22.8028 138.662Z" fill="#766DFA"/>
<path d="M0.0445195 151.362C0.535451 151.56 1.01722 151.771 1.4898 152L5.13281 152C3.55461 150.916 1.84473 150.037 0.0445197 149.385L0.0445195 151.362Z" fill="#766DFA"/>
<path d="M3.47331 42.8177C7.70358 47.0435 12.6496 48.4888 17.4029 49.8837C21.7158 51.15 25.7946 52.343 29.0659 55.6098C32.3373 58.8767 33.5257 62.951 34.792 67.2732C36.1684 72.045 37.632 76.9728 41.8577 81.2032C43.5167 82.8507 45.4281 84.2231 47.5195 85.2684C48.1848 85.6079 48.8547 85.9107 49.5337 86.186L49.6943 86.2503C49.9512 86.3573 50.2081 86.4583 50.4651 86.5531L51.0065 86.7504L51.369 86.8789C51.6167 86.9706 51.8645 87.0532 52.1122 87.1358L52.1994 87.1633C53.3923 87.5625 54.5852 87.9112 55.7598 88.2599C60.0772 89.5217 64.1515 90.7147 67.4183 93.9815C70.685 97.2484 71.8779 101.323 73.1443 105.649C73.571 107.104 74.0068 108.581 74.5207 110.059L74.6171 110.334C74.6905 110.541 74.7639 110.747 74.8419 110.954C74.9199 111.16 75.0163 111.412 75.108 111.623C75.1401 111.706 75.1722 111.793 75.2089 111.876C75.4842 112.549 75.7901 113.217 76.1266 113.881C77.1719 115.972 78.5441 117.884 80.1917 119.543C84.4219 123.769 89.3679 125.214 94.1213 126.609C98.4387 127.875 102.518 129.068 105.784 132.335C109.051 135.602 110.244 139.676 111.51 144.003C112.227 146.725 113.175 149.381 114.346 151.94L116.415 151.94C114.951 149.215 114.121 146.32 113.272 143.484C111.937 138.937 110.68 134.638 107.078 131.041C103.476 127.444 99.1866 126.182 94.6351 124.847C90.0837 123.512 85.3854 122.14 81.4901 118.244C79.9099 116.647 78.606 114.799 77.6315 112.775L77.581 112.674C76.4703 110.23 75.5693 107.696 74.8877 105.099C73.5526 100.552 72.2954 96.2527 68.6983 92.6555C65.1012 89.0583 60.8021 87.8011 56.2553 86.4659C53.6638 85.7838 51.1344 84.8844 48.694 83.7772L48.5747 83.7221C46.5513 82.7488 44.7045 81.4446 43.1103 79.8634C39.215 75.968 37.8385 71.265 36.5034 66.718C35.1682 62.1711 33.9157 57.8718 30.314 54.2701C26.7123 50.6683 22.4178 49.4156 17.8709 48.0805C13.3241 46.7453 8.6212 45.3734 4.72586 41.478C2.65161 39.3553 1.04214 36.8239 5.60828e-05 34.045L5.57122e-05 38.2845C0.94919 39.9446 2.11745 41.4693 3.47331 42.8177Z" fill="#766DFA"/>
</g>
<path d="M93.1066 67.4392H103.997V57L56 57L56 105.001H65.9727V94.5724C65.9742 87.3767 68.8333 80.4761 73.9216 75.3879C79.0099 70.2997 85.9107 67.4406 93.1066 67.4392Z" fill="#4CE467"/>
<path d="M83.6147 86.1939V105.002H104V85.0835H84.7305C84.5843 85.0828 84.4393 85.111 84.3039 85.1665C84.1686 85.222 84.0455 85.3037 83.9418 85.4068C83.8382 85.51 83.7559 85.6327 83.6997 85.7678C83.6436 85.9028 83.6147 86.0477 83.6147 86.1939Z" fill="#4CE467"/>
<path d="M83.6181 86.193C83.6181 85.8985 83.7351 85.6161 83.9433 85.4078C84.1516 85.1996 84.434 85.0826 84.7285 85.0826H103.998V67.439H93.108C85.9121 67.4404 79.0113 70.2996 73.923 75.3877C68.8347 80.4759 65.9755 87.3765 65.9741 94.5723V105.001H83.6181V86.193Z" fill="#766DFA"/>
<path d="M104 123.085V152.996H140.044C125.597 146.386 113.161 136.065 104 123.085Z" fill="#FC805F"/>
<path d="M152 136.421V105H116.153C124.054 119.349 136.74 130.47 152 136.421Z" fill="#FC805F"/>
<path d="M152 136.425C136.741 130.472 124.055 119.352 116.153 105.005H104V123.08C113.159 136.064 125.596 146.388 140.044 153H152V136.425Z" fill="#F3F1E5"/>
</svg>
