<svg width="218" height="258" viewBox="0 0 218 258" fill="none" xmlns="http://www.w3.org/2000/svg">
<g opacity="0.1">
<path d="M217.984 215.759L216.66 215.366C213.726 214.506 210.958 213.695 208.735 211.476C206.512 209.257 205.704 206.489 204.844 203.55C203.909 200.311 202.914 196.964 200.043 194.093C197.172 191.222 193.808 190.24 190.578 189.29C187.645 188.429 184.873 187.619 182.653 185.4C180.434 183.18 179.623 180.413 178.763 177.476C177.827 174.238 176.833 170.887 173.962 168.016C171.091 165.146 167.727 164.164 164.5 163.213C161.566 162.356 158.795 161.542 156.575 159.323C154.356 157.104 153.542 154.336 152.681 151.4C151.746 148.161 150.752 144.811 147.88 141.94C145.009 139.069 141.645 138.087 138.419 137.137C135.485 136.28 132.714 135.466 130.494 133.247C128.274 131.027 127.461 128.26 126.603 125.323C125.668 122.085 124.67 118.734 121.799 115.863C120.674 114.742 119.374 113.81 117.952 113.102H117.933C117.48 112.873 117.025 112.665 116.568 112.478L116.446 112.432C116.275 112.36 116.103 112.295 115.932 112.229L115.564 112.092L115.321 112.005L114.81 111.83L114.757 111.811C113.946 111.543 113.135 111.303 112.334 111.07C109.404 110.209 106.632 109.399 104.413 107.18C102.193 104.96 101.382 102.192 100.525 99.2594C100.288 98.4553 100.048 97.6386 99.7738 96.8189C99.7145 96.6381 99.6521 96.4573 99.5867 96.2796C99.5648 96.2079 99.5368 96.1394 99.5119 96.0677C99.4651 95.9368 99.4152 95.8027 99.3653 95.6687C99.3155 95.5347 99.2437 95.357 99.1783 95.1949C99.1596 95.1419 99.1377 95.092 99.119 95.0391C98.9289 94.5809 98.7231 94.1289 98.4955 93.677V93.6583C97.786 92.2379 96.8534 90.9404 95.7334 89.8151C92.859 86.9412 89.4983 85.9625 86.2686 85.0118C83.335 84.1515 80.5665 83.3411 78.3469 81.1219C76.1272 78.9026 75.3135 76.1347 74.453 73.1986C73.5178 69.96 72.5233 66.6093 69.6521 63.7386C66.7808 60.8679 63.417 59.886 60.1903 58.9354C57.2567 58.0782 54.4853 57.2647 52.2656 55.0454C50.0459 52.8261 49.2322 50.0583 48.3749 47.1221C47.424 43.8836 46.442 40.5328 43.5708 37.6621C40.6995 34.7914 37.3357 33.8096 34.109 32.8589C31.1754 32.0017 28.404 31.1882 26.1843 28.9689C23.9646 26.7496 23.1509 23.9818 22.2936 21.0456C21.3428 17.8071 20.3638 14.4564 17.4894 11.5856C14.6151 8.71493 11.2544 7.73309 8.02775 6.78242C5.09415 5.92526 2.3226 5.11485 0.102918 2.89246L0.0125732 2.79895V4.49458C2.28526 6.39904 4.91329 7.17204 7.67855 7.97933C10.768 8.88637 13.9604 9.82145 16.6072 12.4677C19.254 15.114 20.1924 18.3089 21.0964 21.3978C22.0005 24.4867 22.8547 27.4073 25.302 29.851C27.7493 32.2947 30.6673 33.1519 33.7568 34.0558C36.8463 34.9597 40.0417 35.8979 42.6885 38.5442C45.3353 41.1905 46.2705 44.3823 47.1777 47.4743C48.0849 50.5663 48.936 53.4807 51.3833 55.9275C53.8305 58.3743 56.7486 59.2283 59.8381 60.1323C62.9276 61.0362 66.123 61.9744 68.7698 64.6207C71.4166 67.267 72.3519 70.4619 73.2591 73.5508C74.1663 76.6397 75.0174 79.5603 77.4646 82.004C79.9119 84.4477 82.8268 85.3048 85.9194 86.2087C89.012 87.1127 92.2044 88.0477 94.8512 90.6971C95.9264 91.7794 96.8126 93.0343 97.473 94.4095L97.5073 94.478C98.262 96.1385 98.8741 97.86 99.3372 99.6241C100.244 102.716 101.099 105.634 103.546 108.08C105.99 110.527 108.911 111.381 112.001 112.285C113.761 112.75 115.48 113.361 117.138 114.112L117.219 114.152C118.595 114.812 119.85 115.699 120.932 116.774C123.579 119.42 124.514 122.615 125.422 125.704C126.329 128.793 127.18 131.713 129.627 134.157C132.074 136.601 134.993 137.458 138.082 138.362C141.171 139.266 144.367 140.201 147.014 142.85C149.661 145.499 150.596 148.688 151.503 151.777C152.41 154.866 153.261 157.787 155.709 160.233C158.156 162.68 161.074 163.534 164.163 164.438C167.253 165.342 170.448 166.28 173.095 168.927C175.742 171.573 176.677 174.765 177.581 177.857C178.485 180.949 179.343 183.863 181.79 186.31C184.237 188.757 187.152 189.608 190.245 190.515C193.337 191.422 196.53 192.354 199.176 195C201.823 197.646 202.758 200.841 203.663 203.93C204.567 207.019 205.424 209.939 207.871 212.386C210.318 214.833 213.233 215.684 216.329 216.591C216.881 216.753 217.442 216.903 218 217.093L217.984 215.759Z" fill="#766DFA"/>
<path d="M15.3102 217.963C14.851 217.667 14.3764 217.395 13.8886 217.149H13.8699C13.421 216.922 12.9627 216.713 12.5044 216.526L12.386 216.476L11.8715 216.273L11.5006 216.139L11.2574 216.052L10.7524 215.877L10.69 215.859C9.87949 215.591 9.07204 215.351 8.27396 215.117C5.34035 214.257 2.57193 213.446 0.352245 211.23C0.230661 211.105 0.112231 210.984 0 210.856V212.608C2.33192 214.677 5.05662 215.475 7.92788 216.317C9.55767 216.754 11.1538 217.308 12.704 217.975L15.3102 217.963Z" fill="#766DFA"/>
<path d="M189.636 204.497C186.762 201.623 183.401 200.642 180.172 199.694C177.238 198.834 174.466 198.023 172.247 195.804C170.027 193.585 169.217 190.817 168.356 187.881C167.421 184.642 166.426 181.292 163.555 178.421C160.684 175.55 157.32 174.568 154.093 173.618C151.16 172.76 148.388 171.947 146.169 169.728C143.949 167.508 143.135 164.74 142.275 161.804C141.339 158.566 140.345 155.215 137.474 152.344C134.602 149.474 131.239 148.492 128.012 147.541C125.078 146.684 122.307 145.87 120.087 143.651C117.868 141.432 117.054 138.664 116.197 135.728C115.246 132.489 114.264 129.139 111.392 126.268C110.267 125.147 108.968 124.214 107.545 123.506H107.53C107.079 123.278 106.624 123.07 106.164 122.883L106.036 122.833L105.531 122.634L105.151 122.493L104.92 122.409L104.406 122.235H104.353C103.542 121.963 102.732 121.723 101.931 121.49C99.0002 120.632 96.2287 119.819 94.009 117.603C91.7893 115.387 90.9787 112.616 90.1183 109.676C89.8284 108.688 89.5322 107.681 89.183 106.675C89.1643 106.615 89.1425 106.559 89.1207 106.5C89.0677 106.357 89.0178 106.213 88.9617 106.07C88.9056 105.927 88.8495 105.777 88.7902 105.631L88.7154 105.443C88.5284 104.985 88.3195 104.533 88.0919 104.084V104.066C87.3824 102.644 86.45 101.346 85.3298 100.219C82.4554 97.3456 79.0947 96.3669 75.8649 95.4162C72.9313 94.5591 70.163 93.7455 67.9402 91.5263C65.7174 89.307 64.9099 86.5391 64.0495 83.603C63.1142 80.3644 62.1197 77.0137 59.2485 74.143C56.3772 71.2723 53.0134 70.2904 49.7868 69.3398C46.8532 68.4826 44.0817 67.6691 41.862 65.4498C39.6423 63.2305 38.8287 60.4627 37.9682 57.5265C37.033 54.288 36.0384 50.9373 33.1672 48.0665C30.2959 45.1958 26.9321 44.214 23.7055 43.2633C20.7719 42.4061 18.0003 41.5957 15.7807 39.3733C13.561 37.1509 12.7473 34.3862 11.89 31.45C10.9391 28.2115 9.95714 24.8608 7.08589 21.9901C4.90361 19.8082 2.475 18.7328 0.0152588 17.9193V19.2378C2.19753 19.9921 4.33619 21.0051 6.2036 22.8722C8.85039 25.5185 9.78562 28.7133 10.6928 31.8023C11.6 34.8912 12.4512 37.8117 14.8985 40.2554C17.3457 42.6991 20.2637 43.5563 23.3532 44.4602C26.4426 45.3641 29.6381 46.3023 32.2849 48.9486C34.9317 51.5949 35.867 54.7898 36.7742 57.8787C37.6814 60.9676 38.5325 63.8882 40.9797 66.3319C43.427 68.7756 46.345 69.6328 49.4345 70.5367C52.5239 71.4406 55.7195 72.3788 58.3662 75.0251C61.013 77.6714 61.9483 80.8663 62.8523 83.9552C63.7564 87.0441 64.6138 89.9647 67.061 92.4084C69.5083 94.8521 72.4232 95.7092 75.5158 96.6132C78.6084 97.5171 81.8007 98.4553 84.4475 101.102C85.5228 102.184 86.409 103.439 87.0694 104.814L87.1037 104.886C87.8588 106.546 88.471 108.267 88.9337 110.032C89.8409 113.121 90.6951 116.038 93.1424 118.485C95.5865 120.932 98.5076 121.786 101.597 122.69C103.359 123.155 105.078 123.767 106.738 124.519L106.816 124.557C108.191 125.217 109.446 126.103 110.529 127.178C113.176 129.824 114.111 133.019 115.018 136.108C115.925 139.197 116.776 142.118 119.224 144.561C121.671 147.005 124.589 147.862 127.678 148.766C130.768 149.67 133.963 150.608 136.61 153.254C139.257 155.901 140.192 159.096 141.099 162.181C142.007 165.267 142.858 168.191 145.305 170.638C147.752 173.085 150.67 173.939 153.76 174.843C156.849 175.746 160.045 176.685 162.691 179.331C165.338 181.977 166.274 185.169 167.178 188.261C168.082 191.353 168.939 194.271 171.386 196.714C173.834 199.158 176.748 200.015 179.841 200.919C182.934 201.823 186.126 202.758 188.773 205.407C191.42 208.057 192.355 211.245 193.259 214.334C193.627 215.581 193.988 216.828 194.447 217.991H195.797C195.274 216.681 194.826 215.343 194.456 213.982C193.49 210.706 192.508 207.368 189.636 204.497Z" fill="#766DFA"/>
<path d="M147.543 208.69C146.608 205.451 145.614 202.1 142.742 199.23C139.871 196.359 136.507 195.377 133.277 194.426C130.347 193.569 127.575 192.759 125.353 190.537C123.13 188.314 122.322 185.549 121.462 182.613C120.527 179.375 119.532 176.024 116.661 173.153C113.79 170.283 110.426 169.301 107.196 168.353C104.263 167.493 101.494 166.682 99.2714 164.46C97.0486 162.238 96.2411 159.473 95.3807 156.537C94.4454 153.298 93.4509 149.951 90.5797 147.077C89.4486 145.956 88.1457 145.024 86.7202 144.315H86.7046C86.2525 144.088 85.7974 143.882 85.3391 143.692L85.2144 143.645C85.046 143.573 84.8746 143.508 84.7031 143.442L84.3322 143.305L84.0921 143.218L83.5808 143.043H83.5278C82.7173 142.772 81.9067 142.532 81.1055 142.298C78.1719 141.441 75.4035 140.628 73.1839 138.412C70.9642 136.195 70.1536 133.424 69.2932 130.488C69.0033 129.5 68.7071 128.493 68.3579 127.49L68.2924 127.3C68.2425 127.163 68.1926 127.022 68.1396 126.882L67.962 126.43C67.937 126.374 67.9152 126.312 67.8903 126.252C67.7032 125.797 67.4944 125.342 67.2668 124.893V124.875C66.5565 123.454 65.6241 122.155 64.5046 121.028C61.6302 118.155 58.2695 117.176 55.0397 116.225C52.1061 115.368 49.3347 114.554 47.115 112.335C44.8953 110.116 44.0847 107.348 43.2243 104.412C42.289 101.173 41.2946 97.8257 38.4233 94.9519C35.5521 92.0781 32.1882 91.0993 28.9616 90.1518C26.028 89.2915 23.2565 88.4811 21.0337 86.2587C18.8109 84.0363 18.0035 81.2716 17.143 78.3354C16.2078 75.0969 15.2132 71.7492 12.342 68.8754C9.47071 66.0016 6.10694 65.0229 2.87717 64.0753C1.89514 63.7854 0.934951 63.5018 0.00280762 63.1714V64.493C0.825837 64.7704 1.67064 65.0198 2.52797 65.2691C5.61745 66.1761 8.81297 67.1112 11.4598 69.7575C14.1065 72.4038 15.0418 75.5987 15.9459 78.6876C16.8499 81.7765 17.7073 84.6971 20.1545 87.1408C22.6018 89.5845 25.5198 90.4417 28.6093 91.3456C31.6988 92.2495 34.8942 93.1877 37.541 95.834C40.1878 98.4803 41.1231 101.675 42.0271 104.764C42.9312 107.853 43.7885 110.774 46.2358 113.217C48.6831 115.661 51.598 116.518 54.6906 117.422C57.7832 118.326 60.9724 119.264 63.6223 121.91C64.6967 122.995 65.5828 124.25 66.2442 125.626C66.2559 125.647 66.2662 125.669 66.2754 125.691C67.0302 127.353 67.6434 129.076 68.1085 130.841C69.0157 133.929 69.8699 136.85 72.3141 139.294C74.7582 141.741 77.6793 142.595 80.7688 143.498C82.5293 143.964 84.2478 144.576 85.9065 145.328L85.9875 145.366C87.3624 146.027 88.6173 146.913 89.7006 147.987C92.3474 150.633 93.2826 153.828 94.1898 156.917C95.097 160.006 95.9481 162.926 98.3953 165.37C100.843 167.814 103.761 168.671 106.85 169.575C109.94 170.479 113.135 171.417 115.782 174.063C118.429 176.71 119.364 179.905 120.268 182.993C121.172 186.082 122.029 189.003 124.477 191.447C126.924 193.89 129.842 194.747 132.931 195.651C136.021 196.555 139.216 197.494 141.863 200.14C144.51 202.786 145.445 205.981 146.349 209.07C147.253 212.159 148.111 215.079 150.555 217.523C150.721 217.685 150.886 217.841 151.051 217.991H153.092C152.497 217.597 151.943 217.145 151.437 216.641C149.214 214.394 148.404 211.623 147.543 208.69Z" fill="#766DFA"/>
<path d="M122.884 204.831C119.951 203.974 117.182 203.163 114.959 200.941C112.737 198.718 111.929 195.954 111.069 193.018C110.133 189.779 109.139 186.431 106.268 183.558C103.396 180.684 100.033 179.705 96.8028 178.757C93.8692 177.897 91.1008 177.087 88.878 174.864C86.6552 172.642 85.8478 169.877 84.9873 166.941C84.0521 163.703 83.0576 160.355 80.1864 157.481C79.0591 156.362 77.7604 155.43 76.3393 154.72C75.8872 154.492 75.4321 154.286 74.9738 154.096L74.8429 154.046L74.341 153.847L73.9606 153.706L73.7299 153.625L73.2124 153.448H73.1657C72.352 153.177 71.5414 152.94 70.7402 152.703C67.8097 151.846 65.0383 151.035 62.8186 148.816C60.5989 146.597 59.7883 143.829 58.9279 140.89C58.691 140.085 58.4509 139.269 58.1796 138.452L57.9926 137.907C57.9677 137.841 57.9459 137.773 57.9209 137.707L57.7712 137.299C57.712 137.143 57.6497 136.987 57.5905 136.838C57.5655 136.781 57.5437 136.725 57.5219 136.669C57.3348 136.21 57.127 135.757 56.8984 135.31V135.292C56.1894 133.871 55.2568 132.573 54.1362 131.448C51.265 128.578 47.9011 127.596 44.6744 126.645C41.7408 125.788 38.9694 124.974 36.7497 122.755C34.53 120.536 33.7195 117.768 32.859 114.832C31.9238 111.593 30.9293 108.246 28.058 105.372C25.1868 102.498 21.8229 101.519 18.5932 100.572C15.6596 99.7114 12.8912 98.901 10.6684 96.6786C8.44561 94.4562 7.63817 91.6915 6.77773 88.7553C5.84247 85.5168 4.84793 82.1692 1.97668 79.2954C1.38046 78.7012 0.733756 78.1599 0.0438232 77.6777V79.2362C0.411013 79.5282 0.76179 79.8404 1.09447 80.1712C3.74126 82.8175 4.67649 86.0124 5.58057 89.1013C6.48466 92.1902 7.34198 95.1108 9.78925 97.5545C12.2365 99.9982 15.1546 100.855 18.244 101.759C21.3335 102.663 24.529 103.601 27.1758 106.248C29.8225 108.894 30.7578 112.089 31.6619 115.178C32.5659 118.267 33.4233 121.187 35.8674 123.631C38.3116 126.075 41.2327 126.932 44.3253 127.836C47.4179 128.74 50.6102 129.678 53.257 132.324C54.3317 133.408 55.2178 134.664 55.8789 136.04L55.9101 136.102C56.6649 137.765 57.2781 139.488 57.7432 141.254C58.6504 144.343 59.5046 147.264 61.9488 149.707C64.3929 152.154 67.314 153.008 70.4035 153.915C72.167 154.378 73.8879 154.99 75.5474 155.745L75.6191 155.779C76.9951 156.44 78.2511 157.326 79.3353 158.401C81.9821 161.047 82.9173 164.242 83.8245 167.331C84.7317 170.42 85.5828 173.34 88.0301 175.784C90.4773 178.228 93.3954 179.085 96.4848 179.989C99.5743 180.893 102.77 181.831 105.417 184.477C108.063 187.123 108.999 190.318 109.903 193.407C110.807 196.496 111.664 199.417 114.108 201.86C116.552 204.304 119.477 205.161 122.566 206.065C125.656 206.969 128.851 207.907 131.498 210.554C133.724 212.779 134.737 215.388 135.551 218H136.857C135.987 215.12 134.927 212.212 132.389 209.671C129.462 206.763 126.114 205.782 122.884 204.831Z" fill="#766DFA"/>
<path d="M104.54 211.345C102.321 209.126 101.51 206.358 100.65 203.422C99.7145 200.183 98.72 196.836 95.8487 193.962C92.9775 191.088 89.6136 190.109 86.3839 189.162C83.4503 188.302 80.6819 187.491 78.4591 185.272C76.2363 183.053 75.4289 180.285 74.5684 177.349C73.6332 174.107 72.6387 170.759 69.7675 167.885C68.6402 166.766 67.3415 165.834 65.9204 165.124H65.9017C65.4527 164.896 64.9976 164.691 64.5393 164.5L64.4052 164.447L63.9065 164.251L63.5261 164.111L63.2955 164.03L62.7779 163.852H62.7312C61.9175 163.581 61.1069 163.344 60.3057 163.107C57.3721 162.25 54.6006 161.44 52.381 159.22C50.1613 157.001 49.3538 154.233 48.4933 151.3C48.2595 150.493 48.0164 149.673 47.742 148.853C47.6828 148.673 47.6174 148.489 47.555 148.305L47.4832 148.108L47.3336 147.697C47.2744 147.544 47.2152 147.385 47.1528 147.242C47.131 147.183 47.1092 147.127 47.0843 147.067C46.8972 146.608 46.6894 146.155 46.4608 145.708V145.69C45.7527 144.267 44.82 142.969 43.6986 141.843C40.8273 138.973 37.4635 137.991 34.2368 137.04C31.3032 136.183 28.5318 135.369 26.3121 133.15C24.0924 130.931 23.2818 128.163 22.4214 125.227C21.4861 121.988 20.4917 118.641 17.6204 115.767C14.7492 112.893 11.3853 111.914 8.15554 110.967C5.22194 110.106 2.45359 109.296 0.230786 107.077L0.0125732 106.843V108.567C2.31643 110.549 5.00063 111.338 7.80642 112.164C10.8959 113.068 14.0913 114.003 16.7381 116.649C19.3849 119.295 20.3201 122.49 21.2242 125.579C22.1283 128.668 22.9856 131.589 25.4298 134.032C27.8739 136.476 30.7951 137.333 33.8877 138.237C36.9803 139.141 40.1695 140.079 42.8194 142.725C43.8931 143.81 44.7792 145.066 45.4413 146.441C45.4413 146.463 45.4631 146.488 45.4756 146.509C46.2289 148.17 46.8411 149.892 47.3056 151.655C48.2097 154.744 49.067 157.665 51.5111 160.109C53.9553 162.552 56.8764 163.406 59.9659 164.313C61.7294 164.776 63.4503 165.388 65.1098 166.143L65.1815 166.177C66.5575 166.838 67.8135 167.724 68.8977 168.799C71.5444 171.445 72.4797 174.64 73.3838 177.729C74.2878 180.818 75.1452 183.738 77.5893 186.182C80.0335 188.626 82.9546 189.483 86.0472 190.39C89.1398 191.297 92.3322 192.229 94.9789 194.875C97.6257 197.522 98.561 200.716 99.465 203.805C100.369 206.894 101.227 209.815 103.671 212.258C106.115 214.702 109.036 215.559 112.129 216.463C113.656 216.877 115.156 217.388 116.618 217.994H119.314C117.132 216.632 114.772 215.94 112.478 215.269C109.532 214.378 106.763 213.568 104.54 211.345Z" fill="#766DFA"/>
<path d="M169.766 210.099C166.832 209.241 164.06 208.428 161.841 206.209C159.621 203.989 158.811 201.221 157.95 198.285C157.015 195.047 156.02 191.696 153.149 188.825C150.278 185.955 146.914 184.973 143.687 184.022C140.754 183.165 137.982 182.351 135.759 180.132C133.537 177.913 132.729 175.145 131.869 172.209C130.934 168.97 129.939 165.62 127.068 162.749C124.196 159.878 120.833 158.896 117.603 157.946C114.672 157.088 111.901 156.278 109.678 154.056C107.455 151.833 106.648 149.069 105.787 146.132C104.852 142.894 103.858 139.543 100.986 136.672C99.8608 135.551 98.5618 134.619 97.1394 133.911H97.1238C96.6718 133.683 96.2166 133.478 95.7583 133.287L95.6305 133.238L95.1255 133.038L94.7482 132.901C94.6703 132.873 94.5924 132.842 94.5113 132.817C94.3409 132.754 94.1695 132.695 93.9969 132.639H93.947C93.1365 132.368 92.3259 132.128 91.5247 131.894C88.5942 131.037 85.8227 130.223 83.6031 128.007C81.3834 125.791 80.5728 123.02 79.7124 120.084C79.4786 119.28 79.2354 118.46 78.9642 117.643C78.905 117.463 78.8426 117.279 78.7771 117.098C78.7522 117.029 78.7304 116.964 78.7054 116.898L78.5558 116.49C78.4965 116.334 78.4342 116.178 78.3749 116.029C78.35 115.973 78.3313 115.917 78.3064 115.86C78.1193 115.405 77.9136 114.95 77.6829 114.501V114.48C76.9733 113.059 76.0408 111.762 74.9207 110.636C72.0463 107.763 68.6857 106.784 65.4559 105.833C62.5223 104.976 59.7508 104.163 57.5311 101.943C55.3114 99.724 54.5008 96.9561 53.6404 94.02C52.7051 90.7814 51.7106 87.4307 48.8394 84.56C45.9681 81.6893 42.6043 80.7074 39.3776 79.7568C36.444 78.8996 33.6726 78.0892 31.4529 75.8668C29.2332 73.6444 28.4195 70.8797 27.5591 67.9435C26.6238 64.705 25.6294 61.3543 22.7581 58.4835C19.8869 55.6128 16.523 54.631 13.2964 53.6834C10.3628 52.8231 7.59129 52.0127 5.3716 49.7903C3.15191 47.5679 2.33824 44.8032 1.48092 41.867C1.07419 40.3859 0.583967 38.929 0.0125732 37.5033V41.3122L0.283759 42.2286C1.18785 45.3175 2.04205 48.2381 4.48931 50.6818C6.93658 53.1255 9.85463 53.9827 12.9441 54.8866C16.0336 55.7905 19.229 56.7287 21.8758 59.375C24.5226 62.0213 25.4578 65.2162 26.365 68.3051C27.2722 71.394 28.1233 74.3146 30.5706 76.7583C33.0179 79.202 35.9047 80.0061 39.0223 80.91C42.1398 81.814 45.3072 82.7522 47.954 85.3985C50.6008 88.0448 51.5361 91.2396 52.4402 94.3285C53.3443 97.4174 54.2016 100.338 56.6488 102.782C59.0961 105.225 62.011 106.083 65.1036 106.987C68.1962 107.89 71.3886 108.829 74.0354 111.475C75.11 112.559 75.9961 113.815 76.6572 115.19C76.6688 115.212 76.6793 115.233 76.6884 115.256C77.4445 116.917 78.0578 118.64 78.5215 120.405C79.4287 123.494 80.2829 126.411 82.727 128.858C85.1712 131.305 88.0923 132.159 91.1818 133.063C92.9423 133.529 94.6608 134.141 96.3195 134.893L96.4006 134.93C97.7754 135.591 99.0303 136.477 100.114 137.551C102.76 140.198 103.696 143.393 104.603 146.481C105.51 149.57 106.361 152.491 108.808 154.935C111.256 157.378 114.174 158.236 117.263 159.139C120.353 160.043 123.548 160.982 126.195 163.628C128.842 166.274 129.777 169.469 130.681 172.558C131.585 175.647 132.442 178.564 134.89 181.011C137.337 183.458 140.255 184.312 143.344 185.216C146.434 186.12 149.629 187.058 152.276 189.704C154.923 192.351 155.858 195.542 156.762 198.634C157.666 201.726 158.524 204.644 160.971 207.088C163.418 209.531 166.333 210.388 169.426 211.292C172.518 212.196 175.711 213.131 178.357 215.781C179.019 216.444 179.607 217.175 180.113 217.963H181.575C180.935 216.844 180.15 215.814 179.24 214.902C176.356 212.028 173.008 211.049 169.766 210.099Z" fill="#766DFA"/>
<path d="M65.5713 209.971C62.6376 209.11 59.8662 208.3 57.6465 206.081C55.4268 203.861 54.6163 201.094 53.7558 198.154C52.8206 194.916 51.8261 191.568 48.9548 188.694C47.8276 187.575 46.5289 186.643 45.1078 185.933H45.0922C44.6401 185.702 44.185 185.496 43.7267 185.309L43.5957 185.259L43.0939 185.06L42.7135 184.923L42.4797 184.839L41.9653 184.661L41.9185 184.645C41.1049 184.377 40.2943 184.137 39.4931 183.9C36.5595 183.043 33.7911 182.233 31.5715 180.014C29.3518 177.794 28.5412 175.026 27.6808 172.093C27.447 171.286 27.2037 170.47 26.9325 169.653C26.8733 169.472 26.8109 169.291 26.7486 169.111L26.6737 168.905C26.627 168.771 26.5771 168.637 26.5272 168.503C26.4773 168.369 26.4057 168.191 26.3402 168.029L26.2779 167.87C26.0908 167.415 25.882 166.96 25.6544 166.511V166.492C24.9463 165.07 24.0136 163.771 22.8922 162.646C20.021 159.775 16.6571 158.793 13.4304 157.846C10.4968 156.986 7.72538 156.175 5.50569 153.956C3.28601 151.737 2.47545 148.969 1.61501 146.029C1.18467 144.438 0.651452 142.876 0.0187988 141.354V145.035C0.15597 145.484 0.286916 145.933 0.417853 146.379C1.32506 149.471 2.17926 152.388 4.62341 154.832C7.06756 157.275 9.98873 158.133 13.0813 159.04C16.1739 159.947 19.3631 160.879 22.0099 163.525C23.0857 164.609 23.9729 165.864 24.6349 167.24L24.6661 167.306C25.4204 168.968 26.0336 170.69 26.4992 172.455C27.4033 175.544 28.2606 178.465 30.7048 180.908C33.152 183.352 36.07 184.206 39.1626 185.113C40.9235 185.576 42.6421 186.187 44.3003 186.94L44.3814 186.98C45.7556 187.641 47.0104 188.526 48.0944 189.598C50.7412 192.245 51.6764 195.439 52.5805 198.528C53.4846 201.617 54.3419 204.538 56.7861 206.985C59.2302 209.431 62.1514 210.282 65.244 211.189C68.3366 212.096 71.5258 213.028 74.1757 215.675C74.8714 216.373 75.4862 217.148 76.0088 217.984H77.4678C76.8139 216.815 76.002 215.741 75.0549 214.793C72.1618 211.9 68.8104 210.918 65.5713 209.971Z" fill="#766DFA"/>
<path d="M43.3494 208.562C42.4141 205.323 41.4197 201.973 38.5484 199.102C37.422 197.981 36.1232 197.047 34.7013 196.337H34.6827C34.2338 196.106 33.7754 195.901 33.3172 195.714L33.1925 195.667L32.6843 195.464L32.3071 195.327L32.0733 195.243L31.562 195.068L31.5059 195.05C30.6953 194.779 29.8847 194.542 29.0866 194.308C26.153 193.448 23.3816 192.637 21.1619 190.418C18.9422 188.199 18.1348 185.431 17.2743 182.498C17.0374 181.691 16.7974 180.871 16.523 180.051C16.4607 179.867 16.3983 179.683 16.3328 179.499L16.2643 179.303C16.2144 179.166 16.1645 179.029 16.1115 178.891C16.0585 178.754 15.9961 178.58 15.9338 178.436C15.912 178.38 15.887 178.321 15.8652 178.262C15.6782 177.807 15.4693 177.352 15.2417 176.903V176.884C14.5337 175.462 13.601 174.163 12.4796 173.038C9.60835 170.167 6.2445 169.185 3.01785 168.238C1.98906 167.926 0.982127 167.639 0.0125732 167.287V168.612C0.879248 168.908 1.76456 169.17 2.66864 169.435C5.75812 170.339 8.95052 171.274 11.5973 173.92C12.6731 175.004 13.5602 176.259 14.2223 177.635L14.2566 177.707C15.009 179.367 15.6211 181.088 16.0865 182.85C16.9906 185.939 17.8448 188.86 20.2921 191.303C22.7394 193.747 25.6574 194.601 28.75 195.508C30.5124 195.971 32.2322 196.583 33.8908 197.338L33.9656 197.372C35.341 198.034 36.5967 198.92 37.6817 199.993C40.3285 202.643 41.2638 205.834 42.1679 208.923C43.072 212.012 43.9293 214.933 46.3735 217.38C46.5854 217.592 46.8036 217.785 47.0218 217.975H49.1075C48.4385 217.551 47.8175 217.056 47.2557 216.498C45.0204 214.266 44.2098 211.495 43.3494 208.562Z" fill="#766DFA"/>
<path d="M28.139 209.506C27.0144 208.385 25.7164 207.451 24.2951 206.742H24.2764C23.8243 206.511 23.3692 206.305 22.9109 206.118L22.7924 206.071L22.2781 205.869L21.9071 205.735L21.6639 205.648L21.1588 205.473L21.0965 205.454C20.2859 205.183 19.4785 204.946 18.6804 204.712C15.7468 203.852 12.9753 203.042 10.7557 200.822C8.53597 198.603 7.72853 195.835 6.86809 192.896C6.57816 191.911 6.282 190.904 5.93283 189.904L5.86418 189.707C5.8143 189.57 5.76442 189.433 5.71142 189.296C5.65843 189.159 5.59301 188.984 5.53066 188.838L5.4652 188.666C5.27503 188.208 5.06927 187.756 4.84169 187.307V187.289C4.13366 185.866 3.20095 184.568 2.07952 183.442C1.44744 182.811 0.757488 182.24 0.0187988 181.737V183.296C0.431531 183.62 0.825019 183.967 1.19724 184.337C2.27187 185.421 3.15805 186.677 3.81913 188.052L3.8565 188.124C4.60065 189.78 5.20548 191.495 5.66469 193.251C6.56878 196.343 7.4261 199.261 9.87024 201.708C12.3175 204.151 15.2356 205.005 18.3282 205.912C20.089 206.376 21.8077 206.987 23.4659 207.739L23.5438 207.776C24.9191 208.438 26.1749 209.324 27.2599 210.398C29.5201 212.661 30.5333 215.319 31.3439 217.975H32.647C31.771 215.042 30.7172 212.081 28.139 209.506Z" fill="#766DFA"/>
<path d="M85.4424 204.367C82.5681 201.496 79.2074 200.514 75.9776 199.566C73.044 198.706 70.2726 197.896 68.0529 195.676C65.8332 193.457 65.0226 190.689 64.1621 187.753C63.2269 184.511 62.2324 181.164 59.3611 178.29C58.2339 177.171 56.9352 176.239 55.5141 175.528H55.4985C55.0465 175.298 54.5882 175.092 54.1299 174.905L54.0177 174.861C53.8462 174.79 53.6716 174.721 53.497 174.656L53.1292 174.522L52.8829 174.431L52.3779 174.26L52.3155 174.238C51.508 173.97 50.6975 173.73 49.8994 173.496C46.9658 172.639 44.1974 171.829 41.9746 169.609C39.7518 167.39 38.9475 164.622 38.0871 161.683C37.7971 160.695 37.501 159.691 37.1518 158.687C37.13 158.625 37.1082 158.56 37.0832 158.497C37.0334 158.357 36.9835 158.22 36.9305 158.083C36.8775 157.946 36.812 157.771 36.7528 157.625L36.6842 157.453C36.494 156.995 36.2883 156.543 36.0607 156.091C35.3526 154.669 34.4199 153.37 33.2985 152.245C30.4272 149.374 27.0635 148.392 23.8368 147.445C20.9032 146.584 18.1318 145.774 15.9121 143.552C13.6924 141.329 12.8818 138.564 12.0213 135.628C11.0861 132.39 10.0916 129.042 7.21722 126.168C5.01312 123.961 2.52218 122.874 0.0187988 122.057V123.372C2.24472 124.13 4.43324 125.146 6.33805 127.05C8.98484 129.697 9.92014 132.892 10.8242 135.98C11.7283 139.069 12.5856 141.99 15.0298 144.434C17.4739 146.877 20.395 147.734 23.4876 148.642C26.5802 149.549 29.7695 150.481 32.4194 153.127C33.4931 154.212 34.3791 155.467 35.0412 156.842L35.0724 156.908C35.8268 158.57 36.4399 160.292 36.9055 162.057C37.8096 165.146 38.6669 168.066 41.1111 170.51C43.5583 172.954 46.4795 173.808 49.569 174.715C51.3298 175.178 53.0485 175.789 54.7067 176.541L54.7877 176.579C56.1621 177.241 57.4168 178.127 58.5007 179.2C61.1475 181.846 62.0828 185.041 62.9869 188.13C63.891 191.219 64.7483 194.14 67.1924 196.583C69.6366 199.027 72.5577 199.884 75.6503 200.791C78.7429 201.698 81.9352 202.63 84.582 205.277C87.2288 207.923 88.1641 211.118 89.0682 214.207C89.4485 215.507 89.8226 216.775 90.3152 217.991H91.6682C91.1184 216.642 90.6519 215.261 90.2715 213.855C89.2957 210.588 88.3137 207.24 85.4424 204.367Z" fill="#766DFA"/>
<path d="M204.91 0C205.546 1.48569 206.456 2.83895 207.591 3.9897C210.035 6.4334 212.956 7.28745 216.045 8.19448C216.688 8.3815 217.333 8.57163 217.978 8.77735V7.4807C217.445 7.3155 216.915 7.169 216.392 7.0038C213.458 6.14664 210.69 5.33623 208.47 3.11696C207.573 2.20781 206.835 1.15409 206.288 0H204.91Z" fill="#766DFA"/>
<path d="M92.9896 14.2787C95.4368 16.7224 98.3548 17.5796 101.447 18.4835C104.54 19.3874 107.729 20.3225 110.376 22.9688C113.023 25.6151 113.961 28.81 114.865 31.902C115.769 34.994 116.627 37.9084 119.071 40.3552C121.515 42.802 124.442 43.6529 127.529 44.5724C130.615 45.4919 133.811 46.4114 136.457 49.0577C137.532 50.1417 138.418 51.3974 139.079 52.7731C139.092 52.7961 139.104 52.8201 139.114 52.8448C139.868 54.5045 140.481 56.2249 140.947 57.9878C141.851 61.0798 142.705 63.9973 145.152 66.4441C147.599 68.8878 150.517 69.745 153.61 70.6489C155.371 71.112 157.09 71.7241 158.748 72.4785C158.775 72.4891 158.801 72.5016 158.826 72.516C160.201 73.1762 161.456 74.0622 162.539 75.1373C165.189 77.7836 166.124 80.9754 167.028 84.0643C167.932 87.1532 168.789 90.0738 171.234 92.5206C173.678 94.9674 176.599 95.8214 179.688 96.7253C182.778 97.6293 185.973 98.5644 188.62 101.211C191.267 103.857 192.205 107.052 193.109 110.141C194.013 113.23 194.871 116.15 197.315 118.597C199.759 121.044 202.693 121.873 205.776 122.808C208.859 123.743 212.058 124.647 214.704 127.293C216.154 128.781 217.272 130.56 217.984 132.511V129.578C217.333 128.418 216.527 127.352 215.587 126.411C212.715 123.541 209.352 122.559 206.125 121.611C203.191 120.751 200.42 119.94 198.2 117.721C195.981 115.502 195.167 112.734 194.31 109.798C193.359 106.559 192.38 103.209 189.505 100.338C186.631 97.4672 183.27 96.4822 180.044 95.5347C177.11 94.6744 174.339 93.864 172.119 91.6447C169.899 89.4254 169.085 86.6576 168.228 83.7214C167.293 80.4829 166.298 77.1322 163.424 74.2614C162.3 73.1396 161.002 72.207 159.58 71.4998H159.561C159.108 71.2733 158.653 71.0655 158.196 70.8764L158.077 70.8328C157.907 70.7601 157.736 70.6915 157.563 70.6271L157.192 70.493L156.949 70.4058L156.441 70.2312L156.382 70.2125C155.571 69.9413 154.764 69.7044 153.965 69.4707C151.032 68.6104 148.26 67.8 146.041 65.5807C143.821 63.3614 143.01 60.5936 142.15 57.6543C141.863 56.6693 141.567 55.6626 141.215 54.662L141.146 54.4656C141.096 54.3285 141.046 54.1913 140.993 54.0542C140.94 53.9171 140.875 53.7425 140.813 53.5929L140.747 53.4246C140.557 52.9695 140.351 52.5144 140.124 52.0656V52.0469C139.416 50.6247 138.483 49.326 137.361 48.2006C134.49 45.3298 131.126 44.348 127.9 43.4004C124.966 42.5402 122.195 41.7298 119.975 39.5105C117.755 37.2912 116.942 34.5234 116.084 31.5872C115.149 28.3487 114.155 24.9979 111.28 22.1272C108.406 19.2565 105.045 18.2715 101.818 17.324C98.8848 16.4637 96.1133 15.6533 93.8936 13.434C91.674 11.2147 90.8603 8.44688 90.003 5.51071C89.5108 3.63644 88.8546 1.80909 88.042 0.0498047H86.6298C87.6492 1.91998 88.2353 3.91171 88.812 5.85981C89.6881 8.91443 90.5454 11.8444 92.9896 14.2787Z" fill="#766DFA"/>
<path d="M73.8888 7.29989C76.5356 9.94619 77.474 13.1379 78.378 16.2268C79.2821 19.3158 80.1394 22.2363 82.5836 24.6832C85.0277 27.13 87.9489 27.984 91.0415 28.8879C91.8115 29.1155 92.6003 29.343 93.3672 29.5986C95.6929 30.3685 97.9842 31.3909 99.9701 33.3764C102.121 35.5239 103.144 38.0362 103.936 40.5454C104.12 41.1282 104.288 41.7111 104.459 42.2908C105.363 45.3797 106.221 48.2972 108.665 50.744C111.109 53.1908 114.027 54.0418 117.12 54.9488C120.212 55.8558 123.405 56.7878 126.051 59.4341C127.126 60.5188 128.013 61.7743 128.676 63.1495C128.685 63.1729 128.696 63.1958 128.708 63.2181C129.462 64.8788 130.076 66.6003 130.541 68.3642C131.445 71.4562 132.299 74.3737 134.746 76.8205C137.194 79.2642 140.111 80.1214 143.204 81.0253C144.964 81.4892 146.681 82.1002 148.339 82.8518L148.423 82.8923C149.797 83.5534 151.051 84.4394 152.133 85.5137C154.78 88.16 155.718 91.3518 156.622 94.4438C157.526 97.5358 158.383 100.453 160.828 102.897C163.272 105.341 166.193 106.198 169.282 107.102C172.372 108.006 175.567 108.941 178.214 111.59C180.861 114.24 181.799 117.428 182.703 120.517C183.607 123.606 184.462 126.527 186.909 128.973C189.356 131.42 192.274 132.271 195.364 133.178C198.453 134.085 201.649 135.017 204.295 137.663C206.942 140.31 207.877 143.505 208.785 146.594C209.692 149.682 210.543 152.603 212.99 155.05C214.409 156.429 216.111 157.484 217.978 158.142V156.799C216.445 156.208 215.047 155.313 213.869 154.168C211.65 151.949 210.836 149.181 209.976 146.244C209.04 143.003 208.046 139.655 205.174 136.785C202.303 133.914 198.939 132.929 195.713 131.981C192.779 131.121 190.008 130.311 187.788 128.091C185.568 125.872 184.755 123.104 183.897 120.168C182.946 116.93 181.964 113.579 179.093 110.708C176.222 107.837 172.858 106.852 169.631 105.905C166.698 105.048 163.926 104.234 161.707 102.015C159.487 99.7956 158.673 97.0277 157.816 94.0916C156.865 90.853 155.886 87.5023 153.012 84.6316C151.887 83.5097 150.588 82.5771 149.165 81.87C148.713 81.6424 148.254 81.4336 147.796 81.2466L147.675 81.1967C147.506 81.1281 147.335 81.0596 147.163 80.9972C146.992 80.9349 146.914 80.9037 146.789 80.8601L146.549 80.7728L146.038 80.5983L145.988 80.5796C145.174 80.3115 144.364 80.0715 143.563 79.8377C140.632 78.9774 137.864 78.167 135.644 75.9509C133.424 73.7347 132.611 70.9637 131.753 68.0276C131.516 67.2234 131.276 66.4067 131.002 65.587C130.943 65.4062 130.88 65.2254 130.818 65.0446L130.743 64.8389C130.693 64.7049 130.647 64.5709 130.594 64.4368C130.541 64.3028 130.472 64.1251 130.41 63.9662L130.347 63.8072C130.157 63.349 129.951 62.8971 129.724 62.4451V62.4264C129.015 61.0054 128.083 59.7078 126.962 58.5832C124.091 55.7094 120.727 54.7275 117.497 53.7799C114.563 52.9197 111.795 52.1093 109.575 49.89C107.356 47.6707 106.542 44.9029 105.685 41.9667C105.448 41.1563 105.208 40.3396 104.936 39.5261C104.126 37.0824 103.035 34.6605 100.884 32.5067C98.9101 30.5306 96.7092 29.449 94.4739 28.6604C93.4576 28.2988 92.435 27.9996 91.4218 27.7035C88.4882 26.8463 85.7167 26.0328 83.497 23.8135C81.2773 21.5943 80.4637 18.8264 79.6063 15.8902C78.6711 12.6517 77.6766 9.30097 74.8022 6.43026C71.9279 3.55954 68.5671 2.57769 65.3405 1.62702C63.7698 1.2121 62.2334 0.676461 60.7452 0.0249023H58.2263C60.2839 1.44312 62.5909 2.1195 64.9882 2.83016C68.0465 3.71538 71.242 4.65048 73.8888 7.29989Z" fill="#766DFA"/>
<path d="M111.854 8.07911C114.943 8.98303 118.136 9.91811 120.783 12.5644C123.429 15.2107 124.368 18.4056 125.272 21.4945C126.176 24.5834 127.033 27.504 129.477 29.9508C131.922 32.3976 134.843 33.2485 137.935 34.1556C141.028 35.0626 144.217 35.9946 146.864 38.6409C147.939 39.7255 148.826 40.9811 149.489 42.3563L149.52 42.4249C150.274 44.0858 150.888 45.8072 151.353 47.571C152.257 50.663 153.111 53.5805 155.559 56.0273C158.006 58.471 160.924 59.3281 164.017 60.232C165.779 60.6951 167.499 61.3072 169.157 62.0617L169.232 62.096C170.608 62.7579 171.864 63.6449 172.948 64.7205C175.595 67.3668 176.53 70.5585 177.434 73.6474C178.339 76.7363 179.196 79.6569 181.64 82.1037C184.084 84.5505 187.005 85.4015 190.098 86.3085C193.191 87.2155 196.38 88.1475 199.027 90.7938C201.673 93.4401 202.612 96.635 203.516 99.7239C204.42 102.813 205.277 105.733 207.721 108.18C210.165 110.627 213.087 111.478 216.179 112.385C216.778 112.56 217.379 112.737 217.981 112.927V111.621C217.495 111.472 217.011 111.327 216.528 111.188C213.595 110.328 210.823 109.517 208.604 107.298C206.384 105.079 205.57 102.311 204.713 99.3748C203.778 96.1332 202.783 92.7855 199.909 89.9148C197.034 87.0441 193.674 86.0591 190.447 85.1116C187.513 84.2513 184.742 83.4409 182.522 81.2216C180.303 79.0024 179.492 76.2345 178.632 73.2983C177.696 70.0598 176.702 66.7091 173.827 63.8384C172.704 62.7165 171.406 61.7839 169.984 61.0767H169.965C169.512 60.8502 169.057 60.6424 168.599 60.4533L168.475 60.4066L167.967 60.204L167.589 60.0668L167.355 59.9827L166.844 59.8081L166.788 59.7894C165.978 59.5214 165.167 59.2814 164.369 59.0476C161.435 58.1873 158.667 57.3769 156.444 55.1576C154.221 52.9384 153.417 50.1705 152.557 47.2374C152.32 46.4301 152.08 45.6104 151.805 44.7906C151.743 44.6067 151.68 44.4228 151.615 44.2389C151.593 44.1735 151.568 44.108 151.543 44.0394C151.497 43.9054 151.447 43.7683 151.394 43.6311C151.341 43.494 151.275 43.3194 151.213 43.1729L151.147 43.0015C150.957 42.5464 150.751 42.0913 150.524 41.6425V41.6238C149.816 40.2016 148.883 38.9029 147.762 37.7775C144.891 34.9068 141.527 33.9249 138.3 32.9774C135.366 32.1171 132.595 31.3067 130.375 29.0874C128.156 26.8681 127.342 24.1003 126.485 21.1641C125.534 17.9225 124.555 14.5748 121.68 11.701C118.806 8.82717 115.445 7.84846 112.219 6.9009C109.285 6.04062 106.514 5.23021 104.294 3.01094C103.432 2.13868 102.717 1.13233 102.177 0.0311279H100.79C101.42 1.46823 102.308 2.7773 103.412 3.89303C105.843 6.31803 108.761 7.16896 111.854 8.07911Z" fill="#766DFA"/>
<path d="M31.4838 10.9623C32.3879 14.0512 33.2452 16.9718 35.6894 19.4155C38.1335 21.8591 41.0546 22.7163 44.1441 23.6202C47.2336 24.5242 50.4291 25.4624 53.0759 28.1087C55.7227 30.7549 56.6579 33.9467 57.5651 37.0356C58.4723 40.1245 59.3234 43.0451 61.78 45.5075C64.2367 47.9699 67.1454 48.8084 70.2348 49.7123C73.3243 50.6162 76.5198 51.5513 79.1666 54.2007C81.8133 56.8501 82.7486 60.0388 83.6558 63.1308C84.563 66.2228 85.4141 69.1403 87.8613 71.584C90.3086 74.0277 93.2266 74.8848 96.3161 75.7888C99.4056 76.6927 102.601 77.6277 105.248 80.2772C106.324 81.36 107.21 82.6159 107.87 83.9926C107.87 84.0144 107.892 84.0362 107.904 84.0549C108.658 85.7169 109.272 87.4394 109.737 89.2041C110.641 92.2962 111.495 95.2136 113.943 97.6604C116.387 100.107 119.308 100.961 122.401 101.865C124.162 102.331 125.882 102.943 127.541 103.695L127.616 103.732C128.992 104.393 130.247 105.279 131.329 106.354C133.976 109 134.911 112.192 135.818 115.284C136.726 118.376 137.577 121.293 140.024 123.737C142.471 126.181 145.389 127.038 148.479 127.942C151.568 128.846 154.764 129.781 157.41 132.43C160.057 135.08 160.993 138.268 161.9 141.357C162.807 144.446 163.658 147.367 166.105 149.813C168.553 152.26 171.471 153.114 174.56 154.018C177.65 154.922 180.845 155.857 183.492 158.507C186.139 161.156 187.074 164.345 187.978 167.434C188.882 170.522 189.739 173.443 192.187 175.89C194.634 178.337 197.552 179.188 200.641 180.095C203.731 181.002 206.926 181.934 209.573 184.58C212.22 187.226 213.155 190.421 214.059 193.51C214.929 196.48 215.758 199.289 217.99 201.673V199.71C216.609 197.765 215.949 195.514 215.256 193.164C214.321 189.925 213.327 186.578 210.455 183.707C207.584 180.836 204.22 179.851 200.991 178.904C198.057 178.044 195.289 177.233 193.069 175.014C190.849 172.795 190.035 170.027 189.175 167.091C188.24 163.852 187.245 160.501 184.374 157.631C181.503 154.76 178.139 153.778 174.912 152.827C171.979 151.97 169.207 151.157 166.988 148.938C164.768 146.718 163.954 143.95 163.097 141.014C162.162 137.776 161.164 134.425 158.293 131.554C155.422 128.684 152.058 127.702 148.831 126.751C145.897 125.894 143.126 125.08 140.906 122.861C138.687 120.642 137.873 117.874 137.016 114.938C136.08 111.699 135.083 108.348 132.211 105.478C131.086 104.357 129.787 103.424 128.364 102.716H128.346C127.895 102.488 127.439 102.28 126.98 102.093L126.856 102.043C126.684 101.974 126.516 101.906 126.347 101.843L125.973 101.706L125.733 101.619L125.222 101.444L125.169 101.426C124.358 101.158 123.548 100.918 122.747 100.684C119.816 99.8267 117.045 99.0132 114.825 96.797C112.605 94.5809 111.795 91.8099 110.934 88.8706C110.7 88.0664 110.46 87.2529 110.189 86.4394V86.4145C110.13 86.2368 110.071 86.0591 110.008 85.8815C109.983 85.8098 109.955 85.7381 109.93 85.6695C109.884 85.5355 109.834 85.4046 109.784 85.2705C109.734 85.1365 109.662 84.9588 109.6 84.7999L109.534 84.6409C109.347 84.1817 109.14 83.7287 108.911 83.2819V83.2601C108.201 81.8398 107.269 80.5423 106.149 79.4169C103.274 76.543 99.9137 75.5612 96.684 74.6137C93.7504 73.7534 90.982 72.943 88.7623 70.7237C86.5427 68.5044 85.729 65.7366 84.8685 62.8004C83.9333 59.5619 82.9387 56.2111 80.0675 53.3404C77.1962 50.4697 73.8325 49.4879 70.6058 48.5372C67.6722 47.68 64.9007 46.8665 62.681 44.6472C60.4613 42.428 59.6476 39.6601 58.7903 36.7239C57.8395 33.4854 56.8575 30.1347 53.9862 27.2639C51.115 24.3932 47.7511 23.4114 44.5244 22.4607C41.5908 21.6036 38.8194 20.79 36.5997 18.5708C34.38 16.3515 33.5663 13.5836 32.709 10.6474C31.7738 7.40893 30.7762 4.05821 27.9049 1.18749C27.4995 0.782201 27.0695 0.402254 26.6173 0.0498047H24.4351C25.3838 0.611688 26.2583 1.29024 27.0382 2.0696C29.6414 4.67537 30.5798 7.87024 31.4838 10.9623Z" fill="#766DFA"/>
<path d="M46.096 9.01115C48.5402 11.4548 51.4613 12.312 54.5508 13.2159C57.6403 14.1199 60.8357 15.0549 63.4825 17.7043C66.1293 20.3538 67.0677 23.5424 67.9718 26.6313C68.8759 29.7202 69.7301 32.6408 72.1774 35.0876C74.6246 37.5344 77.5426 38.3885 80.6321 39.2924C83.7216 40.1963 86.9171 41.1314 89.5639 43.7808C92.2107 46.4302 93.1459 49.6189 94.0531 52.7078C94.9603 55.7967 95.8114 58.7173 98.2587 61.1641C100.706 63.6109 103.624 64.4618 106.713 65.3689C109.803 66.2759 112.998 67.2079 115.645 69.8542C116.72 70.9381 117.606 72.1939 118.267 73.5696L118.301 73.6381C119.056 75.2991 119.669 77.0205 120.134 78.7842C121.038 81.8763 121.893 84.7937 124.34 87.2406C126.784 89.6874 129.705 90.5414 132.798 91.4453C134.559 91.9112 136.279 92.5232 137.939 93.275L138.014 93.3124C139.389 93.9726 140.644 94.8587 141.726 95.9338C144.373 98.58 145.312 101.775 146.216 104.861C147.12 107.946 147.974 110.87 150.421 113.317C152.869 115.764 155.787 116.618 158.876 117.522C161.966 118.426 165.161 119.361 167.808 122.01C170.455 124.66 171.39 127.848 172.297 130.937C173.204 134.026 174.055 136.947 176.503 139.393C178.95 141.84 181.868 142.694 184.957 143.598C188.047 144.502 191.242 145.437 193.889 148.084C196.536 150.73 197.471 153.925 198.378 157.014C199.286 160.103 200.137 163.023 202.584 165.47C205.031 167.917 207.946 168.768 211.039 169.675C213.389 170.364 215.796 171.071 217.981 172.533V171.052C215.855 169.787 213.598 169.123 211.388 168.478C208.454 167.618 205.686 166.807 203.466 164.588C201.246 162.369 200.433 159.601 199.572 156.665C198.637 153.426 197.643 150.075 194.771 147.205C191.9 144.334 188.536 143.352 185.31 142.401C182.376 141.541 179.605 140.731 177.385 138.511C175.165 136.292 174.352 133.524 173.494 130.588C172.559 127.35 171.561 123.999 168.69 121.128C165.819 118.257 162.455 117.272 159.228 116.325C156.295 115.468 153.523 114.654 151.304 112.435C149.084 110.216 148.27 107.448 147.413 104.512C146.462 101.273 145.483 97.9224 142.609 95.0517C141.484 93.9298 140.185 92.9972 138.762 92.29H138.743C138.292 92.0635 137.837 91.8557 137.378 91.6666L137.25 91.6168C137.081 91.5482 136.913 91.4796 136.745 91.4173C136.576 91.3549 136.492 91.3238 136.367 91.277L136.134 91.1929L135.619 91.0183L135.566 90.9996C134.756 90.7315 133.945 90.4915 133.144 90.2578C130.213 89.3975 127.442 88.5871 125.222 86.3709C123.003 84.1548 122.192 81.3838 121.335 78.4445C121.045 77.4564 120.745 76.4496 120.399 75.446L120.331 75.259C120.281 75.1187 120.231 74.9816 120.178 74.8413C120.125 74.701 120.06 74.5296 120 74.3924C119.975 74.3332 119.954 74.2709 119.929 74.2117C119.742 73.7566 119.536 73.3015 119.305 72.8527V72.834C118.597 71.413 117.664 70.1153 116.543 68.9908C113.669 66.1169 110.308 65.1351 107.078 64.1875C104.148 63.3272 101.376 62.5168 99.1565 60.2976C96.9368 58.0783 96.1231 55.3104 95.2658 52.3743C94.315 49.1358 93.3361 45.785 90.4617 42.9143C87.5873 40.0436 84.2266 39.0617 81 38.1111C78.0663 37.2539 75.2949 36.4404 73.0752 34.2211C70.8555 32.0018 70.0418 29.234 69.1845 26.2978C68.2493 23.0593 67.2548 19.7086 64.3804 16.8378C61.5061 13.9671 58.1453 12.9853 54.9187 12.0346C51.9851 11.1774 49.2136 10.3639 46.9939 8.14464C44.7742 5.92536 43.9606 3.1575 43.1032 0.221326L43.0471 0.0280762H41.7471L41.9061 0.573544C42.7946 3.64686 43.6519 6.56746 46.096 9.01115Z" fill="#766DFA"/>
<path d="M169.154 2.94249C172.244 3.84641 175.436 4.78149 178.083 7.42779C179.159 8.51153 180.046 9.76727 180.708 11.1432L180.739 11.2118C181.493 12.8727 182.107 14.5941 182.572 16.3579C183.476 19.4468 184.334 22.3674 186.778 24.8111C189.225 27.2547 192.143 28.1088 195.236 29.0158C196.998 29.4784 198.718 30.0905 200.376 30.8455L200.451 30.8798C201.827 31.5418 203.082 32.4276 204.167 33.5011C206.814 36.1474 207.749 39.3423 208.654 42.4312C209.558 45.5201 210.415 48.4407 212.859 50.8875C214.314 52.2993 216.063 53.3713 217.981 54.0263V52.686C216.398 52.0956 214.954 51.1828 213.741 50.0054C211.522 47.7862 210.711 45.0183 209.851 42.0821C208.915 38.8405 207.921 35.4929 205.05 32.619C203.922 31.4998 202.624 30.5675 201.203 29.8574H201.184C200.735 29.6299 200.277 29.4242 199.818 29.234L199.706 29.1904C199.532 29.1187 199.36 29.0501 199.186 28.9847L198.818 28.8506L198.571 28.7603L198.069 28.5888L198.004 28.567C197.193 28.2989 196.386 28.0589 195.588 27.8252C192.654 26.968 189.883 26.1576 187.663 23.9383C185.443 21.719 184.636 18.9512 183.776 16.0181C183.539 15.2108 183.299 14.3942 183.027 13.5744L182.84 13.029L182.765 12.8264C182.719 12.6923 182.669 12.5583 182.619 12.4211C182.569 12.284 182.497 12.1095 182.435 11.9567L182.37 11.7915C182.183 11.3365 181.977 10.8814 181.746 10.4325V10.4138C181.038 8.99167 180.105 7.69292 178.984 6.56751C176.113 3.69679 172.749 2.71495 169.522 1.7674C167.854 1.33053 166.227 0.750696 164.659 0.0343628H162.224C164.307 1.51803 166.673 2.21624 169.154 2.94249Z" fill="#766DFA"/>
<path d="M135.666 11.0901C136.57 14.1821 137.427 17.0996 139.871 19.5464C142.315 21.9932 145.237 22.8442 148.329 23.7512C151.422 24.6582 154.611 25.5902 157.258 28.2365C158.333 29.3202 159.221 30.576 159.883 31.9519C159.892 31.9743 159.902 31.9961 159.914 32.0173C160.668 33.6793 161.281 35.4018 161.747 37.1666C162.651 40.2555 163.505 43.1761 165.953 45.6197C168.4 48.0634 171.318 48.9175 174.41 49.8245C176.172 50.2879 177.892 50.8989 179.551 51.6511L179.629 51.6885C181.003 52.3513 182.258 53.2371 183.342 54.3098C185.989 56.9561 186.924 60.151 187.828 63.243C188.732 66.3351 189.59 69.2494 192.034 71.6962C194.478 74.143 197.399 74.994 200.492 75.901C203.584 76.808 206.774 77.74 209.424 80.3863C212.073 83.0326 213.006 86.2275 213.91 89.3164C214.795 92.3429 215.637 95.2012 217.962 97.6168V95.6906C216.491 93.7082 215.811 91.3923 215.101 88.9641C214.165 85.7256 213.171 82.378 210.296 79.5042C207.422 76.6304 204.061 75.6516 200.835 74.7041C197.901 73.8438 195.13 73.0334 192.91 70.8141C190.69 68.5948 189.88 65.827 189.019 62.8877C188.084 59.6492 187.089 56.3016 184.215 53.4308C183.09 52.3091 181.792 51.3756 180.371 50.6661C179.918 50.4375 179.462 50.2297 179.003 50.0427L178.878 49.9928C178.71 49.9274 178.541 49.8588 178.37 49.7965C178.245 49.7466 178.117 49.703 177.992 49.6562L177.752 49.5596L177.238 49.3819L177.188 49.3663C176.378 49.0983 175.564 48.8583 174.766 48.6245C171.832 47.7642 169.064 46.9538 166.844 44.7377C164.624 42.5215 163.814 39.7505 162.953 36.8143C162.717 36.0071 162.476 35.1904 162.205 34.3738C162.146 34.193 162.084 34.0122 162.021 33.8314L161.947 33.6257L161.8 33.2236C161.741 33.0647 161.675 32.9119 161.613 32.7498C161.591 32.6968 161.572 32.6439 161.551 32.594C161.364 32.1358 161.155 31.6807 160.927 31.2319V31.2132C160.219 29.791 159.286 28.4923 158.165 27.3668C155.294 24.4961 151.93 23.5143 148.703 22.5667C145.77 21.7065 142.998 20.896 140.778 18.6768C138.559 16.4575 137.748 13.6896 136.888 10.7535C135.937 7.51184 134.958 4.16423 132.084 1.2904C131.628 0.836287 131.143 0.413485 130.631 0.0249023H128.374C129.408 0.611675 130.359 1.33393 131.201 2.17249C133.839 4.80632 134.774 8.0012 135.666 11.0901Z" fill="#766DFA"/>
<path d="M193.24 2.60887L193.169 2.4125C193.119 2.27536 193.069 2.13822 193.016 2.00107C192.963 1.86393 192.901 1.68938 192.838 1.54288C192.813 1.48677 192.795 1.42755 192.77 1.37144C192.583 0.914286 192.375 0.461293 192.146 0.0124512H190.728C190.862 0.252457 190.993 0.495575 191.111 0.738698L191.142 0.804151C191.897 2.46595 192.51 4.18847 192.976 5.95337C193.88 9.04227 194.737 11.9629 197.181 14.4065C199.625 16.8502 202.543 17.7043 205.636 18.6113C207.398 19.0747 209.117 19.6857 210.777 20.4379L210.855 20.4753C212.228 21.1381 213.483 22.0239 214.568 23.0966C216.097 24.6762 217.26 26.5724 217.975 28.651V25.6058C216.539 22.9447 214.313 20.7948 211.603 19.4529H211.584C211.135 19.2254 210.68 19.0196 210.222 18.8295L210.091 18.7796L209.589 18.5802L209.208 18.443L208.975 18.3589C208.803 18.2965 208.632 18.2404 208.457 18.1812H208.414C207.6 17.9131 206.789 17.6731 205.988 17.4362C203.055 16.5791 200.286 15.7687 198.066 13.5494C195.847 11.3301 195.036 8.56226 194.176 5.62297C193.939 4.8188 193.699 4.00215 193.428 3.18551L193.24 2.60887Z" fill="#766DFA"/>
<path d="M146.085 0.685733C146.989 3.77775 147.846 6.69522 150.29 9.13892C152.734 11.5826 155.655 12.4398 158.748 13.3468C161.841 14.2538 165.03 15.1858 167.677 17.8321C168.752 18.9159 169.64 20.1716 170.302 21.5475C170.302 21.5693 170.323 21.5912 170.333 21.6161C171.088 23.2768 171.701 24.9983 172.166 26.7622C173.07 29.8511 173.927 32.7717 176.371 35.2154C178.819 37.6591 181.737 38.5131 184.829 39.4201C186.59 39.8835 188.309 40.4946 189.967 41.2467L190.048 41.2841C191.422 41.947 192.677 42.8327 193.761 43.9055C196.408 46.5518 197.343 49.7466 198.247 52.8355C199.151 55.9244 200.009 58.845 202.453 61.2919C204.897 63.7387 207.818 64.5896 210.911 65.4966C213.305 66.1979 215.762 66.9211 217.981 68.4422V66.9522C215.818 65.6369 213.514 64.9574 211.26 64.2997C208.326 63.4394 205.555 62.629 203.335 60.4097C201.115 58.1905 200.305 55.4226 199.444 52.4864C198.509 49.2448 197.515 45.8972 194.643 43.0234C193.516 41.9041 192.217 40.9719 190.796 40.2617C190.344 40.0311 189.886 39.8254 189.428 39.6383L189.287 39.5854C189.113 39.5137 188.941 39.4451 188.767 39.3796L188.399 39.2456L188.153 39.1552L187.648 38.9838L187.585 38.9651C186.775 38.6939 185.967 38.457 185.169 38.2232C182.236 37.363 179.464 36.5526 177.244 34.3333C175.025 32.114 174.217 29.3461 173.357 26.4069C173.067 25.4188 172.771 24.412 172.421 23.4083L172.356 23.2276C172.306 23.0873 172.253 22.947 172.2 22.8036C172.147 22.6603 172.085 22.5075 172.026 22.3579C172.001 22.2956 171.979 22.2364 171.954 22.1772C171.764 21.719 171.558 21.267 171.33 20.815C170.622 19.3929 169.69 18.0941 168.568 16.9687C165.697 14.098 162.333 13.1161 159.106 12.1686C156.173 11.3083 153.401 10.4979 151.182 8.27864C148.962 6.05936 148.151 3.29151 147.291 0.355336C147.26 0.246242 147.229 0.137149 147.194 0.0436401H145.894C145.954 0.236891 146.019 0.461312 146.085 0.685733Z" fill="#766DFA"/>
</g>
<path d="M119.844 115.399L137.994 115.399V98L58 98L58 178.001H74.6212L74.6212 160.621C74.6236 148.628 79.3888 137.127 87.8693 128.646C96.3498 120.166 107.851 115.401 119.844 115.399Z" fill="#4CE467"/>
<path d="M104.025 146.657V178.003H138V144.806H105.884C105.64 144.805 105.399 144.852 105.173 144.944C104.948 145.037 104.743 145.173 104.57 145.345C104.397 145.517 104.26 145.721 104.166 145.946C104.073 146.171 104.025 146.413 104.025 146.657Z" fill="#4CE467"/>
<path d="M104.03 146.655C104.03 146.164 104.225 145.693 104.572 145.346C104.92 144.999 105.39 144.804 105.881 144.804H137.997V115.398L119.847 115.398C107.854 115.401 96.3523 120.166 87.8719 128.646C79.3914 137.126 74.6261 148.627 74.6238 160.62L74.6238 178.001H104.03V146.655Z" fill="#766DFA"/>
<path d="M138 208.141V257.993H198.072C173.995 246.976 153.268 229.775 138 208.141Z" fill="#FC805F"/>
<path d="M218 230.368V178H158.255C171.423 201.916 192.567 220.449 218 230.368Z" fill="#FC805F"/>
<path d="M217.999 230.376C192.568 220.453 171.425 201.92 158.254 178.007H138V208.133C153.266 229.773 173.993 246.979 198.072 258H217.999V230.376Z" fill="#F3F1E5"/>
</svg>
