<?xml version="1.0" encoding="utf-8"?>
<!-- Generator: Adobe Illustrator 24.3.0, SVG Export Plug-In . SVG Version: 6.00 Build 0)  -->
<svg version="1.1" id="Layer_1" xmlns="http://www.w3.org/2000/svg" xmlns:xlink="http://www.w3.org/1999/xlink" x="0px" y="0px"
	 viewBox="0 0 325.07 87.2" style="enable-background:new 0 0 325.07 87.2;" xml:space="preserve">
<style type="text/css">
	.st0{fill:#FF5A43;}
	.st1{fill:#333333;}
	.st2{fill:#FFFFFF;}
</style>
<g>
	<g>
		<path class="st0" d="M79.64,87.2H7.56C3.38,87.2,0,83.82,0,79.64V7.56C0,3.38,3.38,0,7.56,0h72.08c4.17,0,7.56,3.38,7.56,7.56
			v72.08C87.2,83.82,83.82,87.2,79.64,87.2z"/>
		<g>
			<ellipse class="st1" cx="35.79" cy="25.94" rx="5.2" ry="5.46"/>
			<path class="st1" d="M45.58,33.88c0,0-0.51,0.06-1.99,0.06c-1.49,0-2.06-0.06-2.06-0.06c-0.45-0.03-0.73-0.17-0.46-0.29l2.03-0.9
				c0.22-0.1,0.69-0.1,0.92,0l2.02,0.9C46.32,33.71,46.06,33.84,45.58,33.88z"/>
			<path class="st1" d="M46.04,34.98l-2.02,2.24c-0.23,0.25-0.7,0.25-0.92,0l-2.03-2.24c-0.27-0.31,0-0.73,0.46-0.73
				c0,0,0.64,0.14,2.06,0.14c1.42,0,1.99-0.14,1.99-0.14C46.05,34.25,46.32,34.67,46.04,34.98z"/>
			<path class="st1" d="M55.9,25.94c0,3.02-2.33,5.46-5.2,5.46c-2.87,0-5.2-2.44-5.2-5.46s2.33-5.46,5.2-5.46
				C53.57,20.48,55.9,22.92,55.9,25.94z"/>
			<path class="st1" d="M60.04,56.67c0,9.59-7.37,17.37-16.45,17.37c-9.09,0-16.46-7.78-16.46-17.37c0-9.59,7.37-17.36,16.46-17.36
				C52.67,39.31,60.04,47.08,60.04,56.67z"/>
			<path class="st2" d="M60.04,56.67c0,9.59-7.37,17.37-16.45,17.37c-9.09,0-16.46-7.78-16.46-17.37c0-9.59,7.37-17.36,16.46-17.36
				C52.67,39.31,60.04,47.08,60.04,56.67z"/>
			<path class="st1" d="M73.57,53.24c-3.78-2.98-6.92-6.73-9.18-11.01c-0.25-0.46-0.48-0.92-0.7-1.39
				c-0.01-0.02-0.03-0.03-0.04-0.05c-0.04-0.07-0.08-0.14-0.12-0.21c-2.45-6.21-2.93-11.04-3.02-13.08c0.02-0.35,0.03-0.7,0.03-1.05
				c0-9.37-7.59-16.96-16.95-16.96c-9.37,0-16.96,7.59-16.96,16.96c0,0,0.23,5.96-3.15,14.38c-0.31,0.58-0.6,1.18-0.86,1.79
				c-0.01,0.01-0.01,0.01-0.01,0.01c-2.25,4.12-5.32,7.72-8.98,10.61c-0.51,0.41-0.16,1.24,0.49,1.15c2.22-0.32,4.37-0.85,6.43-1.57
				C20.6,62.59,26.11,71,34.03,74.81c-0.7,0.76-1.13,1.78-1.13,2.9c0,0,0,0,0,0.01h8.63c0-0.01,0-0.01,0-0.01
				c0-0.28-0.03-0.55-0.08-0.82c0.7,0.07,1.42,0.11,2.14,0.11c0.67,0,1.34-0.03,1.99-0.1c-0.05,0.26-0.08,0.53-0.08,0.81
				c0,0,0,0,0,0.01h8.63c0-0.01,0-0.01,0-0.01c0-1.1-0.4-2.1-1.08-2.86c7.97-3.79,13.52-12.23,13.57-22.05
				c2.07,0.73,4.24,1.27,6.47,1.59C73.74,54.48,74.09,53.65,73.57,53.24z M50.7,20.48c2.87,0,5.2,2.44,5.2,5.46s-2.33,5.46-5.2,5.46
				c-2.87,0-5.2-2.44-5.2-5.46S47.83,20.48,50.7,20.48z M43.1,32.69c0.22-0.1,0.69-0.1,0.92,0l2.02,0.9
				c0.28,0.12,0.02,0.25-0.46,0.29c0,0-0.51,0.06-1.99,0.06c-1.49,0-2.06-0.06-2.06-0.06c-0.45-0.03-0.73-0.17-0.46-0.29L43.1,32.69
				z M46.04,34.98l-2.02,2.24c-0.23,0.25-0.7,0.25-0.92,0l-2.03-2.24c-0.27-0.31,0-0.73,0.46-0.73c0,0,0.64,0.14,2.06,0.14
				c1.42,0,1.99-0.14,1.99-0.14C46.05,34.25,46.32,34.67,46.04,34.98z M35.79,20.48c2.87,0,5.2,2.44,5.2,5.46s-2.33,5.46-5.2,5.46
				c-2.87,0-5.2-2.44-5.2-5.46S32.92,20.48,35.79,20.48z M43.59,74.04c-9.09,0-16.46-7.78-16.46-17.37
				c0-9.59,7.37-17.36,16.46-17.36c9.08,0,16.45,7.77,16.45,17.36C60.04,66.26,52.67,74.04,43.59,74.04z"/>
			<path class="st2" d="M55.9,25.94c0,3.02-2.33,5.46-5.2,5.46c-2.87,0-5.2-2.44-5.2-5.46s2.33-5.46,5.2-5.46
				C53.57,20.48,55.9,22.92,55.9,25.94z"/>
			<ellipse class="st1" cx="50.7" cy="25.94" rx="2.24" ry="2.35"/>
			<ellipse class="st2" cx="35.79" cy="25.94" rx="5.2" ry="5.46"/>
			<ellipse class="st1" cx="35.79" cy="25.94" rx="2.24" ry="2.35"/>
			<path class="st2" d="M45.58,33.88c0,0-0.51,0.06-1.99,0.06c-1.49,0-2.06-0.06-2.06-0.06c-0.45-0.03-0.73-0.17-0.46-0.29l2.03-0.9
				c0.22-0.1,0.69-0.1,0.92,0l2.02,0.9C46.32,33.71,46.06,33.84,45.58,33.88z"/>
			<path class="st2" d="M46.04,34.98l-2.02,2.24c-0.23,0.25-0.7,0.25-0.92,0l-2.03-2.24c-0.27-0.31,0-0.73,0.46-0.73
				c0,0,0.64,0.14,2.06,0.14c1.42,0,1.99-0.14,1.99-0.14C46.05,34.25,46.32,34.67,46.04,34.98z"/>
		</g>
	</g>
	<g>
		<path d="M106.43,38.84c0-12.8,8.02-20.41,17.92-20.41c4.9,0,8.8,2.34,11.27,4.95l-3.71,4.47c-2.01-2.01-4.35-3.4-7.42-3.4
			c-6.36,0-10.93,5.38-10.93,14.16c0,8.92,4.21,14.33,10.77,14.33c3.47,0,6.15-1.6,8.35-4.02l3.71,4.35
			c-3.17,3.68-7.25,5.69-12.32,5.69C114.23,58.98,106.43,51.78,106.43,38.84z"/>
		<path d="M139.8,43.6c0-9.79,6.65-15.43,13.97-15.43s13.97,5.65,13.97,15.43c0,9.74-6.65,15.38-13.97,15.38S139.8,53.34,139.8,43.6
			z M160.66,43.6c0-5.89-2.58-9.81-6.89-9.81s-6.89,3.92-6.89,9.81c0,5.88,2.58,9.76,6.89,9.76S160.66,49.49,160.66,43.6z"/>
		<path d="M172.18,43.6c0-9.57,6.01-15.43,12.44-15.43c3.33,0,5.43,1.24,7.7,3.23l-0.26-4.74V16.01h6.89v42.25h-5.65l-0.53-3.18
			h-0.19c-2.18,2.18-5.19,3.9-8.35,3.9C176.92,58.98,172.18,53.29,172.18,43.6z M192.06,49.99V36.3c-2.01-1.79-4-2.44-5.98-2.44
			c-3.73,0-6.82,3.54-6.82,9.67c0,6.39,2.44,9.76,6.68,9.76C188.21,53.29,190.12,52.29,192.06,49.99z"/>
		<path d="M206.32,19.84c0-2.32,1.82-3.9,4.26-3.9s4.26,1.58,4.26,3.9c0,2.27-1.82,3.9-4.26,3.9S206.32,22.12,206.32,19.84z
			 M207.1,28.89H214v29.38h-6.89V28.89z"/>
		<path d="M222.18,28.89h5.65l0.53,3.97h0.19c2.63-2.56,5.62-4.69,9.64-4.69c6.29,0,9.04,4.26,9.04,11.68v18.42h-6.89V40.73
			c0-4.83-1.39-6.65-4.57-6.65c-2.58,0-4.28,1.27-6.7,3.66v20.53h-6.89V28.89z"/>
		<path d="M253.06,63.6c0-2.48,1.53-4.64,4.24-6.27V57.1c-1.51-0.98-2.66-2.54-2.66-4.91c0-2.27,1.56-4.28,3.25-5.48v-0.24
			c-2.01-1.48-3.88-4.28-3.88-7.75c0-6.75,5.46-10.55,11.6-10.55c1.63,0,3.16,0.29,4.35,0.72h10.5v5.12h-5.36
			c0.96,1.1,1.67,2.92,1.67,4.93c0,6.53-4.95,10.03-11.17,10.03c-1.24,0-2.66-0.26-3.97-0.78c-0.88,0.75-1.44,1.5-1.44,2.81
			c0,1.65,1.2,2.66,4.76,2.66h5.23c7.02,0,10.75,2.18,10.75,7.25c0,5.79-6.08,10.36-15.67,10.36
			C258.28,71.26,253.06,68.75,253.06,63.6z M274.31,62.02c0-2.27-1.82-2.94-5.18-2.94h-4.03c-1.58,0-2.85-0.12-3.97-0.41
			c-1.58,1.2-2.27,2.51-2.27,3.88c0,2.68,2.87,4.24,7.49,4.24C271.08,66.78,274.31,64.56,274.31,62.02z M270.72,38.72
			c0-3.68-2.22-5.79-5.1-5.79s-5.1,2.08-5.1,5.79c0,3.73,2.27,5.91,5.1,5.91S270.72,42.45,270.72,38.72z"/>
		<path d="M282.92,50.37c0-6.29,5.22-9.57,17.27-10.86c-0.1-3.16-1.36-5.79-5.33-5.79c-2.92,0-5.67,1.32-8.25,2.9l-2.54-4.59
			c3.23-2.03,7.39-3.85,12.06-3.85c7.34,0,10.96,4.52,10.96,12.7v17.39h-5.65l-0.53-3.25h-0.19c-2.63,2.25-5.65,3.97-9.12,3.97
			C286.46,58.98,282.92,55.49,282.92,50.37z M300.19,50.4v-6.6c-7.97,1-10.62,3.09-10.62,6.05c0,2.6,1.77,3.73,4.23,3.73
			C296.19,53.58,298.01,52.4,300.19,50.4z"/>
		<path d="M314.76,50.71V16.01h6.89v35.05c0,1.7,0.77,2.3,1.48,2.3c0.31,0,0.55,0,1.08-0.12l0.86,5.14c-0.84,0.34-1.99,0.6-3.64,0.6
			C316.55,58.98,314.76,55.83,314.76,50.71z"/>
	</g>
</g>
</svg>
