<svg width="236" height="110" viewBox="0 0 236 110" fill="none" xmlns="http://www.w3.org/2000/svg">
<rect x="114" y="74" width="113" height="31" rx="4" fill="white"/>
<path opacity="0.973" fill-rule="evenodd" clip-rule="evenodd" d="M50.051 12C56.3196 12.2699 62.4862 13.137 68.5506 14.6013C61.9879 15.3549 55.4104 15.9811 48.8177 16.48C30.8358 18.9052 18.0401 27.8171 10.431 43.2158C3.45502 60.7597 6.12716 76.8494 18.4475 91.4848C30.2416 103.425 44.7845 108.194 62.0758 105.792C68.3142 104.951 74.275 103.264 79.9587 100.734C80.2961 101.129 80.1931 101.467 79.6504 101.746C68.8127 109.049 56.5311 111.506 42.8053 109.116C29.1415 106.723 18.1443 100.268 9.81433 89.7505C0.593864 77.1495 -2.12971 63.4203 1.64366 48.563C2.61785 43.9526 4.51921 39.4725 7.34771 35.1228C17.3143 20.5968 31.5486 12.8892 50.051 12Z" fill="#4CE467"/>
<path opacity="0.972" fill-rule="evenodd" clip-rule="evenodd" d="M54.0593 20.382C56.8361 20.3339 59.611 20.3821 62.3841 20.5266C64.4927 20.6907 66.5484 21.0761 68.5506 21.6827C67.9371 22.1887 67.2177 22.4777 66.3924 22.5498C54.3858 22.5074 44.3652 26.6021 36.3305 34.8338C34.487 37.0837 32.9968 39.5405 31.8597 42.2042C32.5713 42.9658 33.3936 43.6401 34.3263 44.2275C37.7232 46.2522 41.2689 48.0344 44.9636 49.5746C46.3486 46.7276 47.5307 43.8855 48.5094 41.0481C51.2276 36.1365 54.6192 31.7047 58.6842 27.7524C64.9497 23.1053 71.7329 22.3346 79.0338 25.4402C83.6473 29.5455 85.857 34.6037 85.6628 40.6145C84.5528 36.9438 82.7543 33.6199 80.2671 30.6428C77.2159 28.0081 73.6186 26.7556 69.4756 26.8853C67.9849 27.4387 66.6486 28.2094 65.4674 29.1976C63.0424 31.3741 60.7299 33.6384 58.53 35.99C55.2969 40.7515 52.6761 45.8096 50.6677 51.1643C58.8266 54.1015 67.2541 55.1614 75.9505 54.3437C83.4845 53.2564 88.0579 49.2581 89.671 42.3487C90.1508 39.6552 90.2535 36.9576 89.9794 34.2557C94.5315 42.3013 93.2467 49.3827 86.1253 55.4999C79.4432 60.0525 72.0434 61.7867 63.9257 60.7025C58.6256 60.0571 53.4867 58.8527 48.5094 57.0895C47.4346 63.9836 46.7152 70.8242 46.3511 77.6111C57.3778 79.1834 68.0666 77.979 78.4171 73.9981C88.1057 69.8525 93.9127 62.8674 95.8376 53.0431C96.1098 50.1469 96.4182 47.2566 96.7626 44.372C99.9812 52.4271 99.2619 60.1348 94.6043 67.4948C89.7389 73.0882 83.8807 77.4238 77.0296 80.5014C72.624 81.811 68.1532 82.9189 63.6174 83.8253C60.8483 84.1271 58.0734 84.3679 55.2926 84.5479C52.082 84.1797 48.8957 83.9872 45.7344 83.9698C46.3499 90.3237 48.3028 96.2972 51.5926 101.89C51.49 101.986 51.387 102.083 51.2843 102.179C46.7766 97.8146 43.796 92.7565 42.3428 87.0047C42.0277 85.7269 41.6164 84.4742 41.1095 83.2473C36.8873 82.1851 32.7249 80.6916 28.6223 78.7672C28.4166 79.3453 28.4166 79.9234 28.6223 80.5014C29.3749 82.6131 29.9916 84.7326 30.4722 86.8602C27.9544 83.6346 25.8991 80.1661 24.3057 76.4549C16.4323 71.9908 11.8588 65.584 10.5851 57.2341C10.6365 56.8968 10.6879 56.5597 10.7393 56.2224C13.2604 59.7929 15.9326 63.2613 18.7558 66.6277C19.7518 67.5038 20.8309 68.2744 21.9932 68.94C21.8813 63.2394 22.2408 57.5552 23.0724 51.8869C23.7038 48.9312 24.68 45.9926 26.0015 43.0713C24.0661 41.2553 22.6275 39.1355 21.6849 36.7125C21.8924 35.8862 22.1496 35.0674 22.4557 34.2557C22.5584 34.1595 22.6614 34.063 22.7641 33.9667C23.9625 36.0064 25.5554 37.7406 27.5431 39.1693C28.9994 37.4629 30.2839 35.6321 31.3972 33.6777C37.2699 26.7108 44.8239 22.2789 54.0593 20.382ZM29.7014 46.6843C32.6638 48.6538 35.6444 50.6287 38.6429 52.6095C40.2416 53.4292 41.8344 54.248 43.422 55.0663C42.8738 58.3101 42.2059 61.5375 41.4179 64.749C41.5221 67.1951 41.3167 69.6519 40.8012 72.1194C41.1108 73.6559 41.1108 75.1976 40.8012 76.744C36.0863 75.7202 31.5643 74.1785 27.2348 72.1194C26.9727 70.223 26.7671 68.3926 26.6182 66.6277C26.5892 59.8348 27.6168 53.187 29.7014 46.6843Z" fill="#4CE467"/>
<path opacity="0.96" fill-rule="evenodd" clip-rule="evenodd" d="M100 67.4948C99.4062 73.5316 96.991 78.9267 92.7543 83.6808C86.1 91.0145 77.9805 96.0244 68.3965 98.7106C67.9318 98.4115 67.4693 98.4598 67.009 98.8552C64.7564 99.1274 62.4951 99.272 60.2258 99.2887C60.1928 98.5942 60.5011 98.0644 61.1508 97.699C69.29 95.3772 76.7928 91.9088 83.6587 87.2937C90.6574 81.8382 96.1046 75.2387 100 67.4948Z" fill="#4CE467"/>
<path d="M119.016 22.458H127.832V63H119.016V22.458ZM133.912 22.458H150.964C155.566 22.458 159.239 23.676 161.984 26.112C164.73 28.5093 166.102 31.854 166.102 36.146C166.102 40.554 164.73 43.9373 161.984 46.296C159.278 48.6547 155.604 49.834 150.964 49.834H142.728V63H133.912V22.458ZM149.688 42.468C154.676 42.468 157.17 40.3607 157.17 36.146C157.17 33.7873 156.494 32.144 155.14 31.216C153.826 30.288 152.008 29.824 149.688 29.824H142.728V42.468H149.688ZM180.87 63.87C178.395 63.87 175.94 63.638 173.504 63.174C171.068 62.71 169.076 62.0913 167.53 61.318V53.546C169.579 54.5513 171.706 55.3053 173.91 55.808C176.114 56.3107 178.221 56.562 180.232 56.562C182.474 56.562 184.176 56.1753 185.336 55.402C186.496 54.6287 187.076 53.546 187.076 52.154C187.076 51.1487 186.786 50.298 186.206 49.602C185.626 48.906 184.775 48.2873 183.654 47.746C182.571 47.166 180.889 46.412 178.608 45.484C174.818 43.9373 172.073 42.2167 170.372 40.322C168.67 38.3887 167.82 36.0107 167.82 33.188C167.82 30.9067 168.438 28.896 169.676 27.156C170.913 25.3773 172.653 24.0047 174.896 23.038C177.138 22.0713 179.729 21.588 182.668 21.588C185.065 21.588 187.192 21.7813 189.048 22.168C190.904 22.5547 192.721 23.154 194.5 23.966V31.506C191.097 29.8047 187.694 28.954 184.292 28.954C182.126 28.954 180.425 29.3407 179.188 30.114C177.95 30.8487 177.332 31.912 177.332 33.304C177.332 34.3093 177.622 35.1407 178.202 35.798C178.782 36.4553 179.594 37.0353 180.638 37.538C181.682 38.0407 183.383 38.7753 185.742 39.742C188.487 40.902 190.633 42.0233 192.18 43.106C193.726 44.15 194.867 45.4067 195.602 46.876C196.336 48.3067 196.704 50.0853 196.704 52.212C196.704 55.8853 195.37 58.7467 192.702 60.796C190.072 62.8453 186.128 63.87 180.87 63.87ZM211.796 63.87C209.321 63.87 206.866 63.638 204.43 63.174C201.994 62.71 200.002 62.0913 198.456 61.318V53.546C200.505 54.5513 202.632 55.3053 204.836 55.808C207.04 56.3107 209.147 56.562 211.158 56.562C213.4 56.562 215.102 56.1753 216.262 55.402C217.422 54.6287 218.002 53.546 218.002 52.154C218.002 51.1487 217.712 50.298 217.132 49.602C216.552 48.906 215.701 48.2873 214.58 47.746C213.497 47.166 211.815 46.412 209.534 45.484C205.744 43.9373 202.999 42.2167 201.298 40.322C199.596 38.3887 198.746 36.0107 198.746 33.188C198.746 30.9067 199.364 28.896 200.602 27.156C201.839 25.3773 203.579 24.0047 205.822 23.038C208.064 22.0713 210.655 21.588 213.594 21.588C215.991 21.588 218.118 21.7813 219.974 22.168C221.83 22.5547 223.647 23.154 225.426 23.966V31.506C222.023 29.8047 218.62 28.954 215.218 28.954C213.052 28.954 211.351 29.3407 210.114 30.114C208.876 30.8487 208.258 31.912 208.258 33.304C208.258 34.3093 208.548 35.1407 209.128 35.798C209.708 36.4553 210.52 37.0353 211.564 37.538C212.608 38.0407 214.309 38.7753 216.668 39.742C219.413 40.902 221.559 42.0233 223.106 43.106C224.652 44.15 225.793 45.4067 226.528 46.876C227.262 48.3067 227.63 50.0853 227.63 52.212C227.63 55.8853 226.296 58.7467 223.628 60.796C220.998 62.8453 217.054 63.87 211.796 63.87Z" fill="white"/>
<path d="M135.932 97.22C134.817 97.22 133.776 97.022 132.808 96.626C131.84 96.2153 130.989 95.6507 130.256 94.932C129.537 94.1987 128.973 93.3553 128.562 92.402C128.151 91.4487 127.946 90.4147 127.946 89.3C127.946 88.1853 128.151 87.1513 128.562 86.198C128.973 85.2447 129.537 84.4087 130.256 83.69C130.989 82.9567 131.84 82.392 132.808 81.996C133.776 81.5853 134.817 81.38 135.932 81.38C136.651 81.38 137.347 81.4607 138.022 81.622C138.697 81.7833 139.305 82.018 139.848 82.326C140.039 82.4287 140.178 82.568 140.266 82.744C140.354 82.9053 140.398 83.0667 140.398 83.228C140.398 83.536 140.295 83.8073 140.09 84.042C139.899 84.262 139.657 84.372 139.364 84.372C139.261 84.372 139.151 84.3573 139.034 84.328C138.931 84.2987 138.836 84.262 138.748 84.218C138.337 84.0127 137.897 83.8587 137.428 83.756C136.959 83.6387 136.46 83.58 135.932 83.58C134.876 83.58 133.923 83.8367 133.072 84.35C132.221 84.8487 131.547 85.5307 131.048 86.396C130.564 87.2613 130.322 88.2293 130.322 89.3C130.322 90.356 130.564 91.324 131.048 92.204C131.547 93.0693 132.221 93.7587 133.072 94.272C133.923 94.7707 134.876 95.02 135.932 95.02C136.445 95.02 136.988 94.9613 137.56 94.844C138.132 94.712 138.616 94.5433 139.012 94.338L138.836 94.932V90.752L139.188 91.06H136.306C135.983 91.06 135.712 90.9573 135.492 90.752C135.287 90.5467 135.184 90.2827 135.184 89.96C135.184 89.6373 135.287 89.3733 135.492 89.168C135.712 88.9627 135.983 88.86 136.306 88.86H140.112C140.42 88.86 140.677 88.97 140.882 89.19C141.102 89.3953 141.212 89.6593 141.212 89.982V94.866C141.212 95.1007 141.153 95.2987 141.036 95.46C140.919 95.6213 140.787 95.7533 140.64 95.856C139.98 96.2667 139.247 96.5967 138.44 96.846C137.648 97.0953 136.812 97.22 135.932 97.22ZM153.054 94.844C153.362 94.844 153.619 94.9467 153.824 95.152C154.044 95.3573 154.154 95.614 154.154 95.922C154.154 96.23 154.044 96.4867 153.824 96.692C153.619 96.8973 153.362 97 153.054 97H145.662C145.34 97 145.068 96.8973 144.848 96.692C144.643 96.472 144.54 96.2007 144.54 95.878V82.722C144.54 82.3993 144.65 82.1353 144.87 81.93C145.09 81.71 145.376 81.6 145.728 81.6C146.022 81.6 146.278 81.71 146.498 81.93C146.733 82.1353 146.85 82.3993 146.85 82.722V95.218L146.388 94.844H153.054ZM170.94 89.3C170.94 90.4147 170.757 91.456 170.39 92.424C170.024 93.3773 169.503 94.2133 168.828 94.932C168.168 95.6507 167.384 96.2153 166.474 96.626C165.565 97.022 164.568 97.22 163.482 97.22C162.412 97.22 161.422 97.022 160.512 96.626C159.603 96.2153 158.811 95.6507 158.136 94.932C157.476 94.2133 156.963 93.3773 156.596 92.424C156.244 91.456 156.068 90.4147 156.068 89.3C156.068 88.1853 156.244 87.1513 156.596 86.198C156.963 85.23 157.476 84.3867 158.136 83.668C158.811 82.9493 159.603 82.392 160.512 81.996C161.422 81.5853 162.412 81.38 163.482 81.38C164.568 81.38 165.565 81.5853 166.474 81.996C167.384 82.392 168.168 82.9493 168.828 83.668C169.503 84.3867 170.024 85.23 170.39 86.198C170.757 87.1513 170.94 88.1853 170.94 89.3ZM168.564 89.3C168.564 88.2147 168.344 87.2393 167.904 86.374C167.479 85.5087 166.885 84.8267 166.122 84.328C165.36 83.8293 164.48 83.58 163.482 83.58C162.5 83.58 161.627 83.8293 160.864 84.328C160.102 84.8267 159.508 85.5087 159.082 86.374C158.657 87.2247 158.444 88.2 158.444 89.3C158.444 90.3853 158.657 91.3607 159.082 92.226C159.508 93.0913 160.102 93.7733 160.864 94.272C161.627 94.7707 162.5 95.02 163.482 95.02C164.48 95.02 165.36 94.7707 166.122 94.272C166.885 93.7733 167.479 93.0913 167.904 92.226C168.344 91.3607 168.564 90.3853 168.564 89.3ZM180.835 81.6C182.184 81.6 183.203 81.93 183.893 82.59C184.597 83.25 184.949 84.2107 184.949 85.472C184.949 86.132 184.787 86.7333 184.465 87.276C184.157 87.804 183.695 88.222 183.079 88.53C182.477 88.838 181.722 88.9993 180.813 89.014L180.857 88.2C181.341 88.2 181.861 88.266 182.419 88.398C182.991 88.53 183.526 88.7573 184.025 89.08C184.523 89.4027 184.934 89.8427 185.257 90.4C185.579 90.9427 185.741 91.6247 185.741 92.446C185.741 93.3407 185.594 94.0887 185.301 94.69C185.007 95.2767 184.619 95.7387 184.135 96.076C183.651 96.4133 183.115 96.6553 182.529 96.802C181.957 96.934 181.392 97 180.835 97H175.203C174.895 97 174.631 96.8973 174.411 96.692C174.191 96.472 174.081 96.2007 174.081 95.878V82.722C174.081 82.3993 174.191 82.1353 174.411 81.93C174.631 81.71 174.895 81.6 175.203 81.6H180.835ZM180.527 83.756H176.193L176.457 83.404V88.134L176.215 87.892H180.571C181.099 87.8773 181.561 87.7013 181.957 87.364C182.367 87.012 182.573 86.4987 182.573 85.824C182.573 85.1347 182.389 84.6213 182.023 84.284C181.656 83.932 181.157 83.756 180.527 83.756ZM180.681 90.048H176.303L176.457 89.894V95.086L176.281 94.888H180.813C181.575 94.888 182.191 94.69 182.661 94.294C183.13 93.8833 183.365 93.2673 183.365 92.446C183.365 91.7567 183.225 91.2433 182.947 90.906C182.668 90.5687 182.323 90.3413 181.913 90.224C181.502 90.1067 181.091 90.048 180.681 90.048ZM194.415 84.46L189.465 96.34C189.377 96.5747 189.245 96.758 189.069 96.89C188.893 97.022 188.695 97.088 188.475 97.088C188.152 97.088 187.91 97 187.749 96.824C187.588 96.6333 187.5 96.3987 187.485 96.12C187.485 96.0173 187.507 95.9 187.551 95.768L193.139 82.26C193.242 82.0107 193.388 81.82 193.579 81.688C193.784 81.556 194.004 81.4973 194.239 81.512C194.459 81.512 194.664 81.578 194.855 81.71C195.046 81.842 195.185 82.0253 195.273 82.26L200.795 95.57C200.854 95.7167 200.883 95.8633 200.883 96.01C200.883 96.3327 200.773 96.5967 200.553 96.802C200.348 96.9927 200.113 97.088 199.849 97.088C199.629 97.088 199.424 97.022 199.233 96.89C199.057 96.7433 198.925 96.56 198.837 96.34L193.843 84.526L194.415 84.46ZM190.345 93.216L191.335 91.104H197.561L197.935 93.216H190.345ZM211.984 94.844C212.292 94.844 212.549 94.9467 212.754 95.152C212.974 95.3573 213.084 95.614 213.084 95.922C213.084 96.23 212.974 96.4867 212.754 96.692C212.549 96.8973 212.292 97 211.984 97H204.592C204.27 97 203.998 96.8973 203.778 96.692C203.573 96.472 203.47 96.2007 203.47 95.878V82.722C203.47 82.3993 203.58 82.1353 203.8 81.93C204.02 81.71 204.306 81.6 204.658 81.6C204.952 81.6 205.208 81.71 205.428 81.93C205.663 82.1353 205.78 82.3993 205.78 82.722V95.218L205.318 94.844H211.984Z" fill="#001705"/>
</svg>
