<svg xmlns="http://www.w3.org/2000/svg" width="174.545" height="60" viewBox="0 0 174.545 60">
  <g id="Group_615" data-name="Group 615" transform="translate(16440 686)" style="isolation: isolate">
    <path id="Path_1" data-name="Path 1" d="M-426.485,244.877a8.815,8.815,0,0,0,1.3.567c2.124.555,2.749,2.023,2.383,4.254,4.856-3.275,9.894-4.23,15.27-2.376,7.713,2.662,11.651,10.942,10.569,17.66-.908,5.63-3.993,9.185-8.283,11.865a14.314,14.314,0,0,1-12.81,1.186c-.931-.338-1.74-1-2.65-1.408a16.087,16.087,0,0,0-2.1-.637,13.972,13.972,0,0,0-.347,2.137c-.037,3.675-.065,7.349,0,11.023.024,1.269-.439,1.754-1.653,1.62-3.711-.032-3.711-.032-3.711-3.667q0-19.788,0-39.576v-2.087Zm13.6,8.043a9.685,9.685,0,0,0-9.885,9.747c0,5.287,4.767,10.364,9.7,10.332,5.153-.034,10.031-5.132,10.018-10.453A9.731,9.731,0,0,0-412.882,252.92Z" transform="translate(-16011.012 -917.103)" fill="#191a33"/>
    <path id="Path_2" data-name="Path 2" d="M-341.51,278.743l-6.068.444v-3.354A19.517,19.517,0,0,1-360.14,278.7c-4.652-.505-8.188-3.131-10.856-6.919-4-5.676-3.245-14.481,1.179-19.724,4.646-5.507,14.286-7.177,22.144-2.475-.654-4.048,2.845-3.947,5.008-5.206a6.428,6.428,0,0,1,.751,1.94c.091,2.459.074,4.925.033,7.387-.136,8.229-.3,16.457-.421,24.686C-342.3,278.5-341.786,278.625-341.51,278.743Zm-25.84-16.112a9.972,9.972,0,0,0,9.576,9.962,10.026,10.026,0,0,0,10.144-9.633,10.068,10.068,0,0,0-9.7-10.084A9.994,9.994,0,0,0-367.35,262.631Z" transform="translate(-16020.824 -917.013)" fill="#191a33"/>
    <path id="Path_3" data-name="Path 3" d="M-297.854,249.739q-4.189,9.8-8.382,19.6c-1.716,3.984-3.4,7.984-5.237,11.912-3.583,7.662-8.873,10.579-17.527,9.747v-6.382a17.948,17.948,0,0,1,3.122.028c3.73.659,5.74-1.651,7.623-4.236a4.558,4.558,0,0,0,.426-5.158c-3.876-8.386-7.512-16.883-11.2-25.354a17.754,17.754,0,0,1-.7-2.629,3.133,3.133,0,0,1,.6-.2c5.882-.093,5.878-.091,8.272,5.377q3.463,7.912,6.945,15.815c.16.366.364.712.608,1.186l9.1-20.64c1.89-1.671,4.144-1.158,6.361-1.175Z" transform="translate(-16028.662 -917.491)" fill="#191a33"/>
    <path id="Path_4" data-name="Path 4" d="M-253.713,255.427c3.469-6.233,8.988-8.847,15.834-8.128,6.214.652,10.357,4.114,13.163,10.021,3.891,8.191-1.2,20.813-13.416,22.293-5.629.682-12.39-2.631-15.188-7.678l-1.269-2.509.017.028q-.19-5.582-.379-11.163l0,.012.825-2.066-.006.012Zm13.944,17.715a9.631,9.631,0,0,0,9.9-9.516,9.955,9.955,0,0,0-9.777-10.17,10.2,10.2,0,0,0-9.925,9.942A9.951,9.951,0,0,0-239.768,273.142Z" transform="translate(-16042.024 -917.515)" fill="#191a33"/>
    <path id="Path_5" data-name="Path 5" d="M-265.268,250.218h-8.977c0,5-.2,9.839.078,14.649.161,2.739,3.261,5.008,6.07,5.1,1.081.036,2.164.006,3.314.006v6.236c-8.795,1.472-15.98-4.5-16.051-13.3-.034-4.151-.006-8.3-.006-12.593h-4.345v-6.244h4.3c0-3.3-.07-6.361.054-9.414a2.846,2.846,0,0,1,1.159-1.968c1.635-1.047,3.415-1.868,5.387-2.911V244a8.365,8.365,0,0,0,1.841.492c1.837.069,3.68.085,5.518.013,1.224-.048,1.744.355,1.666,1.628C-265.336,247.489-265.269,248.856-265.268,250.218Z" transform="translate(-16036.624 -914.406)" fill="#191a33"/>
    <path id="Path_6" data-name="Path 6" d="M-385.42,233.215l4.875-2.4a8.018,8.018,0,0,1,.778,2.346c.043,14.25.025,28.5.021,42.751a22.668,22.668,0,0,0-2.866.03c-1.965.259-2.523-.481-2.509-2.466.09-12.633.053-25.266.033-37.9A16.732,16.732,0,0,0-385.42,233.215Z" transform="translate(-16018.713 -914.59)" fill="#191a33"/>
    <path id="Path_7" data-name="Path 7" d="M-225.091,238.133c-2.746,2.927-5.9,3.372-8.994,1.387-.971-.622-1.876-1.345-2.816-2.015-2.621-1.868-2.967-1.755-5.585.237a17,17,0,0,1-4.87,2.746c-2.48.8-4.663-.148-6.534-2.351l14.369-10.032Z" transform="translate(-16042.215 -914.106)" fill="#e11e1a"/>
    <path id="Path_8" data-name="Path 8" d="M-426.587,244.625l-2.033.561v2.087q0,19.788,0,39.576c0,3.635,0,3.635,3.711,3.666q-.009.168-.01.335h-4.17V243.464Z" transform="translate(-16010.91 -916.85)" fill="#191a33"/>
    <path id="Path_9" data-name="Path 9" d="M-385.449,233.738a16.748,16.748,0,0,1,.332,2.359c.021,12.633.057,25.266-.033,37.9-.014,1.985.544,2.725,2.509,2.466a22.662,22.662,0,0,1,2.866-.03c.127.007.253.011.379.015l-6.185.6v-5.421q0-18.03.007-36.062C-385.575,234.954-385.492,234.346-385.449,233.738Z" transform="translate(-16018.685 -915.112)" fill="#191a33"/>
    <path id="Path_10" data-name="Path 10" d="M-378.307,275.82c-.126,0-.252-.007-.379-.015,0-14.25.022-28.5-.021-42.751a8.02,8.02,0,0,0-.778-2.346l.984-.48c.153.163.23.207.23.251Q-378.284,253.15-378.307,275.82Z" transform="translate(-16019.775 -914.485)" fill="#191a33"/>
    <path id="Path_11" data-name="Path 11" d="M-334.779,278.6c-.276-.117-.8-.239-.793-.353.116-8.229.284-16.457.421-24.686.041-2.462.058-4.928-.033-7.387a6.428,6.428,0,0,0-.751-1.94l1.332-.673v1.689q0,15.783-.006,31.565C-334.609,277.407-334.719,278-334.779,278.6Z" transform="translate(-16027.554 -916.867)" fill="#191a33"/>
    <path id="Path_12" data-name="Path 12" d="M-292.3,249.72v-2.105c-2.218.017-4.471-.5-6.361,1.175.248-1.442,1.044-1.967,2.539-1.827,1.6.15,3.224.034,5.178.034Z" transform="translate(-16034.215 -917.471)" fill="#191a33"/>
    <path id="Path_13" data-name="Path 13" d="M-424.013,297.871q0-.168.01-.335c1.214.135,1.676-.35,1.652-1.619-.068-3.674-.04-7.348,0-11.023a13.968,13.968,0,0,1,.347-2.137v15.114Z" transform="translate(-16011.817 -923.871)" fill="#191a33"/>
    <path id="Path_14" data-name="Path 14" d="M-262.9,253.31c0-1.363-.068-2.729.013-4.087.077-1.273-.443-1.676-1.666-1.628-1.837.072-3.68.056-5.518-.013a8.364,8.364,0,0,1-1.841-.492h9.789Z" transform="translate(-16038.995 -917.498)" fill="#191a33"/>
    <path id="Path_15" data-name="Path 15" d="M-255.158,260.707q.19,5.582.379,11.163A14.205,14.205,0,0,1-255.158,260.707Z" transform="translate(-16041.816 -919.931)" fill="#191a33"/>
    <path id="Path_16" data-name="Path 16" d="M-254.509,274.265l1.269,2.509Z" transform="translate(-16042.104 -922.354)" fill="#191a33"/>
    <path id="Path_17" data-name="Path 17" d="M-254.128,258.206l-.825,2.066Z" transform="translate(-16042.024 -919.484)" fill="#191a33"/>
    <path id="Path_18" data-name="Path 18" d="M-253.534,257.22l-.421.822Z" transform="translate(-16042.204 -919.308)" fill="#191a33"/>
  </g>
</svg>
