<svg width="26" height="26" viewBox="0 0 26 26" fill="none" xmlns="http://www.w3.org/2000/svg">
<path d="M11.738 3.82374C11.738 3.6827 11.6818 3.54743 11.5817 3.4477C11.4817 3.34796 11.346 3.29193 11.2044 3.29193H8.53672C7.19339 3.22523 5.87817 3.69121 4.87844 4.58804C3.87871 5.48487 3.27574 6.73966 3.20127 8.07823V10.95H0.533545C0.39204 10.95 0.256331 11.006 0.156272 11.1058C0.0562127 11.2055 0 11.3408 0 11.4818V14.2472C0 14.3883 0.0562127 14.5235 0.156272 14.6233C0.256331 14.723 0.39204 14.779 0.533545 14.779H3.20127V21.9053C3.20127 22.0463 3.25748 22.1816 3.35754 22.2813C3.4576 22.3811 3.59331 22.4371 3.73482 22.4371H6.93609C7.07759 22.4371 7.2133 22.3811 7.31336 22.2813C7.41342 22.1816 7.46963 22.0463 7.46963 21.9053V14.779H10.2654C10.3841 14.7807 10.4999 14.743 10.5946 14.6717C10.6893 14.6004 10.7574 14.4997 10.7883 14.3855L11.5566 11.6201C11.5778 11.5415 11.5807 11.4591 11.5649 11.3793C11.5492 11.2994 11.5153 11.2242 11.4658 11.1595C11.4163 11.0948 11.3526 11.0422 11.2795 11.0059C11.2065 10.9696 11.126 10.9505 11.0444 10.95H7.46963V8.07823C7.49617 7.81496 7.62021 7.571 7.81753 7.39399C8.01484 7.21699 8.27127 7.11964 8.53672 7.12097H11.2044C11.346 7.12097 11.4817 7.06494 11.5817 6.9652C11.6818 6.86547 11.738 6.7302 11.738 6.58916V3.82374Z" fill="#F3F1E5"/>
</svg>
