<svg width="26" height="26" viewBox="0 0 26 26" fill="none" xmlns="http://www.w3.org/2000/svg">
<path fill-rule="evenodd" clip-rule="evenodd" d="M8.19574 1.32124C9.40352 1.26425 9.78861 1.25159 12.8652 1.25159C15.9418 1.25159 16.3269 1.26531 17.5336 1.32124C18.7404 1.37718 19.5641 1.57454 20.2848 1.86055C21.0396 2.15289 21.7243 2.60987 22.2906 3.20089C22.8672 3.7803 23.312 4.48108 23.5962 5.25574C23.8763 5.99451 24.0678 6.83882 24.1234 8.07363C24.179 9.31371 24.1913 9.70843 24.1913 12.8609C24.1913 16.0144 24.1779 16.4091 24.1234 17.6471C24.0688 18.8819 23.8763 19.7262 23.5962 20.465C23.312 21.2397 22.8665 21.9417 22.2906 22.5219C21.7243 23.1129 21.0396 23.5689 20.2848 23.8601C19.5641 24.1472 18.7404 24.3435 17.5357 24.4005C16.3269 24.4575 15.9418 24.4702 12.8652 24.4702C9.78861 24.4702 9.40352 24.4564 8.19574 24.4005C6.99105 24.3446 6.16733 24.1472 5.44658 23.8601C4.69073 23.5688 4.00592 23.1121 3.43979 22.5219C2.86358 21.9422 2.41768 21.2405 2.13317 20.466C1.85413 19.7272 1.66262 18.8829 1.60702 17.6481C1.55142 16.408 1.53906 16.0133 1.53906 12.8609C1.53906 9.70737 1.55245 9.31265 1.60702 8.07574C1.66159 6.83882 1.85413 5.99451 2.13317 5.25574C2.4181 4.48117 2.86434 3.77958 3.44082 3.19984C4.00614 2.60935 4.69027 2.1523 5.44555 1.86055C6.1663 1.57454 6.99002 1.37823 8.19471 1.32124H8.19574ZM17.442 3.41091C16.2476 3.35498 15.8893 3.34337 12.8652 3.34337C9.84112 3.34337 9.4828 3.35498 8.28841 3.41091C7.1836 3.46263 6.58434 3.65154 6.18484 3.81091C5.65663 4.02199 5.27875 4.27211 4.88233 4.67844C4.50656 5.05316 4.21736 5.50933 4.03596 6.01351C3.88048 6.423 3.69618 7.03723 3.64572 8.16967C3.59115 9.39392 3.57983 9.7612 3.57983 12.8609C3.57983 15.9606 3.59115 16.3278 3.64572 17.5521C3.69618 18.6845 3.88048 19.2988 4.03596 19.7082C4.21718 20.2117 4.50651 20.6686 4.88233 21.0433C5.24786 21.4285 5.69369 21.7251 6.18484 21.9108C6.58434 22.0702 7.1836 22.2591 8.28841 22.3108C9.4828 22.3668 9.84009 22.3784 12.8652 22.3784C15.8903 22.3784 16.2476 22.3668 17.442 22.3108C18.5468 22.2591 19.1461 22.0702 19.5456 21.9108C20.0738 21.6998 20.4516 21.4496 20.8481 21.0433C21.2239 20.6686 21.5132 20.2117 21.6944 19.7082C21.8499 19.2988 22.0342 18.6845 22.0847 17.5521C22.1392 16.3278 22.1506 15.9606 22.1506 12.8609C22.1506 9.7612 22.1392 9.39392 22.0847 8.16967C22.0342 7.03723 21.8499 6.423 21.6944 6.01351C21.4885 5.47209 21.2445 5.08476 20.8481 4.67844C20.4825 4.2933 20.0374 3.99688 19.5456 3.81091C19.1461 3.65154 18.5468 3.46263 17.442 3.41091ZM11.4185 16.4397C12.2265 16.7844 13.1261 16.831 13.9638 16.5713C14.8014 16.3117 15.5252 15.7621 16.0114 15.0162C16.4976 14.2704 16.7161 13.3747 16.6296 12.4821C16.5431 11.5895 16.157 10.7553 15.5371 10.1221C15.142 9.71737 14.6642 9.40744 14.1382 9.21466C13.6122 9.02188 13.051 8.95104 12.495 9.00724C11.9391 9.06345 11.4022 9.2453 10.9231 9.5397C10.4439 9.83411 10.0344 10.2337 9.72405 10.7098C9.41367 11.1859 9.21014 11.7266 9.1281 12.293C9.04607 12.8594 9.08757 13.4374 9.24963 13.9854C9.41168 14.5334 9.69026 15.0377 10.0653 15.4621C10.4403 15.8865 10.9025 16.2204 11.4185 16.4397ZM8.74866 8.64143C9.28925 8.08732 9.93103 7.64778 10.6373 7.3479C11.3437 7.04802 12.1007 6.89367 12.8652 6.89367C13.6297 6.89367 14.3867 7.04802 15.093 7.3479C15.7994 7.64778 16.4411 8.08732 16.9817 8.64143C17.5223 9.19553 17.9511 9.85335 18.2437 10.5773C18.5363 11.3013 18.6869 12.0773 18.6869 12.8609C18.6869 13.6445 18.5363 14.4205 18.2437 15.1444C17.9511 15.8684 17.5223 16.5262 16.9817 17.0803C15.89 18.1994 14.4092 18.8281 12.8652 18.8281C11.3212 18.8281 9.84043 18.1994 8.74866 17.0803C7.65689 15.9613 7.04354 14.4435 7.04354 12.8609C7.04354 11.2783 7.65689 9.76049 8.74866 8.64143ZM19.978 7.78234C20.112 7.65281 20.2192 7.49705 20.2934 7.32427C20.3676 7.1515 20.4072 6.96522 20.4099 6.77648C20.4125 6.58773 20.3783 6.40036 20.309 6.22544C20.2398 6.05052 20.137 5.89162 20.0068 5.75814C19.8766 5.62467 19.7216 5.51933 19.5509 5.44836C19.3802 5.3774 19.1974 5.34225 19.0133 5.345C18.8292 5.34776 18.6474 5.38835 18.4789 5.46438C18.3103 5.54042 18.1583 5.65034 18.032 5.78765C17.7862 6.0547 17.6517 6.40941 17.6569 6.77648C17.6621 7.14355 17.8067 7.49409 18.0599 7.75368C18.3132 8.01327 18.6552 8.16147 19.0133 8.16682C19.3714 8.17217 19.7175 8.03425 19.978 7.78234Z" fill="#F3F1E5"/>
</svg>
