<svg width="27" height="26" viewBox="0 0 27 26" fill="none" xmlns="http://www.w3.org/2000/svg">
<path fill-rule="evenodd" clip-rule="evenodd" d="M10.6784 9.66214H14.5981V11.6146C15.1627 10.4917 16.6107 9.48273 18.7859 9.48273C22.9557 9.48273 23.9457 11.718 23.9457 15.8193V23.4149H19.7241V16.7533C19.7241 14.4177 19.1595 13.1006 17.7221 13.1006C15.7284 13.1006 14.8999 14.5201 14.8999 16.7523V23.4149H10.6784V9.66214ZM3.43946 23.2355H7.66102V9.48273H3.43946V23.2355ZM8.26576 4.99837C8.26592 5.35222 8.19574 5.70257 8.05931 6.02905C7.92288 6.35554 7.72292 6.65166 7.47105 6.90019C6.96067 7.40743 6.26982 7.69136 5.55024 7.68962C4.83193 7.68914 4.14268 7.40593 3.63154 6.90124C3.38058 6.65187 3.1813 6.35542 3.04511 6.02889C2.90892 5.70236 2.8385 5.35217 2.83789 4.99837C2.83789 4.28387 3.12285 3.59998 3.6326 3.09551C4.14329 2.59014 4.83283 2.30681 5.5513 2.30713C6.27107 2.30713 6.9613 2.59103 7.47105 3.09551C7.97975 3.59998 8.26576 4.28387 8.26576 4.99837Z" fill="#F3F1E5"/>
</svg>
