<svg width="26" height="26" viewBox="0 0 26 26" fill="none" xmlns="http://www.w3.org/2000/svg">
<g clip-path="url(#clip0_185_5662)">
<path d="M25.4732 7.06382C25.3298 6.5522 25.0504 6.089 24.6648 5.72347C24.2683 5.3467 23.7823 5.07719 23.2527 4.94037C21.2706 4.41795 13.3299 4.41795 13.3299 4.41795C10.0195 4.38029 6.70989 4.54595 3.41979 4.91399C2.89018 5.06091 2.40509 5.33644 2.00767 5.71608C1.61718 6.0918 1.33433 6.55512 1.18658 7.06276C0.831645 8.97486 0.659193 10.9164 0.67155 12.8611C0.658885 14.804 0.830914 16.7449 1.18658 18.6594C1.33117 19.1649 1.61296 19.6261 2.00451 19.9987C2.39606 20.3712 2.88365 20.6404 3.41979 20.7828C5.42819 21.3042 13.3299 21.3042 13.3299 21.3042C16.6445 21.3419 19.9583 21.1763 23.2527 20.8082C23.7823 20.6713 24.2683 20.4018 24.6648 20.0251C25.0503 19.6596 25.3293 19.1963 25.4722 18.6847C25.8364 16.7734 26.0134 14.8311 26.0009 12.8853C26.0283 10.9314 25.8514 8.97994 25.4732 7.06276V7.06382ZM10.8054 16.4747V9.24847L17.4121 12.8621L10.8054 16.4747Z" fill="#F3F1E5"/>
</g>
<defs>
<clipPath id="clip0_185_5662">
<rect width="25.3294" height="25.3294" fill="white" transform="translate(0.670898 0.196289)"/>
</clipPath>
</defs>
</svg>
