<svg width="332" height="332" viewBox="0 0 332 332" fill="none" xmlns="http://www.w3.org/2000/svg">
<path d="M43.4697 106.54C47.0668 102.929 50.0585 98.7626 52.3296 94.1999C53.063 92.7533 53.7296 91.2933 54.3296 89.8199L54.4896 89.4199C54.7096 88.8699 54.9296 88.3299 55.1296 87.7799L55.5796 86.5798L55.8497 85.8199L56.4097 84.1799L56.4697 83.9999C57.3297 81.3999 58.0997 78.7999 58.8497 76.2399C61.6097 66.8299 64.2096 57.9498 71.3296 50.8298C78.4496 43.7098 87.3296 41.1098 96.7396 38.3499C99.3296 37.5899 101.95 36.8199 104.58 35.9399C105.17 35.7499 105.76 35.5398 106.35 35.3398C106.56 35.2598 106.77 35.1799 106.98 35.1099L108.29 34.6299C108.79 34.4399 109.29 34.2399 109.77 34.0499C109.95 33.9699 110.13 33.8998 110.32 33.8298C111.78 33.2298 113.23 32.5632 114.67 31.8298L114.74 31.8298C119.302 29.5587 123.469 26.567 127.08 22.9698C134.08 15.9698 137.59 8.04984 140.2 0.0898438L135.98 0.0898436C133.55 7.15984 130.29 14.0899 124.25 20.1499C120.769 23.594 116.741 26.436 112.33 28.5599C112.254 28.5926 112.181 28.6293 112.11 28.6699C106.779 31.0819 101.257 33.0454 95.5997 34.5399C85.6797 37.4399 76.3197 40.1899 68.4697 48.0299C60.6297 55.8699 57.8796 65.2299 54.9796 75.1499C53.4895 80.8049 51.5259 86.3244 49.1096 91.6499L48.9996 91.8799C46.8761 96.2942 44.0303 100.323 40.5796 103.8C32.0896 112.29 21.8496 115.29 11.9396 118.19C7.83962 119.39 3.84963 120.57 0.00963822 122.08L0.00963803 126.42C4.25212 124.7 8.59312 123.234 13.0096 122.03C23.5096 118.9 34.2597 115.75 43.4697 106.54Z" fill="#4CE467" fill-opacity="0.1"/>
<path d="M4.18006 318.22C11.3101 311.1 20.1801 308.5 29.61 305.74C40.0001 302.74 50.7401 299.55 59.9601 290.34C69.1801 281.13 72.3201 270.39 75.3201 259.98C78.0801 250.57 80.6801 241.69 87.8001 234.56C94.92 227.43 103.8 224.84 113.23 222.08C123.62 219.08 134.36 215.89 143.57 206.68C147.167 203.067 150.162 198.901 152.44 194.34C153.167 192.887 153.833 191.427 154.44 189.96L154.61 189.53L155.23 187.93L155.68 186.7L155.95 185.97L156.52 184.3L156.57 184.16C157.43 181.55 158.2 178.95 158.95 176.38C161.71 166.97 164.31 158.09 171.43 150.97C178.55 143.85 187.43 141.25 196.84 138.49C199.43 137.74 202.06 136.96 204.69 136.09C205.277 135.903 205.867 135.703 206.46 135.49L207.09 135.26L208.41 134.78C208.9 134.59 209.41 134.4 209.87 134.2C210.06 134.13 210.24 134.06 210.43 133.98C211.89 133.38 213.34 132.713 214.78 131.98L214.85 131.98C219.41 129.709 223.577 126.721 227.19 123.13C236.4 113.91 239.55 103.13 242.59 92.77C245.35 83.36 247.95 74.47 255.07 67.35C262.19 60.23 271.07 57.63 280.49 54.87C290.89 51.87 301.63 48.68 310.85 39.47C320.07 30.26 323.32 19.39 326.32 9C327.22 5.92 328.11 2.9 329.14 0L324.91 -1.849e-07C324.04 2.58 323.27 5.21001 322.48 7.89001C319.58 17.8 316.58 28.05 308.09 36.54C299.6 45.03 289.35 48.0301 279.44 50.9301C269.53 53.8301 260.16 56.5801 252.32 64.4301C244.48 72.28 241.73 81.63 238.82 91.55C235.91 101.47 232.92 111.71 224.43 120.2C220.952 123.647 216.924 126.489 212.51 128.61C212.442 128.647 212.372 128.681 212.3 128.71C206.968 131.13 201.442 133.096 195.78 134.59C185.87 137.5 176.5 140.24 168.66 148.08C160.82 155.92 158.08 165.29 155.17 175.2C153.683 180.848 151.723 186.361 149.31 191.68L149.18 191.94C147.062 196.349 144.223 200.375 140.78 203.85C132.29 212.34 122.04 215.34 112.12 218.25C102.2 221.16 92.8501 223.89 85.0001 231.74C77.1501 239.59 74.4201 248.95 71.5101 258.86C68.6001 268.77 65.61 279.02 57.1201 287.51C48.6301 296 38.3801 299 28.4701 301.9C18.5601 304.8 9.1901 307.55 1.3501 315.4C0.903444 315.84 0.47339 316.29 0.06006 316.75L0.0600597 323.22C1.2746 321.429 2.65393 319.755 4.18006 318.22Z" fill="#4CE467" fill-opacity="0.1"/>
<path d="M18.9498 60.8196L18.9498 60.7595C19.6798 59.3195 20.3498 57.8495 20.9498 56.3795C21.0098 56.2595 21.0499 56.1395 21.0999 56.0095C21.3299 55.4595 21.5498 54.8995 21.7598 54.3495L22.1898 53.1696L22.4698 52.3795L23.0198 50.7695L23.0898 50.5596C23.9598 47.9596 24.7198 45.3696 25.4698 42.8096C28.2298 33.3996 30.8298 24.5195 37.9498 17.3895C45.0698 10.2595 53.9498 7.67955 63.3798 4.91956C66.5398 3.98956 69.7598 3.03956 72.9798 1.91956L73.6098 1.69958C74.0498 1.53958 74.4898 1.37947 74.9298 1.20947C75.3698 1.03947 75.9299 0.829517 76.4099 0.629517L76.9498 0.419556L77.8598 0.0195312L65.8598 0.0195307C64.6598 0.379531 63.4598 0.739477 62.2598 1.08948C52.3398 3.98948 42.9798 6.73947 35.1298 14.5795C27.2898 22.4295 24.5398 31.7895 21.6398 41.7095C20.1542 47.3626 18.1904 52.8793 15.7698 58.1996L15.6498 58.4496C13.5267 62.8587 10.6845 66.8836 7.2398 70.3595C5.06167 72.5345 2.65045 74.4628 0.0498014 76.1095L0.0498012 80.7996C3.70989 78.7237 7.0735 76.164 10.0498 73.1896C13.6638 69.5729 16.6693 65.3957 18.9498 60.8196Z" fill="#4CE467" fill-opacity="0.1"/>
<path d="M41.9802 226.602C44.7402 217.192 47.3402 208.312 54.4602 201.182C61.5802 194.052 70.4602 191.462 79.8802 188.702C90.2702 185.702 101.02 182.512 110.23 173.302C113.827 169.689 116.822 165.523 119.1 160.962C119.84 159.512 120.5 158.052 121.1 156.572L121.24 156.202C121.47 155.652 121.69 155.102 121.9 154.542L122.33 153.362L122.61 152.572L123.17 150.962L123.24 150.752C124.1 148.152 124.86 145.562 125.61 143.002C128.37 133.592 130.97 124.712 138.09 117.592C145.21 110.472 154.09 107.872 163.51 105.112C166.68 104.182 169.91 103.232 173.13 102.112C173.33 102.032 173.54 101.962 173.74 101.882L175.07 101.402L176.52 100.832L177.09 100.602C178.56 100.002 180.01 99.332 181.46 98.602C181.477 98.6045 181.494 98.6045 181.51 98.602C186.071 96.3235 190.237 93.3289 193.85 89.7321C203.06 80.5221 206.21 69.7321 209.25 59.3821C212.01 49.9721 214.61 41.082 221.73 33.962C228.85 26.842 237.73 24.2421 247.15 21.4821C257.55 18.4821 268.29 15.292 277.51 6.08203C279.342 4.2255 281.014 2.21845 282.51 0.0820312L277.51 0.082031C276.618 1.18314 275.67 2.23789 274.67 3.24207C266.18 11.7321 255.93 14.7321 246.02 17.6321C236.11 20.5321 226.74 23.2821 218.89 31.1221C211.04 38.9621 208.31 48.3321 205.4 58.2521C202.49 68.1721 199.5 78.4021 191.01 86.9021C187.53 90.3462 183.502 93.1882 179.09 95.3121C179.02 95.3121 178.94 95.3821 178.86 95.4221C173.537 97.8443 168.017 99.8081 162.36 101.292C152.45 104.202 143.08 106.942 135.24 114.782C127.4 122.622 124.66 131.992 121.75 141.902C120.266 147.556 118.302 153.072 115.88 158.392L115.77 158.642C113.644 163.049 110.802 167.074 107.36 170.552C98.8602 179.042 88.6202 182.042 78.7102 184.942C68.8002 187.842 59.4302 190.592 51.5802 198.432C43.7302 206.272 41.0002 215.642 38.0902 225.562C35.1802 235.482 32.1902 245.722 23.7002 254.212C16.6202 261.282 8.32019 264.552 0.0202062 267.122L0.020206 271.302C9.19022 268.532 18.4402 265.122 26.5202 257.042C35.7902 247.742 38.9402 237.002 41.9802 226.602Z" fill="#4CE467" fill-opacity="0.1"/>
<path d="M21.08 167.801C28.2 160.681 37.08 158.081 46.5 155.321C56.9 152.321 67.64 149.131 76.85 139.921C80.4469 136.308 83.4415 132.141 85.72 127.581L85.72 127.531C86.4534 126.084 87.12 124.621 87.72 123.141L87.86 122.771C88.09 122.221 88.31 121.671 88.52 121.111L88.95 119.921L89.23 119.151L89.79 117.501L89.85 117.341C90.71 114.741 91.48 112.131 92.23 109.571C94.99 100.161 97.59 91.2808 104.7 84.1608C111.81 77.0408 120.7 74.4408 130.14 71.6808C132.72 70.9208 135.33 70.1508 137.96 69.2808L139.72 68.6808C139.93 68.6008 140.14 68.5208 140.35 68.4508L141.67 67.9707C142.16 67.7807 142.67 67.5807 143.15 67.3907C143.33 67.3107 143.51 67.2408 143.69 67.1708C145.15 66.5708 146.61 65.9108 148.04 65.1708L148.11 65.1708C152.673 62.8996 156.839 59.9079 160.45 56.3108C169.66 47.1008 172.81 36.3607 175.85 25.9607C178.61 16.5507 181.21 7.66077 188.33 0.540771C188.5 0.370771 188.68 0.220781 188.85 0.0507812L183.37 0.050781C177.14 7.39078 174.63 15.8907 172.01 24.8407C169.11 34.7507 166.11 44.9907 157.62 53.4907C154.14 56.9348 150.112 59.7768 145.7 61.9008L145.49 62.0007C140.158 64.4203 134.632 66.3873 128.97 67.8807C119.05 70.7907 109.69 73.5307 101.84 81.3707C94 89.2107 91.25 98.5707 88.35 108.491C86.8649 114.136 84.9045 119.646 82.49 124.961L82.36 125.231C80.2394 129.639 77.4008 133.664 73.96 137.141C65.46 145.631 55.22 148.631 45.3 151.531C35.38 154.431 26.03 157.181 18.18 165.021C10.33 172.861 7.6 182.231 4.68999 192.151C3.40197 196.872 1.8359 201.514 -9.00455e-06 206.051L-9.38964e-06 214.861C4.22999 207.921 6.41003 200.511 8.53002 193.271C11.32 183.811 13.96 174.921 21.08 167.801Z" fill="#4CE467" fill-opacity="0.1"/>
<path d="M312.68 228.731L312.47 228.841C307.14 231.263 301.614 233.227 295.95 234.711C286.04 237.621 276.67 240.361 268.83 248.211C260.98 256.051 258.24 265.421 255.33 275.341C253.845 280.994 251.881 286.51 249.46 291.831L249.35 292.071C247.232 296.483 244.389 300.508 240.94 303.981C232.45 312.471 222.2 315.471 212.29 318.381C202.67 321.191 193.58 323.871 185.89 331.181L192.12 331.181C198.42 326.611 205.74 324.461 213.42 322.181C223.81 319.181 234.55 315.981 243.77 306.771C247.361 303.155 250.352 298.989 252.63 294.431L252.63 294.371C253.36 292.921 254.02 291.461 254.63 289.991L254.81 289.541L255.43 287.971L255.88 286.721L256.14 286.011L256.71 284.331L256.76 284.201C257.62 281.591 258.39 278.981 259.15 276.411C261.9 267.011 264.5 258.121 271.62 251.001C278.74 243.881 287.62 241.281 297.05 238.521C299.62 237.771 302.23 237.001 304.85 236.131L304.92 236.131C305.5 235.941 306.07 235.751 306.64 235.541C306.87 235.471 307.09 235.381 307.31 235.301C307.74 235.151 308.17 234.991 308.6 234.831C309.03 234.671 309.6 234.441 310.1 234.241L310.62 234.031C312.08 233.431 313.54 232.771 314.98 232.031L315.04 232.031C319.594 229.75 323.756 226.759 327.37 223.171C328.743 221.789 330.029 220.323 331.22 218.781L331.22 211.641C329.377 214.816 327.132 217.74 324.54 220.341C321.079 223.775 317.071 226.61 312.68 228.731Z" fill="#4CE467" fill-opacity="0.1"/>
<path d="M142.12 326.751C144.88 317.341 147.48 308.451 154.6 301.331C161.72 294.211 170.6 291.601 180.02 288.851C190.42 285.851 201.16 282.651 210.38 273.441C213.971 269.825 216.962 265.659 219.24 261.101C219.97 259.651 220.63 258.191 221.24 256.721L221.38 256.351C221.61 255.791 221.83 255.241 222.04 254.681L222.47 253.501L222.76 252.721L223.31 251.101L223.38 250.901C224.24 248.301 225.01 245.701 225.76 243.141C228.51 233.731 231.11 224.851 238.23 217.731C245.35 210.611 254.23 208.011 263.65 205.261C266.23 204.501 268.85 203.721 271.48 202.851C272.06 202.661 272.64 202.461 273.23 202.251C273.44 202.181 273.66 202.101 273.88 202.021L275.18 201.541C275.68 201.351 276.18 201.151 276.67 200.951C276.85 200.881 277.02 200.821 277.2 200.741C278.66 200.141 280.12 199.481 281.56 198.741L281.62 198.741C286.178 196.463 290.344 193.472 293.96 189.881C303.17 180.661 306.32 169.881 309.36 159.521C312.12 150.111 314.73 141.231 321.85 134.101C324.591 131.395 327.743 129.141 331.19 127.421L331.19 122.961C326.665 124.977 322.541 127.796 319.02 131.281C311.17 139.121 308.43 148.481 305.52 158.401C302.61 168.321 299.62 178.561 291.13 187.051C287.68 190.463 283.69 193.281 279.32 195.391L279.1 195.501C273.773 197.922 268.25 199.885 262.59 201.371C252.68 204.281 243.31 207.021 235.47 214.871C227.63 222.711 224.89 232.081 221.98 241.991C220.493 247.646 218.533 253.165 216.12 258.491L216 258.731C213.878 263.141 211.036 267.166 207.59 270.641C199.1 279.131 188.85 282.131 178.94 285.041C169.03 287.951 159.66 290.681 151.82 298.531C143.98 306.381 141.23 315.741 138.32 325.651C137.78 327.501 137.24 329.361 136.65 331.221L140.84 331.221L142.12 326.751Z" fill="#4CE467" fill-opacity="0.1"/>
<path d="M302.21 281.589C294.36 289.439 291.62 298.799 288.71 308.719C287.223 314.371 285.263 319.887 282.85 325.209L282.729 325.45C281.756 327.434 280.647 329.348 279.41 331.18L284.169 331.18C284.829 330.08 285.439 328.969 286.009 327.849L286.009 327.79C286.739 326.34 287.399 324.88 288.009 323.41L288.169 323L288.809 321.38L289.249 320.17L289.519 319.42L290.09 317.77L290.139 317.599C291.009 314.999 291.78 312.399 292.53 309.829C295.28 300.429 297.879 291.54 304.999 284.42C312.119 277.3 320.999 274.7 330.429 271.94L331.249 271.7L331.249 267.52C330.599 267.71 329.949 267.909 329.299 268.099C319.419 270.999 310.05 273.739 302.21 281.589Z" fill="#4CE467" fill-opacity="0.1"/>
<path d="M329.89 331.192C330.32 330.122 330.78 329.072 331.28 328.042L331.28 320.102C328.917 323.541 327.001 327.268 325.58 331.192L329.89 331.192Z" fill="#4CE467" fill-opacity="0.1"/>
<path d="M93.3199 323.718C102.53 314.498 105.68 303.719 108.72 293.359C111.48 283.959 114.08 275.069 121.2 267.939C128.32 260.809 137.2 258.218 146.62 255.458C157.02 252.458 167.76 249.269 176.98 240.059C180.571 236.443 183.562 232.277 185.84 227.718C186.58 226.269 187.24 224.808 187.84 223.328L187.98 222.979C188.213 222.419 188.433 221.859 188.64 221.299L189.07 220.119L189.35 219.328C189.55 218.788 189.73 218.248 189.91 217.708L189.97 217.519C190.84 214.919 191.6 212.319 192.36 209.759C195.11 200.349 197.71 191.469 204.83 184.349C211.95 177.229 220.83 174.629 230.26 171.869C233.43 170.939 236.65 169.989 239.87 168.869L240.47 168.659C240.92 168.499 241.37 168.339 241.82 168.169C242.27 167.999 242.82 167.788 243.28 167.588C243.46 167.518 243.65 167.449 243.83 167.369C245.297 166.769 246.753 166.102 248.2 165.369C252.758 163.09 256.924 160.099 260.54 156.509C269.75 147.289 272.9 136.509 275.94 126.149C278.7 116.739 281.3 107.849 288.42 100.729C295.54 93.6085 304.42 91.0085 313.85 88.2485C319.783 86.6871 325.571 84.6196 331.15 82.0686L331.15 77.5586C325.21 80.7486 318.9 82.5586 312.72 84.4086C302.81 87.3186 293.44 90.0586 285.6 97.9086C277.76 105.759 275.01 115.109 272.1 125.029C269.19 134.949 266.2 145.189 257.71 153.679C254.23 157.123 250.201 159.965 245.79 162.088L245.57 162.199C240.243 164.619 234.72 166.583 229.06 168.069C219.15 170.979 209.78 173.719 201.94 181.559C194.1 189.399 191.36 198.769 188.45 208.679C186.963 214.327 185.003 219.84 182.59 225.159L182.47 225.419C180.348 229.829 177.506 233.854 174.06 237.328C165.57 245.818 155.32 248.819 145.41 251.729C135.5 254.639 126.13 257.368 118.28 265.218C110.43 273.069 107.7 282.428 104.79 292.338C101.88 302.248 98.8899 312.499 90.3999 320.989C85.7736 325.509 80.2565 329.017 74.1999 331.289L83.4399 331.289C87.0579 329.22 90.3811 326.674 93.3199 323.718Z" fill="#4CE467" fill-opacity="0.1"/>
</svg>
