<svg width="19" height="20" viewBox="0 0 19 20" fill="none" xmlns="http://www.w3.org/2000/svg">
<path fill-rule="evenodd" clip-rule="evenodd" d="M5.60727 0.920198C6.59417 0.87363 6.90883 0.863281 9.42278 0.863281C11.9367 0.863281 12.2514 0.874492 13.2374 0.920198C14.2235 0.965904 14.8966 1.12717 15.4855 1.36087C16.1022 1.59975 16.6617 1.97316 17.1245 2.4561C17.5956 2.92954 17.9591 3.50216 18.1913 4.13515C18.4201 4.73882 18.5766 5.42872 18.6221 6.4377C18.6675 7.451 18.6776 7.77353 18.6776 10.3495C18.6776 12.9262 18.6666 13.2488 18.6221 14.2604C18.5775 15.2693 18.4201 15.9592 18.1913 16.5629C17.9591 17.196 17.595 17.7695 17.1245 18.2437C16.6617 18.7266 16.1022 19.0992 15.4855 19.3372C14.8966 19.5717 14.2235 19.7322 13.2391 19.7787C12.2514 19.8253 11.9367 19.8356 9.42278 19.8356C6.90883 19.8356 6.59417 19.8244 5.60727 19.7787C4.6229 19.733 3.94982 19.5717 3.36088 19.3372C2.74326 19.0991 2.18368 18.726 1.72109 18.2437C1.25026 17.77 0.885902 17.1967 0.653425 16.5638C0.425421 15.9601 0.26893 15.2702 0.223498 14.2612C0.178065 13.2479 0.167969 12.9254 0.167969 10.3495C0.167969 7.77267 0.178906 7.45014 0.223498 6.43943C0.268089 5.42872 0.425421 4.73882 0.653425 4.13515C0.886245 3.50223 1.25088 2.92895 1.72193 2.45523C2.18387 1.97273 2.74288 1.59927 3.36004 1.36087C3.94898 1.12717 4.62206 0.966767 5.60643 0.920198H5.60727ZM13.1626 2.62771C12.1866 2.582 11.8938 2.57252 9.42278 2.57252C6.95174 2.57252 6.65895 2.582 5.68299 2.62771C4.78023 2.66997 4.29056 2.82433 3.96412 2.95455C3.53251 3.12703 3.22374 3.33141 2.89982 3.66343C2.59277 3.96962 2.35646 4.34236 2.20823 4.75434C2.08119 5.08894 1.93059 5.59085 1.88936 6.51618C1.84477 7.51654 1.83552 7.81665 1.83552 10.3495C1.83552 12.8823 1.84477 13.1824 1.88936 14.1827C1.93059 15.1081 2.08119 15.61 2.20823 15.9446C2.35631 16.3559 2.59273 16.7293 2.89982 17.0355C3.1985 17.3503 3.5628 17.5926 3.96412 17.7444C4.29056 17.8746 4.78023 18.029 5.68299 18.0712C6.65895 18.1169 6.9509 18.1264 9.42278 18.1264C11.8946 18.1264 12.1866 18.1169 13.1626 18.0712C14.0653 18.029 14.555 17.8746 14.8814 17.7444C15.313 17.5719 15.6218 17.3675 15.9457 17.0355C16.2528 16.7293 16.4892 16.3559 16.6373 15.9446C16.7644 15.61 16.915 15.1081 16.9562 14.1827C17.0008 13.1824 17.01 12.8823 17.01 10.3495C17.01 7.81665 17.0008 7.51654 16.9562 6.51618C16.915 5.59085 16.7644 5.08894 16.6373 4.75434C16.469 4.31194 16.2696 3.99544 15.9457 3.66343C15.647 3.34872 15.2833 3.10651 14.8814 2.95455C14.555 2.82433 14.0653 2.66997 13.1626 2.62771ZM8.24068 13.2738C8.90085 13.5555 9.63595 13.5935 10.3204 13.3813C11.0049 13.1692 11.5963 12.7201 11.9936 12.1106C12.3909 11.5012 12.5695 10.7693 12.4988 10.04C12.4281 9.31058 12.1126 8.62899 11.6061 8.11158C11.2832 7.78084 10.8928 7.52759 10.463 7.37006C10.0331 7.21254 9.57458 7.15465 9.12031 7.20058C8.66604 7.24651 8.22735 7.3951 7.83583 7.63566C7.44431 7.87623 7.1097 8.20278 6.85608 8.5918C6.60247 8.98083 6.43616 9.42265 6.36912 9.88546C6.30209 10.3483 6.336 10.8206 6.46842 11.2683C6.60084 11.7161 6.82847 12.1282 7.13492 12.475C7.44137 12.8218 7.81902 13.0946 8.24068 13.2738ZM6.05907 6.90166C6.5008 6.44889 7.02521 6.08974 7.60235 5.8447C8.1795 5.59966 8.79808 5.47354 9.42278 5.47354C10.0475 5.47354 10.6661 5.59966 11.2432 5.8447C11.8203 6.08974 12.3447 6.44889 12.7865 6.90166C13.2282 7.35444 13.5786 7.89195 13.8177 8.48353C14.0567 9.0751 14.1798 9.70914 14.1798 10.3495C14.1798 10.9898 14.0567 11.6238 13.8177 12.2154C13.5786 12.807 13.2282 13.3445 12.7865 13.7973C11.8944 14.7117 10.6844 15.2254 9.42278 15.2254C8.16114 15.2254 6.95118 14.7117 6.05907 13.7973C5.16696 12.8828 4.66578 11.6426 4.66578 10.3495C4.66578 9.05628 5.16696 7.81608 6.05907 6.90166ZM15.2348 6.19969C15.3443 6.09385 15.4319 5.96657 15.4925 5.82539C15.5531 5.68421 15.5855 5.53201 15.5877 5.37778C15.5899 5.22355 15.5618 5.07044 15.5053 4.92751C15.4487 4.78458 15.3647 4.65474 15.2583 4.54568C15.1519 4.43661 15.0252 4.35054 14.8858 4.29255C14.7464 4.23456 14.597 4.20584 14.4465 4.20809C14.296 4.21034 14.1475 4.24351 14.0098 4.30564C13.8721 4.36777 13.7479 4.45759 13.6446 4.56979C13.4438 4.788 13.3339 5.07784 13.3381 5.37778C13.3424 5.67772 13.4606 5.96415 13.6675 6.17627C13.8744 6.38838 14.1539 6.50948 14.4465 6.51385C14.7391 6.51822 15.0219 6.40553 15.2348 6.19969Z" fill="#F3F1E5"/>
</svg>
