<svg width="10" height="17" viewBox="0 0 10 17" fill="none" xmlns="http://www.w3.org/2000/svg">
<path d="M9.59135 0.963129C9.59135 0.847879 9.54541 0.737348 9.46365 0.655854C9.38189 0.57436 9.271 0.528576 9.15538 0.528576H6.97552C5.87786 0.474076 4.80317 0.854831 3.98627 1.58765C3.16937 2.32047 2.67667 3.34578 2.61582 4.43955V6.78614H0.43597C0.320344 6.78614 0.209453 6.83192 0.127693 6.91341C0.0459325 6.99491 0 7.10544 0 7.22069V9.48036C0 9.59561 0.0459325 9.70614 0.127693 9.78764C0.209453 9.86913 0.320344 9.91492 0.43597 9.91492H2.61582V15.7379C2.61582 15.8532 2.66175 15.9637 2.74351 16.0452C2.82527 16.1267 2.93617 16.1725 3.05179 16.1725H5.66761C5.78324 16.1725 5.89413 16.1267 5.97589 16.0452C6.05765 15.9637 6.10358 15.8532 6.10358 15.7379V9.91492H8.38807C8.48502 9.9163 8.57967 9.88544 8.65705 9.8272C8.73443 9.76896 8.79012 9.68667 8.81532 9.59335L9.44312 7.33367C9.46046 7.26946 9.46279 7.20215 9.44993 7.1369C9.43707 7.07165 9.40936 7.01022 9.36893 6.95732C9.3285 6.90443 9.27643 6.86149 9.21673 6.83181C9.15703 6.80214 9.0913 6.78651 9.02458 6.78614H6.10358V4.43955C6.12527 4.22443 6.22663 4.02508 6.38786 3.88045C6.54909 3.73581 6.75861 3.65627 6.97552 3.65736H9.15538C9.271 3.65736 9.38189 3.61157 9.46365 3.53008C9.54541 3.44858 9.59135 3.33805 9.59135 3.2228V0.963129Z" fill="#F3F1E5"/>
</svg>
