<svg width="18" height="18" viewBox="0 0 18 18" fill="none" xmlns="http://www.w3.org/2000/svg">
<path fill-rule="evenodd" clip-rule="evenodd" d="M6.97498 6.73453H10.1779V8.32994C10.6392 7.41237 11.8224 6.58793 13.5998 6.58793C17.007 6.58793 17.816 8.41445 17.816 11.7657V17.9722H14.3664V12.5289C14.3664 10.6204 13.9051 9.54417 12.7305 9.54417C11.1015 9.54417 10.4245 10.7041 10.4245 12.528V17.9722H6.97498V6.73453ZM1.05992 17.8256H4.50944V6.58793H1.05992V17.8256ZM5.00358 2.92368C5.00371 3.21281 4.94636 3.49909 4.83489 3.76587C4.72341 4.03265 4.56002 4.27461 4.35421 4.47769C3.93716 4.89217 3.37265 5.12417 2.78468 5.12275C2.19773 5.12235 1.63453 4.89094 1.21687 4.47855C1.0118 4.27478 0.848966 4.03255 0.737682 3.76573C0.626399 3.49892 0.568859 3.21277 0.568359 2.92368C0.568359 2.33985 0.801202 1.78102 1.21773 1.36881C1.63502 0.955864 2.19846 0.724351 2.78554 0.72461C3.37368 0.72461 3.93768 0.95659 4.35421 1.36881C4.76987 1.78102 5.00358 2.33985 5.00358 2.92368Z" fill="#F3F1E5"/>
</svg>
