<svg width="21" height="15" viewBox="0 0 21 15" fill="none" xmlns="http://www.w3.org/2000/svg">
<path d="M20.5692 2.61158C20.452 2.19352 20.2237 1.81503 19.9086 1.51635C19.5846 1.20849 19.1875 0.988262 18.7547 0.876467C17.1352 0.449589 10.6467 0.449589 10.6467 0.449589C7.94165 0.418813 5.23731 0.554174 2.5489 0.854907C2.11615 0.974962 1.71978 1.20011 1.39504 1.51032C1.07596 1.81732 0.844841 2.19591 0.724108 2.61071C0.434084 4.17312 0.29317 5.75956 0.303267 7.34863C0.292918 8.93627 0.433486 10.5222 0.724108 12.0865C0.842254 12.4996 1.07251 12.8765 1.39245 13.1809C1.7124 13.4853 2.11081 13.7052 2.5489 13.8217C4.19001 14.2477 10.6467 14.2477 10.6467 14.2477C13.3551 14.2785 16.0629 14.1431 18.7547 13.8423C19.1875 13.7306 19.5846 13.5103 19.9086 13.2025C20.2236 12.9038 20.4516 12.5253 20.5683 12.1072C20.8659 10.5454 21.0106 8.95834 21.0004 7.36846C21.0228 5.77186 20.8783 4.17728 20.5692 2.61071V2.61158ZM8.58384 10.3014V4.3967L13.9823 7.34949L8.58384 10.3014Z" fill="#F3F1E5"/>
</svg>
