<?xml version="1.0" encoding="UTF-8"?>
<svg xmlns="http://www.w3.org/2000/svg" xmlns:xlink="http://www.w3.org/1999/xlink" width="241px" height="37px" viewBox="0 0 243 37" version="1.1">
<g id="surface1">
<path style=" stroke:none;fill-rule:nonzero;fill:rgb(100%,100%,100%);fill-opacity:1;" d="M 124.183594 12.746094 C 117.710938 12.746094 112.460938 18.003906 112.460938 24.488281 C 112.460938 30.972656 117.710938 36.230469 124.183594 36.230469 C 130.65625 36.230469 135.90625 30.972656 135.90625 24.488281 C 135.90625 18.003906 130.65625 12.746094 124.183594 12.746094 Z M 124.183594 30.777344 C 120.722656 30.777344 117.902344 27.953125 117.902344 24.488281 C 117.902344 21.023438 120.722656 18.199219 124.183594 18.199219 C 127.644531 18.199219 130.460938 21.023438 130.460938 24.488281 C 130.460938 27.953125 127.644531 30.777344 124.183594 30.777344 Z M 124.183594 30.777344 "/>
<path style=" stroke:none;fill-rule:nonzero;fill:rgb(100%,100%,100%);fill-opacity:1;" d="M 85.789062 12.746094 L 81.976562 12.746094 C 77.351562 12.746094 73.621094 16.503906 73.621094 21.121094 L 73.621094 36.210938 L 79.0625 36.210938 L 79.0625 18.546875 C 79.0625 18.355469 79.21875 18.199219 79.414062 18.199219 L 88.375 18.199219 C 88.570312 18.199219 88.722656 18.355469 88.722656 18.546875 L 88.722656 36.230469 L 94.167969 36.230469 L 94.167969 21.140625 C 94.148438 16.503906 90.414062 12.746094 85.789062 12.746094 Z M 85.789062 12.746094 "/>
<path style=" stroke:none;fill-rule:nonzero;fill:rgb(100%,100%,100%);fill-opacity:1;" d="M 153.90625 30.445312 C 153.90625 30.640625 153.75 30.796875 153.554688 30.796875 L 144.574219 30.796875 C 144.382812 30.796875 144.246094 30.640625 144.246094 30.445312 L 144.246094 12.765625 L 138.800781 12.765625 L 138.800781 27.855469 C 138.800781 32.492188 142.535156 36.230469 147.160156 36.230469 L 150.972656 36.230469 C 155.597656 36.230469 159.332031 32.492188 159.332031 27.855469 L 159.332031 12.746094 L 153.886719 12.746094 Z M 153.90625 30.445312 "/>
<path style=" stroke:none;fill-rule:nonzero;fill:rgb(100%,100%,100%);fill-opacity:1;" d="M 102.894531 7.175781 L 97.453125 7.175781 L 97.453125 27.855469 C 97.453125 32.492188 101.183594 36.230469 105.8125 36.230469 L 111.136719 36.230469 L 111.136719 30.777344 L 103.226562 30.777344 C 103.03125 30.777344 102.894531 30.621094 102.894531 30.425781 L 102.894531 18.199219 L 111.136719 18.199219 L 111.136719 12.746094 L 102.894531 12.746094 Z M 102.894531 7.175781 "/>
<path style=" stroke:none;fill-rule:nonzero;fill:rgb(100%,100%,100%);fill-opacity:1;" d="M 64.675781 4.449219 L 70.121094 4.449219 L 70.121094 36.25 L 64.675781 36.25 Z M 64.675781 4.449219 "/>
<path style=" stroke:none;fill-rule:nonzero;fill:rgb(100%,100%,100%);fill-opacity:1;" d="M 200.679688 12.746094 L 193.953125 12.746094 L 193.953125 4.449219 L 188.507812 4.449219 L 188.507812 36.25 L 193.953125 36.25 L 193.953125 18.546875 C 193.953125 18.355469 194.109375 18.199219 194.285156 18.199219 L 203.265625 18.199219 C 203.460938 18.199219 203.613281 18.355469 203.613281 18.546875 L 203.613281 36.230469 L 209.058594 36.230469 L 209.058594 21.121094 C 209.039062 16.503906 205.285156 12.746094 200.679688 12.746094 Z M 200.679688 12.746094 "/>
<path style=" stroke:none;fill-rule:nonzero;fill:rgb(100%,100%,100%);fill-opacity:1;" d="M 173.988281 18.199219 C 176.921875 18.199219 179.371094 20.203125 180.074219 22.910156 L 185.59375 22.910156 C 184.816406 17.167969 179.917969 12.746094 173.988281 12.746094 C 167.515625 12.746094 162.265625 18.003906 162.265625 24.488281 C 162.265625 30.972656 167.515625 36.230469 173.988281 36.230469 C 179.9375 36.230469 184.835938 31.808594 185.59375 26.066406 L 180.074219 26.066406 C 179.371094 28.792969 176.902344 30.796875 173.988281 30.796875 C 170.527344 30.796875 167.707031 27.972656 167.707031 24.507812 C 167.707031 21.042969 170.507812 18.199219 173.988281 18.199219 Z M 173.988281 18.199219 "/>
<path style=" stroke:none;fill-rule:nonzero;fill:rgb(100%,100%,100%);fill-opacity:1;" d="M 237.789062 4.449219 L 212.089844 4.449219 C 211.894531 4.449219 211.742188 4.605469 211.742188 4.800781 L 211.742188 20.242188 C 211.742188 20.4375 211.894531 20.574219 212.089844 20.574219 L 237.789062 20.574219 C 237.984375 20.574219 238.140625 20.417969 238.140625 20.242188 L 238.140625 4.78125 C 238.140625 4.585938 237.984375 4.449219 237.789062 4.449219 Z M 219.808594 17.847656 C 216.871094 17.847656 214.480469 15.453125 214.480469 12.511719 C 214.480469 9.570312 216.871094 7.175781 219.808594 7.175781 C 222.394531 7.175781 224.628906 9.066406 225.058594 11.597656 L 222.800781 11.597656 C 222.394531 10.273438 221.1875 9.375 219.808594 9.375 C 218.078125 9.375 216.679688 10.777344 216.679688 12.511719 C 216.679688 14.246094 218.078125 15.648438 219.808594 15.648438 C 221.1875 15.648438 222.394531 14.730469 222.800781 13.425781 L 225.058594 13.425781 C 224.628906 15.957031 222.394531 17.847656 219.808594 17.847656 Z M 235.417969 17.847656 L 232.65625 17.847656 L 230.1875 14.441406 L 227.71875 17.847656 L 224.960938 17.847656 L 228.808594 12.511719 L 224.960938 7.15625 L 227.71875 7.15625 L 230.207031 10.582031 L 232.695312 7.15625 L 235.457031 7.15625 L 231.609375 12.511719 Z M 235.417969 17.847656 "/>
<path style=" stroke:none;fill-rule:nonzero;fill:rgb(29.803922%,89.411765%,40.392157%);fill-opacity:1;" d="M 26.613281 23.632812 L 32.054688 23.632812 L 32.054688 36.230469 L 26.613281 36.230469 Z M 26.613281 23.632812 "/>
<path style=" stroke:none;fill-rule:nonzero;fill:rgb(29.803922%,89.411765%,40.392157%);fill-opacity:1;" d="M 4.859375 25.285156 L 4.859375 36.230469 L 10.304688 36.230469 L 10.304688 25.285156 C 10.304688 14.75 18.816406 6.222656 29.335938 6.222656 C 39.851562 6.222656 48.367188 14.75 48.367188 25.285156 L 48.367188 36.230469 L 53.808594 36.230469 L 53.808594 25.285156 C 53.808594 11.753906 42.847656 0.769531 29.335938 0.769531 C 15.824219 0.769531 4.859375 11.753906 4.859375 25.285156 Z M 4.859375 25.285156 "/>
<path style=" stroke:none;fill-rule:nonzero;fill:rgb(29.803922%,89.411765%,40.392157%);fill-opacity:1;" d="M 15.726562 21.140625 L 15.726562 36.25 L 21.171875 36.25 L 21.171875 18.546875 C 21.171875 18.355469 21.324219 18.199219 21.519531 18.199219 L 37.148438 18.199219 C 37.34375 18.199219 37.5 18.355469 37.5 18.546875 L 37.5 36.230469 L 42.941406 36.230469 L 42.941406 21.121094 C 42.941406 16.484375 39.191406 12.746094 34.582031 12.746094 L 24.105469 12.746094 C 19.480469 12.746094 15.726562 16.503906 15.726562 21.140625 Z M 15.726562 21.140625 "/>
<path style=" stroke:none;fill-rule:nonzero;fill:rgb(100%,100%,100%);fill-opacity:1;" d="M 213.335938 31.828125 L 211.761719 31.828125 L 211.761719 31.167969 L 215.6875 31.167969 L 215.6875 31.828125 L 214.113281 31.828125 L 214.113281 36.230469 L 213.355469 36.230469 L 213.355469 31.828125 Z M 213.335938 31.828125 "/>
<path style=" stroke:none;fill-rule:nonzero;fill:rgb(100%,100%,100%);fill-opacity:1;" d="M 216.328125 31.167969 L 217.261719 31.167969 L 218.875 35.199219 L 220.488281 31.167969 L 221.402344 31.167969 L 221.402344 36.230469 L 220.683594 36.230469 L 220.683594 32.453125 L 219.167969 36.230469 L 218.5625 36.230469 L 217.046875 32.453125 L 217.046875 36.230469 L 216.328125 36.230469 Z M 216.328125 31.167969 "/>
</g>
</svg>
