<svg width="602" height="886" viewBox="0 0 602 886" fill="none" xmlns="http://www.w3.org/2000/svg">
<path d="M602.347 609.43L459.847 466.95C458.598 465.692 457.583 464.223 456.847 462.61C456.125 461.036 455.707 459.339 455.617 457.61C455.526 455.94 455.778 454.269 456.357 452.7C456.92 451.175 457.807 449.79 458.957 448.64L602.357 305.24V0L372.167 230.22C344.085 258.352 322.399 292.208 308.587 329.48C294.45 367.801 288.267 408.601 290.417 449.39C292.619 491.673 302.798 533.159 320.417 571.66C338.404 611.123 363.344 647.029 394.046 677.66L602.357 885.98L602.347 609.43Z" fill="#4CE467"/>
<path d="M334.745 321.469C338.356 325.066 342.523 328.058 347.085 330.329C348.532 331.063 349.992 331.729 351.465 332.329L351.865 332.489C352.415 332.709 352.955 332.929 353.505 333.129L354.705 333.579L355.465 333.849L357.105 334.409L357.285 334.469C359.885 335.329 362.485 336.099 365.045 336.849C374.455 339.609 383.335 342.209 390.455 349.329C397.575 356.449 400.175 365.329 402.935 374.739C403.695 377.329 404.465 379.949 405.345 382.579C405.535 383.169 405.745 383.759 405.945 384.349C406.025 384.559 406.105 384.769 406.175 384.979L406.655 386.289C406.845 386.789 407.045 387.289 407.235 387.769C407.315 387.949 407.385 388.129 407.455 388.319C408.055 389.779 408.722 391.229 409.455 392.669L409.455 392.739C411.726 397.302 414.718 401.469 418.315 405.079C425.315 412.079 433.235 415.589 441.195 418.199L441.195 413.979C434.125 411.549 427.195 408.289 421.135 402.249C417.691 398.769 414.849 394.741 412.725 390.329C412.693 390.254 412.656 390.18 412.615 390.109C410.203 384.779 408.24 379.256 406.745 373.599C403.845 363.679 401.095 354.319 393.255 346.469C385.415 338.629 376.055 335.879 366.135 332.979C360.48 331.489 354.961 329.525 349.635 327.109L349.405 326.999C344.991 324.876 340.962 322.03 337.485 318.579C328.995 310.089 325.995 299.849 323.095 289.939C321.895 285.839 320.715 281.849 319.205 278.009L314.865 278.009C316.585 282.252 318.051 286.593 319.255 291.009C322.385 301.509 325.535 312.259 334.745 321.469Z" fill="#FFC844"/>
<path d="M123.069 282.181C130.189 289.311 132.789 298.181 135.549 307.611C138.549 318.001 141.739 328.741 150.949 337.961C160.159 347.181 170.899 350.321 181.309 353.321C190.719 356.081 199.599 358.681 206.729 365.801C213.859 372.921 216.449 381.801 219.209 391.231C222.209 401.621 225.399 412.361 234.609 421.571C238.222 425.167 242.388 428.162 246.949 430.441C248.402 431.167 249.862 431.834 251.329 432.441L251.759 432.611L253.359 433.231L254.589 433.681L255.319 433.951L256.989 434.521L257.129 434.571C259.739 435.431 262.339 436.201 264.909 436.951C274.319 439.711 283.199 442.311 290.319 449.431C297.439 456.551 300.039 465.431 302.799 474.841C303.549 477.431 304.329 480.061 305.199 482.691C305.386 483.277 305.586 483.867 305.799 484.461L306.029 485.091L306.509 486.411C306.699 486.901 306.889 487.411 307.089 487.871C307.159 488.061 307.229 488.241 307.309 488.431C307.909 489.891 308.576 491.341 309.309 492.781L309.309 492.851C311.58 497.411 314.568 501.577 318.159 505.191C327.379 514.401 338.159 517.551 348.519 520.591C357.929 523.351 366.819 525.951 373.939 533.071C381.059 540.191 383.659 549.071 386.419 558.491C389.419 568.891 392.609 579.631 401.819 588.851C411.029 598.071 421.899 601.321 432.289 604.321C435.369 605.221 438.389 606.111 441.289 607.141L441.289 602.911C438.709 602.041 436.079 601.271 433.399 600.481C423.489 597.581 413.239 594.581 404.749 586.091C396.259 577.601 393.259 567.351 390.359 557.441C387.459 547.531 384.709 538.161 376.859 530.321C369.009 522.481 359.659 519.731 349.739 516.821C339.819 513.911 329.579 510.921 321.089 502.431C317.642 498.953 314.8 494.924 312.679 490.511C312.642 490.443 312.608 490.372 312.579 490.301C310.16 484.968 308.193 479.442 306.699 473.781C303.789 463.871 301.049 454.501 293.209 446.661C285.369 438.821 275.999 436.081 266.089 433.171C260.441 431.684 254.928 429.724 249.609 427.311L249.349 427.181C244.94 425.062 240.915 422.223 237.439 418.781C228.949 410.291 225.949 400.041 223.039 390.121C220.129 380.201 217.399 370.851 209.549 363.001C201.699 355.151 192.339 352.421 182.429 349.511C172.519 346.601 162.269 343.611 153.779 335.121C145.289 326.631 142.289 316.381 139.389 306.471C136.489 296.561 133.739 287.191 125.889 279.351C125.449 278.904 124.999 278.474 124.539 278.061L118.069 278.061C119.861 279.275 121.534 280.654 123.069 282.181Z" fill="#FFC844"/>
<path d="M380.466 296.949L380.526 296.949C381.966 297.679 383.436 298.349 384.906 298.949C385.026 299.009 385.146 299.049 385.276 299.099C385.826 299.329 386.386 299.549 386.936 299.759L388.116 300.189L388.906 300.469L390.516 301.019L390.726 301.089C393.326 301.959 395.916 302.719 398.476 303.469C407.886 306.229 416.766 308.829 423.896 315.949C431.026 323.069 433.606 331.949 436.366 341.379C437.296 344.539 438.246 347.759 439.366 350.979L439.586 351.609C439.746 352.049 439.906 352.489 440.076 352.929C440.246 353.369 440.456 353.929 440.656 354.409L440.866 354.949L441.266 355.859L441.266 343.859C440.906 342.659 440.546 341.459 440.196 340.259C437.296 330.339 434.546 320.979 426.706 313.129C418.856 305.289 409.496 302.539 399.576 299.639C393.923 298.154 388.406 296.19 383.086 293.769L382.836 293.649C378.426 291.526 374.402 288.684 370.926 285.239C368.751 283.061 366.822 280.65 365.176 278.049L360.486 278.049C362.561 281.709 365.121 285.073 368.096 288.049C371.712 291.663 375.89 294.669 380.466 296.949Z" fill="#FFC844"/>
<path d="M214.683 319.98C224.093 322.74 232.973 325.34 240.103 332.46C247.233 339.58 249.823 348.46 252.583 357.88C255.583 368.27 258.773 379.02 267.983 388.23C271.596 391.827 275.762 394.821 280.323 397.1C281.773 397.84 283.233 398.5 284.713 399.1L285.083 399.24C285.633 399.47 286.183 399.69 286.743 399.9L287.923 400.33L288.713 400.61L290.323 401.17L290.533 401.24C293.133 402.1 295.723 402.86 298.283 403.61C307.693 406.37 316.573 408.97 323.693 416.09C330.813 423.21 333.413 432.09 336.173 441.51C337.103 444.68 338.053 447.91 339.173 451.13C339.253 451.33 339.323 451.54 339.403 451.74L339.883 453.07L340.453 454.52L340.683 455.09C341.283 456.56 341.953 458.01 342.683 459.46C342.681 459.476 342.681 459.493 342.683 459.51C344.962 464.071 347.956 468.237 351.553 471.85C360.763 481.06 371.553 484.21 381.903 487.25C391.313 490.01 400.203 492.61 407.323 499.73C414.443 506.85 417.043 515.73 419.803 525.15C422.803 535.55 425.993 546.29 435.203 555.51C437.06 557.341 439.067 559.014 441.203 560.51L441.203 555.51C440.102 554.618 439.047 553.67 438.043 552.67C429.553 544.18 426.553 533.93 423.653 524.02C420.753 514.11 418.003 504.74 410.163 496.89C402.323 489.04 392.953 486.31 383.033 483.4C373.113 480.49 362.883 477.5 354.383 469.01C350.939 465.53 348.097 461.501 345.973 457.09C345.973 457.02 345.903 456.94 345.863 456.86C343.441 451.537 341.477 446.017 339.993 440.36C337.083 430.45 334.343 421.08 326.503 413.24C318.663 405.4 309.293 402.66 299.383 399.75C293.729 398.266 288.213 396.302 282.893 393.88L282.643 393.77C278.236 391.643 274.212 388.801 270.733 385.36C262.243 376.86 259.243 366.62 256.343 356.71C253.443 346.8 250.693 337.43 242.853 329.58C235.013 321.73 225.643 319 215.723 316.09C205.803 313.18 195.563 310.19 187.073 301.7C180.003 294.62 176.733 286.32 174.163 278.02L169.983 278.02C172.753 287.19 176.163 296.44 184.243 304.52C193.543 313.79 204.283 316.94 214.683 319.98Z" fill="#FFC844"/>
<path d="M273.484 299.08C280.604 306.2 283.204 315.08 285.964 324.5C288.964 334.9 292.154 345.64 301.364 354.85C304.977 358.446 309.144 361.441 313.704 363.72L313.754 363.72C315.201 364.453 316.664 365.12 318.144 365.72L318.514 365.86C319.064 366.09 319.614 366.31 320.174 366.52L321.364 366.95L322.134 367.23L323.784 367.79L323.944 367.85C326.544 368.71 329.154 369.48 331.714 370.23C341.124 372.99 350.004 375.59 357.124 382.7C364.244 389.81 366.844 398.7 369.604 408.14C370.364 410.72 371.134 413.33 372.004 415.96L372.604 417.72C372.684 417.93 372.764 418.14 372.834 418.35L373.314 419.67C373.504 420.16 373.704 420.67 373.894 421.15C373.974 421.33 374.044 421.51 374.114 421.69C374.714 423.15 375.374 424.61 376.114 426.04L376.114 426.11C378.386 430.672 381.377 434.839 384.974 438.45C394.184 447.66 404.924 450.81 415.324 453.85C424.734 456.61 433.624 459.21 440.744 466.33C440.914 466.5 441.064 466.68 441.234 466.85L441.234 461.37C433.894 455.14 425.394 452.63 416.444 450.01C406.534 447.11 396.294 444.11 387.794 435.62C384.35 432.139 381.508 428.111 379.384 423.7L379.284 423.49C376.865 418.157 374.898 412.631 373.404 406.97C370.494 397.05 367.754 387.69 359.914 379.84C352.074 372 342.714 369.25 332.794 366.35C327.149 364.864 321.639 362.904 316.324 360.49L316.054 360.36C311.646 358.239 307.621 355.4 304.144 351.96C295.654 343.46 292.654 333.22 289.754 323.3C286.854 313.38 284.104 304.03 276.264 296.18C268.424 288.33 259.054 285.6 249.134 282.69C244.413 281.402 239.771 279.835 235.234 278L226.424 278C233.364 282.23 240.774 284.41 248.014 286.53C257.474 289.32 266.364 291.96 273.484 299.08Z" fill="#FFC844"/>
<path d="M212.558 590.681L212.448 590.471C210.026 585.141 208.062 579.614 206.578 573.951C203.668 564.041 200.928 554.671 193.078 546.831C185.238 538.981 175.868 536.241 165.948 533.331C160.295 531.845 154.779 529.881 149.459 527.461L149.218 527.351C144.806 525.232 140.781 522.39 137.308 518.941C128.818 510.451 125.818 500.201 122.908 490.291C120.098 480.671 117.418 471.581 110.108 463.891L110.108 470.121C114.678 476.421 116.828 483.741 119.108 491.421C122.108 501.811 125.308 512.551 134.518 521.771C138.134 525.362 142.3 528.352 146.858 530.631L146.918 530.631C148.368 531.361 149.828 532.021 151.298 532.631L151.748 532.811L153.318 533.431L154.568 533.881L155.278 534.141L156.959 534.711L157.088 534.761C159.698 535.621 162.308 536.391 164.878 537.151C174.278 539.901 183.168 542.501 190.288 549.621C197.408 556.741 200.008 565.621 202.768 575.051C203.518 577.621 204.288 580.231 205.158 582.851L205.158 582.921C205.348 583.501 205.538 584.071 205.748 584.641C205.818 584.871 205.908 585.091 205.988 585.311C206.138 585.741 206.298 586.171 206.458 586.601C206.618 587.031 206.848 587.601 207.048 588.101L207.258 588.621C207.858 590.081 208.518 591.541 209.258 592.981L209.258 593.041C211.539 597.595 214.53 601.757 218.118 605.371C219.5 606.744 220.967 608.03 222.508 609.221L229.648 609.221C226.473 607.378 223.549 605.133 220.948 602.541C217.514 599.08 214.679 595.072 212.558 590.681Z" fill="#FFC844"/>
<path d="M114.538 420.119C123.948 422.879 132.838 425.479 139.958 432.599C147.078 439.719 149.688 448.599 152.438 458.019C155.438 468.419 158.638 479.159 167.848 488.379C171.464 491.97 175.63 494.961 180.188 497.239C181.638 497.969 183.098 498.629 184.568 499.239L184.938 499.379C185.498 499.609 186.048 499.829 186.608 500.039L187.788 500.469L188.568 500.759L190.188 501.309L190.388 501.379C192.988 502.239 195.588 503.009 198.148 503.759C207.558 506.509 216.438 509.109 223.558 516.229C230.678 523.349 233.278 532.229 236.028 541.649C236.788 544.229 237.568 546.849 238.438 549.479C238.628 550.059 238.828 550.639 239.038 551.229C239.108 551.439 239.188 551.659 239.268 551.879L239.748 553.179C239.938 553.679 240.138 554.179 240.338 554.669C240.408 554.849 240.468 555.019 240.548 555.199C241.148 556.659 241.808 558.119 242.548 559.559L242.548 559.619C244.826 564.178 247.817 568.344 251.408 571.959C260.628 581.169 271.408 584.319 281.768 587.359C291.178 590.119 300.058 592.729 307.188 599.849C309.894 602.591 312.149 605.743 313.868 609.189L318.328 609.189C316.312 604.664 313.493 600.541 310.008 597.019C302.168 589.169 292.808 586.429 282.888 583.519C272.968 580.609 262.728 577.619 254.238 569.129C250.826 565.68 248.008 561.689 245.898 557.319L245.788 557.099C243.367 551.772 241.404 546.249 239.918 540.589C237.008 530.679 234.268 521.309 226.418 513.469C218.578 505.629 209.208 502.889 199.298 499.979C193.643 498.493 188.124 496.533 182.798 494.119L182.558 493.999C178.148 491.878 174.123 489.036 170.648 485.589C162.158 477.099 159.158 466.849 156.248 456.939C153.338 447.029 150.608 437.659 142.758 429.819C134.908 421.979 125.548 419.229 115.638 416.319C113.788 415.779 111.928 415.239 110.068 414.649L110.068 418.839L114.538 420.119Z" fill="#FFC844"/>
<path d="M159.696 580.21C151.846 572.36 142.486 569.62 132.566 566.71C126.914 565.223 121.398 563.263 116.076 560.85L115.836 560.73C113.851 559.757 111.937 558.647 110.106 557.41L110.106 562.17C111.206 562.83 112.316 563.44 113.436 564.01L113.496 564.01C114.946 564.74 116.406 565.4 117.876 566.01L118.286 566.17L119.906 566.81L121.116 567.25L121.866 567.52L123.516 568.09L123.686 568.14C126.286 569.01 128.886 569.78 131.456 570.53C140.856 573.28 149.746 575.88 156.866 583C163.986 590.12 166.586 599 169.346 608.43L169.586 609.25L173.766 609.25C173.576 608.6 173.376 607.95 173.186 607.3C170.286 597.42 167.546 588.05 159.696 580.21Z" fill="#FFC844"/>
<path d="M110.097 607.889C111.167 608.319 112.217 608.779 113.247 609.279L121.188 609.279C117.748 606.916 114.021 605.001 110.097 603.579L110.097 607.889Z" fill="#FFC844"/>
<path d="M117.567 371.32C126.787 380.53 137.567 383.68 147.927 386.72C157.327 389.48 166.217 392.08 173.347 399.2C180.477 406.32 183.067 415.2 185.827 424.62C188.827 435.02 192.017 445.76 201.227 454.98C204.843 458.571 209.008 461.562 213.567 463.84C215.017 464.58 216.477 465.24 217.957 465.84L218.307 465.98C218.867 466.214 219.427 466.434 219.987 466.64L221.167 467.07L221.957 467.35C222.497 467.55 223.037 467.73 223.577 467.91L223.767 467.97C226.367 468.84 228.967 469.6 231.527 470.36C240.937 473.11 249.817 475.71 256.937 482.83C264.057 489.95 266.657 498.83 269.417 508.26C270.347 511.43 271.297 514.65 272.417 517.87L272.627 518.47C272.787 518.92 272.947 519.37 273.117 519.82C273.287 520.27 273.497 520.82 273.697 521.28C273.767 521.46 273.837 521.65 273.917 521.83C274.517 523.297 275.183 524.754 275.917 526.2C278.195 530.759 281.186 534.924 284.777 538.54C293.997 547.75 304.777 550.9 315.137 553.94C324.547 556.7 333.437 559.3 340.557 566.42C347.677 573.54 350.277 582.42 353.037 591.85C354.598 597.783 356.666 603.571 359.217 609.15L363.727 609.15C360.537 603.21 358.727 596.9 356.877 590.72C353.967 580.81 351.227 571.44 343.377 563.6C335.527 555.76 326.177 553.01 316.257 550.1C306.337 547.19 296.097 544.2 287.607 535.71C284.163 532.23 281.321 528.202 279.197 523.79L279.087 523.57C276.666 518.243 274.702 512.72 273.217 507.06C270.307 497.15 267.567 487.78 259.727 479.94C251.887 472.1 242.517 469.36 232.607 466.45C226.958 464.964 221.445 463.003 216.127 460.59L215.867 460.47C211.457 458.349 207.431 455.507 203.957 452.06C195.467 443.57 192.467 433.32 189.557 423.41C186.647 413.5 183.917 404.13 176.067 396.28C168.217 388.43 158.857 385.7 148.947 382.79C139.037 379.88 128.787 376.89 120.297 368.4C115.776 363.774 112.268 358.257 109.997 352.2L109.997 361.44C112.065 365.058 114.612 368.382 117.567 371.32Z" fill="#FFC844"/>
<path d="M109.912 402H0V511.912H109.912V402Z" fill="#766DFA"/>
<path d="M46.6009 403.093L20.2343 442.008C17.4664 446.091 15.5301 450.679 14.5361 455.51C13.542 460.341 13.5096 465.321 14.4407 470.165C15.3718 475.009 17.2482 479.622 19.9626 483.74C22.6771 487.858 26.1764 491.402 30.2606 494.167L56.4442 511.912H99.9875L34.3579 467.44C34.1909 467.327 34.0478 467.183 33.9369 467.014C33.8259 466.846 33.7493 466.658 33.7113 466.46C33.6733 466.262 33.6747 466.058 33.7155 465.861C33.7563 465.663 33.8355 465.476 33.9488 465.309L73.3278 407.196C73.4397 407.028 73.5839 406.884 73.7519 406.772C73.92 406.66 74.1084 406.582 74.3067 406.544C74.5049 406.505 74.7088 406.506 74.9065 406.547C75.1043 406.588 75.2921 406.667 75.4589 406.781L109.91 430.125V402H47.3886C47.1077 402.36 46.8512 402.721 46.6009 403.093Z" fill="#FC805F"/>
<path d="M109.916 489.13V459.625L80.6555 439.798L66.9531 460.022L109.916 489.13Z" fill="#F3F1E5"/>
</svg>
