<svg width="106" height="99" viewBox="0 0 106 99" fill="none" xmlns="http://www.w3.org/2000/svg">
<g opacity="0.1">
<path d="M78.8607 94.0182C81.6162 95.5256 84.215 96.9466 87.4378 96.9466C90.6605 96.9466 93.2624 95.5256 96.018 94.0182C98.9655 92.418 102.016 90.7442 106 90.645L106 91.9251C102.336 92.0275 99.436 93.6085 96.6293 95.1255C93.7297 96.7257 90.9902 98.2107 87.4378 98.2107C83.8853 98.2107 81.149 96.7129 78.2462 95.1255C75.3435 93.5381 72.3511 91.8995 68.5075 91.8995C65.7551 91.8995 63.4348 92.7444 61.2746 93.8198L61.2746 92.3988C63.4124 91.4003 65.7327 90.6354 68.5075 90.6354C72.6776 90.6386 75.8203 92.3572 78.8607 94.0182Z" fill="#766DFA"/>
<path d="M78.8607 78.9122C81.6162 80.4196 84.215 81.8406 87.4378 81.8406C90.6605 81.8406 93.2624 80.4196 96.018 78.9122C98.9655 77.312 102.016 75.6414 106 75.539L106 76.8192C102.336 76.9216 99.436 78.4994 96.6293 80.0196C93.7297 81.6198 90.9902 83.1047 87.4378 83.1047C83.8853 83.1047 81.149 81.6069 78.2462 80.0196C75.3435 78.4322 72.3511 76.7936 68.5075 76.7936C65.7551 76.7936 63.4348 77.6385 61.2746 78.7138L61.2746 77.2928C63.4124 76.2943 65.7327 75.5294 68.5075 75.5294C72.6776 75.5294 75.8203 77.2512 78.8607 78.9122Z" fill="#766DFA"/>
<path d="M102.905 45.7273C103.033 46.1337 103.152 46.5466 103.273 46.9594C100.828 47.5291 98.7033 48.6876 96.6294 49.8206C93.7299 51.4208 90.9904 52.9058 87.4379 52.9058C83.8855 52.9058 81.1491 51.408 78.2464 49.8206C75.3436 48.2332 72.3513 46.5946 68.5076 46.5946C65.7553 46.5946 63.435 47.4363 61.2748 48.5148L61.2748 47.0938C63.4126 46.0921 65.7329 45.3304 68.5076 45.3304C72.6681 45.3304 75.8205 47.049 78.8609 48.7132C81.6164 50.2174 84.2151 51.6416 87.4379 51.6416C90.6607 51.6416 93.2626 50.2174 96.0181 48.7132C98.1464 47.5291 100.345 46.3321 102.905 45.7273Z" fill="#766DFA"/>
<path d="M61.294 1.74428C61.8637 1.95764 62.4291 2.17738 62.9902 2.40354C61.5417 3.01666 60.131 3.7156 58.7657 4.49661C55.8661 6.0968 53.1266 7.58179 49.5742 7.58179C46.0218 7.58179 43.2854 6.0808 40.3827 4.49661C37.4799 2.91242 34.4876 1.27059 30.6439 1.27059C29.0777 1.27726 27.5235 1.54444 26.0449 2.06112L25.9617 2.08991C24.2104 2.74837 22.5178 3.55347 20.9019 4.49661C18.0024 6.0968 15.2629 7.58179 11.7104 7.58178C8.1612 7.58178 5.42164 6.0808 2.51889 4.49661C1.69639 4.04535 0.861092 3.59089 0.00338764 3.16844L0.00338771 1.74744L0.0578082 1.77307L0.294632 1.88508C0.461052 1.96509 0.614685 2.0451 0.790707 2.12831L0.845089 2.1539C1.62918 2.54755 2.39089 2.96362 3.13978 3.37327C5.89212 4.87745 8.49084 6.29843 11.7136 6.30163C14.9364 6.30483 17.5351 4.87745 20.2906 3.37327C21.0459 2.95722 21.814 2.54118 22.6077 2.14433C22.7837 2.05472 22.9598 1.96829 23.1422 1.88188C23.2062 1.84987 23.2702 1.82106 23.3374 1.78905C23.4718 1.72504 23.6063 1.66425 23.7439 1.60024L24.2079 1.39861C24.2655 1.37301 24.3231 1.34741 24.3808 1.32501C24.848 1.13086 25.327 0.951616 25.8177 0.787329C25.8252 0.78838 25.8327 0.78838 25.8401 0.787329C27.3876 0.268467 29.0086 0.00263352 30.6407 4.72233e-05C34.8012 4.74052e-05 37.9536 1.71868 40.9972 3.38288C43.7495 4.88706 46.3482 6.3112 49.571 6.3112C52.7938 6.3112 55.3957 4.88706 58.148 3.38288C59.1754 2.80681 60.2123 2.24674 61.294 1.74428Z" fill="#766DFA"/>
<path d="M0.287468 16.9911C0.453888 17.0743 0.607521 17.1544 0.783539 17.2376L0.834717 17.2632C1.62202 17.6568 2.38372 18.0697 3.13261 18.4825C5.88495 19.9867 8.48367 21.4077 11.7065 21.4077C14.9293 21.4077 17.5279 19.9867 20.2835 18.4793C21.0388 18.0665 21.8069 17.6472 22.5974 17.2536C22.7702 17.1672 22.9494 17.0775 23.1254 16.9943L23.327 16.8983C23.4583 16.8375 23.5927 16.7735 23.7271 16.7127C23.8615 16.6519 24.0472 16.5783 24.1944 16.5111C24.252 16.4855 24.3096 16.4599 24.3672 16.4375C24.8344 16.2422 25.3273 16.0598 25.8041 15.8998C25.8115 15.8979 25.8192 15.8979 25.8266 15.8998C27.3746 15.3836 28.9953 15.1189 30.6272 15.1157C34.7877 15.1157 37.94 16.8343 40.9836 18.4985C43.7359 20.0027 46.3347 21.4237 49.5575 21.4237C52.7802 21.4237 55.3821 20.0027 58.1345 18.4953C61.1748 16.8343 64.3208 15.1157 68.4909 15.1157C72.661 15.1157 75.8038 16.8343 78.8474 18.4953C81.5997 20.0027 84.1984 21.4237 87.4212 21.4237C88.0422 21.4225 88.662 21.3701 89.2743 21.2669C89.5943 21.6349 89.9143 22.0062 90.2344 22.3838C89.317 22.5956 88.3787 22.703 87.4372 22.7039C83.888 22.7039 81.1484 21.2061 78.2457 19.6187C75.3429 18.0313 72.3506 16.3959 68.5069 16.3959C64.6633 16.3959 61.6645 18.0345 58.7649 19.6187C55.8654 21.2029 53.1259 22.7039 49.5734 22.7039C46.021 22.7039 43.2847 21.2061 40.3819 19.6187C37.4792 18.0313 34.4868 16.3959 30.6431 16.3959C29.0735 16.402 27.5159 16.6703 26.0346 17.1896C26.0186 17.1909 26.0026 17.1909 25.9866 17.1896C24.2263 17.8488 22.5251 18.6561 20.9012 19.6027C18.0016 21.2029 15.2621 22.6878 11.7097 22.6878C8.16044 22.6878 5.42088 21.1901 2.51813 19.6027C1.69563 19.1514 0.860329 18.6969 0.00262471 18.2777L0.00262477 16.8567L0.0602496 16.8823C0.130661 16.9207 0.213852 16.9559 0.287468 16.9911Z" fill="#766DFA"/>
<path d="M78.8608 63.8062C81.6163 65.3104 84.215 66.7346 87.4378 66.7346C90.6606 66.7346 93.2625 65.3104 96.018 63.8062C98.8984 62.2252 101.891 60.6058 105.757 60.4394C105.792 60.8619 105.824 61.2907 105.85 61.7196C102.256 61.8604 99.3976 63.419 96.6293 64.9199C93.7298 66.5201 90.9902 68.0051 87.4378 68.0051C83.8854 68.0051 81.149 66.5041 78.2463 64.9199C75.3435 63.3358 72.3512 61.694 68.5075 61.694C65.7552 61.694 63.4349 62.5357 61.2746 63.595L61.2746 62.174C63.4125 61.1755 65.7328 60.4138 68.5075 60.4138C72.6776 60.4138 75.8204 62.142 78.8608 63.8062Z" fill="#766DFA"/>
<path d="M0.281845 32.0967C0.454666 32.1799 0.624321 32.2632 0.793938 32.3496L0.82914 32.3496C1.61643 32.7432 2.38131 33.1593 3.1334 33.5721C5.88573 35.0795 8.48446 36.5005 11.7073 36.5005C14.93 36.5005 17.5287 35.0795 20.2843 33.5721C21.0364 33.1593 21.8045 32.7432 22.5918 32.3464L22.6206 32.3464C22.7902 32.2632 22.963 32.1767 23.1358 32.0935C23.2094 32.0583 23.2831 32.0263 23.3535 31.9911C23.4815 31.9303 23.6095 31.8727 23.7375 31.8151C23.8655 31.7575 24.0767 31.6647 24.2463 31.591C24.2912 31.591 24.3328 31.5527 24.3776 31.5367C24.847 31.3382 25.3281 31.1579 25.821 30.9958C25.821 30.9958 25.8209 30.9958 25.8401 30.9958C27.388 30.4784 29.0087 30.2126 30.6407 30.2085C34.8012 30.2085 37.9536 31.9303 40.9972 33.5913C43.7495 35.0987 46.3482 36.5196 49.571 36.5196C52.7938 36.5196 55.3957 35.0987 58.1481 33.5913C61.1884 31.9303 64.3344 30.2085 68.5045 30.2085C72.6746 30.2085 75.8174 31.9271 78.8578 33.5913C81.6133 35.0987 84.212 36.5196 87.4348 36.5196C90.6576 36.5196 93.2595 35.0987 96.015 33.5913C96.4663 33.3449 96.924 33.0952 97.3848 32.8488C97.5928 33.2233 97.7945 33.5977 97.9961 33.9754C97.5352 34.2186 97.0808 34.4682 96.6263 34.7146C93.7268 36.3148 90.9872 37.7998 87.4348 37.7998C83.8824 37.7998 81.1461 36.302 78.2433 34.7146C75.3406 33.1272 72.3482 31.4886 68.5045 31.4886C64.6609 31.4886 61.6621 33.1304 58.7625 34.7146C55.863 36.2988 53.1234 37.7998 49.571 37.7998C46.0186 37.7998 43.2823 36.302 40.3795 34.7146C37.4768 33.1272 34.4844 31.4886 30.6407 31.4886C29.0709 31.4958 27.5133 31.7652 26.0322 32.2855C26.0158 32.2928 25.9986 32.2982 25.981 32.3016C24.2215 32.9602 22.5212 33.7674 20.8988 34.7146C17.9992 36.3148 15.2597 37.7998 11.7073 37.7998C8.15802 37.7998 5.41846 36.302 2.51571 34.7146C1.69001 34.2634 0.85791 33.8089 0.000206186 33.3897L0.000206249 31.9687L0.0674441 31.9975C0.137856 32.0295 0.214638 32.0647 0.281845 32.0967Z" fill="#766DFA"/>
</g>
</svg>
