<svg width="97" height="273" viewBox="0 0 97 273" fill="none" xmlns="http://www.w3.org/2000/svg">
<path d="M96.997 187.786L52.7447 143.883C52.3569 143.495 52.0415 143.042 51.813 142.546C51.5888 142.061 51.4592 141.538 51.4311 141.005C51.4029 140.49 51.4811 139.975 51.6608 139.492C51.8358 139.022 52.1113 138.595 52.4682 138.241L97 94.0546V0L25.5162 70.9385C16.7957 79.6069 10.0612 90.039 5.7719 101.524C1.38184 113.332 -0.538022 125.904 0.129369 138.472C0.813436 151.501 3.97439 164.284 9.44565 176.148C15.0314 188.308 22.7765 199.371 32.3109 208.81L97 273L96.997 187.786Z" fill="#4CE467"/>
</svg>
