<svg width="97" height="113" viewBox="0 0 97 113" fill="none" xmlns="http://www.w3.org/2000/svg">
<path d="M96.0742 47.3683C96.0742 82.3044 48.0324 112.803 48.0324 112.803C48.0324 112.803 0 81.4074 0 47.3683C0.176987 34.7447 5.3159 22.6981 14.3054 13.8338C23.2948 4.96952 35.4123 0 48.0371 0C60.6619 0 72.7794 4.96952 81.7688 13.8338C90.7583 22.6981 95.8972 34.7447 96.0742 47.3683Z" fill="#4CE467"/>
<path d="M51.3134 49.0215H45.7656V61.8323H51.3134V49.0215Z" fill="#001705"/>
<path d="M48.5407 25.7734C41.9267 25.7734 35.5836 28.4008 30.9068 33.0777C26.2299 37.7545 23.6025 44.0976 23.6025 50.7116V61.834H29.2039V50.7116C29.2039 45.5677 31.2464 40.6343 34.8824 36.9958C38.5184 33.3573 43.4504 31.3114 48.5943 31.3078C53.7289 31.3255 58.6471 33.3777 62.2715 37.0147C65.896 40.6517 67.9312 45.577 67.9311 50.7116V61.834H73.4253V50.7116C73.4253 44.1069 70.8053 37.7719 66.14 33.0966C61.4748 28.4213 55.1454 25.7876 48.5407 25.7734Z" fill="#001705"/>
<path d="M53.5154 38.2012H42.7951C41.6759 38.2012 40.5677 38.4216 39.5337 38.8499C38.4996 39.2782 37.5601 39.906 36.7687 40.6974C35.9773 41.4888 35.3495 42.4283 34.9212 43.4623C34.4929 44.4964 34.2725 45.6046 34.2725 46.7238V62.0673H39.8203V44.0973C39.8184 44.0505 39.8261 44.0037 39.8428 43.9599C39.8595 43.9161 39.8849 43.8761 39.9174 43.8423C39.95 43.8085 39.989 43.7816 40.0322 43.7633C40.0753 43.7449 40.1218 43.7355 40.1687 43.7356H56.0884C56.1353 43.7355 56.1817 43.7449 56.2249 43.7633C56.2681 43.7816 56.307 43.8085 56.3396 43.8423C56.3721 43.8761 56.3975 43.9161 56.4142 43.9599C56.4309 44.0037 56.4386 44.0505 56.4368 44.0973V62.0673H61.9845V46.7238C61.9846 44.4727 61.094 42.3131 59.5073 40.7163C57.9205 39.1195 55.7665 38.2153 53.5154 38.2012Z" fill="#001705"/>
</svg>
