<svg width="192" height="192" viewBox="0 0 192 192" fill="none" xmlns="http://www.w3.org/2000/svg">
<g opacity="0.33">
<path d="M25.943 99.5365C28.8937 102.481 30.001 106.197 31.1604 110.134C32.4589 114.557 33.7981 119.131 37.7459 123.073C41.6937 127.015 46.2677 128.36 50.6909 129.658C54.5865 130.818 58.2734 131.879 61.2126 134.777C64.1517 137.676 65.1894 141.397 66.3314 145.299C67.6242 149.722 68.9633 154.296 72.9111 158.238C72.9348 158.265 72.96 158.29 72.9865 158.313L73.0561 158.383C77.0039 162.331 81.5778 163.67 86.001 164.968C89.8966 166.128 93.5836 167.189 96.5169 170.081C99.4503 172.974 100.494 176.702 101.642 180.609C102.702 184.244 103.804 187.983 106.355 191.392L109.369 191.392C108.339 190.269 107.454 189.02 106.737 187.676C106.722 187.564 106.687 187.456 106.633 187.357C105.538 185.023 104.659 182.593 104.007 180.099C102.772 175.873 101.601 171.884 98.2097 168.505C98.2097 168.505 98.1575 168.458 98.1344 168.429L98.0648 168.36C94.7025 164.992 90.7083 163.821 86.4706 162.563C82.3604 161.357 78.1054 160.11 74.5923 156.638C71.0793 153.165 69.8677 148.87 68.6619 144.754C67.4271 140.528 66.2561 136.539 62.8648 133.16L62.7952 133.09L62.7257 133.015C59.3575 129.647 55.3633 128.476 51.1315 127.218C48.6365 126.567 46.2069 125.688 43.8735 124.592C43.7726 124.542 43.6652 124.507 43.5546 124.487C41.9973 123.661 40.5711 122.608 39.3227 121.363C35.7923 117.838 34.5401 113.554 33.3227 109.409C32.1053 105.264 30.9169 101.194 27.5256 97.8148C26.8234 97.1114 26.0589 96.473 25.2416 95.9075C24.859 96.5858 24.4822 97.264 24.0822 97.9481C24.7493 98.42 25.3722 98.9517 25.943 99.5365Z" fill="#FFC844"/>
<path d="M17.043 124.221C18.3415 128.644 19.6806 133.218 23.6227 137.165C27.5647 141.113 32.1444 142.452 36.5676 143.745C40.469 144.905 44.156 145.971 47.0893 148.864C50.0227 151.757 51.0662 155.484 52.2082 159.386C53.5068 163.809 54.8459 168.383 58.7937 172.331L58.8691 172.4L58.9328 172.476C62.8807 176.418 67.4546 177.763 71.8778 179.055C75.7792 180.215 79.4604 181.281 82.3995 184.174C84.4575 186.261 85.5995 188.731 86.5038 191.392L89.043 191.392C88.0169 188.209 86.7241 185.218 84.1154 182.603L84.0401 182.534L83.9705 182.458C80.6024 179.09 76.614 177.925 72.3763 176.661C68.2604 175.455 64.0111 174.209 60.498 170.742C56.985 167.276 55.7734 162.968 54.5676 158.852C53.3328 154.626 52.1618 150.638 48.7705 147.258L48.6951 147.189L48.6256 147.113C45.2575 143.745 41.2691 142.58 37.0314 141.316C34.5353 140.669 32.1054 139.79 29.7734 138.69C29.6726 138.642 29.5652 138.608 29.4546 138.592C27.8967 137.763 26.4689 136.71 25.2169 135.467C21.6922 131.936 20.4343 127.652 19.2227 123.508C18.3241 120.447 17.4836 117.508 15.7444 114.812C15.356 115.71 14.9734 116.603 14.585 117.502C15.6063 119.662 16.429 121.911 17.043 124.221Z" fill="#FFC844"/>
<path d="M1.22256 169.38C3.53932 170.423 5.93769 171.274 8.39358 171.925C12.2892 173.084 15.9762 174.145 18.9153 177.044C21.8545 179.942 22.8921 183.664 24.0341 187.566C24.4052 188.835 24.782 190.116 25.1936 191.392L27.7617 191.392C27.2342 189.954 26.8052 188.493 26.382 187.055C25.1472 182.829 23.9762 178.841 20.5849 175.461L20.5153 175.392C20.5153 175.392 20.469 175.339 20.44 175.316C17.0719 171.948 13.0835 170.783 8.84577 169.519C6.35084 168.869 3.92121 167.99 1.58778 166.893C1.54564 166.872 1.5008 166.856 1.45446 166.847C1.40228 167.734 1.31531 168.545 1.22256 169.38Z" fill="#FFC844"/>
<path d="M54.1216 71.3568C57.0723 74.3075 58.1795 78.0176 59.339 81.9539C60.6375 86.3771 61.9766 90.951 65.9245 94.8988C69.8723 98.8466 74.4405 100.18 78.8694 101.479C82.7651 102.638 86.4463 103.699 89.3854 106.592C92.3245 109.484 93.3622 113.218 94.5042 117.119C95.8028 121.542 97.1419 126.116 101.09 130.064L101.165 130.134L101.235 130.209C105.177 134.151 109.751 135.49 114.18 136.789C118.075 137.948 121.762 139.015 124.696 141.902C127.629 144.789 128.632 148.528 129.791 152.429C131.084 156.852 132.423 161.426 136.371 165.374C140.319 169.322 144.893 170.661 149.316 171.954C153.246 173.113 156.962 174.192 159.907 177.142C162.852 180.093 163.965 183.809 165.125 187.739C165.484 188.951 165.843 190.174 166.255 191.392L168.719 191.392C168.197 189.966 167.774 188.493 167.351 187.084C166.116 182.864 164.945 178.87 161.554 175.49C158.162 172.11 154.197 170.957 149.959 169.693C145.722 168.429 141.53 167.223 138.006 163.699C136.762 162.449 135.709 161.023 134.881 159.467C134.86 159.355 134.825 159.246 134.777 159.142C133.681 156.809 132.802 154.379 132.151 151.884C130.916 147.658 129.745 143.67 126.353 140.29L126.278 140.221L126.209 140.145C122.84 136.777 118.852 135.612 114.614 134.348C110.498 133.142 106.249 131.896 102.736 128.423C99.223 124.951 98.0115 120.655 96.8056 116.539C95.5709 112.313 94.3999 108.325 91.0085 104.945L90.9274 104.87L90.8636 104.8C87.4955 101.432 83.5071 100.267 79.2694 99.0031C76.7742 98.3538 74.3444 97.4747 72.0114 96.3771C71.9102 96.3285 71.803 96.2934 71.6926 96.2727C70.1337 95.4483 68.7055 94.3972 67.4549 93.1539C63.9303 89.6234 62.6723 85.3394 61.4607 81.1944C60.2491 77.0495 59.0549 72.9799 55.6636 69.6002C53.1883 67.1249 50.3708 65.8379 47.3737 64.835C46.8211 65.4688 46.2742 66.1046 45.7332 66.7423C48.8984 67.8205 51.7564 68.9915 54.1216 71.3568Z" fill="#FFC844"/>
<path d="M40.0339 85.4164C42.9847 88.3671 44.0919 92.083 45.2223 96.0135C46.5151 100.437 47.86 105.011 51.802 108.958C55.744 112.906 60.3238 114.245 64.747 115.538C68.6484 116.698 72.3295 117.764 75.2687 120.657C78.2078 123.55 79.2455 127.277 80.3876 131.179C81.6861 135.602 83.0252 140.182 86.9673 144.124L87.0484 144.199L87.1122 144.269C91.06 148.216 95.6339 149.556 100.057 150.848C103.959 152.008 107.64 153.074 110.579 155.967C113.518 158.86 114.556 162.587 115.698 166.489C116.996 170.912 118.335 175.486 122.277 179.434C126.219 183.382 130.799 184.721 135.222 186.019C139.159 187.179 142.869 188.257 145.819 191.202L145.97 191.364L149.014 191.364C148.54 190.729 148.02 190.128 147.46 189.567C144.092 186.199 140.103 185.028 135.866 183.77C131.628 182.512 127.437 181.3 123.906 177.77C122.665 176.519 121.612 175.093 120.782 173.538C120.767 173.427 120.733 173.319 120.683 173.219C119.586 170.884 118.706 168.453 118.057 165.956C116.817 161.735 115.651 157.741 112.26 154.361L112.179 154.292L112.115 154.222C108.747 150.854 104.759 149.683 100.521 148.425C96.4049 147.219 92.1499 145.967 88.6368 142.5C85.1238 139.034 83.918 134.732 82.7122 130.611C81.4716 126.39 80.3064 122.396 76.9151 119.016L76.8397 118.947L76.7702 118.877C73.4021 115.509 69.4136 114.338 65.176 113.08C62.6803 112.43 60.2505 111.549 57.918 110.448C57.8155 110.399 57.706 110.366 57.5933 110.35C56.037 109.521 54.6112 108.469 53.3615 107.225C49.8368 103.7 48.5788 99.4164 47.3672 95.2656C46.1556 91.1149 44.9614 87.0511 41.5701 83.6714C39.8425 81.974 37.7926 80.6395 35.5412 79.7468C35.0774 80.3961 34.6252 81.0511 34.1731 81.7004C36.3691 82.5075 38.3673 83.7744 40.0339 85.4164Z" fill="#FFC844"/>
<path d="M22.4811 157.832C26.3826 158.992 30.0637 160.058 33.0029 162.951C35.942 165.844 36.9797 169.577 38.1217 173.479C39.4202 177.902 40.7594 182.476 44.7014 186.418C44.7279 186.441 44.7531 186.466 44.7768 186.493L44.8463 186.563C47.0071 188.686 49.5907 190.332 52.429 191.392L60.3594 191.392C59.6811 191.183 58.9913 190.98 58.3014 190.777C54.1855 189.571 49.9304 188.319 46.4174 184.852C42.9043 181.386 41.6753 177.084 40.5159 172.951C39.2753 168.725 38.1101 164.731 34.7188 161.357C34.691 161.337 34.6657 161.313 34.6434 161.287L34.5739 161.218C31.2058 157.85 27.2173 156.679 22.9797 155.421C20.4871 154.769 18.0596 153.889 15.7275 152.794C15.6263 152.741 15.5164 152.705 15.4029 152.69C13.8466 151.862 12.4207 150.809 11.171 149.565C9.01802 147.329 7.40407 144.63 6.45211 141.676C6.11974 142.924 5.79895 144.176 5.48977 145.432C6.49828 147.584 7.87115 149.545 9.54774 151.229C13.484 155.2 18.0579 156.539 22.4811 157.832Z" fill="#FFC844"/>
<path d="M8.11719 191.392C7.63731 190.743 7.11029 190.131 6.54039 189.56L6.46503 189.49L6.39546 189.415C4.58968 187.638 2.43381 186.256 0.065002 185.357C0.0650019 186.215 0.0186333 187.096 0.00124199 187.937C1.79257 188.689 3.4282 189.768 4.82447 191.119L5.07371 191.38L8.11719 191.392Z" fill="#FFC844"/>
<path d="M115.669 25.5935C116.962 30.0167 118.301 34.5906 122.249 38.5384C126.196 42.4862 130.77 43.8254 135.194 45.1181C139.095 46.2775 142.776 47.3442 145.715 50.237C148.654 53.1297 149.692 56.8573 150.834 60.7587C152.127 65.1877 153.472 69.7616 157.414 73.7036L157.489 73.779L157.559 73.8486C161.507 77.7964 166.081 79.1355 170.504 80.4341C174.405 81.5935 178.086 82.6544 181.025 85.5471C183.965 88.4399 185.002 92.1674 186.144 96.0689C187.35 100.196 188.602 104.451 191.941 108.208L191.941 104.37C191.686 103.965 191.443 103.559 191.217 103.141C191.201 103.031 191.168 102.923 191.118 102.822C190.019 100.49 189.138 98.0599 188.486 95.5645C187.252 91.3384 186.086 87.35 182.689 83.9703L182.608 83.895L182.544 83.8254C179.176 80.4573 175.188 79.2863 170.95 78.0283C166.84 76.8225 162.585 75.5703 159.072 72.1036C155.559 68.637 154.353 64.3355 153.147 60.2196C151.907 55.9935 150.736 52.0051 147.35 48.6254L147.275 48.5558L147.205 48.4804C143.837 45.1123 139.849 43.9413 135.611 42.6833C133.118 42.0313 130.691 41.1523 128.359 40.0572C128.257 40.0061 128.147 39.9709 128.034 39.9529C126.478 39.1246 125.052 38.0717 123.802 36.8283C120.278 33.3036 119.02 29.0196 117.802 24.8746C116.857 21.634 115.947 18.5384 114.057 15.75L111.907 16.7181C113.849 19.3906 114.718 22.4224 115.669 25.5935Z" fill="#FFC844"/>
<path d="M96.388 29.0886C99.3387 32.0394 100.446 35.7495 101.576 39.6857C102.875 44.1089 104.214 48.6829 108.162 52.6249C112.11 56.5669 116.684 57.9118 121.107 59.2104C125.003 60.3698 128.684 61.4307 131.623 64.3234C134.562 67.2162 135.588 70.9206 136.747 74.851C138.04 79.2742 139.379 83.8481 143.327 87.7959L143.402 87.8655L143.472 87.9351C147.414 91.8829 151.988 93.222 156.417 94.5206C160.313 95.68 164 96.7409 166.933 99.6336C169.866 102.526 170.91 106.254 172.058 110.161C173.35 114.584 174.689 119.158 178.637 123.106C182.585 127.054 187.159 128.387 191.582 129.686L191.965 129.802L191.965 127.384C187.907 126.19 183.727 124.915 180.278 121.466C179.033 120.215 177.98 118.787 177.153 117.228C177.134 117.117 177.099 117.01 177.049 116.909C175.953 114.575 175.074 112.146 174.423 109.651C173.188 105.425 172.017 101.437 168.626 98.0568L168.55 97.9814L168.481 97.9119C165.113 94.5438 161.124 93.3785 156.887 92.1148C152.771 90.909 148.521 89.6626 145.008 86.1901C141.495 82.7177 140.284 78.422 139.078 74.3061C137.843 70.08 136.672 66.0916 133.281 62.7119L133.2 62.6307L133.136 62.5669C129.768 59.1988 125.779 58.0336 121.542 56.7698C119.046 56.1205 116.617 55.2414 114.284 54.1437C114.182 54.0951 114.075 54.06 113.965 54.0394C112.407 53.2133 110.979 52.1624 109.727 50.9205C106.202 47.3901 104.95 43.106 103.733 38.9611C102.516 34.8162 101.327 30.7466 97.9359 27.3669C97.1599 26.5852 96.305 25.8858 95.3851 25.2799C94.6315 25.7205 93.8778 26.1669 93.1242 26.6191C94.3235 27.2837 95.4224 28.1152 96.388 29.0886Z" fill="#FFC844"/>
<path d="M82.3013 43.1777C85.252 46.1284 86.3593 49.8443 87.5187 53.7748C88.8172 58.198 90.1564 62.7719 94.0984 66.7197C98.0405 70.6675 102.62 72.0067 107.043 73.2994C110.945 74.4588 114.626 75.5255 117.565 78.4183C120.504 81.311 121.542 85.0386 122.684 88.94C123.982 93.3632 125.322 97.9371 129.269 101.885L129.345 101.96L129.409 102.03C133.356 105.972 137.93 107.317 142.359 108.61C146.255 109.769 149.936 110.836 152.875 113.728C155.814 116.621 156.852 120.349 157.994 124.25C159.293 128.673 160.632 133.247 164.58 137.195C168.527 141.143 173.096 142.482 177.519 143.775C181.455 144.934 185.165 146.018 188.116 148.992C189.874 150.829 191.199 153.035 191.994 155.45L191.994 150.134C191.351 149.13 190.601 148.199 189.756 147.357C186.388 143.989 182.4 142.818 178.162 141.56C173.925 140.302 169.733 139.085 166.203 135.56C164.963 134.309 163.912 132.883 163.084 131.328C163.063 131.216 163.028 131.107 162.98 131.004C161.881 128.671 161.002 126.241 160.354 123.746C159.113 119.526 157.948 115.531 154.556 112.152L154.481 112.082L154.411 112.012C151.043 108.644 147.055 107.473 142.817 106.215C138.701 105.015 134.446 103.763 130.939 100.297C127.432 96.8299 126.214 92.5284 125.009 88.4067C123.768 84.1864 122.603 80.1922 119.211 76.8125L119.13 76.7371L119.067 76.6675C115.698 73.3052 111.71 72.1342 107.472 70.8704C104.976 70.2237 102.546 69.3445 100.214 68.2444C100.112 68.1949 100.002 68.1617 99.8898 68.1458C98.3335 67.3175 96.9076 66.2646 95.6578 65.0212C92.1332 61.4965 90.8752 57.2125 89.6637 53.0617C88.4521 48.911 87.2579 44.8472 83.8665 41.4675C81.9761 39.6213 79.713 38.2002 77.2288 37.2994C76.4926 37.8501 75.7622 38.4125 75.0376 38.9748C77.7622 39.9487 80.2201 41.0965 82.3013 43.1777Z" fill="#FFC844"/>
<path d="M163.374 16.9451C167.275 18.1045 170.956 19.1654 173.895 22.0639C176.834 24.9625 177.872 28.6842 179.014 32.5857C180.307 37.0089 181.646 41.5828 185.594 45.5306L185.669 45.6002L185.739 45.6697C187.537 47.4566 189.647 48.8988 191.965 49.9248L191.965 47.2697C190.255 46.4158 188.69 45.2988 187.327 43.9596C183.849 40.4465 182.603 36.1915 181.397 32.0755C180.162 27.8494 178.991 23.861 175.6 20.4813L175.53 20.4117C175.501 20.4117 175.484 20.3596 175.455 20.3364C172.092 16.9683 168.098 15.7972 163.86 14.5393C161.365 13.89 158.936 13.0108 156.603 11.9132C156.501 11.8646 156.394 11.8295 156.284 11.8088C153.068 10.1081 150.456 7.45586 148.805 4.21463C148.029 4.39434 147.252 4.59144 146.487 4.79434C147.475 6.85153 148.804 8.72713 150.417 10.3422C154.376 14.3074 158.95 15.6465 163.374 16.9451Z" fill="#FFC844"/>
<path d="M187.409 184.957C183.884 181.427 182.626 177.143 181.414 172.998C180.203 168.853 179.009 164.783 175.617 161.404C172.226 158.024 168.255 156.864 164.023 155.607C159.884 154.389 155.594 153.137 152.07 149.612C150.824 148.362 149.771 146.934 148.945 145.375C148.929 145.264 148.896 145.156 148.846 145.056C147.749 142.722 146.867 140.293 146.214 137.798C144.98 133.572 143.814 129.583 140.417 126.204C140.395 126.176 140.37 126.15 140.342 126.128L140.278 126.059C136.91 122.691 132.916 121.52 128.684 120.262C124.568 119.056 120.313 117.809 116.8 114.337C113.287 110.864 112.081 106.569 110.869 102.453C109.635 98.2268 108.464 94.2384 105.072 90.8587L104.997 90.7833L104.933 90.7137C101.565 87.3456 97.5709 86.1746 93.3391 84.9166C90.8465 84.2646 88.419 83.3855 86.0869 82.2905C85.9846 82.2393 85.8752 82.2042 85.7623 82.1862C84.206 81.3578 82.7801 80.305 81.5304 79.0615C77.9999 75.5369 76.7478 71.2528 75.5304 67.1079C74.313 62.963 73.1246 58.8934 69.7333 55.5137C67.1709 52.9514 64.2492 51.6586 61.1361 50.6441C60.4868 51.2238 59.8318 51.8499 59.1941 52.4644C62.4927 53.4673 65.5709 54.6325 68.0984 57.1543C71.0434 60.0992 72.1564 63.8151 73.3158 67.7456C74.6086 72.1688 75.9478 76.7485 79.8956 80.6905C83.8434 84.6326 88.4173 85.9775 92.8405 87.276C96.742 88.4354 100.423 89.4963 103.356 92.3891C106.29 95.2818 107.339 99.0094 108.481 102.917C109.774 107.34 111.113 111.914 115.061 115.856L115.136 115.931L115.298 116.14C119.246 120.088 123.82 121.427 128.243 122.725C132.145 123.885 135.826 124.946 138.759 127.838C141.693 130.731 142.742 134.459 143.884 138.36C145.177 142.789 146.516 147.363 150.464 151.305C154.412 155.247 158.985 156.592 163.409 157.891C167.339 159.05 171.055 160.128 174.006 163.108C176.956 166.088 178.064 169.769 179.223 173.705C180.516 178.128 181.861 182.702 185.803 186.644C187.592 188.425 189.693 189.863 192 190.888L192 188.296C190.304 187.431 188.754 186.304 187.409 184.957Z" fill="#FFC844"/>
<path d="M129.756 11.5084C131.055 15.9316 132.394 20.5055 136.336 24.4534C140.278 28.4012 144.858 29.7403 149.281 31.0331C153.182 32.1925 156.869 33.2592 159.803 36.1519C162.736 39.0447 163.779 42.7722 164.921 46.6737C166.22 51.0969 167.559 55.6708 171.507 59.6186L171.582 59.6882L171.646 59.7635C175.594 63.7056 180.168 65.0447 184.597 66.3432C187.2 67.1085 189.71 67.8447 191.965 69.1143L191.965 66.4128C189.75 65.4064 187.454 64.59 185.101 63.9722C180.985 62.7664 176.736 61.52 173.223 58.0534C169.71 54.5867 168.498 50.2853 167.292 46.1635C166.058 41.9374 164.887 37.949 161.495 34.5693L161.42 34.4997L161.35 34.4244C157.982 31.0563 153.994 29.891 149.756 28.6273C147.263 27.9779 144.835 27.0987 142.504 26.0012C142.403 25.9527 142.296 25.9194 142.185 25.9026C140.626 25.0761 139.198 24.0231 137.947 22.778C134.423 19.2534 133.165 14.9635 131.953 10.8186C131.779 10.2389 131.611 9.65915 131.437 9.07944L129.24 9.82147L129.756 11.5084Z" fill="#FFC844"/>
<path d="M187.982 7.97125C189.814 9.92942 191.175 12.2785 191.965 14.8408L191.965 9.22921C191.311 8.20901 190.551 7.26076 189.698 6.40024C189.67 6.38015 189.645 6.35678 189.623 6.33066L189.553 6.2611C186.185 2.89298 182.197 1.72196 177.959 0.463992L176.382 0.000230381C174.51 0.145157 172.649 0.330654 170.794 0.533553C172.959 1.46124 175.187 2.23609 177.46 2.8524C181.385 3.99442 185.043 5.07849 187.982 7.97125Z" fill="#FFC844"/>
</g>
</svg>
