<svg width="331" height="330" viewBox="0 0 331 330" fill="none" xmlns="http://www.w3.org/2000/svg">
<g opacity="0.33">
<path d="M286.278 171.599C281.191 176.675 279.282 183.082 277.283 189.868C275.045 197.493 272.736 205.378 265.93 212.174C259.124 218.97 251.239 221.289 243.614 223.527C236.898 225.526 230.542 227.355 225.475 232.352C220.408 237.349 218.619 243.765 216.65 250.491C214.421 258.116 212.113 266.002 205.307 272.798C205.266 272.843 205.223 272.887 205.177 272.927L205.057 273.047C198.251 279.853 190.366 282.162 182.74 284.401C176.024 286.399 169.668 288.228 164.611 293.215C159.554 298.202 157.755 304.628 155.777 311.364C153.948 317.631 152.049 324.077 147.652 329.953L142.455 329.953C144.231 328.018 145.756 325.865 146.992 323.547C147.018 323.354 147.079 323.168 147.172 322.997C149.06 318.973 150.575 314.785 151.699 310.485C153.828 303.199 155.847 296.323 161.693 290.497C161.693 290.497 161.783 290.417 161.823 290.367L161.943 290.247C167.739 284.441 174.625 282.422 181.931 280.253C189.017 278.174 196.352 276.026 202.408 270.039C208.465 264.053 210.553 256.647 212.632 249.552C214.761 242.266 216.78 235.39 222.626 229.564L222.746 229.444L222.866 229.314C228.673 223.507 235.558 221.489 242.854 219.32C247.155 218.199 251.344 216.683 255.366 214.793C255.54 214.707 255.726 214.647 255.916 214.613C258.601 213.187 261.06 211.372 263.212 209.226C269.298 203.15 271.457 195.764 273.556 188.618C275.654 181.473 277.703 174.457 283.55 168.63C284.76 167.418 286.078 166.317 287.487 165.342C288.147 166.512 288.796 167.681 289.486 168.86C288.336 169.674 287.262 170.59 286.278 171.599Z" fill="#FFC844"/>
<path d="M301.619 214.153C299.38 221.778 297.072 229.664 290.276 236.469C283.48 243.275 275.585 245.584 267.959 247.813C261.233 249.811 254.877 251.65 249.82 256.637C244.763 261.624 242.964 268.05 240.995 274.776C238.757 282.402 236.448 290.287 229.642 297.093L229.512 297.213L229.402 297.343C222.596 304.139 214.711 306.457 207.086 308.686C200.36 310.685 194.014 312.524 188.947 317.511C185.399 321.108 183.43 325.366 181.871 329.953L177.494 329.953C179.263 324.466 181.491 319.31 185.989 314.802L186.118 314.682L186.238 314.552C192.045 308.746 198.921 306.737 206.226 304.558C213.322 302.48 220.648 300.331 226.704 294.355C232.76 288.378 234.849 280.953 236.928 273.857C239.057 266.571 241.075 259.695 246.922 253.869L247.052 253.749L247.172 253.619C252.978 247.813 259.854 245.804 267.16 243.625C271.463 242.51 275.652 240.994 279.672 239.098C279.846 239.014 280.031 238.957 280.222 238.928C282.907 237.5 285.369 235.685 287.527 233.541C293.604 227.455 295.772 220.069 297.861 212.924C299.41 207.647 300.859 202.58 303.857 197.933C304.527 199.482 305.187 201.021 305.856 202.57C304.096 206.294 302.677 210.171 301.619 214.153Z" fill="#FFC844"/>
<path d="M328.892 292.006C324.898 293.804 320.763 295.271 316.529 296.393C309.813 298.392 303.457 300.221 298.39 305.218C293.323 310.215 291.534 316.631 289.565 323.357C288.926 325.546 288.276 327.754 287.567 329.953L283.139 329.953C284.049 327.475 284.788 324.956 285.518 322.478C287.646 315.192 289.665 308.316 295.512 302.49L295.632 302.37C295.632 302.37 295.712 302.28 295.762 302.24C301.568 296.433 308.444 294.425 315.75 292.246C320.051 291.125 324.239 289.609 328.262 287.719C328.335 287.682 328.412 287.655 328.492 287.639C328.582 289.168 328.732 290.567 328.892 292.006Z" fill="#FFC844"/>
<path d="M237.697 123.018C232.61 128.105 230.701 134.501 228.702 141.287C226.463 148.912 224.155 156.797 217.349 163.603C210.543 170.409 202.668 172.708 195.032 174.947C188.316 176.945 181.97 178.774 176.903 183.761C171.836 188.748 170.047 195.184 168.079 201.91C165.84 209.536 163.531 217.421 156.725 224.227L156.596 224.347L156.476 224.477C149.68 231.273 141.795 233.581 134.159 235.82C127.443 237.819 121.087 239.658 116.03 244.635C110.973 249.612 109.244 256.058 107.245 262.784C105.017 270.409 102.708 278.294 95.9022 285.1C89.0963 291.906 81.2109 294.215 73.5855 296.443C66.8096 298.442 60.4036 300.301 55.3267 305.388C50.2497 310.475 48.3309 316.881 46.3321 323.657C45.7125 325.746 45.0928 327.854 44.3832 329.953L40.1357 329.953C41.0352 327.495 41.7647 324.956 42.4943 322.528C44.623 315.252 46.6418 308.366 52.4883 302.54C58.3348 296.713 65.1706 294.724 72.4762 292.546C79.7818 290.367 87.0075 288.288 93.0838 282.212C95.2275 280.057 97.0426 277.599 98.4706 274.916C98.5062 274.723 98.5667 274.535 98.6505 274.357C100.54 270.333 102.055 266.145 103.178 261.844C105.307 254.559 107.325 247.683 113.172 241.856L113.302 241.736L113.422 241.606C119.228 235.8 126.104 233.791 133.41 231.612C140.505 229.534 147.831 227.385 153.887 221.399C159.944 215.412 162.032 208.007 164.111 200.911C166.24 193.625 168.259 186.749 174.105 180.923L174.245 180.793L174.355 180.673C180.161 174.867 187.037 172.858 194.343 170.679C198.645 169.56 202.833 168.044 206.855 166.152C207.03 166.068 207.215 166.008 207.405 165.972C210.092 164.551 212.555 162.739 214.711 160.595C220.787 154.509 222.956 147.123 225.044 139.978C227.133 132.832 229.192 125.816 235.038 119.99C239.306 115.722 244.163 113.504 249.33 111.775C250.282 112.867 251.225 113.963 252.158 115.063C246.701 116.922 241.774 118.94 237.697 123.018Z" fill="#FFC844"/>
<path d="M261.984 147.255C256.897 152.342 254.988 158.748 253.039 165.524C250.81 173.15 248.492 181.035 241.696 187.841C234.9 194.647 227.005 196.955 219.379 199.184C212.653 201.183 206.307 203.022 201.24 208.009C196.173 212.996 194.384 219.422 192.416 226.148C190.177 233.773 187.868 241.668 181.072 248.464L180.933 248.594L180.823 248.714C174.017 255.52 166.132 257.829 158.506 260.057C151.78 262.056 145.434 263.895 140.367 268.882C135.3 273.869 133.511 280.295 131.542 287.021C129.304 294.647 126.995 302.532 120.199 309.338C113.403 316.144 105.508 318.452 97.8826 320.691C91.0967 322.69 84.7006 324.549 79.6136 329.625L79.3538 329.905L74.1069 329.905C74.924 328.809 75.8192 327.774 76.7854 326.807C82.5919 321.001 89.4677 318.982 96.7733 316.813C104.079 314.644 111.305 312.556 117.391 306.469C119.532 304.312 121.346 301.855 122.778 299.174C122.804 298.982 122.861 298.797 122.947 298.624C124.84 294.599 126.355 290.407 127.475 286.102C129.613 278.826 131.622 271.94 137.469 266.114L137.609 265.994L137.719 265.874C143.525 260.067 150.401 258.049 157.707 255.88C164.802 253.801 172.138 251.642 178.194 245.666C184.251 239.69 186.329 232.274 188.408 225.168C190.547 217.893 192.556 211.007 198.402 205.18L198.532 205.061L198.652 204.941C204.458 199.134 211.334 197.115 218.64 194.947C222.942 193.825 227.131 192.306 231.152 190.409C231.329 190.324 231.518 190.267 231.712 190.239C234.395 188.811 236.853 186.996 239.008 184.853C245.084 178.776 247.253 171.391 249.341 164.235C251.43 157.079 253.489 150.074 259.335 144.247C262.314 141.321 265.848 139.02 269.729 137.481C270.529 138.601 271.308 139.73 272.088 140.849C268.302 142.241 264.857 144.425 261.984 147.255Z" fill="#FFC844"/>
<path d="M292.244 272.098C285.518 274.097 279.172 275.936 274.105 280.923C269.038 285.91 267.249 292.346 265.28 299.072C263.042 306.697 260.733 314.582 253.937 321.378C253.891 321.419 253.848 321.462 253.807 321.508L253.687 321.628C249.962 325.289 245.508 328.126 240.615 329.953L226.943 329.953C228.113 329.593 229.302 329.244 230.491 328.894C237.587 326.815 244.922 324.656 250.979 318.68C257.035 312.704 259.154 305.288 261.153 298.162C263.291 290.877 265.3 283.991 271.147 278.174C271.195 278.14 271.238 278.099 271.277 278.054L271.397 277.934C277.203 272.128 284.079 270.109 291.384 267.94C295.681 266.816 299.866 265.301 303.887 263.413C304.061 263.321 304.251 263.26 304.447 263.233C307.129 261.805 309.588 259.99 311.742 257.847C315.454 253.991 318.236 249.339 319.877 244.245C320.45 246.397 321.003 248.556 321.536 250.721C319.798 254.43 317.431 257.812 314.541 260.715C307.755 267.561 299.869 269.869 292.244 272.098Z" fill="#FFC844"/>
<path d="M317.008 329.953C317.836 328.835 318.744 327.78 319.727 326.795L319.857 326.675L319.976 326.545C323.09 323.481 326.806 321.099 330.89 319.549C330.89 321.028 330.97 322.548 331 323.997C327.912 325.294 325.092 327.154 322.685 329.483L322.255 329.933L317.008 329.953Z" fill="#FFC844"/>
<path d="M131.59 44.1247C129.361 51.7501 127.053 59.6353 120.247 66.4412C113.441 73.2471 105.556 75.5557 97.9302 77.7844C91.2042 79.7832 84.858 81.6221 79.7911 86.6091C74.7241 91.5961 72.9351 98.0222 70.9663 104.748C68.7377 112.384 66.4191 120.269 59.6232 127.065L59.4933 127.195L59.3733 127.315C52.5674 134.12 44.6822 136.429 37.0568 138.668C30.3309 140.666 23.9847 142.495 18.9177 147.482C13.8508 152.469 12.0619 158.895 10.0931 165.621C8.01435 172.737 5.85565 180.073 0.0991211 186.549L0.0991205 179.933C0.538855 179.233 0.958602 178.534 1.34837 177.814C1.37581 177.623 1.43307 177.438 1.51819 177.264C3.41355 173.243 4.9325 169.054 6.05549 164.752C8.18421 157.466 10.193 150.591 16.0495 144.764L16.1894 144.634L16.2993 144.514C22.1058 138.708 28.9817 136.689 36.2873 134.52C43.373 132.441 50.7086 130.283 56.7649 124.306C62.8213 118.33 64.9 110.914 66.9787 103.819C69.1174 96.5331 71.1362 89.6572 76.9727 83.8307L77.1026 83.7108L77.2225 83.5809C83.0291 77.7744 89.9049 75.7556 97.2105 73.5869C101.508 72.4628 105.693 70.9474 109.713 69.0596C109.889 68.9714 110.078 68.9107 110.273 68.8797C112.956 67.4517 115.414 65.6367 117.568 63.493C123.645 57.4166 125.813 50.0311 127.912 42.8854C129.541 37.2988 131.11 31.962 134.368 27.1549L138.076 28.8239C134.728 33.4311 133.229 38.6579 131.59 44.1247Z" fill="#FFC844"/>
<path d="M164.832 50.151C159.745 55.2379 157.836 61.6341 155.888 68.42C153.649 76.0454 151.34 83.9306 144.534 90.7265C137.729 97.5224 129.843 99.841 122.218 102.08C115.502 104.078 109.156 105.907 104.089 110.894C99.0218 115.881 97.2529 122.268 95.2541 129.043C93.0255 136.669 90.7169 144.554 83.911 151.36L83.7811 151.48L83.6612 151.6C76.8653 158.406 68.9799 160.714 61.3445 162.953C54.6286 164.952 48.2725 166.781 43.2156 171.768C38.1586 176.755 36.3596 183.181 34.3808 189.917C32.1521 197.542 29.8436 205.427 23.0377 212.233C16.2318 219.039 8.34656 221.338 0.72116 223.576L0.0615234 223.776L0.0615231 219.609C7.05731 217.55 14.263 215.351 20.2094 209.405C22.3559 207.249 24.1712 204.787 25.5962 202.099C25.6292 201.908 25.6897 201.723 25.776 201.55C27.6654 197.527 29.1809 193.338 30.3033 189.037C32.432 181.752 34.4508 174.876 40.2973 169.049L40.4272 168.919L40.5471 168.799C46.3536 162.993 53.2295 160.984 60.5351 158.806C67.6308 156.727 74.9564 154.578 81.0127 148.592C87.0691 142.605 89.1578 135.2 91.2365 128.104C93.3653 120.818 95.384 113.943 101.231 108.116L101.37 107.976L101.48 107.866C107.287 102.06 114.163 100.051 121.468 97.8722C125.77 96.7528 129.959 95.2373 133.981 93.345C134.155 93.2612 134.34 93.2007 134.531 93.1651C137.216 91.741 139.678 89.9293 141.836 87.7883C147.912 81.702 150.071 74.3164 152.17 67.1707C154.269 60.025 156.317 53.0093 162.164 47.1828C163.502 45.8351 164.975 44.6294 166.561 43.5849C167.86 44.3445 169.16 45.114 170.459 45.8935C168.391 47.0394 166.497 48.4728 164.832 50.151Z" fill="#FFC844"/>
<path d="M189.117 74.4388C184.03 79.5258 182.121 85.9319 180.122 92.7078C177.884 100.333 175.575 108.218 168.779 115.024C161.983 121.83 154.088 124.139 146.463 126.368C139.737 128.366 133.39 130.205 128.323 135.192C123.256 140.179 121.468 146.605 119.499 153.331C117.26 160.957 114.952 168.842 108.146 175.648L108.016 175.778L107.906 175.898C101.1 182.694 93.2146 185.012 85.5792 187.241C78.8632 189.24 72.5171 191.079 67.4502 196.066C62.3832 201.053 60.5942 207.479 58.6254 214.205C56.3868 221.83 54.0782 229.715 47.2723 236.521C40.4664 243.327 32.5912 245.636 24.9658 247.864C18.1799 249.863 11.7837 251.732 6.69678 256.859C3.66643 260.025 1.38203 263.829 0.0107422 267.992L0.0107414 258.828C1.11919 257.097 2.4128 255.492 3.86852 254.041C9.67502 248.234 16.5509 246.215 23.8565 244.047C31.1621 241.878 38.3876 239.779 44.4739 233.703C46.6118 231.546 48.4232 229.088 49.8507 226.407C49.8864 226.214 49.9469 226.026 50.0306 225.848C51.9244 221.826 53.44 217.637 54.5579 213.335C56.6967 206.06 58.7054 199.174 64.5519 193.347L64.6818 193.227L64.8018 193.107C70.6083 187.301 77.4841 185.282 84.7897 183.113C91.8854 181.045 99.221 178.886 105.267 172.91C111.314 166.933 113.412 159.518 115.491 152.412C117.63 145.136 119.639 138.25 125.485 132.424L125.625 132.294L125.735 132.174C131.542 126.378 138.417 124.359 145.723 122.18C150.026 121.065 154.215 119.549 158.235 117.653C158.412 117.568 158.601 117.51 158.795 117.483C161.478 116.055 163.936 114.24 166.091 112.096C172.167 106.02 174.336 98.6342 176.424 91.4786C178.513 84.3229 180.572 77.3171 186.418 71.4906C189.677 68.3077 193.579 65.8578 197.862 64.3049C199.131 65.2544 200.39 66.2238 201.639 67.1932C196.942 68.8722 192.705 70.851 189.117 74.4388Z" fill="#FFC844"/>
<path d="M49.3517 29.2146C42.6258 31.2134 36.2797 33.0423 31.2128 38.0393C26.1458 43.0363 24.3568 49.4524 22.388 56.1783C20.1594 63.8037 17.8508 71.689 11.0449 78.4949L10.915 78.6148L10.795 78.7347C7.69549 81.8153 4.05754 84.3015 0.0615234 86.0703L0.061523 81.4931C3.00876 80.021 5.70665 78.0953 8.0567 75.7865C14.0531 69.7302 16.2018 62.3946 18.2805 55.2989C20.4092 48.0132 22.428 41.1374 28.2745 35.3109L28.3944 35.191C28.4444 35.191 28.4744 35.101 28.5243 35.061C34.3208 29.2545 41.2067 27.2358 48.5123 25.0671C52.814 23.9477 57.0027 22.4321 61.0248 20.5398C61.1993 20.456 61.3842 20.3955 61.5745 20.3599C67.1178 17.4279 71.6203 12.8556 74.4666 7.2678C75.8058 7.57761 77.145 7.91741 78.4642 8.2672C76.7596 11.8137 74.4689 15.0472 71.6884 17.8314C64.8625 24.6673 56.9771 26.9759 49.3517 29.2146Z" fill="#FFC844"/>
<path d="M7.91527 318.857C13.9916 312.771 16.1603 305.385 18.249 298.24C20.3377 291.094 22.3965 284.078 28.243 278.252C34.0895 272.425 40.9353 270.426 48.2309 268.258C55.3666 266.159 62.7622 264 68.8385 257.924C70.985 255.768 72.8003 253.306 74.2253 250.618C74.2527 250.427 74.3101 250.242 74.3952 250.069C76.2878 246.046 77.8066 241.857 78.9325 237.556C81.0612 230.271 83.07 223.395 88.9265 217.568C88.9647 217.52 89.0083 217.477 89.0564 217.438L89.1663 217.318C94.9728 211.512 101.859 209.493 109.154 207.324C116.25 205.246 123.586 203.097 129.642 197.111C135.698 191.124 137.777 183.719 139.866 176.623C141.994 169.337 144.013 162.461 149.86 156.635L149.99 156.505L150.1 156.385C155.906 150.579 162.792 148.56 170.088 146.391C174.385 145.267 178.57 143.752 182.59 141.864C182.766 141.776 182.955 141.715 183.15 141.684C185.833 140.256 188.291 138.441 190.445 136.297C196.532 130.221 198.69 122.835 200.789 115.69C202.888 108.544 204.936 101.528 210.783 95.7017C215.2 91.2844 220.237 89.0557 225.604 87.3067C226.723 88.3061 227.853 89.3855 228.952 90.4449C223.265 92.1738 217.959 94.1826 213.601 98.53C208.524 103.607 206.606 110.013 204.607 116.789C202.378 124.414 200.069 132.31 193.263 139.106C186.458 145.901 178.572 148.22 170.947 150.459C164.221 152.457 157.875 154.286 152.818 159.273C147.761 164.26 145.952 170.687 143.983 177.422C141.755 185.048 139.446 192.933 132.64 199.729L132.51 199.859L132.23 200.219C125.424 207.025 117.539 209.333 109.914 211.572C103.188 213.571 96.8417 215.4 91.7848 220.387C86.7278 225.374 84.9188 231.8 82.95 238.526C80.7213 246.161 78.4128 254.046 71.6069 260.842C64.801 267.638 56.9158 269.957 49.2904 272.195C42.5144 274.194 36.1083 276.053 31.0213 281.19C25.9344 286.327 24.0256 292.673 22.0268 299.459C19.7981 307.084 17.4795 314.97 10.6836 321.765C7.59858 324.835 3.97768 327.315 0 329.081L-3.90545e-07 324.614C2.92428 323.122 5.59546 321.18 7.91527 318.857Z" fill="#FFC844"/>
<path d="M107.307 19.8403C105.068 27.4657 102.76 35.3509 95.9637 42.1568C89.1678 48.9627 81.2726 51.2713 73.6472 53.5C66.9212 55.4988 60.565 57.3376 55.5081 62.3246C50.4511 67.3116 48.6523 73.7378 46.6834 80.4637C44.4448 88.0891 42.1362 95.9744 35.3303 102.78L35.2004 102.9L35.0905 103.03C28.2846 109.826 20.3992 112.135 12.7638 114.373C8.27653 115.692 3.94918 116.962 0.0615234 119.15L0.061523 114.493C3.87958 112.758 7.83806 111.351 11.8944 110.286C18.9901 108.207 26.3157 106.058 32.372 100.082C38.4283 94.1055 40.5172 86.69 42.5959 79.5842C44.7247 72.2986 46.7434 65.4228 52.5899 59.5963L52.7197 59.4764L52.8398 59.3464C58.6463 53.5399 65.5221 51.5312 72.8277 49.3525C77.1261 48.2329 81.3114 46.7173 85.3301 44.8252C85.5038 44.7415 85.6891 44.6843 85.8798 44.6553C88.5676 43.2303 91.0296 41.4151 93.1854 39.2685C99.2618 33.1922 101.43 25.7967 103.519 18.651C103.819 17.6516 104.109 16.6522 104.409 15.6528L108.196 16.932L107.307 19.8403Z" fill="#FFC844"/>
<path d="M6.92738 13.7421C3.77018 17.1179 1.42233 21.1677 0.0615234 25.585L0.0615226 15.9108C1.18864 14.152 2.4985 12.5172 3.9692 11.0337C4.01715 10.9991 4.06077 10.9588 4.09913 10.9138L4.21905 10.7939C10.0255 4.98736 16.9014 2.96857 24.207 0.799881L26.9253 0.000375307C30.1534 0.250224 33.3615 0.570014 36.5595 0.919802C32.8266 2.5191 28.9861 3.85491 25.0665 4.91739C18.3005 6.88621 11.9943 8.7551 6.92738 13.7421Z" fill="#FFC844"/>
</g>
</svg>
