<?xml version="1.0" encoding="UTF-8"?>
<svg id="Layer_1" xmlns="http://www.w3.org/2000/svg" version="1.1" viewBox="0 0 601 2303.5">
  <!-- Generator: Adobe Illustrator 29.3.1, SVG Export Plug-In . SVG Version: 2.1.0 Build 151)  -->
  <defs>
    <style>
      .st0 {
        fill: #132417;
      }

      .st1 {
        fill: #001705;
      }
    </style>
  </defs>
  <path class="st0" d="M320.3,1663.1l.6-.7c8.4-10.2,19.6-17.7,32.2-21.7,12.6-3.9,26.1-4.2,38.8-.6,15.7,4.4,31.9,6.4,48.2,6,88.2-1.9,159.8-74.1,161-162.3.3-21.8-3.7-43.5-11.9-63.7s-20.2-38.6-35.5-54.2c-15.3-15.5-33.6-27.9-53.7-36.3-20.1-8.4-41.7-12.8-63.6-12.8-14.8,0-29.6,2-43.9,5.9-12.8,3.6-26.3,3.5-39-.5-12.7-3.9-24-11.4-32.5-21.7l-.6-.7c-8.4-10.1-13.7-22.4-15.2-35.5-1.5-13.1.8-26.3,6.7-38,11.7-23,17.7-48.4,17.7-74.2,0-25.8-6-51.2-17.7-74.2-5.9-11.8-8.2-25-6.7-38s6.8-25.4,15.2-35.5l.6-.7c8.4-10.2,19.6-17.7,32.2-21.7,12.6-3.9,26.1-4.2,38.8-.6,15.7,4.4,31.9,6.4,48.2,6,88.2-1.9,159.8-74.1,161-162.3.3-21.8-3.7-43.5-11.9-63.7-8.1-20.2-20.2-38.6-35.5-54.2-15.3-15.5-33.6-27.9-53.7-36.3-20.1-8.4-41.7-12.8-63.5-12.8-14.8,0-29.6,2-43.9,5.9-12.8,3.6-26.3,3.5-39-.5-12.7-3.9-24-11.4-32.5-21.7l-.6-.7c-8.4-10.1-13.7-22.4-15.2-35.5-1.5-13.1.8-26.3,6.7-38,11.7-23,17.7-48.4,17.7-74.2,0-25.8-6-51.2-17.7-74.2-5.9-11.8-8.2-25-6.7-38,1.5-13,6.8-25.4,15.2-35.5l.6-.7c8.4-10.2,19.6-17.7,32.2-21.7,12.6-3.9,26.1-4.2,38.8-.6,15.7,4.4,31.9,6.4,48.2,6,88.6-1.9,160.3-74.7,161-163.2.2-21.6-3.9-43.1-12-63.1-8.1-20-20.1-38.3-35.3-53.7-15.2-15.4-33.2-27.7-53.2-36.1C480.6,4.6,459.2.2,437.6,0c-21.7-.1-43.3,4-63.4,12.2-20.1,8.2-38.4,20.3-53.8,35.6-15.4,15.3-27.7,33.5-36,53.5-8.4,20-12.7,41.5-12.7,63.3,0,25.5,5.9,50.7,17.4,73.5,5.9,11.8,8.3,25.1,6.9,38.3-1.5,13.2-6.7,25.6-15.1,35.8l-.6.7c-8.4,10.2-19.6,17.7-32.1,21.7-12.6,4-26.1,4.2-38.8.6-15.7-4.4-31.9-6.4-48.2-6C72.8,331.2,1.2,403.4,0,491.5c-.3,21.8,3.7,43.5,11.8,63.8,8.1,20.3,20.2,38.7,35.5,54.3,15.3,15.5,33.6,27.9,53.8,36.3,20.2,8.4,41.8,12.8,63.6,12.8,14.8,0,29.6-2,44-5.9,12.8-3.6,26.3-3.4,39,.5,12.7,3.9,24,11.5,32.5,21.7l.6.7c8.4,10.1,13.7,22.4,15.2,35.5,1.5,13-.8,26.3-6.7,38-11.7,23-17.7,48.4-17.7,74.2,0,25.8,6,51.2,17.7,74.2,5.9,11.8,8.2,25,6.7,38-1.5,13-6.8,25.4-15.2,35.5l-.6.7c-8.4,10.2-19.5,17.7-32.1,21.7-12.6,3.9-26,4.2-38.8.6-15.7-4.4-31.9-6.4-48.2-6C72.9,990,1.3,1062.2,0,1150.3c-.3,21.8,3.8,43.4,11.9,63.6,8.2,20.2,20.2,38.6,35.5,54.1,15.3,15.5,33.6,27.8,53.7,36.2,20.1,8.4,41.7,12.7,63.5,12.7,14.8,0,29.6-2,44-5.9,12.8-3.6,26.3-3.5,39,.5,12.7,3.9,24,11.5,32.5,21.7l.6.7c8.4,10.1,13.7,22.4,15.2,35.5,1.5,13.1-.8,26.3-6.7,38-11.7,23-17.7,48.4-17.7,74.2,0,25.8,6,51.2,17.7,74.2,5.9,11.8,8.2,25,6.7,38-1.5,13.1-6.8,25.4-15.2,35.5l-.6.7c-8.4,10.2-19.5,17.7-32.1,21.7-12.6,4-26.1,4.2-38.8.6-15.7-4.4-31.9-6.4-48.2-6C72.9,1648.3,1.3,1720.5,0,1808.7c-.3,21.8,3.8,43.4,11.9,63.7,8.2,20.2,20.2,38.6,35.5,54.1,15.3,15.5,33.6,27.8,53.7,36.2,20.1,8.4,41.7,12.7,63.5,12.7s29.6-2,44-5.9c12.8-3.6,26.3-3.5,39,.5,12.7,3.9,24,11.4,32.5,21.7l.6.7c8.4,10.1,13.7,22.4,15.2,35.5,0,.7.2,1.4.2,2.2,1,11.7-1.5,23.5-6.9,34-11.7,22.7-18.3,48.4-18.3,75.7,0,91.7,76,166.1,167.7,164.4,89.4-1.6,161.4-74.6,161.5-164.3s-69.7-161.6-158.7-164.7c-17.8-.6-35,1.6-51.2,6.2-7.7,2.2-15.8,3.2-23.8,2.4s-8.8-1.4-13.1-2.7c-12.7-3.9-24-11.5-32.5-21.7l-.6-.7c-8.4-10.1-13.7-22.4-15.2-35.5-1.5-13,.8-26.3,6.7-38,11.7-23,17.7-48.4,17.7-74.2,0-25.8-6-51.2-17.7-74.2-5.9-11.8-8.2-25-6.7-38s6.8-25.4,15.2-35.5Z"/>
  <path class="st1" d="M436,960c73.5,0,133-59.5,133-133s-59.5-133-133-133-133,59.5-133,133,59.5,133,133,133Z"/>
  <path class="st1" d="M436,1614c73.5,0,133-59.6,133-133s-59.5-133-133-133-133,59.6-133,133,59.5,133,133,133Z"/>
  <path class="st1" d="M164,1286c73.5,0,133-59.6,133-133s-59.5-133-133-133-133,59.6-133,133,59.5,133,133,133Z"/>
  <path class="st1" d="M163,1943c73.5,0,133-59.6,133-133s-59.5-133-133-133-133,59.6-133,133,59.5,133,133,133Z"/>
  <path class="st1" d="M164,627c73.5,0,133-59.5,133-133s-59.5-133-133-133S31,420.5,31,494s59.5,133,133,133Z"/>
  <path class="st1" d="M436,298c73.5,0,133-59.5,133-133s-59.5-133-133-133-133,59.5-133,133,59.5,133,133,133Z"/>
  <path class="st1" d="M435.4,2272.5c73.5,0,133-59.6,133-133s-59.5-133-133-133-133,59.6-133,133,59.5,133,133,133Z"/>
</svg>