<svg width="575" height="871" viewBox="0 0 575 871" fill="none" xmlns="http://www.w3.org/2000/svg">
<mask id="mask0_65_787" style="mask-type:alpha" maskUnits="userSpaceOnUse" x="-298" y="-2" width="875" height="875">
<path d="M-296 397.262C-292.525 404.117 -290.418 411.317 -288.371 418.29C-285.003 429.787 -281.826 440.652 -272.9 449.554C-263.975 458.456 -253.145 461.633 -241.637 465.025C-229.557 468.595 -217.061 472.225 -206.529 482.769C-195.997 493.314 -192.331 505.786 -188.797 517.877C-185.429 529.373 -182.251 540.239 -173.326 549.141C-164.4 558.042 -153.559 561.22 -142.051 564.612C-129.971 568.182 -117.487 571.752 -106.943 582.344C-96.3988 592.936 -92.7566 605.372 -89.2102 617.451C-85.8422 628.96 -82.6647 639.813 -73.7391 648.727C-64.8134 657.641 -53.972 660.806 -42.4638 664.198C-30.3844 667.768 -17.9004 671.339 -7.35626 681.93C3.18791 692.522 6.82946 704.959 10.3759 717.038C13.7439 728.546 16.9214 739.4 25.847 748.313C34.7727 757.227 45.6147 760.393 57.1229 763.784C69.2022 767.355 81.686 770.925 92.2182 781.517C102.75 792.109 106.416 804.545 109.963 816.625C113.331 828.133 116.508 838.986 125.434 847.9C134.359 856.814 145.201 859.979 156.697 863.371C163.671 865.418 170.871 867.524 177.726 871" stroke="#1D1D1B" stroke-width="3" stroke-linecap="round" stroke-linejoin="round"/>
<path d="M-256.311 357.538C-252.835 364.393 -250.717 371.593 -248.682 378.567C-245.314 390.063 -242.136 400.929 -233.211 409.83C-224.285 418.732 -213.443 421.91 -201.947 425.302C-189.868 428.872 -177.372 432.442 -166.84 443.046C-156.307 453.649 -152.642 466.062 -149.107 478.153C-145.739 489.65 -142.562 500.503 -133.636 509.417C-124.711 518.331 -113.857 521.496 -102.361 524.888C-90.2817 528.458 -77.7858 532.088 -67.2535 542.62C-56.7212 553.153 -53.0678 565.649 -49.5213 577.728C-46.1534 589.236 -42.9758 600.09 -34.0502 609.003C-25.1245 617.917 -14.2825 621.083 -2.77437 624.475C9.30501 628.045 21.789 631.615 32.3332 642.207C42.8774 652.799 46.5189 665.235 50.0654 677.314C53.4333 688.811 56.6108 699.676 65.5365 708.59C74.4622 717.504 85.3042 720.669 96.8123 724.061C108.892 727.631 121.376 731.201 131.92 741.793C142.464 752.385 146.106 764.821 149.652 776.901C153.02 788.397 156.198 799.263 165.123 808.164C174.049 817.066 184.891 820.256 196.387 823.636C203.361 825.682 210.561 827.789 217.416 831.264" stroke="#1D1D1B" stroke-width="3" stroke-linecap="round" stroke-linejoin="round"/>
<path d="M-216.549 317.812C-213.074 324.667 -210.956 331.867 -208.921 338.841C-205.553 350.337 -202.375 361.203 -193.45 370.105C-184.524 379.007 -173.682 382.184 -162.186 385.576C-150.107 389.146 -137.611 392.776 -127.078 403.308C-116.546 413.841 -112.88 426.336 -109.346 438.416C-105.978 449.924 -102.8 460.778 -93.8746 469.691C-84.9489 478.605 -74.1078 481.771 -62.6115 485.163C-50.5322 488.733 -38.0362 492.303 -27.504 502.895C-16.9717 513.487 -13.3058 525.923 -9.77122 538.002C-6.40327 549.511 -3.22574 560.364 5.69991 569.278C14.6256 578.192 25.4673 581.357 36.9635 584.749C49.0429 588.319 61.5388 591.889 72.0711 602.481C82.6034 613.073 86.2568 625.509 89.8033 637.589C93.1712 649.085 96.3487 659.951 105.274 668.852C114.2 677.754 125.041 680.944 136.55 684.324C148.629 687.894 161.113 691.464 171.657 702.056C182.201 712.648 185.843 725.084 189.389 737.163C192.757 748.66 195.935 759.525 204.86 768.427C213.786 777.329 224.628 780.518 236.124 783.898C243.098 785.933 250.31 788.051 257.153 791.526" stroke="#1D1D1B" stroke-width="3" stroke-linecap="round" stroke-linejoin="round"/>
<path d="M-176.824 278.087C-173.349 284.93 -171.231 292.142 -169.196 299.116C-165.828 310.612 -162.638 321.466 -153.724 330.379C-144.811 339.293 -133.957 342.459 -122.461 345.85C-110.381 349.421 -97.8855 352.991 -87.3533 363.583C-76.821 374.174 -73.1557 386.611 -69.6211 398.69C-66.2531 410.198 -63.0756 421.052 -54.15 429.966C-45.2243 438.88 -34.3826 442.045 -22.8864 445.437C-10.807 449.007 1.68894 452.637 12.2212 463.169C22.7535 473.702 26.4188 486.197 29.9534 498.277C33.3213 509.773 36.4989 520.638 45.4245 529.54C54.3502 538.442 65.1919 541.632 76.6881 545.011C88.7675 548.582 101.263 552.152 111.796 562.744C122.328 573.336 125.993 585.772 129.528 597.851C132.896 609.348 136.073 620.213 144.999 629.115C153.925 638.017 164.767 641.206 176.275 644.586C188.354 648.156 200.838 651.727 211.382 662.318C221.927 672.91 225.568 685.347 229.115 697.426C232.483 708.922 235.66 719.788 244.586 728.689C253.511 737.591 264.353 740.781 275.849 744.161C282.823 746.196 290.035 748.314 296.878 751.789" stroke="#1D1D1B" stroke-width="3" stroke-linecap="round" stroke-linejoin="round"/>
<path d="M-137.1 238.362C-133.625 245.205 -131.506 252.417 -129.471 259.391C-126.103 270.887 -122.914 281.741 -114 290.655C-105.086 299.568 -94.2325 302.734 -82.7362 306.126C-70.6569 309.696 -58.1609 313.266 -47.6287 323.858C-37.0964 334.45 -33.4311 346.886 -29.8965 358.966C-26.5286 370.474 -23.351 381.327 -14.4254 390.241C-5.49973 399.155 5.34199 402.321 16.8382 405.712C28.9176 409.283 41.4135 412.853 51.9458 423.445C62.4781 434.036 66.1434 446.473 69.678 458.552C73.0459 470.048 76.2234 480.914 85.1491 489.816C94.0747 498.717 104.916 501.907 116.413 505.287C128.492 508.857 140.988 512.427 151.52 523.019C162.053 533.611 165.718 546.047 169.252 558.127C172.62 569.623 175.798 580.488 184.724 589.39C193.649 598.292 204.491 601.481 215.987 604.861C228.067 608.432 240.562 612.002 251.095 622.594C261.627 633.185 265.28 645.622 268.827 657.701C272.195 669.197 275.372 680.063 284.298 688.965C293.224 697.867 304.065 701.056 315.562 704.436C322.536 706.471 329.748 708.589 336.591 712.064" stroke="#1D1D1B" stroke-width="3" stroke-linecap="round" stroke-linejoin="round"/>
<path d="M-97.3711 198.614C-93.896 205.457 -91.7775 212.669 -89.7425 219.643C-86.3745 231.139 -83.1851 241.993 -74.2713 250.907C-65.3576 259.82 -54.504 262.986 -43.0077 266.378C-30.9283 269.948 -18.4324 273.518 -7.90016 284.11C2.6321 294.702 6.29745 307.138 9.83201 319.218C13.2 330.726 16.3775 341.579 25.3031 350.481C34.2288 359.383 45.0705 362.572 56.5667 365.952C68.6461 369.523 81.142 373.152 91.6743 383.685C102.207 394.217 105.872 406.713 109.406 418.792C112.774 430.288 115.952 441.154 124.878 450.056C133.803 458.958 144.645 462.147 156.141 465.527C168.221 469.097 180.716 472.667 191.249 483.259C201.781 493.851 205.447 506.287 208.982 518.367C212.349 529.863 215.527 540.728 224.453 549.63C233.378 558.532 244.22 561.722 255.716 565.101C267.796 568.672 280.292 572.242 290.824 582.834C301.356 593.425 305.021 605.862 308.556 617.941C311.924 629.438 315.101 640.303 324.027 649.205C332.953 658.107 343.794 661.296 355.302 664.676C362.264 666.711 369.476 668.829 376.319 672.305" stroke="#1D1D1B" stroke-width="3" stroke-linecap="round" stroke-linejoin="round"/>
<path d="M-57.6484 158.912C-54.1615 165.755 -52.0554 172.967 -50.0204 179.929C-46.6524 191.437 -43.463 202.291 -34.5492 211.204C-25.6355 220.118 -14.7819 223.284 -3.28564 226.676C8.79374 230.246 21.2897 233.816 31.8219 244.408C42.3542 255 46.0195 267.436 49.5541 279.515C52.922 291.012 56.1115 301.877 65.0252 310.779C73.939 319.681 84.7926 322.87 96.2888 326.25C108.368 329.82 120.864 333.391 131.396 343.983C141.929 354.574 145.595 367.011 149.129 379.09C152.497 390.586 155.687 401.452 164.6 410.354C173.514 419.256 184.368 422.445 195.864 425.825C207.943 429.395 220.439 432.965 230.971 443.557C241.504 454.149 245.169 466.585 248.704 478.665C252.072 490.161 255.249 501.026 264.175 509.928C273.1 518.83 283.942 522.019 295.438 525.399C307.518 528.97 320.014 532.54 330.546 543.132C341.078 553.723 344.744 566.16 348.278 578.239C351.646 589.735 354.824 600.601 363.749 609.503C372.675 618.405 383.505 621.594 395.013 624.974C401.975 627.009 409.187 629.127 416.042 632.602" stroke="#1D1D1B" stroke-width="3" stroke-linecap="round" stroke-linejoin="round"/>
<path d="M-17.9238 119.176C-14.4369 126.031 -12.3302 133.243 -10.2952 140.205C-6.92724 151.713 -3.73781 162.566 5.17594 171.468C14.0897 180.37 24.9433 183.559 36.4395 186.939C48.5189 190.51 61.0148 194.08 71.5471 204.672C82.0794 215.263 85.7447 227.7 89.2793 239.779C92.6472 251.275 95.8367 262.141 104.75 271.043C113.664 279.945 124.518 283.134 136.014 286.514C148.093 290.084 160.589 293.714 171.122 304.246C181.654 314.778 185.319 327.274 188.854 339.354C192.222 350.85 195.411 361.715 204.325 370.617C213.239 379.519 224.092 382.709 235.588 386.088C247.668 389.659 260.164 393.229 270.696 403.821C281.228 414.413 284.894 426.849 288.428 438.928C291.796 450.425 294.974 461.29 303.899 470.192C312.825 479.094 323.667 482.283 335.163 485.663C347.242 489.233 359.738 492.803 370.271 503.395C380.803 513.987 384.468 526.423 388.003 538.503C391.371 549.999 394.548 560.865 403.474 569.766C412.399 578.668 423.229 581.858 434.737 585.238C441.699 587.273 448.911 589.379 455.766 592.866" stroke="#1D1D1B" stroke-width="3" stroke-linecap="round" stroke-linejoin="round"/>
<path d="M21.7988 79.4502C25.2858 86.3051 27.3921 93.5171 29.4391 100.479C32.807 111.987 35.9846 122.841 44.9102 131.743C53.8359 140.645 64.6776 143.834 76.1738 147.214C88.2532 150.784 100.749 154.354 111.281 164.946C121.814 175.538 125.479 187.974 129.014 200.054C132.382 211.55 135.571 222.415 144.485 231.317C153.398 240.219 164.252 243.408 175.748 246.788C187.828 250.359 200.324 253.929 210.856 264.521C221.388 275.112 225.054 287.549 228.589 299.628C231.957 311.124 235.146 321.99 244.06 330.892C252.974 339.794 263.827 342.983 275.323 346.363C287.403 349.933 299.899 353.563 310.431 364.095C320.963 374.627 324.629 387.123 328.163 399.203C331.531 410.699 334.721 421.564 343.634 430.466C352.548 439.368 363.402 442.557 374.898 445.937C386.977 449.508 399.473 453.078 410.005 463.67C420.538 474.261 424.203 486.698 427.738 498.777C431.106 510.273 434.283 521.139 443.209 530.041C452.134 538.943 462.976 542.132 474.472 545.512C481.434 547.547 488.646 549.653 495.501 553.14" stroke="#1D1D1B" stroke-width="3" stroke-linecap="round" stroke-linejoin="round"/>
<path d="M61.5352 39.7246C65.0102 46.5795 67.1169 53.7915 69.1638 60.7535C72.5317 72.2497 75.7093 83.1153 84.6349 92.0171C93.5606 100.919 104.402 104.108 115.898 107.488C127.989 111.058 140.473 114.629 151.006 125.22C161.538 135.812 165.203 148.249 168.75 160.328C172.106 171.824 175.295 182.69 184.221 191.592C193.147 200.493 203.988 203.683 215.485 207.063C227.564 210.633 240.06 214.263 250.592 224.795C261.124 235.327 264.79 247.823 268.324 259.903C271.692 271.399 274.882 282.264 283.796 291.166C292.709 300.068 303.563 303.258 315.059 306.637C327.139 310.208 339.634 313.778 350.167 324.37C360.699 334.961 364.364 347.398 367.899 359.477C371.267 370.973 374.456 381.839 383.37 390.741C392.284 399.643 403.137 402.832 414.634 406.212C426.713 409.782 439.209 413.352 449.741 423.944C460.273 434.536 463.939 446.972 467.474 459.052C470.842 470.548 474.019 481.413 482.945 490.315C491.871 499.217 502.712 502.395 514.209 505.786C521.171 507.833 528.383 509.94 535.237 513.427" stroke="#1D1D1B" stroke-width="3" stroke-linecap="round" stroke-linejoin="round"/>
<path d="M101.266 0C104.741 6.8549 106.847 14.0669 108.894 21.0289C112.262 32.5251 115.44 43.3906 124.366 52.2925C133.291 61.1943 144.133 64.3838 155.629 67.7636C167.72 71.3339 180.204 74.904 190.748 85.4958C201.292 96.0876 204.934 108.524 208.48 120.603C211.848 132.1 215.026 142.965 223.952 151.867C232.877 160.769 243.719 163.958 255.215 167.338C267.295 170.908 279.791 174.479 290.323 185.07C300.855 195.662 304.521 208.099 308.056 220.178C311.424 231.674 314.613 242.54 323.527 251.442C332.44 260.343 343.294 263.533 354.79 266.913C366.87 270.483 379.366 274.053 389.898 284.645C400.43 295.237 404.095 307.673 407.63 319.753C410.998 331.249 414.187 342.114 423.101 351.016C432.015 359.918 442.869 363.107 454.365 366.487C466.444 370.058 478.94 373.628 489.472 384.219C500.005 394.811 503.67 407.236 507.205 419.327C510.572 430.823 513.762 441.689 522.676 450.591C531.589 459.492 542.443 462.67 553.939 466.062C560.913 468.109 568.113 470.215 574.968 473.69" stroke="#1D1D1B" stroke-width="3" stroke-linecap="round" stroke-linejoin="round"/>
</mask>
<g mask="url(#mask0_65_787)">
<rect x="-56.0469" y="155" width="393" height="393" fill="#001705" fill-opacity="0.12"/>
</g>
</svg>
