<svg width="378" height="377" viewBox="0 0 378 377" fill="none" xmlns="http://www.w3.org/2000/svg">
<mask id="mask0_5040_136" style="mask-type:alpha" maskUnits="userSpaceOnUse" x="0" y="0" width="378" height="377">
<path d="M377.075 376.595L0.834339 376.595L0.834306 0.354697L377.075 0.354664L377.075 376.595Z" fill="#FFC844" fill-opacity="0.1"/>
</mask>
<g mask="url(#mask0_5040_136)">
<path d="M606.967 144.613C603.639 138.049 601.622 131.155 599.662 124.477C596.437 113.47 593.395 103.066 584.848 94.5419C576.302 86.0182 565.932 82.9757 554.913 79.728C543.347 76.3094 531.382 72.8338 521.297 62.7376C511.212 52.6413 507.702 40.6991 504.318 29.1214C501.093 18.1136 498.05 7.70962 489.504 -0.814063C480.957 -9.33775 470.577 -12.3803 459.557 -15.628C447.991 -19.0465 436.037 -22.465 425.941 -32.6068C415.845 -42.7487 412.357 -54.6568 408.962 -66.223C405.737 -77.2423 402.694 -87.6348 394.148 -96.1699C385.601 -104.705 375.22 -107.736 364.201 -110.984C352.635 -114.402 340.681 -117.821 330.585 -127.963C320.489 -138.105 317.002 -150.013 313.606 -161.579C310.381 -172.598 307.339 -182.991 298.792 -191.526C290.246 -200.061 279.864 -203.092 268.845 -206.34C257.279 -209.758 245.325 -213.177 235.241 -223.319C225.156 -233.461 221.646 -245.369 218.25 -256.935C215.025 -267.954 211.983 -278.347 203.436 -286.882C194.89 -295.417 184.508 -298.448 173.501 -301.696C166.823 -303.656 159.929 -305.673 153.365 -309" stroke="#FFC844" stroke-width="3" stroke-linecap="round" stroke-linejoin="round"/>
<path d="M568.963 182.653C565.635 176.09 563.607 169.195 561.658 162.518C558.433 151.51 555.391 141.106 546.844 132.582C538.298 124.059 527.917 121.016 516.909 117.768C505.343 114.35 493.378 110.931 483.293 100.778C473.208 90.6248 469.698 78.7395 466.314 67.1619C463.089 56.154 460.046 45.7615 451.5 37.2264C442.954 28.6913 432.561 25.6602 421.553 22.4125C409.987 18.9939 398.022 15.5183 387.937 5.43348C377.852 -4.65136 374.354 -16.6164 370.958 -28.1827C367.733 -39.2019 364.691 -49.5943 356.144 -58.1294C347.598 -66.6645 337.217 -69.6956 326.197 -72.9433C314.631 -76.3619 302.677 -79.7805 292.581 -89.9223C282.485 -100.064 278.998 -111.972 275.602 -123.538C272.377 -134.546 269.335 -144.95 260.788 -153.485C252.242 -162.02 241.86 -165.052 230.841 -168.299C219.275 -171.718 207.321 -175.136 197.225 -185.278C187.129 -195.42 183.642 -207.328 180.246 -218.894C177.021 -229.902 173.979 -240.306 165.432 -248.83C156.886 -257.353 146.505 -260.407 135.497 -263.644C128.819 -265.604 121.925 -267.621 115.361 -270.948" stroke="#FFC844" stroke-width="3" stroke-linecap="round" stroke-linejoin="round"/>
<path d="M530.89 220.689C527.563 214.126 525.535 207.232 523.586 200.554C520.361 189.546 517.319 179.142 508.772 170.618C500.226 162.095 489.845 159.052 478.837 155.805C467.271 152.386 455.305 148.91 445.221 138.826C435.136 128.741 431.626 116.776 428.241 105.209C425.016 94.1901 421.974 83.7976 413.427 75.2625C404.881 66.7274 394.5 63.6963 383.492 60.4486C371.926 57.03 359.961 53.6114 349.876 43.4696C339.791 33.3278 336.281 21.4197 332.897 9.85343C329.672 -1.16583 326.629 -11.5582 318.083 -20.0933C309.536 -28.6284 299.155 -31.6596 288.147 -34.9072C276.581 -38.3258 264.616 -41.7444 254.531 -51.8862C244.446 -62.0281 240.948 -73.9361 237.552 -85.5024C234.327 -96.5102 231.285 -106.914 222.738 -115.438C214.192 -123.962 203.811 -127.015 192.792 -130.252C181.226 -133.67 169.272 -137.089 159.176 -147.231C149.079 -157.373 145.593 -169.281 142.197 -180.847C138.972 -191.855 135.929 -202.259 127.383 -210.782C118.836 -219.306 108.455 -222.36 97.4474 -225.596C90.7697 -227.545 83.8637 -229.573 77.3114 -232.901" stroke="#FFC844" stroke-width="3" stroke-linecap="round" stroke-linejoin="round"/>
<path d="M492.854 258.726C489.526 252.174 487.498 245.268 485.549 238.591C482.324 227.583 479.27 217.19 470.735 208.655C462.2 200.12 451.807 197.089 440.8 193.841C429.233 190.423 417.268 187.004 407.183 176.862C397.099 166.72 393.589 154.812 390.205 143.246C386.98 132.227 383.937 121.834 375.391 113.299C366.844 104.764 356.463 101.733 345.455 98.4852C333.889 95.0666 321.924 91.591 311.839 81.5062C301.754 71.4214 298.245 59.4563 294.86 47.8901C291.635 36.8822 288.593 26.4784 280.046 17.9547C271.5 9.43102 261.119 6.37708 250.111 3.14082C238.544 -0.277773 226.579 -3.69639 216.495 -13.8382C206.41 -23.98 202.9 -35.8881 199.516 -47.4544C196.291 -58.4622 193.248 -68.8661 184.702 -77.3898C176.155 -85.9135 165.774 -88.9675 154.755 -92.2037C143.188 -95.6223 131.235 -99.0409 121.138 -109.183C111.042 -119.325 107.555 -131.233 104.16 -142.799C100.935 -153.807 97.8922 -164.211 89.3457 -172.734C80.7992 -181.258 70.4181 -184.312 59.4102 -187.548C52.7326 -189.497 45.8271 -191.525 39.2748 -194.853" stroke="#FFC844" stroke-width="3" stroke-linecap="round" stroke-linejoin="round"/>
<path d="M454.817 296.766C451.49 290.214 449.461 283.309 447.513 276.631C444.288 265.623 441.234 255.231 432.699 246.696C424.164 238.16 413.771 235.129 402.763 231.882C391.197 228.463 379.232 225.044 369.147 214.903C359.062 204.761 355.553 192.853 352.168 181.286C348.944 170.267 345.901 159.875 337.354 151.34C328.808 142.804 318.427 139.773 307.419 136.526C295.853 133.107 283.888 129.688 273.803 119.547C263.718 109.405 260.208 97.4967 256.824 85.9305C253.599 74.9227 250.557 64.5189 242.01 55.9952C233.464 47.4715 223.082 44.4175 212.075 41.1813C200.508 37.7627 188.543 34.3441 178.458 24.2023C168.374 14.0604 164.864 2.15235 161.48 -9.41389C158.255 -20.4217 155.212 -30.8257 146.666 -39.3494C138.119 -47.8731 127.738 -50.927 116.73 -54.1633C105.164 -57.5818 93.1989 -61.0005 83.114 -71.1423C73.0292 -81.2841 69.5309 -93.1922 66.1351 -104.758C62.9103 -115.766 59.8677 -126.17 51.3212 -134.694C42.7748 -143.218 32.3936 -146.272 21.3858 -149.508C14.7081 -151.456 7.80209 -153.485 1.24979 -156.812" stroke="#FFC844" stroke-width="3" stroke-linecap="round" stroke-linejoin="round"/>
<path d="M416.777 334.823C413.449 328.271 411.421 321.365 409.472 314.688C406.247 303.68 403.193 293.287 394.658 284.752C386.123 276.217 375.731 273.186 364.723 269.938C353.157 266.52 341.192 263.101 331.107 252.959C321.022 242.818 317.512 230.909 314.128 219.343C310.903 208.324 307.86 197.931 299.314 189.408C290.767 180.884 280.386 177.83 269.378 174.594C257.812 171.175 245.847 167.7 235.762 157.615C225.677 147.53 222.168 135.565 218.783 123.999C215.559 112.991 212.516 102.587 203.97 94.0632C195.423 85.5395 185.042 82.4856 174.034 79.2493C162.468 75.8307 150.503 72.4121 140.418 62.2703C130.333 52.1285 126.823 40.2204 123.438 28.6541C120.214 17.6463 117.171 7.24249 108.625 -1.2812C100.078 -9.80488 89.697 -12.8588 78.6891 -16.0951C67.1229 -19.5137 55.1578 -22.9323 45.0729 -33.0741C34.9881 -43.2159 31.4785 -55.124 28.0941 -66.6903C24.8692 -77.6981 21.8266 -88.1021 13.2802 -96.6257C4.73368 -105.149 -5.6472 -108.203 -16.6665 -111.44C-23.3327 -113.388 -30.2384 -115.417 -36.7907 -118.744" stroke="#FFC844" stroke-width="3" stroke-linecap="round" stroke-linejoin="round"/>
<path d="M378.74 372.839C375.401 366.287 373.385 359.382 371.436 352.715C368.211 341.696 365.157 331.304 356.622 322.769C348.087 314.233 337.695 311.202 326.687 307.955C315.121 304.536 303.156 301.117 293.071 290.976C282.986 280.834 279.476 268.926 276.092 257.359C272.867 246.352 269.813 235.948 261.278 227.424C252.743 218.9 242.35 215.846 231.342 212.61C219.776 209.192 207.811 205.773 197.726 195.631C187.641 185.489 184.131 173.581 180.747 162.015C177.522 151.007 174.468 140.603 165.933 132.079C157.398 123.556 147.005 120.502 135.997 117.266C124.431 113.847 112.466 110.428 102.381 100.287C92.2965 90.1448 88.7868 78.2368 85.4024 66.6705C82.1775 55.6627 79.135 45.2587 70.5885 36.735C62.042 28.2114 51.6609 25.1574 40.653 21.9211C29.0868 18.5026 17.1217 15.0839 7.03688 4.94212C-3.04796 -5.1997 -6.55761 -17.1078 -9.94201 -28.674C-13.1669 -39.6819 -16.2094 -50.0858 -24.7559 -58.6095C-33.3024 -67.1332 -43.6721 -70.1871 -54.6914 -73.4234C-61.3576 -75.372 -68.2631 -77.4004 -74.8268 -80.7278" stroke="#FFC844" stroke-width="3" stroke-linecap="round" stroke-linejoin="round"/>
<path d="M340.704 410.888C337.365 404.324 335.348 397.418 333.4 390.752C330.175 379.733 327.121 369.341 318.586 360.817C310.051 352.293 299.658 349.239 288.65 346.003C277.084 342.584 265.119 339.166 255.034 329.024C244.949 318.882 241.44 306.974 238.055 295.408C234.83 284.4 231.776 273.996 223.241 265.472C214.706 256.949 204.314 253.895 193.306 250.658C181.739 247.24 169.774 243.764 159.69 233.679C149.605 223.595 146.095 211.629 142.711 200.063C139.486 189.055 136.432 178.651 127.897 170.128C119.362 161.604 108.969 158.55 97.9613 155.314C86.3951 151.895 74.43 148.477 64.3452 138.335C54.2603 128.193 50.7507 116.285 47.3663 104.719C44.1414 93.7109 41.0989 83.3071 32.5524 74.7834C24.0059 66.2597 13.6248 63.2058 2.61689 59.9695C-8.94934 56.5509 -20.9144 53.1323 -30.9993 42.9905C-41.0841 32.8486 -44.5937 20.9405 -47.9781 9.37432C-51.203 -1.63355 -54.2456 -12.0375 -62.792 -20.5612C-71.3385 -29.0849 -81.7083 -32.1388 -92.7275 -35.3751C-99.3938 -37.3237 -106.299 -39.3407 -112.863 -42.6795" stroke="#FFC844" stroke-width="3" stroke-linecap="round" stroke-linejoin="round"/>
<path d="M302.667 448.924C299.329 442.36 297.312 435.455 295.352 428.789C292.127 417.769 289.084 407.377 280.538 398.853C271.991 390.329 261.61 387.275 250.602 384.039C239.036 380.621 227.071 377.202 216.986 367.06C206.901 356.918 203.392 345.01 200.007 333.444C196.782 322.436 193.729 312.032 185.193 303.509C176.658 294.985 166.266 291.931 155.258 288.695C143.692 285.276 131.727 281.858 121.642 271.716C111.557 261.574 108.047 249.666 104.662 238.1C101.438 227.092 98.3836 216.688 89.8485 208.164C81.3134 199.64 70.9209 196.586 59.913 193.35C48.3468 189.932 36.3817 186.456 26.2969 176.371C16.212 166.286 12.7024 154.321 9.31797 142.755C6.0931 131.747 3.03915 121.343 -5.49593 112.82C-14.031 104.296 -24.4236 101.242 -35.4314 98.0058C-46.9976 94.5872 -58.9627 91.1686 -69.0476 81.0268C-79.1324 70.885 -82.642 58.9769 -86.0265 47.4106C-89.2513 36.4028 -92.2939 25.9988 -100.84 17.4752C-109.387 8.95146 -119.768 5.89752 -130.776 2.66126C-137.442 0.712663 -144.348 -1.30434 -150.911 -4.64317" stroke="#FFC844" stroke-width="3" stroke-linecap="round" stroke-linejoin="round"/>
<path d="M264.619 486.965C261.292 480.401 259.275 473.495 257.315 466.829C254.09 455.821 251.047 445.417 242.501 436.894C233.954 428.37 223.574 425.316 212.566 422.08C200.988 418.661 189.034 415.243 178.95 405.101C168.865 394.959 165.355 383.051 161.959 371.485C158.746 360.477 155.692 350.073 147.145 341.549C138.599 333.025 128.218 329.972 117.21 326.735C105.643 323.317 93.6783 319.841 83.5935 309.756C73.5087 299.671 69.999 287.706 66.6146 276.14C63.3897 265.132 60.3358 254.728 51.8007 246.205C43.2656 237.681 32.8731 234.627 21.8652 231.391C10.299 227.972 -1.66608 224.554 -11.7509 214.412C-21.8358 204.27 -25.3454 192.362 -28.7298 180.796C-31.9547 169.788 -35.0086 159.384 -43.5437 150.86C-52.0788 142.337 -62.4713 139.283 -73.4792 136.046C-85.0454 132.628 -97.0105 129.209 -107.095 119.067C-117.18 108.925 -120.69 97.0174 -124.075 85.4512C-127.3 74.4433 -130.342 64.0394 -138.889 55.5157C-147.435 46.992 -157.816 43.9494 -168.824 40.7018C-175.49 38.7418 -182.396 36.7248 -188.96 33.386" stroke="#FFC844" stroke-width="3" stroke-linecap="round" stroke-linejoin="round"/>
<path d="M226.579 525.001C223.251 518.437 221.234 511.532 219.274 504.865C216.049 493.858 213.007 483.454 204.46 474.93C195.914 466.406 185.533 463.352 174.525 460.116C162.947 456.697 150.994 453.279 140.897 443.137C130.801 432.995 127.314 421.087 123.918 409.521C120.694 398.513 117.651 388.109 109.105 379.586C100.558 371.062 90.177 368.008 79.1691 364.772C67.6029 361.353 55.6378 357.934 45.553 347.793C35.4681 337.651 31.9579 325.743 28.5735 314.176C25.3486 303.169 22.2947 292.765 13.7596 284.241C5.22454 275.717 -5.168 272.663 -16.1759 269.427C-27.7421 266.009 -39.7072 262.59 -49.792 252.448C-59.8769 242.306 -63.3865 230.398 -66.7709 218.832C-69.9958 207.824 -73.0497 197.42 -81.5848 188.896C-90.1199 180.373 -100.512 177.319 -111.52 174.083C-123.087 170.664 -135.052 167.245 -145.136 157.104C-155.221 146.962 -158.731 135.065 -162.115 123.488C-165.34 112.48 -168.394 102.076 -176.929 93.5521C-185.464 85.0284 -195.857 81.9858 -206.865 78.7382C-213.542 76.7782 -220.436 74.7612 -227 71.4337" stroke="#FFC844" stroke-width="3" stroke-linecap="round" stroke-linejoin="round"/>
</g>
</svg>
