<svg width="578" height="569" viewBox="0 0 578 569" fill="none" xmlns="http://www.w3.org/2000/svg">
<mask id="mask0_3370_2857" style="mask-type:alpha" maskUnits="userSpaceOnUse" x="0" y="-1" width="269" height="270">
<path d="M-4.12966e-06 174.524L0 269L113.494 269L113.494 120.635C113.494 119.696 113.679 118.767 114.038 117.9C114.397 117.033 114.924 116.246 115.588 115.583C116.252 114.919 117.04 114.394 117.907 114.035C118.774 113.677 119.704 113.493 120.642 113.494L269 113.494L269 -0.000164346L174.532 -0.000160217C78.137 -0.000156003 -8.34289e-06 78.1368 -4.12966e-06 174.524Z" fill="#1D1D1B"/>
</mask>
<g mask="url(#mask0_3370_2857)">
<path d="M397.576 172.584C395.478 168.446 394.207 164.1 392.971 159.89C390.938 152.95 389.02 146.391 383.632 141.018C378.244 135.644 371.706 133.726 364.759 131.678C357.468 129.523 349.924 127.332 343.566 120.967C337.209 114.602 334.996 107.073 332.862 99.774C330.829 92.8342 328.911 86.2752 323.523 80.9015C318.135 75.5279 311.591 73.6097 304.644 71.5623C297.352 69.4071 289.816 67.2519 283.451 60.8581C277.086 54.4643 274.887 46.957 272.746 39.6652C270.713 32.7183 268.795 26.1664 263.407 20.7856C258.019 15.4047 251.474 13.4938 244.528 11.4463C237.236 9.29114 229.7 7.13591 223.335 0.742128C216.97 -5.65166 214.771 -13.159 212.63 -20.4508C210.597 -27.3977 208.679 -33.9495 203.291 -39.3303C197.903 -44.7112 191.358 -46.6221 184.411 -48.6696C177.12 -50.8248 169.584 -52.9801 163.226 -59.3739C156.868 -65.7677 154.655 -73.275 152.514 -80.5668C150.481 -87.5137 148.563 -94.0656 143.175 -99.4464C137.787 -104.827 131.242 -106.738 124.303 -108.786C120.093 -110.021 115.747 -111.293 111.609 -113.391" stroke="#FFC844" stroke-width="6" stroke-linecap="round" stroke-linejoin="round"/>
<path d="M373.617 196.567C371.519 192.429 370.241 188.083 369.012 183.873C366.979 176.933 365.061 170.374 359.673 165.001C354.285 159.627 347.74 157.709 340.8 155.662C333.509 153.506 325.965 151.351 319.608 144.95C313.25 138.549 311.037 131.056 308.903 123.757C306.87 116.817 304.952 110.266 299.564 104.885C294.176 99.5039 287.624 97.593 280.685 95.5455C273.393 93.3903 265.85 91.1992 259.492 84.8413C253.134 78.4834 250.928 70.9402 248.788 63.6484C246.755 56.7015 244.836 50.1497 239.448 44.7689C234.06 39.388 227.515 37.4771 220.569 35.4296C213.277 33.2744 205.741 31.1192 199.376 24.7254C193.011 18.3316 190.812 10.8243 188.671 3.5325C186.638 -3.40728 184.72 -9.96632 179.332 -15.3472C173.944 -20.728 167.399 -22.639 160.452 -24.6864C153.161 -26.8416 145.625 -28.9967 139.26 -35.3905C132.894 -41.7843 130.696 -49.2916 128.555 -56.5834C126.522 -63.5232 124.604 -70.0822 119.216 -75.4559C113.828 -80.8295 107.283 -82.7549 100.344 -84.7951C96.1338 -86.0308 91.7875 -87.3025 87.6495 -89.4002" stroke="#FFC844" stroke-width="6" stroke-linecap="round" stroke-linejoin="round"/>
<path d="M349.615 220.546C347.517 216.408 346.239 212.062 345.011 207.852C342.977 200.912 341.059 194.353 335.671 188.979C330.283 183.606 323.739 181.688 316.799 179.64C309.507 177.485 301.964 175.294 295.606 168.936C289.248 162.578 287.035 155.035 284.901 147.743C282.868 140.796 280.95 134.244 275.562 128.863C270.174 123.482 263.63 121.572 256.69 119.524C249.398 117.369 241.855 115.214 235.497 108.82C229.139 102.426 226.926 94.9187 224.793 87.6269C222.76 80.68 220.841 74.1282 215.453 68.7474C210.065 63.3665 203.521 61.4556 196.581 59.4081C189.289 57.2529 181.746 55.0977 175.388 48.7039C169.03 42.3101 166.825 34.8028 164.684 27.511C162.651 20.5713 160.733 14.0122 155.345 8.63856C149.957 3.26491 143.412 1.33959 136.465 -0.700675C129.173 -2.85588 121.637 -5.01111 115.272 -11.4049C108.907 -17.7987 106.709 -25.306 104.568 -32.5978C102.535 -39.5376 100.617 -46.0966 95.229 -51.4703C89.8409 -56.8439 83.2963 -58.7692 76.3565 -60.8095C72.1467 -62.038 67.7928 -63.3167 63.662 -65.4144" stroke="#FFC844" stroke-width="6" stroke-linecap="round" stroke-linejoin="round"/>
<path d="M325.635 244.524C323.537 240.394 322.258 236.04 321.03 231.83C318.997 224.891 317.071 218.339 311.69 212.958C306.31 207.577 299.758 205.666 292.818 203.619C285.526 201.463 277.983 199.308 271.625 192.914C265.267 186.521 263.055 179.013 260.921 171.721C258.888 164.775 256.97 158.223 251.582 152.842C246.194 147.461 239.649 145.55 232.709 143.503C225.417 141.347 217.874 139.156 211.516 132.798C205.158 126.441 202.946 118.897 200.812 111.605C198.779 104.666 196.861 98.1068 191.473 92.7331C186.085 87.3595 179.54 85.4341 172.601 83.3939C165.309 81.2387 157.765 79.0834 151.408 72.6897C145.05 66.2959 142.837 58.7886 140.703 51.4968C138.67 44.557 136.752 37.998 131.364 32.6243C125.976 27.2507 119.431 25.3253 112.484 23.2851C105.193 21.1299 97.6566 18.9746 91.2915 12.5808C84.9265 6.18706 82.7282 -1.32025 80.5874 -8.61204C78.5543 -15.5518 76.6362 -22.1108 71.2481 -27.4844C65.8601 -32.8581 59.3155 -34.7834 52.3757 -36.8236C48.1658 -38.0521 43.8124 -39.331 39.6816 -41.4287" stroke="#FFC844" stroke-width="6" stroke-linecap="round" stroke-linejoin="round"/>
<path d="M301.656 268.508C299.559 264.377 298.28 260.024 297.051 255.814C295.018 248.874 293.093 242.322 287.712 236.941C282.331 231.56 275.779 229.649 268.839 227.602C261.548 225.447 254.004 223.292 247.647 216.898C241.289 210.504 239.076 202.997 236.942 195.705C234.909 188.758 232.991 182.206 227.603 176.825C222.215 171.444 215.671 169.533 208.731 167.486C201.439 165.331 193.896 163.176 187.538 156.782C181.18 150.388 178.967 142.881 176.834 135.589C174.801 128.649 172.882 122.09 167.494 116.716C162.106 111.343 155.562 109.418 148.622 107.377C141.33 105.222 133.787 103.067 127.429 96.673C121.071 90.2792 118.859 82.7719 116.725 75.4801C114.692 68.5404 112.774 61.9813 107.386 56.6077C101.998 51.234 95.453 49.3087 88.5133 47.2684C81.2215 45.1132 73.6782 42.958 67.3204 36.5642C60.9625 30.1704 58.7571 22.6631 56.6162 15.3713C54.5832 8.43154 52.665 1.87251 47.277 -3.50115C41.889 -8.8748 35.3443 -10.8001 28.4045 -12.8404C24.1947 -14.0689 19.8409 -15.3475 15.7101 -17.4453" stroke="#FFC844" stroke-width="6" stroke-linecap="round" stroke-linejoin="round"/>
<path d="M277.674 292.501C275.576 288.37 274.297 284.017 273.069 279.807C271.036 272.867 269.11 266.315 263.73 260.934C258.349 255.554 251.797 253.643 244.857 251.595C237.565 249.44 230.022 247.285 223.664 240.891C217.306 234.497 215.094 226.99 212.96 219.698C210.927 212.751 209.009 206.199 203.621 200.826C198.233 195.452 191.688 193.527 184.748 191.486C177.457 189.331 169.913 187.14 163.555 180.782C157.198 174.424 154.985 166.881 152.851 159.589C150.818 152.649 148.9 146.09 143.512 140.717C138.124 135.343 131.579 133.418 124.64 131.378C117.348 129.222 109.805 127.067 103.447 120.673C97.0888 114.279 94.8759 106.772 92.7422 99.4804C90.7091 92.5406 88.791 85.9817 83.403 80.608C78.0149 75.2344 71.4703 73.309 64.5305 71.2688C57.2387 69.1136 49.6955 66.9583 43.3376 60.5645C36.9797 54.1708 34.7671 46.6634 32.6335 39.3717C30.6004 32.4319 28.6822 25.8728 23.2942 20.4992C17.9062 15.1255 11.3617 13.2002 4.41474 11.1599C0.212085 9.93148 -4.14155 8.6527 -8.27237 6.55496" stroke="#FFC844" stroke-width="6" stroke-linecap="round" stroke-linejoin="round"/>
<path d="M253.693 316.467C251.588 312.336 250.317 307.982 249.089 303.78C247.056 296.833 245.13 290.281 239.749 284.9C234.369 279.519 227.817 277.608 220.877 275.561C213.585 273.406 206.042 271.251 199.684 264.857C193.326 258.463 191.114 250.956 188.98 243.664C186.947 236.724 185.021 230.165 179.641 224.791C174.26 219.418 167.708 217.492 160.768 215.452C153.476 213.297 145.933 211.142 139.575 204.748C133.217 198.354 131.004 190.847 128.871 183.555C126.838 176.615 124.912 170.056 119.532 164.683C114.151 159.309 107.599 157.384 100.659 155.343C93.3673 153.188 85.8241 151.033 79.4662 144.639C73.1083 138.245 70.8957 130.738 68.762 123.446C66.729 116.507 64.8108 109.947 59.4228 104.574C54.0348 99.2002 47.4901 97.2749 40.5503 95.2346C33.2585 93.0794 25.7153 90.9242 19.3574 84.5304C12.9996 78.1366 10.787 70.6293 8.65331 63.3375C6.62022 56.3977 4.70209 49.8387 -0.685938 44.465C-6.07396 39.0914 -12.6114 37.166 -19.5584 35.1258C-23.7611 33.8973 -28.1145 32.6185 -32.2525 30.5208" stroke="#FFC844" stroke-width="6" stroke-linecap="round" stroke-linejoin="round"/>
<path d="M229.715 340.454C227.61 336.316 226.338 331.963 225.11 327.76C223.077 320.813 221.151 314.261 215.771 308.888C210.39 303.514 203.838 301.589 196.898 299.548C189.606 297.393 182.063 295.238 175.705 288.844C169.347 282.45 167.135 274.943 165.001 267.651C162.968 260.711 161.043 254.152 155.662 248.779C150.281 243.405 143.729 241.48 136.789 239.439C129.498 237.284 121.954 235.093 115.596 228.735C109.239 222.377 107.026 214.834 104.892 207.542C102.859 200.603 100.934 194.044 95.553 188.67C90.1722 183.296 83.6203 181.371 76.6806 179.331C69.3888 177.175 61.8455 175.02 55.4877 168.626C49.1298 162.233 46.9172 154.725 44.7835 147.434C42.7505 140.494 40.8323 133.935 35.4443 128.561C30.0563 123.187 23.5116 121.262 16.5718 119.222C9.28003 117.067 1.7368 114.911 -4.62107 108.518C-10.9789 102.124 -13.1916 94.6166 -15.3252 87.3248C-17.3583 80.385 -19.2764 73.826 -24.6645 68.4523C-30.0525 63.0787 -36.59 61.1533 -43.5369 59.1131C-47.7396 57.8846 -52.093 56.613 -56.231 54.5081" stroke="#FFC844" stroke-width="6" stroke-linecap="round" stroke-linejoin="round"/>
<path d="M205.734 364.434C203.629 360.296 202.358 355.942 201.122 351.739C199.089 344.792 197.171 338.241 191.783 332.867C186.395 327.493 179.85 325.568 172.911 323.528C165.619 321.372 158.076 319.217 151.718 312.824C145.36 306.43 143.147 298.922 141.014 291.631C138.98 284.691 137.055 278.132 131.674 272.758C126.293 267.385 119.742 265.459 112.802 263.419C105.51 261.264 97.9668 259.109 91.609 252.715C85.2511 246.321 83.0381 238.814 80.9045 231.522C78.8714 224.582 76.9461 218.023 71.5652 212.649C66.1844 207.276 59.6325 205.35 52.6928 203.31C45.401 201.155 37.8577 198.964 31.4999 192.606C25.142 186.248 22.9294 178.705 20.7957 171.413C18.7626 164.473 16.8373 157.914 11.4565 152.541C6.07565 147.167 -0.476202 145.242 -7.41598 143.201C-14.7078 141.046 -22.251 138.891 -28.6089 132.497C-34.9667 126.103 -37.1793 118.596 -39.313 111.304C-41.3461 104.364 -43.2642 97.8055 -48.6522 92.4318C-54.0403 87.0581 -60.5849 85.1328 -67.5247 83.0926C-71.7274 81.8641 -76.0808 80.5925 -80.2188 78.4876" stroke="#FFC844" stroke-width="6" stroke-linecap="round" stroke-linejoin="round"/>
<path d="M181.748 388.415C179.65 384.277 178.379 379.923 177.143 375.721C175.11 368.781 173.192 362.222 167.804 356.848C162.416 351.475 155.871 349.549 148.932 347.509C141.633 345.354 134.097 343.199 127.739 336.805C121.381 330.411 119.168 322.904 117.027 315.612C115.001 308.672 113.076 302.113 107.688 296.74C102.3 291.366 95.7553 289.441 88.8155 287.4C81.5237 285.245 73.9805 283.054 67.6226 276.696C61.2648 270.338 59.0521 262.795 56.9185 255.503C54.8854 248.564 52.9601 242.004 47.5792 236.631C42.1984 231.257 35.6466 229.332 28.7068 227.292C21.415 225.136 13.8718 222.981 7.51389 216.587C1.15602 210.194 -1.05659 202.686 -3.19025 195.394C-5.22333 188.455 -7.14865 181.896 -12.5295 176.522C-17.9103 171.148 -24.4622 169.223 -31.402 167.183C-38.6937 165.028 -46.237 162.872 -52.5948 156.479C-58.9527 150.085 -61.1657 142.578 -63.2993 135.286C-65.3324 128.346 -67.2506 121.787 -72.6386 116.413C-78.0266 111.04 -84.5713 109.122 -91.511 107.074C-95.7137 105.838 -100.067 104.567 -104.205 102.462" stroke="#FFC844" stroke-width="6" stroke-linecap="round" stroke-linejoin="round"/>
<path d="M157.766 412.396C155.668 408.258 154.396 403.904 153.161 399.701C151.127 392.762 149.209 386.202 143.821 380.829C138.433 375.455 131.889 373.53 124.949 371.49C117.65 369.334 110.114 367.179 103.749 360.785C97.3839 354.392 95.1856 346.884 93.0448 339.593C91.0117 332.653 89.0936 326.094 83.7056 320.72C78.3175 315.346 71.7729 313.421 64.8331 311.381C57.5413 309.226 49.9981 307.07 43.6402 300.677C37.2823 294.283 35.0694 286.776 32.9357 279.484C30.9026 272.544 28.9773 265.985 23.5965 260.611C18.2156 255.238 11.6638 253.312 4.72401 251.272C-2.56778 249.117 -10.111 246.962 -16.4689 240.568C-22.8268 234.174 -25.0394 226.667 -27.173 219.375C-29.2061 212.435 -31.1314 205.876 -36.5123 200.502C-41.8931 195.129 -48.445 193.203 -55.3847 191.163C-62.6765 189.008 -70.2197 186.853 -76.5776 180.459C-82.9355 174.065 -85.1481 166.565 -87.2818 159.266C-89.3148 152.326 -91.2402 145.767 -96.621 140.394C-102.002 135.02 -108.554 133.102 -115.493 131.054C-119.703 129.819 -124.05 128.547 -128.188 126.449" stroke="#FFC844" stroke-width="6" stroke-linecap="round" stroke-linejoin="round"/>
</g>
<g opacity="0.5">
<path d="M451.522 226.606C455.808 230.876 460.754 234.428 466.171 237.124C467.888 237.995 469.622 238.786 471.371 239.498L471.846 239.688C472.499 239.949 473.14 240.211 473.793 240.448L475.217 240.982L476.119 241.303L478.066 241.968L478.28 242.039C481.367 243.06 484.453 243.974 487.493 244.864C498.664 248.141 509.206 251.227 517.658 259.68C526.111 268.133 529.197 278.674 532.474 289.846C533.376 292.92 534.29 296.031 535.335 299.153C535.56 299.853 535.81 300.554 536.047 301.254C536.142 301.504 536.237 301.753 536.32 302.002L536.89 303.557C537.116 304.151 537.353 304.744 537.579 305.314C537.674 305.528 537.757 305.742 537.84 305.967C538.552 307.7 539.344 309.422 540.214 311.131L540.214 311.214C542.91 316.631 546.462 321.578 550.732 325.864C559.042 334.174 568.445 338.341 577.895 341.439L577.895 336.43C569.501 333.545 561.274 329.675 554.08 322.504C549.991 318.373 546.617 313.591 544.096 308.353C544.057 308.264 544.014 308.177 543.965 308.092C541.102 301.764 538.771 295.208 536.997 288.492C533.554 276.716 530.289 265.604 520.982 256.285C511.675 246.977 500.563 243.713 488.786 240.27C482.073 238.501 475.521 236.17 469.198 233.301L468.925 233.171C463.685 230.65 458.902 227.271 454.774 223.175C444.695 213.096 441.134 200.939 437.691 189.175C436.267 184.307 434.866 179.571 433.073 175.012L427.921 175.012C429.963 180.048 431.703 185.202 433.133 190.445C436.848 202.91 440.588 215.672 451.522 226.606Z" fill="#766DFA"/>
<path d="M200.224 179.963C208.677 188.427 211.764 198.957 215.04 210.152C218.602 222.487 222.389 235.237 233.322 246.183C244.256 257.128 257.006 260.856 269.364 264.417C280.536 267.694 291.077 270.78 299.542 279.233C308.006 287.685 311.081 298.227 314.358 309.422C317.919 321.757 321.706 334.507 332.64 345.441C336.929 349.711 341.875 353.266 347.289 355.971C349.015 356.833 350.748 357.625 352.489 358.345L353 358.547L354.899 359.283L356.359 359.817L357.226 360.138L359.208 360.814L359.375 360.874C362.473 361.895 365.56 362.809 368.611 363.699C379.782 366.976 390.324 370.062 398.776 378.515C407.229 386.967 410.316 397.509 413.592 408.681C414.482 411.755 415.409 414.878 416.441 418C416.663 418.696 416.9 419.397 417.154 420.101L417.427 420.849L417.996 422.416C418.222 422.998 418.448 423.603 418.685 424.149C418.768 424.375 418.851 424.588 418.946 424.814C419.659 426.547 420.45 428.269 421.321 429.978L421.321 430.061C424.016 435.475 427.564 440.421 431.827 444.711C442.772 455.644 455.57 459.384 467.869 462.993C479.04 466.27 489.594 469.356 498.046 477.809C506.499 486.261 509.586 496.803 512.862 507.986C516.424 520.333 520.211 533.083 531.144 544.028C542.078 554.974 554.982 558.832 567.317 562.394C570.973 563.462 574.559 564.519 578.001 565.741L578.001 560.72C574.939 559.687 571.816 558.773 568.635 557.835C556.87 554.392 544.702 550.831 534.623 540.752C524.544 530.673 520.982 518.504 517.54 506.74C514.097 494.975 510.832 483.851 501.513 474.544C492.194 465.237 481.094 461.972 469.317 458.517C457.541 455.063 445.384 451.513 435.305 441.434C431.213 437.306 427.839 432.523 425.321 427.283C425.277 427.203 425.237 427.119 425.203 427.034C422.33 420.704 419.995 414.144 418.222 407.422C414.767 395.657 411.515 384.534 402.207 375.227C392.9 365.919 381.776 362.666 370.012 359.212C363.306 357.447 356.762 355.12 350.447 352.255L350.139 352.101C344.904 349.586 340.125 346.215 336 342.129C325.921 332.05 322.359 319.881 318.905 308.105C315.45 296.328 312.209 285.228 302.89 275.909C293.571 266.59 282.459 263.349 270.694 259.894C258.929 256.44 246.761 252.89 236.682 242.811C226.603 232.732 223.042 220.564 219.599 208.799C216.156 197.034 212.891 185.911 203.572 176.603C203.05 176.073 202.516 175.562 201.97 175.072L194.289 175.072C196.415 176.514 198.403 178.151 200.224 179.963Z" fill="#766DFA"/>
<path d="M505.798 197.496L505.869 197.496C507.579 198.363 509.324 199.158 511.069 199.871C511.211 199.942 511.354 199.989 511.508 200.049C512.161 200.322 512.826 200.583 513.479 200.832L514.88 201.343L515.818 201.675L517.729 202.328L517.978 202.411C521.065 203.444 524.139 204.346 527.179 205.237C538.35 208.513 548.892 211.6 557.356 220.052C565.821 228.505 568.883 239.047 572.16 250.242C573.264 253.993 574.392 257.816 575.721 261.638L575.983 262.386C576.173 262.909 576.363 263.431 576.564 263.953C576.766 264.476 577.015 265.141 577.253 265.71L577.502 266.351L577.977 267.432L577.977 253.186C577.55 251.761 577.122 250.337 576.707 248.912C573.264 237.136 569.999 226.024 560.692 216.705C551.373 207.397 540.261 204.133 528.485 200.69C521.773 198.926 515.224 196.595 508.908 193.721L508.611 193.579C503.377 191.058 498.599 187.684 494.472 183.595C491.89 181.009 489.601 178.146 487.646 175.059L482.078 175.059C484.543 179.404 487.582 183.397 491.113 186.931C495.406 191.221 500.365 194.789 505.798 197.496Z" fill="#766DFA"/>
<path d="M308.989 224.837C320.16 228.113 330.702 231.2 339.166 239.652C347.63 248.105 350.705 258.647 353.982 269.83C357.543 282.164 361.33 294.926 372.264 305.86C376.553 310.13 381.499 313.685 386.914 316.39C388.635 317.269 390.368 318.052 392.125 318.765L392.564 318.931C393.217 319.204 393.87 319.465 394.535 319.714L395.936 320.225L396.874 320.557L398.785 321.222L399.034 321.305C402.121 322.326 405.196 323.228 408.235 324.119C419.406 327.395 429.948 330.482 438.401 338.934C446.853 347.387 449.94 357.929 453.216 369.112C454.32 372.875 455.448 376.71 456.778 380.532C456.873 380.77 456.956 381.019 457.051 381.256L457.621 382.835L458.297 384.557L458.57 385.233C459.283 386.979 460.078 388.7 460.945 390.421C460.942 390.441 460.942 390.461 460.945 390.481C463.65 395.895 467.205 400.841 471.475 405.13C482.408 416.064 495.218 419.803 507.505 423.412C518.676 426.689 529.23 429.776 537.682 438.228C546.135 446.681 549.222 457.223 552.498 468.406C556.06 480.752 559.847 493.502 570.78 504.448C572.984 506.622 575.367 508.608 577.903 510.384L577.903 504.448C576.596 503.389 575.344 502.263 574.152 501.076C564.073 490.997 560.511 478.829 557.069 467.064C553.626 455.299 550.361 444.176 541.054 434.857C531.747 425.537 520.623 422.297 508.846 418.842C497.07 415.387 484.925 411.838 474.834 401.759C470.746 397.627 467.372 392.845 464.85 387.608C464.85 387.525 464.767 387.43 464.72 387.335C461.844 381.015 459.513 374.462 457.751 367.747C454.296 355.982 451.044 344.858 441.736 335.551C432.429 326.244 421.305 322.991 409.541 319.536C402.829 317.774 396.28 315.443 389.964 312.568L389.668 312.437C384.436 309.912 379.658 306.539 375.529 302.453C365.45 292.362 361.888 280.206 358.445 268.441C355.003 256.676 351.738 245.553 342.431 236.233C333.123 226.914 322 223.673 310.223 220.219C298.446 216.764 286.29 213.214 276.211 203.135C267.818 194.73 263.936 184.877 260.885 175.024L255.923 175.024C259.211 185.91 263.259 196.891 272.851 206.483C283.892 217.488 296.642 221.228 308.989 224.837Z" fill="#766DFA"/>
<path d="M378.796 200.025C387.248 208.478 390.335 219.02 393.612 230.203C397.173 242.549 400.96 255.299 411.894 266.233C416.183 270.503 421.129 274.058 426.543 276.763L426.603 276.763C428.32 277.634 430.057 278.425 431.814 279.137L432.254 279.304C432.906 279.577 433.559 279.838 434.224 280.087L435.637 280.598L436.551 280.93L438.51 281.595L438.7 281.666C441.786 282.687 444.885 283.601 447.924 284.492C459.095 287.768 469.637 290.855 478.09 299.295C486.542 307.736 489.629 318.29 492.905 329.497C493.808 332.56 494.722 335.658 495.755 338.78L496.467 340.87C496.562 341.119 496.657 341.368 496.74 341.618L497.31 343.185C497.535 343.766 497.773 344.372 497.998 344.942C498.093 345.155 498.176 345.369 498.259 345.583C498.972 347.316 499.755 349.049 500.634 350.747L500.634 350.83C503.33 356.246 506.882 361.193 511.152 365.479C522.086 376.413 534.836 380.153 547.182 383.762C558.353 387.038 568.907 390.125 577.36 398.577C577.562 398.779 577.74 398.993 577.941 399.195L577.941 392.689C569.228 385.293 559.137 382.313 548.512 379.203C536.747 375.76 524.591 372.199 514.5 362.12C510.411 357.988 507.037 353.206 504.516 347.969L504.397 347.72C501.525 341.389 499.19 334.829 497.417 328.108C493.962 316.331 490.709 305.219 481.402 295.9C472.095 286.593 460.983 283.328 449.206 279.885C442.504 278.122 435.963 275.795 429.654 272.929L429.333 272.774C424.1 270.257 419.322 266.887 415.194 262.802C405.115 252.711 401.554 240.555 398.111 228.778C394.668 217.002 391.403 205.902 382.096 196.583C372.789 187.263 361.665 184.022 349.889 180.568C344.283 179.039 338.773 177.18 333.387 175L322.928 175C331.167 180.022 339.964 182.61 348.559 185.127C359.79 188.439 370.343 191.573 378.796 200.025Z" fill="#766DFA"/>
<path d="M306.463 546.2L306.332 545.951C303.456 539.624 301.125 533.063 299.363 526.339C295.909 514.574 292.656 503.451 283.337 494.143C274.029 484.824 262.906 481.571 251.129 478.117C244.418 476.353 237.869 474.022 231.553 471.148L231.268 471.018C226.03 468.503 221.251 465.128 217.129 461.034C207.05 450.955 203.488 438.786 200.034 427.022C196.698 415.601 193.516 404.81 184.838 395.681L184.838 403.077C190.264 410.556 192.816 419.246 195.523 428.363C199.084 440.698 202.883 453.448 213.817 464.393C218.109 468.656 223.055 472.207 228.466 474.912L228.538 474.912C230.259 475.778 231.992 476.562 233.737 477.286L234.271 477.5L236.135 478.236L237.619 478.77L238.462 479.078L240.457 479.755L240.611 479.814C243.709 480.835 246.808 481.75 249.859 482.652C261.018 485.916 271.572 489.003 280.025 497.456C288.477 505.908 291.564 516.45 294.84 527.645C295.731 530.696 296.645 533.795 297.678 536.905L297.678 536.988C297.903 537.677 298.129 538.353 298.378 539.03C298.461 539.303 298.568 539.564 298.663 539.825C298.841 540.336 299.031 540.846 299.221 541.357C299.411 541.867 299.684 542.544 299.921 543.137L300.171 543.755C300.883 545.488 301.666 547.221 302.545 548.931L302.545 549.002C305.252 554.408 308.803 559.349 313.063 563.64C314.704 565.27 316.444 566.796 318.275 568.21L326.751 568.21C322.981 566.023 319.51 563.357 316.423 560.28C312.345 556.171 308.98 551.413 306.463 546.2Z" fill="#766DFA"/>
<path d="M190.095 343.72C201.266 346.996 211.82 350.083 220.272 358.536C228.725 366.988 231.823 377.53 235.088 388.713C238.649 401.059 242.448 413.809 253.382 424.755C257.675 429.018 262.62 432.569 268.032 435.273C269.753 436.14 271.486 436.923 273.231 437.648L273.671 437.814C274.335 438.087 274.988 438.348 275.653 438.597L277.054 439.108L277.98 439.452L279.903 440.105L280.14 440.188C283.227 441.209 286.314 442.123 289.353 443.014C300.524 446.278 311.066 449.365 319.519 457.817C327.971 466.27 331.058 476.812 334.322 487.995C335.225 491.058 336.151 494.168 337.183 497.29C337.409 497.979 337.646 498.667 337.896 499.368C337.979 499.617 338.074 499.878 338.169 500.14L338.739 501.683C338.964 502.276 339.201 502.87 339.439 503.452C339.522 503.665 339.593 503.867 339.688 504.081C340.401 505.814 341.184 507.547 342.063 509.257L342.063 509.328C344.767 514.74 348.318 519.685 352.581 523.978C363.526 534.911 376.324 538.651 388.623 542.26C399.794 545.536 410.336 548.635 418.8 557.087C422.013 560.342 424.689 564.084 426.731 568.176L432.025 568.176C429.632 562.803 426.285 557.908 422.148 553.728C412.841 544.409 401.729 541.156 389.952 537.701C378.176 534.247 366.019 530.697 355.94 520.618C351.89 516.522 348.544 511.785 346.04 506.598L345.909 506.337C343.035 500.012 340.704 493.455 338.94 486.737C335.486 474.972 332.233 463.848 322.914 454.541C313.606 445.234 302.483 441.981 290.718 438.526C284.005 436.761 277.452 434.434 271.13 431.569L270.845 431.427C265.61 428.908 260.831 425.534 256.706 421.443C246.627 411.364 243.066 399.196 239.611 387.431C236.156 375.666 232.915 364.542 223.596 355.235C214.277 345.928 203.165 342.663 191.401 339.209C189.204 338.567 186.996 337.926 184.788 337.226L184.788 342.2L190.095 343.72Z" fill="#766DFA"/>
<path d="M243.708 533.771C234.389 524.452 223.277 521.199 211.501 517.744C204.792 515.979 198.243 513.652 191.925 510.787L191.64 510.645C189.284 509.489 187.011 508.172 184.837 506.704L184.837 512.354C186.143 513.138 187.461 513.862 188.79 514.539L188.862 514.539C190.583 515.406 192.316 516.189 194.061 516.913L194.548 517.103L196.471 517.863L197.908 518.385L198.798 518.706L200.757 519.382L200.959 519.442C204.045 520.475 207.132 521.389 210.183 522.279C221.342 525.544 231.896 528.63 240.349 537.083C248.801 545.536 251.888 556.077 255.164 567.272L255.449 568.246L260.412 568.246C260.186 567.474 259.949 566.703 259.723 565.931C256.28 554.202 253.028 543.078 243.708 533.771Z" fill="#766DFA"/>
<path d="M184.822 566.63C186.092 567.141 187.339 567.687 188.562 568.281L197.988 568.281C193.904 565.475 189.48 563.201 184.822 561.514L184.822 566.63Z" fill="#766DFA"/>
<path d="M193.696 285.785C204.641 296.719 217.439 300.458 229.738 304.067C240.897 307.344 251.451 310.43 259.915 318.883C268.38 327.335 271.455 337.877 274.731 349.06C278.293 361.407 282.08 374.157 293.013 385.102C297.306 389.365 302.251 392.916 307.663 395.621C309.384 396.499 311.118 397.283 312.875 397.995L313.29 398.161C313.955 398.438 314.62 398.699 315.284 398.945L316.685 399.455L317.623 399.788C318.264 400.025 318.905 400.239 319.546 400.452L319.772 400.524C322.858 401.556 325.945 402.459 328.984 403.361C340.155 406.626 350.697 409.712 359.15 418.165C367.602 426.617 370.689 437.159 373.966 448.354C375.07 452.117 376.197 455.94 377.527 459.763L377.776 460.475C377.966 461.009 378.156 461.544 378.358 462.078C378.56 462.612 378.809 463.265 379.047 463.811C379.13 464.025 379.213 464.25 379.308 464.464C380.02 466.205 380.812 467.934 381.682 469.652C384.387 475.063 387.937 480.009 392.2 484.301C403.146 495.235 415.943 498.975 428.242 502.584C439.414 505.86 449.967 508.947 458.42 517.399C466.872 525.852 469.959 536.394 473.236 547.589C475.089 554.632 477.544 561.503 480.572 568.126L485.926 568.126C482.139 561.075 479.991 553.584 477.794 546.247C474.34 534.482 471.087 523.359 461.768 514.052C452.448 504.744 441.349 501.48 429.572 498.025C417.795 494.57 405.639 491.021 395.56 480.942C391.471 476.81 388.097 472.028 385.576 466.791L385.445 466.53C382.571 460.205 380.24 453.648 378.477 446.93C375.022 435.165 371.769 424.041 362.462 414.734C353.155 405.427 342.031 402.174 330.266 398.719C323.561 396.954 317.016 394.627 310.702 391.762L310.393 391.62C305.158 389.101 300.379 385.727 296.254 381.636C286.175 371.557 282.614 359.389 279.159 347.624C275.705 335.859 272.464 324.736 263.145 315.416C253.825 306.097 242.714 302.856 230.949 299.402C219.184 295.947 207.016 292.397 196.937 282.318C191.57 276.826 187.405 270.277 184.709 263.086L184.709 274.056C187.165 278.351 190.188 282.296 193.696 285.785Z" fill="#766DFA"/>
</g>
<path d="M335.621 84H225.709V193.912H335.621V84Z" fill="#FFC844"/>
<path d="M274.815 108.425C286.08 108.411 297.235 110.63 307.637 114.954C318.038 119.279 327.479 125.623 335.413 133.619H335.621V102.343C317.61 90.3581 296.449 83.9831 274.815 84.0246H225.709V108.449L274.815 108.425Z" fill="#766DFA"/>
<path d="M265.699 138.956H225.709V163.381H277.294C277.702 163.381 278.094 163.543 278.382 163.832C278.671 164.12 278.833 164.512 278.833 164.92V193.912H303.258V176.515C303.258 171.583 302.286 166.699 300.399 162.142C298.511 157.585 295.745 153.445 292.257 149.957C288.769 146.469 284.629 143.703 280.072 141.815C275.515 139.928 270.631 138.956 265.699 138.956Z" fill="#FC805F"/>
</svg>
