<svg width="698" height="699" viewBox="0 0 698 699" fill="none" xmlns="http://www.w3.org/2000/svg">
<path d="M672.301 358.799C669.391 368.709 666.391 378.959 657.901 387.449C649.411 395.939 639.161 398.939 629.251 401.849C619.341 404.759 609.971 407.489 602.131 415.339C594.291 423.189 591.541 432.549 588.641 442.459C585.741 452.369 582.731 462.619 574.241 471.109C570.764 474.556 566.735 477.399 562.321 479.519L562.101 479.629C556.773 482.05 551.25 484.017 545.591 485.509C535.681 488.409 526.311 491.149 518.471 498.999C510.631 506.839 507.891 516.209 504.981 526.129C503.495 531.781 501.534 537.297 499.121 542.619L499.001 542.859C496.88 547.269 494.037 551.295 490.591 554.769C482.101 563.259 471.851 566.269 461.941 569.169C452.031 572.069 442.661 574.809 434.821 582.659C426.981 590.509 424.231 599.869 421.331 609.779C418.631 618.999 415.831 628.509 408.621 636.629L412.421 638.339C419.611 629.819 422.421 620.219 425.161 610.909C427.901 601.599 430.521 592.609 437.641 585.489C444.761 578.369 453.641 575.759 463.061 573.009C473.461 570.009 484.201 566.809 493.421 557.599C497.012 553.983 500.003 549.818 502.281 545.259V545.199C503.011 543.749 503.671 542.289 504.281 540.819C504.281 540.689 504.381 540.549 504.441 540.419C504.661 539.879 504.871 539.329 505.081 538.789C505.291 538.249 505.381 537.979 505.521 537.579C505.661 537.179 505.711 537.079 505.791 536.819C505.991 536.279 506.171 535.729 506.361 535.179C506.374 535.122 506.391 535.065 506.411 535.009C507.281 532.409 508.051 529.809 508.801 527.239C511.551 517.839 514.151 508.949 521.271 501.829C528.391 494.709 537.271 492.109 546.691 489.349C549.861 488.429 553.091 487.469 556.311 486.349L556.911 486.129L558.261 485.639C558.741 485.459 559.261 485.259 559.701 485.069L560.271 484.839C561.745 484.239 563.201 483.573 564.641 482.839H564.691C569.25 480.561 573.415 477.57 577.031 473.979C586.241 464.759 589.391 453.979 592.441 443.619C595.191 434.209 597.801 425.329 604.921 418.209C612.041 411.089 620.921 408.479 630.341 405.719C640.731 402.719 651.471 399.529 660.691 390.319C669.911 381.109 673.051 370.319 676.091 359.969C678.851 350.559 681.451 341.669 688.571 334.549C691.369 331.784 694.598 329.491 698.131 327.759V323.279C693.522 325.297 689.326 328.148 685.751 331.689C677.941 339.519 675.171 348.889 672.301 358.799Z" fill="#FC805F" fill-opacity="0.33"/>
<path d="M696.012 468.61C686.102 471.51 676.732 474.26 668.892 482.1C661.052 489.94 658.302 499.31 655.402 509.22C652.502 519.13 649.492 529.38 641.002 537.87C637.528 541.321 633.499 544.164 629.082 546.28L628.872 546.39C623.541 548.811 618.014 550.778 612.352 552.27C602.442 555.17 593.072 557.91 585.232 565.76C577.382 573.61 574.642 582.97 571.742 592.89C570.247 598.537 568.284 604.049 565.872 609.37L565.752 609.62C563.631 614.03 560.788 618.055 557.342 621.53C548.852 630.02 538.602 633.03 528.692 635.93C518.782 638.83 509.412 641.58 501.572 649.42C496.042 654.95 493.052 661.24 490.742 667.94L494.572 669.11C496.722 662.92 499.482 657.16 504.402 652.25C511.522 645.13 520.402 642.52 529.822 639.77C540.212 636.72 550.952 633.58 560.172 624.36C563.771 620.751 566.763 616.584 569.032 612.02V611.97C569.762 610.52 570.432 609.05 571.032 607.58L571.172 607.22C571.399 606.66 571.619 606.1 571.832 605.54C571.982 605.15 572.122 604.76 572.262 604.37C572.402 603.98 572.462 603.84 572.552 603.57C572.742 603.04 572.922 602.5 573.102 601.96C573.102 601.89 573.152 601.83 573.172 601.76C574.032 599.16 574.802 596.56 575.552 594C578.302 584.6 580.912 575.71 588.022 568.59C595.132 561.47 604.022 558.87 613.452 556.11C616.622 555.19 619.852 554.23 623.072 553.11L623.652 552.9L625.012 552.4C625.492 552.22 626.012 552.03 626.442 551.83L627.032 551.6C628.492 551 629.952 550.34 631.392 549.6H631.452C636.015 547.329 640.182 544.337 643.792 540.74C653.012 531.53 656.152 520.74 659.202 510.39C661.952 500.98 664.562 492.09 671.682 484.97C678.802 477.85 687.682 475.24 697.102 472.49L698.102 472.18V468.01L696.012 468.61Z" fill="#FC805F" fill-opacity="0.33"/>
<path d="M70.4395 218.28C77.5595 211.16 86.4394 208.55 95.8594 205.8C106.249 202.75 116.999 199.61 126.209 190.39C129.809 186.785 132.8 182.621 135.069 178.06V178.01C135.799 176.56 136.469 175.09 137.069 173.62C137.069 173.5 137.169 173.38 137.209 173.26C137.443 172.7 137.663 172.14 137.869 171.58C138.019 171.19 138.159 170.8 138.299 170.41C138.439 170.02 138.499 169.88 138.589 169.62C138.779 169.08 138.959 168.54 139.139 168L139.209 167.8C140.069 165.2 140.839 162.61 141.589 160.05C144.339 150.64 146.949 141.75 154.059 134.63C161.169 127.51 170.06 124.91 179.49 122.16C182.66 121.23 185.879 120.28 189.099 119.16L189.719 118.94L191.049 118.45C191.539 118.27 192.05 118.07 192.52 117.87L193.069 117.66C194.529 117.05 195.989 116.39 197.429 115.66H197.49C202.054 113.391 206.221 110.399 209.829 106.8C219.049 97.5898 222.189 86.7997 225.24 76.4497C227.99 67.0397 230.599 58.1498 237.719 51.0298C244.839 43.9098 253.719 41.3098 263.139 38.5498C273.529 35.5498 284.279 32.3599 293.49 23.1399C300.57 16.0599 304.059 8.0798 306.689 0.0498047H302.469C300.029 7.1898 296.769 14.2098 290.659 20.3098C282.169 28.8098 271.92 31.8097 262.01 34.7097C252.1 37.6097 242.729 40.3597 234.889 48.1997C227.049 56.0397 224.299 65.4098 221.399 75.3298C218.499 85.2498 215.5 95.4797 207 103.97C203.528 107.422 199.502 110.268 195.089 112.39L194.869 112.49C189.538 114.911 184.012 116.878 178.349 118.37C168.439 121.27 159.079 124.01 151.229 131.86C143.379 139.71 140.64 149.07 137.74 158.99C136.249 164.638 134.285 170.151 131.869 175.47L131.75 175.73C129.626 180.139 126.784 184.164 123.339 187.64C114.849 196.13 104.599 199.13 94.6895 202.03C84.7795 204.93 75.4093 207.68 67.5693 215.52C59.7293 223.36 56.9793 232.73 54.0793 242.65C52.6066 248.184 50.6939 253.591 48.3594 258.82C49.0094 260.46 49.6594 262.1 50.3594 263.74C53.9794 257.27 55.9895 250.45 57.9495 243.74C60.7095 234.28 63.3195 225.43 70.4395 218.28Z" fill="#FC805F" fill-opacity="0.33"/>
<path d="M91.3396 277.11C94.0896 267.7 96.6996 258.809 103.82 251.689C110.94 244.569 119.82 241.969 129.24 239.209C139.63 236.209 150.38 233.02 159.59 223.8C163.189 220.194 166.181 216.03 168.45 211.469V211.409C169.176 209.956 169.843 208.496 170.45 207.03C170.51 206.9 170.56 206.76 170.61 206.63C170.83 206.09 171.05 205.55 171.25 205C171.4 204.6 171.55 204.2 171.69 203.79C171.79 203.54 171.88 203.29 171.97 203.04C172.16 202.49 172.35 201.94 172.53 201.4L172.59 201.219C173.45 198.619 174.22 196.019 174.97 193.459C177.73 184.049 180.33 175.16 187.45 168.04C194.57 160.92 203.45 158.33 212.86 155.57C215.44 154.81 218.07 154.039 220.7 153.159L222.46 152.55L223.1 152.33L224.41 151.84C224.9 151.66 225.41 151.47 225.87 151.27L226.43 151.05C227.903 150.443 229.356 149.776 230.79 149.05H230.86C235.421 146.781 239.585 143.789 243.19 140.189C252.41 130.979 255.55 120.19 258.6 109.84C261.36 100.43 263.96 91.5394 271.08 84.4194C278.2 77.2994 287.08 74.6895 296.5 71.9395C306.89 68.9395 317.64 65.7495 326.85 56.5295C336.06 47.3095 339.21 36.5294 342.26 26.1794C345.01 16.7694 347.62 7.87952 354.74 0.759521C354.98 0.519521 355.23 0.28957 355.48 0.0595703H349.95C343.59 7.44957 341.06 16.0596 338.42 25.0596C335.52 34.9696 332.51 45.2095 324.02 53.6995C315.53 62.1895 305.28 65.1996 295.37 68.0996C285.46 70.9996 276.09 73.7496 268.25 81.5896C260.41 89.4296 257.66 98.7995 254.76 108.719C251.86 118.639 248.86 128.87 240.36 137.36C236.885 140.808 232.86 143.654 228.45 145.78L228.22 145.89C222.892 148.302 217.373 150.265 211.72 151.76C201.8 154.66 192.44 157.4 184.59 165.25C176.74 173.1 174 182.46 171.1 192.38C169.605 198.03 167.642 203.546 165.23 208.87L165.11 209.11C162.989 213.523 160.147 217.552 156.7 221.03C148.21 229.52 137.96 232.519 128.05 235.419C118.14 238.319 108.77 241.069 100.93 248.909C93.0897 256.749 90.3397 266.12 87.4397 276.04C84.5397 285.96 81.5398 296.189 73.0398 304.689C72.0523 305.676 71.0141 306.611 69.9297 307.49L71.7297 311.169C73.1812 310.033 74.5636 308.811 75.8696 307.51C85.1696 298.28 88.2896 287.5 91.3396 277.11Z" fill="#FC805F" fill-opacity="0.33"/>
<path d="M26.071 90.2798C29.6641 86.6657 32.6554 82.4996 34.9312 77.9397V77.8799C35.6612 76.4299 36.3212 74.9698 36.9312 73.4998C36.9312 73.3698 37.0311 73.2299 37.0911 73.0999C37.3111 72.5499 37.5212 72.0097 37.7312 71.4697L38.1711 70.2698L38.4412 69.4998C38.6412 68.9598 38.8212 68.4099 39.0112 67.8599V67.6897C39.8812 65.0897 40.6511 62.4897 41.4011 59.9197C44.1511 50.5197 46.7511 41.6398 53.8711 34.5098C60.9911 27.3798 69.8713 24.7898 79.2913 22.0398C81.8713 21.2798 84.4911 20.5099 87.1211 19.6299C87.7011 19.4399 88.2911 19.2398 88.8711 19.0298L89.5112 18.7998L90.821 18.3198C91.311 18.1398 91.821 17.9397 92.301 17.7397L92.8411 17.5198C94.3011 16.9198 95.7612 16.2598 97.1912 15.5198H97.2612C101.816 13.2413 105.979 10.2503 109.591 6.65967C111.617 4.62967 113.452 2.41709 115.071 0.0498047H110.071C109.035 1.37639 107.92 2.63876 106.731 3.82983C103.251 7.27689 99.223 10.1222 94.811 12.2498L94.6011 12.3398C89.2716 14.7686 83.7449 16.7389 78.0811 18.2297C68.1711 21.1297 58.8012 23.8697 50.9612 31.7197C43.1112 39.5697 40.3712 48.9299 37.4612 58.8499C35.9729 64.5009 34.0126 70.0169 31.6011 75.3398L31.4812 75.5798C29.3597 79.9899 26.5172 84.0151 23.071 87.4897C18.1104 92.3177 12.1549 96.0037 5.62109 98.2898C5.81109 99.6398 6.01118 100.99 6.21118 102.34C13.2512 99.7898 19.991 96.3598 26.071 90.2798Z" fill="#FC805F" fill-opacity="0.33"/>
<path d="M376.359 607.89C385.569 598.67 388.719 587.89 391.759 577.54C394.519 568.13 397.119 559.24 404.239 552.12C411.359 545 420.239 542.39 429.669 539.64C440.059 536.59 450.799 533.44 460.019 524.23C463.61 520.614 466.6 516.449 468.879 511.89V511.83C469.609 510.38 470.269 508.92 470.879 507.45C470.929 507.32 470.979 507.18 471.039 507.05C471.259 506.5 471.469 505.96 471.679 505.42C471.889 504.88 471.969 504.62 472.119 504.21L472.389 503.45C472.589 502.91 472.769 502.36 472.949 501.81L473.009 501.64C473.879 499.04 474.639 496.44 475.399 493.87C478.149 484.47 480.749 475.58 487.869 468.46C494.989 461.34 503.869 458.74 513.299 455.98C515.869 455.23 518.479 454.46 521.089 453.59H521.169C521.749 453.4 522.319 453.21 522.889 453L523.569 452.76L524.839 452.29L526.359 451.7L526.869 451.49C528.329 450.89 529.789 450.23 531.229 449.49H531.289C535.843 447.21 540.005 444.219 543.619 440.63C552.829 431.41 555.979 420.63 559.019 410.27C561.779 400.86 564.379 391.98 571.509 384.86C578.639 377.74 587.509 375.13 596.929 372.37C607.319 369.37 618.059 366.18 627.279 356.97C636.499 347.76 639.639 336.97 642.679 326.62C645.439 317.21 648.039 308.32 655.159 301.2C662.279 294.08 671.159 291.47 680.589 288.72C686.429 287 692.379 285.26 698.099 282.43V277.9C692.099 281.17 685.719 283.04 679.459 284.9C669.549 287.8 660.179 290.54 652.339 298.39C644.499 306.24 641.749 315.6 638.839 325.51C635.929 335.42 632.939 345.67 624.449 354.16C615.959 362.65 605.709 365.65 595.799 368.56C585.889 371.47 576.519 374.2 568.679 382.05C560.839 389.9 558.089 399.25 555.179 409.17C552.269 419.09 549.279 429.33 540.789 437.82C537.311 441.267 533.282 444.11 528.869 446.23L528.659 446.33C523.331 448.76 517.804 450.727 512.139 452.21C502.229 455.12 492.859 457.86 485.019 465.71C477.179 473.55 474.439 482.92 471.529 492.84C470.043 498.493 468.079 504.01 465.659 509.33L465.549 509.57C463.427 513.98 460.585 518.006 457.139 521.48C448.649 529.97 438.399 532.97 428.489 535.88C418.579 538.79 409.209 541.52 401.369 549.37C393.529 557.22 390.779 566.58 387.869 576.49C384.959 586.4 381.969 596.65 373.479 605.14C370.109 608.479 366.222 611.251 361.969 613.35L366.169 615.64C369.904 613.536 373.333 610.928 376.359 607.89Z" fill="#FC805F" fill-opacity="0.33"/>
<path d="M279.242 556.53C289.642 553.53 300.382 550.34 309.602 541.13C318.822 531.92 321.962 521.13 325.002 510.77C327.762 501.37 330.362 492.48 337.482 485.35C344.602 478.22 353.482 475.63 362.902 472.87C373.292 469.87 384.042 466.68 393.252 457.47C396.849 453.857 399.844 449.691 402.122 445.13C402.862 443.68 403.522 442.22 404.122 440.75C404.172 440.61 404.222 440.48 404.282 440.34C404.502 439.8 404.712 439.26 404.922 438.72L405.362 437.5L405.632 436.75C405.822 436.21 406.012 435.66 406.192 435.11L406.252 434.94C407.112 432.34 407.882 429.74 408.632 427.17C411.392 417.77 413.992 408.88 421.112 401.76C428.232 394.64 437.112 392.04 446.542 389.28C449.712 388.35 452.942 387.4 456.162 386.28L456.732 386.08C457.192 385.91 457.652 385.75 458.102 385.57L459.512 385.02L460.122 384.78C461.582 384.18 463.032 383.51 464.482 382.78H464.532C469.091 380.502 473.256 377.511 476.872 373.92C486.082 364.7 489.232 353.92 492.272 343.56C495.032 334.15 497.632 325.26 504.752 318.14C511.872 311.02 520.752 308.42 530.172 305.66C540.572 302.66 551.312 299.47 560.532 290.26C569.752 281.05 572.892 270.26 575.932 259.91C578.692 250.5 581.292 241.61 588.412 234.49C595.532 227.37 604.412 224.76 613.832 222C624.232 219 634.972 215.81 644.192 206.6C653.412 197.39 656.552 186.6 659.592 176.25C662.352 166.84 664.952 157.95 672.072 150.83C679.192 143.71 688.072 141.1 697.492 138.34L698.112 138.16V133.99L696.362 134.51C686.452 137.41 677.092 140.15 669.242 148C661.392 155.85 658.662 165.21 655.752 175.12C652.842 185.03 649.852 195.28 641.362 203.77C632.872 212.26 622.622 215.26 612.712 218.17C602.802 221.08 593.432 223.81 585.582 231.66C577.732 239.51 575.002 248.87 572.092 258.78C569.182 268.69 566.192 278.94 557.702 287.43C549.212 295.92 538.962 298.92 529.052 301.82C519.142 304.72 509.772 307.47 501.932 315.32C494.092 323.17 491.342 332.52 488.432 342.44C485.522 352.36 482.532 362.6 474.042 371.09C470.562 374.534 466.534 377.376 462.122 379.5L461.902 379.61C456.575 382.031 451.052 383.995 445.392 385.48C435.482 388.39 426.112 391.13 418.272 398.97C410.432 406.81 407.692 416.18 404.782 426.09C403.297 431.742 401.337 437.259 398.922 442.58L398.802 442.83C396.681 447.24 393.838 451.266 390.392 454.74C381.902 463.23 371.652 466.23 361.742 469.14C351.832 472.05 342.462 474.78 334.612 482.63C326.762 490.48 324.032 499.84 321.122 509.75C318.212 519.66 315.222 529.91 306.732 538.4C298.242 546.89 287.992 549.89 278.082 552.79C276.082 553.39 274.082 553.97 272.082 554.6L275.992 557.6L279.242 556.53Z" fill="#FC805F" fill-opacity="0.33"/>
<path d="M458.52 644.28C461.28 634.87 463.88 625.98 471.01 618.86C478.14 611.74 487.01 609.13 496.43 606.38C506.82 603.33 517.56 600.18 526.78 590.97C530.373 587.356 533.364 583.19 535.64 578.63V578.57C536.37 577.13 537.03 575.66 537.64 574.19C537.64 574.05 537.75 573.92 537.8 573.78C538.02 573.24 538.23 572.7 538.44 572.16C538.65 571.62 538.74 571.35 538.88 570.94L539.15 570.2C539.35 569.65 539.54 569.09 539.72 568.54V568.39C540.59 565.79 541.35 563.18 542.11 560.61C544.86 551.21 547.46 542.32 554.58 535.2C561.7 528.08 570.58 525.48 580 522.73C582.58 521.97 585.2 521.2 587.82 520.32H587.87C588.45 520.13 589.02 519.93 589.6 519.72L590.27 519.49C590.7 519.33 591.13 519.18 591.55 519.01L593.07 518.42L593.58 518.22C595.04 517.61 596.5 516.95 597.94 516.22H598.01C602.564 513.939 606.726 510.949 610.34 507.36C619.55 498.15 622.7 487.36 625.75 477C628.5 467.59 631.11 458.71 638.23 451.59C645.35 444.47 654.23 441.86 663.65 439.11C674.04 436.06 684.78 432.92 694 423.7C695.457 422.24 696.813 420.683 698.06 419.04V411.8C696.181 415.119 693.863 418.169 691.17 420.87C682.68 429.36 672.43 432.36 662.52 435.27C652.61 438.18 643.24 440.91 635.4 448.76C627.56 456.61 624.81 465.96 621.91 475.88C619.01 485.8 616 496.04 607.51 504.53C604.03 507.977 600.002 510.822 595.59 512.95L595.38 513.05C590.048 515.471 584.522 517.438 578.86 518.93C568.95 521.83 559.58 524.57 551.74 532.42C543.89 540.27 541.15 549.63 538.24 559.55C536.755 565.195 534.794 570.705 532.38 576.02L532.26 576.29C530.136 580.695 527.293 584.717 523.85 588.19C515.36 596.68 505.11 599.69 495.2 602.59C485.29 605.49 475.92 608.24 468.08 616.08C460.24 623.92 457.49 633.29 454.59 643.2C453.5 646.91 452.4 650.66 451 654.36L454.76 655.76C456.29 651.93 457.41 648.09 458.52 644.28Z" fill="#FC805F" fill-opacity="0.33"/>
<path d="M689.852 619.86L690.482 619.64L691.792 619.15L693.262 618.58L693.812 618.36C695.285 617.754 696.739 617.087 698.172 616.36V611.82C697.402 612.25 696.632 612.66 695.842 613.05L695.632 613.15C690.303 615.57 684.781 617.537 679.122 619.03C669.202 621.93 659.842 624.671 651.992 632.521C644.142 640.371 641.402 649.73 638.502 659.65C637.009 665.298 635.045 670.811 632.632 676.13L632.512 676.38C630.392 680.794 627.549 684.823 624.102 688.3C621.733 690.658 619.095 692.729 616.242 694.47C618.242 694.7 620.292 694.93 622.322 695.14C623.946 693.911 625.486 692.574 626.932 691.14C630.534 687.533 633.526 683.366 635.792 678.8V678.75C636.522 677.3 637.182 675.84 637.792 674.36C637.852 674.23 637.902 674.09 637.952 673.96C638.172 673.42 638.382 672.88 638.592 672.33L639.042 671.12C639.132 670.87 639.222 670.62 639.302 670.37C639.502 669.823 639.692 669.274 639.872 668.72L639.922 668.56C640.792 665.96 641.562 663.35 642.312 660.79C645.062 651.38 647.672 642.5 654.782 635.38C661.892 628.26 670.782 625.66 680.202 622.9C682.792 622.14 685.412 621.37 688.042 620.49L689.852 619.86Z" fill="#FC805F" fill-opacity="0.33"/>
<path d="M688.782 542.6C685.882 552.51 682.882 562.76 674.382 571.25C670.91 574.699 666.884 577.542 662.472 579.66L662.242 579.771C656.914 582.192 651.391 584.158 645.732 585.65C635.822 588.55 626.462 591.29 618.612 599.14C610.762 606.99 608.022 616.351 605.122 626.271C603.627 631.921 601.664 637.436 599.252 642.76L599.132 643C597.014 647.412 594.171 651.438 590.722 654.91C582.232 663.41 571.982 666.41 562.072 669.31C553.142 671.93 544.662 674.42 537.332 680.62C539.012 681.02 540.679 681.41 542.332 681.79C548.522 677.44 555.672 675.34 563.162 673.15C573.552 670.1 584.302 666.96 593.512 657.74C597.111 654.135 600.103 649.971 602.372 645.41V645.35C603.099 643.897 603.765 642.437 604.372 640.97L604.522 640.59C604.742 640.04 604.962 639.49 605.172 638.94C605.322 638.54 605.462 638.14 605.612 637.75L605.892 636.97C606.082 636.43 606.262 635.89 606.452 635.34L606.512 635.16C607.372 632.56 608.142 629.96 608.892 627.4C611.642 617.99 614.252 609.1 621.372 601.98C628.492 594.86 637.372 592.26 646.782 589.51C649.362 588.75 651.992 587.98 654.612 587.1L656.362 586.5L657.012 586.271C657.442 586.111 657.882 585.96 658.312 585.79L659.812 585.21L660.332 585C661.802 584.39 663.252 583.73 664.692 583H664.762C669.321 580.728 673.484 577.736 677.092 574.14C686.312 564.93 689.452 554.14 692.502 543.79C693.899 538.44 695.756 533.22 698.052 528.19V520.28C693.342 527.06 691.112 534.65 688.782 542.6Z" fill="#FC805F" fill-opacity="0.33"/>
<path d="M124.721 310.49C127.471 301.08 130.081 292.19 137.201 285.07C144.321 277.95 153.201 275.35 162.621 272.59C173.011 269.59 183.761 266.4 192.971 257.18C196.57 253.575 199.562 249.411 201.831 244.85V244.79C202.564 243.35 203.231 241.893 203.831 240.42L204.011 239.98C204.221 239.45 204.431 238.92 204.631 238.39C204.831 237.86 204.931 237.57 205.081 237.15C205.171 236.91 205.261 236.67 205.341 236.43C205.541 235.87 205.731 235.31 205.921 234.76V234.62C206.791 232.01 207.561 229.41 208.311 226.84C211.071 217.43 213.671 208.55 220.781 201.43C227.891 194.31 236.781 191.71 246.201 188.95C248.781 188.19 251.401 187.42 254.031 186.55L255.771 185.96L256.431 185.72L257.721 185.25L259.231 184.65L259.741 184.45C261.211 183.85 262.661 183.18 264.111 182.45H264.171C268.732 180.181 272.896 177.189 276.501 173.59C285.721 164.38 288.861 153.59 291.911 143.24C294.671 133.83 297.271 124.94 304.391 117.82C311.511 110.7 320.391 108.1 329.811 105.34C340.201 102.29 350.951 99.1499 360.161 89.9299C369.371 80.7099 372.521 69.9301 375.571 59.5801C378.321 50.1701 380.931 41.2799 388.051 34.1599C395.171 27.0399 404.051 24.4399 413.471 21.6799C423.861 18.6799 434.611 15.49 443.821 6.27002C445.73 4.36315 447.466 2.29186 449.011 0.0800781H444.011C443.074 1.2579 442.073 2.38283 441.011 3.44995C432.521 11.94 422.271 14.9401 412.361 17.8401C402.451 20.7401 393.091 23.4901 385.241 31.3301C377.391 39.1701 374.651 48.54 371.751 58.46C368.851 68.38 365.841 78.6101 357.351 87.1101C348.861 95.6101 338.621 98.6 328.701 101.5C318.781 104.4 309.421 107.15 301.581 114.99C293.741 122.83 290.991 132.2 288.091 142.12C285.191 152.04 282.191 162.27 273.691 170.76C270.218 174.215 266.188 177.061 261.771 179.18L261.561 179.28C256.233 181.701 250.71 183.668 245.051 185.16C235.131 188.06 225.771 190.81 217.921 198.65C210.071 206.5 207.331 215.86 204.431 225.78C202.936 231.43 200.973 236.946 198.561 242.27L198.441 242.51C196.321 246.924 193.478 250.952 190.031 254.43C181.541 262.92 171.301 265.92 161.381 268.82C151.461 271.72 142.101 274.47 134.261 282.31C126.421 290.15 123.671 299.52 120.771 309.44C117.871 319.36 114.871 329.59 106.371 338.09C102.065 342.317 96.9677 345.654 91.3711 347.91C92.0411 349.08 92.7211 350.24 93.3711 351.4C99.277 348.967 104.651 345.403 109.191 340.91C118.531 331.63 121.671 320.88 124.721 310.49Z" fill="#FC805F" fill-opacity="0.33"/>
<path d="M29.1001 139.07C39.4901 136.02 50.2302 132.879 59.4502 123.659C63.043 120.049 66.0341 115.886 68.3101 111.33V111.27C69.0401 109.82 69.7001 108.36 70.3101 106.89C70.3601 106.76 70.4102 106.619 70.4702 106.49C70.6902 105.95 70.9001 105.4 71.1101 104.86C71.3201 104.32 71.41 104.05 71.55 103.65C71.64 103.4 71.7401 103.15 71.8201 102.9C72.0201 102.35 72.2001 101.8 72.3901 101.25C72.3959 101.193 72.3959 101.136 72.3901 101.08C73.2601 98.4796 74.0303 95.8796 74.7803 93.3096C77.5303 83.9096 80.1403 75.0197 87.2603 67.8997C94.3803 60.7797 103.26 58.1794 112.68 55.4194C115.85 54.4994 119.07 53.5494 122.29 52.4194L122.9 52.1995L124.24 51.7095L125.7 51.1296L126.25 50.9094C127.717 50.3094 129.173 49.6428 130.62 48.9094H130.68C135.243 46.6383 139.41 43.6467 143.02 40.0496C152.24 30.8296 155.38 20.0495 158.43 9.69946C159.43 6.39946 160.34 3.16957 161.43 0.0595703H157.18C156.18 2.82957 155.39 5.67958 154.55 8.56958C151.64 18.4796 148.64 28.7295 140.15 37.2195C136.678 40.6685 132.652 43.5114 128.24 45.6296L128.01 45.7395C122.682 48.1605 117.159 50.1277 111.5 51.6196C101.59 54.5196 92.2201 57.2596 84.3801 65.1096C76.5301 72.9596 73.7901 82.3195 70.8901 92.2395C69.3955 97.8899 67.4321 103.406 65.0203 108.729L64.9001 108.969C62.7819 113.381 59.9393 117.407 56.4902 120.88C48.0002 129.37 37.7501 132.38 27.8401 135.28C22.743 136.633 17.7529 138.361 12.9102 140.449C13.1802 141.799 13.4702 143.139 13.7502 144.449C18.7078 142.231 23.8422 140.431 29.1001 139.07Z" fill="#FC805F" fill-opacity="0.33"/>
<path d="M562.899 0.859863C552.989 3.76986 543.63 6.50985 535.78 14.3499C527.93 22.1899 525.19 31.5597 522.29 41.4797C519.39 51.3997 516.389 61.6399 507.889 70.1299C499.389 78.6199 489.16 81.6198 479.25 84.5198C469.34 87.4198 459.969 90.1698 452.119 98.0098C444.269 105.85 441.529 115.22 438.629 125.14C435.729 135.06 432.729 145.3 424.229 153.79C415.729 162.28 405.499 165.28 395.589 168.18C385.679 171.08 376.309 173.83 368.459 181.67C360.609 189.51 357.879 198.88 354.969 208.8C352.059 218.72 349.069 228.95 340.579 237.45C337.099 240.894 333.071 243.736 328.659 245.86L328.449 245.96C323.117 248.379 317.591 250.346 311.929 251.84C302.009 254.74 292.649 257.49 284.799 265.33C276.959 273.17 274.209 282.53 271.309 292.45C269.816 298.104 267.853 303.623 265.439 308.95L265.329 309.18C263.206 313.594 260.36 317.623 256.909 321.1C248.419 329.59 238.18 332.59 228.26 335.49C218.34 338.39 208.979 341.14 201.139 348.98C193.299 356.82 190.549 366.19 187.649 376.11C184.749 386.03 181.75 396.26 173.26 404.76C164.77 413.26 154.519 416.25 144.609 419.15C142.919 419.65 141.249 420.15 139.609 420.65C140.469 421.78 141.319 422.92 142.179 424.04L145.74 422.99C156.13 419.99 166.879 416.8 176.089 407.59C185.299 398.38 188.46 387.59 191.5 377.23C194.25 367.82 196.859 358.93 203.979 351.81C211.099 344.69 219.979 342.09 229.399 339.33C239.789 336.33 250.54 333.14 259.75 323.93C263.347 320.319 266.338 316.152 268.609 311.59V311.53C269.343 310.09 270.009 308.633 270.609 307.16L270.77 306.76C270.99 306.21 271.209 305.67 271.409 305.13C271.609 304.59 271.709 304.32 271.849 303.92C271.949 303.67 272.039 303.41 272.129 303.16C272.319 302.61 272.509 302.07 272.689 301.52L272.75 301.34C273.61 298.74 274.379 296.14 275.129 293.58C277.889 284.17 280.489 275.28 287.609 268.16C294.729 261.04 303.61 258.45 313.02 255.69C315.61 254.93 318.229 254.16 320.859 253.29L322.609 252.69L323.26 252.46L324.559 251.98L326.049 251.39L326.579 251.18C328.053 250.58 329.506 249.913 330.939 249.18H331.01C335.571 246.911 339.734 243.919 343.339 240.32C352.559 231.11 355.71 220.32 358.75 209.97C361.51 200.56 364.109 191.67 371.229 184.55C378.349 177.43 387.229 174.83 396.649 172.07C407.039 169.07 417.79 165.88 427 156.66C436.21 147.44 439.369 136.71 442.409 126.31C445.169 116.9 447.769 108.02 454.889 100.89C462.009 93.7599 470.889 91.1697 480.309 88.4097C490.699 85.4097 501.449 82.2198 510.659 73.0098C519.869 63.7998 523.019 53.0099 526.069 42.6499C528.819 33.2399 531.429 24.3597 538.549 17.2297C545.669 10.0997 554.549 7.50976 563.969 4.74976C568.721 3.44671 573.395 1.87762 577.969 0.0498047H565.74L562.899 0.859863Z" fill="#FC805F" fill-opacity="0.33"/>
<path d="M674.799 237.03C666.309 245.52 656.059 248.52 646.149 251.43C636.239 254.34 626.869 257.07 619.019 264.92C612.089 271.86 609.139 279.98 606.539 288.63C606.199 289.76 605.869 290.9 605.539 292.04C604.639 295.14 603.719 298.27 602.629 301.37C600.229 308.19 596.989 314.85 591.149 320.69C584.249 327.59 576.149 330.86 568.149 333.41C566.279 333.99 564.409 334.54 562.549 335.09C552.629 337.99 543.269 340.73 535.429 348.58C527.589 356.43 524.839 365.78 521.929 375.7C519.019 385.62 516.029 395.86 507.539 404.35C504.061 407.797 500.033 410.639 495.619 412.76L495.399 412.87C490.072 415.292 484.549 417.256 478.889 418.74C468.979 421.65 459.609 424.39 451.769 432.24C443.929 440.08 441.189 449.45 438.279 459.36C436.792 465.008 434.832 470.521 432.419 475.84L432.299 476.1C430.177 480.51 427.335 484.535 423.889 488.01C415.399 496.5 405.149 499.5 395.239 502.41C385.329 505.32 375.959 508.05 368.109 515.9C360.259 523.75 357.529 533.11 354.619 543.02C351.709 552.93 348.719 563.18 340.229 571.67C332.749 579.15 323.909 582.37 315.129 585.01L319.489 587.85C327.679 585.21 335.839 581.72 343.059 574.5C352.269 565.28 355.419 554.5 358.459 544.15C361.219 534.74 363.819 525.85 370.939 518.73C378.059 511.61 386.939 509 396.359 506.25C406.759 503.2 417.499 500.05 426.719 490.84C430.31 487.224 433.301 483.058 435.579 478.5V478.45C436.309 477 436.969 475.54 437.579 474.07L437.729 473.68C437.949 473.13 438.169 472.58 438.379 472.03C438.529 471.64 438.669 471.24 438.809 470.85C438.949 470.46 438.999 470.33 439.089 470.07C439.289 469.52 439.469 468.98 439.649 468.43L439.709 468.26C440.579 465.66 441.339 463.06 442.099 460.49C444.849 451.08 447.449 442.2 454.569 435.08C461.689 427.96 470.569 425.36 479.979 422.61C482.569 421.85 485.189 421.07 487.809 420.2C488.389 420.007 488.969 419.807 489.549 419.6L490.219 419.36L491.499 418.89C492.012 418.703 492.522 418.503 493.029 418.29L493.519 418.09C494.992 417.49 496.449 416.823 497.889 416.09H497.949C502.507 413.812 506.673 410.821 510.289 407.23C519.499 398.01 522.649 387.23 525.689 376.87C528.449 367.46 531.049 358.57 538.169 351.45C545.289 344.33 554.169 341.73 563.599 338.97C566.189 338.21 568.809 337.44 571.429 336.58C579.259 333.98 587.039 330.48 593.949 323.58C600.279 317.24 603.749 310.19 606.289 303.02C607.439 299.76 608.399 296.47 609.349 293.23C611.349 286.45 613.249 279.94 616.829 274.17C617.399 273.24 618.019 272.34 618.679 271.45C618.959 271.08 619.249 270.71 619.539 270.35C620.259 269.465 621.023 268.618 621.829 267.81C628.959 260.68 637.829 258.08 647.259 255.32C657.649 252.32 668.389 249.13 677.609 239.92C686.829 230.71 689.969 219.92 693.009 209.57C694.345 204.533 696.063 199.605 698.149 194.83V186.75C693.609 193.34 691.429 200.75 689.149 208.44C686.289 218.28 683.289 228.54 674.799 237.03Z" fill="#FC805F" fill-opacity="0.33"/>
<path d="M683.892 0C677.792 7.29 675.312 15.7101 672.712 24.5801C669.812 34.4901 666.812 44.74 658.312 53.23C649.812 61.72 639.582 64.7201 629.672 67.6301C619.762 70.5401 610.392 73.2701 602.542 81.1201C594.692 88.9701 591.952 98.33 589.052 108.24C586.152 118.15 583.152 128.4 574.662 136.89C566.172 145.38 555.922 148.38 546.012 151.28C536.102 154.18 526.732 156.93 518.882 164.78C511.032 172.63 508.302 181.99 505.392 191.9C502.482 201.81 499.492 212.06 491.002 220.55C482.512 229.04 472.262 232.04 462.352 234.94C452.442 237.84 443.072 240.59 435.222 248.43C427.372 256.27 424.642 265.64 421.732 275.56C418.822 285.48 415.832 295.71 407.342 304.21C403.861 307.654 399.833 310.496 395.422 312.62L395.202 312.73C389.871 315.142 384.349 317.106 378.692 318.6C368.772 321.51 359.412 324.25 351.562 332.09C343.722 339.93 340.972 349.3 338.072 359.21C336.585 364.858 334.625 370.371 332.212 375.69L332.082 375.95C329.96 380.36 327.118 384.385 323.672 387.86C315.182 396.35 304.942 399.35 295.032 402.25C285.122 405.15 275.752 407.9 267.902 415.74C260.052 423.58 257.322 432.95 254.412 442.87C251.502 452.79 248.512 463.03 240.022 471.52C231.532 480.01 221.282 483.01 211.372 485.91C207.212 487.13 203.152 488.33 199.262 489.91L202.332 493.02C205.612 491.81 209.012 490.81 212.492 489.79C222.892 486.79 233.632 483.6 242.842 474.39C252.052 465.18 255.212 454.39 258.252 444.03C261.012 434.62 263.612 425.74 270.732 418.61C277.852 411.48 286.732 408.89 296.152 406.13C306.542 403.13 317.292 399.94 326.502 390.73C330.099 387.119 333.09 382.953 335.362 378.39C335.362 378.39 335.362 378.39 335.362 378.34C336.088 376.893 336.755 375.43 337.362 373.95L337.512 373.56C337.732 373.02 337.952 372.47 338.162 371.92C338.312 371.52 338.452 371.12 338.602 370.73L338.872 369.96C339.062 369.41 339.252 368.86 339.432 368.31L339.492 368.15C340.352 365.55 341.122 362.95 341.872 360.38C344.632 350.97 347.232 342.09 354.352 334.97C361.472 327.85 370.352 325.25 379.762 322.49C382.342 321.74 384.972 320.96 387.592 320.09L389.332 319.49L390.002 319.25L391.282 318.78C391.792 318.59 392.282 318.38 392.812 318.18L393.302 317.98C394.768 317.38 396.225 316.713 397.672 315.98H397.732C402.292 313.701 406.458 310.707 410.072 307.11C419.282 297.9 422.432 287.11 425.472 276.76C428.232 267.35 430.832 258.46 437.952 251.34C445.072 244.22 453.952 241.62 463.372 238.86C473.762 235.86 484.512 232.67 493.732 223.46C502.952 214.25 506.092 203.46 509.132 193.1C511.892 183.69 514.492 174.81 521.612 167.68C528.732 160.55 537.612 157.96 547.032 155.2C557.422 152.2 568.172 149.01 577.382 139.8C586.592 130.59 589.752 119.8 592.792 109.44C595.552 100.03 598.152 91.15 605.272 84.02C612.392 76.89 621.272 74.3 630.692 71.54C641.082 68.54 651.832 65.3501 661.042 56.1401C670.252 46.9301 673.402 36.14 676.452 25.79C679.202 16.38 681.812 7.49012 688.932 0.370117C689.027 0.268297 689.127 0.17146 689.232 0.0800781L683.892 0Z" fill="#FC805F" fill-opacity="0.33"/>
<path d="M663.05 101.01C653.13 103.91 643.77 106.65 635.92 114.5C628.07 122.35 625.34 131.71 622.43 141.62C619.52 151.53 616.53 161.78 608.04 170.27C599.55 178.76 589.3 181.76 579.39 184.66C569.48 187.56 560.11 190.31 552.26 198.16C544.41 206.01 541.68 215.37 538.77 225.28C535.86 235.19 532.87 245.44 524.38 253.93C515.89 262.42 505.64 265.42 495.73 268.32C485.82 271.22 476.45 273.97 468.6 281.82C460.75 289.67 458.02 299.02 455.11 308.94C452.2 318.86 449.21 329.1 440.72 337.59C437.242 341.037 433.213 343.88 428.8 346L428.59 346.1C423.258 348.52 417.732 350.487 412.07 351.98C402.16 354.89 392.79 357.63 384.94 365.47C377.1 373.31 374.36 382.68 371.45 392.59C369.963 398.239 368.003 403.751 365.59 409.07C365.553 409.16 365.509 409.247 365.46 409.33C363.341 413.74 360.502 417.765 357.06 421.24C348.57 429.73 338.32 432.73 328.4 435.64C318.48 438.55 309.13 441.28 301.28 449.13C293.43 456.98 290.7 466.34 287.79 476.25C284.88 486.16 281.89 496.41 273.4 504.9C264.91 513.39 254.66 516.39 244.75 519.29C241.02 520.39 237.37 521.46 233.84 522.78C234.98 523.78 236.13 524.78 237.27 525.78C240.07 524.78 242.94 523.97 245.87 523.11C256.27 520.11 267.01 516.92 276.23 507.71C285.45 498.5 288.59 487.71 291.63 477.35C294.39 467.94 296.99 459.06 304.11 451.93C311.23 444.8 320.11 442.21 329.53 439.45C339.93 436.45 350.67 433.26 359.88 424.05C363.477 420.437 366.471 416.271 368.75 411.71C369.477 410.257 370.143 408.794 370.75 407.32C370.75 407.2 370.84 407.08 370.89 406.95C371.12 406.4 371.34 405.85 371.55 405.29C371.7 404.9 371.84 404.5 371.98 404.11C372.12 403.72 372.17 403.59 372.26 403.33C372.45 402.78 372.64 402.24 372.82 401.7L372.88 401.51C373.75 398.91 374.51 396.31 375.26 393.75C378.02 384.35 380.62 375.46 387.74 368.34C394.86 361.22 403.74 358.62 413.15 355.86C415.74 355.11 418.36 354.33 420.99 353.46L422.75 352.86L423.39 352.63L424.69 352.15L426.18 351.57L426.72 351.35C428.18 350.75 429.63 350.084 431.07 349.35H431.14C435.7 347.079 439.867 344.091 443.48 340.5C452.69 331.28 455.84 320.5 458.88 310.14C461.64 300.73 464.24 291.84 471.36 284.72C478.48 277.6 487.36 275 496.79 272.24C507.18 269.24 517.92 266.05 527.14 256.84C536.36 247.63 539.5 236.84 542.54 226.49C545.3 217.08 547.9 208.19 555.02 201.06C562.14 193.93 571.02 191.34 580.44 188.58C590.84 185.58 601.58 182.39 610.79 173.18C620 163.97 623.16 153.18 626.2 142.82C628.96 133.42 631.56 124.53 638.68 117.4C645.8 110.27 654.68 107.68 664.1 104.93C674.49 101.88 685.24 98.7303 694.45 89.5203C695.776 88.1844 697.018 86.7684 698.17 85.2803V78.2803C696.37 81.3254 694.193 84.131 691.69 86.6304C683.17 95.1004 672.96 98.1003 663.05 101.01Z" fill="#FC805F" fill-opacity="0.33"/>
<path d="M209.449 440.99C218.669 431.77 221.819 420.99 224.859 410.63C227.619 401.22 230.219 392.34 237.339 385.21C244.459 378.08 253.34 375.49 262.76 372.73C273.15 369.73 283.899 366.54 293.109 357.33C296.707 353.72 299.698 349.553 301.969 344.99C301.969 344.99 301.969 344.99 301.969 344.93C302.703 343.49 303.369 342.034 303.969 340.56L304.139 340.14C304.359 339.6 304.57 339.07 304.77 338.53C304.97 337.99 305.069 337.71 305.219 337.31L305.49 336.56L306.059 334.91C306.059 334.86 306.059 334.81 306.059 334.76C306.929 332.15 307.699 329.55 308.449 326.98C311.209 317.57 313.809 308.69 320.929 301.57C328.049 294.45 336.929 291.85 346.349 289.09C348.939 288.33 351.559 287.56 354.179 286.69L355.949 286.09L356.579 285.86L357.899 285.38L359.359 284.8L359.919 284.58C361.379 283.98 362.83 283.314 364.27 282.58H364.339C368.902 280.309 373.069 277.317 376.679 273.72C385.889 264.51 389.039 253.77 392.079 243.37C394.839 233.96 397.439 225.07 404.559 217.95C411.679 210.83 420.559 208.23 429.979 205.47C440.379 202.47 451.119 199.28 460.329 190.07C469.539 180.86 472.699 170.07 475.74 159.71C478.5 150.3 481.099 141.42 488.219 134.29C495.339 127.16 504.219 124.57 513.639 121.81C524.029 118.81 534.78 115.62 543.99 106.41C553.199 97.2002 556.359 86.4103 559.399 76.0503C562.149 66.6403 564.759 57.7604 571.879 50.6304C578.999 43.5004 587.879 40.9104 597.299 38.1504C607.689 35.1504 618.439 31.9602 627.649 22.7502C634.649 15.7502 638.109 7.96031 640.709 0.0703125H636.49C634.069 7.07031 630.809 13.9302 624.819 19.9202C616.329 28.4102 606.089 31.4103 596.169 34.3203C586.249 37.2303 576.889 39.9603 569.049 47.8103C561.209 55.6603 558.459 65.0202 555.559 74.9302C552.659 84.8402 549.659 95.0903 541.159 103.58C532.659 112.07 522.43 115.07 512.52 117.97C502.61 120.87 493.239 123.62 485.389 131.46C477.539 139.3 474.799 148.68 471.899 158.59C468.999 168.5 466 178.75 457.51 187.24C449.02 195.73 438.769 198.73 428.859 201.63C418.949 204.53 409.579 207.28 401.729 215.12C393.879 222.96 391.15 232.33 388.24 242.25C385.329 252.17 382.339 262.4 373.849 270.9C370.37 274.35 366.338 277.193 361.919 279.31C361.856 279.35 361.789 279.383 361.719 279.41C356.387 281.83 350.861 283.797 345.199 285.29C335.279 288.2 325.919 290.94 318.069 298.78C310.229 306.62 307.479 315.98 304.579 325.9C303.091 331.556 301.127 337.076 298.709 342.4L298.599 342.63C296.476 347.045 293.63 351.073 290.179 354.55C281.689 363.04 271.45 366.04 261.53 368.94C251.61 371.84 242.249 374.59 234.409 382.43C226.569 390.27 223.819 399.64 220.919 409.56C218.019 419.48 215.02 429.72 206.53 438.21C198.04 446.7 187.789 449.7 177.879 452.6C174.429 453.6 171.04 454.6 167.77 455.8C168.703 456.894 169.639 457.977 170.579 459.05C173.309 458.11 176.13 457.28 179 456.44C189.49 453.35 200.239 450.2 209.449 440.99Z" fill="#FC805F" fill-opacity="0.33"/>
<path d="M698.17 657.28C693.402 659.324 689.06 662.245 685.37 665.89C677.52 673.74 674.78 683.101 671.88 693.021C671.33 694.891 670.78 696.78 670.18 698.66L674.34 698.8C674.82 697.24 675.283 695.684 675.73 694.13C678.49 684.72 681.09 675.83 688.21 668.71C691.129 665.836 694.509 663.47 698.21 661.71L698.17 657.28Z" fill="#FC805F" fill-opacity="0.33"/>
<path d="M0.469971 46.5803C0.849971 45.9103 1.2098 45.2403 1.5498 44.5803V44.5203C2.2798 43.0703 2.9398 41.6104 3.5498 40.1404L3.69995 39.7502C3.91995 39.2102 4.13985 38.6603 4.34985 38.1003C4.49985 37.7103 4.64003 37.3102 4.78003 36.9202C4.92003 36.5302 4.96981 36.4004 5.05981 36.1404C5.25981 35.5904 5.43987 35.0503 5.61987 34.5103L5.67993 34.3303C6.54993 31.7303 7.30982 29.1303 8.06982 26.5603C10.8198 17.1603 13.42 8.27039 20.54 1.15039C20.93 0.760391 21.33 0.390273 21.73 0.0302734H16.1699C9.53992 7.51027 6.97002 16.2402 4.27002 25.4502C3.07147 29.8279 1.6462 34.1406 0 38.3704C0.113333 41.1037 0.269971 43.8403 0.469971 46.5803Z" fill="#FC805F" fill-opacity="0.33"/>
<path d="M62.4788 172.45C72.8688 169.4 83.6186 166.26 92.8286 157.04C96.4279 153.431 99.42 149.264 101.689 144.7C102.419 143.25 103.079 141.79 103.689 140.31C103.749 140.18 103.799 140.04 103.849 139.91C104.069 139.37 104.279 138.82 104.489 138.28L104.939 137.07C105.019 136.82 105.119 136.57 105.199 136.32C105.399 135.767 105.589 135.217 105.769 134.67L105.819 134.51C106.689 131.91 107.459 129.3 108.209 126.74C110.959 117.33 113.559 108.45 120.679 101.33C127.799 94.2101 136.679 91.6101 146.099 88.8501C148.679 88.0901 151.299 87.32 153.929 86.45L155.669 85.8601L156.329 85.6201L157.609 85.1501L159.129 84.55L159.639 84.3501C161.109 83.7401 162.559 83.0801 163.999 82.3501H164.069C168.63 80.0812 172.794 77.0891 176.399 73.49C185.619 64.28 188.759 53.4901 191.809 43.1301C194.559 33.7201 197.169 24.84 204.289 17.72C211.409 10.6 220.289 7.98999 229.709 5.23999C234.813 3.85469 239.823 2.14466 244.709 0.120117H232.889C231.449 0.560117 230.009 0.980147 228.579 1.40015C218.669 4.30015 209.299 7.05014 201.459 14.8901C193.619 22.7301 190.869 32.1 187.969 42.01C185.069 51.92 182.059 62.1699 173.569 70.6599C170.093 74.1123 166.064 76.9585 161.649 79.0801L161.439 79.1799C156.107 81.6011 150.581 83.5682 144.919 85.0601C135.009 87.9601 125.649 90.7001 117.799 98.55C109.949 106.4 107.209 115.76 104.309 125.68C102.814 131.327 100.85 136.839 98.4387 142.16L98.3186 142.41C96.2004 146.822 93.3577 150.848 89.9087 154.32C81.4187 162.81 71.1688 165.82 61.2588 168.72C51.3488 171.62 41.9787 174.37 34.1387 182.21C30.7792 185.598 28.0438 189.552 26.0586 193.89C26.6386 195.93 27.2286 197.963 27.8286 199.99C29.7499 194.4 32.8694 189.298 36.9688 185.04C44.1688 177.81 53.0588 175.2 62.4788 172.45Z" fill="#FC805F" fill-opacity="0.33"/>
<path d="M158.099 343.87C160.849 334.46 163.459 325.57 170.579 318.45C177.699 311.33 186.579 308.73 195.999 305.97C206.389 302.97 217.139 299.78 226.349 290.57C229.927 286.971 232.905 282.822 235.169 278.28C235.899 276.83 236.569 275.36 237.169 273.89C237.219 273.77 237.269 273.65 237.309 273.54C237.535 272.98 237.755 272.42 237.969 271.86C238.119 271.46 238.269 271.07 238.409 270.67L238.689 269.89C238.879 269.35 239.069 268.81 239.249 268.26L239.309 268.08C240.169 265.48 240.939 262.88 241.689 260.32C244.449 250.91 247.049 242.03 254.169 234.9C261.289 227.77 270.169 225.19 279.589 222.43C282.759 221.5 285.989 220.55 289.219 219.43L289.789 219.22L291.159 218.72L292.589 218.16L293.169 217.93C294.639 217.32 296.089 216.66 297.529 215.93H297.589C302.15 213.661 306.314 210.669 309.919 207.07C319.139 197.86 322.289 187.07 325.329 176.72C328.089 167.31 330.689 158.42 337.809 151.3C344.929 144.18 353.809 141.58 363.229 138.82C373.619 135.82 384.369 132.63 393.579 123.41C402.789 114.19 405.939 103.46 408.989 93.0598C411.739 83.6498 414.349 74.7599 421.469 67.6399C428.589 60.5199 437.469 57.9197 446.889 55.1597C457.279 52.1597 468.029 48.9698 477.239 39.7598C486.449 30.5498 489.599 19.7599 492.649 9.3999C493.569 6.2499 494.479 3.15969 495.539 0.179688H491.299C490.409 2.81969 489.609 5.52979 488.809 8.27979C485.909 18.1898 482.909 28.4397 474.409 36.9297C465.909 45.4197 455.669 48.4198 445.769 51.3198C435.869 54.2198 426.489 56.9698 418.639 64.8098C410.789 72.6498 408.049 82.0197 405.149 91.9397C402.249 101.86 399.239 112.1 390.749 120.59C382.259 129.08 372.019 132.08 362.109 134.98C352.199 137.88 342.829 140.63 334.979 148.47C327.129 156.31 324.399 165.68 321.489 175.6C318.579 185.52 315.589 195.75 307.099 204.24C303.622 207.69 299.593 210.536 295.179 212.66L294.959 212.76C289.63 215.179 284.107 217.146 278.449 218.64C268.529 221.54 259.169 224.29 251.319 232.13C243.469 239.98 240.729 249.34 237.829 259.26C236.343 264.905 234.383 270.415 231.969 275.73C231.969 275.82 231.889 275.91 231.839 276C229.717 280.41 226.875 284.435 223.429 287.91C214.939 296.4 204.689 299.4 194.789 302.3C184.889 305.2 175.509 307.95 167.659 315.79C159.809 323.63 157.069 333 154.169 342.92C151.269 352.84 148.269 363.07 139.769 371.57C132.159 379.18 123.139 382.38 114.219 385.05C114.979 386.21 115.759 387.37 116.529 388.53C125.529 385.78 134.649 382.35 142.599 374.39C151.909 365.01 155.059 354.28 158.099 343.87Z" fill="#FC805F" fill-opacity="0.33"/>
</svg>
