<svg width="96" height="96" viewBox="0 0 96 96" fill="none" xmlns="http://www.w3.org/2000/svg">
<path d="M34.7188 48C32.6786 40.4105 28.5253 33.5557 22.7419 28.2328C15.8527 32.5169 8.07337 35.1666 0.000760176 35.9787L0.000759125 48L34.7188 48Z" fill="#2B5243"/>
<path d="M46.9268 48L48 48L48 0.000770569L45.2097 0.000770325C42.538 7.85178 38.0757 14.9737 32.1757 20.8033C39.6741 28.2117 44.8074 37.676 46.9268 48Z" fill="#2B5243"/>
<path d="M32.4219 -9.53674e-07L0.000485636 -3.78804e-06L0.000485144 5.62708C8.0731 6.43917 15.8524 9.08891 22.7416 13.373C26.8294 9.60644 30.121 5.05927 32.4219 -9.53674e-07Z" fill="#2B5243"/>
<path d="M0.00112494 17.5895L0.00112438 24.0266C3.94979 23.5105 7.80305 22.4265 11.4414 20.8081C7.80305 19.1897 3.94979 18.1056 0.00112494 17.5895Z" fill="#2B5243"/>
<path d="M11.4404 20.8025C7.80203 22.4209 3.94877 23.505 0.000104043 24.0211L0.000102997 35.9833C8.07272 35.1712 15.852 32.5215 22.7412 28.2374C19.4064 25.1579 15.5887 22.6463 11.4404 20.8025Z" fill="#FC805F"/>
<path d="M22.7416 13.374C26.148 15.4917 29.3068 17.9837 32.1589 20.8035C38.0647 14.9756 42.5326 7.85353 45.209 0.000988007L32.4379 0.00098689C30.1322 5.06166 26.8352 9.60893 22.7416 13.374Z" fill="#FC805F"/>
<path d="M11.4404 20.8035C15.5883 18.9614 19.406 16.4516 22.7412 13.374C15.852 9.0899 8.07272 6.44016 0.000104324 5.62807L0.000103278 17.5904C3.94849 18.1048 7.80174 19.187 11.4404 20.8035Z" fill="#F6C85B"/>
<path d="M32.1596 20.8033C29.3075 23.6232 26.1487 26.1151 22.7422 28.2328C28.5257 33.5557 32.6789 40.4105 34.7191 48L46.9268 48C44.8028 37.6741 39.6639 28.2097 32.1596 20.8033Z" fill="#F6C85B"/>
<path d="M32.1592 20.8027C29.3071 17.9829 26.1483 15.4909 22.7418 13.3732C19.4066 16.4507 15.5889 18.9606 11.441 20.8027C15.5889 22.6449 19.4066 25.1547 22.7418 28.2322C26.1483 26.1145 29.3071 23.6226 32.1592 20.8027Z" fill="#E14547"/>
<path d="M48.0156 96.0007L96.0156 96.0007L96.0156 48.0007L48.0156 48.0007L48.0156 96.0007Z" fill="#FFC844"/>
<path d="M85.0823 73.8681L96.0156 73.8681L96.0156 48.0014L85.0823 48.0014L85.0823 73.8681Z" fill="#766DFA"/>
<path d="M79.7697 96.0007L96.0156 96.0007L96.0156 84.8662L74.4957 84.8662C74.3088 84.8662 74.1296 84.7918 73.9975 84.6594C73.8653 84.5269 73.791 84.3473 73.791 84.16L73.791 48.0008L62.6823 48.0008L62.6823 78.883C62.6827 81.1314 63.1249 83.3577 63.9839 85.4349C64.8428 87.512 66.1016 89.3992 67.6883 90.9887C69.2751 92.5783 71.1587 93.839 73.2316 94.699C75.3045 95.559 77.5262 96.0013 79.7697 96.0007Z" fill="#766DFA"/>
</svg>
