<svg width="149" height="149" viewBox="0 0 149 149" fill="none" xmlns="http://www.w3.org/2000/svg">
<g opacity="0.1">
<path d="M47.9181 129.446C46.2942 127.828 44.4202 126.482 42.3681 125.461C41.7174 125.131 41.0608 124.831 40.3981 124.561L40.2182 124.489C39.9708 124.39 39.728 124.291 39.4806 124.201L38.9408 123.999L38.5991 123.878L37.8615 123.626L37.7805 123.599C36.6111 123.212 35.4417 122.866 34.2903 122.528C30.0581 121.287 26.0642 120.118 22.8619 116.915C19.6596 113.713 18.4902 109.719 17.2489 105.487C16.9071 104.322 16.5608 103.144 16.165 101.961C16.0795 101.695 15.985 101.43 15.8951 101.165C15.8591 101.07 15.8231 100.976 15.7917 100.881L15.5758 100.292C15.4903 100.067 15.4004 99.8424 15.3149 99.6265C15.279 99.5455 15.2474 99.4646 15.2159 99.3791C14.9461 98.7225 14.6462 98.0703 14.3164 97.4227V97.3912C13.295 95.3391 11.9494 93.465 10.3315 91.8411C7.18322 88.6928 3.62111 87.1141 0.0410156 85.9402V87.8383C3.22083 88.9312 6.3377 90.3974 9.06325 93.1139C10.6123 94.6792 11.8905 96.4909 12.8458 98.4751C12.8604 98.5089 12.8769 98.542 12.8952 98.574C13.98 100.972 14.8631 103.455 15.5353 106C16.8396 110.461 18.0765 114.671 21.6026 118.202C25.1287 121.728 29.3385 122.965 33.8001 124.269C36.3435 124.939 38.826 125.822 41.2212 126.909L41.3246 126.958C43.31 127.914 45.122 129.193 46.6858 130.745C50.5042 134.564 51.8535 139.169 53.1578 143.627C53.6975 145.471 54.2282 147.265 54.9074 148.992H56.8594C56.0859 147.084 55.4266 145.132 54.8849 143.145C53.4771 138.423 52.0604 133.588 47.9181 129.446Z" fill="#766DFA"/>
<path d="M143.123 147.117C139.921 143.91 138.751 139.921 137.51 135.679C136.161 131.006 134.726 126.176 130.584 122.029C126.441 117.882 121.611 116.47 116.929 115.121C112.697 113.879 108.703 112.71 105.496 109.508C102.289 106.306 101.124 102.312 99.8829 98.0704C98.5336 93.3974 97.0989 88.5669 92.9566 84.4246C91.3316 82.8069 89.4578 81.46 87.4065 80.4352C86.7529 80.1084 86.0962 79.8086 85.4366 79.5357L85.2432 79.4593L84.5236 79.1804L83.9704 78.978L83.642 78.8566L82.891 78.6002L82.828 78.5777C81.6541 78.1909 80.4847 77.8446 79.3288 77.5073C75.0966 76.266 71.1027 75.0966 67.9004 71.8943C64.6981 68.692 63.5287 64.6981 62.2874 60.4658C61.9501 59.301 61.5993 58.1181 61.208 56.9352C61.124 56.6714 61.0341 56.406 60.9381 56.1391L60.8347 55.8558L60.6188 55.2621C60.5334 55.0417 60.4479 54.8124 60.358 54.6055C60.3265 54.52 60.295 54.4391 60.259 54.3536C59.9891 53.697 59.6893 53.0448 59.3595 52.3971V52.3656C58.3381 50.3146 56.9942 48.4408 55.3791 46.8156C51.2323 42.6733 46.3839 41.2565 41.7243 39.8893C37.4921 38.6479 33.4937 37.4786 30.2914 34.2763C27.0891 31.074 25.9197 27.0801 24.6784 22.8433C23.3291 18.1658 21.8944 13.3354 17.7521 9.1886C13.6098 5.0418 8.72087 3.58008 4.04785 2.23079C2.66259 1.82601 1.30431 1.42572 0 0.962463V2.86496C1.16038 3.25625 2.34326 3.60256 3.54862 3.95787C8.00575 5.26218 12.6158 6.61147 16.4343 10.4299C20.2528 14.2484 21.602 18.8585 22.9064 23.3156C24.2107 27.7727 25.4475 31.987 28.9781 35.5131C32.5088 39.0392 36.714 40.2761 41.1756 41.5849C45.6373 42.8937 50.2428 44.2385 54.0613 48.0569C55.6117 49.6211 56.89 51.433 57.8438 53.4181C57.8606 53.4487 57.8756 53.4802 57.8887 53.5126C58.977 55.9107 59.8616 58.3962 60.5333 60.9426C61.8421 65.3997 63.0745 69.614 66.6006 73.1401C70.1267 76.6662 74.341 77.8986 78.7982 79.2074C81.3385 79.8761 83.818 80.7577 86.2102 81.843L86.3272 81.9015C88.3103 82.8543 90.1207 84.1311 91.6838 85.6794C95.5022 89.4979 96.8515 94.108 98.1603 98.5696C99.4691 103.031 100.697 107.237 104.228 110.767C107.758 114.298 111.968 115.526 116.425 116.834C120.882 118.143 125.492 119.488 129.311 123.306C133.129 127.125 134.479 131.735 135.783 136.192C137.087 140.649 138.324 144.863 141.855 148.39C142.053 148.591 142.255 148.784 142.462 148.97H145.372C144.566 148.424 143.813 147.803 143.123 147.117Z" fill="#766DFA"/>
<path d="M27.3553 140.474H27.3282C26.6806 140.146 26.0194 139.844 25.3583 139.574C25.3043 139.547 25.2504 139.529 25.1919 139.507C24.9445 139.403 24.6926 139.304 24.4453 139.21L23.9146 139.017L23.5592 138.891L22.8351 138.643L22.7407 138.612C21.5713 138.221 20.4064 137.879 19.2551 137.541C15.0228 136.3 11.0289 135.131 7.82211 131.928C4.61532 128.726 3.45495 124.732 2.21361 120.491C1.79533 119.07 1.36805 117.622 0.864323 116.173L0.765388 115.89C0.693427 115.692 0.621414 115.494 0.544955 115.296C0.468496 115.098 0.374065 114.846 0.284113 114.631L0.189681 114.388L0.00976562 113.978V119.376C0.17168 119.915 0.333569 120.455 0.490986 120.995C1.79529 125.456 3.03213 129.666 6.55826 133.197C10.0889 136.723 14.2986 137.96 18.7603 139.264C21.3028 139.932 23.784 140.815 26.1769 141.904L26.2893 141.958C28.2724 142.913 30.0826 144.191 31.6459 145.741C32.6242 146.72 33.4915 147.805 34.2321 148.974H36.3415C35.4078 147.328 34.2566 145.815 32.9188 144.477C31.2922 142.851 29.4134 141.5 27.3553 140.474Z" fill="#766DFA"/>
<path d="M101.916 130.116C97.6838 128.875 93.6899 127.705 90.4831 124.503C87.2763 121.301 86.1115 117.307 84.8701 113.07C83.5208 108.397 82.0861 103.562 77.9438 99.4197C76.3187 97.8019 74.4449 96.455 72.3937 95.4303C71.7415 95.0974 71.0849 94.8006 70.4193 94.5307L70.2529 94.4678C70.0055 94.3643 69.7581 94.2654 69.5063 94.1709L68.9755 93.9775L68.6202 93.8516L67.8961 93.5997L67.8017 93.5683C66.6323 93.1815 65.4674 92.8397 64.316 92.5023C60.0837 91.261 56.0899 90.0916 52.8876 86.8893C49.6853 83.687 48.5159 79.6931 47.2745 75.4564C46.8563 74.0306 46.429 72.5779 45.9253 71.1297C45.8893 71.0397 45.8578 70.9453 45.8218 70.8553L45.606 70.2571L45.3496 69.605L45.2461 69.3486C44.9763 68.6875 44.6749 68.0353 44.3466 67.3832C44.3477 67.3757 44.3477 67.3681 44.3466 67.3607C43.3218 65.3094 41.9749 63.4356 40.3572 61.8106C36.2149 57.6683 31.362 56.2516 26.707 54.8843C22.4747 53.643 18.4763 52.4736 15.274 49.2713C12.0717 46.069 10.9024 42.0751 9.66103 37.8384C8.31175 33.1608 6.877 28.3304 2.7347 24.1836C1.8997 23.3598 0.997011 22.6076 0.0361328 21.9348V24.1836C0.531369 24.5849 1.00575 25.0112 1.45739 25.461C5.27586 29.2794 6.62515 33.8895 7.92946 38.3466C9.23377 42.8037 10.4706 47.018 13.9967 50.5486C17.5229 54.0792 21.7371 55.3071 26.1988 56.6159C30.6604 57.9247 35.2614 59.2695 39.0844 63.0879C40.6334 64.6532 41.9117 66.4649 42.8669 68.4491C42.8669 68.4806 42.8984 68.5166 42.9164 68.5526C44.0058 70.9467 44.889 73.4294 45.5565 75.9736C46.8653 80.4307 48.0976 84.645 51.6238 88.1711C55.1499 91.6973 59.3641 92.9296 63.8213 94.2384C66.3641 94.9059 68.8452 95.7891 71.2378 96.8785L71.3503 96.928C73.3324 97.8844 75.1424 99.1626 76.7069 100.71C80.5254 104.533 81.8747 109.139 83.179 113.596C84.4833 118.053 85.7202 122.268 89.2463 125.798C92.7724 129.329 96.9867 130.557 101.448 131.865C105.91 133.174 110.515 134.519 114.334 138.337C117.514 141.522 118.984 145.255 120.14 148.988H122.02C120.775 144.863 119.241 140.703 115.607 137.069C111.424 132.9 106.594 131.483 101.916 130.116Z" fill="#766DFA"/>
<path d="M75.4709 139.516C72.2686 136.314 71.0992 132.32 69.8578 128.083C68.5086 123.405 67.0738 118.575 62.9315 114.433C61.3065 112.815 59.4327 111.468 57.3814 110.443H57.359C56.7083 110.113 56.0502 109.814 55.3845 109.544L55.2181 109.481C54.9707 109.377 54.7234 109.278 54.4715 109.184L53.9363 108.991L53.59 108.865L52.8479 108.613L52.7759 108.586C51.6065 108.199 50.4327 107.853 49.2813 107.515C45.049 106.274 41.0551 105.105 37.8528 101.907C34.6505 98.709 33.4812 94.7106 32.2398 90.4649C31.898 89.3045 31.5517 88.1306 31.1604 86.9477L30.8905 86.1561C30.8546 86.0617 30.8186 85.9672 30.7871 85.8728L30.5712 85.2791C30.4857 85.0588 30.3958 84.8294 30.3103 84.6135C30.2744 84.5325 30.2429 84.4516 30.2114 84.3706C29.9415 83.714 29.6447 83.0573 29.3119 82.4142V82.3827C28.2904 80.3306 26.9449 78.4565 25.327 76.8326C21.1847 72.6903 16.3542 71.2736 11.6767 69.9063C7.44446 68.6649 3.44611 67.4956 0.243816 64.2933C0.167357 64.2168 0.0998969 64.1358 0.0234375 64.0594V66.5241C3.32468 69.3261 7.14762 70.455 11.173 71.6334C15.6301 72.9377 20.2357 74.287 24.0586 78.1054C25.6076 79.6707 26.8859 81.4824 27.8411 83.4666L27.8861 83.561C28.9743 85.9592 29.859 88.4446 30.5307 90.9911C31.8395 95.4527 33.0719 99.6625 36.598 103.193C40.1241 106.719 44.3339 107.956 48.7955 109.26C51.3346 109.928 53.8126 110.81 56.2031 111.896L56.3245 111.954C58.3071 112.908 60.1173 114.185 61.6812 115.732C65.4996 119.555 66.8489 124.161 68.1532 128.623C69.4575 133.084 70.6944 137.289 74.2205 140.82C77.7466 144.351 81.9609 145.579 86.4225 146.887C88.5462 147.467 90.6337 148.171 92.6742 148.997H96.6366C93.5152 147.094 90.1825 146.114 86.9263 145.16C82.6715 143.905 78.6732 142.718 75.4709 139.516Z" fill="#766DFA"/>
<path d="M102.873 8.36567L102.922 8.46012C104.012 10.8573 104.895 13.343 105.562 15.8902C106.871 20.3473 108.104 24.5616 111.634 28.0877C115.16 31.6183 119.375 32.8507 123.836 34.1595C126.379 34.8276 128.86 35.7109 131.253 36.7995L131.361 36.849C133.345 37.8017 135.156 39.0803 136.717 40.6315C140.536 44.45 141.885 49.0601 143.194 53.5172C144.458 57.8439 145.663 61.9322 148.951 65.3909V62.5889C146.896 59.7554 145.929 56.4631 144.903 53.009C143.554 48.3359 142.115 43.5055 137.972 39.3587C136.346 37.7437 134.472 36.3985 132.422 35.3738H132.395C131.743 35.0455 131.086 34.7486 130.425 34.4743L130.223 34.3933L129.517 34.1145L128.955 33.9121L128.635 33.7952L127.88 33.5388L127.821 33.5163C126.647 33.1295 125.473 32.7832 124.318 32.4414C120.09 31.2045 116.091 30.0352 112.889 26.8329C109.687 23.6306 108.517 19.6367 107.276 15.3954C106.939 14.2396 106.592 13.0657 106.201 11.8873V11.8558C106.116 11.5949 106.03 11.3386 105.936 11.0822C105.904 10.9788 105.864 10.8798 105.828 10.7809C105.76 10.5875 105.688 10.3941 105.616 10.2007C105.544 10.0073 105.441 9.75093 105.351 9.52605L105.257 9.29218C104.987 8.63553 104.69 7.97887 104.357 7.33121V7.30423C103.331 5.25601 101.986 3.38408 100.372 1.75868C99.7507 1.14103 99.0913 0.562714 98.3978 0.0270996H95.1865C96.6148 0.85589 97.9299 1.86571 99.0994 3.0315C100.644 4.58819 101.919 6.39081 102.873 8.36567Z" fill="#766DFA"/>
<path d="M146.96 85.077C142.727 83.8356 138.729 82.6662 135.527 79.4639C132.324 76.2616 131.15 72.2678 129.914 68.031C128.564 63.3535 127.125 58.5231 122.983 54.3763C121.357 52.7613 119.483 51.4161 117.433 50.3914C116.781 50.0631 116.124 49.7662 115.463 49.4919L115.296 49.4289C115.044 49.3255 114.797 49.2265 114.545 49.1321L114.015 48.9387L113.664 48.8082L112.935 48.5609L112.845 48.5294C111.676 48.1426 110.506 47.7963 109.355 47.459C105.123 46.2221 101.129 45.0527 97.9266 41.8504C94.7243 38.6481 93.5549 34.6542 92.3181 30.4175C91.9763 29.2571 91.6254 28.0788 91.2341 26.8959C91.1487 26.635 91.0588 26.3742 90.9643 26.1088C90.9328 26.0144 90.8969 25.9154 90.8609 25.8165L90.645 25.2318C90.5595 25.0069 90.4696 24.782 90.3796 24.5616C90.3482 24.4807 90.3211 24.4042 90.2852 24.3232C90.0153 23.6666 89.7185 23.0099 89.3856 22.3623V22.3353C88.361 20.2851 87.0158 18.4116 85.4008 16.7852C81.254 12.6429 76.4055 11.2262 71.746 9.85893C67.5138 8.61759 63.5199 7.44371 60.3131 4.24142C59.0961 3.0086 58.0821 1.59077 57.3087 0.0406494H55.3027C56.2096 2.07599 57.4774 3.9304 59.0448 5.51423C62.5709 9.04486 66.7807 10.2772 71.2423 11.586C75.7039 12.8948 80.3095 14.2396 84.128 18.0581C85.6626 19.6097 86.9301 21.4045 87.879 23.3698L87.9284 23.4687C89.0172 25.8646 89.9004 28.3488 90.5685 30.8942C91.8773 35.3514 93.1097 39.5656 96.6403 43.0918C100.166 46.6179 104.381 47.8503 108.838 49.1591C111.381 49.8277 113.864 50.7093 116.259 51.7947L116.367 51.8486C118.35 52.8028 120.161 54.0812 121.723 55.6311C125.542 59.4496 126.891 64.0596 128.2 68.5168C129.509 72.9739 130.737 77.1881 134.267 80.7143C137.798 84.2404 142.008 85.4772 146.465 86.786C147.297 87.0289 148.133 87.2718 148.97 87.5371V85.6526L146.96 85.077Z" fill="#766DFA"/>
<path d="M126.648 13.0746C130.179 16.6052 134.389 17.8376 138.85 19.1464C141.392 19.815 143.873 20.6966 146.267 21.782L146.375 21.836C147.267 22.2738 148.128 22.7727 148.952 23.3291V21.1883C148.457 20.8915 147.958 20.6171 147.454 20.3607H147.427C146.775 20.0324 146.119 19.7356 145.457 19.4612L145.273 19.3893L144.544 19.1014L144 18.9035L143.663 18.7821L142.921 18.5257L142.844 18.5032C141.675 18.1119 140.506 17.7656 139.35 17.4283C135.122 16.1914 131.124 15.0221 127.921 11.8198C124.719 8.61748 123.55 4.6236 122.308 0.382357L122.2 0.0135498H120.32C120.406 0.305894 120.496 0.598231 120.581 0.890576C121.885 5.33421 123.118 9.54847 126.648 13.0746Z" fill="#766DFA"/>
<path d="M148.958 0.625161C148.476 0.431763 148.004 0.22488 147.541 0H143.97C145.517 1.06279 147.193 1.92426 148.958 2.56363V0.625161Z" fill="#766DFA"/>
<path d="M145.596 107.025C141.449 102.883 136.601 101.466 131.941 100.099C127.713 98.8575 123.715 97.6881 120.508 94.4858C117.302 91.2835 116.137 87.2896 114.895 83.0529C113.546 78.3754 112.111 73.5449 107.969 69.3981C106.343 67.7831 104.469 66.4379 102.419 65.4132C101.767 65.0804 101.11 64.7836 100.444 64.5137L100.287 64.4508C100.035 64.3458 99.7833 64.2469 99.5315 64.1539L99.0007 63.9605L98.6454 63.8346C98.4025 63.7446 98.1596 63.6637 97.9168 63.5827L97.8313 63.5557C96.662 63.1644 95.4926 62.8226 94.3412 62.4808C90.1089 61.244 86.1151 60.0746 82.9128 56.8723C79.7105 53.67 78.5411 49.6761 77.2997 45.4349C76.8815 44.0091 76.4542 42.5609 75.9505 41.1127L75.856 40.8428C75.7841 40.6404 75.7121 40.438 75.6357 40.2356C75.5592 40.0332 75.4647 39.7858 75.3748 39.579C75.3433 39.498 75.3118 39.4125 75.2758 39.3316C75.006 38.6719 74.7061 38.0168 74.3763 37.3661C73.3516 35.316 72.0064 33.4424 70.3914 31.8161C66.2446 27.6738 61.3962 26.257 56.7367 24.8898C52.5044 23.6484 48.506 22.4791 45.3037 19.2768C42.1014 16.0745 40.9321 12.0806 39.6907 7.83933C38.9885 5.17099 38.0586 2.56782 36.9112 0.0584717H34.8828C36.3176 2.73005 37.1316 5.56804 37.9637 8.34756C39.2725 12.8047 40.5048 17.0189 44.0354 20.5451C47.5661 24.0712 51.7713 25.308 56.233 26.6168C60.6946 27.9256 65.3001 29.2704 69.1186 33.0889C70.6676 34.6542 71.9458 36.4659 72.9011 38.4501L72.9506 38.549C74.0393 40.945 74.9226 43.4291 75.5907 45.9746C76.8995 50.4317 78.1318 54.646 81.658 58.1721C85.1841 61.6982 89.3983 62.9306 93.8555 64.2394C96.3958 64.908 98.8753 65.7897 101.268 66.875L101.384 66.9289C103.368 67.8831 105.178 69.1615 106.741 70.7114C110.56 74.5299 111.909 79.1399 113.218 83.5971C114.526 88.0542 115.754 92.2685 119.285 95.7991C122.816 99.3297 127.025 100.558 131.482 101.866C135.94 103.175 140.55 104.52 144.368 108.338C146.401 110.419 147.979 112.901 149.001 115.625V111.469C148.07 109.842 146.925 108.347 145.596 107.025Z" fill="#766DFA"/>
</g>
</svg>
