<svg width="220" height="220" viewBox="0 0 220 220" fill="none" xmlns="http://www.w3.org/2000/svg">
<path d="M219.912 110H110V219.912H219.912V110Z" fill="#2B5243"/>
<path d="M110 195.487V219.912C139.15 219.912 167.107 208.332 187.72 187.719C208.332 167.107 219.912 139.15 219.912 110H195.487C195.487 132.673 186.48 154.417 170.448 170.448C154.417 186.48 132.673 195.487 110 195.487Z" fill="#766DFA"/>
<path d="M144.476 110H110V134.425H156.071C156.479 134.425 156.871 134.587 157.16 134.876C157.448 135.164 157.61 135.556 157.61 135.964V219.912H182.035V147.559C182.035 137.598 178.078 128.045 171.034 121.001C163.99 113.957 154.437 110 144.476 110Z" fill="#4CE467"/>
<path d="M182.034 193.02V156.053C175.685 165.954 167.372 174.448 157.609 181.009V209.097C166.429 204.847 174.643 199.44 182.034 193.02Z" fill="#F3F1E5"/>
<path d="M12.5703 109.912H46.3498V99.8611C46.3498 85.627 52.0038 71.9758 62.0682 61.9102C72.1327 51.8446 85.7834 46.1891 100.017 46.1875H109.916V6.59473C84.9542 11.5408 62.1588 24.1537 44.7085 42.6745C27.2582 61.1954 16.0232 84.7006 12.5703 109.912Z" fill="#FFC844"/>
<path d="M81.25 83.2891V109.912H109.919V81.0908H83.4483C82.8663 81.094 82.3089 81.3267 81.8973 81.7383C81.4857 82.1498 81.2532 82.7071 81.25 83.2891Z" fill="#FFC844"/>
<path d="M40.4415 0H0V43.8426C10.5759 26.7942 24.3007 11.9152 40.4415 0Z" fill="#FFC844"/>
<path d="M40.4415 0C24.3007 11.9152 10.5759 26.7942 0 43.8426V109.912H12.5666C16.0195 84.7006 27.2545 61.1953 44.7048 42.6745C62.1551 24.1537 84.9505 11.5407 109.912 6.59471V0H40.4415Z" fill="#766DFA"/>
<path d="M46.3438 99.8621V109.913H81.247V83.2899C81.2502 82.7078 81.4827 82.1506 81.8943 81.739C82.3058 81.3275 82.8633 81.0948 83.4453 81.0916H109.916V46.1885H100.018C85.7846 46.1933 72.1358 51.8499 62.072 61.9148C52.0083 71.9797 46.3532 85.629 46.35 99.8621H46.3438Z" fill="#F5333F"/>
</svg>
