<svg width="280" height="236" viewBox="0 0 280 236" fill="none" xmlns="http://www.w3.org/2000/svg">
<g opacity="0.1">
<path d="M235.981 233.574L234.547 233.149C231.371 232.217 228.374 231.34 225.968 228.937C223.561 226.535 222.687 223.539 221.756 220.357C220.743 216.851 219.667 213.227 216.558 210.119C213.45 207.011 209.809 205.948 206.312 204.919C203.136 203.988 200.136 203.11 197.733 200.708C195.33 198.305 194.453 195.309 193.521 192.13C192.509 188.624 191.432 184.997 188.324 181.889C185.215 178.782 181.574 177.719 178.081 176.689C174.905 175.762 171.905 174.881 169.502 172.478C167.099 170.076 166.218 167.079 165.286 163.901C164.274 160.395 163.197 156.767 160.089 153.66C156.98 150.552 153.339 149.489 149.846 148.46C146.67 147.532 143.67 146.651 141.267 144.249C138.864 141.846 137.983 138.85 137.055 135.671C136.042 132.165 134.962 128.538 131.854 125.43C130.635 124.216 129.229 123.207 127.689 122.441H127.669C127.179 122.193 126.686 121.968 126.191 121.766L126.059 121.715C125.874 121.637 125.688 121.567 125.502 121.496L125.104 121.347L124.841 121.253L124.287 121.064L124.23 121.044C123.353 120.753 122.475 120.494 121.608 120.24C118.435 119.309 115.435 118.432 113.032 116.029C110.629 113.627 109.751 110.63 108.823 107.455C108.567 106.585 108.307 105.701 108.01 104.813C107.946 104.617 107.878 104.422 107.808 104.229C107.784 104.152 107.754 104.077 107.727 104C107.676 103.858 107.622 103.713 107.568 103.568C107.514 103.423 107.436 103.231 107.365 103.055C107.345 102.998 107.322 102.944 107.301 102.886C107.095 102.39 106.873 101.901 106.626 101.412V101.391C105.858 99.8539 104.849 98.4493 103.636 97.231C100.524 94.1199 96.8862 93.0603 93.3898 92.0311C90.2139 91.0998 87.2169 90.2225 84.814 87.82C82.411 85.4175 81.5301 82.4211 80.5987 79.2425C79.5862 75.7366 78.5096 72.1091 75.4013 69.0014C72.2929 65.8936 68.6513 64.8307 65.1583 63.8016C61.9824 62.8736 58.9821 61.9929 56.5792 59.5904C54.1762 57.1879 53.2954 54.1915 52.3672 51.0129C51.3379 47.507 50.2748 43.8796 47.1665 40.7718C44.0582 37.6641 40.4166 36.6012 36.9235 35.572C33.7477 34.6441 30.7474 33.7634 28.3444 31.3609C25.9414 28.9583 25.0606 25.9619 24.1325 22.7833C23.1031 19.2774 22.0433 15.65 18.9316 12.5423C15.8199 9.43451 12.1818 8.37161 8.6887 7.34244C5.51287 6.4145 2.51249 5.53717 0.109523 3.13128L0.0117188 3.03006V4.86569C2.47206 6.9274 5.31708 7.76423 8.31066 8.63818C11.6552 9.6201 15.1112 10.6324 17.9766 13.4972C20.8419 16.362 21.8577 19.8207 22.8365 23.1646C23.8152 26.5086 24.7399 29.6703 27.3893 32.3158C30.0386 34.9613 33.1976 35.8892 36.5422 36.8677C39.8867 37.8463 43.346 38.862 46.2113 41.7268C49.0767 44.5916 50.0891 48.0469 51.0712 51.3942C52.0533 54.7415 52.9747 57.8965 55.624 60.5453C58.2734 63.1942 61.4324 64.1188 64.7769 65.0973C68.1215 66.0759 71.5808 67.0915 74.4461 69.9563C77.3115 72.8211 78.324 76.2798 79.3061 79.6238C80.2882 82.9677 81.2096 86.1295 83.8589 88.7749C86.5082 91.4204 89.6638 92.3483 93.0117 93.3269C96.3597 94.3054 99.8157 95.3177 102.681 98.1859C103.845 99.3575 104.804 100.716 105.519 102.205L105.556 102.279C106.373 104.076 107.036 105.94 107.538 107.85C108.52 111.197 109.444 114.356 112.094 117.004C114.74 119.653 117.902 120.578 121.247 121.556C123.152 122.06 125.013 122.721 126.808 123.534L126.896 123.578C128.385 124.292 129.744 125.252 130.916 126.415C133.781 129.28 134.794 132.739 135.776 136.083C136.758 139.427 137.679 142.589 140.328 145.234C142.978 147.88 146.137 148.807 149.481 149.786C152.826 150.765 156.285 151.777 159.151 154.645C162.016 157.513 163.028 160.965 164.011 164.309C164.993 167.653 165.914 170.815 168.563 173.464C171.213 176.112 174.372 177.037 177.716 178.016C181.061 178.994 184.52 180.01 187.385 182.875C190.251 185.739 191.263 189.195 192.242 192.542C193.221 195.889 194.149 199.044 196.798 201.693C199.447 204.342 202.603 205.263 205.951 206.245C209.299 207.227 212.755 208.236 215.62 211.101C218.486 213.966 219.498 217.424 220.477 220.768C221.456 224.112 222.384 227.274 225.033 229.923C227.682 232.572 230.838 233.493 234.189 234.475C234.787 234.65 235.394 234.812 235.998 235.018L235.981 233.574Z" fill="#766DFA"/>
<path d="M16.5743 235.959C16.0772 235.639 15.5635 235.345 15.0353 235.079H15.0151C14.5291 234.832 14.033 234.606 13.5369 234.404L13.4087 234.35L12.8517 234.131L12.4501 233.986L12.1869 233.891L11.6402 233.702L11.5727 233.682C10.6952 233.392 9.82111 233.132 8.95712 232.879C5.7813 231.947 2.78429 231.07 0.38133 228.671C0.249707 228.536 0.121498 228.404 0 228.266V230.162C2.52446 232.403 5.47414 233.267 8.58247 234.178C10.3468 234.651 12.0748 235.251 13.7529 235.973L16.5743 235.959Z" fill="#766DFA"/>
<path d="M205.294 221.382C202.182 218.271 198.544 217.208 195.047 216.183C191.871 215.251 188.871 214.374 186.468 211.971C184.065 209.569 183.188 206.572 182.256 203.394C181.244 199.888 180.167 196.261 177.059 193.153C173.95 190.045 170.309 188.982 166.816 187.953C163.64 187.025 160.64 186.144 158.237 183.742C155.834 181.339 154.953 178.343 154.021 175.164C153.009 171.658 151.932 168.031 148.824 164.923C145.716 161.815 142.074 160.753 138.581 159.723C135.405 158.795 132.405 157.915 130.002 155.512C127.599 153.11 126.718 150.113 125.79 146.935C124.76 143.429 123.697 139.801 120.589 136.694C119.37 135.48 117.964 134.47 116.424 133.704H116.407C115.919 133.457 115.427 133.232 114.929 133.029L114.791 132.975L114.244 132.759L113.832 132.607L113.583 132.516L113.026 132.327H112.968C112.091 132.034 111.213 131.774 110.346 131.521C107.174 130.593 104.173 129.712 101.77 127.313C99.3673 124.914 98.4899 121.914 97.5584 118.732C97.2445 117.662 96.9239 116.573 96.5459 115.483C96.5256 115.419 96.502 115.358 96.4784 115.294C96.421 115.139 96.367 114.983 96.3063 114.828C96.2455 114.673 96.1848 114.511 96.1206 114.352L96.0396 114.15C95.8371 113.654 95.611 113.165 95.3647 112.679V112.658C94.5966 111.12 93.5871 109.714 92.3745 108.494C89.2628 105.383 85.6246 104.324 82.1281 103.295C78.9523 102.367 75.9554 101.486 73.549 99.0835C71.1427 96.681 70.2686 93.6846 69.3371 90.506C68.3246 87 67.248 83.3726 64.1396 80.2649C61.0313 77.1571 57.3898 76.0942 53.8967 75.0651C50.7209 74.1371 47.7206 73.2564 45.3176 70.8539C42.9147 68.4514 42.0338 65.455 41.1023 62.2764C40.0898 58.7705 39.0132 55.1431 35.9048 52.0353C32.7965 48.9276 29.155 47.8647 25.6619 46.8355C22.4861 45.9076 19.4857 45.0302 17.0828 42.6243C14.6798 40.2185 13.7989 37.2254 12.8708 34.0468C11.8415 30.5409 10.7784 26.9135 7.67007 23.8058C5.3076 21.4437 2.67846 20.2796 0.015625 19.3989V20.8262C2.37809 21.6428 4.69334 22.7395 6.71493 24.7607C9.58026 27.6255 10.5927 31.0842 11.5748 34.4281C12.5569 37.7721 13.4784 40.9338 16.1277 43.5793C18.777 46.2248 21.9359 47.1527 25.2805 48.1312C28.6251 49.1098 32.0844 50.1255 34.9497 52.9902C37.815 55.855 38.8276 59.3137 39.8097 62.6577C40.7918 66.0016 41.7132 69.1634 44.3625 71.8088C47.0118 74.4543 50.1707 75.3822 53.5153 76.3608C56.8599 77.3394 60.3192 78.355 63.1846 81.2198C66.0499 84.0846 67.0624 87.5433 68.0411 90.8873C69.0198 94.2312 69.9479 97.3929 72.5973 100.038C75.2466 102.684 78.4022 103.612 81.7502 104.59C85.0981 105.569 88.554 106.585 91.4194 109.449C92.5834 110.621 93.5428 111.979 94.2577 113.468L94.2948 113.546C95.1123 115.343 95.7751 117.207 96.276 119.117C97.2581 122.461 98.1828 125.619 100.832 128.268C103.478 130.917 106.64 131.841 109.985 132.82C111.892 133.324 113.754 133.986 115.55 134.801L115.635 134.841C117.124 135.556 118.482 136.515 119.654 137.679C122.52 140.544 123.532 144.002 124.514 147.346C125.496 150.69 126.418 153.852 129.067 156.498C131.716 159.143 134.875 160.071 138.22 161.05C141.564 162.028 145.024 163.044 147.889 165.909C150.754 168.773 151.767 172.232 152.749 175.573C153.731 178.913 154.652 182.078 157.302 184.727C159.951 187.376 163.11 188.301 166.455 189.279C169.799 190.258 173.258 191.273 176.124 194.138C178.989 197.003 180.002 200.458 180.98 203.806C181.959 207.153 182.887 210.311 185.537 212.957C188.186 215.602 191.341 216.53 194.689 217.509C198.037 218.487 201.493 219.5 204.359 222.368C207.224 225.236 208.236 228.688 209.215 232.032C209.613 233.381 210.005 234.731 210.501 235.99H211.962C211.396 234.572 210.912 233.123 210.511 231.65C209.465 228.104 208.402 224.49 205.294 221.382Z" fill="#766DFA"/>
<path d="M159.727 225.921C158.714 222.415 157.638 218.788 154.529 215.68C151.421 212.572 147.779 211.509 144.283 210.48C141.11 209.552 138.11 208.675 135.704 206.269C133.297 203.863 132.423 200.87 131.492 197.691C130.479 194.185 129.403 190.558 126.294 187.45C123.186 184.343 119.544 183.28 116.048 182.254C112.872 181.323 109.875 180.445 107.469 178.039C105.063 175.633 104.189 172.64 103.257 169.462C102.245 165.956 101.168 162.332 98.0596 159.221C96.8351 158.008 95.4246 156.999 93.8814 156.231H93.8645C93.3752 155.985 92.8825 155.762 92.3863 155.556L92.2513 155.506C92.069 155.428 91.8835 155.357 91.6978 155.286L91.2962 155.138L91.0364 155.043L90.4828 154.854H90.4255C89.548 154.561 88.6705 154.301 87.8031 154.048C84.6273 153.12 81.6304 152.239 79.2274 149.84C76.8245 147.441 75.947 144.441 75.0155 141.263C74.7016 140.193 74.381 139.103 74.003 138.016L73.9321 137.811C73.8781 137.662 73.8241 137.51 73.7667 137.359L73.5744 136.869C73.5474 136.808 73.5238 136.741 73.4968 136.677C73.2943 136.184 73.0682 135.692 72.8218 135.206V135.185C72.0529 133.647 71.0434 132.242 69.8315 131.022C66.7198 127.91 63.0816 126.851 59.5852 125.822C56.4093 124.894 53.409 124.013 51.0061 121.611C48.6031 119.208 47.7256 116.212 46.7941 113.033C45.7817 109.527 44.7051 105.903 41.5968 102.792C38.4884 99.6808 34.8468 98.6213 31.3538 97.5955C28.1779 96.6642 25.1776 95.7869 22.7713 93.381C20.365 90.9751 19.4908 87.9821 18.5594 84.8035C17.5469 81.2975 16.4702 77.6735 13.3619 74.5624C10.2536 71.4513 6.61204 70.3917 3.1156 69.3659C2.05249 69.0521 1.01302 68.7451 0.00390625 68.3874V69.8181C0.894892 70.1184 1.80945 70.3884 2.73756 70.6583C6.08214 71.6402 9.54151 72.6525 12.4068 75.5173C15.2722 78.3821 16.2846 81.8408 17.2634 85.1848C18.2421 88.5287 19.1702 91.6904 21.8195 94.3359C24.4689 96.9814 27.6279 97.9093 30.9724 98.8879C34.317 99.8664 37.7763 100.882 40.6416 103.747C43.507 106.612 44.5194 110.07 45.4981 113.414C46.4769 116.758 47.405 119.92 50.0543 122.565C52.7036 125.211 55.8593 126.139 59.2072 127.117C62.5552 128.096 66.0077 129.112 68.8764 131.976C70.0395 133.15 70.9988 134.51 71.7148 135.999C71.7274 136.022 71.7386 136.045 71.7485 136.07C72.5656 137.869 73.2295 139.733 73.733 141.644C74.7151 144.988 75.6398 148.15 78.2858 150.795C80.9318 153.444 84.094 154.368 87.4386 155.347C89.3445 155.851 91.2049 156.514 93.0005 157.328L93.0883 157.368C94.5766 158.084 95.9352 159.043 97.1079 160.206C99.9732 163.071 100.986 166.53 101.968 169.873C102.95 173.217 103.871 176.379 106.521 179.025C109.17 181.67 112.329 182.598 115.673 183.577C119.018 184.555 122.477 185.571 125.343 188.436C128.208 191.3 129.221 194.759 130.199 198.103C131.178 201.447 132.106 204.609 134.755 207.254C137.405 209.9 140.564 210.828 143.908 211.806C147.253 212.785 150.712 213.8 153.577 216.665C156.443 219.53 157.455 222.989 158.434 226.333C159.413 229.677 160.341 232.838 162.987 235.484C163.167 235.659 163.346 235.828 163.523 235.99H165.734C165.09 235.564 164.489 235.074 163.942 234.529C161.536 232.096 160.658 229.096 159.727 225.921Z" fill="#766DFA"/>
<path d="M133.03 221.744C129.854 220.816 126.857 219.938 124.451 217.532C122.045 215.126 121.17 212.133 120.239 208.955C119.226 205.449 118.15 201.825 115.041 198.714C111.933 195.603 108.292 194.543 104.795 193.517C101.619 192.586 98.6223 191.709 96.216 189.303C93.8097 186.897 92.9356 183.904 92.0041 180.725C90.9916 177.219 89.915 173.595 86.8067 170.484C85.5863 169.273 84.1804 168.263 82.642 167.495C82.1526 167.248 81.6599 167.026 81.1638 166.82L81.022 166.766L80.4787 166.55L80.0669 166.398L79.8172 166.31L79.2569 166.118H79.2063C78.3254 165.824 77.4479 165.568 76.5806 165.311C73.4081 164.383 70.4078 163.506 68.0049 161.104C65.6019 158.701 64.7244 155.705 63.7929 152.523C63.5364 151.652 63.2765 150.768 62.9829 149.884L62.7804 149.293C62.7534 149.223 62.7298 149.148 62.7028 149.078L62.5408 148.635C62.4766 148.467 62.4092 148.298 62.3451 148.136C62.3181 148.075 62.2945 148.015 62.2708 147.954C62.0683 147.457 61.8433 146.966 61.5958 146.483V146.462C60.8284 144.924 59.8187 143.52 58.6056 142.302C55.4973 139.194 51.8557 138.131 48.3626 137.102C45.1868 136.174 42.1865 135.293 39.7835 132.891C37.3805 130.488 36.5031 127.492 35.5716 124.313C34.5591 120.807 33.4825 117.183 30.3742 114.072C27.2659 110.961 23.6243 109.902 20.1278 108.876C16.952 107.945 13.9551 107.067 11.5487 104.661C9.14239 102.255 8.26828 99.2624 7.3368 96.0838C6.32431 92.5779 5.24765 88.9539 2.13933 85.8428C1.49388 85.1995 0.793775 84.6136 0.046875 84.0915V85.7787C0.444384 86.0948 0.824123 86.4328 1.18427 86.7909C4.0496 89.6557 5.06205 93.1144 6.04079 96.4584C7.01952 99.8023 7.94763 102.964 10.597 105.61C13.2463 108.255 16.4053 109.183 19.7499 110.161C23.0944 111.14 26.5537 112.156 29.4191 115.021C32.2844 117.885 33.2968 121.344 34.2756 124.688C35.2543 128.032 36.1824 131.194 38.8284 133.839C41.4743 136.485 44.6367 137.413 47.9846 138.391C51.3326 139.37 54.7885 140.385 57.6538 143.25C58.8172 144.424 59.7766 145.783 60.4922 147.272L60.5259 147.34C61.3431 149.14 62.007 151.006 62.5104 152.918C63.4925 156.261 64.4173 159.423 67.0632 162.069C69.7092 164.718 72.8715 165.642 76.2161 166.624C78.1252 167.125 79.9882 167.787 81.7847 168.605L81.8623 168.642C83.3519 169.357 84.7116 170.316 85.8853 171.48C88.7507 174.344 89.7631 177.803 90.7452 181.147C91.7273 184.491 92.6487 187.653 95.298 190.298C97.9474 192.944 101.106 193.872 104.451 194.85C107.795 195.829 111.255 196.844 114.12 199.709C116.985 202.574 117.998 206.033 118.977 209.377C119.955 212.721 120.884 215.882 123.53 218.528C126.175 221.173 129.341 222.101 132.686 223.08C136.03 224.058 139.49 225.074 142.355 227.939C144.765 230.348 145.861 233.172 146.742 236H148.156C147.215 232.882 146.067 229.734 143.32 226.984C140.151 223.836 136.526 222.773 133.03 221.744Z" fill="#766DFA"/>
<path d="M113.17 228.796C110.767 226.393 109.89 223.397 108.958 220.218C107.946 216.712 106.869 213.088 103.761 209.977C100.653 206.866 97.011 205.807 93.5146 204.781C90.3388 203.849 87.3418 202.972 84.9355 200.57C82.5292 198.167 81.6551 195.171 80.7236 191.992C79.7111 188.483 78.6345 184.859 75.5262 181.748C74.3058 180.536 72.8999 179.527 71.3615 178.758H71.3412C70.8552 178.512 70.3625 178.289 69.8664 178.083L69.7212 178.026L69.1813 177.813L68.7695 177.661L68.5198 177.574L67.9595 177.381H67.9089C67.028 177.088 66.1505 176.831 65.2832 176.575C62.1074 175.647 59.1071 174.77 56.7041 172.367C54.3011 169.964 53.4269 166.968 52.4955 163.793C52.2423 162.919 51.9791 162.031 51.6821 161.144C51.618 160.948 51.5472 160.749 51.4797 160.55L51.402 160.338L51.24 159.892C51.1759 159.727 51.1118 159.555 51.0443 159.399C51.0207 159.335 50.9971 159.275 50.9701 159.211C50.7676 158.713 50.5426 158.223 50.2951 157.739V157.719C49.5286 156.179 48.5188 154.773 47.3048 153.555C44.1965 150.447 40.5549 149.384 37.0618 148.355C33.886 147.427 30.8857 146.547 28.4827 144.144C26.0798 141.742 25.2023 138.745 24.2708 135.567C23.2583 132.061 22.1817 128.437 19.0734 125.326C15.9651 122.214 12.3235 121.155 8.82704 120.129C5.65121 119.198 2.65429 118.321 0.247949 115.918L0.0117188 115.665V117.531C2.50581 119.677 5.41164 120.531 8.44909 121.425C11.7937 122.403 15.253 123.416 18.1183 126.281C20.9836 129.145 21.9961 132.604 22.9748 135.948C23.9535 139.292 24.8816 142.454 27.5276 145.099C30.1736 147.745 33.3359 148.673 36.6839 149.651C40.0318 150.63 43.4844 151.645 46.3531 154.51C47.5154 155.684 48.4746 157.044 49.1915 158.532C49.1915 158.556 49.215 158.583 49.2285 158.607C50.044 160.405 50.7068 162.268 51.2097 164.178C52.1884 167.521 53.1165 170.683 55.7625 173.329C58.4084 175.974 61.5707 176.899 64.9153 177.881C66.8245 178.381 68.6874 179.044 70.4839 179.861L70.5616 179.898C72.0511 180.614 73.4109 181.573 74.5846 182.736C77.4499 185.601 78.4623 189.06 79.4411 192.404C80.4198 195.748 81.3479 198.909 83.9939 201.555C86.6398 204.2 89.8022 205.128 93.1502 206.11C96.4981 207.092 99.954 208.101 102.819 210.966C105.685 213.831 106.697 217.289 107.676 220.633C108.655 223.977 109.583 227.139 112.229 229.784C114.875 232.43 118.037 233.358 121.385 234.336C123.039 234.784 124.662 235.338 126.245 235.993H129.164C126.802 234.519 124.247 233.77 121.763 233.044C118.574 232.079 115.577 231.202 113.17 228.796Z" fill="#766DFA"/>
<path d="M183.781 227.446C180.605 226.518 177.605 225.638 175.202 223.235C172.799 220.832 171.921 217.836 170.99 214.658C169.977 211.152 168.901 207.524 165.793 204.416C162.684 201.309 159.043 200.246 155.55 199.217C152.374 198.289 149.373 197.408 146.967 195.005C144.561 192.603 143.687 189.607 142.755 186.428C141.743 182.922 140.666 179.295 137.558 176.187C134.449 173.079 130.808 172.016 127.311 170.987C124.139 170.059 121.139 169.182 118.732 166.776C116.326 164.37 115.452 161.377 114.52 158.198C113.508 154.692 112.431 151.065 109.323 147.957C108.104 146.743 106.698 145.734 105.158 144.968H105.141C104.652 144.721 104.159 144.499 103.663 144.293L103.525 144.239L102.978 144.023L102.57 143.874C102.485 143.844 102.401 143.81 102.313 143.783C102.129 143.716 101.943 143.652 101.756 143.591H101.702C100.825 143.297 99.9472 143.038 99.0799 142.784C95.9074 141.857 92.9071 140.976 90.5042 138.577C88.1012 136.178 87.2237 133.178 86.2922 129.999C86.0391 129.129 85.7759 128.241 85.4823 127.357C85.4182 127.161 85.3506 126.962 85.2798 126.767C85.2528 126.692 85.2291 126.621 85.2021 126.551L85.0401 126.109C84.976 125.94 84.9085 125.771 84.8444 125.609C84.8174 125.548 84.7971 125.488 84.7701 125.427C84.5676 124.934 84.3449 124.442 84.0951 123.956V123.932C83.327 122.395 82.3175 120.99 81.1049 119.772C77.9932 116.66 74.355 115.601 70.8586 114.572C67.6828 113.644 64.6825 112.763 62.2795 110.361C59.8765 107.958 58.999 104.962 58.0675 101.783C57.055 98.2772 55.9784 94.6498 52.8701 91.542C49.7618 88.4343 46.1202 87.3714 42.6271 86.3422C39.4513 85.4143 36.451 84.5369 34.048 82.131C31.6451 79.7252 30.7642 76.7321 29.8327 73.5535C28.8202 70.0476 27.7437 66.4202 24.6353 63.3125C21.527 60.2047 17.8854 59.1418 14.3923 58.116C11.2165 57.1847 8.2162 56.3074 5.81323 53.9015C3.41027 51.4956 2.52942 48.5026 1.60131 45.3239C1.16099 43.7205 0.630292 42.1433 0.0117188 40.5999V44.7233L0.305296 45.7154C1.28403 49.0593 2.20876 52.221 4.8581 54.8665C7.50743 57.512 10.6664 58.4399 14.011 59.4185C17.3556 60.397 20.8149 61.4127 23.6802 64.2775C26.5455 67.1423 27.558 70.601 28.5401 73.9449C29.5222 77.2889 30.4436 80.4506 33.0929 83.0961C35.7422 85.7416 38.8675 86.6121 42.2424 87.5907C45.6174 88.5692 49.0463 89.5849 51.9116 92.4497C54.7769 95.3145 55.7895 98.7732 56.7682 102.117C57.7469 105.461 58.675 108.623 61.3244 111.268C63.9737 113.914 67.1292 114.842 70.4772 115.82C73.8251 116.799 77.2811 117.814 80.1465 120.679C81.3098 121.853 82.2691 123.212 82.9848 124.701C82.9974 124.724 83.0087 124.748 83.0186 124.772C83.8372 126.571 84.501 128.436 85.003 130.347C85.9851 133.691 86.9098 136.849 89.5558 139.498C92.2017 142.147 95.3641 143.071 98.7087 144.05C100.615 144.554 102.475 145.217 104.271 146.031L104.358 146.071C105.847 146.787 107.205 147.746 108.378 148.909C111.243 151.774 112.256 155.232 113.238 158.576C114.22 161.92 115.141 165.082 117.791 167.727C120.44 170.373 123.599 171.301 126.943 172.279C130.288 173.258 133.747 174.274 136.613 177.138C139.478 180.003 140.491 183.462 141.469 186.806C142.448 190.15 143.376 193.308 146.025 195.957C148.675 198.606 151.834 199.53 155.178 200.509C158.523 201.488 161.982 202.503 164.848 205.368C167.713 208.233 168.725 211.688 169.704 215.035C170.683 218.383 171.611 221.541 174.26 224.187C176.91 226.832 180.065 227.76 183.413 228.739C186.761 229.717 190.217 230.729 193.082 233.598C193.798 234.315 194.435 235.107 194.982 235.96H196.565C195.873 234.748 195.023 233.634 194.037 232.646C190.916 229.535 187.291 228.475 183.781 227.446Z" fill="#766DFA"/>
<path d="M70.9846 227.308C67.8087 226.376 64.8084 225.499 62.4055 223.097C60.0025 220.694 59.125 217.698 58.1936 214.516C57.1811 211.01 56.1045 207.386 52.9962 204.275C51.7758 203.063 50.3699 202.054 48.8315 201.285H48.8146C48.3252 201.035 47.8325 200.813 47.3364 200.61L47.1946 200.556L46.6512 200.34L46.2395 200.192L45.9864 200.101L45.4295 199.908L45.3789 199.891C44.498 199.601 43.6205 199.341 42.7532 199.085C39.5773 198.157 36.5804 197.28 34.1775 194.877C31.7745 192.475 30.897 189.478 29.9655 186.303C29.7124 185.429 29.4491 184.545 29.1555 183.661C29.0914 183.465 29.0238 183.269 28.9563 183.074L28.8753 182.851C28.8247 182.706 28.7707 182.561 28.7167 182.416C28.6627 182.271 28.5852 182.078 28.5143 181.903L28.4468 181.731C28.2443 181.238 28.0182 180.745 27.7718 180.26V180.239C27.0053 178.7 25.9956 177.294 24.7816 176.075C21.6732 172.968 18.0316 171.905 14.5386 170.879C11.3627 169.948 8.36244 169.07 5.95947 166.668C3.55651 164.265 2.67903 161.269 1.74754 158.087C1.28167 156.364 0.704422 154.673 0.0195312 153.025V157.011C0.168029 157.496 0.309787 157.982 0.451535 158.465C1.43364 161.812 2.35838 164.971 5.00434 167.616C7.6503 170.261 10.8127 171.189 14.1606 172.171C17.5086 173.153 20.9611 174.162 23.8264 177.027C24.991 178.2 25.9515 179.56 26.6682 181.049L26.7019 181.12C27.5185 182.919 28.1824 184.784 28.6864 186.694C29.6651 190.038 30.5932 193.2 33.2392 195.846C35.8885 198.491 39.0475 199.416 42.3954 200.398C44.3017 200.899 46.1622 201.561 47.9573 202.375L48.0451 202.419C49.5328 203.134 50.8912 204.092 52.0647 205.253C54.93 208.118 55.9425 211.577 56.9212 214.921C57.8999 218.265 58.828 221.426 61.474 224.075C64.1199 226.724 67.2823 227.645 70.6303 228.627C73.9782 229.609 77.4308 230.618 80.2995 233.483C81.0526 234.239 81.7182 235.078 82.2839 235.983H83.8634C83.1556 234.717 82.2766 233.554 81.2512 232.528C78.1193 229.396 74.4911 228.334 70.9846 227.308Z" fill="#766DFA"/>
<path d="M46.9268 225.782C45.9143 222.277 44.8377 218.649 41.7294 215.541C40.51 214.328 39.1039 213.317 37.5647 212.548H37.5445C37.0585 212.299 36.5624 212.076 36.0662 211.874L35.9313 211.823L35.3811 211.604L34.9728 211.455L34.7196 211.364L34.1662 211.175L34.1054 211.155C33.2279 210.861 32.3504 210.605 31.4864 210.352C28.3106 209.42 25.3103 208.543 22.9073 206.141C20.5044 203.738 19.6303 200.742 18.6988 197.566C18.4423 196.692 18.1824 195.805 17.8854 194.918C17.8179 194.719 17.7504 194.519 17.6795 194.32L17.6053 194.108C17.5513 193.959 17.4973 193.811 17.4399 193.662C17.3825 193.514 17.315 193.325 17.2475 193.17C17.2239 193.109 17.1969 193.045 17.1733 192.981C16.9708 192.488 16.7447 191.995 16.4983 191.51V191.489C15.7318 189.95 14.7222 188.544 13.5081 187.325C10.3998 184.218 6.7582 183.155 3.26513 182.129C2.1514 181.791 1.06133 181.481 0.0117188 181.1V182.534C0.949954 182.854 1.90836 183.138 2.8871 183.425C6.23167 184.403 9.68767 185.415 12.553 188.28C13.7176 189.454 14.678 190.813 15.3947 192.302L15.4318 192.38C16.2464 194.177 16.909 196.04 17.4129 197.948C18.3916 201.292 19.3164 204.453 21.9657 207.099C24.615 209.744 27.774 210.669 31.122 211.651C33.0299 212.152 34.8917 212.815 36.6873 213.632L36.7683 213.669C38.2572 214.385 39.6166 215.344 40.7912 216.506C43.6565 219.375 44.669 222.83 45.6478 226.174C46.6265 229.518 47.5546 232.68 50.2006 235.328C50.4301 235.558 50.6663 235.767 50.9025 235.973H53.1604C52.4361 235.514 51.7638 234.978 51.1556 234.374C48.7358 231.957 47.8583 228.958 46.9268 225.782Z" fill="#766DFA"/>
<path d="M30.4616 226.805C29.2441 225.591 27.839 224.58 26.3003 223.812H26.28C25.7907 223.562 25.2979 223.34 24.8018 223.137L24.6735 223.087L24.1167 222.867L23.7151 222.722L23.4519 222.628L22.9051 222.439L22.8376 222.418C21.9601 222.125 21.086 221.868 20.222 221.615C17.0462 220.684 14.0459 219.807 11.6429 217.404C9.23995 215.002 8.36585 212.005 7.43436 208.823C7.12049 207.757 6.79987 206.667 6.42188 205.584L6.34756 205.371C6.29356 205.223 6.23956 205.074 6.18219 204.926C6.12481 204.777 6.054 204.588 5.9865 204.43L5.91564 204.244C5.70977 203.748 5.48702 203.259 5.24065 202.773V202.753C4.47415 201.213 3.46443 199.807 2.25041 198.589C1.56613 197.905 0.819213 197.287 0.0195312 196.743V198.43C0.466342 198.781 0.89232 199.157 1.29527 199.557C2.45864 200.731 3.41798 202.09 4.13366 203.58L4.17411 203.657C4.9797 205.45 5.63447 207.307 6.1316 209.208C7.11033 212.555 8.03844 215.714 10.6844 218.362C13.3337 221.008 16.4927 221.932 19.8407 222.914C21.7469 223.416 23.6075 224.078 25.4026 224.892L25.487 224.932C26.9759 225.649 28.3353 226.608 29.5099 227.77C31.9567 230.22 33.0536 233.098 33.9311 235.973H35.3418C34.3934 232.798 33.2527 229.592 30.4616 226.805Z" fill="#766DFA"/>
<path d="M92.4965 221.241C89.3848 218.133 85.7466 217.07 82.2502 216.044C79.0744 215.113 76.0741 214.236 73.6711 211.833C71.2681 209.431 70.3906 206.434 69.4591 203.256C68.4466 199.746 67.37 196.122 64.2617 193.011C63.0413 191.8 61.6354 190.79 60.097 190.022H60.0802C59.5908 189.772 59.0946 189.549 58.5985 189.347L58.4771 189.299C58.2915 189.222 58.1024 189.148 57.9134 189.077L57.5152 188.932L57.2485 188.834L56.7018 188.648L56.6343 188.625C55.7602 188.334 54.8827 188.075 54.0187 187.822C50.8429 186.894 47.8459 186.016 45.4396 183.614C43.0333 181.211 42.1625 178.215 41.2311 175.033C40.9172 173.963 40.5966 172.877 40.2186 171.79C40.1949 171.723 40.1713 171.652 40.1443 171.584C40.0903 171.432 40.0363 171.284 39.979 171.135C39.9216 170.987 39.8507 170.798 39.7866 170.639L39.7123 170.454C39.5065 169.958 39.2837 169.469 39.0373 168.979C38.2708 167.44 37.2611 166.034 36.0471 164.815C32.9388 161.708 29.2973 160.645 25.8042 159.619C22.6284 158.688 19.6281 157.81 17.2251 155.404C14.8221 152.999 13.9446 150.005 13.0131 146.827C12.0006 143.321 10.924 139.697 7.81232 136.586C5.42623 134.197 2.72961 133.019 0.0195312 132.135V133.559C2.42924 134.379 4.79846 135.479 6.86056 137.541C9.72589 140.406 10.7384 143.864 11.7172 147.208C12.6959 150.552 13.624 153.714 16.27 156.359C18.9159 159.005 22.0782 159.933 25.4261 160.915C28.7741 161.897 32.2267 162.906 35.0954 165.77C36.2578 166.945 37.2169 168.304 37.9337 169.793L37.9675 169.863C38.7841 171.663 39.4479 173.527 39.9519 175.438C40.9307 178.782 41.8588 181.943 44.5047 184.589C47.1541 187.234 50.3164 188.159 53.661 189.141C55.5673 189.643 57.4278 190.304 59.2229 191.118L59.3107 191.159C60.7985 191.876 62.1568 192.835 63.3302 193.997C66.1955 196.861 67.2081 200.32 68.1868 203.664C69.1655 207.008 70.0937 210.17 72.7396 212.815C75.3856 215.461 78.5479 216.388 81.8958 217.37C85.2438 218.352 88.6997 219.361 91.565 222.226C94.4303 225.091 95.4429 228.55 96.4216 231.894C96.8333 233.301 97.2383 234.674 97.7716 235.99H99.2363C98.6411 234.53 98.1361 233.034 97.7243 231.512C96.6679 227.976 95.6048 224.352 92.4965 221.241Z" fill="#766DFA"/>
<path d="M221.828 0C222.517 1.60836 223.502 3.07336 224.731 4.31913C227.376 6.96459 230.539 7.88916 233.883 8.87109C234.579 9.07355 235.277 9.27938 235.976 9.50209V8.09837C235.399 7.91953 234.825 7.76094 234.258 7.5821C231.082 6.65416 228.085 5.77684 225.682 3.37432C224.711 2.39011 223.912 1.24939 223.32 0H221.828Z" fill="#766DFA"/>
<path d="M100.666 15.4577C103.316 18.1032 106.474 19.0311 109.822 20.0096C113.17 20.9882 116.623 22.0005 119.488 24.8653C122.354 27.7301 123.369 31.1888 124.348 34.5361C125.327 37.8834 126.255 41.0384 128.901 43.6872C131.547 46.3361 134.716 47.2573 138.057 48.2527C141.398 49.2481 144.858 50.2436 147.723 53.1084C148.886 54.2819 149.846 55.6413 150.561 57.1306C150.576 57.1554 150.588 57.1814 150.599 57.2082C151.416 59.0049 152.079 60.8674 152.583 62.7758C153.562 66.1231 154.486 69.2815 157.136 71.9303C159.785 74.5758 162.944 75.5037 166.292 76.4823C168.199 76.9836 170.06 77.6463 171.854 78.463C171.883 78.4745 171.911 78.488 171.938 78.5035C173.427 79.2183 174.786 80.1775 175.958 81.3413C178.827 84.2061 179.839 87.6614 180.818 91.0054C181.797 94.3493 182.725 97.5111 185.371 100.16C188.017 102.809 191.179 103.733 194.523 104.712C197.868 105.69 201.327 106.703 204.193 109.568C207.058 112.432 208.074 115.891 209.053 119.235C210.031 122.579 210.959 125.741 213.605 128.389C216.251 131.038 219.427 131.936 222.765 132.948C226.103 133.96 229.566 134.939 232.431 137.804C234.001 139.415 235.211 141.34 235.981 143.452V140.277C235.277 139.021 234.404 137.868 233.386 136.849C230.278 133.741 226.636 132.678 223.143 131.652C219.967 130.721 216.967 129.844 214.564 127.441C212.161 125.039 211.28 122.042 210.352 118.864C209.323 115.358 208.263 111.73 205.151 108.623C202.039 105.515 198.401 104.449 194.908 103.423C191.732 102.492 188.732 101.614 186.329 99.2117C183.926 96.8092 183.045 93.8128 182.117 90.6342C181.105 87.1283 180.028 83.5009 176.916 80.3931C175.7 79.1787 174.294 78.1691 172.755 77.4035H172.735C172.244 77.1583 171.752 76.9333 171.257 76.7286L171.128 76.6814C170.944 76.6026 170.758 76.5284 170.571 76.4587L170.17 76.3136L169.907 76.2191L169.356 76.0301L169.292 76.0099C168.415 75.7163 167.541 75.4599 166.677 75.2068C163.501 74.2755 160.501 73.3982 158.098 70.9956C155.695 68.5931 154.817 65.5967 153.886 62.4147C153.575 61.3484 153.255 60.2585 152.873 59.1754L152.799 58.9628C152.745 58.8143 152.691 58.6659 152.634 58.5174C152.576 58.3689 152.505 58.18 152.438 58.018L152.367 57.8358C152.161 57.3431 151.938 56.8505 151.692 56.3646V56.3443C150.926 54.8047 149.916 53.3988 148.702 52.1804C145.593 49.0727 141.952 48.0098 138.459 46.984C135.283 46.0527 132.283 45.1753 129.88 42.7728C127.477 40.3703 126.596 37.3739 125.668 34.1953C124.655 30.6894 123.579 27.062 120.467 23.9542C117.355 20.8465 113.717 19.7802 110.224 18.7544C107.048 17.8231 104.048 16.9458 101.645 14.5432C99.2419 12.1407 98.3611 9.14433 97.433 5.96572C96.9001 3.93669 96.1898 1.95847 95.3101 0.0539169H93.7812C94.8849 2.07851 95.5193 4.23469 96.1437 6.34365C97.0921 9.65048 98.0202 12.8223 100.666 15.4577Z" fill="#766DFA"/>
<path d="M79.9909 7.90263C82.8562 10.7674 83.872 14.2227 84.8508 17.5667C85.8295 20.9106 86.7576 24.0724 89.4036 26.7212C92.0495 29.3701 95.2119 30.2946 98.5599 31.2732C99.3935 31.5195 100.247 31.7658 101.078 32.0425C103.595 32.876 106.076 33.9828 108.226 36.1322C110.554 38.4571 111.661 41.1768 112.519 43.8931C112.718 44.5241 112.9 45.1551 113.086 45.7827C114.064 49.1267 114.992 52.2851 117.638 54.9339C120.284 57.5827 123.443 58.5039 126.791 59.4859C130.139 60.4678 133.595 61.4767 136.46 64.3415C137.624 65.5158 138.584 66.875 139.302 68.3637C139.312 68.3891 139.323 68.4139 139.336 68.4379C140.153 70.2358 140.817 72.0994 141.32 74.0089C142.299 77.3563 143.224 80.5146 145.873 83.1635C148.523 85.8089 151.681 86.7369 155.029 87.7154C156.934 88.2177 158.794 88.8791 160.588 89.6928L160.679 89.7367C162.167 90.4523 163.524 91.4114 164.695 92.5744C167.561 95.4392 168.576 98.8946 169.555 102.242C170.534 105.589 171.462 108.748 174.108 111.393C176.754 114.039 179.916 114.966 183.261 115.945C186.605 116.924 190.065 117.936 192.93 120.804C195.795 123.672 196.811 127.124 197.79 130.468C198.769 133.812 199.694 136.974 202.343 139.623C204.992 142.271 208.151 143.193 211.496 144.175C214.84 145.156 218.3 146.165 221.165 149.03C224.03 151.895 225.043 155.354 226.025 158.698C227.007 162.042 227.928 165.203 230.578 167.852C232.114 169.345 233.957 170.488 235.978 171.199V169.745C234.318 169.106 232.805 168.137 231.529 166.897C229.126 164.495 228.246 161.498 227.314 158.32C226.302 154.81 225.225 151.186 222.117 148.079C219.008 144.971 215.367 143.905 211.874 142.879C208.698 141.948 205.698 141.07 203.295 138.668C200.892 136.265 200.011 133.269 199.083 130.09C198.053 126.584 196.99 122.957 193.882 119.849C190.774 116.741 187.132 115.675 183.639 114.649C180.463 113.721 177.463 112.841 175.06 110.438C172.657 108.036 171.776 105.039 170.848 101.861C169.818 98.3547 168.759 94.7273 165.647 91.6195C164.429 90.405 163.023 89.3954 161.482 88.6299C160.993 88.3835 160.497 88.1575 160.001 87.955L159.869 87.901C159.687 87.8268 159.501 87.7525 159.316 87.6851C159.13 87.6176 159.046 87.5838 158.911 87.5366L158.651 87.4421L158.097 87.2532L158.043 87.2329C157.162 86.9427 156.285 86.6829 155.418 86.4298C152.245 85.4985 149.248 84.6212 146.845 82.222C144.442 79.8229 143.561 76.8231 142.633 73.6445C142.377 72.7739 142.117 71.8899 141.82 71.0024C141.756 70.8067 141.688 70.611 141.621 70.4153L141.54 70.1926C141.486 70.0475 141.435 69.9024 141.378 69.7573C141.32 69.6122 141.246 69.4199 141.179 69.2478L141.111 69.0757C140.905 68.5797 140.683 68.0904 140.436 67.6011V67.5809C139.669 66.0426 138.66 64.6377 137.446 63.4203C134.338 60.3092 130.696 59.2463 127.2 58.2205C124.024 57.2892 121.027 56.4119 118.624 54.0093C116.221 51.6068 115.34 48.6104 114.412 45.4318C114.155 44.5545 113.896 43.6704 113.602 42.7897C112.724 40.1443 111.543 37.5224 109.215 35.1908C107.078 33.0514 104.696 31.8806 102.276 31.0268C101.175 30.6354 100.068 30.3115 98.9716 29.9909C95.7958 29.063 92.7954 28.1823 90.3924 25.7798C87.9895 23.3773 87.1086 20.3809 86.1805 17.2022C85.168 13.6963 84.0914 10.0689 80.9797 6.96119C77.868 3.85344 74.2298 2.79053 70.7367 1.76136C69.0363 1.31218 67.3731 0.732315 65.7621 0.0269585H63.0352C65.2626 1.56227 67.7601 2.2945 70.3554 3.06385C73.6662 4.02215 77.1256 5.03446 79.9909 7.90263Z" fill="#766DFA"/>
<path d="M121.091 8.7462C124.436 9.72475 127.892 10.737 130.757 13.6018C133.622 16.4666 134.638 19.9253 135.617 23.2693C136.595 26.6132 137.524 29.775 140.17 32.4238C142.816 35.0727 145.978 35.9938 149.326 36.9758C152.674 37.9577 156.126 38.9666 158.992 41.8314C160.155 43.0056 161.115 44.3649 161.833 45.8536L161.867 45.9278C162.684 47.7259 163.348 49.5895 163.852 51.4988C164.83 54.8462 165.755 58.0045 168.404 60.6534C171.054 63.2988 174.213 64.2268 177.561 65.2053C179.469 65.7066 181.33 66.3693 183.126 67.186L183.207 67.2232C184.697 67.9397 186.056 68.9 187.23 70.0644C190.095 72.9291 191.108 76.3845 192.086 79.7284C193.065 83.0724 193.993 86.2341 196.639 88.8829C199.285 91.5318 202.448 92.453 205.795 93.4349C209.143 94.4168 212.596 95.4257 215.461 98.2905C218.327 101.155 219.342 104.614 220.321 107.958C221.3 111.302 222.228 114.464 224.874 117.113C227.52 119.761 230.682 120.683 234.03 121.664C234.678 121.853 235.33 122.046 235.981 122.252V120.838C235.455 120.676 234.93 120.519 234.408 120.369C231.232 119.437 228.232 118.56 225.829 116.158C223.426 113.755 222.545 110.759 221.617 107.58C220.605 104.071 219.528 100.447 216.416 97.339C213.305 94.2312 209.667 93.1649 206.173 92.1392C202.998 91.2078 199.997 90.3305 197.594 87.928C195.191 85.5255 194.314 82.5291 193.382 79.3505C192.37 75.8446 191.293 72.2172 188.182 69.1094C186.965 67.895 185.56 66.8854 184.02 66.1198H184C183.51 65.8746 183.017 65.6496 182.522 65.4449L182.387 65.3943L181.837 65.175L181.428 65.0265L181.175 64.9354L180.622 64.7464L180.561 64.7262C179.684 64.436 178.806 64.1762 177.942 63.9231C174.766 62.9918 171.769 62.1145 169.363 59.7119C166.957 57.3094 166.086 54.313 165.154 51.1378C164.898 50.2638 164.638 49.3764 164.341 48.4889C164.273 48.2899 164.206 48.0908 164.135 47.8917C164.111 47.8208 164.084 47.75 164.057 47.6757C164.007 47.5306 163.953 47.3822 163.895 47.2337C163.838 47.0852 163.767 46.8963 163.7 46.7377L163.629 46.5521C163.423 46.0594 163.2 45.5668 162.954 45.0809V45.0606C162.187 43.521 161.178 42.1151 159.964 40.8967C156.855 37.789 153.214 36.7261 149.721 35.7003C146.545 34.7689 143.545 33.8916 141.142 31.4891C138.739 29.0866 137.858 26.0902 136.93 22.9116C135.9 19.4023 134.841 15.7783 131.729 12.6671C128.617 9.55602 124.979 8.4965 121.486 7.4707C118.31 6.53939 115.31 5.66207 112.907 3.25955C111.973 2.31527 111.2 1.22583 110.615 0.033699H109.113C109.795 1.58946 110.757 3.00661 111.952 4.21448C114.584 6.8397 117.743 7.7609 121.091 8.7462Z" fill="#766DFA"/>
<path d="M34.0839 11.8674C35.0627 15.2114 35.9908 18.3731 38.6367 21.0186C41.2827 23.664 44.445 24.592 47.7895 25.5705C51.1341 26.5491 54.5935 27.5647 57.4588 30.4295C60.3241 33.2943 61.3366 36.7497 62.3187 40.0936C63.3008 43.4376 64.2222 46.5993 66.8816 49.265C69.5411 51.9307 72.69 52.8384 76.0345 53.817C79.3791 54.7955 82.8384 55.8078 85.7037 58.676C88.5691 61.5442 89.5815 64.9961 90.5636 68.3434C91.5457 71.6907 92.4671 74.8491 95.1164 77.4946C97.7658 80.14 100.925 81.068 104.269 82.0465C107.614 83.0251 111.073 84.0374 113.939 86.9055C115.103 88.0778 116.063 89.4374 116.777 90.9277C116.777 90.9514 116.8 90.975 116.814 90.9952C117.631 92.7944 118.294 94.6591 118.799 96.5696C119.777 99.9169 120.702 103.075 123.351 105.724C125.997 108.373 129.16 109.298 132.507 110.276C134.414 110.78 136.276 111.443 138.073 112.257L138.154 112.297C139.643 113.012 141.002 113.971 142.173 115.135C145.039 118 146.051 121.455 147.033 124.803C148.015 128.15 148.937 131.308 151.586 133.954C154.235 136.599 157.394 137.527 160.739 138.506C164.084 139.484 167.543 140.497 170.408 143.365C173.274 146.233 174.286 149.685 175.268 153.029C176.25 156.373 177.172 159.534 179.821 162.183C182.47 164.832 185.629 165.757 188.974 166.735C192.318 167.714 195.778 168.726 198.643 171.594C201.508 174.462 202.521 177.914 203.5 181.258C204.478 184.602 205.406 187.764 208.056 190.413C210.705 193.062 213.864 193.983 217.209 194.965C220.553 195.947 224.012 196.956 226.878 199.82C229.743 202.685 230.756 206.144 231.734 209.488C232.676 212.704 233.574 215.744 235.99 218.325V216.199C234.495 214.094 233.78 211.658 233.03 209.113C232.018 205.607 230.941 201.983 227.833 198.876C224.725 195.768 221.083 194.702 217.587 193.676C214.411 192.744 211.414 191.867 209.011 189.465C206.608 187.062 205.727 184.066 204.795 180.887C203.783 177.381 202.706 173.754 199.598 170.646C196.49 167.538 192.848 166.475 189.355 165.446C186.179 164.518 183.179 163.638 180.776 161.235C178.373 158.833 177.492 155.836 176.564 152.658C175.552 149.152 174.472 145.524 171.363 142.416C168.255 139.309 164.613 138.246 161.12 137.217C157.944 136.289 154.944 135.408 152.541 133.006C150.138 130.603 149.257 127.607 148.329 124.428C147.317 120.922 146.237 117.295 143.128 114.187C141.91 112.973 140.504 111.964 138.964 111.197H138.944C138.455 110.95 137.963 110.725 137.465 110.522L137.33 110.468C137.145 110.394 136.962 110.32 136.78 110.252L136.375 110.104L136.115 110.01L135.562 109.821L135.504 109.8C134.627 109.51 133.75 109.25 132.882 108.997C129.71 108.069 126.709 107.189 124.306 104.789C121.903 102.39 121.026 99.3905 120.094 96.2085C119.841 95.338 119.581 94.4573 119.288 93.5766V93.5496C119.224 93.3573 119.16 93.1649 119.092 92.9726C119.065 92.895 119.035 92.8174 119.008 92.7431C118.957 92.598 118.903 92.4563 118.849 92.3112C118.795 92.1661 118.717 91.9738 118.65 91.8017L118.579 91.6296C118.377 91.1324 118.152 90.6421 117.904 90.1584V90.1348C117.136 88.5972 116.126 87.1925 114.914 85.9742C111.802 82.8631 108.164 81.8002 104.668 80.7744C101.492 79.8431 98.4948 78.9658 96.0918 76.5633C93.6889 74.1608 92.808 71.1643 91.8765 67.9857C90.864 64.4798 89.7874 60.8524 86.6791 57.7447C83.5707 54.6369 79.9292 53.574 76.4361 52.5448C73.2603 51.6169 70.2599 50.7362 67.857 48.3337C65.454 45.9312 64.5731 42.9348 63.645 39.7562C62.6157 36.2503 61.5526 32.6228 58.4443 29.5151C55.3359 26.4073 51.6943 25.3444 48.2013 24.3153C45.0254 23.3873 42.0251 22.5067 39.6222 20.1041C37.2192 17.7016 36.3384 14.7052 35.4103 11.5266C34.3978 8.02068 33.3178 4.39329 30.2095 1.28554C29.7706 0.846786 29.305 0.435467 28.8156 0.0539169H26.4531C27.4802 0.662194 28.4269 1.39678 29.2712 2.24048C32.0893 5.06141 33.1052 8.52008 34.0839 11.8674Z" fill="#766DFA"/>
<path d="M49.9033 9.75519C52.5493 12.4007 55.7117 13.3286 59.0562 14.3072C62.4008 15.2857 65.8601 16.298 68.7254 19.1662C71.5908 22.0343 72.6067 25.4863 73.5854 28.8302C74.5642 32.1742 75.4889 35.3359 78.1382 37.9848C80.7876 40.6336 83.9465 41.5582 87.291 42.5367C90.6356 43.5153 94.095 44.5276 96.9603 47.3958C99.8256 50.2639 100.838 53.7158 101.82 57.0598C102.802 60.4037 103.724 63.5655 106.373 66.2143C109.022 68.8632 112.181 69.7844 115.526 70.7663C118.87 71.7482 122.33 72.7571 125.195 75.6219C126.358 76.7954 127.318 78.1548 128.033 79.6441L128.071 79.7184C128.887 81.5164 129.551 83.38 130.055 85.2894C131.034 88.6367 131.958 91.7951 134.608 94.4439C137.254 97.0927 140.416 98.0173 143.764 98.9959C145.671 99.5002 147.533 100.163 149.329 100.977L149.41 101.017C150.899 101.732 152.258 102.691 153.43 103.855C156.295 106.72 157.311 110.178 158.29 113.519C159.269 116.86 160.193 120.025 162.843 122.673C165.492 125.322 168.651 126.247 171.995 127.225C175.34 128.204 178.799 129.216 181.665 132.084C184.53 134.953 185.543 138.405 186.525 141.749C187.507 145.092 188.428 148.254 191.077 150.903C193.727 153.552 196.886 154.476 200.23 155.455C203.575 156.434 207.034 157.446 209.9 160.311C212.765 163.175 213.777 166.634 214.759 169.978C215.742 173.322 216.663 176.484 219.312 179.133C221.962 181.781 225.117 182.703 228.465 183.685C231.01 184.43 233.615 185.196 235.981 186.779V185.176C233.679 183.806 231.236 183.087 228.843 182.389C225.667 181.458 222.67 180.58 220.267 178.178C217.864 175.775 216.984 172.779 216.052 169.6C215.04 166.094 213.963 162.467 210.855 159.359C207.746 156.251 204.105 155.188 200.612 154.159C197.436 153.228 194.436 152.351 192.033 149.948C189.63 147.546 188.749 144.549 187.821 141.371C186.808 137.865 185.728 134.237 182.62 131.13C179.511 128.022 175.87 126.955 172.377 125.93C169.201 125.002 166.201 124.121 163.798 121.719C161.395 119.316 160.514 116.32 159.586 113.141C158.556 109.635 157.497 106.008 154.385 102.9C153.167 101.685 151.761 100.676 150.22 99.9103H150.2C149.712 99.6651 149.219 99.4402 148.722 99.2354L148.584 99.1814C148.401 99.1072 148.219 99.033 148.037 98.9655C147.854 98.898 147.763 98.8643 147.628 98.8137L147.375 98.7225L146.818 98.5336L146.761 98.5133C145.883 98.2231 145.006 97.9633 144.139 97.7102C140.966 96.7789 137.966 95.9016 135.563 93.5025C133.16 91.1033 132.282 88.1035 131.354 84.9216C131.041 83.8519 130.717 82.762 130.342 81.6755L130.268 81.473C130.214 81.3212 130.16 81.1727 130.102 81.0208C130.045 80.869 129.974 80.6834 129.91 80.5349C129.883 80.4708 129.859 80.4034 129.832 80.3392C129.63 79.8466 129.407 79.3539 129.157 78.868V78.8478C128.39 77.3095 127.381 75.9047 126.167 74.6873C123.055 71.5761 119.417 70.5132 115.921 69.4874C112.748 68.5561 109.748 67.6788 107.345 65.2763C104.942 62.8738 104.061 59.8774 103.133 56.6988C102.104 53.1928 101.044 49.5654 97.9323 46.4577C94.8206 43.3499 91.1823 42.287 87.6893 41.2579C84.5134 40.3299 81.5131 39.4492 79.1102 37.0467C76.7072 34.6442 75.8263 31.6478 74.8982 28.4692C73.8857 24.9633 72.8092 21.3359 69.6975 18.2281C66.5858 15.1204 62.9475 14.0574 59.4545 13.0283C56.2786 12.1003 53.2783 11.2196 50.8754 8.81713C48.4724 6.41461 47.5916 3.41821 46.6634 0.2396L46.6026 0.0303936H45.1953L45.3674 0.6209C46.3293 3.94798 47.2574 7.10972 49.9033 9.75519Z" fill="#766DFA"/>
<path d="M183.12 3.18538C186.464 4.16393 189.92 5.17622 192.786 8.04102C193.95 9.21425 194.911 10.5737 195.627 12.0632L195.661 12.1374C196.478 13.9355 197.141 15.7991 197.645 17.7084C198.624 21.0524 199.552 24.2141 202.198 26.8596C204.848 29.5051 208.007 30.4297 211.355 31.4116C213.263 31.9123 215.124 32.575 216.92 33.3923L217.001 33.4294C218.49 34.1461 219.849 35.1051 221.024 36.2672C223.889 39.132 224.902 42.5907 225.88 45.9346C226.859 49.2786 227.787 52.4403 230.433 55.0892C232.008 56.6176 233.901 57.778 235.978 58.4871V57.0362C234.264 56.397 232.701 55.4088 231.388 54.1342C228.985 51.7317 228.108 48.7353 227.176 45.5567C226.164 42.0474 225.087 38.4234 221.979 35.3123C220.759 34.1006 219.353 33.0914 217.814 32.3226H217.794C217.308 32.0763 216.812 31.8536 216.316 31.6478L216.194 31.6005C216.005 31.5229 215.82 31.4487 215.631 31.3778L215.232 31.2327L214.966 31.1349L214.422 30.9493L214.351 30.9257C213.474 30.6355 212.6 30.3757 211.736 30.1226C208.56 29.1947 205.56 28.3173 203.157 25.9148C200.754 23.5123 199.88 20.5159 198.948 17.3407C198.692 16.4667 198.432 15.5826 198.138 14.6952L197.936 14.1047L197.855 13.8854C197.804 13.7403 197.75 13.5952 197.696 13.4467C197.642 13.2982 197.564 13.1093 197.497 12.9439L197.426 12.7651C197.224 12.2724 197.001 11.7798 196.751 11.2939V11.2736C195.985 9.73403 194.975 8.32804 193.761 7.10972C190.653 4.00197 187.011 2.93906 183.518 1.91327C181.712 1.44032 179.951 0.812614 178.253 0.0371342H175.617C177.872 1.64331 180.433 2.39916 183.12 3.18538Z" fill="#766DFA"/>
<path d="M146.867 12.0058C147.845 15.3531 148.773 18.5115 151.419 21.1603C154.065 23.8092 157.228 24.7304 160.576 25.7123C163.924 26.6942 167.376 27.7031 170.242 30.5679C171.406 31.7412 172.367 33.1006 173.083 34.5901C173.093 34.6144 173.104 34.638 173.117 34.661C173.934 36.4602 174.597 38.3249 175.101 40.2354C176.08 43.5793 177.005 46.7411 179.654 49.3865C182.304 52.032 185.463 52.9565 188.81 53.9385C190.718 54.4401 192.58 55.1016 194.376 55.9158L194.46 55.9563C195.948 56.6739 197.306 57.6328 198.48 58.7941C201.345 61.6589 202.358 65.1176 203.336 68.4649C204.315 71.8123 205.243 74.9673 207.889 77.6161C210.535 80.2649 213.697 81.1861 217.045 82.168C220.393 83.15 223.846 84.1589 226.715 87.0237C229.583 89.8885 230.592 93.3472 231.571 96.6911C232.53 99.9676 233.441 103.062 235.959 105.677V103.592C234.366 101.446 233.63 98.9384 232.86 96.3098C231.848 92.8039 230.771 89.1799 227.659 86.0688C224.548 82.9576 220.91 81.8981 217.417 80.8723C214.241 79.941 211.24 79.0637 208.837 76.6612C206.435 74.2586 205.557 71.2622 204.625 68.0803C203.613 64.5743 202.536 60.9503 199.425 57.8426C198.207 56.6282 196.802 55.6176 195.263 54.8495C194.773 54.6021 194.279 54.3771 193.782 54.1747L193.647 54.1207C193.465 54.0498 193.282 53.9756 193.097 53.9081C192.962 53.8541 192.823 53.8069 192.688 53.7563L192.428 53.6517L191.872 53.4593L191.818 53.4425C190.94 53.1523 190.059 52.8924 189.195 52.6394C186.019 51.7081 183.022 50.8307 180.619 48.4316C178.217 46.0325 177.339 43.0327 176.408 39.8541C176.151 38.9801 175.891 38.0961 175.598 37.212C175.533 37.0163 175.466 36.8205 175.398 36.6248L175.317 36.4021L175.159 35.9669C175.095 35.7948 175.024 35.6294 174.956 35.454C174.933 35.3966 174.912 35.3392 174.889 35.2852C174.686 34.7892 174.46 34.2966 174.214 33.8107V33.7904C173.447 32.2508 172.438 30.8448 171.224 29.6265C168.115 26.5187 164.474 25.4559 160.981 24.4301C157.805 23.4987 154.804 22.6214 152.402 20.2189C149.999 17.8164 149.121 14.82 148.19 11.6414C147.16 8.13208 146.101 4.50807 142.989 1.39694C142.496 0.905339 141.971 0.447626 141.416 0.0269585H138.973C140.092 0.662181 141.121 1.44407 142.034 2.35187C144.889 5.20317 145.901 8.66185 146.867 12.0058Z" fill="#766DFA"/>
<path d="M209.197 2.82428L209.119 2.6117C209.065 2.46323 209.011 2.31477 208.954 2.1663C208.896 2.01783 208.829 1.82886 208.761 1.67027C208.734 1.60953 208.714 1.54542 208.687 1.48468C208.485 0.989778 208.26 0.499381 208.012 0.0134792H206.477C206.622 0.273302 206.763 0.536494 206.892 0.799691L206.925 0.870549C207.743 2.66956 208.406 4.53431 208.91 6.44493C209.889 9.78889 210.817 12.9506 213.463 15.5961C216.109 18.2415 219.268 19.1661 222.616 20.1481C224.523 20.6497 226.385 21.3111 228.181 22.1254L228.265 22.1659C229.753 22.8835 231.111 23.8424 232.285 25.0037C233.94 26.7137 235.199 28.7664 235.974 31.0167V27.72C234.419 24.8392 232.009 22.5118 229.075 21.0591H229.055C228.569 20.8128 228.076 20.5901 227.58 20.3842L227.438 20.3303L226.895 20.1143L226.483 19.9658L226.23 19.8747C226.044 19.8072 225.859 19.7465 225.67 19.6824H225.623C224.742 19.3922 223.864 19.1324 222.997 18.8759C219.821 17.948 216.824 17.0707 214.421 14.6681C212.018 12.2656 211.141 9.26924 210.209 6.08726C209.953 5.21668 209.693 4.33261 209.399 3.44854L209.197 2.82428Z" fill="#766DFA"/>
<path d="M158.147 0.742419C159.126 4.08975 160.054 7.24811 162.7 9.89358C165.346 12.539 168.508 13.467 171.856 14.4489C175.204 15.4308 178.657 16.4398 181.522 19.3046C182.687 20.4778 183.647 21.8372 184.364 23.3267C184.364 23.3504 184.387 23.374 184.398 23.401C185.215 25.1988 185.879 27.0625 186.382 28.972C187.361 32.3159 188.289 35.4777 190.935 38.1231C193.584 40.7686 196.743 41.6932 200.091 42.6751C201.997 43.1768 203.858 43.8382 205.653 44.6525L205.741 44.6929C207.228 45.4105 208.586 46.3694 209.76 47.5307C212.626 50.3955 213.638 53.8542 214.617 57.1982C215.596 60.5421 216.524 63.7039 219.17 66.3527C221.816 69.0016 224.978 69.9227 228.326 70.9047C230.918 71.6639 233.577 72.4467 235.98 74.0934V72.4805C233.638 71.0565 231.144 70.3209 228.704 69.6089C225.528 68.6776 222.528 67.8003 220.125 65.3978C217.722 62.9953 216.844 59.9989 215.913 56.8203C214.9 53.311 213.824 49.687 210.715 46.5758C209.495 45.3642 208.089 44.3549 206.551 43.5862C206.061 43.3365 205.565 43.1138 205.069 42.9113L204.917 42.8539C204.728 42.7763 204.543 42.7021 204.354 42.6312L203.955 42.4861L203.689 42.3883L203.142 42.2027L203.075 42.1825C202.197 41.8889 201.323 41.6324 200.459 41.3794C197.283 40.4481 194.283 39.5707 191.88 37.1682C189.477 34.7657 188.603 31.7693 187.671 28.5873C187.357 27.5176 187.037 26.4277 186.659 25.3412L186.588 25.1455C186.534 24.9937 186.477 24.8418 186.419 24.6866C186.362 24.5314 186.294 24.366 186.23 24.2041C186.203 24.1366 186.18 24.0725 186.153 24.0084C185.947 23.5123 185.724 23.0231 185.478 22.5338C184.711 20.9942 183.701 19.5882 182.487 18.3699C179.379 15.2621 175.737 14.1992 172.244 13.1734C169.069 12.2421 166.068 11.3648 163.665 8.96226C161.262 6.55974 160.385 3.56335 159.453 0.384742C159.42 0.266641 159.386 0.14854 159.349 0.0473099H157.941C158.006 0.256518 158.076 0.499468 158.147 0.742419Z" fill="#766DFA"/>
</g>
<path d="M200 76H120V156H200V76Z" fill="#766DFA"/>
<path d="M153.9 76.8001L134.707 105.12C132.692 108.09 131.281 111.428 130.556 114.944C129.831 118.459 129.805 122.083 130.48 125.608C131.156 129.133 132.519 132.491 134.492 135.49C136.465 138.488 139.009 141.069 141.98 143.084L161.042 156H192.736L144.969 123.636C144.846 123.554 144.741 123.449 144.66 123.326C144.578 123.203 144.522 123.065 144.494 122.921C144.467 122.776 144.468 122.627 144.498 122.483C144.529 122.338 144.587 122.202 144.671 122.08L173.333 79.7818C173.414 79.6602 173.52 79.556 173.642 79.4751C173.764 79.3943 173.901 79.3384 174.045 79.3107C174.189 79.283 174.337 79.2841 174.481 79.3137C174.624 79.3434 174.761 79.4012 174.882 79.4837L199.958 96.4727V76H154.482C154.293 76.2618 154.103 76.531 153.9 76.8001Z" fill="#FC805F"/>
<path d="M199.999 139.418V117.942L178.705 103.513L168.727 118.233L199.999 139.418Z" fill="#F3F1E5"/>
<path d="M280 156H200V236H280V156Z" fill="#FC805F"/>
<path d="M238.879 218.218V235.992H279.999V218.218H238.879Z" fill="#FFC844"/>
<path d="M203.375 210.007V236H221.157V201.564C221.157 201.267 221.275 200.982 221.485 200.772C221.695 200.562 221.98 200.444 222.277 200.444H280V182.669H230.713C223.462 182.669 216.509 185.549 211.382 190.676C206.255 195.803 203.375 202.757 203.375 210.007Z" fill="#766DFA"/>
</svg>
