<svg width="418" height="414" viewBox="0 0 418 414" fill="none" xmlns="http://www.w3.org/2000/svg">
<g opacity="0.05">
<path d="M158.674 320.475C152.88 317.335 146.983 314.091 139.105 314.091C136.021 314.097 132.958 314.598 130.032 315.574C129.105 315.887 128.19 316.223 127.298 316.593C127.239 316.627 127.177 316.655 127.113 316.674L126.093 317.126L125.421 317.439L124.935 317.659L124.019 318.111L123.892 318.169C122.42 318.911 120.983 319.699 119.57 320.486C114.368 323.325 109.455 326.013 103.349 326.013C97.2433 326.013 92.3423 323.325 87.1285 320.475C85.7034 319.699 84.2551 318.911 82.7605 318.158L81.7642 317.671C81.6367 317.671 81.5092 317.555 81.3818 317.486L80.6288 317.138L79.7482 316.756L79.4238 316.617C78.5316 316.246 77.6278 315.91 76.7009 315.597C73.7756 314.621 70.7126 314.12 67.6288 314.114C59.7501 314.114 53.8065 317.358 48.0597 320.51C42.8575 323.348 37.9333 326.036 31.839 326.036C25.7446 326.036 20.832 323.348 15.6182 320.498C10.891 317.914 6.0133 315.261 0.0463861 314.404L0.0463862 316.848C5.46875 317.706 10.0221 320.197 14.4596 322.641C19.9399 325.642 25.119 328.435 31.839 328.435C38.559 328.435 43.7265 325.608 49.2183 322.641C54.7102 319.675 60.3642 316.547 67.6288 316.547C70.5961 316.555 73.5412 317.06 76.3416 318.042L76.4228 318.042C79.753 319.285 82.9704 320.813 86.0395 322.607C91.5198 325.607 96.6988 328.4 103.419 328.4C110.127 328.4 115.306 325.573 120.798 322.607C123.834 320.809 127.016 319.27 130.31 318.007C130.31 318.007 130.392 318.007 130.438 318.007C133.235 317.027 136.176 316.521 139.139 316.512C146.404 316.512 152.069 319.606 157.55 322.607C163.03 325.607 168.209 328.4 174.929 328.4C176.093 328.399 177.255 328.31 178.405 328.133L178.405 325.677C177.257 325.876 176.094 325.977 174.929 325.978C168.8 326.013 163.911 323.325 158.674 320.475Z" fill="#001705"/>
<path d="M158.674 291.927C152.88 288.787 146.983 285.531 139.105 285.531C136.021 285.538 132.958 286.038 130.032 287.015C129.094 287.316 128.178 287.663 127.286 288.034C127.215 288.06 127.145 288.091 127.078 288.127C126.742 288.266 126.406 288.405 126.082 288.555L125.398 288.868L124.935 289.089L124.008 289.54L123.88 289.61C122.409 290.351 120.972 291.128 119.558 291.927C114.356 294.766 109.444 297.454 103.338 297.465C97.2317 297.477 92.3307 294.766 87.1169 291.927C85.3674 290.965 83.5716 289.992 81.7178 289.1C81.5904 289.1 81.4744 288.984 81.3586 288.938C81.2427 288.892 80.8373 288.695 80.5824 288.567C80.3275 288.44 80.0031 288.324 79.725 288.196L79.3774 288.046C78.4852 287.675 77.5814 287.339 76.6545 287.038C73.7292 286.062 70.6665 285.561 67.5826 285.555C59.704 285.555 53.7601 288.81 48.0133 291.95C42.8111 294.801 37.887 297.489 31.7926 297.489C25.6982 297.489 20.7857 294.801 15.5718 291.95C10.8447 289.355 5.96692 286.702 -6.14325e-07 285.844L-5.07465e-07 288.289C5.42236 289.158 9.97569 291.649 14.4132 294.082C19.9051 297.083 25.0842 299.875 31.7926 299.875C38.501 299.875 43.6801 297.048 49.172 294.082C54.6638 291.116 60.3181 287.988 67.5826 287.988C70.5506 288.001 73.4951 288.51 76.2952 289.494C76.3258 289.501 76.3575 289.501 76.388 289.494C79.7134 290.74 82.9268 292.267 85.9931 294.059C91.4734 297.06 96.6524 299.852 103.372 299.852C110.081 299.852 115.26 297.025 120.752 294.059C123.814 292.278 127.019 290.755 130.334 289.506C130.376 289.51 130.419 289.51 130.461 289.506C133.259 288.531 136.199 288.026 139.162 288.011C146.427 288.011 152.093 291.104 157.573 294.105C163.053 297.106 168.232 299.898 174.952 299.898C176.116 299.898 177.278 299.809 178.428 299.632L178.428 297.176C177.281 297.379 176.118 297.484 174.952 297.489C168.8 297.465 163.911 294.766 158.674 291.927Z" fill="#001705"/>
<path d="M158.674 349.036C152.881 345.896 146.984 342.64 139.105 342.64C136.02 342.65 132.957 343.155 130.033 344.135C129.106 344.436 128.19 344.784 127.31 345.154L127.078 345.247L126.094 345.676L125.398 346L124.947 346.209L124.008 346.672L123.904 346.672C122.421 347.414 120.984 348.19 119.57 348.989C114.368 351.84 109.456 354.528 103.35 354.528C97.2437 354.528 92.3427 351.84 87.1289 348.989C85.6922 348.202 84.2439 347.414 82.7492 346.672L81.7414 346.174C81.6139 346.174 81.498 346.058 81.3705 346.012C81.2431 345.966 80.8608 345.768 80.6059 345.653C80.351 345.537 80.0266 345.398 79.737 345.27C79.4473 345.143 79.5052 345.178 79.3893 345.12C78.5088 344.761 77.6049 344.413 76.678 344.112C73.7577 343.131 70.6983 342.626 67.6175 342.617C59.7389 342.617 53.7953 345.873 48.0485 349.013C42.8463 351.863 37.9221 354.551 31.8277 354.551C25.7334 354.551 20.8208 351.863 15.607 349.013C10.8798 346.429 6.00207 343.764 0.0351556 342.907L0.0351557 345.363C5.45752 346.22 10.0108 348.711 14.4484 351.156C19.9287 354.157 25.1077 356.949 31.8277 356.949C38.5478 356.949 43.7152 354.111 49.2071 351.156C54.699 348.202 60.353 345.062 67.6175 345.062C70.5817 345.075 73.5228 345.584 76.3188 346.568C76.3612 346.563 76.404 346.563 76.4464 346.568C79.7639 347.806 82.9695 349.326 86.0282 351.11C91.5085 354.111 96.6876 356.903 103.408 356.903C110.116 356.903 115.295 354.064 120.787 351.11C123.836 349.334 127.03 347.819 130.334 346.58L130.508 346.51C133.302 345.535 136.238 345.03 139.197 345.015C146.462 345.015 152.128 348.12 157.608 351.11C163.088 354.099 168.267 356.903 174.987 356.903C176.151 356.897 177.312 356.808 178.463 356.636L178.463 354.168C177.316 354.372 176.153 354.476 174.987 354.481C168.8 354.574 163.911 351.886 158.674 349.036Z" fill="#001705"/>
<path d="M166.818 12.9194C169.423 13.8411 172.166 14.315 174.929 14.3213C181.649 14.3213 186.828 11.4827 192.308 8.52817C197.788 5.57367 203.454 2.43379 210.719 2.43379C217.983 2.43379 223.649 5.53891 229.129 8.52816C234.61 11.5174 239.789 14.3213 246.509 14.3213C253.229 14.3213 258.408 11.4827 263.888 8.52816C269.368 5.57367 275.034 2.43379 282.298 2.43379C289.563 2.43379 295.229 5.53891 300.709 8.52816C306.189 11.5174 311.368 14.3213 318.088 14.3213C324.808 14.3213 329.976 11.4827 335.468 8.52816C340.96 5.57367 346.614 2.43378 353.878 2.43378C361.143 2.43378 366.809 5.53891 372.289 8.52816C377.769 11.5174 382.948 14.3213 389.668 14.3213C396.388 14.3213 401.567 11.4826 407.048 8.52816C410.26 6.64754 413.638 5.06524 417.139 3.80102C417.388 3.72878 417.605 3.57538 417.756 3.3654C417.907 3.15542 417.983 2.90094 417.973 2.64239C417.971 2.51675 417.952 2.39193 417.915 2.27156C417.873 2.11582 417.798 1.97068 417.696 1.84556C417.594 1.72044 417.467 1.61811 417.323 1.54501C417.179 1.47192 417.021 1.42968 416.86 1.42112C416.698 1.41255 416.537 1.43779 416.386 1.49523C412.743 2.79955 409.228 4.44041 405.889 6.39633C400.675 9.24654 395.763 11.9344 389.668 11.9344C383.574 11.9344 378.661 9.24654 373.448 6.39633C367.654 3.25646 361.757 0.000700059 353.878 0.000700403C346 0.000700748 340.056 3.25646 334.309 6.39633C329.095 9.24655 324.183 11.9344 318.088 11.9344C311.994 11.9344 307.081 9.24655 301.868 6.39633C296.075 3.25646 290.177 0.000703188 282.298 0.000703532C274.42 0.000703877 268.476 3.25646 262.729 6.39633C257.527 9.24655 252.603 11.9345 246.509 11.9345C240.414 11.9345 235.502 9.24655 230.288 6.39633C224.495 3.25646 218.597 0.000706317 210.719 0.000706661C202.84 0.000707005 196.896 3.25646 191.149 6.39634C185.947 9.24655 181.023 11.9345 174.929 11.9345C173.425 11.9278 171.926 11.7648 170.456 11.4479C169.217 11.8998 168.012 12.4096 166.818 12.9194Z" fill="#001705"/>
<path d="M158.673 406.144C152.88 403.005 146.982 399.761 139.104 399.761C136.02 399.767 132.957 400.267 130.032 401.244C129.105 401.556 128.189 401.892 127.297 402.263C127.23 402.299 127.16 402.33 127.089 402.356C126.753 402.507 126.417 402.646 126.092 402.796C125.768 402.947 125.629 403.005 125.397 403.12L124.945 403.329C124.633 403.48 124.32 403.63 124.007 403.793L123.903 403.793C122.419 404.534 120.983 405.322 119.569 406.11C114.367 408.948 109.454 411.636 103.349 411.636C97.2426 411.636 92.3416 408.948 87.1278 406.098C85.7027 405.322 84.2428 404.534 82.7481 403.781C82.4121 403.607 82.0763 403.445 81.7403 403.283L81.3694 403.109L80.6049 402.75L79.7243 402.368L79.3998 402.228C78.5077 401.858 77.6039 401.522 76.677 401.209C73.7516 400.233 70.6887 399.732 67.6048 399.726C59.7262 399.726 53.7826 402.97 48.0358 406.121C42.822 408.96 37.9094 411.648 31.8151 411.648C25.7207 411.648 20.8081 408.96 15.5943 406.11C10.8671 403.526 5.98938 400.873 0.0224603 400.015L0.0224604 402.46C5.44482 403.318 9.99815 405.809 14.4357 408.253C19.3598 410.941 24.0291 413.49 29.7759 413.988L33.8426 413.988C39.6358 413.49 44.2703 410.941 49.1828 408.253C54.6631 405.252 60.3289 402.159 67.5935 402.159C70.5533 402.167 73.4908 402.672 76.2832 403.654C76.3411 403.654 76.3874 403.654 76.4453 403.654C79.7536 404.901 82.951 406.424 86.0039 408.207C90.9165 410.895 95.5973 413.444 101.344 413.942L105.423 413.942C111.216 413.444 115.85 410.895 120.763 408.207C123.812 406.428 127.005 404.908 130.31 403.665C130.368 403.66 130.426 403.66 130.483 403.665C133.276 402.685 136.213 402.18 139.173 402.17C146.438 402.17 152.103 405.264 157.584 408.265C162.496 410.953 167.177 413.502 172.924 414L176.991 414C177.489 414 177.987 413.896 178.474 413.826L178.474 411.37C177.326 411.569 176.163 411.67 174.998 411.671C168.799 411.683 163.91 408.995 158.673 406.144Z" fill="#001705"/>
<path d="M158.674 263.367C152.881 260.227 146.984 256.971 139.105 256.971C136.02 256.981 132.957 257.486 130.033 258.466C129.106 258.767 128.19 259.115 127.298 259.486L127.09 259.578C126.754 259.717 126.418 259.868 126.094 260.007L125.398 260.331C125.248 260.401 125.097 260.47 124.947 260.552L124.008 261.003L123.904 261.003C122.421 261.745 120.984 262.521 119.57 263.321C114.368 266.171 109.456 268.859 103.35 268.859C97.2437 268.859 92.3427 266.171 87.1289 263.321C85.7038 262.544 84.2439 261.745 82.7492 261.003L81.7414 260.517C81.6139 260.447 81.4864 260.389 81.3705 260.331L80.6059 259.984C80.3047 259.845 80.015 259.717 79.7138 259.59C79.6095 259.59 79.5052 259.497 79.4009 259.462C78.5204 259.092 77.6049 258.744 76.678 258.443C73.7534 257.463 70.6904 256.958 67.6059 256.948C59.7273 256.948 53.7837 260.204 48.0369 263.344C42.8347 266.194 37.9105 268.882 31.8161 268.882C25.7218 268.882 20.8092 266.194 15.5954 263.344C10.9609 260.772 6.05982 258.13 0.139247 257.261L0.0815425 259.706C5.48073 260.575 10.0224 263.054 14.4368 265.499C19.9171 268.5 25.0961 271.292 31.8161 271.292C38.5362 271.292 43.7036 268.453 49.1955 265.499C54.6874 262.544 60.3414 259.404 67.6059 259.404C70.5652 259.418 73.5017 259.923 76.2956 260.899C76.3496 260.904 76.404 260.904 76.458 260.899C79.7659 262.142 82.9634 263.662 86.0166 265.441C91.4969 268.442 96.676 271.234 103.396 271.234C110.104 271.234 115.283 268.395 120.775 265.441C123.823 263.67 127.013 262.155 130.311 260.911L130.508 260.841C133.298 259.866 136.23 259.361 139.186 259.346C146.45 259.346 152.116 262.452 157.596 265.441C163.077 268.43 168.256 271.234 174.976 271.234C176.139 271.228 177.301 271.139 178.452 270.968L178.452 268.5C177.304 268.703 176.141 268.808 174.976 268.813C168.8 268.905 163.911 266.217 158.674 263.367Z" fill="#001705"/>
<path d="M158.674 377.596C152.881 374.456 146.984 371.201 139.105 371.201C136.021 371.207 132.958 371.707 130.033 372.683C129.106 372.985 128.19 373.332 127.298 373.703C127.229 373.703 127.159 373.761 127.078 373.796C126.754 373.935 126.418 374.074 126.094 374.225C125.769 374.375 125.63 374.433 125.398 374.549L124.947 374.757C124.634 374.908 124.321 375.059 124.008 375.221L123.904 375.221C122.421 375.962 120.984 376.75 119.57 377.538C114.368 380.377 109.456 383.065 103.35 383.076C97.2437 383.088 92.3427 380.377 87.1289 377.527C85.6922 376.75 84.2439 375.962 82.7492 375.209C82.4132 375.036 82.0774 374.873 81.7414 374.711L81.3705 374.537C81.1156 374.422 80.8608 374.294 80.5943 374.178C80.3279 374.062 80.0266 373.923 79.737 373.807C79.4473 373.692 79.5052 373.703 79.4009 373.657C78.5088 373.286 77.6049 372.95 76.678 372.649C73.757 371.672 70.6977 371.171 67.6175 371.166C59.7389 371.166 53.7953 374.422 48.0485 377.561C42.8463 380.4 37.9221 383.088 31.8277 383.088C25.7334 383.088 20.8208 380.4 15.607 377.561C10.8798 374.966 6.00207 372.313 0.0351556 371.455L0.0351557 373.9C5.45752 374.769 10.0108 377.26 14.4484 379.693C19.9287 382.694 25.1077 385.486 31.8277 385.486C38.5478 385.486 43.7152 382.659 49.2071 379.693C54.699 376.727 60.353 373.599 67.6175 373.599C70.5768 373.613 73.5133 374.118 76.3072 375.093C76.3651 375.093 76.4116 375.093 76.458 375.093C79.7707 376.334 82.9723 377.853 86.0282 379.635C91.5085 382.636 96.6876 385.428 103.408 385.428C110.116 385.428 115.295 382.601 120.787 379.635C123.832 377.86 127.022 376.344 130.322 375.105L130.519 375.036C133.308 374.055 136.241 373.55 139.197 373.541C146.462 373.541 152.128 376.634 157.608 379.635C163.088 382.636 168.267 385.428 174.987 385.428C176.151 385.428 177.313 385.339 178.463 385.162L178.463 382.706C177.316 382.909 176.153 383.014 174.987 383.018C168.8 383.134 163.911 380.435 158.674 377.596Z" fill="#001705"/>
<path d="M49.1139 151.27C54.5942 148.269 60.2601 145.176 67.5246 145.176C70.4881 145.185 73.4292 145.69 76.2259 146.67C76.2645 146.668 76.303 146.668 76.3416 146.67C79.6631 147.912 82.8726 149.436 85.9351 151.224C91.4154 154.225 96.5944 157.017 103.314 157.017C110.023 157.017 115.202 154.19 120.694 151.224C123.739 149.444 126.929 147.925 130.229 146.682C130.293 146.657 130.359 146.638 130.426 146.624C133.215 145.643 136.148 145.137 139.104 145.129C146.369 145.129 152.035 148.223 157.515 151.224C162.995 154.225 168.174 157.017 174.894 157.017C181.614 157.017 186.793 154.19 192.274 151.224C197.754 148.258 203.42 145.129 210.684 145.129C217.949 145.129 223.614 148.223 229.095 151.224C234.575 154.225 239.754 157.017 246.474 157.017C253.194 157.017 258.373 154.19 263.854 151.224C269.334 148.258 274.999 145.129 282.264 145.129C289.529 145.129 295.194 148.223 300.675 151.224C306.155 154.225 311.334 157.017 318.054 157.017C324.774 157.017 329.941 154.19 335.433 151.224C340.925 148.258 346.579 145.129 353.844 145.129C361.108 145.129 366.774 148.223 372.254 151.224C377.734 154.225 382.914 157.017 389.634 157.017C396.354 157.017 401.533 154.19 407.013 151.224C410.22 149.334 413.599 147.751 417.105 146.496C417.347 146.414 417.558 146.259 417.708 146.051C417.857 145.843 417.938 145.594 417.939 145.338C417.937 145.208 417.917 145.08 417.881 144.956C417.839 144.8 417.763 144.655 417.661 144.53C417.559 144.404 417.432 144.302 417.288 144.229C417.144 144.156 416.986 144.114 416.825 144.105C416.664 144.097 416.502 144.122 416.352 144.179C412.706 145.483 409.191 147.127 405.854 149.092C400.641 151.93 395.728 154.618 389.634 154.618C383.539 154.618 378.627 151.93 373.413 149.08C367.62 145.94 361.722 142.696 353.844 142.696C345.965 142.696 340.022 145.94 334.263 149.092C329.061 151.93 324.148 154.618 318.042 154.618C311.936 154.618 307.035 151.93 301.822 149.08C296.029 145.94 290.131 142.696 282.252 142.696C274.374 142.696 268.43 145.94 262.683 149.08C257.481 151.93 252.557 154.618 246.463 154.618C240.368 154.618 235.456 151.93 230.242 149.08C224.449 145.94 218.551 142.696 210.673 142.696C202.794 142.696 196.85 145.94 191.103 149.092C185.901 151.93 180.977 154.618 174.883 154.618C168.788 154.618 163.876 151.93 158.662 149.08C152.869 145.94 146.972 142.696 139.093 142.696C136.009 142.702 132.946 143.203 130.021 144.179C129.094 144.492 128.178 144.828 127.286 145.199L127.066 145.303C126.742 145.442 126.406 145.581 126.082 145.732C125.757 145.882 125.618 145.94 125.386 146.056L124.935 146.265C124.622 146.415 124.309 146.566 123.996 146.728L123.892 146.728C122.409 147.47 120.972 148.258 119.558 149.046C114.356 151.884 109.444 154.572 103.338 154.572C97.2317 154.572 92.3307 151.884 87.1169 149.034C85.6918 148.258 84.2435 147.47 82.7488 146.717L81.7642 146.23C81.6251 146.23 81.4976 146.102 81.3586 146.045L80.6172 145.697C80.3159 145.558 80.003 145.431 79.6902 145.292L79.4121 145.176C78.52 144.805 77.6161 144.469 76.6777 144.156C73.7524 143.18 70.6894 142.679 67.6055 142.673C59.7269 142.673 53.7833 145.917 48.0365 149.069C42.8227 151.907 37.9101 154.595 31.8158 154.595C29.1297 154.574 26.4692 154.072 23.9602 153.112L22.9756 155.337C25.7949 156.432 28.7911 157.002 31.8158 157.017C38.4547 157.098 43.6336 154.271 49.1139 151.27Z" fill="#001705"/>
<path d="M158.673 206.259C152.88 203.119 146.983 199.863 139.104 199.863C136.024 199.868 132.965 200.369 130.044 201.346L129.986 201.346C129.059 201.647 128.155 201.983 127.263 202.354L126.95 202.493C126.649 202.621 126.359 202.748 126.058 202.887C125.757 203.026 125.56 203.107 125.316 203.223L124.911 203.42C124.587 203.571 124.262 203.733 123.938 203.895L123.88 203.895C122.397 204.648 120.948 205.436 119.523 206.212C114.321 209.051 109.408 211.739 103.302 211.751C97.1965 211.762 92.2956 209.051 87.0818 206.212C85.6566 205.424 84.2083 204.637 82.7137 203.895L81.7175 203.408L81.3234 203.223C81.0801 203.107 80.8369 202.991 80.582 202.887L79.6435 202.47C79.5526 202.436 79.4637 202.398 79.377 202.354C78.4849 201.983 77.581 201.647 76.6425 201.346C73.7172 200.37 70.6545 199.869 67.5707 199.863C59.6921 199.863 53.7482 203.119 48.0014 206.259C42.7992 209.109 37.875 211.797 31.7806 211.797C25.6863 211.797 20.7737 209.109 15.5599 206.259C12.8992 204.733 10.1483 203.371 7.32223 202.18L6.76611 204.567C9.37875 205.698 11.9275 206.97 14.4013 208.379C19.8816 211.38 25.0606 214.172 31.7806 214.172C38.5007 214.172 43.6681 211.345 49.16 208.379C54.6519 205.413 60.3061 202.284 67.5707 202.284C70.5337 202.3 73.4738 202.805 76.272 203.779C76.3105 203.784 76.3492 203.784 76.3877 203.779C79.7071 205.026 82.9162 206.549 85.9811 208.332C91.4614 211.333 96.6405 214.126 103.36 214.126C110.069 214.126 115.248 211.299 120.74 208.332C123.793 206.553 126.991 205.034 130.298 203.791C130.298 203.791 130.403 203.791 130.461 203.791C133.255 202.816 136.191 202.311 139.15 202.296C146.415 202.296 152.081 205.39 157.561 208.39C163.041 211.391 168.22 214.184 174.94 214.184C176.104 214.183 177.266 214.094 178.416 213.917L178.416 211.461C177.269 211.664 176.106 211.769 174.94 211.774C168.8 211.797 163.91 209.097 158.673 206.259Z" fill="#001705"/>
<path d="M174.882 183.237C168.799 183.237 163.875 180.549 158.661 177.698C152.868 174.558 146.971 171.303 139.092 171.303C136.012 171.312 132.952 171.816 130.032 172.797L129.974 172.797C129.035 173.11 128.132 173.446 127.251 173.817L127.019 173.91C126.683 174.049 126.359 174.199 126.035 174.338L125.339 174.663C125.189 174.732 125.038 174.802 124.888 174.883C124.737 174.964 124.262 175.184 123.961 175.335L123.845 175.393C122.362 176.134 120.925 176.91 119.511 177.71C114.309 180.56 109.397 183.248 103.291 183.248C97.1848 183.248 92.2838 180.56 87.07 177.71C85.6449 176.934 84.1966 176.146 82.702 175.393C82.3775 175.219 82.0417 175.057 81.7057 174.906C81.5782 174.836 81.4507 174.779 81.3233 174.721L80.5703 174.373C80.2806 174.234 79.9793 174.107 79.6781 173.979C79.5738 173.979 79.4695 173.886 79.3652 173.852C78.4731 173.481 77.5693 173.133 76.6424 172.832C73.7177 171.852 70.655 171.348 67.5705 171.337C59.6919 171.337 53.748 174.593 48.0012 177.733C42.799 180.583 37.8748 183.271 31.7805 183.271C25.6861 183.271 20.7735 180.583 15.5597 177.733L14.5171 177.165L13.729 179.483C13.9607 179.598 14.181 179.726 14.4011 179.842C19.8814 182.843 25.0604 185.635 31.7805 185.635C38.5005 185.635 43.668 182.796 49.1598 179.842C54.6517 176.887 60.306 173.747 67.5705 173.747C70.5384 173.761 73.4833 174.27 76.2834 175.254L76.3759 175.254C79.6991 176.501 82.912 178.024 85.981 179.807C91.4613 182.808 96.6403 185.6 103.36 185.6C110.069 185.6 115.248 182.761 120.74 179.807C123.798 178.023 127.004 176.504 130.322 175.265C130.364 175.26 130.407 175.26 130.449 175.265C133.245 174.281 136.186 173.772 139.15 173.759C146.415 173.759 152.081 176.864 157.561 179.853C163.041 182.843 168.22 185.646 174.94 185.646C176.104 185.64 177.265 185.551 178.416 185.38L178.416 182.912C177.25 183.123 176.067 183.231 174.882 183.237Z" fill="#001705"/>
<path d="M67.5241 116.616C70.4834 116.63 73.4199 117.135 76.2138 118.11C76.2718 118.11 76.318 118.11 76.3643 118.11C79.6781 119.349 82.8798 120.868 85.9346 122.652C91.4148 125.653 96.5939 128.445 103.314 128.445C110.022 128.445 115.201 125.618 120.693 122.652C123.736 120.872 126.926 119.356 130.229 118.122L130.426 118.052C133.214 117.071 136.148 116.566 139.104 116.558C146.369 116.558 152.034 119.651 157.514 122.652C162.995 125.653 168.174 128.445 174.894 128.445C181.614 128.445 186.793 125.618 192.273 122.652C197.753 119.686 203.419 116.558 210.684 116.558C217.948 116.558 223.614 119.651 229.094 122.652C234.575 125.653 239.754 128.445 246.474 128.445C253.194 128.445 258.373 125.618 263.853 122.652C269.333 119.686 274.999 116.558 282.263 116.558C289.528 116.558 295.194 119.651 300.674 122.652C306.154 125.653 311.333 128.445 318.053 128.445C324.773 128.445 329.941 125.618 335.433 122.652C340.925 119.686 346.579 116.558 353.843 116.558C361.108 116.558 366.773 119.651 372.254 122.652C377.734 125.653 382.913 128.445 389.633 128.445C396.353 128.445 401.532 125.618 407.012 122.652C410.222 120.767 413.601 119.184 417.104 117.925C417.352 117.853 417.57 117.699 417.721 117.489C417.872 117.279 417.949 117.025 417.938 116.766C417.936 116.637 417.917 116.508 417.881 116.384C417.837 116.229 417.76 116.085 417.658 115.962C417.555 115.838 417.428 115.737 417.284 115.665C417.141 115.593 416.983 115.552 416.822 115.544C416.662 115.536 416.501 115.562 416.351 115.619C412.705 116.918 409.191 118.56 405.854 120.52C400.64 123.359 395.727 126.058 389.633 126.058C383.539 126.058 378.626 123.359 373.412 120.52C367.619 117.38 361.722 114.125 353.843 114.125C345.965 114.125 340.021 117.38 334.263 120.52C329.06 123.371 324.148 126.058 318.042 126.058C311.936 126.058 307.047 123.371 301.821 120.52C296.028 117.38 290.13 114.125 282.252 114.125C274.373 114.125 268.43 117.38 262.683 120.52C257.481 123.359 252.556 126.047 246.462 126.058C240.368 126.07 235.455 123.359 230.241 120.52C224.448 117.38 218.551 114.125 210.672 114.125C202.794 114.125 196.85 117.38 191.103 120.52C185.901 123.359 180.977 126.058 174.882 126.058C168.788 126.058 163.875 123.359 158.661 120.52C152.868 117.38 146.971 114.125 139.092 114.125C136.009 114.131 132.946 114.632 130.02 115.608C129.093 115.909 128.178 116.256 127.286 116.627C127.216 116.627 127.147 116.627 127.066 116.72C126.741 116.859 126.405 116.998 126.081 117.149L125.386 117.473L124.934 117.682C124.621 117.832 124.308 117.983 123.995 118.145L123.891 118.145C122.408 118.887 120.971 119.675 119.558 120.462C114.356 123.301 109.443 125.989 103.337 126.001C97.2312 126.012 92.3302 123.301 87.1164 120.451C85.6913 119.674 84.243 118.887 82.7483 118.134L81.7521 117.647L81.3696 117.473C81.1147 117.346 80.8715 117.23 80.6166 117.126C80.3618 117.021 80.0141 116.859 79.7129 116.732L79.4116 116.593C78.5195 116.222 77.6156 115.886 76.6888 115.585C73.7634 114.609 70.7005 114.108 67.6166 114.102C59.738 114.102 53.7944 117.357 48.0476 120.497C45.064 122.248 41.9264 123.721 38.6742 124.9L36.9131 127.889C41.3274 126.916 45.1858 124.819 49.2062 122.617C54.5938 119.709 60.2596 116.616 67.5241 116.616Z" fill="#001705"/>
<path d="M67.5243 88.0559C69.2604 88.0571 70.9918 88.2356 72.6917 88.5888C73.8887 88.8394 75.069 89.1644 76.2255 89.562C76.2718 89.557 76.3182 89.557 76.3644 89.562C79.6761 90.8051 82.8775 92.3244 85.9347 94.1038C87.3019 94.857 88.6575 95.5985 90.0247 96.2821C94.0903 98.5662 98.6522 99.823 103.314 99.9434C110.022 99.9434 115.202 97.1047 120.693 94.1502C123.744 92.3769 126.937 90.8615 130.24 89.62L130.414 89.5504C133.209 88.5756 136.145 88.0707 139.104 88.0559C146.369 88.0559 152.034 91.161 157.515 94.1502C162.995 97.1395 168.174 99.9434 174.894 99.9434C181.614 99.9434 186.781 97.1047 192.273 94.1502C197.765 91.1957 203.419 88.0559 210.684 88.0559C217.949 88.0559 223.614 91.161 229.094 94.1502C234.575 97.1395 239.754 99.9434 246.474 99.9434C253.194 99.9434 258.373 97.1047 263.853 94.1502C269.333 91.1957 274.999 88.0559 282.264 88.0559C289.528 88.0559 295.194 91.161 300.674 94.1502C306.155 97.1395 311.334 99.9433 318.054 99.9433C324.774 99.9433 329.953 97.1047 335.433 94.1502C340.913 91.1957 346.579 88.0558 353.843 88.0558C361.108 88.0558 366.774 91.161 372.254 94.1502C377.734 97.1395 382.913 99.9433 389.633 99.9433C396.353 99.9433 401.532 97.1047 407.013 94.1502C410.225 92.2696 413.603 90.6872 417.104 89.4229C417.353 89.3507 417.57 89.1974 417.721 88.9875C417.873 88.7775 417.949 88.5229 417.939 88.2643C417.936 88.1387 417.917 88.014 417.881 87.8936C417.838 87.7379 417.763 87.5927 417.661 87.4676C417.559 87.3425 417.432 87.2402 417.288 87.1671C417.144 87.094 416.986 87.0517 416.825 87.0432C416.663 87.0346 416.502 87.0599 416.351 87.1173C412.708 88.4216 409.193 90.0623 405.854 92.0183C400.64 94.8685 395.728 97.5565 389.633 97.5565C383.539 97.5565 378.626 94.8685 373.412 92.0183C367.619 88.8784 361.722 85.6228 353.843 85.6228C345.965 85.6228 340.021 88.8784 334.274 92.0183C329.061 94.8685 324.148 97.5565 318.054 97.5565C311.959 97.5565 307.047 94.8685 301.833 92.0183C296.04 88.8784 290.142 85.6228 282.264 85.6228C274.385 85.6228 268.441 88.8784 262.695 92.0183C257.492 94.8685 252.568 97.5565 246.474 97.5565C240.379 97.5565 235.467 94.8685 230.253 92.0183C224.46 88.8784 218.563 85.6228 210.684 85.6228C202.805 85.6228 196.861 88.8784 191.115 92.0183C185.912 94.8685 180.988 97.5565 174.894 97.5565C168.8 97.5565 163.899 94.8685 158.673 92.0183C152.88 88.8784 146.983 85.6228 139.104 85.6228C136.023 85.6316 132.964 86.1362 130.044 87.1173L129.986 87.1173C129.059 87.4185 128.144 87.7661 127.263 88.1369C127.172 88.1706 127.083 88.2093 126.996 88.2527C126.683 88.3802 126.371 88.5193 126.046 88.6584C125.722 88.7974 125.571 88.8784 125.328 88.9943L124.911 89.1913C124.587 89.3419 124.262 89.5042 123.949 89.6664L123.868 89.6664C122.385 90.4079 120.937 91.1957 119.523 91.9836C117.565 93.0495 115.653 94.1039 113.73 94.9844C110.484 96.5888 106.923 97.4553 103.302 97.5217C97.2081 97.5217 92.2955 94.8338 87.0817 91.9836C85.3206 91.022 83.5364 90.0486 81.671 89.1565L81.3234 88.9943C81.0685 88.8668 80.8021 88.751 80.5356 88.6352C80.2691 88.5193 79.9795 88.3802 79.6898 88.2643C79.574 88.2643 79.458 88.16 79.3306 88.1021C78.45 87.7429 77.5462 87.3954 76.6193 87.0941C73.6989 86.113 70.6398 85.6085 67.5591 85.5996C67.4084 85.5996 67.2461 85.5996 67.0954 85.5996L64.9058 88.1601C65.3345 88.1601 65.7746 88.0674 66.2149 88.0443C66.6551 88.0211 67.0724 88.0559 67.5243 88.0559Z" fill="#001705"/>
<path d="M130.402 32.4421C133.201 31.4675 136.141 30.9625 139.104 30.9475C146.368 30.9475 152.034 34.041 157.514 37.0418C162.994 40.0427 168.173 42.835 174.894 42.835C181.614 42.835 186.793 40.0079 192.273 37.0418C197.753 34.0758 203.419 30.9475 210.684 30.9475C217.948 30.9475 223.614 34.041 229.094 37.0418C234.574 40.0427 239.753 42.835 246.473 42.835C253.193 42.835 258.372 40.0079 263.853 37.0418C269.333 34.0758 274.999 30.9475 282.263 30.9475C289.528 30.9475 295.194 34.041 300.674 37.0418C306.154 40.0427 311.333 42.835 318.053 42.835C324.773 42.835 329.941 40.0079 335.433 37.0418C340.924 34.0758 346.578 30.9475 353.843 30.9475C361.108 30.9475 366.773 34.041 372.253 37.0418C377.734 40.0427 382.913 42.8349 389.633 42.8349C396.353 42.8349 401.532 40.0079 407.012 37.0418C410.218 35.1566 413.593 33.5741 417.092 32.3147C417.341 32.2424 417.558 32.0891 417.709 31.8791C417.86 31.6691 417.937 31.4146 417.927 31.1561C417.925 31.0266 417.905 30.8979 417.869 30.7736C417.825 30.6189 417.749 30.4751 417.646 30.3513C417.544 30.2275 417.416 30.1264 417.272 30.0544C417.128 29.9825 416.971 29.9413 416.811 29.9335C416.65 29.9257 416.49 29.9514 416.339 30.009C412.693 31.3059 409.178 32.947 405.842 34.91C400.628 37.7602 395.716 40.4481 389.621 40.4481C383.527 40.4481 378.615 37.7486 373.401 34.91C367.608 31.7585 361.71 28.5144 353.831 28.5144C345.953 28.5144 340.009 31.7701 334.262 34.91C329.049 37.7602 324.136 40.4481 318.042 40.4481C311.947 40.4481 307.035 37.7602 301.821 34.91C296.028 31.7701 290.13 28.5144 282.252 28.5144C274.373 28.5144 268.429 31.7701 262.683 34.91C257.48 37.7486 252.556 40.4365 246.462 40.4481C240.367 40.4597 235.455 37.7486 230.241 34.91C224.448 31.7701 218.551 28.5144 210.672 28.5144C202.793 28.5144 196.849 31.7701 191.103 34.91C185.9 37.7486 180.976 40.4481 174.882 40.4481C168.788 40.4481 163.875 37.7602 158.661 34.91C152.868 31.7701 146.971 28.5144 139.092 28.5144C137.856 28.517 136.621 28.5982 135.396 28.7576C132.777 30.2986 130.194 31.8859 127.622 33.508C128.491 33.1372 129.371 32.7898 130.275 32.4769C130.318 32.4689 130.361 32.4572 130.402 32.4421Z" fill="#001705"/>
<path d="M86.1782 65.7289C91.5774 68.6833 96.6986 71.4293 103.314 71.4293C110.023 71.4293 115.202 68.6023 120.694 65.6362C123.756 63.8483 126.966 62.3249 130.287 61.0828C130.326 61.0808 130.365 61.0808 130.403 61.0828C133.2 60.1025 136.141 59.5973 139.104 59.5881C146.369 59.5881 152.035 62.6816 157.515 65.6825C162.995 68.6833 168.174 71.4756 174.894 71.4756C181.614 71.4756 186.793 68.6485 192.274 65.6825C197.754 62.7164 203.42 59.5881 210.684 59.5881C217.949 59.5881 223.614 62.6816 229.095 65.6825C234.575 68.6833 239.754 71.4756 246.474 71.4756C253.194 71.4756 258.373 68.6485 263.853 65.6825C269.334 62.7164 274.999 59.5881 282.264 59.5881C289.528 59.5881 295.194 62.6816 300.675 65.6825C306.155 68.6833 311.334 71.4756 318.054 71.4756C324.774 71.4756 329.941 68.6485 335.433 65.6825C340.925 62.7164 346.579 59.5881 353.844 59.5881C361.108 59.5881 366.774 62.6816 372.254 65.6825C377.734 68.6833 382.913 71.4756 389.633 71.4756C396.353 71.4756 401.533 68.6485 407.013 65.6824C410.219 63.801 413.594 62.2224 417.093 60.9669C417.336 60.8848 417.546 60.729 417.696 60.5213C417.845 60.3135 417.927 60.0643 417.928 59.8083C417.925 59.6788 417.905 59.5502 417.869 59.4258C417.827 59.2701 417.752 59.1251 417.65 59C417.548 58.8749 417.42 58.7724 417.276 58.6993C417.132 58.6262 416.975 58.5841 416.814 58.5755C416.652 58.567 416.491 58.5922 416.34 58.6497C412.695 59.9553 409.181 61.6 405.843 63.5622C400.629 66.4008 395.717 69.0889 389.622 69.0889C383.528 69.0889 378.615 66.4008 373.401 63.5506C367.608 60.4108 361.711 57.1666 353.832 57.1666C345.953 57.1666 340.01 60.4108 334.263 63.5622C329.049 66.4009 324.137 69.0889 318.042 69.0889C311.948 69.0889 307.035 66.4008 301.822 63.5506C296.028 60.4108 290.131 57.1666 282.252 57.1666C274.374 57.1666 268.43 60.4108 262.683 63.5506C257.481 66.4008 252.557 69.0889 246.462 69.0889C240.368 69.0889 235.456 66.4008 230.242 63.5506C224.449 60.4108 218.551 57.1666 210.673 57.1666C202.794 57.1666 196.85 60.4108 191.103 63.5622C185.901 66.4009 180.977 69.0889 174.883 69.0889C168.788 69.0889 163.887 66.4008 158.662 63.5506C152.869 60.4108 146.971 57.1666 139.093 57.1666C136.009 57.1729 132.946 57.6736 130.021 58.6497C129.094 58.9625 128.178 59.2985 127.298 59.6693L127.055 59.7735C126.73 59.9125 126.406 60.0516 126.081 60.2022C125.757 60.3528 125.606 60.4108 125.375 60.5266L124.934 60.7351C124.622 60.8857 124.297 61.0364 123.984 61.1986L123.903 61.1986C122.42 61.9401 120.972 62.728 119.558 63.5158C114.356 66.3545 109.443 69.0425 103.338 69.0425C97.6139 69.0425 92.91 66.7253 88.0669 64.0257L86.1782 65.7289Z" fill="#001705"/>
<path d="M158.673 234.807C152.88 231.667 146.983 228.423 139.104 228.423C136.021 228.429 132.958 228.93 130.032 229.906C129.105 230.219 128.19 230.555 127.309 230.926L127.055 231.03C126.73 231.169 126.417 231.308 126.093 231.459C125.769 231.609 125.618 231.667 125.386 231.783L124.946 231.992C124.633 232.142 124.32 232.293 124.007 232.455L123.915 232.455C122.432 233.197 120.983 233.985 119.57 234.772C114.368 237.611 109.455 240.299 103.349 240.299C97.2432 240.299 92.3422 237.611 87.1284 234.761C85.3673 233.799 83.5831 232.826 81.7177 231.934C81.6018 231.934 81.4859 231.829 81.37 231.771C81.2542 231.714 80.8487 231.528 80.5823 231.412C80.3158 231.297 80.0146 231.157 79.7365 231.042C79.4584 230.926 79.5047 230.937 79.3772 230.891C78.4967 230.52 77.5929 230.184 76.666 229.871C73.7407 228.895 70.678 228.395 67.5941 228.388C59.7155 228.388 53.7716 231.633 48.0248 234.784C42.8226 237.623 37.8984 240.311 31.8041 240.311C25.7097 240.311 20.7971 237.623 15.5833 234.772C11.4934 232.536 7.31087 230.254 2.3983 229.118C2.28244 229.929 2.17814 230.729 2.08545 231.54C6.41811 232.773 10.5675 234.577 14.4247 236.904C19.905 239.905 25.084 242.697 31.8041 242.697C38.5241 242.697 43.6915 239.87 49.1834 236.904C54.6753 233.938 60.3295 230.81 67.5941 230.81C70.5576 230.819 73.4984 231.324 76.2951 232.305C76.2951 232.305 76.3763 232.305 76.4227 232.305C79.7384 233.552 82.9436 235.075 86.0045 236.858C91.4848 239.859 96.6639 242.651 103.384 242.651C110.092 242.651 115.271 239.824 120.763 236.858C123.814 235.081 127.007 233.562 130.31 232.316C130.368 232.311 130.426 232.311 130.484 232.316C133.277 231.336 136.214 230.831 139.174 230.821C146.438 230.821 152.104 233.915 157.584 236.916C163.065 239.917 168.244 242.709 174.964 242.709C176.127 242.708 177.289 242.619 178.44 242.443L178.44 239.986C177.292 240.186 176.129 240.286 174.964 240.287C168.8 240.38 163.91 237.657 158.673 234.807Z" fill="#001705"/>
</g>
</svg>
