<svg width="90" height="144" viewBox="0 0 90 144" fill="none" xmlns="http://www.w3.org/2000/svg">
<path d="M15.5765 67.1564C18.1016 64.6313 18.9752 61.6412 19.9227 58.4641C20.8701 55.2871 21.7741 52.1449 24.4165 49.5024C25.3535 48.5702 26.4225 47.7809 27.5892 47.1599C27.6743 47.1484 27.7567 47.1219 27.8326 47.0816C29.5822 46.26 31.4036 45.6009 33.2739 45.1129C36.4423 44.1871 39.4324 43.3092 41.9662 40.7667L42.0183 40.7146C42.0183 40.6929 42.0574 40.6798 42.0748 40.6581C44.5999 38.1373 45.4735 35.1472 46.4209 31.9658C47.3249 28.8844 48.2593 25.6944 50.8627 23.0606C53.466 20.4269 56.6865 19.5185 59.7722 18.6146L60.7588 18.3234L60.7588 16.4328L59.3898 16.8413C56.0737 17.8105 52.6446 18.8145 49.6849 21.7742L49.6327 21.8307L49.5806 21.8828C46.6209 24.8382 45.6169 28.2673 44.6434 31.5877C43.7742 34.5127 42.9789 37.2725 40.8058 39.4759C38.6327 41.6794 35.8425 42.4574 32.9176 43.3136C29.6015 44.2828 26.1724 45.2867 23.2127 48.2464C20.2529 51.2061 19.249 54.6352 18.2798 57.9513C17.4106 60.898 16.6022 63.6838 14.3683 65.896C12.1344 68.1082 9.3746 68.9383 6.42358 69.8075C5.05021 70.2074 3.65514 70.6202 2.28177 71.1722C2.41216 71.7459 2.54686 72.3196 2.68593 72.8889C4.06737 72.3377 5.47927 71.8661 6.9147 71.4764C10.0743 70.5464 13.0688 69.6728 15.5765 67.1564Z" fill="#FFC844"/>
<path d="M1.58626 13.421C4.75459 12.4953 7.74472 11.6173 10.2785 9.07487L10.3307 9.01838L10.3872 8.96622C12.9123 6.44112 13.7858 3.45099 14.7333 0.273975C14.7333 0.191399 14.7811 0.108832 14.8071 0.0262566L12.9166 0.0262564C12.0734 2.89904 11.2564 5.61102 9.11807 7.78408C6.97978 9.95714 4.15479 10.7612 1.22985 11.6217L0.0259697 11.9781L0.0259695 13.8687L1.58626 13.421Z" fill="#FFC844"/>
<path d="M17.4713 82.0376C20.6396 81.1075 23.6297 80.234 26.1635 77.6915C28.6973 75.149 29.5665 72.1719 30.5096 68.9992C31.4527 65.8266 32.3611 62.68 35.0035 60.0332C35.9411 59.101 37.0118 58.3131 38.1805 57.695C38.2633 57.6795 38.3437 57.6532 38.4196 57.6168C40.1699 56.7932 41.9929 56.1341 43.8652 55.648C47.0292 54.7179 50.0194 53.8443 52.5575 51.3018L52.6096 51.2454L52.6661 51.1932C55.1912 48.6681 56.0692 45.678 57.0123 42.5009C57.8337 39.6934 58.6855 36.8075 60.7891 34.3259L60.7891 31.8225C60.6181 31.979 60.4486 32.1398 60.2806 32.305L60.2284 32.3615L60.1719 32.4136C57.2122 35.3733 56.2082 38.8024 55.2347 42.1228C54.3655 45.0434 53.5702 47.8076 51.4015 50.0067C49.2327 52.2058 46.4382 52.9881 43.5132 53.8443C40.1971 54.8135 36.7637 55.8218 33.8083 58.7772C30.853 61.7325 29.8447 65.166 28.8711 68.4821C28.0019 71.4331 27.1935 74.2146 24.9596 76.4268C22.7257 78.6389 19.9659 79.4691 17.0193 80.3165C13.7032 81.2901 10.2697 82.294 7.31438 85.2494C7.16227 85.4015 7.02319 85.5536 6.87977 85.684C7.12315 86.2838 7.37087 86.8835 7.62729 87.4746C7.91365 87.1214 8.21834 86.7834 8.54002 86.462C11.152 83.8891 14.3638 82.9459 17.4713 82.0376Z" fill="#FFC844"/>
<path d="M22.3305 32.7696C19.0145 33.7431 15.5853 34.7471 12.6256 37.7068C9.66591 40.6665 8.66197 44.0956 7.69278 47.4117C6.82356 50.3583 6.01086 53.1399 3.80303 55.352C2.78077 56.3542 1.58309 57.16 0.269631 57.7294C0.317436 58.3422 0.373932 58.9506 0.430435 59.5591C2.14929 58.889 3.71376 57.8761 5.02861 56.582C7.55805 54.0569 8.43162 51.0668 9.37473 47.8898C10.3178 44.7127 11.2262 41.5705 13.873 38.9237C14.811 37.994 15.8799 37.2063 17.0456 36.5855C17.1298 36.57 17.2116 36.5437 17.289 36.5073C19.0378 35.6837 20.8595 35.0246 22.7303 34.5385C25.8987 33.6084 28.8888 32.7348 31.4226 30.1924L31.4747 30.1359L31.5269 30.0837C34.052 27.5586 34.9299 24.5685 35.873 21.3915C36.777 18.3057 37.7158 15.12 40.3148 12.4863C42.9138 9.85251 46.1429 8.94417 49.2287 8.04018C52.397 7.11011 55.3871 6.23655 57.9209 3.69406L57.9731 3.63756L58.0296 3.58541C59.0665 2.54136 59.9188 1.32898 60.5503 -0.000137329L58.5293 -0.000137506C58.0465 0.880115 57.4455 1.69019 56.7431 2.4076C54.5396 4.58066 51.7798 5.38905 48.8549 6.24523C45.5388 7.21876 42.1097 8.22271 39.15 11.1824L39.0979 11.2346L39.0414 11.2867C36.0816 14.2464 35.0777 17.6755 34.1085 20.996C33.2393 23.9166 32.4396 26.6807 30.2709 28.8798C28.1022 31.079 25.2555 31.9134 22.3305 32.7696Z" fill="#FFC844"/>
<path d="M2.06461 27.1412C1.28386 27.9234 0.591557 28.7891 0.000206336 29.7228L0.000205994 33.6343C0.710529 31.6674 1.83212 29.8746 3.2902 28.3755C4.22771 27.442 5.29836 26.6526 6.46724 26.0329C6.5503 26.021 6.63093 25.996 6.70624 25.959C8.45524 25.1348 10.2768 24.4743 12.1476 23.9859C15.3159 23.0602 18.306 22.1823 20.8398 19.6398L20.892 19.5833L20.9485 19.5311C23.4736 17.006 24.3515 14.0159 25.2946 10.8389C26.1986 7.75314 27.133 4.56308 29.7363 1.92933C30.4764 1.19963 31.3008 0.5606 32.1919 0.0257301L29.2235 0.0257299C29.0019 0.221306 28.7889 0.425564 28.5629 0.642872C28.5444 0.660602 28.5269 0.679474 28.5107 0.699375L28.4542 0.751526C25.4945 3.71123 24.4906 7.14033 23.5171 10.4564C22.6478 13.3814 21.8525 16.1411 19.6837 18.3446C17.515 20.5481 14.7205 21.3261 11.7956 22.1822C8.44907 23.1775 5.01998 24.1858 2.06461 27.1412Z" fill="#FFC844"/>
<path d="M78.9692 130.523C81.4943 127.998 82.3722 125.003 83.3153 121.83C84.2584 118.658 85.1668 115.507 87.8092 112.864C88.7467 111.931 89.8174 111.141 90.9863 110.522C91.0693 110.51 91.15 110.485 91.2253 110.448C92.9743 109.624 94.7958 108.963 96.6666 108.475C99.8349 107.549 102.825 106.675 105.359 104.129L105.415 104.068L105.467 104.02C107.993 101.495 108.871 98.5047 109.814 95.3277C110.718 92.242 111.652 89.0519 114.255 86.4182C115.713 85.0157 117.444 83.9283 119.34 83.2238L115.429 83.2238C114.589 83.7802 113.807 84.4194 113.095 85.1317C113.095 85.1317 113.06 85.1708 113.038 85.1882L112.986 85.2404C110.027 88.2001 109.023 91.6292 108.049 94.9453C107.18 97.8702 106.385 100.63 104.216 102.829C102.047 105.028 99.2526 105.815 96.3276 106.671C93.0072 107.64 89.5781 108.644 86.6227 111.604C83.6674 114.564 82.6591 117.993 81.6855 121.309C80.8163 124.256 80.0079 127.041 77.774 129.254C75.5401 131.466 72.7803 132.296 69.8337 133.143C66.5828 134.095 63.2232 135.086 60.307 137.924C60.9155 138.159 61.5282 138.38 62.1454 138.602C64.627 136.503 67.5172 135.651 70.3204 134.83C73.454 133.921 76.4224 133.048 78.9692 130.523Z" fill="#FFC844"/>
<path d="M59.7245 124.286C62.8885 123.36 65.8786 122.483 68.4167 119.94C70.9549 117.398 71.8154 114.425 72.7629 111.248C73.7103 108.071 74.6143 104.929 77.2568 102.286C78.1937 101.354 79.2627 100.565 80.4294 99.9436C80.5136 99.9281 80.5954 99.9018 80.6728 99.8653C82.4224 99.0437 84.2439 98.3846 86.1142 97.8965C89.2825 96.9708 92.2726 96.0929 94.8064 93.5504L94.8629 93.4896L94.9151 93.4418C97.4358 90.921 98.3137 87.9265 99.2612 84.7495C99.409 84.2425 99.5538 83.7296 99.6958 83.211L97.8052 83.211C97.6879 83.5978 97.5749 83.9846 97.4619 84.3714C96.5927 87.292 95.793 90.0561 93.6286 92.2553C91.4642 94.4544 88.661 95.2367 85.7361 96.0973C82.42 97.0664 78.9909 98.0704 76.0311 101.03C73.0714 103.99 72.0675 107.419 71.0983 110.735C70.2291 113.682 69.4164 116.468 67.1868 118.675C64.9572 120.883 62.1888 121.718 59.2421 122.587C55.926 123.56 52.4969 124.564 49.5372 127.524C48.3868 128.678 47.4287 130.009 46.6992 131.466C47.2033 131.757 47.7118 132.044 48.2203 132.335C48.8695 131.014 49.7297 129.807 50.7671 128.763C53.3879 126.138 56.617 125.199 59.7245 124.286Z" fill="#FFC844"/>
<path d="M89.5301 141.084C92.0552 138.559 92.9331 135.569 93.8762 132.392C94.8193 129.215 95.7277 126.072 98.3744 123.426C99.3125 122.496 100.381 121.708 101.547 121.087C101.631 121.072 101.713 121.046 101.79 121.009C103.539 120.186 105.361 119.526 107.232 119.04C110.396 118.11 113.39 117.237 115.924 114.694L115.981 114.633C115.995 114.616 116.011 114.6 116.028 114.586C118.553 112.06 119.431 109.07 120.374 105.893C121.278 102.808 122.217 99.6218 124.816 96.9881C127.415 94.3543 130.64 93.446 133.73 92.542C136.894 91.6119 139.889 90.7384 142.422 88.1959L142.475 88.1394L142.527 88.0872C143.071 87.5411 143.564 86.9461 144 86.3097L144 83.2109L143.665 83.2109C143.097 84.5846 142.276 85.8392 141.245 86.9094C139.041 89.0825 136.281 89.8909 133.356 90.7471C130.04 91.7206 126.607 92.7246 123.651 95.6843L123.599 95.7364L123.543 95.7886C120.587 98.7483 119.579 102.177 118.61 105.498C117.741 108.418 116.941 111.178 114.772 113.382C112.604 115.585 109.809 116.363 106.884 117.219C103.568 118.193 100.139 119.197 97.1793 122.156C94.2195 125.116 93.2156 128.541 92.2464 131.861C91.3772 134.808 90.5645 137.594 88.3349 139.802C86.5052 141.631 84.2887 142.505 81.907 143.24C83.2108 143.396 84.5147 143.531 85.8185 143.635C87.1939 143.006 88.4497 142.142 89.5301 141.084Z" fill="#FFC844"/>
<path d="M38.6111 103.164C41.7794 102.233 44.7696 101.36 47.3033 98.8174C49.8371 96.2749 50.7064 93.2978 51.6495 90.1252C52.5926 86.9525 53.5009 83.8016 56.1433 81.1591C57.0809 80.2257 58.1515 79.4362 59.3204 78.8166C59.4033 78.8039 59.4838 78.7791 59.5594 78.7427C59.9592 78.5384 60.3634 78.3559 60.772 78.1864L60.772 76.2828C58.5774 77.0769 56.5794 78.3339 54.9134 79.9683C51.9581 82.928 50.9541 86.3571 49.9806 89.6732C49.1114 92.6198 48.303 95.4057 46.0691 97.6179C43.8352 99.83 41.0754 100.66 38.1243 101.508C34.8083 102.477 31.3792 103.481 28.4195 106.44C26.2464 108.614 25.1425 111.017 24.3167 113.455C24.7513 113.942 25.2164 114.429 25.6727 114.907C26.4724 112.36 27.4937 109.826 29.6494 107.67C32.2788 105.015 35.4906 104.072 38.6111 103.164Z" fill="#FFC844"/>
<path d="M28.0367 92.5986C31.2006 91.6728 34.1908 90.7949 36.7289 88.2524C39.267 85.71 40.1275 82.7372 41.0533 79.5602C41.979 76.3832 42.9091 73.2409 45.5515 70.5985C46.4884 69.6663 47.5574 68.8769 48.7242 68.2559C48.8083 68.2404 48.8901 68.2141 48.9675 68.1777C50.7169 67.3554 52.5384 66.6963 54.4089 66.2089C56.6428 65.557 58.7855 64.9051 60.7412 63.7229L60.7412 61.589C58.7681 63.0406 56.4516 63.7229 54.0264 64.4314C50.7103 65.4049 47.2813 66.4088 44.3216 69.3685C41.3619 72.3283 40.3579 75.7574 39.3887 79.0734C38.5195 82.0201 37.7111 84.8016 35.4772 87.0138C33.2433 89.226 30.4792 90.0561 27.5325 90.9036C24.2164 91.8771 20.7873 92.8811 17.8276 95.8408C16.443 97.2377 15.3342 98.8832 14.5593 100.691C14.9374 101.282 15.3242 101.873 15.7154 102.456C16.4269 100.44 17.5672 98.6028 19.0576 97.0707C21.713 94.45 24.9292 93.5112 28.0367 92.5986Z" fill="#FFC844"/>
<path d="M49.159 113.725C52.3273 112.8 55.3174 111.922 57.8512 109.379C60.385 106.837 61.2542 103.86 62.1973 100.687C63.1404 97.5143 64.0488 94.3678 66.6955 91.721C67.6325 90.7887 68.7015 89.9994 69.8682 89.3784C69.9514 89.3671 70.0322 89.3421 70.1072 89.3045C71.8575 88.481 73.6806 87.8219 75.5529 87.3357C78.5952 86.4361 81.5158 85.5973 83.9888 83.2373L81.1073 83.2373C79.3123 84.3413 77.2827 84.941 75.1705 85.5582C71.8544 86.5317 68.4253 87.5356 65.4656 90.4954C62.5059 93.4551 61.502 96.8798 60.5284 100.196C59.6592 103.147 58.8508 105.928 56.643 108.141C54.4351 110.353 51.6449 111.183 48.6982 112.03C45.3821 113.004 41.9487 114.008 38.9934 116.963C37.2085 118.809 35.8703 121.039 35.0819 123.482C35.5599 123.869 36.0423 124.247 36.5291 124.621C37.294 122.348 38.3154 120.119 40.2451 118.189C42.8397 115.577 46.0515 114.634 49.159 113.725Z" fill="#FFC844"/>
</svg>
