<svg width="131" height="131" viewBox="0 0 131 131" fill="none" xmlns="http://www.w3.org/2000/svg">
<path d="M113.127 62.5763C111.117 60.5701 110.363 58.0386 109.573 55.357C108.688 52.3437 107.776 49.2277 105.086 46.5422C102.397 43.8567 99.2808 42.9405 96.2675 42.0559C93.6136 41.266 91.1019 40.5433 89.0996 38.5686C87.0974 36.594 86.3904 34.0586 85.6124 31.4007C84.7317 28.3874 83.8194 25.2714 81.13 22.5859C81.1139 22.5678 81.0967 22.5507 81.0786 22.5346L81.0312 22.4872C78.3418 19.7977 75.2258 18.8854 72.2125 18.0008C69.5586 17.211 67.0469 16.4882 65.0485 14.5175C63.0502 12.5469 62.3393 10.0075 61.5574 7.34565C60.8347 4.86946 60.0843 2.32218 58.3466 0H56.293C56.995 0.764819 57.5975 1.6154 58.086 2.53149C58.0964 2.60757 58.1205 2.68115 58.157 2.7487C58.903 4.33881 59.5019 5.99388 59.9461 7.69319C60.7872 10.5722 61.585 13.2893 63.8953 15.5917C63.8953 15.5917 63.9309 15.6233 63.9467 15.6431L63.9941 15.6905C66.2846 17.985 69.0057 18.7828 71.8926 19.6398C74.6927 20.4612 77.5914 21.3103 79.9847 23.6759C82.3779 26.0415 83.2033 28.9679 84.0248 31.7719C84.866 34.651 85.6637 37.3681 87.9741 39.6705L88.0215 39.7179L88.0688 39.7692C90.3634 42.0638 93.0844 42.8615 95.9674 43.7185C97.6671 44.1615 99.3223 44.7604 100.912 45.5075C100.981 45.5412 101.054 45.5651 101.129 45.5786C102.19 46.1418 103.162 46.8591 104.012 47.7073C106.417 50.1084 107.27 53.0269 108.1 55.8507C108.929 58.6744 109.739 61.4468 112.049 63.7492C112.527 64.2284 113.048 64.6633 113.605 65.0485C113.866 64.5865 114.122 64.1244 114.395 63.6584C113.94 63.3369 113.516 62.9747 113.127 62.5763Z" fill="#766DFA"/>
<path d="M119.189 45.7603C118.305 42.747 117.392 39.631 114.707 36.9415C112.021 34.2521 108.901 33.3398 105.888 32.4591C103.23 31.6693 100.718 30.9426 98.7201 28.9719C96.7217 27.0012 96.0108 24.4618 95.2328 21.804C94.3482 18.7907 93.4359 15.6747 90.7465 12.9852L90.6951 12.9378L90.6517 12.8865C87.9622 10.201 84.8463 9.28475 81.833 8.40406C79.1751 7.61421 76.6673 6.88754 74.665 4.91685C73.263 3.49511 72.485 1.81272 71.8689 0H70.1392C70.8382 2.16815 71.7189 4.20598 73.496 5.98711L73.5474 6.0345L73.5948 6.08584C75.8893 8.38037 78.6064 9.17417 81.4933 10.0351C84.2973 10.8566 87.1921 11.7057 89.5854 14.0673C91.9787 16.429 92.8041 19.3633 93.6255 22.1673C94.4667 25.0463 95.2645 27.7634 97.5748 30.0659L97.6261 30.1132L97.6735 30.1646C99.968 32.4591 102.685 33.2529 105.572 34.1139C107.272 34.5545 108.928 35.1534 110.517 35.9029C110.585 35.9359 110.658 35.9586 110.734 35.97C111.795 36.5345 112.768 37.2517 113.621 38.0987C116.022 40.5038 116.879 43.4223 117.704 46.246C118.316 48.3313 118.889 50.3335 120.074 52.17C120.338 51.5578 120.599 50.9496 120.864 50.3375C120.168 48.8657 119.607 47.3336 119.189 45.7603Z" fill="#766DFA"/>
<path d="M129.967 14.9954C128.388 14.2849 126.755 13.7051 125.082 13.2617C122.428 12.4718 119.916 11.7491 117.914 9.77446C115.911 7.79982 115.204 5.26439 114.426 2.60652C114.174 1.74163 113.917 0.868841 113.637 0H111.887C112.246 0.979421 112.539 1.97464 112.827 2.95406C113.668 5.83308 114.466 8.55018 116.776 10.8526L116.824 10.9C116.824 10.9 116.855 10.9355 116.875 10.9513C119.169 13.2459 121.887 14.0397 124.773 14.9006C126.473 15.3437 128.128 15.9425 129.718 16.6896C129.747 16.7042 129.777 16.7149 129.809 16.7212C129.844 16.117 129.904 15.5641 129.967 14.9954Z" fill="#766DFA"/>
<path d="M93.9296 81.7737C91.9194 79.7636 91.1651 77.236 90.3752 74.5545C89.4906 71.5412 88.5783 68.4252 85.8888 65.7357C83.1994 63.0463 80.0873 62.1379 77.0701 61.2533C74.4162 60.4634 71.9084 59.7407 69.9061 57.77C67.9038 55.7993 67.1969 53.256 66.4189 50.5981C65.5342 47.5848 64.622 44.4689 61.9325 41.7794L61.8812 41.732L61.8338 41.6807C59.1483 38.9952 56.0323 38.0829 53.0151 37.1982C50.3611 36.4084 47.8494 35.6817 45.8511 33.715C43.8527 31.7482 43.1695 29.201 42.3796 26.5431C41.4989 23.5298 40.5867 20.4138 37.8972 17.7244C35.2078 15.0349 32.0917 14.1226 29.0784 13.2419C26.4008 12.4521 23.8694 11.7175 21.8632 9.70732C19.8569 7.69714 19.0987 5.16565 18.3088 2.48804C18.064 1.66264 17.8191 0.829348 17.5387 0H15.8602C16.2157 0.971522 16.504 1.97464 16.7923 2.93431C17.6334 5.80939 18.4312 8.53044 20.7415 10.8329C23.0519 13.1353 25.7532 13.9212 28.6401 14.7821C31.527 15.6431 34.3823 16.4645 36.7835 18.8657C37.6306 19.7171 38.3479 20.6885 38.9122 21.7487C38.9263 21.8251 38.9502 21.8995 38.9833 21.9698C39.7299 23.5597 40.3288 25.2148 40.7723 26.9143C41.6135 29.7933 42.4113 32.5104 44.7216 34.8129L44.7729 34.8603L44.8203 34.9116C47.1148 37.2061 49.8319 37.9999 52.7189 38.8609C55.5229 39.6823 58.4177 40.5314 60.8109 42.897C63.2042 45.2627 64.0296 48.1891 64.851 50.9931C65.6922 53.8721 66.49 56.5892 68.8003 58.8916L68.8556 58.943L68.899 58.9904C71.1936 61.2849 73.9107 62.0787 76.7976 62.9396C78.4975 63.382 80.1527 63.9809 81.7421 64.7287C81.8111 64.7618 81.8841 64.7857 81.9593 64.7997C83.0213 65.3614 83.9942 66.0774 84.8462 66.9245C87.2474 69.3296 88.1044 72.2481 88.9298 75.0718C89.7552 77.8955 90.5687 80.6679 92.879 82.9704C94.5654 84.6567 96.4848 85.5334 98.5265 86.2167C98.903 85.7849 99.2756 85.3518 99.6442 84.9174C97.4879 84.1828 95.5409 83.385 93.9296 81.7737Z" fill="#766DFA"/>
<path d="M103.526 72.1968C101.516 70.1866 100.762 67.6551 99.9918 64.9775C99.1111 61.9642 98.1949 58.8482 95.5094 56.1588C92.8239 53.4693 89.7039 52.557 86.6906 51.6763C84.0328 50.8865 81.525 50.1598 79.5227 48.1891C77.5204 46.2184 76.8135 43.679 76.0355 41.0212C75.1508 38.0079 74.2386 34.8879 71.5531 32.2024L71.4978 32.1511L71.4543 32.1037C68.7649 29.4142 65.6489 28.502 62.6356 27.6213C59.9777 26.8314 57.4699 26.1048 55.4677 24.1341C53.4654 22.1634 52.7585 19.624 51.9805 16.9661C51.0958 13.9528 50.1835 10.8369 47.498 8.14739C44.8125 5.45793 41.6926 4.54565 38.6793 3.66101C35.9977 2.87115 33.4702 2.13659 31.46 0.130355L31.3573 0.0197754H29.2839C29.6068 0.452795 29.9606 0.861949 30.3424 1.24405C32.6369 3.53858 35.354 4.33634 38.2409 5.19333C41.1278 6.05032 43.9832 6.87572 46.3883 9.28083C47.2343 10.1332 47.9514 11.1044 48.5169 12.1638C48.5273 12.2394 48.5499 12.3128 48.5841 12.381C49.3318 13.9718 49.9307 15.6283 50.3731 17.3295C51.2182 20.2045 52.012 22.9256 54.3224 25.228L54.3777 25.2754L54.4211 25.3228C56.7156 27.6173 59.4327 28.4151 62.3196 29.2721C65.1236 30.0935 68.0224 30.9466 70.4157 33.3082C72.8089 35.6699 73.6304 38.6003 74.4518 41.4082C75.297 44.2833 76.0908 47.0043 78.4011 49.3068L78.4524 49.3542L78.4998 49.4015C80.7944 51.6961 83.5115 52.4938 86.3984 53.3508C88.0985 53.794 89.7538 54.3942 91.3429 55.1438C91.4127 55.1775 91.4873 55.2001 91.5641 55.2109C92.6243 55.7752 93.5956 56.4925 94.447 57.3396C96.8482 59.7408 97.7052 62.6593 98.5306 65.487C99.356 68.3146 100.17 71.0831 102.48 73.3855C103.657 74.5419 105.053 75.451 106.587 76.0592C106.903 75.6168 107.211 75.1706 107.519 74.7283C106.023 74.1785 104.662 73.3154 103.526 72.1968Z" fill="#766DFA"/>
<path d="M115.485 22.8624C112.827 22.0725 110.319 21.3458 108.317 19.3752C106.315 17.4045 105.608 14.8611 104.83 12.2033C103.945 9.18997 103.033 6.07399 100.347 3.38848C100.329 3.37237 100.312 3.35523 100.296 3.33714L100.248 3.28975C98.7764 1.84292 97.0164 0.722059 95.0828 0H89.6802C90.1422 0.142174 90.6122 0.280398 91.0821 0.418622C93.8861 1.24007 96.7849 2.09312 99.1782 4.45478C101.571 6.81645 102.409 9.74681 103.199 12.5626C104.044 15.4417 104.837 18.1627 107.148 20.4612C107.167 20.4749 107.184 20.4908 107.199 20.5086L107.247 20.556C109.541 22.8505 112.258 23.6483 115.145 24.5053C116.843 24.9495 118.497 25.5483 120.086 26.2943C120.155 26.3309 120.229 26.3549 120.307 26.3654C121.367 26.9297 122.338 27.6469 123.19 28.494C124.656 30.0177 125.756 31.856 126.405 33.869C126.631 33.0186 126.849 32.1655 127.06 31.3099C126.373 29.844 125.438 28.5079 124.296 27.3606C121.614 24.6553 118.498 23.7431 115.485 22.8624Z" fill="#766DFA"/>
<path d="M125.271 0C125.598 0.44182 125.957 0.858939 126.345 1.24797L126.397 1.29536L126.444 1.3467C127.674 2.5574 129.143 3.49886 130.757 4.1112C130.757 3.52671 130.788 2.92641 130.8 2.35377C129.58 1.84125 128.465 1.106 127.514 0.185617L127.344 0.00789723L125.271 0Z" fill="#766DFA"/>
<path d="M52.0002 112.949C51.1195 109.936 50.2072 106.82 47.5178 104.131C44.8283 101.441 41.7123 100.529 38.699 99.6482C36.0412 98.8583 33.5334 98.1317 31.5311 96.161C29.5288 94.1903 28.8218 91.6509 28.0438 88.993C27.1632 85.9758 26.2469 82.8598 23.5614 80.1743L23.5101 80.123L23.4627 80.0756C20.7732 77.3861 17.6573 76.4738 14.644 75.5892C11.9861 74.7993 9.47831 74.0766 7.47602 72.1059C5.47374 70.1352 4.76684 67.5959 3.98883 64.938C3.16738 62.1261 2.31433 59.2273 0.0395508 56.6682V59.2826C0.213319 59.5591 0.379189 59.8355 0.53321 60.1199C0.544055 60.1954 0.56668 60.2687 0.600317 60.3371C1.3493 61.9264 1.94954 63.5816 2.3933 65.2816C3.2345 68.1606 4.02831 70.8777 6.34258 73.1801L6.39788 73.2315L6.44131 73.2789C8.73584 75.5734 11.4529 76.3712 14.3399 77.2281C17.1399 78.0496 20.0387 78.9026 22.4319 81.2643C24.8252 83.626 25.6466 86.5563 26.4681 89.3603C27.3132 92.2394 28.111 94.9565 30.4174 97.2589L30.4687 97.3063L30.5161 97.3576C32.8106 99.6521 35.5277 100.45 38.4146 101.307C40.1127 101.751 41.7664 102.35 43.3552 103.096C43.4249 103.131 43.4995 103.155 43.5764 103.167C44.6366 103.731 45.6079 104.449 46.4593 105.296C48.8605 107.697 49.7175 110.615 50.5469 113.439C51.1906 115.647 51.8106 117.756 53.0981 119.655L54.5632 118.996C53.2402 117.175 52.6479 115.11 52.0002 112.949Z" fill="#766DFA"/>
<path d="M65.1354 110.568C63.1252 108.558 62.3709 106.03 61.6008 103.349C60.7162 100.336 59.8039 97.2195 57.1145 94.534C54.425 91.8485 51.309 90.9323 48.2957 90.0476C45.6418 89.2578 43.134 88.5351 41.1317 86.5644C39.1294 84.5937 38.4304 82.0701 37.6405 79.3925C36.7599 76.3792 35.8476 73.2632 33.1581 70.5737L33.1068 70.5263L33.0594 70.479C30.3739 67.7895 27.2579 66.8772 24.2406 65.9926C21.5867 65.2027 19.075 64.48 17.0767 62.5093C15.0783 60.5386 14.3674 57.9992 13.5855 55.3374C12.7048 52.3241 11.7925 49.2082 9.10307 46.5187C6.41361 43.8292 3.29765 42.9209 0.284347 42.0363L0.0236816 41.9573V43.6041C2.78818 44.4177 5.63562 45.2865 7.98544 47.6363C8.83367 48.4882 9.55101 49.4611 10.1141 50.5233C10.1271 50.5987 10.1511 50.6719 10.1852 50.7405C10.9318 52.3303 11.5307 53.9855 11.9742 55.685C12.8154 58.564 13.6131 61.2811 15.9235 63.5835L15.9748 63.6349L16.0222 63.6823C18.3167 65.9768 21.0338 66.7706 23.9208 67.6315C26.7248 68.453 29.6196 69.3021 32.0128 71.6677C34.4061 74.0333 35.2315 76.9597 36.0529 79.7637C36.8941 82.6427 37.6919 85.3598 40.0022 87.6623L40.0575 87.7176L40.1009 87.761C42.3955 90.0555 45.1126 90.8493 47.9995 91.7103C49.6994 92.1526 51.3546 92.7515 52.944 93.4993C53.013 93.5324 53.086 93.5563 53.1612 93.5704C54.2226 94.1331 55.1953 94.8491 56.0481 95.6951C58.4493 98.1002 59.3023 101.019 60.1317 103.842C60.961 106.666 61.7706 109.439 64.0809 111.741C64.6096 112.274 65.1919 112.75 65.8186 113.163C66.332 112.863 66.8455 112.559 67.3589 112.25C66.5419 111.798 65.7933 111.231 65.1354 110.568Z" fill="#766DFA"/>
<path d="M74.7322 100.971C72.722 98.9611 71.9677 96.4296 71.1778 93.752C70.2932 90.7387 69.3809 87.6227 66.6954 84.9332C64.0098 82.2438 60.8899 81.3315 57.8766 80.4508C55.2188 79.6609 52.711 78.9343 50.7087 76.9636C48.7064 74.9929 47.9995 72.4535 47.2215 69.7957C46.3369 66.7824 45.4246 63.6664 42.7351 60.9769L42.6838 60.9256L42.6403 60.8782C39.9509 58.1927 36.8349 57.2764 33.8176 56.3958C31.1637 55.6059 28.656 54.8792 26.6537 52.9085C24.6514 50.9379 23.9444 48.3985 23.1664 45.7406C22.2818 42.7273 21.3695 39.6113 18.6801 36.9219C15.9906 34.2324 12.8786 33.3201 9.86529 32.4394C7.18373 31.6496 4.65618 30.9111 2.646 28.8851C1.44851 27.6338 0.545793 26.1306 0.00390625 24.4856V28.1071C0.441926 28.7911 0.953117 29.4254 1.52837 29.9988C3.8229 32.2933 6.54 33.0911 9.42692 33.9481C12.3138 34.8051 15.1691 35.6344 17.5742 38.0356C18.4191 38.888 19.1348 39.8592 19.6989 40.9185C19.713 40.995 19.737 41.0693 19.7701 41.1397C20.5184 42.7288 21.1173 44.3841 21.5591 46.0842C22.4042 48.9593 23.198 51.6803 25.5084 53.9827L25.5597 54.0301L25.6071 54.0775C27.9016 56.3721 30.6187 57.1698 33.5057 58.0268C36.3096 58.8443 39.2084 59.6973 41.5977 62.059C43.987 64.4207 44.8164 67.3511 45.6378 70.159C46.483 73.0341 47.2768 75.7551 49.5871 78.0575L49.6424 78.1089L49.6858 78.1563C51.9804 80.4469 54.6975 81.2446 57.5844 82.1055C59.2848 82.5462 60.9402 83.1451 62.5289 83.8946C62.5987 83.9282 62.6733 83.9509 62.75 83.9617C63.8102 84.526 64.7816 85.2432 65.633 86.0904C68.0342 88.4915 68.8912 91.41 69.7166 94.2377C70.542 97.0654 71.3555 99.8339 73.6658 102.136C74.9537 103.394 76.4954 104.362 78.1878 104.976C78.6893 104.601 79.1869 104.218 79.6806 103.834C77.8244 103.171 76.15 102.389 74.7322 100.971Z" fill="#766DFA"/>
<path d="M19.5015 118.842C16.8436 118.052 14.3359 117.329 12.3336 115.354C10.3313 113.38 9.62436 110.844 8.84635 108.187C7.96566 105.173 7.05339 102.057 4.36393 99.3678L4.31259 99.3204L4.2652 99.273C3.04037 98.0557 1.60277 97.0732 0.0236816 96.3743V98.183C1.18833 98.7648 2.25444 99.5257 3.1831 100.438C5.55267 102.831 6.40176 105.73 7.22321 108.534C8.0644 111.413 8.86216 114.13 11.1725 116.433L11.2199 116.48C11.2396 116.48 11.2515 116.516 11.2712 116.531C13.5618 118.826 16.2828 119.624 19.1698 120.481C20.8697 120.923 22.5249 121.522 24.1143 122.27C24.1832 122.303 24.2563 122.327 24.3315 122.341C26.522 123.499 28.3013 125.306 29.426 127.514C29.9552 127.392 30.4844 127.258 31.0057 127.119C30.3321 125.718 29.4269 124.44 28.3282 123.34C25.6308 120.639 22.5148 119.726 19.5015 118.842Z" fill="#766DFA"/>
<path d="M3.12785 4.38386C5.52901 6.78897 6.38599 9.70749 7.21138 12.5312C8.03678 15.355 8.85033 18.1273 11.1607 20.4298C13.471 22.7322 16.1762 23.5221 19.0592 24.3791C21.879 25.2084 24.8015 26.0614 27.2026 28.4626C28.0509 29.3145 28.7682 30.2874 29.3313 31.3495C29.3421 31.425 29.3648 31.4983 29.3984 31.5667C30.1463 33.1565 30.7465 34.8116 31.1914 36.5112C32.0326 39.3903 32.8264 42.1074 35.1407 44.4098C35.1558 44.4288 35.173 44.446 35.1921 44.4611L35.2355 44.5085C37.53 46.8031 40.2511 47.6008 43.134 48.4578C45.938 49.2792 48.8368 50.1283 51.2301 52.494C53.6233 54.8596 54.4448 57.786 55.2702 60.59C56.1114 63.469 56.9091 66.1861 59.2194 68.4885L59.2708 68.5399L59.3142 68.5873C61.6088 70.8818 64.3298 71.6795 67.2128 72.5365C68.9108 72.9807 70.5646 73.5796 72.1533 74.3256C72.223 74.3604 72.2975 74.3844 72.3745 74.3967C73.4347 74.961 74.4061 75.6782 75.2575 76.5253C77.6626 78.9265 78.5156 81.845 79.3449 84.6687C80.1743 87.4924 80.9839 90.2648 83.2942 92.5673C85.0398 94.3129 87.0303 95.1936 89.151 95.8847C89.5934 95.4897 90.0396 95.0632 90.474 94.6446C88.2269 93.9614 86.1298 93.1676 84.4079 91.4496C82.4017 89.4434 81.6435 86.9119 80.8536 84.2343C79.9729 81.221 79.0606 78.1011 76.3711 75.4156C73.6817 72.7301 70.5657 71.8138 67.5524 70.9292C64.8945 70.1393 62.3867 69.4166 60.3884 67.4459C58.3901 65.4752 57.6753 62.9358 56.8973 60.274C56.0166 57.2607 55.1043 54.1448 52.4148 51.4593L52.3635 51.4079L52.2529 51.2657C49.5635 48.5763 46.4475 47.664 43.4342 46.7794C40.7763 45.9895 38.2685 45.2668 36.2702 43.2961C34.2719 41.3254 33.557 38.786 32.779 36.1282C31.8983 33.1109 30.986 29.9949 28.2966 27.3094C25.6071 24.6239 22.4912 23.7077 19.4779 22.823C16.8003 22.0332 14.2688 21.2986 12.2586 19.2687C10.2484 17.2388 9.49408 14.731 8.70422 12.0494C7.82353 9.03611 6.90731 5.92013 4.2218 3.23462C3.0027 2.0215 1.57184 1.04174 0 0.34375V2.10908C1.15558 2.69841 2.21114 3.46608 3.12785 4.38386Z" fill="#766DFA"/>
<path d="M42.4034 122.546C41.5188 119.533 40.6064 116.417 37.9209 113.727C35.2354 111.038 32.1155 110.125 29.1022 109.245C26.4443 108.455 23.9326 107.728 21.9343 105.758C19.9359 103.787 19.2251 101.248 18.4471 98.5897C17.5624 95.5764 16.6502 92.4604 13.9607 89.7709L13.9094 89.7235L13.8659 89.6722C11.1765 86.9867 8.06045 86.0744 5.0432 85.1898C3.26997 84.6685 1.55995 84.1669 0.0236816 83.302V85.1424C1.53245 85.828 3.0967 86.3842 4.69961 86.805C7.5036 87.6265 10.3984 88.4756 12.7917 90.8372C15.1849 93.1989 16.0104 96.1293 16.8318 98.9372C17.673 101.816 18.4708 104.533 20.7811 106.836L20.8324 106.883L20.8798 106.934C23.1744 109.229 25.8915 110.023 28.7784 110.884C30.477 111.326 32.1309 111.925 33.7189 112.673C33.7876 112.706 33.8608 112.728 33.9361 112.74C34.9983 113.303 35.9712 114.02 36.8231 114.869C39.2242 117.27 40.0812 120.192 40.9066 123.016C41.0251 123.411 41.1396 123.806 41.2581 124.201L42.7548 123.695L42.4034 122.546Z" fill="#766DFA"/>
<path d="M2.73683 124.955C1.48922 123.621 0.561425 122.021 0.0236816 120.275V124.098C0.469081 124.793 0.986691 125.439 1.56786 126.025C1.58681 126.039 1.60405 126.055 1.61921 126.073L1.66659 126.12C3.96112 128.415 6.67823 129.212 9.56515 130.069L10.6393 130.385C11.915 130.287 13.1827 130.16 14.4465 130.022C12.9713 129.39 11.4537 128.862 9.90478 128.442C7.23112 127.664 4.73912 126.926 2.73683 124.955Z" fill="#766DFA"/>
</svg>
