<svg width="130" height="131" viewBox="0 0 130 131" fill="none" xmlns="http://www.w3.org/2000/svg">
<path d="M18.5186 5.46255C17.7362 8.09522 17.0164 10.5792 15.0644 12.5626C13.1124 14.5459 10.5971 15.2461 7.96052 16.0167C5.26135 16.7991 2.48393 17.6284 -9.38782e-05 19.7486L-9.40612e-05 21.9197L0.289403 21.6106C2.65998 19.2635 5.53127 18.4264 8.30868 17.6127C11.1604 16.7795 13.8518 15.9893 16.1324 13.7009L16.1793 13.654C16.1943 13.6363 16.2114 13.6206 16.2302 13.607C18.5029 11.3303 19.2892 8.63897 20.142 5.78332C20.5784 4.09902 21.1717 2.45932 21.9141 0.8857L20.1263 0.885699C19.4787 2.36973 18.9413 3.89949 18.5186 5.46255Z" fill="#001705" fill-opacity="0.25"/>
<path d="M32.4871 6.23287C29.8232 8.89684 28.9195 11.9833 28.0432 14.968C27.2609 17.6007 26.545 20.0847 24.593 22.068C22.641 24.0513 20.1218 24.7515 17.4891 25.5222C14.5044 26.3984 11.4179 27.3021 8.75394 29.9621L8.71092 30.013L8.66006 30.0599C5.9961 32.7239 5.09247 35.8103 4.21621 38.7951C3.43384 41.4277 2.71797 43.9118 0.76205 45.8951C0.526679 46.129 0.278564 46.3497 0.0188133 46.5562L0.0188131 48.5121C0.668639 48.0877 1.27295 47.5974 1.82217 47.049L1.86911 46.9982L1.91996 46.9512C4.19274 44.6785 4.97903 41.9871 5.83181 39.1276C6.64547 36.3502 7.48651 33.4789 9.83362 31.1044C12.1807 28.7299 15.0716 27.9241 17.849 27.1104C20.7007 26.2733 23.3921 25.487 25.6727 23.1985L25.7235 23.1438L25.7705 23.1008C28.0432 20.828 28.8295 18.1366 29.6823 15.2771C30.1145 13.6115 30.6985 11.9891 31.427 10.4303C31.4598 10.3606 31.4835 10.287 31.4974 10.2112C32.0562 9.16196 32.7652 8.19993 33.602 7.35558C35.9843 4.97718 38.8752 4.1283 41.6721 3.31073C43.7884 2.68875 45.8187 2.09415 47.6533 0.901042L44.0896 0.901042C43.1704 1.24137 42.212 1.5191 41.234 1.80858C38.2336 2.66527 35.1472 3.56891 32.4871 6.23287Z" fill="#001705" fill-opacity="0.25"/>
<path d="M10.5111 91.4881C11.3287 88.6912 12.1775 85.8003 14.5559 83.418C15.4007 82.58 16.3642 81.8709 17.4155 81.3134C17.4898 81.2989 17.5621 81.2752 17.6306 81.243C19.2049 80.5023 20.8445 79.9091 22.5283 79.471C25.38 78.6338 28.0713 77.8475 30.3519 75.5591L30.3989 75.5082L30.4497 75.4613C32.7225 73.1885 33.5088 70.4972 34.3616 67.6376C35.1753 64.8602 36.0163 61.9928 38.3595 59.6183C40.7027 57.2439 43.6014 56.4341 46.3788 55.6204C49.2305 54.7833 51.9218 53.997 54.2024 51.7086L54.2494 51.6577L54.3002 51.6108C56.573 49.338 57.3632 46.6467 58.2121 43.7871C58.6503 42.1046 59.2436 40.4664 59.9842 38.8934C60.017 38.8237 60.0406 38.7501 60.0546 38.6743C60.6135 37.6242 61.324 36.662 62.1631 35.8187C64.5415 33.4403 67.4323 32.5914 70.2293 31.7738C73.0263 30.9563 75.7724 30.1504 78.053 27.862C80.3336 25.5736 81.1159 22.894 81.9648 20.0383C82.8137 17.1827 83.6313 14.3505 86.0136 11.9682C88.3959 9.58587 91.2828 8.74091 94.0798 7.92333L94.2832 7.86466C93.5947 7.51259 92.8997 7.17487 92.1982 6.85149C89.6751 7.63386 87.1402 8.62747 84.9065 10.8611C82.2426 13.5251 81.3389 16.6115 80.4627 19.5963C79.6803 22.2524 78.9527 24.756 76.9616 26.7471C74.9704 28.7383 72.4669 29.4854 69.8146 30.2482C66.826 31.1206 63.7395 32.0281 61.0795 34.6882C58.4194 37.3482 57.5119 40.4386 56.6356 43.4233C55.8533 46.056 55.1374 48.5439 53.1815 50.5233C51.2255 52.5027 48.7142 53.2068 46.0815 53.9775C43.0967 54.8537 40.0103 55.7574 37.3463 58.4174C37.3328 58.4362 37.317 58.4532 37.2994 58.4683L37.2524 58.5152C34.5885 61.1792 33.6849 64.2656 32.8086 67.2504C32.0262 69.883 31.3104 72.371 29.3544 74.3543C27.3985 76.3376 24.8871 77.0339 22.2544 77.8045C19.2697 78.6808 16.1832 79.5844 13.5193 82.2484C10.8553 84.9123 9.95559 87.9949 9.07934 90.9796C8.29697 93.6357 7.56936 96.1393 5.55868 98.1304C3.99394 99.6952 2.10061 100.478 0.082098 101.131L0.0820979 102.77C2.48005 102.038 4.73327 101.182 6.67746 99.2492C8.88766 97.0312 9.67786 94.3399 10.5111 91.4881Z" fill="#001705" fill-opacity="0.25"/>
<path d="M50.7291 11.2993C47.7443 12.1755 44.6579 13.0792 41.9939 15.7392C39.33 18.3993 38.4263 21.4896 37.554 24.4783C36.7716 27.107 36.0518 29.5911 34.0998 31.5744C32.1478 33.5577 29.6325 34.2579 26.9998 35.0285C24.0112 35.9048 20.9247 36.8084 18.2647 39.4724L18.2216 39.5154L18.1669 39.5663C15.5029 42.2302 14.5993 45.3167 13.723 48.3053C12.9406 50.9341 12.2248 53.422 10.2728 55.4014C8.32075 57.3808 5.80545 58.0849 3.17278 58.8556C2.12441 59.1646 1.06821 59.4736 0.0198403 59.8609L0.0198402 61.6017C1.16992 61.144 2.36695 60.7958 3.51703 60.4555C6.36485 59.6223 9.0562 58.8321 11.3407 56.5437L11.3916 56.4928L11.4385 56.4459C13.7113 54.1731 14.5015 51.4817 15.3504 48.6222C16.164 45.8448 17.009 42.9735 19.3522 40.6029C21.6954 38.2323 24.5666 37.4226 27.3441 36.6402C30.1919 35.807 32.8832 35.0168 35.1677 32.7284C35.1857 32.7124 35.2026 32.6954 35.2186 32.6775L35.2655 32.6306C37.5383 30.3578 38.3285 27.6664 39.1774 24.8069C39.6174 23.1237 40.2105 21.4843 40.9495 19.9093C40.9851 19.8421 41.0089 19.7693 41.0199 19.6941C41.5776 18.642 42.2881 17.6784 43.1283 16.8345C45.5067 14.4561 48.3976 13.6073 51.1946 12.7897C53.9915 11.9721 56.7416 11.1663 59.0183 8.87786C61.295 6.58943 62.0812 3.91373 62.9301 1.05417L62.9888 0.850757L61.3575 0.850757C60.6065 3.41301 59.8554 5.83444 57.9268 7.76298C55.8888 9.78931 53.3813 10.5208 50.7291 11.2993Z" fill="#001705" fill-opacity="0.25"/>
<path d="M6.74912 4.30712L6.79997 4.26018C7.73435 3.32046 8.50281 2.22928 9.07275 1.03291L7.24201 1.03291C6.80608 1.82437 6.26527 2.55335 5.63425 3.20008C4.04213 4.76481 2.11358 5.54718 0.0755136 6.19263L0.0755134 7.89819C2.4813 7.16668 4.74236 6.30998 6.69045 4.37753C6.71192 4.35572 6.73153 4.33217 6.74912 4.30712Z" fill="#001705" fill-opacity="0.25"/>
<path d="M70.8864 10.1568C70.104 12.809 69.3764 15.3165 67.3657 17.3037C65.355 19.2909 62.871 20.042 60.2149 20.8244C57.2301 21.6967 54.1437 22.6004 51.4797 25.2643C48.8157 27.9283 47.9121 31.0147 47.0397 33.9995C46.2574 36.6282 45.5376 39.1162 43.5895 41.0956C41.6414 43.075 39.1183 43.783 36.4856 44.5536C33.5009 45.426 30.4144 46.3335 27.7504 48.9936L27.7035 49.0444L27.6526 49.0914C24.9926 51.7514 24.0851 54.8418 23.2127 57.8265C22.4303 60.4592 21.7106 62.9432 19.7586 64.9265C17.8065 66.9098 15.2912 67.61 12.6586 68.3807C9.67383 69.253 6.58738 70.1566 3.92341 72.8206C1.7719 74.976 0.766553 77.4053 0.0115712 79.8345L0.0115707 85.0764C0.383191 84.0789 0.688329 83.0501 0.997365 81.9978C1.81494 79.2008 2.65988 76.31 5.0422 73.9277C5.8855 73.0886 6.84768 72.3781 7.89783 71.8192C7.97385 71.8084 8.04775 71.786 8.1169 71.7527C9.69088 71.0102 11.3305 70.4156 13.0145 69.9767C15.8663 69.1435 18.5576 68.3533 20.8382 66.0648L20.8852 66.0179L20.936 65.971C23.2049 63.6982 23.9951 61.0068 24.8479 58.1473C25.6615 55.3738 26.5026 52.5025 28.8419 50.1319C31.1811 47.7613 34.0877 46.9438 36.8651 46.1301C39.7168 45.2969 42.4081 44.5067 44.6887 42.2183L44.7357 42.1674L44.7865 42.1244C47.0554 39.8516 47.8456 37.1563 48.6984 34.3007C49.136 32.618 49.7292 30.9797 50.4704 29.407C50.5038 29.3378 50.5262 29.2639 50.5369 29.1879C51.0959 28.1378 51.8063 27.1756 52.6454 26.3323C55.0277 23.9499 57.9186 23.105 60.7156 22.2835C63.5125 21.462 66.2586 20.6601 68.5392 18.3716C70.8199 16.0832 71.5983 13.4075 72.4511 10.548C73.3039 7.6884 74.0667 4.90709 76.4138 2.52868C76.5898 2.35265 76.7659 2.18835 76.9497 2.02797C76.316 1.91061 75.6823 1.79718 75.0486 1.69547C72.6076 4.29685 71.7196 7.27375 70.8864 10.1568Z" fill="#001705" fill-opacity="0.25"/>
<path d="M103.852 29.9431C101.188 32.6071 100.28 35.6935 99.4078 38.6782C98.6254 41.3304 97.8978 43.8379 95.9067 45.8291C93.9156 47.8202 91.412 48.5674 88.7558 49.3302C85.7711 50.2025 82.6847 51.1061 80.0207 53.7701C77.3567 56.4341 76.457 59.5205 75.5808 62.5053C74.7984 65.1379 74.0786 67.6219 72.1266 69.6053C70.1746 71.5886 67.6593 72.2888 65.0266 73.0594C62.0419 73.9318 58.9554 74.8393 56.2915 77.4994L56.2445 77.5502L56.1937 77.5972C53.5336 80.2611 52.63 83.3476 51.7537 86.3323C50.9714 88.965 50.2516 91.4529 48.2996 93.4323C46.3476 95.4117 43.8322 96.1002 41.2074 96.8825C38.2226 97.7549 35.1362 98.6585 32.4722 101.322C29.8083 103.986 28.9046 107.073 28.0323 110.058C27.2499 112.71 26.5223 115.217 24.5312 117.208C22.5401 119.2 20.0326 119.947 17.3804 120.71C14.3956 121.582 11.3092 122.489 8.6452 125.15C7.16892 126.655 6.03478 128.462 5.32014 130.446L7.01005 130.446C7.64004 128.884 8.57036 127.461 9.74834 126.257C12.1267 123.878 15.0215 123.029 17.8185 122.212C20.6154 121.394 23.3616 120.588 25.6422 118.3C27.9228 116.011 28.7012 113.332 29.554 110.476C30.4068 107.621 31.2204 104.784 33.5988 102.406C34.4422 101.567 35.4043 100.857 36.4545 100.298C36.5305 100.287 36.6044 100.264 36.6736 100.231C38.2475 99.4886 39.8871 98.894 41.5712 98.4551C44.4229 97.6219 47.1143 96.8356 49.3949 94.5433L49.4223 94.5354L49.4731 94.4885C51.742 92.2157 52.5322 89.5244 53.385 86.6648C54.1986 83.8874 55.0397 81.0161 57.379 78.6455C59.7182 76.275 62.6247 75.4613 65.4021 74.6437C68.2539 73.8105 70.9452 73.0203 73.2258 70.7319L73.2728 70.6849L73.2845 70.6732C75.5573 68.4004 76.3436 65.7051 77.1964 62.8495C77.6346 61.167 78.2278 59.5288 78.9684 57.9558C79.0012 57.8861 79.0249 57.8125 79.0388 57.7367C79.5963 56.6866 80.3054 55.7244 81.1434 54.8811C83.5257 52.4988 86.4166 51.6538 89.2135 50.8323C92.0105 50.0108 94.7566 49.2089 97.0372 46.9205C99.3178 44.6321 100.1 41.9563 100.949 39.0968C101.767 36.3037 102.616 33.409 104.994 31.0306C107.372 28.6522 110.267 27.8033 113.064 26.9818C114.097 26.6806 115.11 26.3833 116.088 26.0195C115.751 25.5853 115.407 25.1511 115.059 24.7247C114.277 24.9985 113.455 25.2371 112.622 25.4836C109.598 26.3755 106.512 27.2791 103.852 29.9431Z" fill="#001705" fill-opacity="0.25"/>
<path d="M94.3419 20.437C91.6779 23.1009 90.7743 26.1874 89.9019 29.1721C89.1195 31.8244 88.388 34.3319 86.3813 36.3191C84.3745 38.3063 81.8826 39.0574 79.2304 39.8202C76.2457 40.6964 73.1592 41.6001 70.4953 44.264C67.8313 46.928 66.9277 50.0144 66.0553 52.9992C65.273 55.6279 64.5532 58.1159 62.6012 60.0992C60.6492 62.0825 58.1338 62.7788 55.5012 63.5533C52.5125 64.4257 49.4261 65.3293 46.766 67.9933L46.7191 68.0441C46.7012 68.0587 46.6842 68.0744 46.6682 68.0911C44.0043 70.7511 43.1006 73.8376 42.2283 76.8262C41.4459 79.4589 40.7261 81.9429 38.7702 83.9262C36.8143 85.9095 34.3029 86.6058 31.6741 87.3804C28.6894 88.2527 25.6029 89.1563 22.939 91.8203C20.275 94.4843 19.3714 97.5707 18.4951 100.555C17.7128 103.208 16.9852 105.715 14.9979 107.702C13.0107 109.69 10.4993 110.441 7.84708 111.223C5.19485 112.005 2.44873 112.811 -7.73684e-05 114.857L-7.75491e-05 117.001C0.0742404 116.927 0.140746 116.848 0.218978 116.774C2.59738 114.392 5.48826 113.547 8.28522 112.725C11.0822 111.904 13.8283 111.102 16.1089 108.813C18.3895 106.525 19.1719 103.849 20.0208 100.99C20.8696 98.1301 21.6872 95.3019 24.0695 92.9235C24.9119 92.0834 25.8743 91.3728 26.9251 90.815C27.0009 90.801 27.0745 90.7773 27.1442 90.7446C28.7187 90.0044 30.3582 89.4112 32.0418 88.9725C34.8897 88.1393 37.581 87.3491 39.8655 85.0606L39.9125 85.0098C39.9291 84.9951 39.9448 84.9795 39.9594 84.9628C42.2322 82.694 43.0224 79.9987 43.8713 77.1392C44.6849 74.3618 45.5299 71.4944 47.8692 69.1238C50.2085 66.7532 53.111 65.9356 55.8923 65.122C58.7402 64.2888 61.4354 63.4986 63.716 61.2101L63.763 61.1593L63.8099 61.1123C66.0827 58.8396 66.8729 56.1482 67.7218 53.2887C68.1587 51.605 68.7506 49.9655 69.4899 48.391C69.5261 48.3241 69.55 48.2512 69.5603 48.1759C70.1181 47.1238 70.8286 46.1601 71.6688 45.3163C74.0472 42.9379 76.9381 42.093 79.739 41.2715C82.5398 40.45 85.282 39.6481 87.5626 37.3596C89.8432 35.0712 90.6217 32.3955 91.4745 29.5359C92.3273 26.6764 93.137 23.8481 95.5193 21.4658C97.9017 19.0835 100.792 18.2424 103.589 17.421C104.736 17.0845 105.862 16.752 106.942 16.3335C106.484 15.9423 106.019 15.5511 105.549 15.1599C104.767 15.4298 103.985 15.6645 103.147 15.9032C100.092 16.8694 97.0058 17.773 94.3419 20.437Z" fill="#001705" fill-opacity="0.25"/>
<path d="M117.281 77.8515C114.293 78.7239 111.206 79.6275 108.546 82.2915C105.886 84.9554 104.971 88.0419 104.102 91.0149C103.32 93.6476 102.604 96.1316 100.648 98.1149C98.6921 100.098 96.1807 100.795 93.548 101.577C90.5633 102.449 87.4768 103.357 84.8129 106.017L84.7659 106.068L84.719 106.115C82.055 108.779 81.1514 111.865 80.2751 114.85C79.4928 117.482 78.773 119.97 76.821 121.95C74.8689 123.929 72.3536 124.633 69.721 125.404C66.7362 126.28 63.6498 127.184 60.9858 129.844C60.7902 130.043 60.5946 130.235 60.4264 130.446L62.6405 130.446C63.3484 129.826 64.124 129.288 64.9524 128.842C65.0271 128.831 65.0996 128.809 65.1676 128.776C66.741 128.033 68.3807 127.44 70.0652 127.004C72.917 126.167 75.6083 125.38 77.8889 123.092L77.9359 123.041L77.9867 122.994C80.2595 120.721 81.0458 118.03 81.8986 115.171C82.7122 112.393 83.5533 109.522 85.8964 107.151C88.2396 104.781 91.1383 103.967 93.9157 103.153C96.7675 102.316 99.4588 101.53 101.739 99.2415L101.786 99.1906L101.837 99.1437C104.11 96.8709 104.896 94.1796 105.749 91.32C106.187 89.6375 106.781 87.9993 107.521 86.4263C107.554 86.3566 107.578 86.283 107.592 86.2072C108.15 85.158 108.859 84.1959 109.696 83.3516C112.078 80.9693 114.969 80.1243 117.766 79.3067C120.563 78.4892 123.309 77.6833 125.59 75.3949C127.871 73.1065 128.653 70.4269 129.502 67.5712C129.545 67.4226 129.592 67.27 129.635 67.1174C129.635 66.6128 129.635 66.1082 129.635 65.5996C129.635 64.5865 129.607 63.5772 129.564 62.5758C128.934 64.0552 128.411 65.5783 128 67.1331C127.217 69.7853 126.49 72.2928 124.479 74.2839C122.468 76.2751 119.933 77.0731 117.281 77.8515Z" fill="#001705" fill-opacity="0.25"/>
<path d="M113.357 39.4483C110.693 42.1123 109.789 45.1987 108.917 48.1835C108.135 50.8396 107.403 53.3432 105.396 55.3343C103.389 57.3255 100.898 58.0726 98.2454 58.8354C95.2606 59.7117 92.1742 60.6153 89.5102 63.2754C86.8463 65.9354 85.9426 69.0258 85.0664 72.0144C84.284 74.6432 83.5681 77.1311 81.6161 79.1105C79.6641 81.0899 77.1488 81.794 74.5122 82.5647C71.5275 83.4409 68.441 84.3446 65.781 87.0085L65.7301 87.0555L65.6832 87.1024C63.0192 89.7664 62.1156 92.8528 61.2393 95.8415C60.457 98.4702 59.7411 100.958 57.7852 102.941C55.8293 104.925 53.3178 105.621 50.6891 106.392C47.7004 107.268 44.614 108.172 41.9539 110.836C39.2939 113.5 38.3863 116.582 37.5101 119.571C36.7277 122.223 36.0001 124.727 33.9894 126.718C31.9787 128.709 29.4947 129.456 26.8425 130.238L26.0601 130.469L31.126 130.469C32.6233 129.869 33.9863 128.976 35.1356 127.844C37.4084 125.571 38.1986 122.88 39.0474 120.021C39.8963 117.161 40.7139 114.333 43.0923 111.95C43.9371 111.112 44.9006 110.403 45.9518 109.846C46.0263 109.832 46.0987 109.808 46.167 109.775C47.7413 109.035 49.3809 108.442 51.0646 108.003C53.9164 107.166 56.6077 106.38 58.8883 104.092L58.9353 104.041L58.9861 103.994C61.2589 101.721 62.0491 99.0296 62.898 96.1701C63.7116 93.3927 64.5527 90.5214 66.8959 88.1547C69.2391 85.788 72.1377 84.9665 74.9191 84.1529C77.7669 83.3158 80.4582 82.5295 82.7427 80.241C82.7594 80.2251 82.7751 80.2081 82.7897 80.1902L82.8405 80.1432C85.1133 77.8705 85.9035 75.1791 86.7524 72.3196C87.1924 70.6376 87.7856 68.9995 88.5245 67.4258C88.559 67.3569 88.5827 67.283 88.5949 67.2068C89.1538 66.1566 89.8643 65.1944 90.7034 64.3511C93.0818 61.9727 95.9726 61.1239 98.7696 60.3063C101.567 59.4887 104.313 58.6829 106.593 56.3944C108.874 54.106 109.656 51.4303 110.505 48.5708C111.354 45.7112 112.082 42.9377 114.464 40.5515C116.846 38.1653 119.733 37.3242 122.534 36.5066L122.647 36.4714C122.409 35.9981 122.162 35.5248 121.912 35.0592C118.982 35.9199 115.966 36.8391 113.357 39.4483Z" fill="#001705" fill-opacity="0.25"/>
<path d="M113.612 100.536C112.829 103.165 112.109 105.653 110.157 107.632C108.205 109.611 105.69 110.316 103.057 111.086C100.069 111.962 96.9823 112.866 94.3222 115.53L94.2753 115.577L94.2244 115.624C91.5605 118.288 90.6568 121.374 89.7806 124.363C89.6593 124.782 89.538 125.196 89.4128 125.607C90.0661 125.337 90.7194 125.059 91.3688 124.77L91.3688 124.703C92.1824 121.926 93.0235 119.059 95.3667 116.688C97.7099 114.317 100.609 113.5 103.386 112.686C106.238 111.853 108.929 111.063 111.21 108.774C111.226 108.758 111.242 108.741 111.257 108.723L111.307 108.676C113.58 106.404 114.37 103.712 115.219 100.853C115.659 99.1696 116.252 97.5302 116.991 95.9552C117.026 95.8862 117.05 95.8123 117.062 95.7361C117.621 94.6859 118.331 93.7238 119.17 92.8805C120.934 91.1162 122.98 90.1969 125.058 89.5045C125.305 88.8865 125.54 88.2645 125.762 87.6386C123.106 88.421 120.418 89.4185 118.063 91.7734C115.387 94.4608 114.484 97.5473 113.612 100.536Z" fill="#001705" fill-opacity="0.25"/>
<path d="M122.863 48.9584C120.2 51.6224 119.296 54.7088 118.424 57.6935C117.641 60.3458 116.914 62.8494 114.922 64.8405C112.931 66.8316 110.424 67.5788 107.772 68.3611C104.787 69.2374 101.7 70.141 99.0365 72.805C96.3725 75.469 95.4688 78.5554 94.5965 81.5401C93.8141 84.1728 93.0944 86.6568 91.1424 88.6401C89.1904 90.6234 86.675 91.3197 84.0424 92.0943C81.0576 92.9666 77.9712 93.8703 75.3072 96.5342L75.2603 96.5851L75.2094 96.632C72.5494 99.2921 71.6418 102.379 70.7695 105.367C69.9871 108 69.2673 110.484 67.3114 112.467C65.3555 114.45 62.8441 115.151 60.2153 115.921C57.2306 116.794 54.1441 117.697 51.4802 120.361C48.8162 123.025 47.9125 126.112 47.0402 129.096C46.9033 129.558 46.7703 130.016 46.649 130.469L48.249 130.469C48.3429 130.16 48.4328 129.847 48.5228 129.535C49.3443 126.738 50.1893 123.847 52.5716 121.468C53.4149 120.629 54.3771 119.919 55.4272 119.36C55.5034 119.348 55.5773 119.324 55.6463 119.289C57.221 118.55 58.8605 117.957 60.5439 117.517C63.3917 116.684 66.087 115.894 68.3676 113.606L68.4145 113.559L68.4615 113.508C70.7343 111.239 71.5244 108.544 72.3733 105.684C73.187 102.911 74.032 100.039 76.3712 97.6687C78.7105 95.2981 81.617 94.4805 84.3944 93.6669C87.2462 92.8336 89.9375 92.0434 92.2181 89.755L92.2651 89.7081L92.312 89.6572C94.5848 87.3883 95.375 84.6931 96.2238 81.8335C96.6609 80.1494 97.2542 78.5098 97.9959 76.9359C98.0292 76.8681 98.0517 76.7955 98.0624 76.7207C98.6193 75.6693 99.3299 74.7068 100.171 73.8651C102.549 71.4828 105.444 70.6378 108.241 69.8163C111.038 68.9949 113.784 68.1929 116.065 65.9045C118.345 63.6161 119.124 60.9404 119.977 58.0808C120.829 55.2213 121.639 52.393 124.021 50.0146C124.94 49.1063 125.996 48.3485 127.151 47.7692C127.006 47.2567 126.854 46.7482 126.693 46.2397C125.271 46.921 123.976 47.8405 122.863 48.9584Z" fill="#001705" fill-opacity="0.25"/>
</svg>
