<svg width="156" height="777" viewBox="0 0 156 777" fill="none" xmlns="http://www.w3.org/2000/svg">
<path d="M66.9984 506.941L336.495 776.437L424.551 688.381L108.905 372.735C108.102 371.931 107.449 370.992 106.986 369.971C106.522 368.95 106.256 367.868 106.203 366.784C106.15 365.701 106.31 364.639 106.676 363.659C107.041 362.679 107.604 361.8 108.332 361.071L361.569 107.834C362.297 107.106 363.177 106.543 364.157 106.178C365.137 105.813 366.199 105.652 367.282 105.705C368.365 105.758 369.448 106.024 370.469 106.488C371.49 106.952 372.429 107.604 373.233 108.407L688.879 424.053L776.998 335.933L507.502 66.437C467.869 26.8039 415.589 3.06419 362.163 0.440482C308.737 -2.18327 258.541 16.5238 222.619 52.4465L53.0558 222.009C35.2578 239.794 21.4999 261.272 12.5681 285.217C3.63622 309.163 -0.294579 335.106 1.00018 361.566C2.29494 388.025 8.78988 414.483 20.114 439.427C31.4382 464.37 47.3697 487.312 66.9984 506.941Z" fill="#4CE467" fill-opacity="0.13"/>
</svg>
