<svg width="48" height="49" viewBox="0 0 48 49" fill="none" xmlns="http://www.w3.org/2000/svg">
<path d="M48 0.0175781H0V48.0176H48V0.0175781Z" fill="#766DFA"/>
<path d="M11.1751 22.2546H0.0390625V48.0001H11.1751V22.2546Z" fill="#4CE467"/>
<path d="M16.3066 0.0174738H0.0214844V11.1491H21.591C21.7791 11.1511 21.9591 11.2262 22.0928 11.3586C22.158 11.4239 22.2096 11.5015 22.2448 11.5869C22.28 11.6722 22.298 11.7636 22.2979 11.856V48.0175H33.4295V17.1229C33.4301 14.8738 32.9874 12.6466 32.1268 10.5686C31.2662 8.49062 30.0047 6.6025 28.4141 5.01232C26.8235 3.42214 24.9352 2.16104 22.857 1.301C20.7788 0.44095 18.5514 -0.00114449 16.3022 2.22507e-06L16.3066 0.0174738Z" fill="#4CE467"/>
</svg>
