<svg width="96" height="97" viewBox="0 0 96 97" fill="none" xmlns="http://www.w3.org/2000/svg">
<path d="M47.9995 48.0045V0.0219727L0.0169754 0.0219727V48.0045H47.9995Z" fill="#2B5243"/>
<path d="M0.0173587 0.109051C3.50519 3.57154 6.27277 7.69055 8.1602 12.2283C10.0476 16.7661 11.0176 21.6328 11.0142 26.5475V47.9825H21.6575V26.5475C21.6737 17.1015 18.8881 7.86277 13.6531 0H0L0.0173587 0.109051Z" fill="#FFC844"/>
<path d="M47.9997 15.071V0.0175781H37.3345V20.131C37.3345 20.3092 37.2637 20.48 37.1378 20.606C37.0118 20.732 36.8409 20.8028 36.6627 20.8028H0.0214844V31.468H31.6071C35.9551 31.4668 40.1247 29.7388 43.1987 26.6639C46.2728 23.589 47.9997 19.419 47.9997 15.071Z" fill="#FC805F"/>
<path d="M11.0142 26.5476V31.4506H21.6575V26.5476C21.6569 24.6219 21.5433 22.6979 21.3173 20.7854H10.5562C10.8547 22.6918 11.0079 24.6181 11.0142 26.5476Z" fill="#F3F1E5"/>
<path d="M96 48.0176H48V96.0176H96V48.0176Z" fill="#766DFA"/>
<path d="M59.1751 70.2546H48.0391V96.0001H59.1751V70.2546Z" fill="#4CE467"/>
<path d="M64.3066 48.0175H48.0215V59.1491H69.591C69.7791 59.1511 69.9591 59.2262 70.0928 59.3586C70.158 59.4239 70.2096 59.5015 70.2448 59.5869C70.28 59.6722 70.298 59.7636 70.2979 59.856V96.0175H81.4295V65.1229C81.4301 62.8738 80.9874 60.6466 80.1268 58.5686C79.2662 56.4906 78.0047 54.6025 76.4141 53.0123C74.8235 51.4221 72.9352 50.161 70.857 49.301C68.7788 48.4409 66.5514 47.9989 64.3022 48L64.3066 48.0175Z" fill="#4CE467"/>
</svg>
