<svg width="160" height="160" viewBox="0 0 160 160" fill="none" xmlns="http://www.w3.org/2000/svg">
<path d="M160 80.0293H80V160H160V80.0293Z" fill="#766DFA"/>
<path d="M98.625 117.077H80.0649V159.971H98.625V117.077Z" fill="#4CE467"/>
<path d="M107.178 80.0291H80.0359V98.5751H115.985C116.299 98.5784 116.599 98.7035 116.821 98.924C116.93 99.0329 117.016 99.1622 117.075 99.3044C117.133 99.4466 117.163 99.5989 117.163 99.7527V160H135.716V108.528C135.717 104.781 134.979 101.07 133.545 97.6079C132.11 94.1459 130.008 91.0001 127.357 88.3508C124.706 85.7015 121.559 83.6004 118.095 82.1675C114.631 80.7346 110.919 79.9981 107.17 80L107.178 80.0291Z" fill="#4CE467"/>
<path d="M0 30.1406V79.9925H60.0721C35.9952 68.976 15.2675 51.7748 0 30.1406Z" fill="#FC805F"/>
<path d="M80.0003 52.3685V0H20.2556C33.4228 23.9157 54.5671 42.4494 80.0003 52.3685Z" fill="#FC805F"/>
<path d="M79.9991 52.3755C54.5678 42.4533 33.4245 23.9204 20.2544 0.00708008H0V30.1334C15.2656 51.773 35.9934 68.9793 60.0721 79.9999H79.9991V52.3755Z" fill="#F3F1E5"/>
</svg>
