<svg xmlns="http://www.w3.org/2000/svg" id="Layer_1" viewBox="0 0 100 100"><defs><style>      .st0 {        fill: #ffc600;      }      .st1 {        fill: #7869ff;      }    </style></defs><g><path class="st1" d="M81.8,55.1c0,0-.2,0-.5-.2-1.1-.8-2.3-1.7-3.4-2.5-3.5-2.6-7.1-5.4-10.8-7.9-5.3-3.7-10.9-7.1-16.6-9.9-.7-.3-1.3-.5-1.9-.5s-.9,0-1.4.3c-.7.3-1.5.5-2.2.7l-.5.2c-.8.2-1.4.7-2,1.4-1.5,2.1-3.2,3.7-5.2,5-1.4.9-3,1.4-4.7,1.6-.2,0-.3,0-.4,0-.4,0-.9,0-1.1-.4-.2-.3-.2-.9,0-1.3.2-.8.7-1.6,1.1-2.4,1.9-3.4,4.2-6.7,6.9-9.9,1.1-1.3,2.6-1.7,4.2-2,3.2-.6,6.5-.9,9.9-.9h1.1c2.8,0,5.1.2,7.3.6.8.2,1.7.4,2.5.6.6.2,1.2.3,1.8.5,1.8.4,3.5.7,5,.7s3.1-.2,4.5-.7c0,0,0,0,.1,0h0s0,0,.1.2l7.1,12.6c1.6,2.9,3.3,5.9,5,8.8.2.4.2.5,0,.9-1.1,1.7-2.8,2.9-4.3,3.7-.2.1-.4.2-.6.3-.2.1-.5.2-.7.4-.1,0-.2.1-.3.1h0Z"></path><path class="st1" d="M92.4,51.8s-.1,0-.3-.4c-2.7-4.7-14.2-25.4-15.5-27.8,0-.1-.3-.5-.3-.6,0,0,.2-.2.6-.4,2.2-1.2,4.5-2.5,6.7-3.7,0,0,.2,0,.3-.1.1.1.2.2.3.4,1.2,2.2,2.5,4.4,3.7,6.6l11.9,21.3c.2.4.2.5.2.5,0,0,0,0-.5.3-2.3,1.3-4.5,2.5-6.8,3.8-.2.1-.3.2-.4.2h0Z"></path><path class="st1" d="M24.1,71.9c-.6,0-1.2-.2-1.7-.5-.7-.4-1.1-1.1-1.2-1.9-.2-.8,0-1.6.5-2.3,2-2.9,4-5.7,5.9-8.4.6-.9,1.4-1.3,2.4-1.3s.4,0,.6,0c1.2.2,2,.9,2.4,2.1,0,.2.1.4.1.7,0,.1,0,.2,0,.4,0,0,0,0,0,0,0,.1,0,.2-.1.4-.2.5-.3.9-.6,1.2-1.9,2.9-4,5.8-5.7,8.3-.6.9-1.5,1.4-2.5,1.4h0Z"></path><path class="st1" d="M31.6,76.9c-.6,0-1.2-.2-1.8-.6-1.3-.9-1.7-2.8-.8-4.1,1.5-2.2,3-4.4,4.5-6.4.6-.8,1.3-1.2,2.4-1.2s2.1.5,2.6,1.6c.6,1.1.5,2.1-.1,3.1-1.5,2.1-3,4.3-4.5,6.4-.6.8-1.5,1.3-2.4,1.3h0Z"></path><path class="st1" d="M39.1,81.2c-.7,0-1.6-.4-2.2-1.5-.6-1-.6-2.1,0-3,.9-1.3,1.8-2.7,2.8-4,.6-.7,1.4-1.2,2.4-1.2s1,.1,1.5.4c1.3.7,1.9,2.3,1.4,3.7-.2.4-.4.8-.7,1.2v.2c-.6.7-1,1.3-1.5,2l-.6.9c-.7.9-1.6,1.4-2.9,1.4h-.1s0,0,0,0Z"></path><path class="st1" d="M17.9,64.6c-.6,0-1.2-.2-1.7-.5-1.4-1-1.7-2.8-.8-4.2.5-.8,1.1-1.6,1.6-2.4.6-.8,1.5-1.2,2.5-1.2s.6,0,.9.1c1.3.4,2.1,1.5,2.3,2.9,0,.2-.1.4-.2.5-.2.5-.3.9-.5,1.3-.4.6-.8,1.3-1.3,1.9l-.2.3c-.6.8-1.5,1.3-2.5,1.3h0Z"></path></g><g><path class="st0" d="M55.1,80.4c-2.6,0-5.3-.6-8.7-1.9h0c.2-.3.4-.6.6-.9,1.2-2,1.3-4.1.1-6.1-1.1-1.9-2.8-2.9-5-2.9h-.5v-.3c.2-1.8-.3-3.5-1.4-4.7-1.1-1.2-2.7-1.9-4.5-1.9h-.1s0,0,0-.1c.7-2.9-1.3-6.1-4.2-6.8-.5-.1-1.1-.2-1.6-.2-1.9,0-3.6.9-4.8,2.5,0,0-.1.2-.2.2-.1-.2-.2-.5-.3-.7-1-2-3-3.2-5.2-3.2s-2.6.5-3.7,1.3c-.1.1-.2.1-.2.1,0,0,0,0-.2-.2-1.1-1.3-2.2-2.6-3.3-3.9-.2-.2-.2-.4,0-.7,2.9-5.3,5.9-10.5,8.8-15.8l3.2-5.7c0-.1.2-.3.2-.4,0,0,.2.2.3.2,1.7,1.2,3.6,1.7,5.3,2.1.9.2,1.9.3,2.8.5.4,0,1.2.2,1.2.2,0,0,0,0,0,0-1.8,2.5-3.7,5.3-5.2,8.5-.6,1.2-.7,2.5-.4,3.6.5,1.6,1.9,2.5,3.8,2.5s.2,0,.3,0c3.1-.2,6-1.4,8.6-3.7,1.3-1.1,2.4-2.5,3.4-3.6.5-.6.9-1,1.5-1.1.1,0,.2,0,.3-.1h.1c.9-.4,1.4-.5,1.7-.5s.8.2,1.8.7c4.3,2.1,8.8,4.7,13.7,7.9,5.1,3.4,10,7,14.6,10.8.9.8,2,1.7,2.8,2.7.6.7.7,1.7.3,2.6-.5,1.1-1.4,1.8-2.6,1.8h-.4c-.8,0-1.5-.2-2.2-.6-3.7-2.2-7.4-4.4-11.1-6.6l-3.6-2.1c-.2,0-.3-.2-.4-.2-.3-.1-.5-.2-.8-.2-.5,0-1,.3-1.3.8-.4.8-.2,1.6.6,2.1,1,.6,6.8,4.1,6.8,4.1,2.4,1.4,4.8,2.9,7.2,4.4.5.3.7.7.7,1.2,0,.9-.3,1.7-.8,2.3-.6.6-1.5,1-2.5,1s-.6,0-.9,0c-1-.2-1.8-.7-2.7-1.2-.2-.1-.4-.2-.6-.3-2.2-1.3-4.5-2.6-6.7-3.9l-3.1-1.8c-.5-.3-.9-.4-1.3-.4s-.9.1-1.2.7c-.2.4-.3.7-.2,1.1.1.5.5.9,1.2,1.3l11.1,6.3c.8.5,1,.9.7,1.7-.4,1.4-1.3,2.2-2.8,2.4-.2,0-.5,0-.7,0-.8,0-1.6-.2-2.5-.6l-8.8-4.3c-.2,0-.3-.2-.5-.2-.2,0-.4-.1-.6-.1-.6,0-1.1.3-1.3.8-.4.7-.1,1.6.5,2,.5.3,1.1.6,1.6.9l7.4,3.7c.2,0,.3.2.3.2,0,0,0,.2-.2.3-1.2,1.5-2.8,2.3-4.7,2.3h-.2,0Z"></path><path class="st0" d="M7.6,51.8s-.2,0-.4-.2c-2.3-1.2-4.5-2.5-6.8-3.8-.3-.2-.4-.3-.4-.3,0,0,0-.1.2-.4,0,0,15.5-27.8,15.7-28.2,0,0,.1-.2.2-.2s0,0,.2,0l1.6.9c1.8,1,3.7,2.1,5.5,3.1,0,0,.1.1.2.2,0,.1-.1.2-.2.4l-6.7,12-8.5,15.3c-.1.2-.3.5-.4.7-.2.3-.3.4-.3.4h0Z"></path></g></svg>