<svg xmlns="http://www.w3.org/2000/svg" id="Layer_1" viewBox="0 0 100 100"><defs><style>      .st0 {        fill: #766dfa;      }      .st1 {        fill: #ffc844;      }    </style></defs><path class="st1" d="M88.4,92.6H23.8v-2.9c-.3-7.2,0-14.5-1.2-21.6-.7-4.9-2.9-9.7-5.1-14.1-3.7-7.3-6-14.8-5.9-23v-15.6c0-4.7,3.3-8,7.6-7.9,4.2,0,7.4,3.3,7.5,7.9.1,6.9-.3,13.9.5,20.7,1.7,14.1,14,24.5,28.3,24.5s30.1,11.4,32.6,28.2c.2,1.2.2,2.5.3,4h0v-.2Z"></path><path class="st0" d="M55.3,11.8c11.4,0,20.5,9.3,20.4,20.7,0,11.2-9.5,20.4-20.6,20.2-11.3,0-20.3-9.3-20.2-20.6,0-11.3,9.2-20.4,20.5-20.3h0Z"></path></svg>