<svg xmlns="http://www.w3.org/2000/svg" id="Layer_1" viewBox="0 0 100 100"><defs><style>      .st0 {        fill: #766dfa;      }      .st1 {        fill: #ffc844;      }    </style></defs><g><g><path class="st0" d="M22.5,64.9c-12.5,0-22.5,10.1-22.5,22.5h45.1c0-12.5-10.1-22.5-22.5-22.5h0Z"></path><circle class="st0" cx="22.5" cy="53.6" r="11.3"></circle></g><g><path class="st0" d="M77.5,64.9c-12.5,0-22.5,10.1-22.5,22.5h45.1c0-12.5-10.1-22.5-22.5-22.5h0Z"></path><circle class="st0" cx="77.5" cy="53.6" r="11.3"></circle></g></g><g><circle class="st1" cx="50" cy="58.8" r="11.3"></circle><path class="st1" d="M50,70.1c-12.5,0-22.5,10.1-22.5,22.5h45.1c0-12.5-10.1-22.5-22.5-22.5h0Z"></path></g><polygon class="st0" points="50 7.4 55.2 17.9 66.8 19.6 58.4 27.7 60.4 39.3 50 33.8 39.6 39.3 41.6 27.7 33.2 19.6 44.8 17.9 50 7.4"></polygon></svg>