<svg width="211" height="211" viewBox="0 0 211 211" fill="none" xmlns="http://www.w3.org/2000/svg">
<g opacity="0.5">
<path d="M142.946 27.9375C145.242 30.2254 147.892 32.1281 150.794 33.5726V33.5726C151.714 34.0391 152.643 34.4631 153.58 34.8447L153.834 34.9464C154.184 35.0864 154.528 35.2263 154.878 35.3535L155.641 35.6397L156.124 35.8115L157.167 36.1676L157.282 36.2058C158.935 36.7528 160.589 37.2425 162.217 37.7195C168.202 39.4749 173.85 41.1286 178.379 45.6571C182.907 50.1856 184.561 55.8334 186.316 61.8184C186.8 63.4657 187.289 65.1321 187.849 66.8048C187.97 67.1801 188.103 67.5554 188.231 67.9306C188.281 68.0642 188.332 68.1977 188.377 68.3313L188.682 69.1645C188.803 69.4825 188.93 69.8005 189.051 70.1058C189.102 70.2203 189.146 70.3348 189.191 70.4556C189.573 71.3842 189.997 72.3064 190.463 73.2223L190.463 73.2668C191.908 76.1688 193.81 78.8189 196.098 81.1153C200.55 85.5675 205.588 87.7999 210.65 89.46L210.65 86.7759C206.154 85.2304 201.746 83.157 197.892 79.3154C195.701 77.1019 193.894 74.5399 192.543 71.734C192.522 71.6861 192.499 71.6394 192.473 71.5941C190.939 68.2036 189.69 64.6913 188.739 61.0934C186.895 54.784 185.146 48.8308 180.159 43.8381C175.173 38.8516 169.22 37.1025 162.91 35.2581C159.314 34.3103 155.803 33.0615 152.416 31.5246L152.27 31.4547C149.462 30.104 146.9 28.2941 144.688 26.0994C139.289 20.6995 137.381 14.1867 135.536 7.88368C134.773 5.27599 134.022 2.73826 133.062 0.295932L130.302 0.295932C131.395 2.99425 132.328 5.75522 133.094 8.56423C135.084 15.2425 137.088 22.0797 142.946 27.9375Z" fill="#766DFA"/>
<path d="M8.31388 2.94841C12.8424 7.48325 14.496 13.1248 16.2514 19.1225C18.1595 25.7307 20.1884 32.5616 26.0462 38.4258C31.904 44.2899 38.7348 46.287 45.3558 48.1951C51.3408 49.9505 56.9886 51.6041 61.5235 56.1326C66.0583 60.6611 67.7057 66.309 69.4611 72.3067C71.3692 78.915 73.398 85.7459 79.2558 91.6036C81.5538 93.8913 84.2036 95.796 87.1044 97.2451V97.2451C88.0287 97.7073 88.9573 98.1313 89.8901 98.5172L90.1636 98.6253L91.1812 99.0196L91.9635 99.3059L92.4279 99.4776L93.49 99.8401L93.579 99.8719C95.2391 100.419 96.8927 100.909 98.5273 101.386C104.512 103.141 110.16 104.795 114.689 109.323C119.217 113.852 120.871 119.5 122.626 125.485C123.103 127.132 123.599 128.805 124.153 130.477C124.271 130.85 124.399 131.226 124.534 131.603L124.681 132.004L124.986 132.843C125.107 133.155 125.227 133.479 125.355 133.772C125.399 133.893 125.444 134.007 125.495 134.128C125.876 135.057 126.3 135.979 126.767 136.895L126.767 136.939C128.211 139.84 130.112 142.49 132.396 144.788C138.26 150.646 145.116 152.649 151.705 154.583C157.69 156.338 163.344 157.992 167.873 162.52C172.401 167.049 174.055 172.697 175.81 178.688C177.718 185.302 179.747 192.133 185.605 197.998C191.463 203.862 198.377 205.929 204.985 207.837C206.944 208.409 208.865 208.975 210.709 209.63L210.709 206.94C209.068 206.387 207.395 205.897 205.691 205.394C199.388 203.55 192.869 201.642 187.469 196.242C182.069 190.842 180.161 184.323 178.316 178.02C176.472 171.717 174.723 165.758 169.73 160.771C164.737 155.785 158.79 154.036 152.481 152.185C146.172 150.334 139.659 148.432 134.259 143.032C132.067 140.821 130.259 138.258 128.91 135.451C128.886 135.408 128.865 135.363 128.847 135.317C127.308 131.926 126.057 128.411 125.107 124.81C123.256 118.507 121.513 112.548 116.527 107.561C111.54 102.575 105.581 100.832 99.2778 98.9815C95.6854 98.0359 92.1791 96.7891 88.7961 95.2544L88.6308 95.1717C85.8263 93.8243 83.2662 92.0187 81.0558 89.8291C75.656 84.4293 73.7479 77.91 71.897 71.6007C70.0462 65.2914 68.3099 59.3445 63.3171 54.3518C58.3243 49.359 52.3712 47.6227 46.0682 45.7718C39.7652 43.921 33.2459 42.0193 27.8461 36.6195C22.4463 31.2196 20.5382 24.7004 18.6937 18.3974C16.8493 12.0944 15.1002 6.13491 10.1074 1.14849C9.82758 0.864401 9.54139 0.590886 9.24882 0.327997L5.13377 0.327996C6.27314 1.10047 7.33781 1.97775 8.31388 2.94841Z" fill="#766DFA"/>
<path d="M172.025 12.342L172.063 12.342C172.979 12.8063 173.914 13.2324 174.849 13.614C174.925 13.6522 175.002 13.6776 175.084 13.7094C175.434 13.8557 175.79 13.9956 176.14 14.1292L176.891 14.4027L177.393 14.5808L178.417 14.9306L178.551 14.9751C180.204 15.5285 181.852 16.0118 183.48 16.4889C189.465 18.2443 195.113 19.8979 199.648 24.4264C204.182 28.9549 205.823 34.6028 207.579 40.6005C208.17 42.6103 208.775 44.6583 209.487 46.7063L209.627 47.107C209.729 47.3868 209.83 47.6667 209.938 47.9465C210.047 48.2264 210.18 48.5826 210.307 48.8879L210.441 49.2313L210.695 49.8101L210.695 42.1778C210.466 41.4146 210.237 40.6513 210.015 39.8881C208.17 33.5788 206.421 27.6256 201.435 22.6328C196.442 17.6464 190.489 15.8973 184.18 14.0529C180.584 13.108 177.075 11.859 173.691 10.3194L173.532 10.2431C170.728 8.89276 168.168 7.08506 165.958 4.89413C164.574 3.50879 163.348 1.9752 162.3 0.321126L159.317 0.321126C160.638 2.64902 162.266 4.78835 164.158 6.68135C166.458 8.97994 169.115 10.8915 172.025 12.342V12.342Z" fill="#766DFA"/>
<path d="M66.5824 26.9896C72.5674 28.745 78.2152 30.3987 82.7501 34.9272C87.2849 39.4557 88.9322 45.1035 90.6876 51.0949C92.5957 57.7032 94.6246 64.5404 100.482 70.3982C102.78 72.6858 105.43 74.5905 108.331 76.0397C109.253 76.5104 110.182 76.9301 111.123 77.3118L111.358 77.4008C111.708 77.5471 112.058 77.687 112.414 77.8206L113.165 78.0941L113.667 78.2721L114.691 78.6283L114.825 78.6728C116.478 79.2198 118.126 79.7032 119.754 80.1802C125.739 81.9356 131.387 83.5893 135.915 88.1178C140.444 92.6463 142.097 98.2941 143.853 104.285C144.444 106.302 145.049 108.356 145.761 110.404C145.812 110.531 145.856 110.665 145.907 110.792L146.212 111.638L146.575 112.56L146.721 112.923C147.103 113.858 147.529 114.78 147.993 115.702C147.992 115.713 147.992 115.723 147.993 115.734V115.734C149.443 118.635 151.347 121.284 153.635 123.582C159.493 129.44 166.355 131.444 172.938 133.377C178.923 135.133 184.577 136.786 189.106 141.315C193.634 145.843 195.288 151.491 197.043 157.482C198.951 164.097 200.98 170.928 206.838 176.792C208.019 177.957 209.295 179.021 210.654 179.972L210.654 176.792C209.954 176.225 209.283 175.622 208.644 174.986C203.245 169.586 201.337 163.067 199.492 156.764C197.648 150.461 195.899 144.501 190.912 139.508C185.926 134.516 179.966 132.779 173.657 130.928C167.347 129.078 160.841 127.176 155.435 121.776C153.244 119.563 151.437 117.001 150.086 114.195C150.086 114.15 150.041 114.099 150.016 114.048C148.475 110.663 147.226 107.152 146.282 103.554C144.432 97.251 142.689 91.2915 137.702 86.3051C132.716 81.3187 126.757 79.576 120.454 77.7251C116.858 76.7813 113.349 75.5323 109.966 73.9917L109.807 73.9217C107.004 72.5692 104.444 70.7617 102.231 68.5728C96.8316 63.1666 94.9236 56.6537 93.0791 50.3507C91.2346 44.0478 89.4856 38.0882 84.4991 33.0954C79.5127 28.1027 73.5532 26.3663 67.2438 24.5155C60.9345 22.6647 54.4217 20.763 49.0219 15.3631C44.5252 10.8601 42.4454 5.5811 40.8108 0.30211L38.1522 0.30211C39.914 6.13444 42.0828 12.0176 47.2219 17.1567C53.1369 23.0526 59.9678 25.0561 66.5824 26.9896Z" fill="#766DFA"/>
<path d="M103.983 13.6968C108.511 18.2253 110.165 23.8731 111.921 29.8645C113.829 36.4791 115.858 43.31 121.715 49.1678C124.013 51.4555 126.663 53.3601 129.564 54.8093V54.8093L129.596 54.8093C130.516 55.2757 131.446 55.6997 132.388 56.0814L132.623 56.1704C132.973 56.3167 133.323 56.4566 133.679 56.5902L134.436 56.8636L134.926 57.0417L135.975 57.3979L136.077 57.4361C137.73 57.9831 139.39 58.4728 141.019 58.9498C147.004 60.7052 152.651 62.3589 157.18 66.881C161.708 71.4031 163.362 77.0574 165.117 83.0614C165.601 84.7024 166.091 86.3624 166.644 88.0351L167.026 89.1545C167.076 89.2881 167.127 89.4217 167.172 89.5552L167.477 90.3948C167.598 90.7064 167.725 91.0308 167.846 91.3361C167.897 91.4506 167.941 91.565 167.986 91.6795C168.368 92.6081 168.787 93.5367 169.258 94.4462L169.258 94.4907C170.702 97.3927 172.605 100.043 174.893 102.339C180.751 108.197 187.582 110.201 194.196 112.134C200.181 113.889 205.836 115.543 210.364 120.072C210.472 120.18 210.568 120.294 210.676 120.402L210.676 116.917C206.007 112.954 200.601 111.358 194.909 109.692C188.606 107.847 182.093 105.939 176.687 100.539C174.496 98.3258 172.689 95.7638 171.338 92.9579L171.274 92.8244C169.735 89.433 168.484 85.9183 167.534 82.3173C165.684 76.0079 163.941 70.0548 158.954 65.062C153.968 60.0756 148.015 58.3265 141.706 56.4821C138.115 55.5375 134.611 54.2906 131.23 52.7549L131.059 52.6722C128.255 51.3235 125.695 49.5181 123.483 47.3297C118.084 41.9235 116.176 35.4106 114.331 29.1012C112.487 22.7919 110.738 16.8451 105.751 11.8523C100.765 6.85953 94.8052 5.12319 88.4958 3.27236C85.4927 2.45315 82.5407 1.45709 79.6551 0.289413L74.0518 0.289413C78.4658 2.97979 83.1787 4.36634 87.7835 5.71471C93.8003 7.48921 99.4545 9.1683 103.983 13.6968Z" fill="#766DFA"/>
<path d="M65.23 199.161L65.1601 199.027C63.6194 195.637 62.3704 192.122 61.4266 188.52C59.5758 182.217 57.8331 176.258 52.8403 171.271C47.8539 166.278 41.8943 164.536 35.585 162.685C31.9895 161.74 28.4808 160.491 25.097 158.951L24.9443 158.881C22.1382 157.534 19.5777 155.726 17.3693 153.532C11.9695 148.133 10.0614 141.613 8.21056 135.31C6.42334 129.192 4.71877 123.41 0.0694406 118.519L0.0694403 122.482C2.97606 126.489 4.34351 131.144 5.79364 136.029C7.70171 142.637 9.737 149.468 15.5948 155.332C17.8946 157.616 20.5441 159.519 23.4433 160.968V160.968L23.4815 160.968C24.4037 161.432 25.3323 161.852 26.2673 162.24L26.5534 162.354L27.552 162.748L28.3471 163.035L28.7986 163.2L29.8672 163.563L29.9498 163.594C31.6098 164.141 33.2698 164.631 34.9044 165.114C40.883 166.864 46.5373 168.517 51.0658 173.046C55.5943 177.574 57.2479 183.222 59.0033 189.22C59.4803 190.854 59.9701 192.514 60.5234 194.181L60.5234 194.225C60.6443 194.594 60.7651 194.957 60.8987 195.319C60.9432 195.465 61.0004 195.605 61.0513 195.745C61.1467 196.019 61.2485 196.292 61.3503 196.566C61.452 196.839 61.5983 197.202 61.7255 197.52L61.8591 197.851C62.2407 198.779 62.6604 199.708 63.1311 200.624L63.1311 200.662C64.5815 203.558 66.4837 206.205 68.7662 208.504C69.6452 209.377 70.5777 210.195 71.5584 210.953L76.0996 210.953C74.0799 209.781 72.2201 208.353 70.5662 206.704C68.3818 204.503 66.5785 201.953 65.23 199.161V199.161Z" fill="#766DFA"/>
<path d="M2.88493 90.6817C8.86991 92.4372 14.5242 94.0908 19.0527 98.6193C23.5811 103.148 25.2411 108.796 26.9902 114.787C28.8983 121.402 30.9335 128.233 36.7913 134.097C39.0911 136.38 41.7406 138.283 44.6398 139.732C45.5621 140.196 46.4907 140.616 47.4256 141.004L47.6609 141.093C48.0171 141.239 48.3669 141.379 48.723 141.513L49.4736 141.786L49.9697 141.971L51.0001 142.32L51.1272 142.365C52.7809 142.912 54.4346 143.402 56.0628 143.879C62.0477 145.628 67.6956 147.281 72.2241 151.81C76.7526 156.338 78.4062 161.986 80.1553 167.978C80.6387 169.619 81.1348 171.285 81.6881 172.958C81.809 173.327 81.9362 173.695 82.0697 174.071C82.1143 174.204 82.1651 174.344 82.216 174.484L82.5213 175.311C82.6421 175.629 82.7693 175.947 82.8965 176.259C82.941 176.373 82.9793 176.481 83.0301 176.596C83.4118 177.524 83.8315 178.453 84.3022 179.369L84.3022 179.407C85.7512 182.306 87.6535 184.956 89.9373 187.255C95.8015 193.113 102.658 195.117 109.247 197.05C115.232 198.806 120.88 200.466 125.415 204.994C127.136 206.737 128.57 208.742 129.663 210.935L132.5 210.935C131.218 208.056 129.425 205.434 127.208 203.194C122.222 198.201 116.269 196.459 109.959 194.608C103.65 192.757 97.1371 190.855 91.7373 185.455C89.567 183.261 87.7747 180.723 86.4328 177.944L86.3629 177.804C84.8233 174.416 83.5743 170.903 82.6294 167.303C80.7786 161 79.0359 155.041 74.0431 150.054C69.0567 145.068 63.0972 143.325 56.7942 141.475C53.1977 140.529 49.6871 139.282 46.2998 137.747L46.1472 137.671C43.3423 136.322 40.7821 134.514 38.5722 132.322C33.1723 126.922 31.2642 120.403 29.4134 114.1C27.5626 107.797 25.8263 101.838 20.8335 96.8512C15.8407 91.8647 9.88753 90.1157 3.58454 88.2649C2.4079 87.9214 1.22493 87.578 0.0419322 87.2027L0.041932 89.8676L2.88493 90.6817Z" fill="#766DFA"/>
<path d="M31.6098 192.502C26.617 187.509 20.6638 185.767 14.3545 183.916C10.76 182.97 7.25156 181.724 3.86648 180.189L3.71376 180.112C2.4518 179.493 1.23411 178.788 0.0693668 178.001L0.0693666 181.028C0.768992 181.448 1.47503 181.836 2.18737 182.199L2.22549 182.199C3.14773 182.663 4.07632 183.083 5.01128 183.471L5.27207 183.572L6.30242 183.979L7.07198 184.259L7.549 184.431L8.59845 184.793L8.7066 184.825C10.3603 185.379 12.0139 185.868 13.6485 186.345C19.6271 188.094 25.2813 189.748 29.8098 194.277C34.3383 198.805 35.9919 204.453 37.7473 210.451L37.9 210.972L40.5586 210.972C40.4377 210.559 40.3106 210.145 40.1897 209.732C38.3453 203.448 36.6026 197.488 31.6098 192.502Z" fill="#766DFA"/>
<path d="M0.061687 210.107C0.742231 210.38 1.41007 210.673 2.06517 210.991L7.11523 210.991C4.92748 209.488 2.5572 208.27 0.0616872 207.365L0.061687 210.107Z" fill="#766DFA"/>
<path d="M4.8156 59.6429C10.6797 65.5007 17.536 67.5042 24.1252 69.4377C30.1039 71.1931 35.7581 72.8467 40.2929 77.3752C44.8277 81.9037 46.4751 87.5516 48.2305 93.5429C50.1386 100.158 52.1674 106.988 58.0252 112.853C60.325 115.136 62.9746 117.039 65.8738 118.488V118.488C66.796 118.958 67.7246 119.378 68.6659 119.76L68.8885 119.849C69.2447 119.997 69.6008 120.137 69.957 120.269L70.7075 120.542L71.21 120.72C71.5535 120.847 71.8969 120.962 72.2404 121.076L72.3612 121.115C74.0148 121.668 75.6685 122.151 77.2967 122.635C83.2817 124.384 88.9296 126.037 93.4581 130.566C97.9866 135.094 99.6402 140.742 101.396 146.74C101.987 148.756 102.591 150.804 103.304 152.852L103.437 153.234C103.539 153.52 103.641 153.806 103.749 154.092C103.857 154.379 103.991 154.728 104.118 155.021C104.162 155.135 104.207 155.256 104.258 155.371C104.639 156.304 105.063 157.23 105.53 158.15C106.979 161.049 108.881 163.699 111.165 165.999C117.029 171.856 123.885 173.86 130.475 175.793C136.46 177.549 142.114 179.202 146.642 183.731C151.171 188.259 152.824 193.907 154.58 199.905C155.573 203.678 156.888 207.36 158.51 210.908L161.379 210.908C159.35 207.13 158.199 203.117 157.022 199.186C155.171 192.883 153.429 186.924 148.436 181.937C143.443 176.951 137.496 175.202 131.187 173.351C124.878 171.5 118.365 169.599 112.965 164.199C110.774 161.985 108.967 159.423 107.616 156.617L107.546 156.477C106.006 153.089 104.757 149.576 103.812 145.977C101.962 139.674 100.219 133.714 95.2325 128.728C90.2461 123.741 84.2866 121.999 77.9836 120.148C74.3912 119.202 70.8849 117.955 67.502 116.421L67.3366 116.344C64.5317 114.995 61.9716 113.187 59.7616 110.995C54.3618 105.596 52.4537 99.0763 50.6029 92.7734C48.752 86.4704 47.0157 80.5108 42.0229 75.5181C37.0302 70.5253 31.077 68.7889 24.774 66.9381C18.471 65.0872 11.9518 63.1856 6.55193 57.7857C3.67652 54.8433 1.44544 51.3343 0.000866351 47.4822L0.000865837 53.359C1.31659 55.6601 2.93606 57.7738 4.8156 59.6429V59.6429Z" fill="#766DFA"/>
</g>
</svg>
