<svg width="129" height="161" viewBox="0 0 129 161" fill="none" xmlns="http://www.w3.org/2000/svg">
<g opacity="0.1">
<path d="M45.041 114.972C43.069 111.372 41.2101 107.972 41.2101 103.752C41.2101 99.5314 43.069 96.1318 45.041 92.5312C47.2139 88.5538 49.4622 84.4424 49.4622 78.9871C49.4622 73.5317 47.2139 69.4162 45.0368 65.4388C43.069 61.8382 41.2101 58.4343 41.2059 54.2183C41.2018 50.0022 43.069 46.6026 45.041 42.9978C47.2139 39.0204 49.4622 34.909 49.4622 29.4537C49.4622 23.9984 47.2139 19.8828 45.041 15.9054C43.069 12.3048 41.2101 8.90096 41.2059 4.68491C41.2084 4.0617 41.2517 3.4393 41.3357 2.82178C40.7496 2.99343 40.1718 3.17348 39.594 3.36188C39.5564 3.78056 39.5312 4.23274 39.5312 4.68491C39.5312 9.32801 41.4948 12.9119 43.5715 16.7092C45.6481 20.5066 47.7875 24.4254 47.7875 29.4537C47.7875 34.482 45.6439 38.4008 43.5673 42.194C41.4906 45.9871 39.5312 49.5752 39.5312 54.2183C39.5312 58.8614 41.4948 62.4495 43.5715 66.2426C45.6481 70.0358 47.7875 73.9588 47.7875 78.9871C47.7875 84.0154 45.6439 87.9342 43.5715 91.7274C41.499 95.5206 39.5354 99.1086 39.5354 103.752C39.5354 108.395 41.4948 111.983 43.5715 115.776C45.6481 119.569 47.7875 123.492 47.7875 128.52C47.7426 131.461 47.0523 134.355 45.7653 136.999C46.3221 137.124 46.8832 137.241 47.44 137.35C48.7389 134.586 49.4271 131.575 49.458 128.52C49.4622 123.065 47.2139 118.95 45.041 114.972Z" fill="#766DFA"/>
<path d="M64.8024 114.972C62.8347 111.372 60.9716 107.972 60.9716 103.752C60.9716 99.5315 62.8347 96.1319 64.8024 92.5313C66.9795 88.5539 69.2278 84.4425 69.2278 78.9872C69.2278 73.5318 66.9795 69.4163 64.8024 65.4389C62.8347 61.8382 60.9716 58.4344 60.9716 54.2184C60.9716 50.0023 62.8347 46.6027 64.8024 42.9979C66.9795 39.0205 69.2278 34.9091 69.2278 29.4538C69.2278 23.9985 66.9879 19.9038 64.8024 15.9054C62.8347 12.3007 60.9716 8.90105 60.9716 4.68499C60.9813 3.09262 61.2412 1.51164 61.7419 0H60.9548C60.6283 0 60.3017 0 59.9793 0C59.5306 1.51704 59.3008 3.09041 59.2969 4.67242C59.2969 9.31552 61.2605 12.8994 63.3371 16.6967C65.4137 20.4941 67.5531 24.4129 67.5531 29.4412C67.5531 34.4695 65.4095 38.3883 63.3329 42.1815C61.2563 45.9747 59.2969 49.5627 59.2969 54.2058C59.2969 58.8489 61.2605 62.437 63.3329 66.2301C65.4053 70.0233 67.5531 73.9463 67.5531 78.9746C67.5531 84.0029 65.4095 87.9217 63.3329 91.7149C61.2563 95.5081 59.2969 99.0961 59.2969 103.739C59.2969 108.382 61.2605 111.97 63.3329 115.764C65.4053 119.557 67.5531 123.48 67.5531 128.508C67.5531 132.406 66.2636 135.625 64.7187 138.661H66.5944C68.0597 135.672 69.2278 132.439 69.2278 128.508C69.2278 123.065 66.9879 118.95 64.8024 114.972Z" fill="#766DFA"/>
<path d="M119.276 0C118.824 1.52069 118.593 3.09851 118.59 4.68499C118.59 9.3281 120.553 12.9119 122.63 16.7093C124.706 20.5067 126.858 24.4255 126.858 29.4538C126.858 34.4821 124.715 38.4008 122.638 42.194C120.562 45.9872 118.602 49.5753 118.602 54.2184C118.602 58.8615 120.566 62.4495 122.638 66.2427C124.711 70.0359 126.858 73.9589 126.858 78.9872C126.858 84.0154 124.715 87.9342 122.642 91.7274C120.57 95.5206 118.606 99.1087 118.606 103.752C118.606 108.395 120.566 111.983 122.642 115.776C124.719 119.569 126.858 123.492 126.858 128.521C126.858 132.418 125.569 135.638 124.024 138.673H125.9C127.365 135.684 128.533 132.452 128.533 128.521C128.533 123.078 126.285 118.95 124.112 114.972C122.14 111.372 120.281 107.972 120.281 103.752C120.281 99.5315 122.14 96.1319 124.112 92.5313C126.285 88.5539 128.533 84.4425 128.533 78.9872C128.533 73.5318 126.285 69.4163 124.108 65.4389C122.14 61.8382 120.281 58.4344 120.277 54.2184C120.273 50.0023 122.14 46.6027 124.108 42.9979C126.285 39.0205 128.533 34.9091 128.533 29.4538C128.533 23.9985 126.285 19.8828 124.108 15.9054C122.14 12.3048 120.281 8.90105 120.277 4.68499C120.287 3.09262 120.547 1.51164 121.047 0H119.276Z" fill="#766DFA"/>
<path d="M25.2753 114.972C23.3034 111.372 21.4445 107.968 21.4445 103.752C21.4445 99.5356 23.3034 96.136 25.2753 92.5312C27.4483 88.5538 29.7007 84.4424 29.7007 78.9871C29.7007 73.5317 27.4483 69.4162 25.2753 65.4388C23.3034 61.8382 21.4445 58.4343 21.4445 54.2183C21.4445 50.0022 23.3034 46.5984 25.2753 42.9978C27.4483 39.0204 29.7007 34.909 29.7007 29.4537C29.7007 23.9984 27.4483 19.8828 25.2753 15.9053C24.438 14.373 23.6006 12.8742 22.9559 11.3376C22.4786 11.6475 22.0097 11.9656 21.5408 12.2922C22.2065 13.7827 22.9977 15.2229 23.8058 16.7092C25.8782 20.5024 28.026 24.4254 28.026 29.4537C28.026 34.482 25.8782 38.4007 23.8058 42.1939C21.7334 45.9871 19.7698 49.5752 19.7698 54.2183C19.7698 58.8614 21.7292 62.4494 23.8058 66.2426C25.8824 70.0358 28.026 73.9588 28.026 78.9871C28.026 84.0153 25.8782 87.9342 23.8058 91.7273C21.7334 95.5205 19.7698 99.1086 19.7698 103.752C19.7698 108.395 21.7292 111.983 23.8058 115.776C25.8824 119.569 28.026 123.492 28.026 128.52C28.0261 129.12 27.994 129.72 27.9297 130.317C28.4573 130.601 28.9848 130.878 29.5165 131.154C29.6366 130.283 29.6982 129.404 29.7007 128.525C29.7007 123.065 27.4483 118.95 25.2753 114.972Z" fill="#766DFA"/>
<path d="M84.572 114.972C82.6042 111.372 80.7411 107.972 80.7411 103.752C80.7411 99.5315 82.6042 96.1319 84.572 92.5313C86.7491 88.5539 88.9974 84.4425 88.9974 78.9872C88.9974 73.5318 86.7491 69.4163 84.572 65.4389C82.6 61.8382 80.7411 58.4344 80.7411 54.2184C80.7411 50.0023 82.6 46.5985 84.572 42.9979C86.7491 39.0205 88.9974 34.9091 88.9974 29.4538C88.9974 23.9985 86.7449 19.9038 84.572 15.9054C82.6 12.3048 80.7411 8.90105 80.7411 4.68499C80.7494 3.09284 81.008 1.51187 81.5073 0H79.753C79.3008 1.52069 79.0696 3.09851 79.0664 4.68499C79.0664 9.3281 81.0258 12.9161 83.1024 16.7093C85.179 20.5025 87.3227 24.4255 87.3227 29.4538C87.3227 34.4821 85.179 38.4008 83.1024 42.194C81.0258 45.9872 79.0664 49.5753 79.0664 54.2184C79.0664 58.8615 81.0258 62.4495 83.1024 66.2427C85.179 70.0359 87.3227 73.9589 87.3227 78.9872C87.3227 84.0154 85.179 87.9342 83.1024 91.7274C81.0258 95.5206 79.0664 99.1087 79.0664 103.752C79.0664 108.395 81.0258 111.983 83.1024 115.776C85.179 119.569 87.3227 123.492 87.3227 128.521C87.3227 132.418 86.0331 135.638 84.4882 138.673H86.3597C87.8293 135.684 88.9974 132.452 88.9974 128.521C88.9932 123.065 86.7449 118.954 84.572 114.972Z" fill="#766DFA"/>
<path d="M8.26045 29.4538C8.26045 34.4779 6.11683 38.4009 4.04021 42.1941C1.96358 45.9872 0 49.5753 0 54.2351C0 58.895 1.9594 62.4663 4.03602 66.2595C6.11265 70.0527 8.25626 73.9757 8.25626 79.0039C8.25626 84.0322 6.11265 87.951 4.03602 91.7442C2.15199 95.1941 0.364249 98.4723 0.0544297 102.529C0.612662 103.542 1.19043 104.54 1.78774 105.523C1.71358 104.941 1.67583 104.355 1.6747 103.769C1.6747 99.5525 3.5378 96.1528 5.50557 92.548C7.68267 88.5706 9.93096 84.4593 9.93096 79.0039C9.93096 73.5486 7.68267 69.433 5.50557 65.4556C3.53361 61.855 1.6747 58.4512 1.6747 54.2351C1.6747 50.0191 3.53361 46.6152 5.50557 43.0146C7.68267 39.0372 9.93096 34.9259 9.93096 29.4705C9.9273 27.4297 9.60813 25.4017 8.98475 23.4584C8.54096 23.958 8.10414 24.4646 7.6743 24.9782C8.05898 26.4391 8.25595 27.9431 8.26045 29.4538Z" fill="#766DFA"/>
<path d="M104.333 114.972C102.362 111.372 100.503 107.972 100.503 103.752C100.503 99.5315 102.362 96.136 104.333 92.5313C106.506 88.5539 108.759 84.4425 108.759 78.9872C108.759 73.5318 106.506 69.4163 104.333 65.4389C102.362 61.8382 100.503 58.4344 100.503 54.2184C100.503 50.0023 102.362 46.5985 104.333 42.9979C106.506 39.0205 108.759 34.9091 108.759 29.4538C108.759 23.9985 106.506 19.8828 104.333 15.9054C102.362 12.3048 100.503 8.90105 100.503 4.68499C100.511 3.09284 100.769 1.51187 101.269 0H99.5103C99.0616 1.52134 98.8318 3.09886 98.8279 4.68499C98.8279 9.3281 100.787 12.9119 102.864 16.7093C104.941 20.5067 107.084 24.4255 107.084 29.4538C107.084 34.4821 104.936 38.4008 102.864 42.194C100.791 45.9872 98.8279 49.5753 98.8279 54.2184C98.8279 58.8615 100.787 62.4495 102.864 66.2427C104.941 70.0359 107.084 73.9589 107.084 78.9872C107.084 84.0154 104.936 87.9342 102.864 91.7274C100.791 95.5206 98.8279 99.1087 98.8279 103.752C98.8279 108.395 100.787 111.983 102.864 115.776C104.941 119.569 107.084 123.492 107.084 128.521C107.084 132.418 105.795 135.638 104.246 138.673H106.121C107.587 135.684 108.759 132.452 108.759 128.521C108.759 123.065 106.506 118.954 104.333 114.972Z" fill="#766DFA"/>
</g>
<path d="M81 65H33V113H81V65Z" fill="#766DFA"/>
<path d="M53.3385 65.48L41.8229 82.472C40.6137 84.2541 39.7673 86.257 39.3321 88.3662C38.897 90.4755 38.8815 92.6497 39.2867 94.7649C39.692 96.8801 40.5098 98.8947 41.6937 100.694C42.8775 102.493 44.4043 104.041 46.1865 105.25L57.6236 113H76.6403L47.9799 93.5818C47.9064 93.5327 47.8433 93.4694 47.7945 93.3957C47.7456 93.322 47.7118 93.2393 47.6952 93.1524C47.6785 93.0655 47.6793 92.9761 47.6975 92.8896C47.7157 92.803 47.7509 92.7209 47.8011 92.648L64.9981 67.2691C65.0472 67.1961 65.1103 67.1336 65.1837 67.0851C65.2571 67.0366 65.3393 67.0031 65.4256 66.9864C65.512 66.9698 65.6008 66.9704 65.687 66.9882C65.7731 67.006 65.8549 67.0407 65.9276 67.0902L80.9734 77.2836V65H53.6876C53.5741 65.1571 53.4607 65.3186 53.3385 65.48Z" fill="#FC805F"/>
<path d="M81.0002 103.051V90.1653L68.2235 81.5078L62.2366 90.3398L81.0002 103.051Z" fill="#F3F1E5"/>
<path d="M129 113H81V161H129V113Z" fill="#2B5243"/>
<path d="M81 150.335V161C93.7304 161 105.939 155.943 114.941 146.941C123.943 137.939 129 125.73 129 113H118.331C118.331 122.901 114.398 132.397 107.397 139.399C100.396 146.4 90.9012 150.334 81 150.335Z" fill="#766DFA"/>
<path d="M96.0545 113H81V123.669H101.121C101.299 123.669 101.47 123.74 101.596 123.866C101.722 123.992 101.793 124.163 101.793 124.341V160.996H112.457V129.399C112.456 125.049 110.728 120.878 107.652 117.803C104.576 114.728 100.404 113 96.0545 113Z" fill="#4CE467"/>
<path d="M112.457 149.258V133.112C109.686 137.44 106.056 141.153 101.792 144.021V156.287C105.643 154.427 109.229 152.063 112.457 149.258Z" fill="#F3F1E5"/>
</svg>
