<svg width="160" height="160" viewBox="0 0 160 160" fill="none" xmlns="http://www.w3.org/2000/svg">
<path d="M0.0419922 30.1465L0.0419922 80.0001H60.1104C36.0334 68.9779 15.3075 51.7765 0.0419922 30.1465Z" fill="#FC805F"/>
<path d="M80.0423 52.374V0L20.2959 0C33.4608 23.913 54.6053 42.4485 80.0423 52.374Z" fill="#FC805F"/>
<path d="M80.0408 52.3745C54.6037 42.4489 33.4592 23.9135 20.2943 0.000488281L0.0419922 0.000488281L0.0419922 30.12C15.3075 51.75 36.0334 68.9514 60.1104 79.9736H80.0408L80.0408 52.3745Z" fill="#F3F1E5"/>
<path d="M160 79.7354L80 79.7354L80 159.717H160V79.7354Z" fill="#766DFA"/>
<path d="M98.5976 116.797H80.0352V159.719H98.5976V116.797Z" fill="#4CE467"/>
<path d="M107.178 79.7354H80.0352V98.291H115.99C116.302 98.291 116.601 98.4151 116.822 98.6358C117.043 98.8566 117.167 99.156 117.167 99.4681V159.735H135.727V108.27C135.727 104.523 134.989 100.811 133.554 97.3489C132.119 93.8864 130.016 90.7404 127.365 88.0906C124.714 85.4408 121.567 83.3391 118.103 81.9054C114.639 80.4718 110.927 79.7344 107.178 79.7354Z" fill="#4CE467"/>
</svg>
