<svg xmlns="http://www.w3.org/2000/svg" xmlns:xlink="http://www.w3.org/1999/xlink" id="Layer_1" x="0px" y="0px" viewBox="0 0 2023 567" style="enable-background:new 0 0 2023 567;" xml:space="preserve"><style type="text/css">	.st0{fill:#160644;}	.st1{fill:#FFC844;}	.st2{fill:#4DE366;}	.st3{fill:#766DFA;}	.st4{fill:#F5333F;}</style><g>	<g>		<path class="st0" d="M0.1,93.5H163c85.5,0,135.5,52.4,135.5,126.2S248.5,346,163,346H76.9v154.7H0.1V93.5z M159.5,281.4   c45.4,0,64-29.1,64-61.7c0-32.6-18.6-61.7-64-61.7H76.9v123.3H159.5z"></path>		<path class="st0" d="M416.7,362.3v138.5h-71.6V207.6h71.6v51.8c14.5-37.2,37.2-51.8,75-51.8H526v59.9h-46   C434.1,267.5,416.7,306.4,416.7,362.3z"></path>		<path class="st0" d="M569.6,81.9h76.8v79.7h-76.8V81.9z M572,207.6h71.6v293.2H572V207.6z"></path>		<path class="st0" d="M702.3,354.1c0-89.6,51.2-151.3,138.5-151.3c37.8,0,69.2,16.3,86.1,40.1V81.9h71v418.9h-71v-36.7   c-16.9,25.6-49.4,41.3-84.9,41.3C753.5,505.4,702.3,443.7,702.3,354.1z M851.8,443.7c48.3,0,79.7-35.5,79.7-89.6   s-31.4-89.6-79.7-89.6c-47.1,0-78.5,35.5-78.5,89.6S804.7,443.7,851.8,443.7z"></path>		<path class="st0" d="M1055.4,353c0-77.4,47.7-150.1,143.7-150.1c98.3,0,142.5,71.6,142.5,141.4c0,9.9-0.6,18.6-1.2,24.4H1124   c5.2,47.1,35.5,77.4,80.9,77.4c36.6,0,60.5-15.1,68.1-43.1h69.8c-11.1,62.3-65.7,102.4-137.9,102.4   C1108.9,505.4,1055.4,429.8,1055.4,353z M1270,321.6c-2.9-37.2-28.5-65.2-71-65.2c-40.1,0-65.7,20.9-73.3,65.2H1270z"></path>	</g>	<g>		<path class="st1" d="M1825.3,566.5l0-193.8c0-2.5,2-4.5,4.5-4.5l103.2-0.1v-70.9h-36.7l0,0h-32.8c-60.3,0-109.1,48.9-109.1,109.1   v160.1H1825.3z"></path>		<path class="st2" d="M1825.3,90l0,102.9c0,2.5,2,4.5,4.5,4.5h125v0.1h68.2v70.9h-126.7l0,0h-32.8c-60.3,0-109.1-48.9-109.1-109.1   V90H1825.3z"></path>		<path class="st3" d="M1457.6,368.9l192.5,0c2.5,0,4.5,2,4.5,4.5l0.1,103.2h70.9v-36.7l0,0v-32.8c0-60.3-48.9-109.1-109.1-109.1   h-158.8V368.9z"></path>		<path class="st4" d="M1655.2,0l0,193.4c0,2.5-2,4.5-4.5,4.5l-103.2,0.1v70.9h36.7l0,0h32.8c60.3,0,109.1-48.9,109.1-109.1V0   H1655.2z"></path>	</g></g></svg>