<svg xmlns="http://www.w3.org/2000/svg" xmlns:xlink="http://www.w3.org/1999/xlink" id="Layer_1" x="0px" y="0px" viewBox="0 0 4378 832" style="enable-background:new 0 0 4378 832;" xml:space="preserve"><style type="text/css">	.st0{fill:#160644;}	.st1{fill:#766DFA;}</style><g>	<g>		<g>			<path class="st0" d="M1310.6,470.8V250.3h61.2v221c0,47.4,30.6,71,74.5,71s74.5-23.7,74.5-71v-221h60.7v220.5    c0,83.9-54.8,128.8-135.2,128.8C1365.4,599.5,1310.6,554.6,1310.6,470.8z"></path>		</g>		<g>			<path class="st0" d="M1642.2,347h60.7v38.5c13.3-27.1,41.9-42.4,77.5-42.4c55.7,0,92.2,40.4,92.2,98.7v153.9h-60.2V454.5    c0-34-21.2-57.7-52.3-57.7c-33.6,0-57.2,26.6-57.2,63.1v135.6h-60.7V347z"></path>		</g>		<g>			<path class="st0" d="M1994.4,564.5v31.1h-60.7V240.4h60.7v136.6c13.8-20.2,40.5-34,72.5-34c74,0,117.4,52.3,117.4,128.3    s-43.4,128.3-117.9,128.3C2035.8,599.5,2008.2,586.2,1994.4,564.5z M2057.5,547.2c40,0,66.6-30.1,66.6-76c0-45.9-26.6-76-66.6-76    c-40.4,0-67.1,30.1-67.1,76C1990.4,517.2,2017.1,547.2,2057.5,547.2z"></path>		</g>		<g>			<path class="st0" d="M2294.8,478.2v117.4h-60.7V347h60.7v43.9c12.3-31.6,31.6-43.9,63.6-43.9h29.1v50.8h-39    C2309.6,397.8,2294.8,430.8,2294.8,478.2z"></path>		</g>		<g>			<path class="st0" d="M2402.3,470.3c0-65.6,40.5-127.3,121.8-127.3c83.4,0,120.9,60.7,120.9,119.9c0,8.4-0.5,15.8-1,20.7h-183.5    c4.4,40,30.1,65.6,68.6,65.6c31.1,0,51.3-12.8,57.7-36.5h59.2c-9.4,52.8-55.7,86.8-116.9,86.8    C2447.7,599.5,2402.3,535.4,2402.3,470.3z M2584.4,443.7c-2.5-31.6-24.2-55.3-60.2-55.3c-34,0-55.7,17.8-62.2,55.3H2584.4z"></path>		</g>		<g>			<path class="st0" d="M2685.5,525c0-48.3,37-78.4,93.2-78.4h45.9c11.8,0,17.8-6.9,17.8-16.8c0-24.2-18.3-41.4-50.3-41.4    s-51.3,20.2-52.3,42.4H2685c3.5-49.3,45.4-87.8,109.5-87.8c63.6,0,108,36.5,108,92.7v159.8h-60.2v-37    c-9.9,24.7-39,40.9-74.5,40.9C2719,599.5,2685.5,568,2685.5,525z M2782.2,554.6c38,0,60.2-26.6,60.2-64.1v-3.9h-55.7    c-25.7,0-42.4,14.3-42.4,36C2744.2,541.8,2759.5,554.6,2782.2,554.6z"></path>		</g>		<g>			<path class="st0" d="M2963.2,240.4h61.2v196.8l94.7-90.3h77l-101.1,97.2l109.5,151.4h-73l-77.9-111l-29.1,28.1v82.9h-61.2V240.4z    "></path>		</g>		<g>			<path class="st0" d="M3214.3,525c0-48.3,37-78.4,93.2-78.4h45.9c11.8,0,17.8-6.9,17.8-16.8c0-24.2-18.3-41.4-50.3-41.4    c-32.1,0-51.3,20.2-52.3,42.4h-54.8c3.5-49.3,45.4-87.8,109.5-87.8c63.6,0,108,36.5,108,92.7v159.8h-60.2v-37    c-9.9,24.7-39,40.9-74.5,40.9C3247.9,599.5,3214.3,568,3214.3,525z M3311,554.6c38,0,60.2-26.6,60.2-64.1v-3.9h-55.7    c-25.7,0-42.4,14.3-42.4,36C3273,541.8,3288.3,554.6,3311,554.6z"></path>		</g>		<g>			<path class="st0" d="M3552.7,564.5v31.1H3492V240.4h60.7v136.6c13.8-20.2,40.5-34,72.5-34c74,0,117.4,52.3,117.4,128.3    s-43.4,128.3-117.9,128.3C3594.1,599.5,3566.5,586.2,3552.7,564.5z M3615.8,547.2c40,0,66.6-30.1,66.6-76c0-45.9-26.6-76-66.6-76    c-40.4,0-67.1,30.1-67.1,76C3548.8,517.2,3575.4,547.2,3615.8,547.2z"></path>		</g>		<g>			<path class="st0" d="M3792.5,240.4h60.7v355.2h-60.7V240.4z"></path>		</g>		<g>			<path class="st0" d="M3902,470.3c0-65.6,40.4-127.3,121.8-127.3c83.4,0,120.9,60.7,120.9,119.9c0,8.4-0.5,15.8-1,20.7h-183.5    c4.4,40,30.1,65.6,68.6,65.6c31.1,0,51.3-12.8,57.7-36.5h59.2c-9.4,52.8-55.7,86.8-116.9,86.8    C3947.4,599.5,3902,535.4,3902,470.3z M4084,443.7c-2.5-31.6-24.2-55.3-60.2-55.3c-34,0-55.7,17.8-62.2,55.3H4084z"></path>		</g>		<g>			<path class="st0" d="M4178.7,512.7h55.3c2.5,23.7,21.2,38.5,48.3,38.5c23.7,0,39-11.8,39-26.6c0-55.3-135.7-2.5-135.7-107.5    c0-43.4,38-74,88.8-74c58.7,0,98.7,32.1,101.1,80.4h-55.7c-3-23.2-24.2-35-43.9-35c-21.2,0-35.5,9.9-35.5,26.6    c0,53.8,137.6-5.4,137.6,107c0,46.9-38,77.5-95.7,77.5C4222.1,599.5,4181.7,566,4178.7,512.7z"></path>		</g>	</g>	<g>		<polygon class="st1" points="1042.8,831.8 1143.6,731 965.2,552.6 914.8,603 864.4,653.4   "></polygon>		<polygon class="st1" points="463.6,306.8 443.8,287.1 0,731 100.8,831.8 279.1,653.4 434.2,498.4 434.2,498.4 544.6,387.9   "></polygon>		<path class="st1" d="M1021.2,76.1C972.3,27.2,907.2,0.2,838,0.2S703.8,27.2,654.9,76.1l-56,56l100.8,100.8l116.7-116.7   c11.9-11.9,31.3-11.9,43.2,0l121.5,121.5c5.8,5.8,9,13.4,9,21.6c0,8.2-3.2,15.8-8.9,21.6L741.3,520.7l-32,32l0,0l-116,116   c-11.9,11.9-31.3,11.9-43.2,0l-116-116L333.4,653.4l55.2,55.2c101,101,265.3,101,366.3,0l187.3-187.3l23-23l0,0l56-56   C1122.2,341.4,1122.2,177.1,1021.2,76.1z"></path>		<polygon class="st1" points="942.2,521.4 965.2,498.4 965.2,498.4   "></polygon>		<polygon class="st1" points="434.2,552.6 333.4,653.4 434.2,552.6   "></polygon>		<path class="st1" d="M598.9,387.9l110.5,110.5l67.2-67.2l33.6-33.6L596.2,183.6l-51.6-51.6l0,0L488.6,76   C386.8-24.8,223-24.5,122.4,76.1c-101,101-101,265.3,0,366.3l56,56l100.8-100.8L162.4,280.9c-5.8-5.8-8.9-13.5-9-21.6   c0-8.2,3.2-15.9,9-21.6l121.5-121.5c11.9-11.9,31.3-11.9,43.2,0l225.9,226L598.9,387.9L598.9,387.9z"></path>		<polygon class="st1" points="598.9,387.9 553.1,342.1 598.9,387.9   "></polygon>		<polygon class="st1" points="596.2,183.6 544.6,132.1 544.6,132.1   "></polygon>		<polygon class="st1" points="709.4,498.4 776.5,431.2 709.4,498.4   "></polygon>	</g></g></svg>