<svg xmlns="http://www.w3.org/2000/svg" xmlns:xlink="http://www.w3.org/1999/xlink" id="Layer_1" x="0px" y="0px" viewBox="0 0 3410 907" style="enable-background:new 0 0 3410 907;" xml:space="preserve"><style type="text/css">	.st0{fill:#001705;}	.st1{fill:#4DE366;}</style><g>	<g>		<path class="st0" d="M1133.3,272.4v362.3H1065V478.9H903.5v155.8h-67.8V272.4h67.8v147H1065v-147H1133.3z"></path>		<path class="st0" d="M1439.2,634.6h-63.1v-40.4c-14.5,28.5-44,44.5-81.2,44.5c-59,0-97.3-42.4-97.3-103.5V373.8h63.7v148   c0,35.7,21.7,60.5,54.3,60.5c35.7,0,60.5-27.9,60.5-66.2V373.8h63.1V634.6z"></path>		<path class="st0" d="M1491,503.2c0-68.8,42.4-133.5,127.8-133.5c87.5,0,126.8,63.7,126.8,125.8c0,8.8-0.5,16.6-1,21.7H1552   c4.7,41.9,31.6,68.8,71.9,68.8c32.6,0,53.8-13.5,60.5-38.3h62.1c-9.8,55.4-58.5,91.1-122.7,91.1   C1538.6,638.8,1491,571.5,1491,503.2z M1681.9,475.2c-2.6-33.1-25.4-58-63.1-58c-35.7,0-58.5,18.6-65.2,58H1681.9z"></path>		<path class="st0" d="M1798.9,373.8h63.7v40.9c12.4-26.4,38.8-45,75-45c41.4,0,69.9,17.6,81.8,49.7c11.9-26.9,45-49.7,86.4-49.7   c56.4,0,92.6,40.9,92.6,96.3v168.7h-63.7V485.1c0-36.7-19.1-61.1-49.7-61.1c-33.6,0-54.9,24.3-54.9,61.1v149.6h-63.1V485.1   c0-36.7-19.1-61.1-49.7-61.1c-34.2,0-54.9,24.3-54.9,61.1v149.6h-63.7V373.8z"></path>		<path class="st0" d="M2251.2,560.6c0-50.7,38.8-82.3,97.8-82.3h48.1c12.4,0,18.6-7.2,18.6-17.6c0-25.4-19.1-43.5-52.8-43.5   c-33.6,0-53.8,21.2-54.9,44.5h-57.4c3.6-51.8,47.6-92.1,114.9-92.1c66.8,0,113.3,38.3,113.3,97.3v167.7h-63.1v-38.8   c-10.3,25.9-40.9,43-78.1,43C2286.4,638.8,2251.2,605.6,2251.2,560.6z M2352.7,591.7c39.8,0,63.1-27.9,63.1-67.3v-4.1h-58.5   c-26.9,0-44.5,15-44.5,37.8C2312.8,578.2,2328.9,591.7,2352.7,591.7z"></path>		<path class="st0" d="M2542.6,373.8h63.7v40.4c14-28.5,44-44.5,81.2-44.5c58.5,0,96.8,42.4,96.8,103.5v161.5h-63.1v-148   c0-35.7-22.3-60.5-54.9-60.5c-35.2,0-60,27.9-60,66.2v142.3h-63.7V373.8z"></path>		<path class="st0" d="M2846.4,262h68.3v70.9h-68.3V262z M2848.5,373.8h63.7v260.8h-63.7V373.8z"></path>		<path class="st0" d="M3067.4,295.1v78.7h72.5v53.3h-72.5V541c0,26.4,14,39.8,37.8,39.8h34.7v53.8h-41.9   c-56.9,0-94.2-33.1-94.2-91.1V427.1h-51.2v-53.3h51.2v-78.7H3067.4z"></path>		<path class="st0" d="M3255.3,634.1L3160,373.8h64.7l60,179.1l60-179.1h65.2l-79.7,218.4l-51.7,148H3218L3255.3,634.1z"></path>	</g>	<g>		<path class="st1" d="M123.4,123.5H239c4.3,0,7.8,3.5,7.8,7.8v263.2h123.4V189.9c0-104.8-85-189.8-189.8-189.8h-57V123.5z"></path>		<path class="st0" d="M493.6,783.5H378c-4.3,0-7.8-3.5-7.8-7.8V512.5H246.8v204.6c0,104.8,85,189.8,189.8,189.8h57V783.5z"></path>		<rect x="0" y="123.5" class="st1" width="123.4" height="660"></rect>		<rect x="493.6" y="123.5" class="st0" width="123.4" height="660"></rect>	</g></g></svg>