<svg xmlns="http://www.w3.org/2000/svg" xmlns:xlink="http://www.w3.org/1999/xlink" id="Layer_1" x="0px" y="0px" viewBox="0 0 2752 924" style="enable-background:new 0 0 2752 924;" xml:space="preserve"><style type="text/css">	.st0{fill:#001705;}	.st1{fill:#4DE366;}	.st2{fill:#FFC844;}	.st3{fill:#169968;}</style><g>	<path class="st0" d="M783.5,476.2H623.7v-85.9h418.4v85.9H883V918h-99.5V476.2z"></path>	<path class="st0" d="M1100.1,375.2h92.7v221.6c20.4-41.5,64.1-64.8,118.4-64.8c85.2,0,141,61.8,141,150.8V918h-92V702.4  c0-52-32.4-88.2-79.9-88.2c-51.3,0-87.5,40.7-87.5,96.5V918h-92.7V375.2z"></path>	<path class="st0" d="M1638.4,738.5V918h-92.7V538h92.7v67.1c18.9-48.2,48.2-67.1,97.3-67.1h44.5v77.7h-59.6  C1661,615.7,1638.4,666.2,1638.4,738.5z"></path>	<path class="st0" d="M1836.6,375.2h99.5v103.3h-99.5V375.2z M1839.7,538h92.7v380h-92.7V538z"></path>	<path class="st0" d="M1991.2,538h94.2l87.5,262.4l87.5-262.4h95l-138.7,380h-86.7L1991.2,538z"></path>	<path class="st0" d="M2379.4,726.5c0-100.3,61.8-194.5,186.2-194.5c127.4,0,184.7,92.7,184.7,183.2c0,12.8-0.8,24.1-1.5,31.7  h-280.5c6.8,61.1,46,100.3,104.8,100.3c47.5,0,78.4-19.6,88.2-55.8h90.5C2737.5,872,2666.7,924,2573.2,924  C2448.8,924,2379.4,826,2379.4,726.5z M2657.6,685.8c-3.8-48.2-36.9-84.4-92-84.4c-52,0-85.2,27.1-95,84.4H2657.6z"></path></g><g>	<path class="st1" d="M311.6,575V119H207.8v406.8c0,88.2,71.5,159.6,159.6,159.6h151.8V581.6H318.1  C314.5,581.6,311.6,578.6,311.6,575z"></path>	<path class="st2" d="M467.3,810C266.6,810,104,647.3,104,446.7V238H0.2v208.7c0,258,209.1,467.2,467.1,467.2h0  c17.5,0,34.9-1,51.9-2.9V806.2C502.3,808.7,484.9,810,467.3,810L467.3,810z"></path>	<rect x="415.4" class="st3" width="103.8" height="478.1"></rect></g></svg>