<svg width="548" height="547" viewBox="0 0 548 547" fill="none" xmlns="http://www.w3.org/2000/svg">
<g opacity="0.1">
<path d="M372.084 71.7775C378.045 77.7169 384.925 82.6566 392.459 86.4066C394.847 87.6174 397.258 88.7182 399.691 89.7089L400.351 89.973C401.259 90.3363 402.151 90.6995 403.059 91.0298L405.041 91.7728L406.295 92.2186L409.003 93.1433L409.301 93.2423C413.594 94.6623 417.886 95.9337 422.113 97.1721C437.651 101.729 452.313 106.022 464.069 117.778C475.825 129.534 480.118 144.196 484.675 159.734C485.93 164.01 487.201 168.336 488.654 172.679C488.968 173.653 489.315 174.627 489.645 175.601C489.777 175.948 489.909 176.295 490.025 176.641L490.817 178.804C491.131 179.63 491.461 180.455 491.775 181.248C491.907 181.545 492.023 181.842 492.138 182.156C493.129 184.567 494.23 186.961 495.441 189.339L495.441 189.454C499.191 196.988 504.13 203.868 510.07 209.829C521.628 221.387 534.705 227.183 547.848 231.492L547.848 224.524C536.174 220.512 524.732 215.129 514.726 205.156C509.039 199.41 504.346 192.759 500.84 185.475C500.786 185.351 500.725 185.229 500.658 185.112C496.675 176.31 493.433 167.192 490.966 157.851C486.178 141.472 481.637 126.017 468.692 113.056C455.747 100.111 440.292 95.5704 423.913 90.7821C414.576 88.3217 405.462 85.0795 396.669 81.0899L396.29 80.9083C389.001 77.402 382.349 72.7032 376.608 67.0057C362.59 52.9875 357.636 36.0798 352.848 19.7171C350.867 12.9474 348.918 6.35936 346.425 0.0189796L339.259 0.018979C342.099 7.02391 344.519 14.1915 346.508 21.4838C351.676 38.8208 356.877 56.5705 372.084 71.7775Z" fill="#F3F1E5"/>
<path d="M22.5746 6.90425C34.3307 18.6769 38.6237 33.3225 43.1808 48.8927C48.1342 66.0481 53.4014 83.7814 68.6084 99.0049C83.8154 114.228 101.549 119.413 118.737 124.366C134.274 128.923 148.936 133.216 160.709 144.973C172.481 156.729 176.758 171.391 181.315 186.961C186.269 204.116 191.536 221.85 206.743 237.057C212.708 242.996 219.587 247.94 227.118 251.702C229.517 252.902 231.928 254.003 234.35 255.004L235.06 255.285L237.701 256.309L239.732 257.052L240.938 257.498L243.695 258.439L243.926 258.521C248.236 259.941 252.529 261.213 256.772 262.451C272.309 267.008 286.971 271.301 298.728 283.057C310.484 294.813 314.777 309.476 319.334 325.013C320.572 329.289 321.86 333.632 323.297 337.974C323.605 338.943 323.935 339.917 324.287 340.897L324.667 341.937L325.459 344.116C325.773 344.926 326.087 345.768 326.417 346.527C326.533 346.841 326.648 347.138 326.78 347.452C327.771 349.862 328.872 352.257 330.083 354.634L330.083 354.75C333.832 362.279 338.766 369.159 344.695 375.125C359.919 390.332 377.718 395.533 394.824 400.552C410.361 405.11 425.04 409.403 436.796 421.159C448.552 432.915 452.845 447.577 457.402 463.131C462.355 480.302 467.623 498.036 482.83 513.259C498.037 528.483 515.984 533.849 533.14 538.802C538.225 540.288 543.212 541.758 548 543.458L548 536.474C543.74 535.038 539.398 533.766 534.972 532.462C518.61 527.674 501.685 522.72 487.667 508.702C473.649 494.684 468.696 477.76 463.907 461.397C459.119 445.034 454.578 429.563 441.617 416.618C428.656 403.673 413.217 399.132 396.838 394.328C380.459 389.523 363.551 384.586 349.533 370.568C343.841 364.826 339.148 358.174 335.647 350.886C335.585 350.774 335.53 350.658 335.482 350.539C331.487 341.735 328.239 332.611 325.773 323.263C320.968 306.9 316.444 291.429 303.499 278.484C290.554 265.539 275.083 261.015 258.72 256.21C249.394 253.755 240.292 250.518 231.51 246.534L231.08 246.319C223.8 242.822 217.154 238.134 211.415 232.45C197.397 218.432 192.444 201.508 187.639 185.128C182.834 168.749 178.327 153.311 165.365 140.349C152.404 127.388 136.949 122.88 120.586 118.075C104.223 113.271 87.2992 108.334 73.281 94.3156C59.2629 80.2974 54.3094 63.3733 49.5211 47.0105C44.7328 30.6477 40.1922 15.1765 27.2308 2.23164C26.5043 1.4941 25.7613 0.784073 25.0018 0.101578L14.319 0.101577C17.2768 2.10695 20.0407 4.38441 22.5746 6.90425Z" fill="#F3F1E5"/>
<path d="M447.574 31.291L447.673 31.291C450.051 32.4963 452.478 33.6026 454.905 34.5933C455.103 34.6923 455.301 34.7584 455.516 34.841C456.424 35.2207 457.349 35.584 458.257 35.9307L460.205 36.6407L461.51 37.103L464.168 38.0111L464.515 38.1267C468.808 39.5632 473.084 40.8181 477.311 42.0565C492.848 46.6136 507.51 50.9065 519.283 62.6626C531.056 74.4188 535.316 89.0809 539.873 104.651C541.408 109.869 542.977 115.185 544.826 120.502L545.189 121.542C545.454 122.269 545.718 122.995 545.999 123.722C546.279 124.448 546.626 125.373 546.956 126.165L547.303 127.057L547.963 128.56L547.963 108.746C547.369 106.765 546.775 104.783 546.197 102.802C541.408 86.4225 536.868 70.9679 523.923 58.0064C510.961 45.0615 495.507 40.5209 479.127 35.7326C469.793 33.2796 460.685 30.0371 451.9 26.0404L451.487 25.8423C444.207 22.3367 437.561 17.6438 431.822 11.9561C428.231 8.35972 425.047 4.37845 422.328 0.0844159L414.584 0.0844152C418.012 6.12773 422.238 11.6815 427.149 16.5958C433.121 22.563 440.018 27.5255 447.574 31.291Z" fill="#F3F1E5"/>
<path d="M173.84 69.3143C189.378 73.8715 204.04 78.1645 215.812 89.9206C227.585 101.677 231.861 116.339 236.418 131.893C241.372 149.048 246.639 166.798 261.846 182.005C267.812 187.944 274.691 192.888 282.221 196.65C284.615 197.872 287.026 198.962 289.47 199.953L290.08 200.184C290.989 200.563 291.897 200.927 292.821 201.273L294.77 201.983L296.074 202.446L298.733 203.37L299.079 203.486C303.372 204.906 307.649 206.161 311.876 207.399C327.413 211.956 342.075 216.249 353.831 228.005C365.587 239.762 369.88 254.424 374.437 269.977C375.973 275.211 377.541 280.545 379.391 285.861C379.523 286.192 379.638 286.538 379.77 286.868L380.563 289.064L381.504 291.459L381.884 292.4C382.875 294.827 383.981 297.221 385.186 299.615C385.182 299.643 385.182 299.67 385.186 299.698C388.948 307.228 393.893 314.107 399.832 320.073C415.039 335.28 432.855 340.481 449.944 345.5C465.481 350.058 480.16 354.35 491.916 366.107C503.672 377.863 507.965 392.525 512.522 408.079C517.475 425.25 522.743 442.984 537.95 458.207C541.015 461.232 544.329 463.993 547.856 466.463L547.856 458.207C546.038 456.734 544.297 455.169 542.639 453.518C528.621 439.5 523.667 422.576 518.879 406.213C514.091 389.85 509.55 374.379 496.605 361.417C483.66 348.456 468.189 343.948 451.81 339.144C435.43 334.339 418.539 329.402 404.504 315.384C398.818 309.637 394.125 302.986 390.618 295.702C390.618 295.587 390.503 295.454 390.437 295.322C386.437 286.533 383.195 277.419 380.745 268.078C375.94 251.716 371.416 236.245 358.471 223.3C345.526 210.355 330.055 205.831 313.692 201.026C304.357 198.575 295.248 195.333 286.465 191.334L286.052 191.152C278.775 187.641 272.13 182.948 266.387 177.266C252.368 163.231 247.415 146.324 242.627 129.961C237.838 113.598 233.298 98.1268 220.353 85.1653C207.408 72.2039 191.937 67.6963 175.557 62.8915C159.178 58.0867 142.271 53.1497 128.252 39.1316C116.579 27.4415 111.18 13.7371 106.936 0.0326153L100.034 0.0326147C104.608 15.1735 110.238 30.4466 123.58 43.7878C138.935 59.0939 156.669 64.2949 173.84 69.3143Z" fill="#F3F1E5"/>
<path d="M270.932 34.8057C282.688 46.5618 286.981 61.2239 291.538 76.7777C296.492 93.9495 301.759 111.683 316.966 126.89C322.932 132.829 329.811 137.773 337.341 141.535L337.423 141.535C339.812 142.746 342.228 143.847 344.672 144.838L345.283 145.069C346.191 145.449 347.099 145.812 348.024 146.159L349.989 146.869L351.26 147.331L353.984 148.255L354.249 148.355C358.542 149.775 362.851 151.046 367.078 152.284C382.615 156.841 397.277 161.134 409.033 172.874C420.789 184.614 425.082 199.292 429.64 214.879C430.894 219.139 432.166 223.448 433.602 227.791L434.593 230.697C434.725 231.044 434.857 231.39 434.973 231.737L435.765 233.917C436.079 234.726 436.409 235.568 436.723 236.36C436.855 236.658 436.971 236.955 437.086 237.252C438.077 239.663 439.167 242.073 440.388 244.434L440.388 244.55C444.138 252.083 449.078 258.963 455.018 264.925C470.225 280.132 487.958 285.333 505.13 290.353C520.667 294.91 535.345 299.203 547.102 310.959C547.382 311.239 547.63 311.537 547.911 311.817L547.911 302.769C535.791 292.482 521.757 288.338 506.979 284.012C490.616 279.224 473.709 274.27 459.674 260.252C453.987 254.506 449.295 247.855 445.788 240.571L445.623 240.224C441.628 231.42 438.38 222.295 435.914 212.947C431.109 196.568 426.585 181.113 413.64 168.152C400.695 155.207 385.241 150.666 368.861 145.878C359.54 143.426 350.443 140.189 341.667 136.202L341.221 135.987C333.943 132.486 327.297 127.799 321.556 122.118C307.538 108.083 302.584 91.1756 297.796 74.7963C293.008 58.417 288.467 42.9788 275.522 30.0174C262.577 17.0559 247.106 12.5483 230.727 7.74353C222.931 5.61682 215.267 3.03104 207.776 -0.000304394L193.23 -0.000305665C204.689 6.98401 216.923 10.5835 228.878 14.084C244.497 18.6906 259.176 23.0496 270.932 34.8057Z" fill="#F3F1E5"/>
<path d="M170.33 516.278L170.149 515.931C166.149 507.13 162.907 498.005 160.457 488.654C155.652 472.291 151.128 456.82 138.166 443.875C125.221 430.914 109.75 426.39 93.3709 421.585C84.0368 419.132 74.9282 415.889 66.1436 411.893L65.7472 411.711C58.4624 408.213 51.8154 403.52 46.0823 397.825C32.0641 383.807 27.1106 366.882 22.3058 350.52C17.6661 334.636 13.241 319.627 1.17116 306.93L1.17116 317.216C8.71686 327.618 12.2668 339.705 16.0314 352.385C20.9848 369.541 26.2685 387.274 41.4755 402.498C47.446 408.426 54.324 413.365 61.8505 417.127L61.9497 417.127C64.3438 418.332 66.7545 419.422 69.1817 420.429L69.9246 420.726L72.517 421.75L74.5809 422.493L75.7532 422.922L78.5272 423.863L78.7416 423.946C83.0511 425.366 87.3606 426.637 91.6041 427.892C107.125 432.433 121.803 436.726 133.56 448.482C145.316 460.238 149.609 474.9 154.166 490.47C155.404 494.714 156.675 499.023 158.112 503.349L158.112 503.465C158.426 504.422 158.739 505.364 159.086 506.305C159.202 506.684 159.35 507.048 159.482 507.411C159.73 508.121 159.994 508.831 160.259 509.541C160.523 510.251 160.902 511.192 161.233 512.018L161.579 512.876C162.57 515.287 163.66 517.698 164.882 520.075L164.882 520.174C168.647 527.694 173.585 534.566 179.511 540.533C181.792 542.8 184.213 544.923 186.759 546.89L198.548 546.89C193.305 543.847 188.477 540.14 184.184 535.86C178.513 530.145 173.831 523.528 170.33 516.278Z" fill="#F3F1E5"/>
<path d="M8.47873 234.663C24.0159 239.22 38.6946 243.513 50.4507 255.269C62.2068 267.025 66.5163 281.687 71.0569 297.241C76.0103 314.413 81.2938 332.146 96.5008 347.37C102.471 353.299 109.35 358.237 116.876 361.999C119.27 363.204 121.681 364.294 124.108 365.301L124.719 365.532C125.644 365.912 126.552 366.275 127.476 366.622L129.425 367.332L130.713 367.811L133.387 368.719L133.718 368.834C138.011 370.254 142.303 371.526 146.53 372.764C162.068 377.305 176.73 381.598 188.486 393.354C200.242 405.11 204.535 419.772 209.076 435.326C210.33 439.586 211.618 443.912 213.055 448.254C213.369 449.212 213.699 450.17 214.045 451.144C214.161 451.49 214.293 451.854 214.425 452.217L215.218 454.363C215.531 455.189 215.862 456.015 216.192 456.824C216.307 457.121 216.407 457.402 216.539 457.699C217.529 460.109 218.619 462.52 219.841 464.898L219.841 464.997C223.603 472.523 228.541 479.401 234.47 485.372C249.694 500.579 267.493 505.78 284.599 510.799C300.136 515.357 314.798 519.666 326.571 531.422C331.038 535.948 334.761 541.153 337.6 546.844L344.964 546.844C341.635 539.372 336.981 532.564 331.227 526.749C318.282 513.788 302.827 509.264 286.448 504.459C270.069 499.654 253.161 494.717 239.143 480.699C233.509 475.003 228.856 468.414 225.372 461.199L225.191 460.836C221.194 452.04 217.951 442.921 215.499 433.576C210.694 417.213 206.17 401.742 193.208 388.797C180.263 375.852 164.792 371.328 148.429 366.523C139.092 364.068 129.979 360.832 121.185 356.847L120.789 356.649C113.508 353.146 106.861 348.453 101.124 342.763C87.1059 328.745 82.1525 311.821 77.3476 295.458C72.5428 279.095 68.0352 263.624 55.0738 250.679C42.1124 237.734 26.6577 233.193 10.2949 228.389C7.24032 227.497 4.16931 226.605 1.09817 225.631L1.09817 232.549L8.47873 234.663Z" fill="#F3F1E5"/>
<path d="M83.0498 498.993C70.0884 486.032 54.6337 481.508 38.2544 476.703C28.9229 474.248 19.8149 471.012 11.0271 467.027L10.6307 466.829C7.35455 465.222 4.19339 463.39 1.16968 461.347L1.16968 469.207C2.98593 470.296 4.81882 471.304 6.6681 472.245L6.76706 472.245C9.16122 473.45 11.5719 474.54 13.9991 475.547L14.6761 475.811L17.3509 476.868L19.3487 477.595L20.5871 478.04L23.3115 478.982L23.5923 479.064C27.8852 480.501 32.1782 481.772 36.4217 483.01C51.9424 487.551 66.6209 491.844 78.377 503.6C90.1331 515.356 94.426 530.018 98.9831 545.588L99.3794 546.942L106.281 546.942C105.968 545.869 105.637 544.796 105.324 543.723C100.535 527.409 96.0113 511.938 83.0498 498.993Z" fill="#F3F1E5"/>
<path d="M1.15045 544.695C2.91714 545.405 4.65085 546.164 6.35149 546.99L19.4614 546.99C13.782 543.088 7.62879 539.926 1.15045 537.578L1.15045 544.695Z" fill="#F3F1E5"/>
<path d="M13.4913 154.084C28.7148 169.291 46.5141 174.493 63.6199 179.512C79.1406 184.069 93.8191 188.362 105.592 200.118C117.364 211.874 121.641 226.536 126.198 242.09C131.151 259.262 136.418 276.995 151.625 292.219C157.596 298.148 164.474 303.086 172.001 306.848C174.395 308.07 176.806 309.16 179.249 310.15L179.827 310.381C180.752 310.767 181.676 311.13 182.601 311.471L184.549 312.181L185.854 312.643C186.745 312.974 187.637 313.271 188.529 313.568L188.842 313.667C193.135 315.104 197.428 316.358 201.655 317.613C217.192 322.154 231.854 326.447 243.611 338.203C255.367 349.959 259.66 364.621 264.217 380.191C265.752 385.426 267.321 390.742 269.17 396.059L269.517 397.05C269.781 397.793 270.045 398.536 270.326 399.279C270.607 400.022 270.953 400.93 271.284 401.689C271.399 401.987 271.515 402.3 271.647 402.597C272.638 405.019 273.738 407.424 274.949 409.813C278.711 417.339 283.649 424.217 289.578 430.188C304.802 445.395 322.601 450.596 339.707 455.616C355.244 460.173 369.923 464.466 381.679 476.222C393.435 487.978 397.728 502.64 402.285 518.21C404.863 528.006 408.277 537.563 412.489 546.775L419.936 546.775C414.668 536.967 411.68 526.548 408.625 516.344C403.82 499.982 399.296 484.511 386.335 471.566C373.373 458.621 357.935 454.08 341.556 449.275C325.177 444.47 308.269 439.533 294.251 425.515C288.564 419.769 283.872 413.118 280.365 405.834L280.183 405.47C276.186 396.675 272.944 387.555 270.491 378.21C265.686 361.847 261.162 346.376 248.217 333.431C235.272 320.486 219.801 315.962 203.438 311.157C194.112 308.703 185.01 305.466 176.227 301.482L175.798 301.284C168.517 297.781 161.87 293.088 156.133 287.397C142.115 273.379 137.162 256.455 132.357 240.092C127.552 223.73 123.044 208.258 110.083 195.297C97.1215 182.336 81.6668 177.828 65.3041 173.023C48.9413 168.218 32.0171 163.281 17.9989 149.263C10.5342 141.625 4.74225 132.515 0.992072 122.515L0.992071 137.771C4.40775 143.745 8.61197 149.232 13.4913 154.084Z" fill="#F3F1E5"/>
</g>
</svg>
