<svg width="78" height="78" viewBox="0 0 78 78" fill="none" xmlns="http://www.w3.org/2000/svg">
<path d="M56.2399 77.7781C52.935 65.48 46.2074 54.3727 36.8389 45.7473C25.6794 52.6893 13.078 56.983 0.00143551 58.2989L0.00143386 77.7781L56.2399 77.7781Z" fill="#2B5243"/>
<path d="M76.0141 77.7781L77.7526 77.7781L77.7526 0.000347959L73.2327 0.000347578C68.9049 12.7221 61.6765 24.2624 52.1193 33.7087C64.2657 45.7133 72.581 61.0491 76.0141 77.7781Z" fill="#2B5243"/>
<path d="M52.5183 5.46974e-05L6.21774e-05 5.02704e-05L6.14088e-05 9.11815C13.0766 10.4341 25.678 14.7277 36.8376 21.6697C43.4593 15.5663 48.7912 8.19808 52.5183 5.46974e-05Z" fill="#2B5243"/>
<path d="M0.000156479 28.5021L0.0001556 38.9327C6.39646 38.0964 12.6382 36.3399 18.5319 33.7175C12.6382 31.095 6.39646 29.3384 0.000156479 28.5021Z" fill="#2B5243"/>
<path d="M18.5322 33.7087C12.6386 36.3311 6.39681 38.0877 0.00050737 38.924L0.000505736 58.3076C13.077 56.9917 25.6784 52.6981 36.838 45.7561C31.436 40.7662 25.2519 36.6964 18.5322 33.7087Z" fill="#FC805F"/>
<path d="M36.8371 21.6698C42.3551 25.1012 47.4719 29.1392 52.092 33.7085C61.6586 24.265 68.896 12.7244 73.2313 0.000158412L52.5439 0.000156668C48.809 8.20045 43.4683 15.5688 36.8371 21.6698Z" fill="#FC805F"/>
<path d="M18.5322 33.7085C25.2513 30.7235 31.4354 26.6566 36.838 21.6698C25.6784 14.7278 13.077 10.4342 0.000507809 9.11825L0.000506175 28.5019C6.39636 29.3354 12.6381 31.0891 18.5322 33.7085Z" fill="#F6C85B"/>
<path d="M52.093 33.7087C47.473 38.278 42.3561 42.316 36.8381 45.7473C46.2066 54.3727 52.9342 65.48 56.2391 77.7781L76.0138 77.7781C72.5733 61.0461 64.2489 45.7099 52.093 33.7087Z" fill="#F6C85B"/>
<path d="M52.0941 33.7085C47.4741 29.1393 42.3573 25.1012 36.8393 21.6698C31.4366 26.6566 25.2526 30.7235 18.5335 33.7085C25.2526 36.6935 31.4366 40.7604 36.8393 45.7472C42.3573 42.3158 47.4741 38.2778 52.0941 33.7085Z" fill="#E14547"/>
</svg>
