<svg width="130" height="130" viewBox="0 0 130 130" fill="none" xmlns="http://www.w3.org/2000/svg">
<path d="M18.5186 4.61196C17.7362 7.24463 17.0164 9.72866 15.0644 11.712C13.1124 13.6953 10.5971 14.3955 7.96052 15.1661C5.26135 15.9485 2.48393 16.7778 -9.38782e-05 18.898L-9.40612e-05 21.0691L0.289403 20.7601C2.65998 18.4129 5.53127 17.5758 8.30868 16.7621C11.1604 15.9289 13.8518 15.1387 16.1324 12.8503L16.1793 12.8034C16.1943 12.7857 16.2114 12.77 16.2302 12.7564C18.5029 10.4797 19.2892 7.78838 20.142 4.93274C20.5784 3.24844 21.1717 1.60873 21.9141 0.0351136L20.1263 0.0351135C19.4787 1.51915 18.9413 3.0489 18.5186 4.61196Z" fill="#766DFA" fill-opacity="0.33"/>
<path d="M32.4874 5.38241C29.8234 8.04638 28.9197 11.1328 28.0435 14.1176C27.2611 16.7502 26.5453 19.2343 24.5933 21.2176C22.6413 23.2009 20.122 23.9011 17.4893 24.6717C14.5046 25.548 11.4182 26.4516 8.75419 29.1117L8.71116 29.1625L8.66031 29.2094C5.99634 31.8734 5.09271 34.9599 4.21646 37.9446C3.43409 40.5773 2.71822 43.0613 0.762294 45.0446C0.526923 45.2785 0.278808 45.4992 0.0190574 45.7057L0.0190573 47.6616C0.668883 47.2372 1.2732 46.747 1.82241 46.1986L1.86935 46.1477L1.92021 46.1008C4.19299 43.828 4.97927 41.1367 5.83205 38.2771C6.64572 35.4997 7.48676 32.6284 9.83386 30.2539C12.181 27.8794 15.0718 27.0736 17.8492 26.2599C20.701 25.4228 23.3923 24.6365 25.6729 22.3481L25.7238 22.2933L25.7707 22.2503C28.0435 19.9775 28.8298 17.2862 29.6826 14.4266C30.1147 12.7611 30.6987 11.1387 31.4272 9.57982C31.46 9.51013 31.4837 9.43651 31.4977 9.36076C32.0564 8.31149 32.7654 7.34947 33.6022 6.50512C35.9845 4.12672 38.8754 3.27784 41.6724 2.46026C43.7887 1.83828 45.8189 1.24369 47.6536 0.0505781L44.0899 0.0505778C43.1706 0.39091 42.2122 0.668639 41.2342 0.958117C38.2339 1.81481 35.1474 2.71845 32.4874 5.38241Z" fill="#766DFA" fill-opacity="0.33"/>
<path d="M10.5111 90.6375C11.3287 87.8406 12.1775 84.9497 14.5559 82.5674C15.4007 81.7294 16.3642 81.0203 17.4155 80.4628C17.4898 80.4483 17.5621 80.4246 17.6306 80.3924C19.2049 79.6517 20.8445 79.0585 22.5283 78.6204C25.38 77.7832 28.0713 76.9969 30.3519 74.7085L30.3989 74.6577L30.4497 74.6107C32.7225 72.3379 33.5088 69.6466 34.3616 66.787C35.1753 64.0096 36.0163 61.1422 38.3595 58.7678C40.7027 56.3933 43.6014 55.5835 46.3788 54.7699C49.2305 53.9327 51.9218 53.1464 54.2024 50.858L54.2494 50.8072L54.3002 50.7602C56.573 48.4874 57.3632 45.7961 58.2121 42.9365C58.6503 41.254 59.2436 39.6158 59.9842 38.0428C60.017 37.9731 60.0406 37.8995 60.0546 37.8238C60.6135 36.7736 61.324 35.8114 62.1631 34.9681C64.5415 32.5897 67.4323 31.7408 70.2293 30.9233C73.0263 30.1057 75.7724 29.2998 78.053 27.0114C80.3336 24.723 81.1159 22.0434 81.9648 19.1877C82.8137 16.3321 83.6313 13.4999 86.0136 11.1176C88.3959 8.73528 91.2828 7.89033 94.0798 7.07274L94.2832 7.01407C93.5947 6.66201 92.8997 6.32429 92.1982 6.00091C89.6751 6.78328 87.1402 7.77688 84.9065 10.0105C82.2426 12.6745 81.3389 15.761 80.4627 18.7457C79.6803 21.4018 78.9527 23.9054 76.9616 25.8965C74.9704 27.8877 72.4669 28.6348 69.8146 29.3976C66.826 30.27 63.7395 31.1775 61.0795 33.8376C58.4194 36.4976 57.5119 39.588 56.6356 42.5727C55.8533 45.2054 55.1374 47.6933 53.1815 49.6727C51.2255 51.6521 48.7142 52.3562 46.0815 53.1269C43.0967 54.0031 40.0103 54.9068 37.3463 57.5668C37.3328 57.5856 37.317 57.6027 37.2994 57.6177L37.2524 57.6646C34.5885 60.3286 33.6849 63.415 32.8086 66.3998C32.0262 69.0324 31.3104 71.5204 29.3544 73.5037C27.3985 75.487 24.8871 76.1833 22.2544 76.9539C19.2697 77.8302 16.1832 78.7338 13.5193 81.3978C10.8553 84.0617 9.95559 87.1443 9.07934 90.129C8.29697 92.7851 7.56936 95.2887 5.55868 97.2799C3.99394 98.8446 2.10061 99.627 0.082098 100.28L0.0820979 101.919C2.48005 101.188 4.73327 100.331 6.67746 98.3986C8.88766 96.1806 9.67786 93.4893 10.5111 90.6375Z" fill="#766DFA" fill-opacity="0.33"/>
<path d="M50.7291 10.4486C47.7443 11.3248 44.6579 12.2285 41.9939 14.8885C39.33 17.5486 38.4263 20.6389 37.554 23.6276C36.7716 26.2563 36.0518 28.7404 34.0998 30.7237C32.1478 32.707 29.6325 33.4072 26.9998 34.1778C24.0112 35.0541 20.9247 35.9577 18.2647 38.6217L18.2216 38.6647L18.1669 38.7156C15.5029 41.3795 14.5993 44.466 13.723 47.4546C12.9406 50.0834 12.2248 52.5713 10.2728 54.5507C8.32075 56.5301 5.80545 57.2342 3.17278 58.0049C2.12441 58.3139 1.06821 58.6229 0.0198403 59.0102L0.0198402 60.751C1.16992 60.2933 2.36695 59.9451 3.51703 59.6048C6.36485 58.7716 9.0562 57.9814 11.3407 55.693L11.3916 55.6421L11.4385 55.5952C13.7113 53.3224 14.5015 50.631 15.3504 47.7715C16.164 44.9941 17.009 42.1228 19.3522 39.7522C21.6954 37.3816 24.5666 36.5719 27.3441 35.7895C30.1919 34.9563 32.8832 34.1661 35.1677 31.8777C35.1857 31.8617 35.2026 31.8447 35.2186 31.8268L35.2655 31.7799C37.5383 29.5071 38.3285 26.8157 39.1774 23.9562C39.6174 22.273 40.2105 20.6336 40.9495 19.0585C40.9851 18.9914 41.0089 18.9186 41.0199 18.8434C41.5776 17.7913 42.2881 16.8277 43.1283 15.9838C45.5067 13.6054 48.3976 12.7566 51.1946 11.939C53.9915 11.1214 56.7416 10.3156 59.0183 8.02715C61.295 5.73872 62.0812 3.06302 62.9301 0.20346L62.9888 4.93974e-05L61.3575 4.92599e-05C60.6065 2.5623 59.8554 4.98373 57.9268 6.91227C55.8888 8.9386 53.3813 9.67012 50.7291 10.4486Z" fill="#766DFA" fill-opacity="0.33"/>
<path d="M6.74912 3.45654L6.79997 3.4096C7.73435 2.46988 8.50281 1.37869 9.07275 0.182327L7.24201 0.182327C6.80608 0.973784 6.26527 1.70276 5.63425 2.34949C4.04213 3.91423 2.11358 4.69659 0.0755136 5.34205L0.0755134 7.04761C2.4813 6.31609 4.74236 5.4594 6.69045 3.52695C6.71192 3.50513 6.73153 3.48159 6.74912 3.45654Z" fill="#766DFA" fill-opacity="0.33"/>
<path d="M70.8866 9.30619C70.1042 11.9584 69.3766 14.4659 67.3659 16.4531C65.3553 18.4404 62.8712 19.1914 60.2151 19.9738C57.2304 20.8461 54.1439 21.7498 51.4799 24.4137C48.816 27.0777 47.9123 30.1641 47.04 33.1489C46.2576 35.7776 45.5379 38.2656 43.5898 40.245C41.6417 42.2244 39.1185 42.9324 36.4858 43.703C33.5011 44.5754 30.4147 45.4829 27.7507 48.143L27.7037 48.1938L27.6529 48.2408C24.9928 50.9008 24.0853 53.9912 23.213 56.9759C22.4306 59.6086 21.7108 62.0926 19.7588 64.0759C17.8068 66.0592 15.2915 66.7594 12.6588 67.5301C9.67408 68.4024 6.58762 69.306 3.92366 71.97C1.77215 74.1254 0.766797 76.5547 0.0118153 78.9839L0.0118149 84.2258C0.383435 83.2283 0.688573 82.1995 0.997609 81.1472C1.81518 78.3502 2.66012 75.4594 5.04244 73.0771C5.88575 72.238 6.84793 71.5275 7.89808 70.9686C7.9741 70.9579 8.04799 70.9354 8.11714 70.9021C9.69112 70.1596 11.3307 69.565 13.0148 69.1261C15.8665 68.2929 18.5579 67.5027 20.8385 65.2143L20.8854 65.1673L20.9363 65.1204C23.2051 62.8476 23.9953 60.1563 24.8481 57.2967C25.6618 54.5232 26.5028 51.6519 28.8421 49.2813C31.1814 46.9107 34.0879 46.0932 36.8653 45.2795C39.717 44.4463 42.4084 43.6561 44.689 41.3677L44.7359 41.3168L44.7868 41.2738C47.0557 39.001 47.8459 36.3057 48.6986 33.4501C49.1362 31.7674 49.7295 30.1291 50.4707 28.5564C50.504 28.4872 50.5265 28.4133 50.5372 28.3373C51.0961 27.2872 51.8066 26.325 52.6457 25.4817C55.028 23.0994 57.9188 22.2544 60.7158 21.4329C63.5128 20.6114 66.2589 19.8095 68.5395 17.5211C70.8201 15.2326 71.5986 12.5569 72.4513 9.69738C73.3041 6.83782 74.0669 4.0565 76.414 1.6781C76.5901 1.50206 76.7661 1.33777 76.95 1.17738C76.3162 1.06003 75.6825 0.946591 75.0488 0.844884C72.6078 3.44626 71.7198 6.42316 70.8866 9.30619Z" fill="#766DFA" fill-opacity="0.33"/>
<path d="M103.852 29.0925C101.188 31.7565 100.28 34.8429 99.4078 37.8276C98.6254 40.4799 97.8978 42.9874 95.9067 44.9785C93.9156 46.9696 91.412 47.7168 88.7558 48.4796C85.7711 49.3519 82.6847 50.2556 80.0207 52.9195C77.3567 55.5835 76.457 58.6699 75.5808 61.6547C74.7984 64.2873 74.0786 66.7714 72.1266 68.7547C70.1746 70.738 67.6593 71.4382 65.0266 72.2088C62.0419 73.0812 58.9554 73.9887 56.2915 76.6488L56.2445 76.6996L56.1937 76.7466C53.5336 79.4105 52.63 82.497 51.7537 85.4817C50.9714 88.1144 50.2516 90.6023 48.2996 92.5817C46.3476 94.5611 43.8322 95.2496 41.2074 96.032C38.2226 96.9043 35.1362 97.8079 32.4722 100.472C29.8083 103.136 28.9046 106.222 28.0323 109.207C27.2499 111.859 26.5223 114.367 24.5312 116.358C22.5401 118.349 20.0326 119.096 17.3804 119.859C14.3956 120.731 11.3092 121.639 8.6452 124.299C7.16892 125.805 6.03478 127.611 5.32014 129.596L7.01005 129.596C7.64004 128.033 8.57036 126.61 9.74834 125.406C12.1267 123.028 15.0215 122.179 17.8185 121.361C20.6154 120.544 23.3616 119.738 25.6422 117.449C27.9228 115.161 28.7012 112.481 29.554 109.626C30.4068 106.77 31.2204 103.934 33.5988 101.555C34.4422 100.716 35.4043 100.006 36.4545 99.447C36.5305 99.4363 36.6044 99.4138 36.6736 99.3805C38.2475 98.638 39.8871 98.0435 41.5712 97.6045C44.4229 96.7713 47.1143 95.985 49.3949 93.6927L49.4223 93.6848L49.4731 93.6379C51.742 91.3651 52.5322 88.6738 53.385 85.8142C54.1986 83.0368 55.0397 80.1655 57.379 77.7949C59.7182 75.4244 62.6247 74.6107 65.4021 73.7931C68.2539 72.9599 70.9452 72.1697 73.2258 69.8813L73.2728 69.8343L73.2845 69.8226C75.5573 67.5498 76.3436 64.8546 77.1964 61.9989C77.6346 60.3164 78.2278 58.6782 78.9684 57.1052C79.0012 57.0355 79.0249 56.9619 79.0388 56.8861C79.5963 55.836 80.3054 54.8738 81.1434 54.0305C83.5257 51.6482 86.4166 50.8032 89.2135 49.9817C92.0105 49.1603 94.7566 48.3583 97.0372 46.0699C99.3178 43.7815 100.1 41.1058 100.949 38.2462C101.767 35.4532 102.616 32.5584 104.994 30.18C107.372 27.8016 110.267 26.9527 113.064 26.1312C114.097 25.83 115.11 25.5327 116.088 25.1689C115.751 24.7347 115.407 24.3005 115.059 23.8741C114.277 24.1479 113.455 24.3865 112.622 24.633C109.598 25.5249 106.512 26.4285 103.852 29.0925Z" fill="#766DFA" fill-opacity="0.33"/>
<path d="M94.3419 19.5864C91.6779 22.2504 90.7743 25.3368 89.9019 28.3216C89.1195 30.9738 88.388 33.4813 86.3813 35.4685C84.3745 37.4557 81.8826 38.2068 79.2304 38.9696C76.2457 39.8458 73.1592 40.7495 70.4953 43.4134C67.8313 46.0774 66.9277 49.1639 66.0553 52.1486C65.273 54.7774 64.5532 57.2653 62.6012 59.2486C60.6492 61.2319 58.1338 61.9282 55.5012 62.7027C52.5125 63.5751 49.4261 64.4787 46.766 67.1427L46.7191 67.1935C46.7012 67.2081 46.6842 67.2238 46.6682 67.2405C44.0043 69.9005 43.1006 72.987 42.2283 75.9756C41.4459 78.6083 40.7261 81.0923 38.7702 83.0756C36.8143 85.0589 34.3029 85.7552 31.6741 86.5298C28.6894 87.4021 25.6029 88.3058 22.939 90.9697C20.275 93.6337 19.3714 96.7201 18.4951 99.7049C17.7128 102.357 16.9852 104.865 14.9979 106.852C13.0107 108.839 10.4993 109.59 7.84708 110.372C5.19485 111.155 2.44873 111.961 -7.73684e-05 114.007L-7.75491e-05 116.15C0.0742404 116.076 0.140746 115.998 0.218978 115.923C2.59738 113.541 5.48826 112.696 8.28522 111.875C11.0822 111.053 13.8283 110.251 16.1089 107.963C18.3895 105.674 19.1719 102.999 20.0208 100.139C20.8696 97.2795 21.6872 94.4513 24.0695 92.0729C24.9119 91.2328 25.8743 90.5222 26.9251 89.9644C27.0009 89.9504 27.0745 89.9268 27.1442 89.894C28.7187 89.1538 30.3582 88.5606 32.0418 88.1219C34.8897 87.2887 37.581 86.4985 39.8655 84.2101L39.9125 84.1592C39.9291 84.1446 39.9448 84.1289 39.9594 84.1123C42.2322 81.8434 43.0224 79.1481 43.8713 76.2886C44.6849 73.5112 45.5299 70.6438 47.8692 68.2732C50.2085 65.9026 53.111 65.0851 55.8923 64.2714C58.7402 63.4382 61.4354 62.648 63.716 60.3596L63.763 60.3087L63.8099 60.2618C66.0827 57.989 66.8729 55.2976 67.7218 52.4381C68.1587 50.7544 68.7506 49.1149 69.4899 47.5404C69.5261 47.4735 69.55 47.4006 69.5603 47.3253C70.1181 46.2732 70.8286 45.3096 71.6688 44.4657C74.0472 42.0873 76.9381 41.2424 79.739 40.4209C82.5398 39.5994 85.282 38.7975 87.5626 36.509C89.8432 34.2206 90.6217 31.5449 91.4745 28.6854C92.3273 25.8258 93.137 22.9975 95.5193 20.6152C97.9017 18.2329 100.792 17.3919 103.589 16.5704C104.736 16.234 105.862 15.9014 106.942 15.4829C106.484 15.0917 106.019 14.7005 105.549 14.3093C104.767 14.5792 103.985 14.8139 103.147 15.0526C100.092 16.0188 97.0058 16.9224 94.3419 19.5864Z" fill="#766DFA" fill-opacity="0.33"/>
<path d="M117.281 77.001C114.293 77.8733 111.206 78.7769 108.546 81.4409C105.886 84.1049 104.971 87.1913 104.102 90.1643C103.32 92.797 102.604 95.281 100.648 97.2643C98.6921 99.2476 96.1807 99.9439 93.548 100.726C90.5633 101.599 87.4768 102.506 84.8129 105.166L84.7659 105.217L84.719 105.264C82.055 107.928 81.1514 111.014 80.2751 113.999C79.4928 116.632 78.773 119.12 76.821 121.099C74.8689 123.079 72.3536 123.783 69.721 124.553C66.7362 125.43 63.6498 126.333 60.9858 128.993C60.7902 129.193 60.5946 129.384 60.4264 129.596L62.6405 129.596C63.3484 128.976 64.124 128.438 64.9524 127.992C65.0271 127.98 65.0996 127.958 65.1676 127.925C66.741 127.182 68.3807 126.589 70.0652 126.153C72.917 125.316 75.6083 124.53 77.8889 122.241L77.9359 122.191L77.9867 122.144C80.2595 119.871 81.0458 117.18 81.8986 114.32C82.7122 111.543 83.5533 108.671 85.8964 106.301C88.2396 103.93 91.1383 103.116 93.9157 102.303C96.7675 101.466 99.4588 100.679 101.739 98.3909L101.786 98.3401L101.837 98.2931C104.11 96.0203 104.896 93.329 105.749 90.4694C106.187 88.7869 106.781 87.1487 107.521 85.5757C107.554 85.506 107.578 85.4324 107.592 85.3567C108.15 84.3074 108.859 83.3454 109.696 82.501C112.078 80.1187 114.969 79.2737 117.766 78.4562C120.563 77.6386 123.309 76.8327 125.59 74.5443C127.871 72.2559 128.653 69.5763 129.502 66.7206C129.545 66.572 129.592 66.4194 129.635 66.2669C129.635 65.7622 129.635 65.2576 129.635 64.7491C129.635 63.7359 129.607 62.7266 129.564 61.7252C128.934 63.2046 128.411 64.7277 128 66.2825C127.217 68.9347 126.49 71.4422 124.479 73.4334C122.468 75.4245 119.933 76.2225 117.281 77.001Z" fill="#766DFA" fill-opacity="0.33"/>
<path d="M113.357 38.5977C110.693 41.2617 109.789 44.3482 108.917 47.3329C108.135 49.989 107.403 52.4926 105.396 54.4838C103.389 56.4749 100.898 57.222 98.2454 57.9848C95.2606 58.8611 92.1742 59.7647 89.5102 62.4248C86.8463 65.0848 85.9426 68.1752 85.0664 71.1638C84.284 73.7926 83.5681 76.2805 81.6161 78.2599C79.6641 80.2393 77.1488 80.9435 74.5122 81.7141C71.5275 82.5903 68.441 83.494 65.781 86.1579L65.7301 86.2049L65.6832 86.2518C63.0192 88.9158 62.1156 92.0022 61.2393 94.9909C60.457 97.6196 59.7411 100.108 57.7852 102.091C55.8293 104.074 53.3178 104.77 50.6891 105.541C47.7004 106.417 44.614 107.321 41.9539 109.985C39.2939 112.649 38.3863 115.731 37.5101 118.72C36.7277 121.372 36.0001 123.876 33.9894 125.867C31.9787 127.858 29.4947 128.605 26.8425 129.388L26.0601 129.619L31.126 129.619C32.6233 129.018 33.9863 128.126 35.1356 126.994C37.4084 124.721 38.1986 122.03 39.0474 119.17C39.8963 116.31 40.7139 113.482 43.0923 111.1C43.9371 110.262 44.9006 109.553 45.9518 108.995C46.0263 108.981 46.0987 108.958 46.167 108.925C47.7413 108.184 49.3809 107.591 51.0646 107.153C53.9164 106.316 56.6077 105.529 58.8883 103.241L58.9353 103.19L58.9861 103.143C61.2589 100.87 62.0491 98.179 62.898 95.3195C63.7116 92.5421 64.5527 89.6708 66.8959 87.3041C69.2391 84.9374 72.1377 84.116 74.9191 83.3023C77.7669 82.4652 80.4582 81.6789 82.7427 79.3905C82.7594 79.3745 82.7751 79.3575 82.7897 79.3396L82.8405 79.2927C85.1133 77.0199 85.9035 74.3285 86.7524 71.469C87.1924 69.787 87.7856 68.149 88.5245 66.5753C88.559 66.5063 88.5827 66.4324 88.5949 66.3562C89.1538 65.306 89.8643 64.3439 90.7034 63.5005C93.0818 61.1221 95.9726 60.2733 98.7696 59.4557C101.567 58.6381 104.313 57.8323 106.593 55.5439C108.874 53.2554 109.656 50.5797 110.505 47.7202C111.354 44.8606 112.082 42.0871 114.464 39.7009C116.846 37.3147 119.733 36.4736 122.534 35.656L122.647 35.6208C122.409 35.1475 122.162 34.6742 121.912 34.2087C118.982 35.0693 115.966 35.9885 113.357 38.5977Z" fill="#766DFA" fill-opacity="0.33"/>
<path d="M113.612 99.6853C112.829 102.314 112.109 104.802 110.157 106.781C108.205 108.761 105.69 109.465 103.057 110.236C100.069 111.112 96.9823 112.015 94.3222 114.679L94.2753 114.726L94.2244 114.773C91.5605 117.437 90.6568 120.524 89.7806 123.512C89.6593 123.931 89.538 124.346 89.4128 124.756C90.0661 124.486 90.7194 124.209 91.3688 123.919L91.3688 123.853C92.1824 121.075 93.0235 118.208 95.3667 115.837C97.7099 113.467 100.609 112.649 103.386 111.836C106.238 111.002 108.929 110.212 111.21 107.924C111.226 107.908 111.242 107.891 111.257 107.873L111.307 107.826C113.58 105.553 114.37 102.862 115.219 100.002C115.659 98.319 116.252 96.6796 116.991 95.1046C117.026 95.0356 117.05 94.9617 117.062 94.8855C117.621 93.8354 118.331 92.8732 119.17 92.0299C120.934 90.2656 122.98 89.3463 125.058 88.6539C125.305 88.0359 125.54 87.4139 125.762 86.788C123.106 87.5704 120.418 88.5679 118.063 90.9228C115.387 93.6103 114.484 96.6967 113.612 99.6853Z" fill="#766DFA" fill-opacity="0.33"/>
<path d="M122.863 48.1078C120.2 50.7718 119.296 53.8582 118.424 56.843C117.641 59.4952 116.914 61.9988 114.922 63.9899C112.931 65.981 110.424 66.7282 107.772 67.5105C104.787 68.3868 101.7 69.2904 99.0365 71.9544C96.3725 74.6184 95.4688 77.7048 94.5965 80.6896C93.8141 83.3222 93.0944 85.8062 91.1424 87.7895C89.1904 89.7728 86.675 90.4692 84.0424 91.2437C81.0576 92.116 77.9712 93.0197 75.3072 95.6836L75.2603 95.7345L75.2094 95.7814C72.5494 98.4415 71.6418 101.528 70.7695 104.517C69.9871 107.149 69.2673 109.633 67.3114 111.617C65.3555 113.6 62.8441 114.3 60.2153 115.071C57.2306 115.943 54.1441 116.847 51.4802 119.511C48.8162 122.175 47.9125 125.261 47.0402 128.246C46.9033 128.707 46.7703 129.165 46.649 129.619L48.249 129.619C48.3429 129.31 48.4328 128.997 48.5228 128.684C49.3443 125.887 50.1893 122.996 52.5716 120.618C53.4149 119.779 54.3771 119.068 55.4272 118.509C55.5034 118.497 55.5773 118.473 55.6463 118.439C57.221 117.699 58.8605 117.106 60.5439 116.667C63.3917 115.834 66.087 115.043 68.3676 112.755L68.4145 112.708L68.4615 112.657C70.7343 110.388 71.5244 107.693 72.3733 104.833C73.187 102.06 74.032 99.1887 76.3712 96.8181C78.7105 94.4475 81.617 93.6299 84.3944 92.8163C87.2462 91.983 89.9375 91.1929 92.2181 88.9044L92.2651 88.8575L92.312 88.8066C94.5848 86.5378 95.375 83.8425 96.2238 80.9829C96.6609 79.2988 97.2542 77.6592 97.9959 76.0853C98.0292 76.0175 98.0517 75.9449 98.0624 75.8702C98.6193 74.8187 99.3299 73.8562 100.171 73.0145C102.549 70.6322 105.444 69.7872 108.241 68.9658C111.038 68.1443 113.784 67.3423 116.065 65.0539C118.345 62.7655 119.124 60.0898 119.977 57.2302C120.829 54.3707 121.639 51.5424 124.021 49.164C124.94 48.2557 125.996 47.4979 127.151 46.9186C127.006 46.4062 126.854 45.8976 126.693 45.3891C125.271 46.0705 123.976 46.9899 122.863 48.1078Z" fill="#766DFA" fill-opacity="0.33"/>
</svg>
