<svg width="344" height="345" viewBox="0 0 344 345" fill="none" xmlns="http://www.w3.org/2000/svg">
<path d="M178.848 298.375C184.139 293.073 190.816 291.083 197.889 289C205.836 286.667 214.055 284.261 221.138 277.167C228.221 270.074 230.637 261.855 232.971 253.908C235.054 246.908 236.96 240.283 242.168 235.002C247.376 229.721 254.064 227.856 261.074 225.804C269.021 223.482 277.24 221.075 284.323 213.982C284.371 213.939 284.416 213.894 284.458 213.847L284.583 213.722C291.677 206.628 294.083 198.41 296.416 190.462C298.5 183.462 300.406 176.837 305.604 171.567C310.801 166.296 317.499 164.421 324.52 162.359C331.051 160.453 337.769 158.474 343.894 153.89L343.894 148.474C341.877 150.326 339.633 151.915 337.217 153.203C337.016 153.231 336.822 153.294 336.644 153.39C332.45 155.358 328.085 156.937 323.603 158.109C316.009 160.328 308.843 162.432 302.77 168.525C302.77 168.525 302.687 168.619 302.635 168.661L302.51 168.786C296.458 174.827 294.354 182.004 292.094 189.618C289.927 197.003 287.687 204.649 281.448 210.961C275.209 217.273 267.49 219.45 260.095 221.617C252.501 223.836 245.335 225.94 239.262 232.033L239.137 232.158L239.002 232.283C232.95 238.335 230.846 245.512 228.585 253.116C227.417 257.599 225.837 261.964 223.867 266.157C223.778 266.338 223.715 266.531 223.679 266.73C222.194 269.528 220.302 272.091 218.065 274.334C211.732 280.678 204.034 282.927 196.587 285.115C189.139 287.302 181.827 289.438 175.754 295.531C174.49 296.793 173.343 298.166 172.327 299.635C173.546 300.323 174.764 301 175.994 301.718C176.842 300.52 177.797 299.4 178.848 298.375Z" fill="#FC805F" fill-opacity="0.33"/>
<path d="M223.2 314.364C231.148 312.031 239.366 309.624 246.46 302.541C253.553 295.458 255.959 287.229 258.282 279.282C260.366 272.272 262.282 265.647 267.48 260.376C272.678 255.106 279.375 253.231 286.385 251.179C294.333 248.845 302.552 246.439 309.645 239.346L309.77 239.21L309.905 239.096C316.989 232.002 319.405 223.784 321.728 215.836C323.811 208.826 325.728 202.212 330.926 196.931C334.675 193.233 339.113 191.181 343.894 189.556L343.894 184.994C338.175 186.837 332.8 189.16 328.103 193.847L327.978 193.983L327.842 194.108C321.79 200.16 319.697 207.326 317.426 214.94C315.259 222.336 313.02 229.971 306.791 236.283C300.562 242.596 292.823 244.773 285.427 246.939C277.834 249.158 270.667 251.262 264.595 257.355L264.47 257.491L264.334 257.616C258.282 263.668 256.189 270.834 253.918 278.448C252.756 282.933 251.176 287.3 249.199 291.49C249.112 291.671 249.052 291.864 249.022 292.063C247.533 294.862 245.642 297.427 243.408 299.677C237.064 306.01 229.367 308.27 221.919 310.447C216.419 312.062 211.138 313.572 206.295 316.697C207.909 317.395 209.513 318.082 211.128 318.78C215.01 316.945 219.051 315.467 223.2 314.364Z" fill="#FC805F" fill-opacity="0.33"/>
<path d="M304.343 342.79C306.217 338.627 307.746 334.318 308.916 329.905C310.999 322.905 312.905 316.28 318.113 310.999C323.322 305.718 330.009 303.854 337.019 301.802C339.3 301.135 341.602 300.458 343.894 299.718L343.894 295.104C341.311 296.052 338.686 296.823 336.102 297.583C328.509 299.802 321.343 301.906 315.27 307.999L315.145 308.124C315.145 308.124 315.051 308.208 315.009 308.26C308.958 314.312 306.864 321.478 304.593 329.092C303.425 333.575 301.845 337.941 299.875 342.134C299.836 342.209 299.808 342.29 299.791 342.373C301.385 342.467 302.843 342.623 304.343 342.79Z" fill="#FC805F" fill-opacity="0.33"/>
<path d="M128.214 247.741C133.516 242.439 140.182 240.45 147.255 238.367C155.203 236.033 163.421 233.627 170.515 226.534C177.608 219.44 180.004 211.232 182.337 203.274C184.42 196.274 186.327 189.66 191.524 184.379C196.722 179.098 203.43 177.233 210.44 175.181C218.388 172.848 226.606 170.442 233.7 163.349L233.825 163.213L233.96 163.088C241.043 156.005 243.449 147.787 245.783 139.829C247.866 132.829 249.783 126.204 254.97 120.933C260.157 115.663 266.876 113.861 273.886 111.777C281.834 109.455 290.052 107.048 297.145 99.955C304.239 92.8615 306.645 84.643 308.968 76.6953C311.051 69.6331 312.989 62.9563 318.291 57.6649C323.592 52.3734 330.269 50.3735 337.332 48.2902C339.509 47.6444 341.706 46.9985 343.894 46.259L343.894 41.832C341.331 42.7695 338.686 43.5299 336.154 44.2903C328.571 46.5089 321.395 48.613 315.322 54.7066C309.249 60.8001 307.176 67.9248 304.906 75.5391C302.635 83.1534 300.468 90.6844 294.135 97.0175C291.89 99.2518 289.328 101.144 286.531 102.632C286.33 102.669 286.134 102.732 285.948 102.819C281.755 104.789 277.389 106.368 272.907 107.538C265.313 109.757 258.147 111.861 252.074 117.954L251.949 118.09L251.814 118.215C245.762 124.267 243.668 131.433 241.397 139.047C239.231 146.443 236.991 154.078 230.752 160.39C224.513 166.703 216.794 168.88 209.399 171.046C201.805 173.265 194.639 175.369 188.566 181.462L188.431 181.608L188.306 181.723C182.254 187.775 180.16 194.941 177.889 202.555C176.723 207.039 175.143 211.405 173.171 215.597C173.083 215.779 173.02 215.971 172.983 216.169C171.502 218.971 169.613 221.537 167.379 223.784C161.036 230.117 153.338 232.377 145.89 234.554C138.443 236.731 131.131 238.877 125.058 244.971C120.61 249.418 118.298 254.481 116.496 259.866C117.635 260.859 118.777 261.841 119.923 262.814C121.86 257.126 123.964 251.991 128.214 247.741Z" fill="#FC805F" fill-opacity="0.33"/>
<path d="M153.474 273.053C158.776 267.751 165.452 265.761 172.515 263.73C180.462 261.407 188.681 258.991 195.774 251.908C202.868 244.825 205.274 236.596 207.597 228.648C209.68 221.638 211.597 215.024 216.794 209.743C221.992 204.461 228.69 202.597 235.7 200.545C243.648 198.212 251.876 195.805 258.96 188.722L259.095 188.577L259.22 188.462C266.313 181.369 268.72 173.15 271.042 165.202C273.126 158.192 275.042 151.578 280.24 146.297C285.438 141.016 292.135 139.151 299.146 137.099C307.093 134.766 315.312 132.36 322.405 125.277C329.499 118.194 331.905 109.965 334.238 102.017C336.321 94.9446 338.259 88.2781 343.55 82.9762L343.842 82.7054L343.842 77.2368C342.7 78.0885 341.621 79.0215 340.613 80.0284C334.561 86.0803 332.457 93.2467 330.197 100.861C327.936 108.475 325.759 116.006 319.416 122.35C317.168 124.581 314.606 126.473 311.812 127.964C311.612 127.991 311.419 128.051 311.239 128.141C307.043 130.113 302.674 131.693 298.187 132.86C290.604 135.089 283.427 137.183 277.355 143.276L277.23 143.422L277.105 143.537C271.053 149.588 268.949 156.755 266.688 164.369C264.522 171.765 262.272 179.41 256.043 185.723C249.814 192.035 242.085 194.201 234.679 196.368C227.096 198.597 219.919 200.691 213.847 206.784L213.722 206.92L213.597 207.045C207.545 213.097 205.441 220.263 203.18 227.877C202.012 232.361 200.428 236.727 198.451 240.918C198.362 241.103 198.303 241.299 198.274 241.502C196.786 244.298 194.894 246.86 192.66 249.106C186.327 255.439 178.629 257.699 171.171 259.876C163.713 262.053 156.411 264.199 150.338 270.292C147.288 273.397 144.891 277.08 143.287 281.125C144.453 281.959 145.63 282.771 146.797 283.584C148.247 279.638 150.523 276.047 153.474 273.053Z" fill="#FC805F" fill-opacity="0.33"/>
<path d="M283.594 304.593C285.677 297.583 287.594 290.969 292.791 285.688C297.989 280.407 304.697 278.542 311.707 276.49C319.655 274.157 327.874 271.751 334.957 264.668C334.999 264.62 335.044 264.575 335.092 264.532L335.217 264.407C339.033 260.525 341.989 255.883 343.894 250.783L343.894 236.533C343.519 237.752 343.154 238.991 342.79 240.231C340.623 247.627 338.373 255.272 332.144 261.584C325.915 267.897 318.186 270.105 310.76 272.188C303.166 274.417 295.989 276.511 289.927 282.605C289.891 282.655 289.849 282.7 289.802 282.74L289.677 282.865C283.625 288.917 281.521 296.083 279.261 303.698C278.089 308.176 276.51 312.538 274.542 316.728C274.446 316.91 274.382 317.108 274.355 317.312C272.866 320.108 270.975 322.67 268.74 324.916C264.722 328.784 259.873 331.684 254.564 333.394C256.807 333.992 259.057 334.568 261.313 335.124C265.18 333.311 268.704 330.845 271.73 327.832C278.865 320.759 281.271 312.541 283.594 304.593Z" fill="#FC805F" fill-opacity="0.33"/>
<path d="M343.894 330.405C342.728 331.267 341.628 332.214 340.602 333.238L340.477 333.374L340.342 333.499C337.149 336.743 334.665 340.617 333.05 344.873C334.592 344.873 336.175 344.957 337.686 344.988C339.037 341.769 340.977 338.83 343.404 336.321L343.873 335.874L343.894 330.405Z" fill="#FC805F" fill-opacity="0.33"/>
<path d="M45.9875 137.151C53.9351 134.829 62.1536 132.422 69.2471 125.329C76.3406 118.235 78.7467 110.017 81.0695 102.069C83.1528 95.0592 85.0694 88.4448 90.2671 83.1637C95.4649 77.8827 102.163 76.0181 109.173 73.9661C117.131 71.6432 125.349 69.2267 132.432 62.1436L132.568 62.0082L132.693 61.8832C139.786 54.7897 142.192 46.5713 144.526 38.6237C146.609 31.6135 148.515 24.9991 153.713 19.7181C158.911 14.437 165.608 12.5725 172.618 10.5205C180.035 8.35395 187.68 6.10403 194.43 0.104248L187.534 0.104248C186.805 0.562565 186.076 1.00005 185.326 1.40628C185.127 1.43489 184.934 1.49456 184.753 1.58328C180.562 3.55874 176.196 5.14187 171.712 6.31232C164.119 8.53099 156.952 10.6247 150.88 16.7286L150.744 16.8745L150.619 16.989C144.567 23.0409 142.463 30.2073 140.203 37.8216C138.036 45.2068 135.786 52.8523 129.557 59.1646C123.328 65.4768 115.6 67.6434 108.204 69.81C100.611 72.0391 93.4441 74.1432 87.3714 80.2263L87.2464 80.3617L87.111 80.4867C81.0591 86.5386 78.955 93.705 76.6947 101.319C75.5231 105.798 73.9437 110.16 71.9761 114.35C71.8842 114.534 71.8209 114.731 71.7886 114.933C70.3002 117.73 68.4085 120.292 66.1742 122.537C59.8411 128.87 52.1435 131.131 44.6959 133.318C38.8731 135.016 33.3108 136.651 28.3006 140.047L30.0401 143.912C34.842 140.422 40.2897 138.86 45.9875 137.151Z" fill="#FC805F" fill-opacity="0.33"/>
<path d="M52.2686 171.796C57.5705 166.494 64.2369 164.505 71.3096 162.473C79.2572 160.14 87.4757 157.734 94.5587 150.64C101.642 143.547 104.058 135.328 106.392 127.381C108.475 120.381 110.381 113.767 115.579 108.486C120.777 103.205 127.433 101.361 134.495 99.2777C142.442 96.9548 150.661 94.5487 157.754 87.4552L157.879 87.3198L158.004 87.1948C165.098 80.1117 167.504 71.8932 169.837 63.9351C171.921 56.9354 173.827 50.3107 179.024 45.0401C184.222 39.7695 190.92 37.8944 197.94 35.832C205.888 33.5092 214.107 31.103 221.2 24.0095C228.294 16.916 230.689 8.69764 233.022 0.750011L233.231 0.0625L228.887 0.0624998C226.741 7.3539 224.45 14.8641 218.252 21.0618C216.005 23.299 213.439 25.191 210.638 26.6762C210.439 26.7106 210.246 26.7737 210.065 26.8636C205.872 28.8329 201.506 30.4124 197.024 31.5822C189.43 33.8009 182.264 35.905 176.191 41.9985L176.056 42.1339L175.931 42.2589C169.879 48.3108 167.785 55.4772 165.515 63.0915C163.348 70.4871 161.108 78.1222 154.869 84.4345C148.63 90.7467 140.911 92.9237 133.516 95.0903C125.922 97.309 118.756 99.4131 112.683 105.507L112.537 105.652L112.423 105.767C106.371 111.819 104.277 118.985 102.006 126.6C100.84 131.083 99.2601 135.449 97.2878 139.641C97.2004 139.823 97.1374 140.015 97.1003 140.214C95.616 143.013 93.7278 145.579 91.4963 147.828C85.1528 154.161 77.4552 156.411 70.0075 158.598C62.5599 160.786 55.2476 162.921 49.1749 169.015C47.7703 170.409 46.5136 171.945 45.4251 173.598C46.2167 174.952 47.0188 176.306 47.8312 177.66C49.0255 175.505 50.5195 173.531 52.2686 171.796Z" fill="#FC805F" fill-opacity="0.33"/>
<path d="M77.5804 197.108C82.8823 191.806 89.5592 189.817 96.6214 187.733C104.569 185.4 112.787 182.994 119.881 175.911C126.974 168.828 129.381 160.599 131.703 152.651C133.787 145.641 135.703 139.027 140.901 133.746C146.099 128.464 152.796 126.6 159.807 124.548C167.754 122.215 175.973 119.809 183.066 112.715L183.202 112.58L183.327 112.465C190.41 105.372 192.826 97.1531 195.149 89.195C197.232 82.1953 199.149 75.581 204.347 70.3C209.544 65.0189 216.242 63.1543 223.252 61.1023C231.2 58.7691 239.418 56.3629 246.512 49.2694C253.605 42.1759 256.011 33.9679 258.334 26.0203C260.418 18.9477 262.365 12.2812 267.709 6.97931C271.009 3.82091 274.974 1.43998 279.313 0.0107422L269.761 0.0107418C267.957 1.16603 266.284 2.5143 264.772 4.03154C258.72 10.0834 256.616 17.2498 254.355 24.8641C252.095 32.4784 249.908 40.0093 243.574 46.3528C241.326 48.581 238.764 50.469 235.971 51.9568C235.769 51.9939 235.573 52.057 235.387 52.1443C231.196 54.1181 226.83 55.6978 222.346 56.8629C214.763 59.092 207.586 61.1857 201.513 67.2792L201.388 67.4147L201.263 67.5396C195.212 73.5915 193.108 80.7579 190.847 88.3722C188.691 95.7678 186.441 103.413 180.212 109.715C173.983 116.017 166.254 118.204 158.848 120.371C151.265 122.6 144.088 124.694 138.016 130.787L137.88 130.933L137.755 131.048C131.714 137.1 129.61 144.266 127.339 151.88C126.177 156.365 124.597 160.731 122.62 164.922C122.532 165.106 122.472 165.302 122.443 165.505C120.955 168.301 119.063 170.863 116.829 173.109C110.496 179.442 102.798 181.702 95.3402 183.879C87.8821 186.056 80.5803 188.202 74.5076 194.295C71.1902 197.692 68.6368 201.759 67.0183 206.222C68.0078 207.545 69.0182 208.857 70.0286 210.159C71.7786 205.264 73.841 200.847 77.5804 197.108Z" fill="#FC805F" fill-opacity="0.33"/>
<path d="M30.4466 51.4356C32.5298 44.4254 34.436 37.8112 39.6441 32.5301C44.8523 27.2491 51.5395 25.3845 58.5497 23.3325C66.4973 21.0096 74.7158 18.6035 81.8093 11.51L81.9343 11.3746L82.0593 11.2496C85.27 8.01906 87.8613 4.22738 89.7048 0.0625L84.9342 0.0624998C83.3999 3.13428 81.3928 5.94618 78.9865 8.39553C72.6742 14.6453 65.0286 16.8848 57.6331 19.0514C50.0396 21.27 42.8732 23.3741 36.8005 29.4677L36.6755 29.5927C36.6755 29.6447 36.5817 29.676 36.5401 29.7281C30.4882 35.7695 28.3841 42.9464 26.1238 50.5607C24.9571 55.0441 23.3775 59.4099 21.4052 63.6019C21.3179 63.7838 21.2548 63.9765 21.2177 64.1748C18.1618 69.9524 13.3962 74.6451 7.57236 77.6117C7.89527 79.0075 8.24942 80.4033 8.61399 81.7783C12.3104 80.0016 15.6805 77.6141 18.5824 74.7161C25.7071 67.6018 28.1133 59.3832 30.4466 51.4356Z" fill="#FC805F" fill-opacity="0.33"/>
<path d="M332.331 8.24975C325.988 14.5829 318.29 16.8432 310.843 19.0202C303.395 21.1972 296.083 23.3429 290.01 29.4364C283.937 35.53 281.854 42.6651 279.594 50.269C277.406 57.7063 275.156 65.4143 268.823 71.7474C266.576 73.9846 264.01 75.8767 261.209 77.3618C261.01 77.3904 260.817 77.4502 260.636 77.5389C256.443 79.5115 252.078 81.0945 247.595 82.268C240.001 84.4866 232.835 86.5803 226.762 92.6843C226.712 92.724 226.667 92.7695 226.627 92.8197L226.502 92.9342C220.45 98.9861 218.346 106.163 216.086 113.767C213.919 121.162 211.68 128.808 205.44 135.12C199.201 141.433 191.482 143.599 184.087 145.776C176.493 147.995 169.327 150.099 163.254 156.192L163.119 156.328L162.994 156.442C156.942 162.494 154.838 169.671 152.577 177.275C151.406 181.754 149.826 186.115 147.859 190.306C147.767 190.489 147.704 190.686 147.671 190.889C146.183 193.685 144.291 196.247 142.057 198.493C135.724 204.836 128.026 207.086 120.579 209.274C113.131 211.461 105.819 213.597 99.7461 219.69C95.142 224.294 92.8192 229.544 90.9963 235.137C92.038 236.304 93.163 237.481 94.2671 238.627C96.0691 232.7 98.1628 227.169 102.694 222.628C107.985 217.336 114.662 215.336 121.724 213.253C129.672 210.93 137.901 208.524 144.984 201.43C152.067 194.337 154.484 186.118 156.817 178.171C158.9 171.161 160.806 164.546 166.004 159.276C171.202 154.005 177.899 152.12 184.92 150.068C192.868 147.745 201.086 145.339 208.169 138.245L208.305 138.11L208.68 137.818C215.773 130.725 218.179 122.506 220.513 114.558C222.596 107.548 224.502 100.934 229.7 95.6633C234.897 90.3927 241.595 88.5072 248.605 86.4552C256.563 84.1324 264.782 81.7262 271.865 74.6328C278.948 67.5393 281.365 59.3209 283.698 51.3732C285.781 44.311 287.718 37.6341 293.072 32.3322C298.426 27.0303 305.041 25.0408 312.113 22.9575C320.061 20.6347 328.28 18.2182 335.363 11.1351C338.562 7.91967 341.146 4.14577 342.987 0L338.331 -2.03524e-07C336.777 3.04785 334.752 5.83191 332.331 8.24975Z" fill="#FC805F" fill-opacity="0.33"/>
<path d="M20.6764 111.84C28.624 109.507 36.8425 107.1 43.936 100.017C51.0295 92.9341 53.4356 84.7053 55.7585 76.7577C57.8417 69.7475 59.7583 63.1227 64.9561 57.8521C70.1538 52.5814 76.8515 50.7065 83.8616 48.6545C91.8093 46.3213 100.028 43.9151 107.121 36.8216L107.246 36.6862L107.382 36.5717C114.465 29.4782 116.871 21.2596 119.204 13.3016C120.579 8.62465 121.902 4.11444 124.183 0.0625L119.329 0.0624998C117.521 4.0419 116.054 8.16765 114.944 12.3954C112.777 19.7909 110.538 27.4261 104.309 33.7383C98.0799 40.0506 90.351 42.2277 82.945 44.3943C75.3515 46.613 68.1851 48.7171 62.1124 54.8106L61.9874 54.9459L61.852 55.071C55.8002 61.1229 53.7065 68.2893 51.4357 75.9036C50.2688 80.3836 48.6892 84.7458 46.7171 88.9342C46.63 89.1153 46.5703 89.3085 46.5401 89.5072C45.0549 92.3086 43.1629 94.8746 40.9257 97.1216C34.5926 103.455 26.8845 105.715 19.4369 107.892C18.3952 108.204 17.3536 108.507 16.312 108.819L17.6453 112.767L20.6764 111.84Z" fill="#FC805F" fill-opacity="0.33"/>
<path d="M14.3225 7.21861C17.8409 3.928 22.0619 1.48093 26.6658 0.0626221L16.5828 0.0626216C14.7497 1.23737 13.0458 2.60258 11.4997 4.13543C11.4636 4.1854 11.4216 4.23087 11.3746 4.27084L11.2496 4.39583C5.19777 10.4477 3.09368 17.6141 0.833348 25.2284L5.59966e-05 28.0616C0.260464 31.4261 0.593768 34.7697 0.958338 38.1029C2.62522 34.2122 4.01747 30.2095 5.12485 26.1242C7.17686 19.0724 9.12473 12.4997 14.3225 7.21861Z" fill="#FC805F" fill-opacity="0.33"/>
</svg>
