<svg width="53" height="77" viewBox="0 0 53 77" fill="none" xmlns="http://www.w3.org/2000/svg">
<path d="M35.5703 41.0752L52.932 41.0752L52.932 -8.14751e-05L35.5703 -8.29385e-05L35.5703 41.0752Z" fill="#766DFA"/>
<path d="M27.134 76.2222L52.932 76.2222L52.932 58.541L18.7592 58.541C18.4624 58.541 18.1778 58.4228 17.968 58.2125C17.7581 58.0022 17.6402 57.717 17.6402 57.4195L17.6402 1.56832e-06L-4.76404e-05 8.13559e-08L-5.17742e-05 49.0399C0.000535388 52.6103 0.702848 56.1456 2.06681 59.444C3.43077 62.7423 5.42967 65.7392 7.94933 68.2633C10.469 70.7874 13.4601 72.7895 16.7518 74.155C20.0435 75.5206 23.5714 76.223 27.134 76.2222Z" fill="#766DFA"/>
</svg>
