<svg width="337" height="337" viewBox="0 0 337 337" fill="none" xmlns="http://www.w3.org/2000/svg">
<g opacity="0.1">
<path d="M228.622 44.2197C232.295 47.8788 236.533 50.922 241.175 53.2323C242.646 53.9783 244.131 54.6564 245.63 55.2668L246.037 55.4295C246.596 55.6533 247.146 55.8771 247.705 56.0806L248.926 56.5383L249.699 56.813L251.367 57.3826L251.55 57.4437C254.195 58.3185 256.84 59.1018 259.444 59.8647C269.016 62.6722 278.049 65.317 285.292 72.5597C292.535 79.8024 295.179 88.8354 297.987 98.4075C298.76 101.042 299.543 103.707 300.438 106.383C300.632 106.983 300.845 107.583 301.049 108.183C301.13 108.397 301.212 108.61 301.283 108.824L301.771 110.156C301.964 110.665 302.168 111.174 302.361 111.662C302.442 111.845 302.514 112.028 302.585 112.221C303.195 113.707 303.873 115.182 304.619 116.646L304.619 116.718C306.93 121.359 309.973 125.597 313.632 129.27C320.753 136.391 328.809 139.961 336.906 142.616L336.906 138.324C329.714 135.852 322.665 132.536 316.501 126.391C312.997 122.851 310.106 118.754 307.946 114.266C307.912 114.19 307.875 114.115 307.834 114.042C305.38 108.62 303.383 103.002 301.863 97.2479C298.913 87.157 296.115 77.6357 288.14 69.6504C280.165 61.6753 270.644 58.8779 260.553 55.9279C254.8 54.4122 249.186 52.4147 243.769 49.9568L243.535 49.8449C239.044 47.6848 234.946 44.7899 231.409 41.2799C222.773 32.6436 219.721 22.2271 216.771 12.1464C215.551 7.97573 214.35 3.91698 212.814 0.0108229L208.4 0.0108225C210.149 4.3264 211.64 8.74219 212.865 13.2348C216.049 23.9157 219.253 34.851 228.622 44.2197Z" fill="#4CE467"/>
<path d="M13.2971 4.25266C20.5398 11.5055 23.1845 20.5283 25.9921 30.1208C29.0438 40.6898 32.2888 51.6149 41.6575 60.9938C51.0261 70.3726 61.9512 73.5667 72.5405 76.6184C82.1127 79.426 91.1456 82.0707 98.3985 89.3134C105.651 96.5561 108.286 105.589 111.094 115.182C114.145 125.751 117.39 136.676 126.759 146.044C130.434 149.703 134.672 152.749 139.312 155.067C140.79 155.806 142.275 156.485 143.767 157.102L144.204 157.275L145.832 157.905L147.083 158.363L147.826 158.638L149.524 159.218L149.667 159.268C152.322 160.143 154.967 160.926 157.581 161.689C167.153 164.497 176.186 167.142 183.429 174.384C190.671 181.627 193.316 190.66 196.124 200.232C196.887 202.867 197.68 205.542 198.565 208.217C198.755 208.814 198.958 209.414 199.176 210.018L199.409 210.659L199.898 212.002C200.091 212.5 200.284 213.019 200.488 213.487C200.559 213.68 200.63 213.863 200.712 214.056C201.322 215.542 202 217.017 202.746 218.481L202.746 218.553C205.056 223.191 208.095 227.429 211.748 231.105C221.127 240.474 232.093 243.678 242.632 246.771C252.204 249.578 261.247 252.223 268.49 259.466C275.732 266.708 278.377 275.741 281.185 285.323C284.236 295.903 287.481 306.828 296.85 316.207C306.219 325.585 317.276 328.891 327.845 331.943C330.978 332.859 334.05 333.764 337 334.812L337 330.509C334.376 329.624 331.7 328.841 328.974 328.037C318.893 325.087 308.467 322.035 299.83 313.399C291.194 304.763 288.142 294.336 285.192 284.255C282.242 274.175 279.445 264.643 271.46 256.668C263.475 248.693 253.963 245.896 243.873 242.936C233.782 239.975 223.365 236.934 214.729 228.298C211.222 224.76 208.331 220.662 206.174 216.172C206.136 216.103 206.102 216.032 206.072 215.959C203.611 210.535 201.61 204.913 200.091 199.154C197.131 189.073 194.344 179.542 186.369 171.567C178.394 163.592 168.862 160.804 158.781 157.844C153.036 156.332 147.428 154.338 142.017 151.883L141.753 151.751C137.267 149.596 133.173 146.708 129.638 143.206C121.001 134.57 117.95 124.143 114.99 114.052C112.029 103.962 109.252 94.4505 101.267 86.4652C93.2819 78.4799 83.7606 75.7029 73.6798 72.7428C63.5991 69.7826 53.1724 66.7411 44.5362 58.1048C35.8999 49.4685 32.8482 39.042 29.8982 28.9612C26.9482 18.8805 24.1509 9.349 16.1656 1.37393C15.718 0.919558 15.2603 0.482119 14.7924 0.0616479L8.21094 0.0616473C10.0332 1.29712 11.736 2.70023 13.2971 4.25266Z" fill="#4CE467"/>
<path d="M275.129 19.2765L275.19 19.2765C276.655 20.019 278.15 20.7006 279.645 21.3109C279.768 21.372 279.89 21.4127 280.022 21.4635C280.581 21.6975 281.151 21.9213 281.711 22.1349L282.911 22.5723L283.714 22.8571L285.352 23.4166L285.566 23.4878C288.211 24.3728 290.845 25.1459 293.449 25.9088C303.021 28.7164 312.054 31.3612 319.307 38.6038C326.56 45.8465 329.185 54.8795 331.992 64.472C332.938 67.6864 333.905 70.9619 335.044 74.2374L335.268 74.8782C335.43 75.3258 335.593 75.7734 335.766 76.221C335.939 76.6686 336.153 77.2383 336.356 77.7265L336.57 78.2758L336.977 79.2015L336.977 66.9947C336.61 65.774 336.244 64.5534 335.888 63.3327C332.938 53.2418 330.141 43.7205 322.166 35.7352C314.181 27.7602 304.659 24.9628 294.568 22.0128C288.818 20.5016 283.206 18.504 277.794 16.0417L277.54 15.9196C273.055 13.7599 268.96 10.8688 265.425 7.36467C263.212 5.14902 261.251 2.69624 259.576 0.0507821L254.805 0.0507817C256.916 3.77393 259.52 7.1955 262.546 10.2231C266.225 13.8994 270.474 16.9566 275.129 19.2765Z" fill="#4CE467"/>
<path d="M106.489 42.7033C116.061 45.5108 125.094 48.1557 132.347 55.3983C139.6 62.641 142.234 71.674 145.042 81.2563C148.094 91.8253 151.339 102.761 160.707 112.129C164.383 115.788 168.621 118.834 173.26 121.152C174.735 121.905 176.22 122.576 177.726 123.187L178.102 123.329C178.661 123.563 179.221 123.787 179.791 124L180.991 124.438L181.795 124.723L183.432 125.292L183.646 125.363C186.291 126.238 188.925 127.011 191.53 127.774C201.102 130.582 210.135 133.227 217.377 140.469C224.62 147.712 227.265 156.745 230.072 166.327C231.018 169.552 231.985 172.838 233.124 176.113C233.205 176.316 233.277 176.53 233.358 176.734L233.846 178.086L234.426 179.561L234.66 180.141C235.27 181.637 235.952 183.112 236.695 184.587C236.692 184.603 236.692 184.621 236.695 184.637C239.012 189.277 242.059 193.515 245.717 197.19C255.086 206.559 266.062 209.763 276.59 212.855C286.162 215.663 295.206 218.308 302.448 225.55C309.691 232.793 312.336 241.826 315.143 251.408C318.195 261.988 321.44 272.913 330.809 282.292C332.697 284.155 334.739 285.856 336.912 287.378L336.912 282.292C335.792 281.384 334.719 280.42 333.698 279.403C325.061 270.766 322.01 260.34 319.06 250.259C316.11 240.178 313.312 230.647 305.337 222.662C297.362 214.676 287.831 211.899 277.74 208.939C267.649 205.979 257.243 202.937 248.596 194.301C245.093 190.761 242.202 186.663 240.041 182.176C240.041 182.105 239.97 182.023 239.929 181.942C237.465 176.527 235.468 170.912 233.958 165.157C230.998 155.077 228.211 145.545 220.236 137.57C212.261 129.595 202.729 126.808 192.648 123.848C186.897 122.338 181.286 120.341 175.874 117.877L175.62 117.765C171.137 115.601 167.043 112.711 163.505 109.21C154.869 100.563 151.817 90.1469 148.867 80.0662C145.917 69.9854 143.119 60.454 135.144 52.4687C127.169 44.4835 117.638 41.7064 107.547 38.7463C97.456 35.7861 87.0397 32.7446 78.4034 24.1083C71.2116 16.9063 67.8852 8.46332 65.2709 0.0203315L61.0189 0.0203311C63.8366 9.34833 67.3054 18.7577 75.5246 26.9769C84.9848 36.4067 95.9099 39.6109 106.489 42.7033Z" fill="#4CE467"/>
<path d="M166.305 21.4433C173.548 28.6859 176.192 37.7189 179 47.3012C182.052 57.8804 185.297 68.8055 194.665 78.1742C198.341 81.8331 202.579 84.8793 207.218 87.197L207.269 87.197C208.74 87.943 210.229 88.6212 211.735 89.2315L212.111 89.3739C212.67 89.6078 213.23 89.8317 213.8 90.0453L215.01 90.4827L215.793 90.7675L217.472 91.3371L217.634 91.3982C220.279 92.273 222.934 93.0562 225.538 93.8192C235.11 96.6267 244.143 99.2715 251.386 106.504C258.629 113.737 261.274 122.78 264.081 132.382C264.854 135.007 265.638 137.662 266.523 140.337L267.133 142.127C267.214 142.341 267.296 142.555 267.367 142.768L267.855 144.111C268.048 144.609 268.252 145.128 268.445 145.617C268.526 145.8 268.598 145.983 268.669 146.166C269.279 147.651 269.951 149.136 270.703 150.591L270.703 150.662C273.014 155.303 276.057 159.542 279.716 163.215C289.085 172.583 300.01 175.788 310.589 178.88C320.161 181.688 329.204 184.332 336.447 191.575C336.62 191.748 336.772 191.931 336.945 192.104L336.945 186.53C329.479 180.192 320.832 177.639 311.728 174.974C301.648 172.024 291.231 168.972 282.585 160.336C279.081 156.796 276.19 152.698 274.03 148.21L273.928 147.997C271.467 142.573 269.466 136.952 267.947 131.192C264.987 121.101 262.199 111.58 254.224 103.595C246.249 95.6197 236.728 92.8223 226.637 89.8724C220.894 88.3616 215.29 86.3675 209.883 83.9113L209.609 83.7791C205.124 81.622 201.03 78.7344 197.493 75.2344C188.857 66.5879 185.805 56.1715 182.855 46.0806C179.905 35.9896 177.108 26.4785 169.133 18.4933C161.158 10.508 151.626 7.73099 141.535 4.77084C136.732 3.46063 132.011 1.86757 127.396 2.7457e-05L118.434 2.66735e-05C125.494 4.30291 133.031 6.52051 140.396 8.67703C150.019 11.5151 159.062 14.2006 166.305 21.4433Z" fill="#4CE467"/>
<path d="M104.327 318.067L104.215 317.853C101.751 312.432 99.753 306.81 98.2435 301.049C95.2834 290.968 92.4962 281.437 84.5109 273.462C76.5358 265.476 67.0044 262.689 56.9135 259.729C51.1629 258.218 45.5513 256.22 40.1393 253.758L39.8951 253.646C35.4071 251.491 31.3121 248.599 27.78 245.091C19.1437 236.455 16.092 226.028 13.1318 215.947C10.2734 206.162 7.5472 196.915 0.111249 189.092L0.111249 195.43C4.75998 201.838 6.94703 209.284 9.26631 217.097C12.318 227.666 15.5732 238.591 24.9419 247.97C28.6201 251.622 32.8575 254.665 37.4944 256.982L37.5555 256.982C39.0305 257.725 40.5157 258.396 42.011 259.017L42.4687 259.2L44.0658 259.831L45.3374 260.288L46.0596 260.553L47.7686 261.133L47.9007 261.184C50.5557 262.058 53.2107 262.842 55.8249 263.615C65.3869 266.412 74.4301 269.057 81.6728 276.3C88.9155 283.542 91.5602 292.575 94.3678 302.168C95.1307 304.782 95.914 307.437 96.799 310.102L96.799 310.173C96.9923 310.763 97.1855 311.343 97.3991 311.923C97.4703 312.157 97.5619 312.381 97.6432 312.605C97.7958 313.042 97.9587 313.479 98.1214 313.917C98.2842 314.354 98.5181 314.934 98.7216 315.443L98.9351 315.972C99.5455 317.457 100.217 318.942 100.97 320.407L100.97 320.468C103.289 325.1 106.332 329.334 109.982 333.01C111.388 334.407 112.879 335.715 114.448 336.927L121.711 336.927C118.481 335.052 115.506 332.768 112.861 330.131C109.367 326.611 106.483 322.534 104.327 318.067Z" fill="#4CE467"/>
<path d="M4.61273 144.57C14.1849 147.378 23.2281 150.023 30.4708 157.265C37.7134 164.508 40.3684 173.541 43.1658 183.123C46.2175 193.703 49.4725 204.628 58.8412 214.006C62.5195 217.659 66.757 220.702 71.3939 223.019C72.8689 223.762 74.354 224.433 75.8494 225.054L76.2257 225.196C76.7954 225.43 77.3548 225.654 77.9244 225.867L79.1248 226.305L79.9183 226.6L81.5662 227.159L81.7696 227.23C84.4144 228.105 87.0592 228.889 89.6633 229.651C99.2354 232.449 108.268 235.094 115.511 242.336C122.754 249.579 125.399 258.612 128.196 268.194C128.969 270.819 129.763 273.484 130.648 276.159C130.841 276.749 131.044 277.339 131.258 277.939C131.329 278.153 131.41 278.377 131.492 278.601L131.98 279.923C132.173 280.432 132.377 280.94 132.58 281.439C132.651 281.622 132.713 281.795 132.794 281.978C133.404 283.463 134.076 284.948 134.828 286.413L134.828 286.474C137.146 291.111 140.188 295.348 143.841 299.027C153.22 308.395 164.186 311.6 174.724 314.692C184.296 317.499 193.329 320.154 200.582 327.397C203.335 330.185 205.628 333.392 207.377 336.898L211.914 336.898C209.863 332.295 206.996 328.101 203.451 324.518C195.476 316.533 185.954 313.746 175.863 310.786C165.772 307.826 155.356 304.784 146.72 296.148C143.249 292.638 140.382 288.579 138.236 284.134L138.124 283.911C135.662 278.492 133.664 272.873 132.153 267.116C129.193 257.035 126.406 247.504 118.42 239.529C110.445 231.554 100.914 228.766 90.8332 225.806C85.081 224.294 79.4663 222.3 74.0489 219.845L73.8047 219.723C69.3187 217.565 65.224 214.674 61.6895 211.168C53.0532 202.532 50.0015 192.105 47.0413 182.025C44.0812 171.944 41.3042 162.413 33.3189 154.437C25.3337 146.462 15.8124 143.665 5.73166 140.705C3.84978 140.156 1.9578 139.606 0.0657369 139.006L0.0657365 143.268L4.61273 144.57Z" fill="#4CE467"/>
<path d="M50.5548 307.418C42.5696 299.433 33.0483 296.645 22.9574 293.685C17.2084 292.173 11.5972 290.179 6.18324 287.724L5.93899 287.602C3.92065 286.612 1.97312 285.484 0.11028 284.225L0.110279 289.067C1.22923 289.738 2.35844 290.359 3.49773 290.939L3.5587 290.939C5.03369 291.681 6.51885 292.353 8.01418 292.973L8.43127 293.136L10.0792 293.787L11.31 294.234L12.0729 294.509L13.7514 295.089L13.9243 295.14C16.5691 296.025 19.214 296.808 21.8282 297.571C31.3902 300.368 40.4333 303.013 47.676 310.256C54.9187 317.499 57.5634 326.532 60.371 336.124L60.6151 336.958L64.8672 336.958C64.6739 336.297 64.4705 335.636 64.2772 334.975C61.3273 324.924 58.5401 315.393 50.5548 307.418Z" fill="#4CE467"/>
<path d="M0.0977355 335.574C1.18617 336.011 2.25429 336.479 3.30204 336.988L11.3789 336.988C7.8799 334.584 4.08896 332.636 0.0977359 331.19L0.0977355 335.574Z" fill="#4CE467"/>
<path d="M7.70026 94.928C17.0791 104.297 28.0449 107.501 38.5834 110.593C48.1453 113.401 57.1884 116.046 64.4413 123.288C71.6941 130.531 74.3289 139.564 77.1364 149.146C80.1881 159.726 83.433 170.651 92.8016 180.029C96.4799 183.682 100.717 186.725 105.354 189.042C106.829 189.795 108.315 190.466 109.82 191.077L110.176 191.219C110.746 191.456 111.315 191.68 111.885 191.89L113.085 192.328L113.889 192.613C114.438 192.816 114.988 192.999 115.537 193.182L115.73 193.243C118.375 194.128 121.02 194.901 123.624 195.674C133.196 198.472 142.229 201.117 149.472 208.359C156.714 215.602 159.359 224.635 162.167 234.227C163.113 237.452 164.079 240.728 165.218 244.003L165.432 244.613C165.595 245.071 165.757 245.529 165.93 245.987C166.103 246.444 166.317 247.004 166.52 247.472C166.592 247.655 166.663 247.848 166.744 248.031C167.355 249.523 168.033 251.005 168.779 252.477C171.096 257.113 174.139 261.351 177.791 265.029C187.17 274.398 198.136 277.602 208.674 280.695C218.247 283.502 227.29 286.147 234.532 293.39C241.775 300.632 244.42 309.665 247.227 319.258C248.816 325.293 250.919 331.18 253.514 336.856L258.102 336.856C254.857 330.813 253.015 324.395 251.134 318.108C248.173 308.028 245.386 298.496 237.401 290.521C229.416 282.546 219.905 279.749 209.814 276.788C199.723 273.828 189.306 270.787 180.67 262.15C177.167 258.61 174.276 254.513 172.115 250.025L172.003 249.801C169.541 244.382 167.543 238.764 166.032 233.007C163.072 222.926 160.285 213.395 152.31 205.42C144.335 197.444 134.803 194.657 124.722 191.697C118.977 190.185 113.369 188.191 107.958 185.736L107.694 185.614C103.208 183.456 99.1134 180.565 95.5788 177.059C86.9425 168.423 83.8908 157.996 80.9307 147.916C77.9705 137.835 75.1935 128.303 67.2082 120.318C59.223 112.333 49.7017 109.556 39.621 106.596C29.5402 103.635 19.1136 100.594 10.4773 91.9577C5.87847 87.2517 2.31016 81.6395 -0.00022129 75.4785L-0.000222112 84.8777C2.10409 88.5581 4.6942 91.9385 7.70026 94.928Z" fill="#4CE467"/>
</g>
</svg>
