<svg width="275" height="274" viewBox="0 0 275 274" fill="none" xmlns="http://www.w3.org/2000/svg">
<g opacity="0.33">
<path d="M264.687 140.742C263.536 144.629 262.368 148.643 259.042 151.938C255.715 155.232 251.685 156.432 247.846 157.567C244.008 158.703 240.297 159.79 237.21 162.861C234.124 165.932 233.068 169.61 231.932 173.497C230.797 177.383 229.614 181.397 226.287 184.692C224.922 186.043 223.344 187.162 221.617 188.003L221.521 188.003C219.434 188.959 217.266 189.73 215.044 190.306C211.157 191.441 207.495 192.529 204.424 195.6C201.353 198.686 200.281 202.349 199.146 206.235C198.553 208.453 197.783 210.619 196.843 212.713L196.843 212.809C196.002 214.532 194.889 216.108 193.548 217.479C190.206 220.805 186.191 221.973 182.353 223.124C178.514 224.276 174.804 225.332 171.717 228.402C168.631 231.473 167.575 235.152 166.439 239.038C165.6 242.88 163.893 246.48 161.45 249.562L162.937 250.233C165.367 247.058 167.076 243.39 167.943 239.486C169.015 235.791 170.038 232.305 172.837 229.522C175.636 226.739 179.106 225.699 182.801 224.628C186.879 223.428 191.086 222.197 194.7 218.582C196.106 217.179 197.278 215.559 198.171 213.784C198.458 213.208 198.714 212.633 198.954 212.057L198.954 211.897L199.21 211.257L199.386 210.793L199.482 210.49L199.706 209.85C200.042 208.826 200.346 207.803 200.634 206.811C201.705 203.117 202.729 199.63 205.528 196.847C208.327 194.064 211.797 193.025 215.492 191.953C216.739 191.585 218.002 191.218 219.266 190.77L219.506 190.674L220.017 190.482C220.209 190.482 220.401 190.338 220.593 190.258C220.67 190.236 220.744 190.209 220.817 190.178C221.393 189.938 221.969 189.682 222.529 189.394C224.303 188.502 225.923 187.33 227.327 185.924C230.941 182.309 232.125 178.087 233.372 174.025C234.444 170.33 235.467 166.844 238.266 164.045C241.065 161.246 244.536 160.238 248.23 159.247C252.308 158.047 256.515 156.816 260.129 153.201C263.744 149.587 264.927 145.38 266.175 141.302C267.246 137.607 268.27 134.121 271.069 131.338C272.159 130.246 273.424 129.343 274.811 128.667L274.811 126.924C273.028 127.726 271.403 128.842 270.013 130.218C266.91 133.193 265.823 136.856 264.687 140.742Z" fill="#FFC844"/>
<path d="M273.979 183.797C270.093 184.932 266.415 186.02 263.344 189.091C260.273 192.161 259.201 195.84 258.05 199.726C256.898 203.613 255.747 207.627 252.404 210.922C251.048 212.28 249.469 213.394 247.734 214.216L247.654 214.216C245.562 215.161 243.395 215.931 241.177 216.519C237.29 217.655 233.628 218.726 230.541 221.813C227.471 224.884 226.383 228.562 225.247 232.449C224.665 234.644 223.895 236.784 222.944 238.846L222.944 238.942C222.122 240.677 221.008 242.256 219.65 243.612C216.323 246.939 212.309 248.122 208.454 249.258C204.6 250.393 200.889 251.481 197.819 254.552C195.848 256.6 194.395 259.09 193.58 261.813C194.076 261.973 194.572 262.117 195.084 262.261C195.835 259.792 197.149 257.53 198.922 255.655C201.721 252.872 205.208 251.849 208.886 250.761C212.964 249.578 217.187 248.33 220.801 244.732C222.203 243.325 223.374 241.706 224.272 239.934C224.56 239.374 224.816 238.798 225.056 238.222L225.056 238.079L225.311 237.423L225.487 236.959L225.599 236.655L225.823 236.015L225.823 235.935C226.159 234.928 226.463 233.904 226.767 232.897C227.838 229.218 228.862 225.732 231.565 222.933C234.268 220.134 237.85 219.126 241.545 218.039C242.776 217.671 244.056 217.303 245.319 216.855C245.394 216.86 245.468 216.86 245.543 216.855L246.071 216.663C246.263 216.583 246.455 216.519 246.631 216.439L246.87 216.343C247.446 216.12 248.006 215.848 248.582 215.576C250.359 214.68 251.979 213.503 253.38 212.089C256.994 208.475 258.178 204.268 259.409 200.19C260.497 196.512 261.521 193.025 264.304 190.226C267.086 187.427 270.589 186.42 274.283 185.332L274.683 185.22L274.683 183.621C274.539 183.637 274.267 183.717 273.979 183.797Z" fill="#FFC844"/>
<path d="M28.7041 85.6608C31.5029 82.862 34.9894 81.8544 38.6679 80.7668C42.7463 79.5673 46.9684 78.3358 50.567 74.7213C51.9779 73.3183 53.1549 71.6985 54.0534 69.9232C54.3413 69.3635 54.5972 68.7878 54.8371 68.212L54.8371 68.0681L55.0932 67.4123L55.2689 66.9485L55.381 66.6447L55.5891 66.0049C55.925 64.9813 56.2286 63.9737 56.5165 62.9661C57.604 59.2716 58.6277 55.8011 61.4106 53.0022C64.1934 50.2034 67.696 49.1957 71.3905 48.1081C72.622 47.7403 73.8856 47.3725 75.1491 46.9246C75.229 46.9246 75.3089 46.9246 75.3888 46.9246L75.9167 46.7327C76.1087 46.7327 76.3004 46.5728 76.4923 46.5088L76.7004 46.4129C77.2839 46.1813 77.8549 45.9198 78.4114 45.6293C80.1865 44.7372 81.8066 43.5653 83.2094 42.1586C86.824 38.5441 88.0075 34.3379 89.239 30.2596C90.3266 26.5651 91.3502 23.0944 94.1331 20.2955C96.916 17.4967 100.418 16.4892 104.097 15.4016C108.175 14.2021 112.398 12.9706 116.012 9.35606C118.449 6.80693 120.223 3.69848 121.178 0.303711L119.579 0.303711C118.685 3.29792 117.096 6.03817 114.941 8.30043C111.614 11.6271 107.6 12.8106 103.745 13.9462C99.8908 15.0817 96.1804 16.1534 93.1097 19.2401C90.0389 22.3268 88.9513 25.9894 87.8158 29.8758C86.6802 33.7622 85.4967 37.7765 82.17 41.0712C80.814 42.4294 79.2344 43.5438 77.5001 44.3657L77.42 44.3657C75.3537 45.306 73.2141 46.0763 71.0226 46.6689C67.1362 47.8044 63.4579 48.8759 60.3872 51.9626C57.3004 55.0334 56.2288 58.7119 55.0932 62.5983C54.5015 64.7901 53.7313 66.9297 52.7903 68.9957L52.7903 69.0915C51.9683 70.8258 50.8537 72.4057 49.4955 73.7617C46.1689 77.0883 42.1545 78.2719 38.3001 79.4074C34.4457 80.543 30.735 81.6145 27.6642 84.7013C24.5935 87.788 23.5062 91.4504 22.3707 95.3368C21.7997 97.5267 21.0506 99.6662 20.1314 101.734L20.899 103.669C22.1873 101.18 23.1856 98.5501 23.874 95.8326C24.8976 91.9462 25.9212 88.4597 28.7041 85.6608Z" fill="#FFC844"/>
<path d="M36.9085 108.723C37.9801 105.029 39.0037 101.542 41.8026 98.7435C44.6014 95.9446 48.072 94.937 51.7665 93.8495C55.8288 92.666 60.051 91.4344 63.6655 87.8199C65.0744 86.4189 66.2467 84.7985 67.1363 83.0219C67.4242 82.4621 67.6801 81.8864 67.92 81.3107L67.92 81.1507L68.1758 80.511L68.3359 80.0471L68.4475 79.7433L68.6717 79.1036C69.0235 78.08 69.3111 77.0564 69.615 76.0488C70.6866 72.3703 71.7103 68.8836 74.5091 66.0848C77.308 63.2859 80.7785 62.2783 84.473 61.2868C85.4806 60.9829 86.5044 60.679 87.544 60.3272C87.7679 60.3272 88.0077 60.1832 88.2316 60.1033L88.4874 60.0074L88.9993 59.8155C89.1912 59.8155 89.3833 59.6715 89.5752 59.5916C89.7671 59.5116 89.719 59.5916 89.7989 59.5916C90.3747 59.3516 90.9346 59.0958 91.4943 58.8079C93.2658 57.9098 94.8849 56.7386 96.2924 55.3372C99.9069 51.7227 101.09 47.5005 102.338 43.4222C103.409 39.7437 104.433 36.2572 107.232 33.4583C110.03 30.6595 113.501 29.6518 117.196 28.5642C121.274 27.3807 125.48 26.1492 129.095 22.5347C132.709 18.9202 133.893 14.698 135.141 10.6356C136.212 6.94116 137.235 3.4546 140.018 0.655748L140.322 0.383789L138.147 0.383789C135.935 3.27895 134.39 6.62657 133.621 10.1878C132.485 14.0742 131.318 18.0885 127.991 21.3832C124.664 24.6778 120.634 25.8934 116.796 27.0289C112.957 28.1645 109.247 29.2519 106.16 32.3226C103.073 35.3934 102.018 39.0719 100.866 42.9583C99.7147 46.8447 98.5632 50.8591 95.2366 54.1537C93.8746 55.5048 92.2962 56.6185 90.5666 57.4485L90.4705 57.4485C88.3794 58.3953 86.2126 59.1656 83.9931 59.7514C80.1067 60.887 76.4444 61.9746 73.3576 65.0454C70.2869 68.1161 69.2152 71.7945 68.0637 75.681C67.4815 77.8757 66.711 80.0161 65.7607 82.0783L65.7607 82.1743C64.9272 83.9058 63.8079 85.4846 62.45 86.8443C59.1234 90.187 55.109 91.3545 51.2546 92.4901C47.4002 93.6256 43.6898 94.7132 40.6191 97.7839C37.5484 100.855 36.4767 104.533 35.3252 108.419C34.1736 112.306 33.0221 116.32 29.6954 119.615C29.3047 120.004 28.8936 120.373 28.4639 120.718L29.1679 122.158C29.7308 121.718 30.265 121.243 30.7673 120.734C34.4777 117.008 35.709 112.786 36.9085 108.723Z" fill="#FFC844"/>
<path d="M11.303 35.4576C12.7139 34.0546 13.8913 32.4348 14.7898 30.6595C15.0777 30.0998 15.3336 29.5239 15.5735 28.9481L15.5735 28.7882L15.8132 28.1485L15.9893 27.6848L16.101 27.3808L16.3251 26.741C16.661 25.7334 16.9646 24.7098 17.2525 23.7022C18.34 20.0077 19.3637 16.5372 22.1466 13.7383C24.9294 10.9395 28.432 9.93201 32.1105 8.84446C33.134 8.55657 34.1579 8.25256 35.1815 7.9007L35.8691 7.66096C35.9543 7.66577 36.0396 7.66577 36.1248 7.66096L36.6367 7.46904L37.2123 7.24511L37.4204 7.14906C37.9962 6.92515 38.572 6.65329 39.1318 6.3814C40.9069 5.48937 42.527 4.31747 43.9298 2.91075C44.7248 2.11705 45.4421 1.2495 46.0727 0.319824L44.1216 0.319824C43.7152 0.841985 43.2772 1.3388 42.81 1.8073C41.454 3.16551 39.8743 4.27992 38.14 5.10185C36.0478 6.04619 33.8813 6.81658 31.6626 7.40501C27.7762 8.54054 24.0979 9.612 21.0271 12.6987C17.9404 15.7695 16.8687 19.448 15.7332 23.3344C15.1438 25.5269 14.3736 27.6667 13.4302 29.7318L13.4302 29.8278C12.6083 31.5622 11.4937 33.1418 10.1355 34.4978C8.18893 36.3913 5.85291 37.8377 3.29024 38.7361L3.53037 40.3355C6.46223 39.3294 9.12202 37.6602 11.303 35.4576Z" fill="#FFC844"/>
<path d="M148.655 238.414C152.269 234.8 153.453 230.577 154.684 226.499C155.772 222.821 156.795 219.334 159.578 216.535C162.361 213.736 165.864 212.729 169.558 211.641C173.62 210.458 177.843 209.21 181.457 205.612C182.859 204.205 184.03 202.585 184.928 200.814C185.216 200.254 185.472 199.678 185.712 199.102L185.712 198.942L185.951 198.303L186.127 197.839L186.239 197.535L186.463 196.895C186.799 195.872 187.103 194.848 187.407 193.841C188.479 190.162 189.502 186.675 192.285 183.877C195.068 181.078 198.57 180.07 202.265 178.983C203.273 178.695 204.296 178.391 205.32 178.055C205.543 177.975 205.767 177.911 205.991 177.831L206.263 177.735L206.759 177.543C206.951 177.543 207.159 177.383 207.351 177.319C207.42 177.31 207.489 177.31 207.558 177.319C208.118 177.079 208.694 176.824 209.254 176.536C211.031 175.64 212.651 174.463 214.052 173.049C217.666 169.451 218.85 165.228 220.081 161.15C221.169 157.471 222.193 153.985 224.976 151.186C227.758 148.387 231.261 147.38 234.955 146.292C239.018 145.108 243.24 143.861 246.854 140.263C250.469 136.664 251.653 132.426 252.884 128.347C253.972 124.669 254.995 121.182 257.778 118.384C260.561 115.585 264.064 114.577 267.758 113.49C270.114 112.876 272.411 112.052 274.619 111.026L274.619 109.251C272.288 110.422 269.837 111.338 267.31 111.986C263.424 113.122 259.745 114.209 256.675 117.28C253.604 120.351 252.516 124.029 251.381 127.916C250.245 131.802 249.078 135.816 245.735 139.111C242.392 142.406 238.394 143.621 234.54 144.757C230.685 145.892 226.975 146.98 223.904 150.051C220.833 153.121 219.762 156.8 218.61 160.686C217.459 164.572 216.307 168.587 212.964 171.882C211.608 173.24 210.029 174.354 208.295 175.176L208.214 175.176C206.15 176.121 204.01 176.892 201.817 177.479C197.931 178.615 194.268 179.686 191.181 182.773C188.11 185.844 187.023 189.522 185.888 193.409C185.305 195.603 184.535 197.744 183.584 199.806L183.584 199.902C182.751 201.634 181.632 203.212 180.274 204.572C176.947 207.899 172.933 209.082 169.079 210.218C165.224 211.353 161.513 212.441 158.443 215.512C155.372 218.582 154.285 222.261 153.149 226.147C152.014 230.034 150.846 234.048 147.503 237.343C146.189 238.653 144.665 239.735 142.993 240.541L144.592 241.453C146.076 240.626 147.442 239.604 148.655 238.414Z" fill="#FFC844"/>
<path d="M110.574 218.278C114.653 217.079 118.859 215.847 122.473 212.233C126.088 208.618 127.272 204.412 128.519 200.334C129.591 196.639 130.614 193.153 133.413 190.37C136.212 187.587 139.682 186.547 143.377 185.476C147.455 184.276 151.661 183.045 155.276 179.43C156.682 178.027 157.854 176.407 158.747 174.632C159.035 174.057 159.291 173.481 159.531 172.905L159.531 172.745L159.786 172.121L159.962 171.642L160.058 171.338L160.282 170.698C160.618 169.674 160.922 168.651 161.21 167.659C162.297 163.965 163.305 160.478 166.104 157.695C168.902 154.912 172.373 153.873 176.067 152.801C177.315 152.433 178.579 152.066 179.842 151.618C179.914 151.584 179.989 151.557 180.066 151.538C180.242 151.538 180.418 151.41 180.61 151.33L181.153 151.122L181.393 151.026C181.969 150.786 182.545 150.53 183.105 150.242C184.88 149.35 186.5 148.178 187.903 146.772C191.517 143.157 192.701 138.935 193.948 134.873C195.02 131.178 196.043 127.692 198.842 124.909C201.641 122.126 205.112 121.086 208.806 120.015C212.884 118.815 217.091 117.584 220.705 113.969C224.32 110.355 225.503 106.148 226.751 102.07C227.822 98.3756 228.846 94.8891 231.645 92.1062C234.444 89.3233 237.914 88.2838 241.609 87.2122C245.687 86.0127 249.893 84.7812 253.508 81.1666C257.123 77.5521 258.306 73.3459 259.553 69.2676C260.625 65.5731 261.648 62.0864 264.447 59.3035C267.246 56.5207 270.717 55.4812 274.411 54.4096L274.651 54.4096L274.651 52.8103L273.963 53.0182C270.077 54.1538 266.415 55.2252 263.328 58.2959C260.241 61.3667 259.185 65.0452 258.05 68.9316C256.914 72.818 255.731 76.8484 252.404 80.127C249.078 83.4057 245.047 84.6212 241.209 85.7728C237.37 86.9243 233.66 87.9798 230.573 91.0506C227.487 94.1213 226.431 97.7999 225.295 101.686C224.16 105.573 222.976 109.587 219.65 112.882C216.323 116.176 212.293 117.376 208.454 118.511C204.616 119.647 200.905 120.734 197.819 123.805C194.732 126.876 193.676 130.554 192.541 134.441C191.405 138.327 190.222 142.342 186.895 145.636C185.53 146.987 183.952 148.106 182.225 148.947L182.129 148.947C180.067 149.897 177.926 150.668 175.732 151.25C171.829 152.401 168.167 153.473 165.096 156.544C162.025 159.63 160.954 163.293 159.818 167.179C159.228 169.372 158.458 171.511 157.515 173.577L157.515 173.673C156.674 175.396 155.562 176.972 154.221 178.343C150.878 181.669 146.864 182.837 143.025 183.988C139.187 185.14 135.476 186.196 132.389 189.266C129.303 192.337 128.247 196.016 127.112 199.902C125.976 203.788 124.793 207.803 121.466 211.097C118.139 214.392 114.109 215.592 110.271 216.727C109.487 216.967 108.671 217.191 107.936 217.447L109.535 218.614C109.743 218.518 110.175 218.39 110.574 218.278Z" fill="#FFC844"/>
<path d="M180.866 252.681C181.953 248.986 182.961 245.516 185.76 242.717C188.558 239.918 192.029 238.91 195.723 237.823C199.802 236.623 204.008 235.392 207.623 231.777C209.033 230.374 210.211 228.755 211.109 226.979C211.4 226.423 211.661 225.852 211.893 225.268L211.893 225.108L212.149 224.468L212.325 223.989L212.437 223.701L212.661 223.045C212.997 222.037 213.3 221.014 213.588 220.006C214.676 216.312 215.699 212.825 218.482 210.042C221.265 207.259 224.752 206.236 228.446 205.148C229.454 204.86 230.493 204.557 231.517 204.205L232.205 203.965L232.46 203.869C232.62 203.869 232.796 203.757 232.956 203.693L233.564 203.453L233.756 203.453C234.332 203.213 234.908 202.957 235.467 202.669C237.242 201.777 238.862 200.605 240.265 199.199C243.88 195.584 245.063 191.378 246.311 187.3C247.399 183.605 248.422 180.119 251.205 177.336C253.988 174.553 257.49 173.513 261.169 172.442C265.247 171.242 269.453 170.011 273.068 166.396C273.64 165.824 274.174 165.215 274.667 164.573L274.667 161.726C273.928 163.029 273.019 164.229 271.964 165.293C268.637 168.619 264.623 169.803 260.769 170.938C256.914 172.074 253.204 173.145 250.133 176.216C247.062 179.287 245.975 182.965 244.839 186.852C243.704 190.738 242.52 194.769 239.194 198.047C237.827 199.393 236.249 200.506 234.524 201.342C232.432 202.291 230.265 203.067 228.046 203.661C224.16 204.796 220.481 205.868 217.411 208.939C214.324 212.009 213.252 215.688 212.117 219.574C211.525 221.766 210.755 223.906 209.814 225.972L209.814 226.068C208.982 227.796 207.869 229.375 206.519 230.738C203.192 234.064 199.178 235.248 195.324 236.383C191.469 237.519 187.759 238.591 184.688 241.677C181.617 244.764 180.53 248.411 179.394 252.313C178.962 253.752 178.53 255.224 177.987 256.679C178.482 256.855 178.962 257.047 179.458 257.223C179.986 255.672 180.434 254.168 180.866 252.681Z" fill="#FFC844"/>
<path d="M271.564 243.1C271.644 243.094 271.725 243.094 271.804 243.1L272.332 242.909L272.892 242.685L273.116 242.589C273.691 242.349 274.267 242.093 274.827 241.805L274.827 240.03C274.523 240.19 274.219 240.366 273.915 240.51L273.836 240.51C271.77 241.455 269.63 242.231 267.438 242.829C263.552 243.964 259.873 245.036 256.802 248.106C253.732 251.177 252.66 254.856 251.524 258.742C250.933 260.934 250.163 263.073 249.221 265.14L249.221 265.235C248.39 266.964 247.276 268.542 245.927 269.906C244.997 270.83 243.961 271.641 242.84 272.321C243.64 272.417 244.439 272.496 245.223 272.592C245.863 272.104 246.468 271.569 247.031 270.993C248.437 269.59 249.609 267.97 250.501 266.195C250.792 265.638 251.053 265.067 251.285 264.484L251.285 264.324L251.54 263.684L251.717 263.204L251.829 262.916L252.036 262.261C252.372 261.253 252.676 260.23 252.964 259.222C254.052 255.527 255.075 252.041 257.858 249.258C260.641 246.475 264.128 245.451 267.822 244.364C268.83 244.06 269.869 243.756 270.893 243.42L271.564 243.1Z" fill="#FFC844"/>
<path d="M271.148 212.809C270.013 216.696 268.83 220.71 265.503 224.005C264.138 225.356 262.56 226.474 260.833 227.315L260.737 227.315C258.675 228.267 256.535 229.038 254.339 229.618C250.453 230.754 246.791 231.841 243.704 234.912C240.633 237.999 239.561 241.661 238.41 245.548C237.823 247.739 237.058 249.878 236.123 251.945L236.123 252.041C235.282 253.764 234.169 255.341 232.828 256.711C229.486 260.038 225.471 261.205 221.633 262.341C218.12 263.11 214.814 264.626 211.941 266.787C212.596 266.931 213.252 267.091 213.908 267.235C216.427 265.665 219.188 264.525 222.081 263.86C226.159 262.661 230.365 261.429 233.98 257.815C235.389 256.414 236.561 254.793 237.451 253.017C237.738 252.441 237.994 251.865 238.234 251.289L238.234 251.145L238.49 250.49L238.65 250.026L238.762 249.722L238.986 249.082C239.322 248.059 239.626 247.035 239.914 246.028C240.985 242.349 242.008 238.862 244.807 236.064C247.606 233.265 251.077 232.257 254.771 231.186C255.779 230.882 256.803 230.578 257.842 230.242C258.082 230.242 258.306 230.098 258.53 230.018L258.786 229.922L259.297 229.73C259.489 229.73 259.697 229.586 259.889 229.506C260.081 229.426 260.017 229.506 260.097 229.506C260.673 229.266 261.233 229.01 261.809 228.723C263.583 227.83 265.203 226.658 266.607 225.252C270.221 221.638 271.405 217.415 272.652 213.353C273.196 211.251 273.923 209.201 274.827 207.227L274.827 204.173C273.113 206.819 271.869 209.74 271.148 212.809Z" fill="#FFC844"/>
<path d="M49.9914 121.806C51.063 118.112 52.0863 114.625 54.8851 111.842C57.684 109.059 61.1545 108.02 64.849 106.948C68.9273 105.749 73.1339 104.517 76.7484 100.903C78.1547 99.4996 79.3264 97.8796 80.2189 96.1048C80.5068 95.529 80.7626 94.9692 81.0025 94.3935L81.0826 94.2175L81.3223 93.5938L81.4984 93.1139L81.5941 92.826L81.8182 92.1704C82.1541 91.1628 82.4581 90.1391 82.746 89.1316C83.8335 85.4371 84.8408 81.9505 87.6397 79.1677C90.4385 76.3848 93.9091 75.3452 97.6035 74.2737C98.6111 73.9698 99.635 73.6659 100.675 73.33L101.346 73.0901L101.618 72.9942C101.778 72.9942 101.954 72.8823 102.114 72.8183L102.706 72.5784C102.786 72.5784 102.85 72.5784 102.913 72.5784C103.489 72.3385 104.049 72.0826 104.625 71.7947C106.4 70.9022 108.02 69.7304 109.423 68.3241C113.037 64.7096 114.221 60.5034 115.468 56.425C116.556 52.7306 117.564 49.244 120.363 46.4612C123.161 43.6783 126.632 42.6386 130.326 41.5671C134.405 40.3676 138.611 39.136 142.225 35.5215C145.84 31.907 147.024 27.7008 148.271 23.6225C149.343 19.928 150.366 16.4414 153.165 13.6586C155.964 10.8757 159.435 9.83605 163.129 8.76449C167.207 7.56499 171.414 6.33344 175.028 2.71893C175.777 1.97132 176.457 1.15785 177.059 0.288086L175.108 0.288086C174.74 0.735902 174.356 1.18365 173.925 1.61547C170.598 4.94211 166.568 6.12567 162.729 7.2612C158.891 8.39674 155.18 9.46818 152.093 12.5389C149.007 15.6097 147.951 19.2882 146.815 23.1746C145.68 27.061 144.496 31.0754 141.17 34.37C137.843 37.6647 133.813 38.8642 129.974 40.0157C126.136 41.1673 122.426 42.2227 119.355 45.2935C116.284 48.3642 115.196 52.0427 114.061 55.9292C112.925 59.8156 111.742 63.8299 108.415 67.1246C107.045 68.4656 105.468 69.5781 103.745 70.4193L103.665 70.4193C101.602 71.3664 99.4615 72.1367 97.2677 72.7223C93.3813 73.8738 89.703 74.9454 86.6323 78.0162C83.5615 81.1029 82.4899 84.7654 81.3543 88.6518C80.7643 90.8441 79.9941 92.9838 79.0514 95.0492L79.0514 95.1451C78.2102 96.8681 77.0977 98.4448 75.7566 99.8152C72.43 103.142 68.3997 104.309 64.5612 105.461C60.7228 106.612 57.0125 107.668 53.9257 110.739C50.839 113.809 49.7834 117.488 48.6478 121.374C47.5123 125.261 46.3287 129.275 43.0021 132.57C41.3066 134.225 39.3012 135.529 37.1006 136.408L37.9003 137.784C40.2172 136.832 42.3251 135.435 44.1056 133.673C47.5601 130.091 48.7919 125.948 49.9914 121.806Z" fill="#FFC844"/>
<path d="M12.5025 54.5858C16.5648 53.4022 20.7874 52.1707 24.4019 48.5562C25.8108 47.1552 26.9827 45.5348 27.8724 43.7582C28.1603 43.1824 28.4161 42.6067 28.656 42.0309L28.656 41.871L28.9118 41.2313L29.0879 40.7674L29.1839 40.4636L29.4077 39.8238C29.7595 38.8003 30.0476 37.7766 30.3514 36.769C31.423 33.0905 32.4463 29.604 35.2451 26.8051C38.044 24.0063 41.5145 22.9986 45.209 21.9111C46.4565 21.5592 47.7202 21.1754 48.9836 20.7436L49.2234 20.6477L49.7353 20.4558C49.9272 20.4558 50.1193 20.3118 50.3112 20.2319L50.535 20.2319C51.1107 19.992 51.6706 19.7361 52.2464 19.4482C54.0212 18.5557 55.6412 17.3838 57.0444 15.9776C60.6589 12.363 61.8425 8.14084 63.09 4.06252C63.4578 2.78304 63.8416 1.51958 64.2735 0.288086L62.6741 0.288086C62.3063 1.37564 61.9702 2.49513 61.6503 3.63066C60.4988 7.51707 59.3312 11.5314 56.0046 14.8261C54.6426 16.1771 53.0642 17.2906 51.3346 18.1206L51.2386 18.1206C49.1512 19.0769 46.9841 19.8477 44.7615 20.4238C40.8751 21.5593 37.2124 22.6468 34.1257 25.7175C31.0549 28.8042 29.9833 32.4668 28.8317 36.3532C28.2447 38.5443 27.4799 40.6839 26.5448 42.7506C25.7113 44.4821 24.592 46.0609 23.234 47.4207C19.9074 50.7633 15.893 51.9309 12.0386 53.0665C10.0431 53.6084 8.08744 54.2869 6.18516 55.0975L6.52096 56.6968C8.45538 55.8348 10.4556 55.129 12.5025 54.5858Z" fill="#FFC844"/>
<path d="M221.793 0.399748C217.906 1.55128 214.228 2.62293 211.157 5.69367C208.086 8.76441 206.999 12.4428 205.863 16.3292C204.728 20.2156 203.56 24.2299 200.218 27.5246C196.875 30.8192 192.877 32.0348 189.022 33.1703C185.168 34.3058 181.457 35.3935 178.386 38.4642C175.316 41.535 174.244 45.2133 173.093 49.0997C171.941 52.9861 170.79 57.0005 167.447 60.2951C164.105 63.5898 160.106 64.8053 156.252 65.9409C152.397 67.0764 148.703 68.164 145.616 71.2348C142.529 74.3055 141.474 77.984 140.322 81.8704C139.171 85.7568 138.019 89.7711 134.693 93.0658C133.328 94.4209 131.743 95.5349 130.006 96.3604L129.927 96.3604C127.862 97.3055 125.722 98.0759 123.529 98.6635C119.643 99.799 115.98 100.871 112.893 103.957C109.823 107.028 108.735 110.707 107.599 114.593C107.014 116.787 106.244 118.927 105.296 120.99L105.296 121.07C104.463 122.802 103.344 124.381 101.986 125.74C98.6591 129.083 94.6447 130.251 90.7903 131.386C86.9359 132.522 83.2256 133.609 80.1548 136.68C77.0841 139.751 76.0124 143.429 74.8609 147.316C73.7094 151.202 72.5578 155.216 69.2312 158.511C65.9045 161.806 61.8742 163.021 58.0358 164.157C57.38 164.349 56.7244 164.54 56.0846 164.748C56.4045 165.196 56.7405 165.628 57.0924 166.076C57.5402 165.932 58.0038 165.804 58.4836 165.66C62.562 164.477 66.7685 163.229 70.383 159.63C73.9976 156.032 75.1807 151.794 76.4122 147.731C77.4998 144.037 78.5234 140.55 81.3063 137.751C84.0892 134.953 87.5917 133.945 91.2862 132.857C95.3485 131.674 99.5707 130.442 103.185 126.828C104.587 125.421 105.758 123.802 106.656 122.03C106.944 121.47 107.2 120.894 107.44 120.319L107.44 120.159L107.695 119.519L107.856 119.055L107.968 118.751L108.191 118.111C108.527 117.088 108.831 116.064 109.135 115.057C110.207 111.378 111.23 107.892 114.029 105.093C116.828 102.294 120.298 101.286 123.993 100.199C125 99.911 126.024 99.6071 127.064 99.2712C127.304 99.2712 127.527 99.1273 127.751 99.0473L128.007 98.9514L128.519 98.7594C128.711 98.7594 128.903 98.6155 129.095 98.5355C129.169 98.5288 129.244 98.5288 129.319 98.5355C129.878 98.2956 130.454 98.0397 131.014 97.7518C132.786 96.8538 134.405 95.6826 135.812 94.2813C139.427 90.6668 140.61 86.4445 141.858 82.3662C142.929 78.6877 143.953 75.2011 146.752 72.4023C149.551 69.6034 153.021 68.5957 156.716 67.5082C160.778 66.3247 165 65.0931 168.615 61.4786C172.229 57.8641 173.413 53.6419 174.644 49.5796C175.732 45.8851 176.755 42.3985 179.538 39.5997C182.321 36.8008 185.824 35.7932 189.518 34.7056C193.581 33.5221 197.803 32.2908 201.417 28.6762C205.032 25.0617 206.215 20.8394 207.447 16.777C208.534 13.0825 209.558 9.59598 212.341 6.79713C215.123 3.99827 218.626 2.99069 222.305 1.99909C224.177 1.48417 226.019 0.864736 227.822 0.143799L223.024 0.143799L221.793 0.399748Z" fill="#FFC844"/>
<path d="M265.663 93.002C262.336 96.3286 258.322 97.5121 254.467 98.6476C250.613 99.7831 246.903 100.855 243.832 103.941C241.42 106.56 239.733 109.763 238.938 113.234L238.538 114.577C238.186 115.793 237.818 117.008 237.386 118.224C236.497 121.065 234.958 123.66 232.892 125.804C230.34 128.19 227.235 129.905 223.856 130.794C223.12 131.018 222.385 131.226 221.665 131.45C217.778 132.586 214.1 133.657 211.029 136.744C207.959 139.831 206.871 143.477 205.735 147.364C204.6 151.25 203.416 155.36 200.09 158.559C198.725 159.907 197.147 161.02 195.42 161.854L195.34 161.854C193.247 162.798 191.081 163.568 188.862 164.157C184.976 165.292 181.297 166.364 178.227 169.435C175.14 172.505 174.068 176.184 172.933 180.07C172.341 182.262 171.571 184.402 170.63 186.468L170.63 186.564C169.804 188.296 168.69 189.875 167.335 191.234C164.008 194.56 159.994 195.744 156.14 196.879C152.285 198.015 148.575 199.086 145.504 202.173C142.433 205.26 141.346 208.906 140.21 212.809C139.075 216.711 137.891 220.71 134.565 224.004C131.788 226.561 128.401 228.362 124.729 229.234L126.44 230.338C129.903 229.389 133.075 227.591 135.668 225.108C139.283 221.493 140.466 217.287 141.714 213.209C142.801 209.514 143.809 206.044 146.608 203.245C149.407 200.446 152.893 199.438 156.572 198.351C160.65 197.151 164.856 195.92 168.471 192.305C169.881 190.902 171.058 189.282 171.957 187.507C172.245 186.947 172.517 186.372 172.757 185.796L172.757 185.636L173.013 184.996L173.189 184.532L173.301 184.229L173.509 183.589C173.845 182.565 174.148 181.558 174.436 180.55C175.524 176.856 176.547 173.369 179.33 170.586C182.113 167.803 185.6 166.78 189.294 165.692C190.302 165.404 191.341 165.1 192.365 164.749L193.053 164.509L193.308 164.413C193.477 164.364 193.643 164.305 193.804 164.237L194.412 163.997L194.604 163.917C195.18 163.677 195.756 163.421 196.315 163.133C198.087 162.236 199.706 161.064 201.113 159.663C204.712 156.048 205.911 151.842 207.143 147.764C208.23 144.069 209.254 140.582 212.037 137.8C214.82 135.017 218.322 133.977 222.001 132.906C223.024 132.602 224.048 132.298 225.072 131.962C228.385 131.003 231.415 129.252 233.9 126.86C236.095 124.6 237.737 121.863 238.698 118.863C239.146 117.584 239.53 116.304 239.898 115.025C240.537 112.416 241.521 109.905 242.824 107.556C243.049 107.185 243.295 106.828 243.56 106.484L243.896 106.053C244.177 105.707 244.476 105.376 244.791 105.061C247.59 102.262 251.077 101.255 254.755 100.167C258.833 98.9675 263.04 97.7359 266.655 94.1214C270.269 90.5069 271.453 86.3006 272.7 82.2223C273.224 80.2494 273.898 78.3193 274.715 76.4487L274.715 73.25C273.091 75.878 271.903 78.7513 271.196 81.7585C270.109 85.6609 268.989 89.6753 265.663 93.002Z" fill="#FFC844"/>
<path d="M269.229 0.0640362C267.098 2.91178 265.603 6.18437 264.847 9.6601C263.712 13.5465 262.528 17.5609 259.201 20.8555C255.875 24.1502 251.844 25.3655 248.006 26.5011C244.168 27.6366 240.441 28.7082 237.37 31.795C234.3 34.8817 233.212 38.5442 232.077 42.4307C230.941 46.3171 229.757 50.3314 226.431 53.6261C223.104 56.9207 219.09 58.1363 215.235 59.2718C211.381 60.4073 207.671 61.4788 204.6 64.5655C201.529 67.6523 200.442 71.3148 199.306 75.2012C198.17 79.0876 196.987 83.102 193.66 86.3966C190.334 89.6913 186.319 90.9067 182.465 92.0423C178.61 93.1778 174.9 94.2493 171.829 97.3361C168.759 100.423 167.671 104.069 166.535 107.972C165.4 111.874 164.216 115.873 160.89 119.167C159.529 120.52 157.951 121.634 156.22 122.462L156.14 122.462C154.073 123.402 151.934 124.172 149.742 124.765C145.856 125.9 142.178 126.972 139.107 130.043C136.02 133.113 134.948 136.792 133.813 140.678C133.221 142.87 132.451 145.01 131.51 147.076L131.51 147.172C130.684 148.904 129.57 150.483 128.215 151.842C124.889 155.168 120.874 156.352 117.02 157.487C113.165 158.623 109.455 159.695 106.384 162.781C103.313 165.868 102.226 169.531 101.09 173.417C99.9549 177.303 98.7713 181.318 95.4447 184.612C92.118 187.907 88.1037 189.123 84.2493 190.258C82.6499 190.738 81.0506 191.202 79.4512 191.857L80.6507 193.073C81.9462 192.593 83.2736 192.209 84.6331 191.809C88.7114 190.61 92.9336 189.378 96.5321 185.764C100.131 182.149 101.33 177.943 102.578 173.865C103.665 170.17 104.689 166.7 107.472 163.901C110.255 161.102 113.757 160.094 117.436 159.007C121.514 157.807 125.72 156.576 129.335 152.961C130.746 151.558 131.923 149.939 132.821 148.163C133.093 147.604 133.365 147.028 133.605 146.452L133.605 146.292L133.861 145.652L134.037 145.189L134.149 144.885L134.372 144.229C134.708 143.221 135.012 142.198 135.3 141.19C136.388 137.496 137.411 134.009 140.194 131.226C142.977 128.443 146.48 127.42 150.158 126.332C151.166 126.044 152.205 125.741 153.229 125.389L153.917 125.149L154.173 125.053C154.348 125.053 154.509 124.941 154.684 124.877L155.276 124.637C155.34 124.643 155.404 124.643 155.468 124.637C156.052 124.405 156.623 124.144 157.179 123.853C158.951 122.956 160.57 121.784 161.977 120.383C165.576 116.768 166.775 112.562 168.007 108.484C169.094 104.789 170.118 101.302 172.901 98.5196C175.684 95.7367 179.186 94.7131 182.865 93.6256C186.943 92.4261 191.165 91.1946 194.764 87.5801C198.362 83.9656 199.562 79.7593 200.809 75.681C201.897 72.0025 202.905 68.5159 205.703 65.717C208.502 62.9182 211.989 61.9107 215.667 60.8231C219.746 59.6236 223.952 58.3921 227.566 54.7776C231.181 51.163 232.364 46.9569 233.612 42.8785C234.699 39.2 235.707 35.7133 238.506 32.9144C241.305 30.1156 244.775 29.1081 248.47 28.0205C252.548 26.837 256.754 25.5895 260.369 21.991C263.983 18.3925 265.167 14.1543 266.414 10.0759C267.486 6.39746 268.51 2.91072 271.309 0.111868C271.35 0.0786861 271.387 0.0412366 271.421 0L269.229 0.0640362Z" fill="#FFC844"/>
<path d="M261.057 39.6639C257.17 40.8155 253.492 41.8869 250.421 44.9577C247.35 48.0284 246.263 51.7069 245.127 55.5933C243.992 59.4797 242.808 63.4941 239.482 66.7888C236.155 70.0834 232.141 71.2989 228.286 72.4345C224.432 73.57 220.721 74.6575 217.65 77.7282C214.58 80.799 213.492 84.4775 212.357 88.3639C211.221 92.2503 210.054 96.2647 206.711 99.5593C203.369 102.854 199.37 104.07 195.516 105.205C191.661 106.341 187.951 107.428 184.88 110.499C181.809 113.57 180.737 117.248 179.586 121.134C178.434 125.021 177.283 129.035 173.956 132.33C172.592 133.685 171.007 134.799 169.27 135.624C167.18 136.574 165.013 137.344 162.793 137.928C158.906 139.063 155.244 140.135 152.157 143.221C149.087 146.292 147.999 149.971 146.863 153.857C146.28 156.049 145.515 158.189 144.576 160.254L144.576 160.35C143.755 162.085 142.64 163.664 141.282 165.02C137.955 168.347 133.941 169.531 130.086 170.666C126.232 171.802 122.522 172.889 119.451 175.96C116.38 179.031 115.308 182.709 114.157 186.596C113.005 190.482 111.854 194.496 108.511 197.791C105.169 201.086 101.17 202.301 97.3158 203.437C95.8604 203.869 94.4211 204.284 93.0456 204.812L94.3888 205.996C95.4764 205.612 96.6121 205.276 97.7636 204.94C101.826 203.757 106.048 202.509 109.663 198.911C113.277 195.312 114.461 191.074 115.692 186.995C116.78 183.317 117.803 179.83 120.586 177.032C123.369 174.233 126.872 173.225 130.566 172.138C134.629 170.954 138.851 169.723 142.465 166.108C143.867 164.701 145.038 163.082 145.936 161.31C146.224 160.734 146.48 160.159 146.72 159.583L146.72 159.439L146.975 158.783L147.136 158.319L147.247 158.015L147.471 157.376C147.807 156.368 148.111 155.344 148.415 154.337C149.486 150.658 150.51 147.172 153.213 144.373C155.916 141.574 159.498 140.567 163.193 139.479C164.2 139.191 165.224 138.887 166.264 138.535C166.504 138.535 166.727 138.391 166.951 138.311L167.207 138.215L167.719 138.024C167.911 138.024 168.103 137.88 168.295 137.8C168.367 137.766 168.442 137.739 168.519 137.72C169.078 137.48 169.654 137.224 170.214 136.936C171.989 136.037 173.609 134.86 175.012 133.449C178.627 129.851 179.81 125.629 181.058 121.55C182.129 117.872 183.152 114.385 185.951 111.586C188.75 108.788 192.221 107.78 195.916 106.692C199.978 105.509 204.2 104.261 207.815 100.663C211.429 97.0643 212.613 92.8261 213.844 88.7637C214.932 85.0692 215.955 81.5827 218.738 78.7838C221.521 75.985 225.024 74.9774 228.718 73.8898C232.781 72.7063 237.003 71.4749 240.617 67.8604C244.232 64.2459 245.415 60.0235 246.647 55.9612C247.734 52.2667 248.758 48.7801 251.54 45.9813C254.323 43.1824 257.826 42.1748 261.505 41.1832C265.583 39.9837 269.805 38.7522 273.404 35.1377C273.913 34.6322 274.394 34.0982 274.843 33.5383L274.843 30.7715C274.126 31.9355 273.273 33.0094 272.3 33.9702C268.958 37.3608 264.943 38.5284 261.057 39.6639Z" fill="#FFC844"/>
<path d="M83.2094 172.969C86.824 169.354 88.0075 165.148 89.255 161.07C90.3266 157.375 91.3502 153.889 94.1491 151.106C96.9479 148.323 100.418 147.283 104.113 146.212C108.191 145.012 112.397 143.781 116.012 140.166C117.418 138.763 118.59 137.143 119.483 135.368C119.771 134.793 120.027 134.217 120.267 133.641L120.267 133.481L120.522 132.857L120.698 132.378L120.794 132.09L121.018 131.434C121.354 130.41 121.658 129.403 121.946 128.395C123.033 124.701 124.041 121.214 126.84 118.431C129.638 115.648 133.109 114.609 136.803 113.537C137.811 113.233 138.851 112.93 139.874 112.594L140.578 112.354L140.818 112.258C140.992 112.204 141.163 112.14 141.33 112.066C141.522 112.066 141.714 111.922 141.906 111.842L142.129 111.762C142.705 111.522 143.265 111.266 143.841 110.978C145.616 110.086 147.236 108.914 148.639 107.508C152.253 103.893 153.437 99.687 154.684 95.6087C155.756 91.9142 156.779 88.4276 159.578 85.6447C162.377 82.8619 165.848 81.8223 169.542 80.7507C173.621 79.5512 177.827 78.3198 181.441 74.7053C185.056 71.0907 186.24 66.8845 187.487 62.8061C188.559 59.1116 189.582 55.6251 192.381 52.8422C195.18 50.0594 198.65 49.0197 202.345 47.9482C206.423 46.7486 210.629 45.5171 214.244 41.9026C217.859 38.2881 219.042 34.0819 220.29 30.0036C221.361 26.3091 222.384 22.8225 225.183 20.0397C227.982 17.2568 231.453 16.2171 235.147 15.1456C239.225 13.9461 243.432 12.7145 247.047 9.10002C249.448 6.59439 251.204 3.54279 252.164 0.207764L250.565 0.207764C249.672 3.12336 248.112 5.79037 246.007 7.99656C242.664 11.3232 238.65 12.5068 234.811 13.6423C230.973 14.7778 227.263 15.8493 224.176 18.92C221.089 21.9908 220.034 25.6693 218.898 29.5557C217.762 33.4421 216.579 37.4724 213.252 40.7511C209.926 44.0298 205.895 45.2453 202.057 46.3968C198.218 47.5484 194.508 48.604 191.421 51.6748C188.335 54.7455 187.279 58.4238 186.143 62.3102C185.008 66.1966 183.824 70.2111 180.498 73.5057C177.171 76.8004 173.141 77.9999 169.302 79.1514C165.464 80.3029 161.754 81.3585 158.683 84.4292C155.612 87.4999 154.524 91.1785 153.389 95.0649C152.253 98.9513 151.07 102.966 147.743 106.26C146.378 107.611 144.8 108.73 143.073 109.571L142.993 109.571C140.904 110.522 138.737 111.293 136.516 111.874C132.629 113.026 128.951 114.097 125.88 117.168C122.809 120.255 121.738 123.917 120.602 127.803C120.016 130.023 119.246 132.19 118.299 134.281L118.299 134.377C117.458 136.1 116.346 137.677 115.005 139.047C111.678 142.373 107.648 143.541 103.809 144.692C99.9708 145.844 96.2604 146.9 93.1737 149.97C90.087 153.041 89.0313 156.72 87.8958 160.606C86.7603 164.492 85.5767 168.507 82.2501 171.801C78.9234 175.096 74.8931 176.296 71.0546 177.431C69.6952 177.831 68.3678 178.231 67.0883 178.695L68.1918 179.974C69.2633 179.59 70.367 179.27 71.4865 178.951C75.3889 177.815 79.5949 176.584 83.2094 172.969Z" fill="#FFC844"/>
<path d="M274.827 257.783C272.951 258.573 271.246 259.719 269.805 261.157C266.734 264.228 265.647 267.907 264.511 271.793L263.856 274C264.383 274 264.927 274 265.455 274L266.015 272.161C267.086 268.466 268.11 264.996 270.893 262.197C272.039 261.076 273.363 260.152 274.811 259.462L274.827 257.783Z" fill="#FFC844"/>
<path d="M1.27504 18.3287L1.69089 17.545C1.97877 16.9693 2.25064 16.4096 2.47455 15.8338L2.47455 15.6739L2.7307 15.0341L2.90641 14.5703L3.01847 14.2505L3.2262 13.6107C3.56206 12.5871 3.86606 11.5795 4.15394 10.5719C5.2415 6.87742 6.26517 3.39088 9.04803 0.60802L9.5119 0.160156L7.3046 0.160156C5.01419 3.0894 3.42256 6.50266 2.65065 10.14C2.15485 11.7394 1.64299 13.5307 0.971261 15.194L1.27504 18.3287Z" fill="#FFC844"/>
<path d="M25.5854 67.6843C29.6637 66.4848 33.8699 65.2534 37.4844 61.6389C38.8907 60.2357 40.0624 58.6157 40.9549 56.8409C41.2428 56.2651 41.5146 55.7052 41.7386 55.1295L41.7386 54.9696L41.9947 54.3298L42.1704 53.8501L42.2665 53.5622L42.4902 52.9064C42.8261 51.8828 43.1301 50.8754 43.4179 49.8678C44.5055 46.1733 45.5132 42.6865 48.312 39.9037C51.1109 37.1208 54.5814 36.0814 58.2759 35.0098C59.2835 34.7059 60.323 34.4021 61.3465 34.0662L62.0341 33.8263L62.2903 33.7302C62.4502 33.7302 62.6262 33.6183 62.7862 33.5543L63.3777 33.3144C63.3777 33.3144 63.5219 33.3144 63.5859 33.3144C64.1616 33.0745 64.7371 32.8186 65.2969 32.5307C67.0717 31.6382 68.6917 30.4666 70.0949 29.0603C73.7094 25.4458 74.893 21.2394 76.1405 17.1611C77.228 13.4666 78.2357 9.98003 81.0346 7.19717C83.8334 4.41431 87.304 3.37464 90.9984 2.30308C93.0008 1.75615 94.9665 1.08326 96.8839 0.288086L92.246 0.288086C91.6862 0.464014 91.1264 0.623862 90.6466 0.79979C86.7442 1.93532 83.0815 3.00696 80.0108 6.0777C76.94 9.14845 75.8528 12.8268 74.7172 16.7132C73.5817 20.5996 72.3981 24.614 69.0715 27.9086C67.7048 29.254 66.127 30.367 64.4011 31.2033C62.3118 32.1547 60.1451 32.9251 57.9241 33.5063C54.0377 34.6578 50.359 35.7295 47.2882 38.8002C44.2175 41.871 43.1459 45.5335 42.0103 49.4359C41.4186 51.6277 40.6484 53.7673 39.7074 55.8333L39.7074 55.9292C38.8662 57.6521 37.7537 59.229 36.4126 60.5993C33.086 63.9259 29.0556 65.1095 25.2172 66.245C21.3788 67.3806 17.6685 68.452 14.5977 71.5228C13.2701 72.853 12.1873 74.4069 11.399 76.113L12.1027 78.496C12.8521 76.3052 14.0753 74.3066 15.6852 72.6424C18.4041 69.7796 21.8909 68.7559 25.5854 67.6843Z" fill="#FFC844"/>
<path d="M63.0739 134.889C64.1615 131.21 65.1852 127.724 67.968 124.925C70.7509 122.126 74.2534 121.118 77.9319 120.031C82.0102 118.831 86.2324 117.6 89.8309 113.985C91.2419 112.582 92.4188 110.962 93.3174 109.187C93.6053 108.627 93.8772 108.052 94.1171 107.476L94.1171 107.332L94.3732 106.676L94.5489 106.212L94.661 105.908L94.8847 105.269C95.2206 104.245 95.5246 103.238 95.8125 102.23C96.9 98.5355 97.9237 95.065 100.707 92.2661C103.489 89.4673 106.992 88.4597 110.686 87.3721C111.918 87.0043 113.181 86.6364 114.445 86.1886L114.685 86.1886L115.212 85.9967L115.772 85.7728L115.996 85.6768C116.572 85.4369 117.148 85.181 117.707 84.8932C119.479 83.9955 121.098 82.8242 122.505 81.4225C126.104 77.808 127.304 73.6017 128.535 69.5234C129.623 65.8289 130.646 62.3584 133.429 59.5595C136.212 56.7606 139.714 55.7532 143.393 54.6656C147.471 53.4661 151.693 52.2346 155.292 48.62C158.891 45.0055 160.09 40.7991 161.338 36.7208C162.425 33.0423 163.449 29.5558 166.232 26.7569C169.015 23.9581 172.517 22.9506 176.196 21.863C180.274 20.6635 184.48 19.432 188.095 15.8175C191.709 12.203 192.893 7.99657 194.14 3.91825C194.508 2.68675 194.86 1.47123 195.276 0.303711L193.676 0.303711C193.324 1.34328 193.021 2.39885 192.701 3.5024C191.565 7.38881 190.382 11.4032 187.055 14.6978C183.729 17.9925 179.714 19.208 175.86 20.3435C172.005 21.4791 168.295 22.5507 165.224 25.6375C162.153 28.7242 161.066 32.3867 159.93 36.2731C158.795 40.1596 157.611 44.1739 154.285 47.4686C150.958 50.7632 146.944 51.9786 143.089 53.1141C139.235 54.2496 135.524 55.3213 132.453 58.408C129.383 61.4948 128.295 65.1413 127.16 69.0437C126.024 72.9461 124.841 76.9444 121.514 80.239C120.158 81.5972 118.578 82.7117 116.844 83.5337C114.752 84.478 112.585 85.2483 110.367 85.8367C106.48 86.9722 102.802 88.0438 99.7308 91.1145C96.6441 94.1853 95.5724 97.8638 94.4369 101.75C93.8451 103.942 93.0749 106.082 92.1339 108.148L92.1339 108.244C91.312 109.978 90.1974 111.558 88.8392 112.914C85.5125 116.24 81.4982 117.424 77.6437 118.559C73.7893 119.695 70.079 120.766 67.0083 123.853C63.9375 126.94 62.8499 130.602 61.7143 134.489C60.5788 138.375 59.3952 142.39 56.0686 145.684C53.2463 148.283 49.7957 150.102 46.0567 150.962L46.9524 152.337C50.7834 151.395 54.3082 149.484 57.1885 146.788C60.5951 143.173 61.8904 138.967 63.0739 134.889Z" fill="#FFC844"/>
</g>
</svg>
