<svg width="93" height="93" viewBox="0 0 93 93" fill="none" xmlns="http://www.w3.org/2000/svg">
<path d="M63.0922 12.2029C64.1058 13.2127 65.2755 14.0525 66.5563 14.6901C66.9624 14.8959 67.3723 15.0831 67.7859 15.2515L67.8982 15.2964C68.0526 15.3582 68.2042 15.4199 68.3586 15.4761L68.6955 15.6024L68.9088 15.6782L69.3692 15.8354L69.4197 15.8523C70.1496 16.0937 70.8795 16.3098 71.5981 16.5204C74.2397 17.2952 76.7325 18.025 78.7313 20.0238C80.73 22.0225 81.4599 24.5153 82.2347 27.1569C82.448 27.884 82.6642 28.6195 82.9112 29.3578C82.9645 29.5234 83.0235 29.6891 83.0796 29.8547C83.1021 29.9136 83.1246 29.9726 83.1442 30.0315L83.2789 30.3993C83.3323 30.5396 83.3884 30.68 83.4418 30.8147C83.4642 30.8653 83.4839 30.9158 83.5035 30.9691C83.672 31.379 83.8591 31.786 84.065 32.1903L84.065 32.2099C84.7025 33.4908 85.5424 34.6605 86.5522 35.674C88.5172 37.6391 90.7406 38.6244 92.9751 39.3571L92.9751 38.1725C90.9904 37.4903 89.045 36.5752 87.3438 34.8796C86.377 33.9026 85.5791 32.7718 84.9829 31.5334C84.9738 31.5123 84.9634 31.4916 84.952 31.4716C84.2749 29.9752 83.7238 28.4249 83.3042 26.8369C82.4901 24.0522 81.7181 21.4246 79.5173 19.2209C77.3164 17.0201 74.6889 16.2481 71.9041 15.434C70.3166 15.0157 68.7672 14.4644 67.2722 13.7861L67.2076 13.7553C65.9684 13.1591 64.8374 12.3603 63.8614 11.3916C61.4781 9.00826 60.6359 6.13366 59.8218 3.3517C59.4849 2.20075 59.1537 1.08067 58.7298 0.002694L57.5115 0.00269389C57.9942 1.19365 58.4058 2.41226 58.7438 3.65208C59.6225 6.59966 60.5068 9.61743 63.0922 12.2029Z" fill="#766DFA" fill-opacity="0.15"/>
<path d="M3.66866 1.17344C5.6674 3.17499 6.39728 5.66499 7.17207 8.31219C8.01424 11.2289 8.90974 14.2439 11.4952 16.8321C14.0806 19.4204 17.0956 20.3018 20.0179 21.144C22.6595 21.9188 25.1523 22.6487 27.1538 24.6474C29.1554 26.6462 29.8825 29.139 30.6573 31.7862C31.4994 34.7029 32.3949 37.7178 34.9804 40.3033C35.9946 41.313 37.1642 42.1537 38.4445 42.7933C38.8525 42.9973 39.2623 43.1844 39.6741 43.3547L39.7948 43.4025L40.2439 43.5765L40.5892 43.7028L40.7941 43.7786L41.2629 43.9386L41.3022 43.9527C42.0349 44.1941 42.7648 44.4103 43.4863 44.6208C46.1278 45.3956 48.6207 46.1255 50.6194 48.1242C52.6182 50.1229 53.348 52.6158 54.1228 55.2574C54.3334 55.9844 54.5523 56.7227 54.7966 57.461C54.849 57.6257 54.9051 57.7913 54.965 57.9579L55.0295 58.1348L55.1643 58.5053C55.2176 58.6429 55.2709 58.786 55.3271 58.9152C55.3467 58.9685 55.3664 59.019 55.3889 59.0724C55.5573 59.4822 55.7445 59.8893 55.9503 60.2935L55.9503 60.3132C56.5878 61.5933 57.4266 62.7629 58.4347 63.7773C61.023 66.3627 64.0491 67.247 66.9574 68.1004C69.599 68.8752 72.0946 69.6051 74.0934 71.6038C76.0921 73.6025 76.822 76.0953 77.5968 78.7397C78.439 81.6593 79.3345 84.6742 81.9199 87.2625C84.5054 89.8507 87.5568 90.7631 90.4735 91.6052C91.3381 91.8579 92.1859 92.1077 93 92.3969L93 91.2094C92.2757 90.9652 91.5374 90.749 90.7851 90.5273C88.0031 89.7132 85.1257 88.871 82.7424 86.4877C80.3591 84.1043 79.5169 81.2269 78.7028 78.445C77.8887 75.663 77.1167 73.0327 74.9131 70.8318C72.7094 68.631 70.0847 67.859 67.2999 67.0421C64.5151 66.2252 61.6405 65.3858 59.2572 63.0025C58.2895 62.0262 57.4916 60.8953 56.8963 59.6563C56.8859 59.6372 56.8765 59.6175 56.8683 59.5973C56.1891 58.1005 55.6369 56.5492 55.2176 54.9598C54.4007 52.1778 53.6316 49.5475 51.4307 47.3466C49.2298 45.1458 46.5994 44.3766 43.8175 43.5597C42.2319 43.1423 40.6843 42.592 39.1912 41.9146L39.1182 41.8781C37.8804 41.2834 36.7505 40.4865 35.7748 39.5201C33.3915 37.1368 32.5493 34.2593 31.7324 31.4746C30.9155 28.6898 30.1492 26.0651 27.9455 23.8614C25.7418 21.6577 23.1143 20.8914 20.3323 20.0745C17.5504 19.2576 14.6729 18.4182 12.2896 16.0349C9.9063 13.6515 9.06412 10.7741 8.25003 7.99219C7.43594 5.21024 6.66396 2.57987 4.46028 0.379005C4.33677 0.253616 4.21045 0.132896 4.08131 0.0168684L2.26505 0.0168683C2.76794 0.357811 3.23785 0.745018 3.66866 1.17344Z" fill="#766DFA" fill-opacity="0.15"/>
<path d="M75.9267 5.31967L75.9436 5.31967C76.3478 5.52459 76.7605 5.71268 77.1731 5.88111C77.2068 5.89795 77.2405 5.90919 77.277 5.92323C77.4314 5.98779 77.5886 6.04954 77.743 6.10849L78.0742 6.2292L78.296 6.30781L78.748 6.46221L78.8069 6.48186C79.5368 6.72609 80.2639 6.93944 80.9825 7.14998C83.6241 7.92477 86.1169 8.65465 88.1185 10.6534C90.12 12.6521 90.8443 15.1449 91.6191 17.7921C91.8802 18.6792 92.1468 19.5831 92.4613 20.4871L92.523 20.6639C92.5679 20.7874 92.6129 20.911 92.6606 21.0345C92.7083 21.158 92.7672 21.3152 92.8234 21.45L92.8823 21.6015L92.9946 21.857L92.9946 18.4883C92.8936 18.1515 92.7925 17.8146 92.6943 17.4777C91.8802 14.693 91.1082 12.0654 88.9073 9.86175C86.7037 7.66089 84.0761 6.8889 81.2913 6.07481C79.7044 5.65776 78.1557 5.10649 76.6622 4.42697L76.592 4.39329C75.3543 3.79729 74.2244 2.99942 73.2487 2.0324C72.6381 1.42096 72.0968 0.744072 71.6345 0.0140133L70.3179 0.0140132C70.9006 1.04148 71.6192 1.98572 72.4542 2.82123C73.4695 3.83576 74.6421 4.67947 75.9267 5.31967Z" fill="#766DFA" fill-opacity="0.15"/>
<path d="M29.3879 11.7848C32.0295 12.5596 34.5223 13.2895 36.5238 15.2882C38.5254 17.2869 39.2524 19.7797 40.0272 22.4242C40.8694 25.3409 41.7649 28.3586 44.3504 30.9441C45.3646 31.9538 46.5342 32.7945 47.8145 33.4341C48.2215 33.6418 48.6314 33.8271 49.0468 33.9955L49.1507 34.0348C49.3051 34.0994 49.4595 34.1611 49.6167 34.2201L49.948 34.3408L50.1697 34.4194L50.6217 34.5766L50.6807 34.5963C51.4105 34.8377 52.1376 35.051 52.8563 35.2616C55.4978 36.0364 57.9907 36.7662 59.9894 38.765C61.9882 40.7637 62.718 43.2565 63.4928 45.9009C63.7539 46.7908 64.0206 47.6976 64.335 48.6015C64.3574 48.6576 64.3771 48.7166 64.3995 48.7727L64.5343 49.1461L64.6943 49.5531L64.7589 49.7131C64.9273 50.1258 65.1154 50.5329 65.3203 50.9399C65.3196 50.9446 65.3196 50.9493 65.3203 50.9539C65.9599 52.2342 66.8006 53.4038 67.8103 54.418C70.3958 57.0035 73.4248 57.8878 76.3302 58.7412C78.9718 59.5159 81.4674 60.2458 83.4662 62.2446C85.4649 64.2433 86.1948 66.7361 86.9696 69.3805C87.8118 72.3 88.7073 75.315 91.2927 77.9032C91.8139 78.4174 92.3773 78.887 92.9771 79.3069L92.9771 77.9032C92.6679 77.6528 92.3719 77.3867 92.09 77.106C89.7066 74.7227 88.8645 71.8453 88.0504 69.0633C87.2363 66.2814 86.4643 63.651 84.2634 61.4473C82.0626 59.2437 79.4322 58.4773 76.6474 57.6604C73.8627 56.8435 70.9909 56.0041 68.6048 53.6208C67.6379 52.6438 66.8401 51.513 66.2439 50.2746C66.2439 50.2549 66.2242 50.2325 66.213 50.21C65.533 48.7157 64.9817 47.1661 64.5652 45.5781C63.7483 42.7961 62.9791 40.1658 60.7782 37.9649C58.5774 35.7641 55.947 34.9949 53.165 34.178C51.5779 33.7614 50.0293 33.2101 48.5359 32.5301L48.4658 32.4993C47.2286 31.9023 46.0988 31.1045 45.1223 30.1384C42.739 27.7523 41.8969 24.8777 41.0828 22.0957C40.2687 19.3138 39.4967 16.6834 37.2958 14.4797C35.095 12.2761 32.4646 11.5097 29.6798 10.6928C26.8951 9.87588 24.0205 9.03652 21.6372 6.65319C19.6525 4.66568 18.7345 2.33569 18.013 0.0056926L16.8396 0.0056925C17.6172 2.57992 18.5745 5.17659 20.8427 7.44483C23.4534 10.0471 26.4684 10.9314 29.3879 11.7848Z" fill="#766DFA" fill-opacity="0.15"/>
<path d="M45.8947 5.91763C47.8935 7.91637 48.6233 10.4092 49.3981 13.0536C50.2403 15.9731 51.1358 18.9881 53.7213 21.5735C54.7355 22.5832 55.9051 23.4239 57.1854 24.0635L57.1994 24.0635C57.6055 24.2694 58.0163 24.4565 58.4318 24.625L58.5356 24.6642C58.69 24.7288 58.8445 24.7906 59.0017 24.8495L59.3357 24.9702L59.5519 25.0488L60.0151 25.206L60.06 25.2229C60.7899 25.4643 61.5225 25.6805 62.2412 25.891C64.8828 26.6658 67.3756 27.3957 69.3743 29.3916C71.3731 31.3875 72.1029 33.8832 72.8777 36.5332C73.0911 37.2574 73.3072 37.9901 73.5515 38.7284L73.7199 39.2225C73.7423 39.2814 73.7648 39.3404 73.7844 39.3994L73.9192 39.7699C73.9726 39.9074 74.0287 40.0506 74.082 40.1854C74.1045 40.2359 74.1241 40.2864 74.1438 40.337C74.3122 40.7468 74.4975 41.1567 74.7052 41.5581L74.7052 41.5777C75.3428 42.8586 76.1826 44.0283 77.1924 45.0419C79.7779 47.6273 82.7928 48.5116 85.7124 49.365C88.354 50.1398 90.8495 50.8697 92.8483 52.8684C92.896 52.9161 92.9381 52.9667 92.9858 53.0144L92.9858 51.476C90.9253 49.7271 88.5392 49.0225 86.0268 48.287C83.2448 47.4729 80.3702 46.6307 77.9841 44.2474C77.0172 43.2704 76.2194 42.1397 75.6232 40.9012L75.5951 40.8423C74.9159 39.3454 74.3637 37.7941 73.9445 36.2047C73.1276 33.42 72.3584 30.7924 70.1575 28.5887C67.9567 26.3879 65.3291 25.6159 62.5444 24.8018C60.9595 24.3849 59.4129 23.8346 57.9209 23.1568L57.8451 23.1203C56.6076 22.525 55.4777 21.7281 54.5017 20.7622C52.1183 18.3761 51.2762 15.5015 50.4621 12.7167C49.648 9.93195 48.876 7.3072 46.6751 5.10353C44.4743 2.89986 41.8439 2.13349 39.0592 1.31659C37.7337 0.955012 36.4307 0.515384 35.1571 6.38854e-06L32.684 6.17233e-06C34.6322 1.18746 36.7123 1.79944 38.7447 2.39457C41.4004 3.17779 43.896 3.91889 45.8947 5.91763Z" fill="#766DFA" fill-opacity="0.15"/>
<path d="M28.7904 87.7762L28.7595 87.7173C28.0795 86.221 27.5282 84.6696 27.1117 83.0797C26.2947 80.2978 25.5256 77.6674 23.3219 75.4666C21.121 73.2629 18.4907 72.4937 15.7059 71.6768C14.119 71.2598 12.5703 70.7085 11.0768 70.029L11.0094 69.9981C9.77087 69.4035 8.64077 68.6054 7.66603 67.6372C5.2827 65.2539 4.44053 62.3765 3.62363 59.5945C2.8348 56.894 2.08245 54.3422 0.0303762 52.1835L0.030376 53.9324C1.31327 55.7009 1.91683 57.7558 2.55687 59.9117C3.39904 62.8284 4.29736 65.8434 6.88281 68.4317C7.89789 69.4397 9.06728 70.2793 10.3469 70.9189L10.3638 70.9189C10.7708 71.1238 11.1807 71.3091 11.5933 71.4803L11.7196 71.5308L12.1604 71.7049L12.5113 71.8312L12.7106 71.9042L13.1822 72.0642L13.2187 72.0782C13.9514 72.3197 14.6841 72.5358 15.4055 72.7492C18.0443 73.5212 20.5399 74.251 22.5387 76.2498C24.5374 78.2485 25.2673 80.7413 26.0421 83.3885C26.2526 84.11 26.4688 84.8427 26.713 85.5782L26.713 85.5978C26.7663 85.7606 26.8197 85.9206 26.8786 86.0807C26.8983 86.1452 26.9235 86.207 26.946 86.2687C26.9881 86.3895 27.033 86.5102 27.078 86.6309C27.1229 86.7516 27.1874 86.9116 27.2436 87.052L27.3025 87.1979C27.471 87.6078 27.6562 88.0176 27.864 88.4219L27.864 88.4387C28.5041 89.7171 29.3437 90.8855 30.3512 91.9C30.7391 92.2855 31.1507 92.6465 31.5835 92.9808L33.5879 92.9808C32.6964 92.4635 31.8756 91.8332 31.1456 91.1056C30.1815 90.134 29.3855 89.0088 28.7904 87.7762Z" fill="#766DFA" fill-opacity="0.15"/>
<path d="M1.27408 39.8962C3.91567 40.671 6.41131 41.4009 8.41005 43.3996C10.4088 45.3983 11.1415 47.8911 11.9135 50.5355C12.7556 53.4551 13.6539 56.47 16.2394 59.0583C17.2544 60.0663 18.4239 60.9059 19.7035 61.5455C20.1105 61.7504 20.5204 61.9357 20.933 62.1069L21.0369 62.1462C21.1941 62.2108 21.3485 62.2725 21.5057 62.3315L21.837 62.4522L22.0559 62.5336L22.5107 62.688L22.5668 62.7076C23.2967 62.9491 24.0266 63.1652 24.7452 63.3758C27.3868 64.1478 29.8797 64.8776 31.8784 66.8764C33.8771 68.8751 34.607 71.3679 35.379 74.0123C35.5923 74.7366 35.8113 75.4721 36.0555 76.2104C36.1089 76.3732 36.165 76.536 36.224 76.7016C36.2436 76.7606 36.2661 76.8224 36.2885 76.8841L36.4233 77.249C36.4766 77.3894 36.5327 77.5298 36.5889 77.6673C36.6085 77.7178 36.6254 77.7656 36.6479 77.8161C36.8163 78.226 37.0016 78.6358 37.2093 79.0401L37.2093 79.0569C37.8489 80.3365 38.6885 81.5059 39.6965 82.521C42.2848 85.1065 45.3109 85.9907 48.2192 86.8441C50.8608 87.6189 53.3536 88.3516 55.3552 90.3503C56.1148 91.1198 56.7477 92.0048 57.2304 92.9723L58.4824 92.9723C57.9164 91.7019 57.1251 90.5445 56.1468 89.5559C53.9459 87.3522 51.3184 86.5831 48.5336 85.7662C45.7489 84.9493 42.8743 84.1099 40.4909 81.7266C39.5331 80.7581 38.742 79.6379 38.1497 78.4112L38.1188 78.3495C37.4393 76.854 36.888 75.3036 36.471 73.7148C35.6541 70.9328 34.8849 68.3024 32.6813 66.1016C30.4804 63.9007 27.85 63.1315 25.0681 62.3146C23.4807 61.8973 21.9312 61.347 20.4362 60.6696L20.3688 60.6359C19.1308 60.0404 18.0008 59.2425 17.0254 58.2751C14.6421 55.8917 13.7999 53.0143 12.983 50.2324C12.1661 47.4504 11.3997 44.82 9.19605 42.6192C6.99238 40.4183 4.36482 39.6463 1.58287 38.8294C1.06353 38.6778 0.541406 38.5263 0.0192614 38.3606L0.0192613 39.5369L1.27408 39.8962Z" fill="#766DFA" fill-opacity="0.15"/>
<path d="M13.9516 84.8369C11.748 82.6332 9.1204 81.864 6.33564 81.0471C4.74912 80.6298 3.20061 80.0795 1.70653 79.4021L1.63913 79.3684C1.08213 79.0951 0.544681 78.7837 0.0305971 78.4364L0.0305969 79.7726C0.339391 79.9579 0.651014 80.1291 0.965423 80.2892L0.982248 80.2892C1.38929 80.4941 1.79915 80.6794 2.21181 80.8506L2.32692 80.8955L2.78169 81.0752L3.12135 81.1987L3.33189 81.2745L3.79509 81.4345L3.84282 81.4485C4.5727 81.6928 5.30258 81.9089 6.02404 82.1195C8.66282 82.8915 11.1584 83.6213 13.1572 85.6201C15.1559 87.6188 15.8858 90.1116 16.6606 92.7588L16.7279 92.989L17.9014 92.989C17.848 92.8065 17.7919 92.6241 17.7386 92.4416C16.9245 89.6681 16.1553 87.0377 13.9516 84.8369Z" fill="#766DFA" fill-opacity="0.15"/>
<path d="M0.0273934 92.6073C0.327766 92.728 0.622531 92.8572 0.911674 92.9975L3.14062 92.9975C2.17501 92.3342 1.12884 91.7965 0.0273935 91.3974L0.0273934 92.6073Z" fill="#766DFA" fill-opacity="0.15"/>
<path d="M2.12504 26.1969C4.7133 28.7824 7.73948 29.6667 10.6478 30.5201C13.2865 31.2949 15.7821 32.0247 17.7837 34.0235C19.7852 36.0222 20.5123 38.515 21.2871 41.1594C22.1293 44.0789 23.0248 47.0939 25.6102 49.6821C26.6253 50.6902 27.7947 51.5298 29.0744 52.1693C29.4814 52.3771 29.8913 52.5624 30.3067 52.7308L30.405 52.7701C30.5622 52.8356 30.7194 52.8974 30.8766 52.9554L31.2078 53.0761L31.4296 53.1547C31.5812 53.2108 31.7328 53.2614 31.8844 53.3119L31.9377 53.3287C32.6676 53.573 33.3975 53.7863 34.1161 53.9996C36.7577 54.7716 39.2505 55.5015 41.2493 57.5003C43.248 59.499 43.9779 61.9918 44.7527 64.639C45.0137 65.5289 45.2804 66.4328 45.5948 67.3368L45.6538 67.5052C45.6987 67.6315 45.7436 67.7578 45.7913 67.8842C45.839 68.0105 45.898 68.1649 45.9542 68.294C45.9738 68.3446 45.9935 68.3979 46.0159 68.4484C46.1843 68.8601 46.3715 69.2691 46.5774 69.6752C47.2169 70.9548 48.0565 72.1242 49.0646 73.1393C51.6528 75.7247 54.679 76.609 57.5873 77.4624C60.2289 78.2372 62.7245 78.9671 64.7232 80.9658C66.722 82.9645 67.4518 85.4574 68.2266 88.1046C68.665 89.77 69.2454 91.3948 69.9615 92.9611L71.2275 92.9611C70.332 91.2936 69.8239 89.5222 69.3046 87.7874C68.4877 85.0054 67.7185 82.375 65.5149 80.1742C63.3112 77.9733 60.6864 77.2013 57.9017 76.3844C55.1169 75.5675 52.2423 74.7282 49.859 72.3448C48.8922 71.3679 48.0944 70.2371 47.4981 68.9986L47.4672 68.9369C46.7877 67.4414 46.2364 65.8909 45.8194 64.3021C45.0025 61.5202 44.2333 58.8898 42.0325 56.689C39.8316 54.4881 37.2012 53.7189 34.4193 52.902C32.8337 52.4847 31.2861 51.9344 29.793 51.257L29.72 51.2233C28.482 50.6278 27.352 49.8298 26.3766 48.8624C23.9933 46.4791 23.1511 43.6017 22.3342 40.8198C21.5173 38.0378 20.7509 35.4074 18.5473 33.2038C16.3436 31.0001 13.7161 30.2337 10.9341 29.4168C8.15215 28.5999 5.27474 27.7606 2.89141 25.3772C1.62229 24.0785 0.637557 22.5298 -3.94704e-05 20.8295L-3.96972e-05 23.4234C0.580679 24.4391 1.29547 25.3719 2.12504 26.1969Z" fill="#766DFA" fill-opacity="0.15"/>
</svg>
