<svg width="605" height="1948" viewBox="0 0 605 1948" fill="none" xmlns="http://www.w3.org/2000/svg">
<mask id="mask0_2265_7183" style="mask-type:alpha" maskUnits="userSpaceOnUse" x="0" y="0" width="605" height="1948">
<rect width="605" height="1948" fill="#001705"/>
</mask>
<g mask="url(#mask0_2265_7183)">
<path opacity="0.05" d="M39.0006 776.6L39.0004 2207.78L506.629 2207.78L506.63 531.519C506.63 527.252 507.391 523.028 508.871 519.086C510.351 515.144 512.52 511.562 515.255 508.544C517.989 505.527 521.236 503.135 524.809 501.502C528.382 499.869 532.211 499.029 536.079 499.029L1880.91 499.029C1884.78 499.029 1888.61 499.869 1892.18 501.502C1895.76 503.135 1899 505.528 1901.74 508.545C1904.47 511.562 1906.64 515.144 1908.12 519.086C1909.6 523.028 1910.36 527.253 1910.36 531.519L1910.36 2207.78L2378.33 2207.78L2378.33 776.601C2378.33 566.126 2302.55 364.272 2167.65 215.443C2032.76 66.6152 1849.8 -16.9957 1659.03 -16.9958L758.553 -16.9959C664.072 -17.0327 570.51 3.46691 483.212 43.3324C395.913 83.1978 316.588 141.648 249.768 215.344C182.948 289.04 129.942 376.538 93.7783 472.839C57.6143 569.141 39.0006 672.36 39.0006 776.6V776.6Z" fill="#4CE467"/>
</g>
</svg>
