<svg width="228" height="229" viewBox="0 0 228 229" fill="none" xmlns="http://www.w3.org/2000/svg">
<g opacity="0.33">
<path d="M194.881 220.151C196.253 215.533 197.515 211.177 200.939 207.698C204.363 204.22 208.774 202.992 213.398 201.64C218.132 200.268 223.003 198.814 227.36 195.095V191.287L226.852 191.829C222.694 195.946 217.659 197.414 212.788 198.841C207.786 200.302 203.066 201.688 199.066 205.702L198.984 205.784C198.957 205.815 198.927 205.843 198.894 205.866C194.908 209.859 193.529 214.58 192.034 219.588C191.268 222.542 190.228 225.418 188.926 228.178H192.061C193.197 225.575 194.14 222.892 194.881 220.151Z" fill="#FFC844"/>
<path d="M170.38 218.799C175.053 214.127 176.637 208.714 178.174 203.479C179.546 198.862 180.802 194.505 184.225 191.027C187.649 187.549 192.067 186.321 196.685 184.969C201.919 183.432 207.333 181.847 212.005 177.182L212.08 177.093L212.169 177.01C216.842 172.338 218.426 166.925 219.963 161.69C221.335 157.073 222.591 152.716 226.021 149.238C226.434 148.828 226.869 148.441 227.325 148.079V144.648C226.185 145.392 225.125 146.252 224.162 147.214L224.08 147.303L223.991 147.386C220.004 151.372 218.625 156.092 217.13 161.107C215.703 165.978 214.228 171.014 210.111 175.179C205.995 179.343 200.925 180.756 196.053 182.183C191.052 183.652 186.332 185.031 182.332 189.044L182.243 189.14L182.16 189.216C178.174 193.202 176.795 197.922 175.3 202.937C174.542 205.858 173.517 208.704 172.24 211.438C172.182 211.56 172.141 211.689 172.116 211.822C171.136 213.662 169.893 215.35 168.425 216.83C164.247 221.002 159.177 222.491 154.271 223.924C150.56 225.015 146.999 226.058 143.781 228.151H150.031C151.644 227.554 153.325 227.067 155.04 226.559C160.302 225.056 165.715 223.472 170.38 218.799Z" fill="#FFC844"/>
<path d="M208.925 69.2747C207.491 74.1802 206.003 79.2503 201.831 83.4285C200.35 84.8983 198.66 86.142 196.816 87.1196C196.686 87.1451 196.559 87.1866 196.439 87.2431C193.678 88.5422 190.802 89.5826 187.849 90.351C182.848 91.8192 178.127 93.1983 174.128 97.2118L174.045 97.301L173.956 97.3833C169.97 101.369 168.591 106.09 167.095 111.105C165.668 115.976 164.193 121.005 160.084 125.169C155.974 129.334 150.89 130.754 146.019 132.181C141.017 133.649 136.297 135.028 132.297 139.042L132.215 139.131L132.126 139.213C128.14 143.2 126.754 147.92 125.265 152.935C124.497 155.886 123.456 158.759 122.157 161.518C122.1 161.64 122.058 161.769 122.034 161.902C121.053 163.744 119.807 165.431 118.336 166.91C114.164 171.082 109.094 172.571 104.189 174.004C99.2834 175.438 94.4671 176.852 90.4673 180.865C86.4675 184.879 85.0953 189.578 83.6065 194.587C82.1177 199.595 80.6838 204.562 76.5056 208.741C72.3274 212.919 67.2642 214.401 62.3587 215.835L62.002 215.937C63.2094 216.555 64.4284 217.147 65.6588 217.714C70.084 216.342 74.5297 214.6 78.4472 210.682C83.1194 206.01 84.7043 200.597 86.2411 195.362C87.6132 190.704 88.8893 186.313 92.3814 182.821C95.8736 179.328 100.264 178.018 104.916 176.68C110.158 175.15 115.571 173.558 120.236 168.893C124.902 164.228 126.493 158.808 128.03 153.573C129.402 148.956 130.658 144.592 134.088 141.121C137.518 137.649 141.923 136.414 146.54 135.063C151.775 133.526 157.188 131.941 161.86 127.276C161.884 127.243 161.912 127.213 161.943 127.187L162.025 127.104C166.697 122.432 168.282 117.019 169.819 111.784C171.191 107.167 172.447 102.803 175.877 99.3249C179.307 95.8465 183.712 94.6253 188.329 93.2737C193.564 91.7369 198.977 90.1521 203.649 85.4799C208.322 80.8077 209.9 75.4014 211.436 70.1666C212.809 65.5082 214.085 61.1173 217.611 57.6252C220.355 54.8808 223.676 53.5087 227.216 52.3629V49.4883C223.011 50.7712 219.059 52.2738 215.649 55.663C211.773 59.553 210.387 64.2732 208.925 69.2747Z" fill="#FFC844"/>
<path d="M138.388 209.914C143.623 208.377 149.036 206.792 153.708 202.127C158.381 197.462 159.966 192.042 161.495 186.8C162.868 182.19 164.13 177.833 167.554 174.355C170.977 170.876 175.389 169.648 180.006 168.297C185.247 166.76 190.661 165.175 195.326 160.503L195.401 160.427L195.497 160.338C200.17 155.666 201.754 150.253 203.291 145.011C204.663 140.401 205.919 136.037 209.342 132.566C212.766 129.094 217.177 127.859 221.795 126.508C223.633 125.966 225.486 125.424 227.325 124.744V121.691C225.307 122.494 223.208 123.105 221.191 123.702C216.196 125.163 211.476 126.549 207.469 130.562L207.38 130.652L207.298 130.734C203.312 134.72 201.926 139.44 200.437 144.455C199.01 149.327 197.528 154.362 193.419 158.52C189.309 162.678 184.273 164.098 179.402 165.47C174.407 166.931 169.687 168.317 165.681 172.331C165.649 172.359 165.619 172.389 165.591 172.42L165.509 172.502C161.523 176.488 160.137 181.209 158.648 186.224C157.877 189.176 156.836 192.051 155.54 194.814C155.478 194.931 155.436 195.059 155.417 195.191C154.439 197.036 153.192 198.726 151.719 200.206C147.548 204.377 142.477 205.866 137.572 207.3C132.666 208.734 127.843 210.147 123.85 214.161C119.857 218.174 118.478 222.867 116.99 227.882L116.887 228.239H119.748C121.065 223.745 122.382 219.499 125.765 216.116C129.339 212.562 133.737 211.279 138.388 209.914Z" fill="#FFC844"/>
<path d="M215.523 222.177L215.433 222.259C213.795 223.908 212.447 225.821 211.447 227.92H214.658C215.423 226.531 216.371 225.253 217.478 224.119C220.27 221.374 223.653 220.002 227.227 218.87V215.879C223.008 217.162 219.042 218.664 215.625 222.054C215.588 222.092 215.553 222.133 215.523 222.177Z" fill="#FFC844"/>
<path d="M103.037 211.918C104.409 207.266 105.685 202.868 109.211 199.383C112.738 195.898 117.094 194.581 121.753 193.208C126.987 191.678 132.401 190.094 137.073 185.421C141.745 180.749 143.33 175.336 144.86 170.101C146.232 165.491 147.494 161.127 150.911 157.656C154.328 154.184 158.753 152.943 163.37 151.591C168.605 150.061 174.018 148.469 178.69 143.804L178.773 143.715L178.862 143.633C183.527 138.967 185.119 133.547 186.649 128.312C188.021 123.695 189.283 119.339 192.707 115.86C196.13 112.382 200.542 111.154 205.159 109.802C210.394 108.272 215.807 106.687 220.479 102.015C224.253 98.2348 226.016 93.9742 227.34 89.7137V80.5203C226.688 82.2698 226.153 84.0742 225.611 85.9197C224.177 90.8252 222.695 95.8953 218.517 100.073C217.038 101.545 215.351 102.791 213.509 103.771C213.375 103.79 213.246 103.83 213.125 103.888C210.364 105.19 207.488 106.233 204.535 107.003C199.533 108.464 194.813 109.85 190.813 113.864L190.731 113.946L190.642 114.028C186.662 118.014 185.277 122.735 183.781 127.75C182.354 132.614 180.879 137.65 176.776 141.808C172.673 145.965 167.576 147.399 162.705 148.826C157.703 150.287 152.983 151.673 148.983 155.687L148.901 155.776L148.812 155.852C144.832 159.838 143.446 164.565 141.951 169.573C141.183 172.524 140.143 175.398 138.843 178.156C138.784 178.277 138.745 178.407 138.726 178.54C137.746 180.382 136.5 182.069 135.028 183.548C130.85 187.727 125.78 189.209 120.875 190.649C115.969 192.09 111.153 193.497 107.153 197.51C103.153 201.524 101.788 206.216 100.292 211.232C98.7966 216.247 97.4587 221.125 93.3423 225.296C93.0335 225.605 92.7248 225.893 92.4023 226.174C93.5138 226.38 94.6252 226.579 95.7367 226.758C100.018 222.195 101.575 216.974 103.037 211.918Z" fill="#FFC844"/>
<path d="M45.2202 177.215C49.8924 172.543 51.4841 167.13 53.0141 161.895C54.3862 157.244 55.6623 152.846 59.1545 149.354C62.6466 145.862 67.0375 144.551 71.696 143.213C76.9307 141.684 82.3439 140.099 87.0161 135.426C91.6883 130.754 93.2662 125.341 94.8031 120.106C96.1752 115.489 97.4376 111.132 100.861 107.654C104.285 104.176 108.696 102.948 113.313 101.596C118.548 100.066 123.961 98.4744 128.634 93.809L128.716 93.7198L128.805 93.6375C133.47 88.9653 135.055 83.5522 136.592 78.3174C137.964 73.7001 139.227 69.3367 142.65 65.8651C146.074 62.3936 150.485 61.1861 155.089 59.8139C160.323 58.284 165.737 56.6991 170.409 52.0269C175.081 47.3547 176.666 41.9416 178.196 36.7068C179.568 32.0552 180.844 27.6575 184.336 24.1653C187.828 20.6732 192.226 19.3628 196.878 18.0249C202.112 16.495 207.526 14.9033 212.198 10.238C214.787 7.59679 216.776 4.42825 218.029 0.948486H215.066C213.961 3.6883 212.329 6.18474 210.263 8.29638C206.092 12.4677 201.015 13.9565 196.109 15.3904C191.204 16.8243 186.387 18.2376 182.388 22.2512C178.388 26.2647 177.023 30.9644 175.527 35.9727C174.031 40.9811 172.604 45.9552 168.433 50.1265C166.954 51.5981 165.266 52.8441 163.425 53.8245C163.291 53.8433 163.162 53.8826 163.04 53.9411C160.28 55.2433 157.404 56.286 154.451 57.0559C149.449 58.5172 144.729 59.8962 140.729 63.9166L140.681 63.9304L140.592 64.0127C136.613 67.9988 135.227 72.719 133.731 77.7342C132.304 82.6054 130.829 87.6412 126.726 91.7988C122.623 95.9565 117.526 97.3835 112.655 98.8174C107.653 100.279 102.933 101.665 98.9332 105.678L98.8509 105.76L98.8303 105.781C94.8442 109.767 93.4652 114.494 91.9695 119.503C91.201 122.453 90.1605 125.327 88.8616 128.085C88.8041 128.208 88.7626 128.337 88.7381 128.47C87.7605 130.311 86.5168 131.999 85.047 133.478C80.8688 137.656 75.7987 139.138 70.8933 140.579C65.9878 142.02 61.1716 143.426 57.1717 147.44C53.1719 151.453 51.7997 156.146 50.311 161.161C48.8771 166.06 47.3883 171.137 43.2169 175.308C39.0456 179.479 33.9686 180.968 29.0631 182.409C27.2519 182.937 25.475 183.459 23.7598 184.097C24.3498 184.858 24.9535 185.62 25.5642 186.368C26.9363 185.887 28.3771 185.469 29.8384 185.037C35.1418 183.472 40.5549 181.888 45.2202 177.215Z" fill="#FFC844"/>
<path d="M61.8993 193.888C66.5715 189.216 68.1563 183.803 69.6863 178.568C71.0585 173.916 72.3414 169.518 75.861 166.033C79.3806 162.548 83.7509 161.231 88.4025 159.893C93.6372 158.356 99.0504 156.771 103.723 152.099C108.395 147.427 109.98 142.014 111.51 136.779C112.882 132.168 114.144 127.805 117.568 124.327C120.991 120.848 125.403 119.627 130.02 118.269C135.262 116.739 140.675 115.154 145.34 110.482L145.422 110.392C145.454 110.367 145.484 110.339 145.512 110.31C150.184 105.645 151.769 100.232 153.299 94.9899C154.671 90.3726 155.933 86.016 159.363 82.5376C162.794 79.0592 167.198 77.838 171.809 76.4795C177.044 74.9496 182.457 73.3648 187.129 68.6926C191.801 64.0204 193.386 58.6072 194.923 53.3725C196.295 48.7209 197.571 44.3231 201.056 40.8378C204.542 37.3526 208.946 36.0353 213.598 34.6631C218.249 33.291 223.066 31.8777 227.361 28.2895V24.5298C227.23 24.6601 227.114 24.7973 226.976 24.9277C222.805 29.1059 217.735 30.5878 212.829 32.0286C207.924 33.4694 203.108 34.8758 199.108 38.8894C195.108 42.9029 193.736 47.5957 192.247 52.6109C190.758 57.6261 189.324 62.5865 185.146 66.7578C183.669 68.2312 181.981 69.4774 180.138 70.4558C180.005 70.4803 179.876 70.5218 179.754 70.5793C176.992 71.8774 174.117 72.9178 171.164 73.6872C166.169 75.1486 161.449 76.5344 157.442 80.548L157.36 80.6372C157.331 80.6629 157.303 80.6904 157.278 80.7195C153.292 84.6988 151.906 89.4258 150.417 94.4411C148.99 99.3122 147.508 104.341 143.405 108.499C139.303 112.656 134.212 114.09 129.334 115.517C124.339 116.979 119.612 118.365 115.612 122.378L115.53 122.467L115.448 122.55C111.462 126.536 110.076 131.256 108.587 136.271C107.821 139.224 106.783 142.1 105.486 144.861C105.422 144.978 105.38 145.106 105.362 145.238C104.384 147.083 103.138 148.773 101.664 150.253C97.493 154.425 92.4229 155.907 87.5106 157.347C82.5983 158.788 77.7889 160.195 73.789 164.208C69.7892 168.222 68.4239 172.915 66.9283 177.93C65.4326 182.945 64.0124 187.905 59.8342 192.084C55.656 196.262 50.5859 197.737 45.6805 199.178C43.6703 199.768 41.6944 200.351 39.8008 201.085C40.6035 201.771 41.4199 202.457 42.2432 203.143C43.6154 202.67 44.9875 202.258 46.4557 201.84C51.814 200.145 57.2271 198.56 61.8993 193.888Z" fill="#FFC844"/>
<path d="M21.6663 93.1916C26.908 91.6616 32.3211 90.0768 36.9864 85.4046C41.6517 80.7324 43.2571 75.3193 44.7802 70.1051C46.1524 65.4878 47.4079 61.1312 50.8383 57.6528C54.2687 54.1744 58.6733 52.9531 63.2906 51.581C68.5254 50.051 73.9385 48.4593 78.6107 43.794L78.6931 43.7048L78.7754 43.6225C83.4476 38.9503 85.0324 33.5372 86.5692 28.3024C87.9414 23.6851 89.2038 19.3216 92.6273 15.8501C96.0508 12.3785 100.462 11.1436 105.08 9.79202C110.314 8.25521 115.727 6.67037 120.4 2.00505C120.743 1.65515 121.086 1.31897 121.381 0.948486H117.498C116.256 2.03553 114.896 2.97913 113.443 3.76141C113.312 3.7813 113.185 3.82061 113.066 3.87804C110.306 5.18105 107.43 6.22161 104.476 6.98597C99.4743 8.45417 94.7541 9.83319 90.7543 13.8467L90.6719 13.9359L90.5828 14.0183C86.5966 18.0044 85.2176 22.7246 83.722 27.7398C82.2949 32.611 80.8199 37.6468 76.7103 41.8044C72.6007 45.962 67.5169 47.3891 62.6457 48.8161C57.6442 50.2843 52.924 51.6633 48.9242 55.6769L48.8418 55.7661L48.7526 55.8484C44.7665 59.8345 43.3875 64.5547 41.8919 69.5699C41.1233 72.5208 40.0828 75.394 38.7839 78.1528C38.7264 78.275 38.6849 78.4041 38.6604 78.537C37.6805 80.3772 36.437 82.0645 34.9693 83.5453C30.7911 87.7235 25.721 89.2055 20.8156 90.6394C15.9101 92.0733 11.0938 93.4866 7.09401 97.5001C3.09418 101.514 1.72203 106.213 0.233243 111.222C0.157774 111.482 0.0754685 111.75 0 112.018C0 112.903 0 113.788 0 114.68C0 116.456 0.0480204 118.227 0.123489 119.983C1.22977 117.388 2.14693 114.717 2.8678 111.99C4.23995 107.338 5.51606 102.941 9.04249 99.4486C12.5689 95.9565 17.0147 94.5569 21.6663 93.1916Z" fill="#FFC844"/>
<path d="M28.5502 160.545C33.2224 155.873 34.8072 150.46 36.3372 145.225C37.7093 140.567 38.9923 136.176 42.5119 132.684C46.0314 129.191 50.4018 127.881 55.0534 126.543C60.2881 125.006 65.7013 123.422 70.3735 118.756C75.0457 114.091 76.6305 108.671 78.1673 103.429C79.5395 98.8188 80.795 94.4553 84.2185 90.9838C87.642 87.5122 92.0535 86.2773 96.6777 84.9257C101.912 83.3889 107.326 81.8041 111.991 77.1319L112.08 77.0495L112.162 76.9672C116.835 72.295 118.419 66.8819 119.956 61.6402C121.328 57.0298 122.584 52.6664 126.014 49.1879C129.445 45.7095 133.849 44.4883 138.46 43.1367C143.701 41.5999 149.115 40.0151 153.78 35.3429C158.445 30.6707 160.037 25.2644 161.574 20.0228C162.946 15.3712 164.222 10.9803 167.748 7.48817C171.275 3.99604 175.631 2.68563 180.283 1.31348L181.655 0.908691L172.771 0.908691C170.144 1.96178 167.754 3.52666 165.738 5.51227C161.752 9.49838 160.366 14.2186 158.877 19.2338C157.389 24.249 155.955 29.2094 151.783 33.3876C150.302 34.8573 148.612 36.101 146.768 37.0787C146.638 37.1031 146.511 37.1446 146.391 37.2022C143.63 38.5012 140.754 39.5417 137.801 40.3101C132.8 41.7783 128.079 43.1573 124.08 47.1709L123.997 47.2601L123.908 47.3424C119.922 51.3285 118.536 56.0487 117.047 61.0639C115.62 65.9351 114.145 70.9709 110.036 75.1217C105.926 79.2724 100.842 80.7132 95.9642 82.1402C90.9695 83.6084 86.2493 84.9874 82.2426 89.001C82.2133 89.029 82.1858 89.0588 82.1603 89.0902L82.0711 89.1725C78.085 93.1586 76.6991 97.8788 75.2103 102.894C74.4386 105.844 73.3983 108.717 72.1024 111.477C72.0418 111.598 72.0002 111.727 71.9789 111.861C70.9986 113.703 69.7526 115.39 68.2809 116.869C64.1096 121.041 59.0395 122.53 54.134 123.964C49.2285 125.397 44.4123 126.811 40.4125 130.824C36.4126 134.838 35.0405 139.531 33.5517 144.546C32.0629 149.561 30.7868 154.425 26.6086 158.61C22.4304 162.795 17.3671 164.271 12.4548 165.704L12.2559 165.766C12.6744 166.596 13.1066 167.426 13.5457 168.243C18.6844 166.734 23.9741 165.121 28.5502 160.545Z" fill="#FFC844"/>
<path d="M28.1025 53.4065C29.4747 48.796 30.7371 44.4326 34.1606 40.961C37.5841 37.4895 41.9956 36.2545 46.6129 34.903C51.8546 33.3662 57.2677 31.7813 61.933 27.1091L62.0154 27.0268L62.1045 26.9445C66.7767 22.2723 68.3616 16.8591 69.8984 11.6175C70.1111 10.8834 70.3238 10.1562 70.5433 9.43579C69.3975 9.90918 68.2518 10.3963 67.1129 10.904V11.0206C65.6859 15.8918 64.2108 20.9207 60.1012 25.0783C55.9916 29.236 50.9077 30.6699 46.0366 32.0969C41.0351 33.5583 36.3149 34.9441 32.3151 38.9577C32.2858 38.9857 32.2583 39.0155 32.2327 39.0469L32.1435 39.1292C28.1574 43.1153 26.7715 47.8355 25.2828 52.8508C24.5111 55.8028 23.4708 58.6781 22.1749 61.4404C22.1143 61.5614 22.0727 61.691 22.0514 61.8246C21.071 63.6664 19.825 65.354 18.3534 66.833C15.2592 69.9272 11.671 71.5395 8.02794 72.7539C7.59343 73.8379 7.18175 74.9287 6.79297 76.0264C11.4514 74.6543 16.1648 72.9048 20.295 68.7746C24.9878 64.0613 26.5726 58.6481 28.1025 53.4065Z" fill="#FFC844"/>
<path d="M11.8768 143.866C16.549 139.193 18.1339 133.78 19.6638 128.546C21.036 123.894 22.3121 119.503 25.8042 116.011C29.2963 112.519 33.6941 111.208 38.3457 109.836C43.5805 108.299 48.9936 106.715 53.6658 102.042C58.338 97.3702 59.9228 91.957 61.4528 86.7223C62.8249 82.105 64.0873 77.7484 67.5108 74.27C70.9343 70.7915 75.3458 69.5703 79.9631 68.2119C85.1979 66.6819 90.6111 65.0971 95.2833 60.4249L95.3656 60.3357L95.4548 60.2534C100.12 55.5881 101.712 50.1749 103.242 44.9333C104.614 40.316 105.876 35.9594 109.307 32.481C112.737 29.0026 117.142 27.7745 121.752 26.4229C126.987 24.893 132.4 23.3081 137.072 18.6359C141.744 13.9638 143.329 8.55062 144.859 3.31585C145.099 2.50628 145.333 1.70356 145.545 0.907715H142.739C142.575 1.44972 142.417 1.99858 142.259 2.54744C140.818 7.45289 139.336 12.523 135.158 16.6943C133.679 18.166 131.992 19.412 130.15 20.3923C130.016 20.4136 129.887 20.4552 129.766 20.5158C127.004 21.8129 124.128 22.8532 121.176 23.6237C116.181 25.0851 111.454 26.471 107.454 30.4845L107.372 30.5668L107.29 30.656C103.303 34.6353 101.918 39.3623 100.429 44.3776C99.0018 49.2419 97.5198 54.2777 93.4171 58.4353C89.3144 62.5929 84.2168 64.0268 79.3457 65.4539C74.3442 66.9152 69.6239 68.3011 65.6241 72.3146L65.5418 72.397L65.4595 72.4861C61.4733 76.4654 60.0875 81.1925 58.5987 86.2077C57.8321 89.1613 56.7916 92.037 55.4908 94.7974C55.4323 94.9163 55.393 95.0436 55.3741 95.1747C54.3975 97.0188 53.1511 98.7069 51.6762 100.183C47.5048 104.361 42.4279 105.843 37.5224 107.284C32.617 108.725 27.8007 110.131 23.8009 114.145C19.801 118.158 18.4357 122.851 16.9401 127.866C15.4444 132.882 14.0242 137.842 9.84604 142.013C8.2349 143.606 6.38261 144.935 4.35742 145.951C4.61127 146.85 4.87883 147.742 5.16012 148.634C7.65439 147.439 9.92603 145.826 11.8768 143.866Z" fill="#FFC844"/>
</g>
</svg>
