<svg width="150" height="139" viewBox="0 0 150 139" fill="none" xmlns="http://www.w3.org/2000/svg">
<g opacity="0.1">
<path d="M109.479 16.5335C110.853 17.9017 112.437 19.0395 114.173 19.9033C114.723 20.1823 115.278 20.4358 115.839 20.664L115.991 20.7249C116.2 20.8085 116.405 20.8922 116.614 20.9683L117.071 21.1395L117.36 21.2422L117.984 21.4551L118.052 21.478C119.041 21.8051 120.03 22.0979 121.003 22.3832C124.582 23.4329 127.96 24.4218 130.668 27.1299C133.376 29.8379 134.365 33.2153 135.414 36.7944C135.703 37.7795 135.996 38.776 136.331 39.7763C136.403 40.0007 136.483 40.2251 136.559 40.4495C136.59 40.5294 136.62 40.6092 136.647 40.6891L136.829 41.1873C136.901 41.3775 136.977 41.5677 137.05 41.7503C137.08 41.8187 137.107 41.8872 137.133 41.9594C137.362 42.5147 137.615 43.0662 137.894 43.6139L137.894 43.6405C138.758 45.3759 139.896 46.9607 141.264 48.334C143.926 50.9964 146.938 52.3314 149.966 53.3241L149.966 51.719C147.277 50.7948 144.641 49.5549 142.336 47.2576C141.026 45.9339 139.946 44.4019 139.138 42.7239C139.125 42.6953 139.111 42.6674 139.096 42.6402C138.179 40.6128 137.432 38.5124 136.863 36.3608C135.76 32.5878 134.714 29.0278 131.733 26.0421C128.751 23.0602 125.191 22.0142 121.418 20.9112C119.267 20.3445 117.168 19.5976 115.143 18.6786L115.055 18.6368C113.376 17.8291 111.844 16.7467 110.521 15.4343C107.292 12.2052 106.151 8.31047 105.048 4.54127C104.592 2.98186 104.143 1.4643 103.569 0.00378012L101.918 0.00377998C102.572 1.61738 103.13 3.26845 103.588 4.94824C104.778 8.94184 105.976 13.0305 109.479 16.5335Z" fill="#766DFA"/>
<path d="M28.9704 1.58993C31.6784 4.30178 32.6673 7.67542 33.717 11.2621C34.858 15.2138 36.0713 19.2987 39.5741 22.8055C43.077 26.3123 47.1618 27.5065 51.121 28.6476C54.7 29.6973 58.0773 30.6862 60.7891 33.3942C63.5008 36.1023 64.4859 39.4797 65.5357 43.0664C66.6767 47.0181 67.8899 51.103 71.3928 54.606C72.7669 55.974 74.3515 57.113 76.0861 57.9796C76.6388 58.256 77.1941 58.5096 77.752 58.7403L77.9155 58.805L78.524 59.0408L78.9918 59.2119L79.2695 59.3146L79.9046 59.5314L79.9579 59.5504C80.9505 59.8775 81.9394 60.1704 82.9169 60.4557C86.4958 61.5054 89.8732 62.4943 92.5811 65.2023C95.2891 67.9104 96.278 71.2878 97.3277 74.8669C97.6129 75.852 97.9096 76.8523 98.2405 77.8526C98.3115 78.0757 98.3875 78.3001 98.4687 78.5258L98.5562 78.7654L98.7387 79.2674C98.811 79.4538 98.8832 79.6478 98.9593 79.8227C98.9859 79.895 99.0126 79.9635 99.043 80.0357C99.2712 80.591 99.5247 81.1425 99.8037 81.6902L99.8037 81.7169C100.667 83.4513 101.804 85.0359 103.17 86.4103C106.676 89.9132 110.776 91.1113 114.716 92.2676C118.295 93.3173 121.677 94.3062 124.385 97.0143C127.093 99.7223 128.081 103.1 129.131 106.683C130.272 110.638 131.485 114.723 134.988 118.23C138.491 121.737 142.625 122.973 146.577 124.114C147.748 124.456 148.897 124.795 150 125.186L150 123.577C149.019 123.247 148.018 122.954 146.999 122.653C143.23 121.55 139.332 120.409 136.103 117.18C132.874 113.951 131.733 110.052 130.63 106.283C129.527 102.514 128.481 98.9502 125.495 95.9683C122.51 92.9864 118.953 91.9405 115.18 90.8337C111.408 89.7269 107.513 88.5896 104.284 85.3605C102.973 84.0378 101.892 82.5055 101.085 80.8268C101.071 80.801 101.058 80.7743 101.047 80.747C100.127 78.7189 99.379 76.6171 98.811 74.4637C97.7042 70.6945 96.6621 67.1307 93.6803 64.1488C90.6985 61.1669 87.1347 60.1248 83.3656 59.018C81.2174 58.4525 79.1207 57.7069 77.0977 56.7891L76.9989 56.7397C75.3218 55.934 73.791 54.8542 72.4691 53.5448C69.2401 50.3157 68.0991 46.4172 66.9923 42.6442C65.8856 38.8712 64.8472 35.315 61.8616 32.3293C58.876 29.3436 55.3161 28.3053 51.547 27.1984C47.7779 26.0917 43.8795 24.9544 40.6505 21.7253C37.4214 18.4962 36.2804 14.5977 35.1775 10.8285C34.0745 7.05929 33.0286 3.49547 30.043 0.513577C29.8756 0.343694 29.7045 0.180135 29.5295 0.0229234L27.0688 0.0229232C27.7501 0.48486 28.3868 1.00948 28.9704 1.58993Z" fill="#766DFA"/>
<path d="M126.868 7.20764L126.891 7.20764C127.438 7.48529 127.998 7.74012 128.557 7.96832C128.602 7.99114 128.648 8.00637 128.697 8.02538C128.907 8.11286 129.12 8.19653 129.329 8.2764L129.777 8.43995L130.078 8.54645L130.69 8.75564L130.77 8.78226C131.759 9.11316 132.744 9.40223 133.718 9.68748C137.297 10.7372 140.674 11.7261 143.386 14.4342C146.098 17.1422 147.079 20.5196 148.129 24.1063C148.482 25.3082 148.844 26.5329 149.27 27.7576L149.353 27.9972C149.414 28.1645 149.475 28.3319 149.54 28.4992C149.604 28.6666 149.684 28.8796 149.76 29.0622L149.84 29.2675L149.992 29.6136L149.992 25.0495C149.855 24.5931 149.718 24.1367 149.585 23.6803C148.482 19.9073 147.436 16.3473 144.455 13.3616C141.469 10.3797 137.909 9.33376 134.136 8.23076C131.986 7.66571 129.888 6.91881 127.864 5.99815L127.769 5.95251C126.092 5.145 124.562 4.06399 123.24 2.75381C122.412 1.92537 121.679 1.00828 121.053 0.0191415L119.269 0.0191414C120.058 1.41123 121.032 2.69055 122.163 3.82257C123.539 5.19714 125.127 6.34025 126.868 7.20764Z" fill="#766DFA"/>
<path d="M63.8162 15.967C67.3951 17.0167 70.7725 18.0056 73.4842 20.7137C76.196 23.4217 77.1811 26.7991 78.2308 30.382C79.3718 34.3337 80.5851 38.4224 84.0879 41.9254C85.4621 43.2934 87.0467 44.4324 88.7813 45.2991C89.3327 45.5805 89.888 45.8315 90.4509 46.0597L90.5916 46.113C90.8008 46.2004 91.01 46.2841 91.223 46.364L91.6718 46.5276L91.9722 46.634L92.5846 46.847L92.6644 46.8737C93.6533 47.2008 94.6384 47.4898 95.612 47.7751C99.191 48.8248 102.568 49.8137 105.276 52.5218C107.984 55.2298 108.973 58.6073 110.023 62.1901C110.377 63.3958 110.738 64.6243 111.164 65.849C111.194 65.9251 111.221 66.0049 111.251 66.081L111.434 66.5868L111.651 67.1384L111.738 67.3552C111.966 67.9143 112.221 68.4658 112.499 69.0173C112.498 69.0236 112.498 69.03 112.499 69.0363C113.365 70.7709 114.504 72.3555 115.872 73.7297C119.375 77.2327 123.479 78.4307 127.415 79.587C130.994 80.6367 134.376 81.6256 137.084 84.3337C139.792 87.0417 140.78 90.4192 141.83 94.002C142.971 97.9576 144.184 102.042 147.687 105.549C148.393 106.246 149.157 106.882 149.969 107.451L149.969 105.549C149.55 105.21 149.149 104.849 148.767 104.469C145.538 101.24 144.397 97.3414 143.294 93.5722C142.191 89.803 141.145 86.2392 138.164 83.2535C135.182 80.2678 131.618 79.2295 127.845 78.1227C124.072 77.0159 120.182 75.8786 116.949 72.6495C115.639 71.3258 114.558 69.7938 113.75 68.1158C113.75 68.0892 113.723 68.0588 113.708 68.0283C112.787 66.0037 112.04 63.9042 111.476 61.7527C110.369 57.9835 109.327 54.4197 106.345 51.4378C103.363 48.4559 99.7995 47.4137 96.0304 46.3069C93.8801 45.7425 91.7819 44.9956 89.7587 44.0743L89.6636 44.0325C87.9875 43.2237 86.4568 42.1428 85.1338 40.8338C81.9048 37.6009 80.7638 33.7062 79.6608 29.937C78.5579 26.1678 77.512 22.604 74.5301 19.6183C71.5483 16.6326 67.9846 15.5942 64.2117 14.4874C60.4388 13.3806 56.5442 12.2434 53.3152 9.0143C50.6262 6.32146 49.3825 3.16462 48.4051 0.0077731L46.8153 0.00777296C47.8688 3.49552 49.1657 7.01369 52.2388 10.0869C55.7759 13.6126 59.8607 14.8107 63.8162 15.967Z" fill="#766DFA"/>
<path d="M86.1796 8.01769C88.8876 10.7257 89.8764 14.1032 90.9262 17.686C92.0672 21.6416 93.2804 25.7265 96.7833 29.2294C98.1575 30.5975 99.742 31.7365 101.477 32.6031L101.496 32.6031C102.046 32.882 102.602 33.1356 103.165 33.3638L103.306 33.417C103.515 33.5045 103.724 33.5882 103.937 33.668L104.39 33.8316L104.683 33.9381L105.31 34.1511L105.371 34.1739C106.36 34.501 107.353 34.7938 108.326 35.0791C111.905 36.1288 115.283 37.1177 117.991 39.822C120.699 42.5262 121.687 45.9075 122.737 49.4979C123.026 50.4792 123.319 51.4719 123.65 52.4722L123.878 53.1416C123.909 53.2215 123.939 53.3014 123.966 53.3812L124.148 53.8833C124.221 54.0696 124.297 54.2636 124.369 54.4462C124.399 54.5147 124.426 54.5831 124.453 54.6516C124.681 55.2069 124.932 55.7622 125.213 56.3061L125.213 56.3327C126.077 58.068 127.215 59.6529 128.583 61.0261C132.086 64.5291 136.171 65.7272 140.126 66.8834C143.705 67.9332 147.086 68.9221 149.794 71.6301C149.859 71.6948 149.916 71.7632 149.98 71.8279L149.98 69.7436C147.189 67.374 143.956 66.4194 140.552 65.4229C136.783 64.3199 132.888 63.1789 129.655 59.9497C128.346 58.6261 127.265 57.094 126.457 55.4161L126.419 55.3362C125.499 53.3081 124.751 51.2063 124.182 49.0529C123.076 45.2799 122.034 41.7199 119.052 38.7342C116.07 35.7523 112.51 34.7064 108.737 33.6034C106.59 33.0385 104.495 32.2929 102.473 31.3746L102.37 31.3251C100.694 30.5186 99.1631 29.4389 97.8406 28.1302C94.6116 24.8973 93.4706 21.0026 92.3676 17.2296C91.2647 13.4566 90.2188 9.90038 87.2369 6.91468C84.2551 3.92899 80.6914 2.89066 76.9185 1.78386C75.1227 1.29396 73.3574 0.698319 71.6319 4.65561e-05L68.2812 4.62632e-05C70.9207 1.6089 73.7389 2.43806 76.4925 3.24439C80.0905 4.30554 83.4716 5.30965 86.1796 8.01769Z" fill="#766DFA"/>
<path d="M63.006 118.926L62.9642 118.846C62.0429 116.819 61.296 114.717 60.7316 112.563C59.6248 108.794 58.5827 105.23 55.5971 102.248C52.6153 99.2621 49.0516 98.22 45.2787 97.1132C43.1286 96.5481 41.0305 95.8012 39.007 94.8806L38.9157 94.8387C37.2376 94.0331 35.7065 92.9519 34.3859 91.64C31.1569 88.4109 30.0159 84.5124 28.9091 80.7432C27.8404 77.0843 26.8211 73.627 24.0408 70.7021L24.0408 73.0717C25.779 75.4678 26.5967 78.2519 27.4638 81.173C28.6048 85.1247 29.8219 89.2096 33.3248 92.7164C34.7 94.0822 36.2844 95.2197 38.0181 96.0862L38.0409 96.0862C38.5924 96.3639 39.1477 96.6149 39.7068 96.8469L39.8779 96.9154L40.4751 97.1512L40.9505 97.3224L41.2205 97.4213L41.8595 97.6381L41.9089 97.6571C42.9015 97.9842 43.8942 98.277 44.8717 98.5661C48.4468 99.612 51.828 100.601 54.536 103.309C57.2439 106.017 58.2328 109.394 59.2825 112.981C59.5678 113.959 59.8606 114.951 60.1915 115.948L60.1915 115.974C60.2638 116.195 60.336 116.412 60.4159 116.629C60.4425 116.716 60.4767 116.8 60.5072 116.883C60.5642 117.047 60.6251 117.211 60.686 117.374C60.7468 117.538 60.8343 117.754 60.9103 117.945L60.9902 118.142C61.2184 118.698 61.4694 119.253 61.7509 119.801L61.7509 119.823C62.6182 121.556 63.7557 123.139 65.1206 124.513C65.6462 125.035 66.2038 125.524 66.7903 125.977L69.5059 125.977C68.2981 125.277 67.1859 124.423 66.197 123.437C64.8907 122.12 63.8124 120.596 63.006 118.926Z" fill="#766DFA"/>
<path d="M25.7258 54.0544C29.3047 55.1042 32.6859 56.0931 35.3939 58.8011C38.1019 61.5092 39.0945 64.8866 40.1404 68.4695C41.2814 72.425 42.4985 76.5099 46.0013 80.0167C47.3766 81.3824 48.961 82.52 50.6947 83.3865C51.2462 83.6642 51.8014 83.9152 52.3605 84.1472L52.5013 84.2005C52.7142 84.2879 52.9234 84.3716 53.1364 84.4515L53.5852 84.615L53.8819 84.7253L54.498 84.9345L54.5741 84.9611C55.5629 85.2882 56.5518 85.5811 57.5254 85.8664C61.1044 86.9123 64.4817 87.9012 67.1897 90.6092C69.8977 93.3173 70.8865 96.6947 71.9325 100.278C72.2215 101.259 72.5182 102.255 72.8491 103.256C72.9213 103.476 72.9974 103.697 73.0773 103.921C73.1039 104.001 73.1343 104.085 73.1647 104.168L73.3473 104.663C73.4195 104.853 73.4956 105.043 73.5717 105.23C73.5983 105.298 73.6211 105.363 73.6516 105.431C73.8798 105.987 74.1308 106.542 74.4122 107.09L74.4122 107.112C75.2787 108.846 76.4163 110.43 77.782 111.806C81.2887 115.309 85.3886 116.507 89.3289 117.663C92.9078 118.713 96.2852 119.705 98.997 122.414C100.026 123.456 100.884 124.655 101.538 125.966L103.234 125.966C102.467 124.245 101.395 122.677 100.069 121.337C97.0877 118.351 93.5278 117.309 89.7549 116.203C85.982 115.096 82.0873 113.959 78.8583 110.729C77.5605 109.417 76.4888 107.899 75.6863 106.238L75.6445 106.154C74.7238 104.128 73.977 102.027 73.412 99.8744C72.3052 96.1052 71.2631 92.5414 68.2775 89.5595C65.2957 86.5776 61.7319 85.5355 57.9628 84.4286C55.8121 83.8632 53.7129 83.1177 51.6873 82.1998L51.5961 82.1542C49.9188 81.3473 48.3878 80.2662 47.0663 78.9555C43.8373 75.7264 42.6962 71.8279 41.5895 68.0587C40.4827 64.2895 39.4444 60.7257 36.4588 57.7438C33.4732 54.7619 29.9133 53.7159 26.1442 52.6091C25.4405 52.4038 24.7331 52.1984 24.0257 51.974L24.0257 53.5676L25.7258 54.0544Z" fill="#766DFA"/>
<path d="M42.9022 114.943C39.9165 111.958 36.3566 110.916 32.5837 109.809C30.4342 109.243 28.3363 108.498 26.312 107.58L26.2207 107.534C25.4661 107.164 24.7379 106.742 24.0414 106.272L24.0414 108.082C24.4598 108.333 24.882 108.565 25.3079 108.782L25.3307 108.782C25.8822 109.059 26.4375 109.31 26.9966 109.542L27.1525 109.603L27.7687 109.847L28.2289 110.014L28.5141 110.117L29.1417 110.334L29.2064 110.353C30.1952 110.684 31.1841 110.976 32.1616 111.262C35.7367 112.308 39.1178 113.296 41.8258 116.005C44.5338 118.713 45.5226 122.09 46.5723 125.677L46.6636 125.989L48.2534 125.989C48.1812 125.741 48.1051 125.494 48.0328 125.247C46.9299 121.489 45.8878 117.925 42.9022 114.943Z" fill="#766DFA"/>
<path d="M24.037 125.471C24.4439 125.635 24.8433 125.81 25.235 126L28.2549 126C26.9466 125.101 25.5292 124.373 24.037 123.832L24.037 125.471Z" fill="#766DFA"/>
<path d="M26.8792 35.4937C30.3859 38.9966 34.4859 40.1947 38.4261 41.351C42.0012 42.4007 45.3824 43.3896 48.0941 46.0976C50.8059 48.8057 51.791 52.1831 52.8407 55.7659C53.9817 59.7215 55.195 63.8064 58.6978 67.3132C60.0731 68.6789 61.6575 69.8165 63.3912 70.683C63.9427 70.9645 64.498 71.2155 65.0608 71.4437L65.194 71.4969C65.4069 71.5857 65.6199 71.6694 65.8329 71.748L66.2817 71.9115L66.5822 72.018C66.7876 72.0941 66.9929 72.1626 67.1983 72.231L67.2706 72.2538C68.2594 72.5847 69.2483 72.8738 70.2219 73.1628C73.8009 74.2088 77.1782 75.1977 79.8862 77.9057C82.5942 80.6138 83.583 83.9912 84.6328 87.5779C84.9865 88.7836 85.3478 90.0082 85.7738 91.233L85.8536 91.4612C85.9145 91.6323 85.9753 91.8035 86.04 91.9746C86.1046 92.1458 86.1845 92.355 86.2606 92.5299C86.2872 92.5984 86.3138 92.6707 86.3443 92.7391C86.5725 93.297 86.826 93.851 87.1049 94.4012C87.9714 96.135 89.109 97.7193 90.4747 99.0946C93.9814 102.598 98.0813 103.796 102.022 104.952C105.601 106.002 108.982 106.991 111.69 109.699C114.398 112.407 115.386 115.784 116.436 119.371C117.03 121.627 117.816 123.829 118.787 125.951L120.502 125.951C119.289 123.691 118.6 121.291 117.897 118.941C116.79 115.172 115.748 111.608 112.762 108.626C109.777 105.644 106.22 104.598 102.448 103.491C98.6747 102.385 94.78 101.247 91.551 98.0183C90.2411 96.6946 89.1602 95.1625 88.3524 93.4846L88.3106 93.4009C87.3899 91.3748 86.643 89.2741 86.078 87.1214C84.9712 83.3522 83.9291 79.7884 80.9473 76.8065C77.9655 73.8246 74.4018 72.7825 70.6327 71.6757C68.4845 71.1103 66.3878 70.3647 64.3648 69.4469L64.2659 69.4013C62.5886 68.5944 61.0577 67.5133 59.7362 66.2026C56.5072 62.9735 55.3661 59.0749 54.2594 55.3057C53.1526 51.5365 52.1143 47.9727 49.1287 44.987C46.1431 42.0013 42.5832 40.963 38.8141 39.8562C35.045 38.7494 31.1465 37.6122 27.9175 34.3831C26.1981 32.6235 24.8639 30.5251 24.0001 28.2215L24.0001 31.7359C24.7868 33.112 25.7553 34.3759 26.8792 35.4937Z" fill="#766DFA"/>
</g>
<path d="M85.1066 100.439H95.9966V90H48L48 138.001H57.9727V127.572C57.9742 120.377 60.8333 113.476 65.9216 108.388C71.0099 103.3 77.9107 100.441 85.1066 100.439Z" fill="#4CE467"/>
<path d="M75.6147 119.194V138.002H96V118.084H76.7305C76.5843 118.083 76.4393 118.111 76.3039 118.166C76.1686 118.222 76.0455 118.304 75.9418 118.407C75.8382 118.51 75.7559 118.633 75.6997 118.768C75.6436 118.903 75.6147 119.048 75.6147 119.194Z" fill="#4CE467"/>
<path d="M75.6181 119.193C75.6181 118.898 75.7351 118.616 75.9433 118.408C76.1516 118.2 76.434 118.083 76.7285 118.083H95.998V100.439H85.108C77.9121 100.44 71.0113 103.3 65.923 108.388C60.8347 113.476 57.9755 120.376 57.9741 127.572L57.9741 138.001H75.6181V119.193Z" fill="#766DFA"/>
<path d="M5.48926 89.9781H20.2427V85.6164C20.2421 82.5396 20.8478 79.4929 22.0254 76.6502C23.203 73.8075 24.9292 71.2244 27.1056 69.0486C29.2819 66.8728 31.8659 65.1468 34.7097 63.9692C37.5535 62.7917 40.6015 62.1856 43.6796 62.1856H47.9996V44.9003C37.0997 47.0612 27.1459 52.5677 19.5257 60.652C11.9055 68.7363 6.99879 78.9956 5.48926 89.9999V89.9781Z" fill="#FFC844"/>
<path d="M35.4805 78.3588V89.9782H47.9997V77.3992H36.4405C36.1859 77.3992 35.9418 77.5003 35.7617 77.6803C35.5817 77.8602 35.4805 78.1043 35.4805 78.3588Z" fill="#FFC844"/>
<path d="M17.6597 42H0V61.139C4.61999 53.6985 10.613 47.2035 17.6597 42Z" fill="#FFC844"/>
<path d="M17.6597 42C10.613 47.2035 4.61999 53.6985 0 61.139V89.9783H5.48946C6.999 78.974 11.9057 68.7146 19.5259 60.6303C27.1461 52.546 37.0999 47.0397 47.9998 44.8787V42H17.6597Z" fill="#766DFA"/>
<path d="M20.2431 85.595V89.9567H35.4808V78.3372C35.4808 78.0827 35.582 77.8387 35.762 77.6587C35.9421 77.4788 36.1862 77.3777 36.4409 77.3777H48V62.1423H43.6626C40.5844 62.1423 37.5364 62.7484 34.6926 63.926C31.8488 65.1035 29.2649 66.8295 27.0885 69.0053C24.9121 71.1812 23.1859 73.7642 22.0083 76.607C20.8308 79.4497 20.225 82.4964 20.2256 85.5732L20.2431 85.595Z" fill="#F5333F"/>
</svg>
