<svg width="497" height="496" viewBox="0 0 497 496" fill="none" xmlns="http://www.w3.org/2000/svg">
<g opacity="0.1">
<path d="M336.501 65.0854C341.907 70.4711 348.146 74.9504 354.977 78.3508C357.143 79.4487 359.329 80.4469 361.535 81.3452L362.134 81.5847C362.957 81.9141 363.766 82.2435 364.589 82.543L366.386 83.2167L367.524 83.621L369.979 84.4595L370.249 84.5493C374.142 85.8369 378.034 86.9898 381.867 88.1127C395.956 92.245 409.251 96.1378 419.912 106.798C430.572 117.458 434.465 130.754 438.597 144.842C439.735 148.72 440.888 152.643 442.205 156.581C442.49 157.464 442.804 158.347 443.104 159.231C443.223 159.545 443.343 159.86 443.448 160.174L444.167 162.135C444.451 162.884 444.751 163.633 445.035 164.351C445.155 164.621 445.26 164.89 445.365 165.175C446.263 167.361 447.261 169.532 448.359 171.688L448.359 171.792C451.759 178.624 456.239 184.862 461.624 190.268C472.105 200.749 483.963 206.004 495.881 209.912L495.881 203.594C485.295 199.955 474.92 195.074 465.846 186.031C460.69 180.82 456.435 174.789 453.255 168.184C453.206 168.072 453.151 167.962 453.09 167.855C449.479 159.874 446.539 151.605 444.301 143.136C439.959 128.283 435.842 114.269 424.104 102.516C412.366 90.7777 398.352 86.6603 383.499 82.3183C375.032 80.0873 366.768 77.1474 358.795 73.5297L358.451 73.365C351.841 70.1855 345.809 65.9247 340.604 60.7584C327.892 48.0469 323.4 32.7153 319.059 17.8778C317.262 11.7392 315.495 5.7653 313.235 0.01596L306.736 0.0159594C309.311 6.36792 311.506 12.8674 313.309 19.4799C317.996 35.2007 322.712 51.2959 336.501 65.0854Z" fill="#766DFA"/>
<path d="M19.5709 6.25927C30.2312 16.9345 34.1239 30.2149 38.2563 44.3337C42.7479 59.8898 47.5241 75.9701 61.3135 89.7745C75.103 103.579 91.1832 108.28 106.769 112.772C120.858 116.904 134.153 120.797 144.829 131.457C155.504 142.117 159.382 155.413 163.514 169.532C168.006 185.088 172.782 201.168 186.571 214.957C191.981 220.343 198.219 224.826 205.047 228.238C207.223 229.326 209.409 230.324 211.605 231.232L212.249 231.487L214.644 232.415L216.486 233.089L217.579 233.493L220.079 234.346L220.289 234.421C224.196 235.709 228.089 236.862 231.937 237.985C246.026 242.117 259.321 246.01 269.982 256.67C280.642 267.33 284.535 280.626 288.667 294.715C289.79 298.592 290.958 302.53 292.26 306.468C292.54 307.346 292.839 308.23 293.159 309.118L293.503 310.061L294.222 312.037C294.506 312.771 294.791 313.535 295.09 314.223C295.195 314.508 295.3 314.777 295.42 315.062C296.318 317.248 297.316 319.419 298.414 321.575L298.414 321.68C301.814 328.507 306.288 334.745 311.664 340.155C325.469 353.945 341.609 358.661 357.12 363.213C371.209 367.345 384.519 371.238 395.18 381.898C405.84 392.558 409.733 405.854 413.865 419.957C418.357 435.528 423.133 451.609 436.922 465.413C450.712 479.218 466.986 484.084 482.543 488.575C487.154 489.923 491.676 491.255 496.018 492.797L496.018 486.464C492.155 485.162 488.217 484.009 484.204 482.826C469.367 478.484 454.02 473.992 441.309 461.281C428.598 448.569 424.106 433.223 419.764 418.385C415.422 403.548 411.305 389.519 399.551 377.781C387.798 366.042 373.799 361.925 358.947 357.568C344.094 353.211 328.763 348.734 316.051 336.023C310.89 330.816 306.635 324.784 303.46 318.176C303.404 318.074 303.354 317.969 303.31 317.862C299.687 309.878 296.742 301.604 294.506 293.128C290.149 278.29 286.047 264.261 274.309 252.523C262.57 240.785 248.541 236.682 233.704 232.325C225.247 230.099 216.993 227.164 209.03 223.551L208.64 223.357C202.038 220.185 196.012 215.935 190.808 210.78C178.097 198.069 173.605 182.722 169.248 167.87C164.891 153.017 160.804 139.018 149.051 127.265C137.298 115.512 123.284 111.424 108.446 107.067C93.6086 102.711 78.2621 98.2338 65.5506 85.5223C52.8392 72.8109 48.3475 57.4644 44.0056 42.6269C39.6636 27.7894 35.5462 13.7604 23.793 2.02221C23.1343 1.35344 22.4605 0.709553 21.7718 0.0907178L12.0848 0.090717C14.7669 1.90914 17.2732 3.97432 19.5709 6.25927Z" fill="#766DFA"/>
<path d="M404.953 28.3723L405.043 28.3723C407.199 29.4652 409.4 30.4684 411.601 31.3667C411.781 31.4565 411.96 31.5165 412.155 31.5913C412.978 31.9357 413.817 32.265 414.64 32.5795L416.407 33.2233L417.59 33.6425L420 34.466L420.315 34.5708C424.207 35.8734 428.085 37.0113 431.918 38.1342C446.007 42.2665 459.302 46.1593 469.978 56.8195C480.653 67.4798 484.516 80.7751 488.648 94.8939C490.04 99.6252 491.463 104.446 493.14 109.267L493.469 110.211C493.709 110.869 493.948 111.528 494.203 112.187C494.457 112.846 494.772 113.684 495.071 114.403L495.385 115.211L495.984 116.574L495.984 98.607C495.445 96.8104 494.906 95.0137 494.382 93.2171C490.04 78.3646 485.923 64.3506 474.185 52.5974C462.432 40.8591 448.418 36.7418 433.565 32.3998C425.101 30.1755 416.842 27.2353 408.876 23.6111L408.501 23.4314C401.9 20.2527 395.874 15.9973 390.67 10.8397C387.413 7.57858 384.526 3.96844 382.061 0.0746818L375.039 0.0746812C378.147 5.55465 381.979 10.5907 386.432 15.0469C391.847 20.4579 398.102 24.9578 404.953 28.3723Z" fill="#766DFA"/>
<path d="M156.737 62.8533C170.826 66.9856 184.122 70.8785 194.797 81.5387C205.472 92.1989 209.35 105.494 213.482 119.598C217.974 135.154 222.75 151.249 236.539 165.039C241.949 170.424 248.187 174.908 255.015 178.319C257.186 179.427 259.372 180.415 261.588 181.314L262.142 181.523C262.965 181.868 263.789 182.197 264.627 182.512L266.394 183.155L267.577 183.574L269.987 184.413L270.302 184.518C274.195 185.805 278.072 186.943 281.905 188.066C295.994 192.198 309.29 196.091 319.95 206.752C330.61 217.412 334.503 230.707 338.635 244.811C340.028 249.557 341.45 254.393 343.127 259.214C343.247 259.514 343.351 259.828 343.471 260.128L344.19 262.119L345.043 264.29L345.388 265.143C346.286 267.344 347.289 269.515 348.382 271.686C348.378 271.711 348.378 271.736 348.382 271.761C351.794 278.589 356.277 284.827 361.662 290.237C375.452 304.026 391.607 308.742 407.103 313.294C421.192 317.426 434.502 321.319 445.163 331.979C455.823 342.64 459.716 355.935 463.848 370.039C468.34 385.61 473.116 401.69 486.905 415.495C489.685 418.237 492.69 420.741 495.889 422.981L495.889 415.495C494.24 414.159 492.661 412.74 491.157 411.242C478.446 398.531 473.954 383.185 469.612 368.347C465.27 353.51 461.153 339.481 449.415 327.727C437.677 315.974 423.648 311.887 408.795 307.53C393.943 303.173 378.626 298.696 365.9 285.985C360.743 280.774 356.488 274.743 353.308 268.138C353.308 268.033 353.203 267.913 353.143 267.793C349.517 259.823 346.576 251.559 344.354 243.089C339.998 228.252 335.895 214.223 324.157 202.484C312.419 190.746 298.39 186.644 283.552 182.287C275.087 180.065 266.828 177.125 258.863 173.498L258.489 173.334C251.89 170.149 245.865 165.895 240.657 160.742C227.945 148.015 223.454 132.684 219.112 117.846C214.77 103.009 210.652 88.9799 198.914 77.2267C187.176 65.4735 173.147 61.386 158.294 57.0291C143.442 52.6722 128.11 48.1955 115.399 35.4841C104.814 24.8837 99.9177 12.4568 96.0698 0.0297807L89.8113 0.0297802C93.9587 13.7593 99.0642 27.6087 111.162 39.7062C125.086 53.5855 141.166 58.3017 156.737 62.8533Z" fill="#766DFA"/>
<path d="M244.778 31.5616C255.438 42.2218 259.331 55.5171 263.463 69.621C267.955 85.1921 272.731 101.272 286.521 115.062C291.93 120.447 298.168 124.931 304.997 128.342L305.071 128.342C307.237 129.44 309.428 130.438 311.644 131.337L312.198 131.546C313.022 131.891 313.845 132.22 314.684 132.534L316.465 133.178L317.618 133.597L320.089 134.436L320.328 134.526C324.221 135.813 328.129 136.966 331.961 138.089C346.05 142.221 359.346 146.114 370.006 156.759C380.666 167.405 384.559 180.715 388.691 194.849C389.829 198.712 390.982 202.619 392.285 206.557L393.183 209.192C393.303 209.507 393.423 209.821 393.527 210.136L394.246 212.112C394.531 212.845 394.83 213.609 395.114 214.328C395.234 214.597 395.339 214.867 395.444 215.136C396.342 217.322 397.33 219.508 398.438 221.649L398.438 221.754C401.839 228.585 406.318 234.824 411.704 240.23C425.493 254.019 441.573 258.735 457.145 263.287C471.233 267.419 484.544 271.312 495.204 281.972C495.458 282.227 495.683 282.496 495.938 282.751L495.938 274.546C484.948 265.218 472.222 261.46 458.821 257.538C443.984 253.196 428.652 248.704 415.926 235.993C410.769 230.782 406.514 224.751 403.334 218.146L403.185 217.831C399.562 209.848 396.617 201.574 394.381 193.097C390.024 178.245 385.922 164.231 374.183 152.477C362.445 140.739 348.431 136.622 333.579 132.28C325.126 130.056 316.877 127.121 308.919 123.506L308.515 123.311C301.915 120.137 295.889 115.886 290.683 110.735C277.972 98.0084 273.48 82.6768 269.138 67.8243C264.796 52.9718 260.679 38.9728 248.94 27.2196C237.202 15.4664 223.173 11.379 208.321 7.02204C201.251 5.09357 194.302 2.74881 187.509 6.45891e-05L174.319 6.34359e-05C184.71 6.33332 195.804 9.59732 206.644 12.7714C220.808 16.9487 234.118 20.9013 244.778 31.5616Z" fill="#766DFA"/>
<path d="M153.553 468.152L153.388 467.837C149.762 459.857 146.821 451.582 144.6 443.103C140.243 428.266 136.14 414.237 124.387 402.498C112.649 390.745 98.62 386.643 83.7675 382.286C75.3035 380.061 67.044 377.121 59.0783 373.497L58.7188 373.332C52.1131 370.161 46.0858 365.905 40.887 360.741C28.1756 348.029 23.6839 332.683 19.327 317.845C15.1198 303.442 11.1071 289.832 0.162418 278.319L0.162417 287.646C7.00473 297.079 10.2238 308.038 13.6374 319.537C18.1291 335.093 22.9203 351.173 36.7097 364.978C42.1236 370.354 48.3605 374.832 55.1854 378.243L55.2753 378.243C57.4463 379.336 59.6322 380.324 61.8332 381.238L62.5068 381.507L64.8576 382.435L66.7291 383.109L67.7921 383.499L70.3075 384.352L70.502 384.427C74.4097 385.714 78.3175 386.867 82.1654 388.005C96.2393 392.123 109.55 396.015 120.21 406.676C130.87 417.336 134.763 430.631 138.895 444.75C140.018 448.598 141.171 452.506 142.474 456.428L142.474 456.533C142.758 457.402 143.043 458.255 143.357 459.108C143.462 459.453 143.596 459.782 143.716 460.112C143.941 460.755 144.181 461.399 144.42 462.043C144.66 462.687 145.004 463.54 145.303 464.289L145.618 465.067C146.516 467.253 147.504 469.439 148.612 471.595L148.612 471.685C152.027 478.503 156.504 484.735 161.878 490.146C163.947 492.202 166.142 494.127 168.45 495.91L179.141 495.91C174.386 493.151 170.008 489.79 166.115 485.909C160.973 480.727 156.728 474.726 153.553 468.152Z" fill="#766DFA"/>
<path d="M6.78881 212.788C20.8777 216.92 34.1881 220.813 44.8483 231.473C55.5086 242.134 59.4163 255.429 63.5337 269.533C68.0253 285.104 72.8163 301.184 86.6057 314.988C92.0196 320.365 98.2567 324.843 105.082 328.254C107.253 329.347 109.439 330.335 111.639 331.248L112.193 331.458C113.032 331.802 113.855 332.132 114.694 332.446L116.46 333.09L117.628 333.524L120.054 334.348L120.353 334.452C124.246 335.74 128.139 336.893 131.972 338.016C146.061 342.133 159.356 346.026 170.016 356.686C180.676 367.346 184.569 380.642 188.687 394.746C189.824 398.608 190.992 402.531 192.295 406.469C192.579 407.337 192.879 408.206 193.193 409.089C193.298 409.403 193.418 409.733 193.538 410.062L194.256 412.009C194.541 412.757 194.84 413.506 195.14 414.239C195.244 414.509 195.334 414.764 195.454 415.033C196.352 417.219 197.341 419.405 198.449 421.561L198.449 421.651C201.86 428.476 206.338 434.713 211.714 440.127C225.518 453.916 241.658 458.632 257.17 463.184C271.258 467.316 284.554 471.224 295.229 481.884C299.28 485.988 302.656 490.708 305.23 495.868L311.908 495.868C308.889 489.093 304.669 482.919 299.451 477.647C287.713 465.894 273.699 461.791 258.846 457.434C243.994 453.078 228.662 448.601 215.951 435.889C210.842 430.724 206.623 424.749 203.464 418.207L203.299 417.878C199.675 409.902 196.735 401.632 194.511 393.159C190.154 378.321 186.051 364.292 174.298 352.554C162.56 340.816 148.531 336.713 133.694 332.356C125.227 330.13 116.963 327.195 108.989 323.583L108.63 323.403C102.027 320.227 96.0004 315.971 90.7981 310.811C78.0866 298.1 73.5949 282.753 69.238 267.916C64.8811 253.078 60.7937 239.049 49.0405 227.311C37.2872 215.573 23.2732 211.455 8.43572 207.098C5.66586 206.29 2.8811 205.482 0.0962779 204.598L0.0962774 210.872L6.78881 212.788Z" fill="#766DFA"/>
<path d="M74.4087 452.477C62.6555 440.724 48.6415 436.622 33.789 432.265C25.3274 430.039 17.0684 427.104 9.09982 423.491L8.74032 423.311C5.7696 421.854 2.90311 420.193 0.161254 418.34L0.161253 425.467C1.8082 426.455 3.47024 427.369 5.14713 428.222L5.23687 428.222C7.40784 429.315 9.5938 430.303 11.7947 431.217L12.4086 431.456L14.8341 432.414L16.6457 433.073L17.7686 433.477L20.2391 434.331L20.4937 434.406C24.3865 435.708 28.2793 436.861 32.1271 437.984C46.2011 442.101 59.5112 445.994 70.1715 456.654C80.8317 467.315 84.7245 480.61 88.8568 494.729L89.2161 495.957L95.4746 495.957C95.1901 494.983 94.8908 494.01 94.6063 493.037C90.2643 478.244 86.162 464.215 74.4087 452.477Z" fill="#766DFA"/>
<path d="M0.143698 493.919C1.74573 494.563 3.31785 495.252 4.85999 496L16.748 496C11.598 492.462 6.01824 489.595 0.143698 487.466L0.143698 493.919Z" fill="#766DFA"/>
<path d="M11.334 139.721C25.1384 153.51 41.2784 158.227 56.7897 162.778C70.8636 166.911 84.1738 170.803 94.849 181.464C105.524 192.124 109.402 205.419 113.535 219.523C118.026 235.094 122.802 251.174 136.592 264.979C142.006 270.355 148.243 274.833 155.068 278.244C157.239 279.352 159.424 280.34 161.64 281.239L162.164 281.448C163.003 281.798 163.841 282.127 164.68 282.436L166.446 283.08L167.629 283.5C168.438 283.799 169.246 284.068 170.055 284.338L170.339 284.428C174.232 285.73 178.125 286.868 181.958 288.006C196.047 292.123 209.342 296.016 220.002 306.677C230.662 317.337 234.555 330.632 238.687 344.751C240.08 349.497 241.502 354.318 243.179 359.139L243.494 360.038C243.733 360.711 243.973 361.385 244.227 362.059C244.482 362.733 244.796 363.556 245.096 364.245C245.2 364.514 245.305 364.799 245.425 365.068C246.323 367.264 247.321 369.445 248.419 371.611C251.831 378.436 256.309 384.673 261.685 390.087C275.489 403.876 291.629 408.593 307.141 413.144C321.229 417.276 334.54 421.169 345.2 431.829C355.86 442.49 359.753 455.785 363.885 469.904C366.223 478.787 369.319 487.452 373.138 495.806L379.891 495.806C375.114 486.912 372.405 477.465 369.635 468.212C365.278 453.375 361.175 439.346 349.422 427.607C337.669 415.869 323.67 411.752 308.817 407.395C293.965 403.038 278.633 398.561 265.922 385.85C260.765 380.639 256.51 374.608 253.33 368.003L253.166 367.673C249.541 359.698 246.601 351.428 244.377 342.954C240.02 328.117 235.918 314.088 224.179 302.35C212.441 290.611 198.412 286.509 183.575 282.152C175.118 279.926 166.864 276.991 158.9 273.378L158.511 273.199C151.908 270.022 145.882 265.767 140.679 260.607C127.968 247.895 123.476 232.549 119.119 217.711C114.762 202.874 110.675 188.845 98.9216 177.092C87.1684 165.339 73.1544 161.251 58.3169 156.894C43.4794 152.537 28.1328 148.061 15.4214 135.349C8.65256 128.423 3.40048 120.162 -8.84377e-05 111.094L-8.96472e-05 124.928C3.09717 130.345 6.90949 135.321 11.334 139.721Z" fill="#766DFA"/>
</g>
</svg>
