<svg width="206" height="208" viewBox="0 0 206 208" fill="none" xmlns="http://www.w3.org/2000/svg">
<path d="M46.5612 78.9005C48.1255 76.0404 49.7436 73.0796 49.7436 69.152C49.7402 67.6183 49.4909 66.0951 49.0051 64.6404C48.8506 64.1771 48.6828 63.7206 48.4948 63.2976L48.4546 63.2103L48.233 62.6935C48.1792 62.586 48.1323 62.4719 48.0785 62.3578C48.0248 62.2436 48.0047 62.2033 47.9644 62.1227L47.7429 61.6662V61.6057C47.3736 60.8672 46.9842 60.1489 46.6015 59.4506C45.1849 56.8591 43.8421 54.4086 43.8421 51.3941C43.8421 48.3796 45.1849 45.9089 46.6015 43.3375C46.9909 42.6662 47.3803 41.9075 47.7563 41.1623L47.998 40.6655C48.0316 40.605 48.0584 40.5379 48.092 40.4775C48.1256 40.417 48.2061 40.2223 48.2666 40.0947C48.327 39.9672 48.3941 39.8061 48.4546 39.6584L48.5217 39.4973C48.7097 39.0542 48.8775 38.6043 49.0319 38.1545C49.5178 36.6998 49.7671 35.1766 49.7704 33.6429C49.7704 29.7153 48.1524 26.7545 46.5881 23.8944C45.1715 21.3029 43.8287 18.8524 43.8287 15.8379C43.8287 12.8234 45.1715 10.3594 46.5881 7.78132C47.8772 5.42478 49.1998 2.99435 49.6295 0.0201416H48.4142C47.9846 2.70566 46.7425 4.99503 45.534 7.20387C44.0435 9.93638 42.6337 12.5146 42.6337 15.8513C42.6337 19.1881 44.0435 21.7728 45.534 24.5053C47.0245 27.2378 48.5754 30.0576 48.5754 33.6763C48.5686 35.1538 48.3144 36.62 47.8234 38.0135V38.0537C47.2013 39.7129 46.4399 41.3166 45.5474 42.8474C44.057 45.5732 42.6471 48.1513 42.6471 51.4947C42.6471 54.8516 44.057 57.4164 45.5474 60.1489C46.4402 61.6716 47.1995 63.2686 47.8167 64.9223V64.9828C48.3077 66.3741 48.5619 67.8378 48.5686 69.3132C48.5686 72.9319 47.0245 75.7516 45.5273 78.4841C44.0301 81.2167 42.627 83.7948 42.627 87.1383C42.6266 87.725 42.6715 88.3107 42.7612 88.8905H43.9832C43.8834 88.3117 43.8317 87.7257 43.8287 87.1383C43.8019 83.9425 45.1446 81.492 46.5612 78.9005Z" fill="#FFC844"/>
<path d="M60.7812 78.9005C62.3455 76.0404 63.9636 73.0796 63.9636 69.152C63.9602 67.6183 63.7109 66.0951 63.2251 64.6404C63.0706 64.1771 62.9028 63.7273 62.7148 63.2976C62.702 63.2628 62.6862 63.2292 62.6678 63.197C62.6006 63.0291 62.5268 62.8613 62.453 62.7002C62.3791 62.539 62.3523 62.4719 62.2986 62.3578L62.1844 62.1227L61.9629 61.6662L61.9293 61.6057C61.56 60.8672 61.1706 60.1489 60.788 59.4506C59.3713 56.8591 58.0352 54.4086 58.0352 51.3941C58.0352 48.3796 59.3781 45.9089 60.788 43.3375C61.2646 42.4647 61.7547 41.5785 62.1978 40.652L62.2784 40.4775L62.4597 40.088C62.5201 39.947 62.5805 39.8061 62.6476 39.6651C62.6681 39.6053 62.6928 39.5469 62.7215 39.4906C62.9028 39.0474 63.0706 38.5976 63.2251 38.1478C63.7109 36.6931 63.9602 35.1698 63.9636 33.6361C63.9636 29.7086 62.3455 26.7478 60.7812 23.8877C59.3646 21.2962 58.0285 18.8456 58.0285 15.8312C58.0285 12.8167 59.3713 10.3527 60.7812 7.77461C62.0703 5.41807 63.3928 2.99435 63.8225 0.0134277H62.6006C62.171 2.69894 60.9289 4.98831 59.7204 7.19715C58.2299 9.92966 56.8201 12.5078 56.8201 15.8446C56.8201 19.1814 58.2299 21.7661 59.7271 24.4986C61.2243 27.2311 62.7618 30.0508 62.7618 33.6696C62.755 35.1471 62.5009 36.6132 62.0098 38.0068V38.0537C61.3872 39.7094 60.6281 41.3106 59.7406 42.8407C58.2434 45.5665 56.8335 48.1445 56.8335 51.488C56.8335 54.8449 58.2434 57.4097 59.7406 60.1422C60.6311 61.665 61.3881 63.2621 62.0031 64.9156C62.0006 64.9357 62.0006 64.956 62.0031 64.9761C62.4887 66.3686 62.7405 67.8317 62.7483 69.3064C62.7483 72.9252 61.2041 75.7451 59.7137 78.4776C58.2232 81.2101 56.8066 83.7881 56.8066 87.1316C56.8063 87.7183 56.8512 88.3042 56.9409 88.884H58.1628C58.0653 88.3049 58.016 87.7188 58.0152 87.1316C58.0286 83.9425 59.3646 81.492 60.7812 78.9005Z" fill="#FFC844"/>
<path d="M32.3415 78.9005C33.9058 76.0404 35.5238 73.0796 35.5238 69.152C35.5205 67.6183 35.2711 66.0951 34.7852 64.6404C34.6375 64.1771 34.4697 63.7273 34.2817 63.2976L34.2347 63.1768L34.0199 62.6935L33.8587 62.3443C33.8587 62.2705 33.7916 62.1966 33.7513 62.1227C33.7111 62.0489 33.6036 61.8072 33.523 61.6528V61.599C33.1538 60.8672 32.7644 60.1489 32.3817 59.4439C30.9651 56.8524 29.6223 54.4019 29.6223 51.3874C29.6223 48.3729 30.9651 45.9022 32.3817 43.3308C32.7711 42.6192 33.1672 41.8941 33.5365 41.1488C33.6237 40.981 33.7043 40.8132 33.7849 40.6386C33.7849 40.5782 33.8453 40.5177 33.8721 40.4573C33.899 40.3969 33.993 40.2021 34.0467 40.0746C34.1004 39.947 34.1743 39.786 34.2414 39.645C34.3086 39.504 34.2884 39.5308 34.3086 39.4771C34.4965 39.034 34.6644 38.5842 34.8121 38.1344C35.2979 36.6796 35.5473 35.1564 35.5506 33.6227C35.5506 29.6952 33.9326 26.7344 32.3683 23.8743C30.9517 21.2828 29.6089 18.8322 29.6089 15.8177C29.6089 12.8032 30.9517 10.3393 32.3683 7.76118C33.6573 5.40464 34.9799 2.97421 35.4029 0H34.1878C33.7581 2.68552 32.516 4.97489 31.3075 7.18372C29.8171 9.91624 28.4071 12.4944 28.4071 15.8312C28.4071 19.1679 29.8171 21.7527 31.3075 24.4852C32.798 27.2177 34.3422 30.0376 34.3422 33.6563C34.3376 35.1313 34.0857 36.595 33.5969 37.9867V38.0537C32.9743 39.7051 32.2152 41.3018 31.3277 42.8273C29.8372 45.5531 28.4273 48.1311 28.4273 51.4746C28.4273 54.8315 29.8372 57.3962 31.3277 60.1287C32.2142 61.6467 32.9711 63.2369 33.5902 64.8822V64.9694C34.079 66.3587 34.3309 67.8202 34.3354 69.293C34.3354 72.9117 32.798 75.7316 31.3008 78.4641C29.8036 81.1967 28.4004 83.7747 28.4004 87.1182C28.4013 87.7045 28.444 88.2902 28.528 88.8705H29.7566C29.6535 88.2921 29.6018 87.7057 29.6022 87.1182C29.6156 83.9425 30.9584 81.492 32.3415 78.9005Z" fill="#FFC844"/>
<path d="M199.728 82.9556C199.277 84.2505 199.05 85.6127 199.057 86.9838C199.057 90.3407 200.467 92.9053 201.964 95.6311C203.461 98.3569 204.998 101.184 204.998 104.802C204.998 108.421 203.454 111.241 201.964 113.973C200.473 116.706 199.057 119.284 199.057 122.621C199.057 125.957 200.467 128.542 201.964 131.275C203.461 134.007 204.998 136.827 204.998 140.446C204.998 144.064 203.454 146.884 201.964 149.61C200.473 152.336 199.057 154.921 199.057 158.264C199.057 161.608 200.467 164.186 201.964 166.918C203.461 169.651 204.998 172.464 204.998 176.083C204.998 179.701 203.454 182.521 201.964 185.254C200.473 187.986 199.057 190.564 199.057 193.908C199.057 197.251 200.467 199.829 201.964 202.555C202.9 204.156 203.686 205.839 204.314 207.584C204.354 207.705 204.432 207.81 204.535 207.885C204.639 207.959 204.763 208 204.891 208C204.953 207.999 205.014 207.987 205.072 207.966C205.148 207.943 205.218 207.904 205.279 207.853C205.34 207.802 205.39 207.739 205.426 207.669C205.462 207.598 205.484 207.521 205.49 207.442C205.496 207.363 205.487 207.283 205.462 207.208C204.809 205.393 203.991 203.642 203.018 201.978C201.601 199.386 200.265 196.942 200.265 193.921C200.265 190.9 201.608 188.436 203.018 185.865C204.582 183.005 206.2 180.044 206.2 176.116C206.2 172.189 204.582 169.234 203.018 166.368C201.601 163.776 200.265 161.332 200.265 158.311C200.265 155.29 201.608 152.826 203.018 150.255C204.582 147.395 206.2 144.434 206.2 140.513C206.2 136.592 204.582 133.625 203.018 130.764C201.601 128.173 200.265 125.722 200.265 122.708C200.265 119.693 201.608 117.229 203.018 114.651C204.582 111.785 206.2 108.83 206.2 104.903C206.2 100.975 204.582 98.0145 203.018 95.1545C201.601 92.5629 200.265 90.1191 200.265 87.0979C200.266 86.3484 200.347 85.6011 200.507 84.8689C200.232 84.1505 199.983 83.5531 199.728 82.9556Z" fill="#FFC844"/>
<path d="M3.89395 78.9005C5.45826 76.0404 7.07636 73.0796 7.07636 69.152C7.07632 67.6181 6.82683 66.0943 6.33778 64.6404C6.18336 64.1771 6.01552 63.7206 5.83425 63.2976C5.81573 63.2608 5.80006 63.2227 5.78728 63.1836L5.56576 62.6935C5.51876 62.5726 5.46498 62.4585 5.41127 62.3443C5.35756 62.2302 5.33748 62.1966 5.30391 62.1227C5.27034 62.0489 5.14944 61.8072 5.07558 61.6528V61.6058C4.70633 60.8672 4.31695 60.1489 3.92755 59.4439C2.51094 56.8524 1.17491 54.4019 1.17491 51.3874C1.17491 48.3729 2.51766 45.9022 3.92755 43.3308C4.31695 42.6192 4.71305 41.8941 5.08902 41.1488L5.33743 40.6453L5.41799 40.464L5.59928 40.0746C5.66642 39.9336 5.72686 39.786 5.78728 39.645C5.84771 39.504 5.83427 39.5308 5.86113 39.4771C6.0424 39.034 6.21024 38.5842 6.36466 38.1344C6.85371 36.6804 7.10312 35.1567 7.10316 33.6227C7.10316 29.6952 5.48514 26.7344 3.92083 23.8743C2.50422 21.2828 1.16819 18.8322 1.16819 15.8177C1.16819 12.8032 2.51094 10.3393 3.92083 7.76118C5.20988 5.40464 6.53252 2.98092 6.9622 0H5.74024C5.31056 2.68552 4.07528 4.97489 2.8668 7.18372C1.52404 9.63426 0.255131 11.9573 0.00672035 14.8241V16.8382C0.255131 19.705 1.52404 22.0279 2.8668 24.4785C4.35726 27.211 5.90145 30.0309 5.90145 33.6496C5.89251 35.1242 5.64065 36.5872 5.15615 37.98C5.15615 37.98 5.15615 38.0269 5.15615 38.0537C4.53573 39.7028 3.77893 41.2973 2.8936 42.8206C1.55084 45.2644 0.28193 47.594 0.0335198 50.4541V52.4682C0.28193 55.3283 1.55084 57.6581 2.8936 60.1086C3.77793 61.6244 4.53264 63.2123 5.14951 64.8553C5.15132 64.8866 5.15132 64.9179 5.14951 64.9492C5.63508 66.3394 5.88689 67.8003 5.89473 69.2729C5.89473 72.8916 4.35054 75.7115 2.86008 78.444C1.51732 80.8945 0.24841 83.2174 0 86.0842V88.0983C0 88.3468 0.0537136 88.5952 0.0872826 88.8369H1.30916C1.21166 88.2579 1.16228 87.6717 1.16147 87.0846C1.14133 83.9425 2.47734 81.492 3.89395 78.9005Z" fill="#FFC844"/>
<path d="M74.9996 78.9005C76.5639 76.0404 78.1886 73.0796 78.1886 69.1521C78.1831 67.618 77.9315 66.0948 77.4434 64.6404C77.289 64.1772 77.1212 63.7206 76.9399 63.2976C76.9214 63.2608 76.9057 63.2227 76.8929 63.1836L76.6713 62.6935C76.6243 62.5726 76.5706 62.4585 76.5169 62.3443C76.4632 62.2302 76.443 62.1966 76.4095 62.1227C76.3759 62.0489 76.2551 61.8072 76.1812 61.6528V61.599C75.812 60.8672 75.4226 60.1489 75.0332 59.4439C73.6166 56.8524 72.2806 54.4019 72.2806 51.3874C72.2806 48.3729 73.6233 45.9022 75.0332 43.3308C75.4226 42.6192 75.8187 41.8941 76.1947 41.1489L76.4431 40.6453C76.4431 40.5849 76.4968 40.5177 76.5304 40.4573C76.5639 40.3969 76.6445 40.2022 76.7049 40.0813C76.7653 39.9605 76.8325 39.7792 76.8996 39.6315C76.9668 39.4838 76.9466 39.5308 76.9668 39.4771C77.148 39.034 77.3159 38.5842 77.4703 38.1344C77.9584 36.68 78.21 35.1568 78.2155 33.6227C78.2155 29.6952 76.5908 26.7344 75.0265 23.8743C73.6099 21.2828 72.2738 18.8322 72.2738 15.8177C72.2738 12.8032 73.6166 10.3393 75.0265 7.76119C76.3088 5.41807 77.6247 3.01455 78.0611 0.0604858H76.8459C76.4095 2.746 75.1741 5.00848 73.9724 7.21061C72.4752 9.94312 71.0653 12.5213 71.0653 15.8581C71.0653 19.1948 72.4752 21.7795 73.9724 24.5121C75.4695 27.2446 77.007 30.0643 77.007 33.683C76.9981 35.1576 76.7463 36.6208 76.2618 38.0136C76.2618 38.0136 76.2618 38.0605 76.2618 38.0873C75.6386 39.7352 74.8819 41.3295 73.9992 42.8542C72.5021 45.58 71.0922 48.158 71.0922 51.5015C71.0922 54.8584 72.5021 57.4231 73.9992 60.1556C74.8836 61.6715 75.6382 63.2592 76.2551 64.9022C76.2579 64.9334 76.2579 64.965 76.2551 64.9963C76.7438 66.3856 76.9957 67.8471 77.0003 69.3199C77.0003 72.9386 75.4562 75.7584 73.9657 78.4909C72.4753 81.2234 71.0586 83.8016 71.0586 87.1451C71.0583 87.7317 71.1032 88.3175 71.1929 88.8973H72.4148C72.3173 88.3182 72.2679 87.7322 72.2671 87.1451C72.247 83.9426 73.583 81.492 74.9996 78.9005Z" fill="#FFC844"/>
<path d="M18.1148 78.9005C19.6858 76.0404 21.3039 73.0796 21.3039 69.152C21.3017 67.6177 21.05 66.0939 20.5587 64.6404C20.4109 64.1771 20.2364 63.7273 20.0551 63.2976C20.0366 63.2608 20.0208 63.2227 20.0081 63.1836C19.9342 63.0157 19.8671 62.8546 19.7933 62.6935L19.6321 62.3443L19.5247 62.1227C19.4508 61.9616 19.3703 61.8072 19.2965 61.6528V61.599C18.9272 60.8672 18.5378 60.1489 18.1484 59.4439C16.7318 56.8524 15.3957 54.4019 15.3957 51.3874C15.3957 48.3729 16.7385 45.9022 18.1551 43.3308C18.5445 42.6192 18.9339 41.8941 19.3099 41.1488C19.3972 40.9877 19.4777 40.8199 19.5583 40.6453L19.6456 40.4707C19.706 40.3365 19.7664 40.2089 19.8201 40.0813C19.8739 39.9537 19.9476 39.7927 20.0081 39.6517C20.0685 39.5107 20.0619 39.5375 20.082 39.4838C20.2633 39.0407 20.4378 38.5909 20.5855 38.1411C21.0769 36.6875 21.3285 35.1638 21.3308 33.6294C21.3308 29.7019 19.7127 26.7411 18.1417 23.881C16.7251 21.2895 15.3891 18.8389 15.3891 15.8244C15.3891 12.81 16.7318 10.346 18.1417 7.7679C19.4375 5.41136 20.76 2.98764 21.183 0.00671387H19.9678C19.5382 2.69223 18.2961 4.9816 17.0876 7.19044C15.5971 9.92295 14.1805 12.5011 14.1805 15.8379C14.1805 19.1746 15.5971 21.7594 17.0876 24.4919C18.5781 27.2244 20.1222 30.0443 20.1222 33.663C20.117 35.138 19.8651 36.6016 19.377 37.9934C19.377 37.9934 19.377 38.0403 19.377 38.0672C18.7594 39.7174 18.0025 41.3121 17.1145 42.834C15.624 45.5598 14.2074 48.1378 14.2074 51.4813C14.2074 54.8382 15.624 57.403 17.1145 60.1355C17.9988 61.6513 18.7534 63.2392 19.3703 64.8822C19.3731 64.9134 19.3731 64.9448 19.3703 64.9761C19.859 66.3654 20.1109 67.8269 20.1155 69.2997C20.1155 72.9185 18.5713 75.7383 17.0809 78.4709C15.5904 81.2034 14.1738 83.7814 14.1738 87.1249C14.1769 87.7114 14.2218 88.2971 14.3081 88.8772H15.5367C15.4336 88.2989 15.382 87.7124 15.3823 87.1249C15.3622 83.9425 16.6982 81.492 18.1148 78.9005Z" fill="#FFC844"/>
<path d="M130.831 24.3509C132.322 27.0835 133.866 29.9032 133.866 33.5219C133.859 34.9967 133.607 36.4601 133.121 37.8525C133.118 37.8725 133.118 37.8927 133.121 37.9128C132.505 39.5679 131.748 41.1672 130.858 42.6931C129.361 45.4189 127.951 47.9969 127.951 51.3404C127.951 54.6973 129.361 57.262 130.858 59.9945C131.743 61.5104 132.497 63.0981 133.114 64.7411L133.148 64.8351C133.633 66.2253 133.885 67.6863 133.893 69.1588C133.893 72.7775 132.349 75.5973 130.858 78.3298C129.368 81.0623 127.951 83.6405 127.951 86.9839C127.951 90.3274 129.361 92.9054 130.858 95.6312C132.355 98.357 133.893 101.184 133.893 104.802C133.893 108.421 132.349 111.241 130.858 113.973C129.368 116.706 127.951 119.277 127.951 122.621C127.951 125.964 129.361 128.542 130.858 131.275C132.355 134.007 133.893 136.827 133.893 140.446C133.893 144.064 132.349 146.884 130.858 149.61C129.368 152.336 127.951 154.921 127.951 158.264C127.951 161.608 129.361 164.186 130.858 166.918C132.355 169.651 133.893 172.464 133.893 176.083C133.893 179.701 132.349 182.521 130.858 185.254C129.368 187.986 127.951 190.564 127.951 193.908C127.951 197.251 129.361 199.829 130.858 202.555C131.794 204.156 132.581 205.839 133.208 207.584C133.249 207.705 133.326 207.81 133.43 207.885C133.533 207.959 133.658 208 133.785 208C133.847 207.999 133.909 207.987 133.967 207.966C134.043 207.943 134.113 207.904 134.174 207.853C134.234 207.802 134.284 207.739 134.321 207.669C134.357 207.598 134.379 207.521 134.385 207.442C134.391 207.363 134.381 207.283 134.356 207.208C133.704 205.393 132.886 203.642 131.912 201.978C130.496 199.386 129.16 196.936 129.16 193.921C129.16 190.907 130.502 188.436 131.912 185.865C133.477 183.005 135.095 180.044 135.095 176.116C135.095 172.189 133.477 169.235 131.912 166.368C130.496 163.776 129.16 161.332 129.16 158.311C129.16 155.29 130.502 152.833 131.912 150.255C133.477 147.395 135.095 144.434 135.095 140.513C135.095 136.592 133.477 133.625 131.912 130.765C130.496 128.173 129.16 125.722 129.16 122.708C129.16 119.693 130.502 117.23 131.912 114.651C133.477 111.785 135.095 108.831 135.095 104.903C135.095 100.975 133.477 98.0146 131.912 95.1546C130.496 92.563 129.16 90.1192 129.16 87.098C129.16 84.0768 130.502 81.6128 131.912 79.0415C133.477 76.1814 135.095 73.2206 135.095 69.293C135.091 67.7593 134.842 66.2361 134.356 64.7814C134.202 64.3181 134.034 63.8616 133.846 63.4386L133.799 63.3313C133.732 63.1634 133.658 63.0023 133.584 62.8412L133.423 62.492L133.322 62.2704C133.242 62.1093 133.168 61.9549 133.087 61.8005V61.7535C132.718 61.0149 132.329 60.2966 131.939 59.5916C130.523 57.0001 129.187 54.5496 129.187 51.5351C129.187 48.5206 130.529 46.0499 131.939 43.4785C132.329 42.7669 132.725 42.0485 133.094 41.3033L133.336 40.8065L133.43 40.6117C133.49 40.4909 133.544 40.3633 133.604 40.2424L133.806 39.7725C133.828 39.7295 133.846 39.6846 133.859 39.6383C134.047 39.1952 134.215 38.7453 134.37 38.2955C134.855 36.8383 135.104 35.313 135.108 33.7771C135.108 29.8496 133.49 26.8888 131.926 24.0287C130.509 21.4372 129.173 18.9866 129.173 15.9722C129.184 14.636 129.434 13.3127 129.912 12.0647L128.804 11.5746C128.257 12.9767 127.973 14.4673 127.965 15.9722C127.924 19.0269 129.334 21.605 130.831 24.3509Z" fill="#FFC844"/>
<path d="M103.468 78.9005C105.032 76.0404 106.65 73.0796 106.65 69.152C106.647 67.6183 106.398 66.0951 105.912 64.6404C105.764 64.1771 105.596 63.7273 105.408 63.2976C105.408 63.2439 105.361 63.1969 105.341 63.1432C105.321 63.0895 105.213 62.8479 105.146 62.7002C105.079 62.5525 105.032 62.4517 104.978 62.3242C104.925 62.1966 104.918 62.1966 104.884 62.1294L104.643 61.6393C104.274 60.9008 103.877 60.1757 103.495 59.4708C102.078 56.8793 100.735 54.4287 100.735 51.4142C100.735 48.3997 102.078 45.9291 103.495 43.3577C103.884 42.646 104.274 41.9277 104.65 41.1824L104.891 40.6856L104.985 40.4842L105.153 40.1216C105.227 39.9672 105.294 39.8061 105.361 39.6517C105.376 39.6058 105.394 39.561 105.415 39.5174C105.603 39.0743 105.771 38.6245 105.925 38.1747C106.411 36.7199 106.66 35.1967 106.664 33.663C106.664 29.7355 105.046 26.7747 103.481 23.9146C102.065 21.3231 100.722 18.8725 100.722 15.858C100.722 12.8435 102.065 10.3796 103.481 7.80148C104.233 6.47485 104.905 5.10503 105.495 3.69929L104.307 3.41736C103.743 4.71953 103.108 5.99023 102.407 7.22403C100.917 9.95654 99.5067 12.5347 99.5067 15.8715C99.5067 19.2082 100.917 21.793 102.407 24.5255C103.898 27.258 105.442 30.0777 105.442 33.6965C105.438 35.1715 105.186 36.6355 104.696 38.027V38.0806C104.077 39.7375 103.317 41.3389 102.427 42.8676C100.937 45.5934 99.5269 48.1714 99.5269 51.5149C99.5269 54.8718 100.937 57.4365 102.427 60.1691C103.315 61.6863 104.072 63.2764 104.69 64.9223C104.692 64.9514 104.692 64.9806 104.69 65.0097C105.178 66.399 105.43 67.8605 105.435 69.3333C105.435 72.952 103.898 75.7718 102.4 78.5043C100.903 81.2368 99.5 83.815 99.5 87.1585C99.4997 87.7451 99.5446 88.3309 99.6343 88.9107H100.856C100.753 88.3323 100.701 87.746 100.702 87.1585C100.688 83.9426 102.031 81.492 103.468 78.9005Z" fill="#FFC844"/>
<path d="M114.879 86.9772C114.879 83.9426 116.222 81.492 117.639 78.9207C119.203 76.0606 120.821 73.0998 120.821 69.1722C120.818 67.6385 120.568 66.1153 120.082 64.6606C119.928 64.1973 119.76 63.7408 119.572 63.3178C119.572 63.2775 119.572 63.2373 119.525 63.2037C119.458 63.0359 119.384 62.8746 119.31 62.7135C119.237 62.5523 119.203 62.4785 119.149 62.3711C119.096 62.2636 119.082 62.2167 119.042 62.1362L118.82 61.6797L118.787 61.6192C118.417 60.8807 118.028 60.1623 117.645 59.4641C116.229 56.8726 114.886 54.422 114.886 51.4076C114.886 48.3931 116.229 45.9224 117.645 43.351C118.035 42.6796 118.424 41.921 118.8 41.1757L119.042 40.6856C119.042 40.6252 119.102 40.5581 119.136 40.4909L119.31 40.1149C119.371 39.9739 119.438 39.8263 119.498 39.6786C119.524 39.6261 119.546 39.5723 119.566 39.5175C119.753 39.0743 119.921 38.6245 120.076 38.1747C120.562 36.72 120.811 35.1968 120.814 33.663C120.814 29.7355 119.196 26.7747 117.632 23.9146C116.215 21.3231 114.873 18.8726 114.873 15.8581C114.873 12.8436 116.215 10.3796 117.632 7.80151L117.914 7.27782L116.752 6.88837L116.571 7.22406C115.081 9.95657 113.671 12.5347 113.671 15.8715C113.671 19.2083 115.081 21.793 116.571 24.5255C118.062 27.258 119.613 30.0778 119.613 33.6965C119.606 35.174 119.352 36.64 118.861 38.0336V38.0806C118.238 39.7377 117.477 41.3391 116.585 42.8676C115.094 45.5934 113.684 48.1714 113.684 51.5149C113.684 54.8718 115.094 57.4366 116.585 60.1691C117.477 61.6918 118.237 63.2888 118.854 64.9425V65.003C119.345 66.3942 119.599 67.858 119.606 69.3333C119.606 72.9521 118.062 75.7718 116.564 78.5043C115.067 81.2368 113.664 83.815 113.664 87.1585C113.664 87.7452 113.709 88.3309 113.798 88.9107H115.02C114.914 88.2718 114.867 87.6247 114.879 86.9772Z" fill="#FFC844"/>
<path d="M148.087 33.5085C148.078 34.9831 147.826 36.4463 147.342 37.839C147.342 37.839 147.342 37.8859 147.342 37.9128C146.724 39.563 145.967 41.1577 145.079 42.6796C143.582 45.4054 142.172 47.9834 142.172 51.3269C142.172 54.6838 143.582 57.2486 145.079 59.9811C145.964 61.4969 146.718 63.0847 147.335 64.7276C147.338 64.7589 147.338 64.7904 147.335 64.8217C147.824 66.211 148.076 67.6726 148.08 69.1453C148.08 72.7641 146.536 75.5838 145.046 78.3163C143.555 81.0488 142.139 83.627 142.139 86.9705C142.139 90.314 143.549 92.892 145.046 95.6178C146.543 98.3436 148.08 101.17 148.08 104.789C148.08 108.408 146.536 111.227 145.046 113.96C143.555 116.692 142.139 119.271 142.139 122.607C142.139 125.944 143.549 128.529 145.046 131.261C146.543 133.994 148.08 136.814 148.08 140.432C148.08 144.051 146.536 146.871 145.046 149.603C143.555 152.336 142.139 154.907 142.139 158.251C142.139 161.594 143.549 164.172 145.046 166.905C146.543 169.637 148.08 172.45 148.08 176.069C148.08 179.688 146.536 182.508 145.046 185.24C143.555 187.973 142.139 190.551 142.139 193.894C142.139 197.238 143.549 199.816 145.046 202.542C145.982 204.142 146.768 205.825 147.396 207.57C147.436 207.691 147.514 207.797 147.617 207.871C147.721 207.946 147.845 207.986 147.973 207.987C148.037 207.984 148.1 207.973 148.161 207.953C148.312 207.902 148.437 207.794 148.508 207.652C148.58 207.51 148.593 207.346 148.544 207.194C147.897 205.377 147.079 203.626 146.1 201.964C144.683 199.373 143.347 196.929 143.347 193.908C143.347 190.887 144.69 188.423 146.1 185.851C147.664 182.991 149.289 180.03 149.289 176.103C149.289 172.175 147.664 169.221 146.1 166.354C144.683 163.763 143.347 161.319 143.347 158.298C143.347 155.277 144.69 152.819 146.1 150.241C147.664 147.381 149.289 144.42 149.289 140.5C149.289 136.579 147.664 133.611 146.1 130.751C144.683 128.16 143.347 125.709 143.347 122.695C143.347 119.68 144.69 117.216 146.1 114.638C147.664 111.771 149.289 108.817 149.289 104.89C149.289 100.962 147.664 98.0012 146.1 95.1411C144.683 92.5496 143.347 90.1058 143.347 87.0846C143.347 84.0634 144.69 81.5994 146.1 79.028C147.664 76.1679 149.289 73.2071 149.289 69.2796C149.283 67.7455 149.032 66.2223 148.544 64.7679C148.389 64.3047 148.221 63.8481 148.04 63.4252C148.04 63.3916 148.007 63.3581 147.986 63.3178C147.919 63.15 147.845 62.9889 147.772 62.8277C147.698 62.6666 147.671 62.5927 147.617 62.4786C147.563 62.3645 147.543 62.3308 147.51 62.257C147.476 62.1831 147.355 61.9415 147.281 61.7871V61.74C146.912 61.0015 146.523 60.2831 146.133 59.5782C144.717 56.9867 143.381 54.5361 143.381 51.5216C143.381 48.5071 144.724 46.0365 146.14 43.4651C146.523 42.7534 146.919 42.0351 147.288 41.2898C147.375 41.122 147.456 40.9609 147.537 40.793C147.537 40.7259 147.597 40.6654 147.624 40.5983C147.651 40.5311 147.745 40.3498 147.798 40.2223C147.852 40.0947 147.933 39.9269 147.993 39.7725L148.06 39.6248C148.242 39.1817 148.409 38.7319 148.564 38.2821C149.052 36.8277 149.304 35.3045 149.309 33.7704C149.309 29.8428 147.684 26.8821 146.12 24.022C145.25 22.5367 144.517 20.9748 143.931 19.3559L142.441 18.4764C143.017 20.633 143.901 22.6953 145.066 24.5994C146.543 27.0701 148.087 29.8898 148.087 33.5085Z" fill="#FFC844"/>
<path d="M162.307 33.5085C162.307 34.3723 162.22 35.2339 162.045 36.0799C161.92 36.6755 161.758 37.2629 161.562 37.839C161.564 37.8613 161.564 37.8837 161.562 37.906C160.944 39.5584 160.187 41.1554 159.299 42.6796C158.923 43.351 158.561 44.0224 158.218 44.6937C157.081 46.7193 156.454 48.9913 156.392 51.3134C156.392 54.6703 157.809 57.2351 159.299 59.9676C160.184 61.4863 160.941 63.0762 161.562 64.7209V64.8082C162.05 66.1976 162.302 67.6591 162.307 69.1319C162.307 72.7506 160.763 75.5705 159.272 78.303C157.782 81.0355 156.365 83.6136 156.365 86.957C156.365 90.3005 157.782 92.8785 159.272 95.6043C160.763 98.3301 162.307 101.157 162.307 104.775C162.307 108.394 160.763 111.214 159.272 113.946C157.782 116.679 156.372 119.25 156.372 122.594C156.372 125.937 157.782 128.515 159.272 131.248C160.763 133.98 162.307 136.8 162.307 140.419C162.307 144.038 160.763 146.857 159.272 149.583C157.782 152.309 156.372 154.894 156.372 158.237C156.372 161.581 157.782 164.159 159.272 166.891C160.763 169.624 162.307 172.437 162.307 176.056C162.307 179.674 160.763 182.494 159.272 185.227C157.782 187.959 156.372 190.537 156.365 193.881C156.359 197.224 157.782 199.802 159.272 202.528C160.208 204.13 160.996 205.813 161.629 207.557C161.667 207.678 161.743 207.784 161.846 207.858C161.949 207.933 162.072 207.973 162.2 207.973C162.264 207.972 162.327 207.96 162.388 207.939C162.463 207.915 162.532 207.876 162.592 207.825C162.652 207.773 162.702 207.711 162.737 207.64C162.773 207.569 162.794 207.493 162.8 207.414C162.805 207.335 162.795 207.256 162.77 207.181C162.123 205.364 161.305 203.613 160.326 201.951C158.91 199.359 157.574 196.916 157.574 193.894C157.574 190.873 158.916 188.409 160.333 185.838C161.897 182.978 163.515 180.017 163.515 176.089C163.515 172.162 161.897 169.208 160.326 166.341C158.91 163.749 157.574 161.306 157.574 158.284C157.574 155.263 158.916 152.799 160.333 150.228C161.897 147.368 163.515 144.407 163.515 140.486C163.515 136.565 161.897 133.598 160.333 130.738C158.91 128.146 157.574 125.696 157.574 122.681C157.574 119.667 158.916 117.203 160.333 114.625C161.897 111.758 163.515 108.804 163.515 104.876C163.515 100.949 161.897 97.9877 160.326 95.1277C158.91 92.5361 157.574 90.0923 157.574 87.0711C157.574 84.0499 158.916 81.5859 160.333 79.0146C161.897 76.1545 163.515 73.1937 163.515 69.2661C163.513 67.7318 163.261 66.208 162.77 64.7545C162.622 64.2912 162.448 63.8414 162.267 63.4117C162.246 63.3682 162.228 63.3233 162.213 63.2775L162.005 62.8075C161.951 62.6867 161.891 62.5658 161.837 62.4517L161.736 62.2368C161.662 62.0757 161.582 61.9213 161.508 61.7601V61.7198C161.132 60.9813 160.743 60.2629 160.353 59.558C159.823 58.5845 159.306 57.6311 158.863 56.6643C158.067 55.0526 157.636 53.2852 157.601 51.488C157.601 48.4534 158.943 46.0028 160.36 43.4315C160.837 42.5587 161.32 41.6657 161.763 40.7459L161.844 40.5714C161.904 40.4438 161.971 40.3097 162.025 40.1821C162.079 40.0545 162.153 39.9 162.213 39.759L162.287 39.5845C162.468 39.1414 162.643 38.6915 162.79 38.2417C163.276 36.787 163.525 35.2638 163.529 33.7301C163.529 33.6495 163.529 33.5757 163.529 33.4952L162.26 32.4075C162.26 32.6223 162.3 32.8372 162.314 33.0788C162.327 33.3205 162.307 33.2802 162.307 33.5085Z" fill="#FFC844"/>
<path d="M190 64.8217C190.491 66.213 190.745 67.6767 190.752 69.1521C190.752 72.7708 189.208 75.5905 187.711 78.323C186.214 81.0556 184.811 83.6337 184.811 86.9772C184.811 90.3207 186.22 92.8987 187.711 95.6245C189.201 98.3503 190.752 101.177 190.752 104.796C190.752 108.414 189.208 111.234 187.711 113.967C186.214 116.699 184.811 119.271 184.811 122.614C184.811 125.958 186.22 128.536 187.718 131.268C189.215 134.001 190.752 136.82 190.752 140.439C190.752 144.058 189.208 146.878 187.711 149.603C186.214 152.329 184.811 154.914 184.811 158.257C184.811 161.601 186.22 164.179 187.711 166.912C189.201 169.644 190.752 172.457 190.752 176.076C190.752 179.695 189.208 182.514 187.711 185.247C186.214 187.979 184.811 190.558 184.811 193.901C184.811 197.245 186.22 199.823 187.718 202.555C188.655 204.153 189.441 205.834 190.067 207.577C190.107 207.697 190.183 207.803 190.286 207.877C190.388 207.952 190.511 207.993 190.638 207.993C190.702 207.992 190.766 207.981 190.826 207.96C190.978 207.91 191.104 207.803 191.177 207.661C191.25 207.519 191.264 207.353 191.215 207.201C190.563 205.386 189.745 203.636 188.772 201.971C187.355 199.38 186.012 196.936 186.012 193.915C186.012 190.893 187.355 188.429 188.772 185.858C190.336 182.998 191.954 180.037 191.954 176.11C191.954 172.182 190.336 169.228 188.772 166.361C187.355 163.77 186.012 161.326 186.012 158.305C186.012 155.283 187.355 152.819 188.772 150.248C190.336 147.388 191.954 144.427 191.954 140.506C191.954 136.585 190.336 133.618 188.772 130.758C187.355 128.166 186.012 125.716 186.012 122.701C186.012 119.687 187.355 117.223 188.772 114.645C190.336 111.778 191.954 108.824 191.954 104.896C191.954 100.969 190.336 98.0079 188.772 95.1478C187.355 92.5563 186.012 90.1125 186.012 87.0913C186.012 84.0701 187.355 81.6061 188.772 79.0347C190.336 76.1747 191.954 73.2139 191.954 69.2863C191.955 68.6711 191.915 68.0565 191.833 67.4467C191.068 66.1443 190.276 64.8552 189.47 63.5796C189.651 64.0093 189.826 64.4457 189.98 64.9223L190 64.8217Z" fill="#FFC844"/>
<path d="M173.424 42.8004C171.96 45.4859 170.59 48.0371 170.59 51.3269C170.59 54.6838 172 57.2486 173.491 59.9811C174.382 61.5045 175.142 63.1014 175.76 64.7545V64.815C176.249 66.2066 176.501 67.6703 176.505 69.1453C176.505 72.7641 174.968 75.5838 173.471 78.3163C171.974 81.0488 170.57 83.627 170.57 86.9705C170.57 90.3139 171.98 92.892 173.471 95.6178C174.961 98.3436 176.505 101.17 176.505 104.789C176.505 108.408 174.968 111.227 173.471 113.96C171.974 116.692 170.57 119.264 170.57 122.607C170.57 125.951 171.98 128.529 173.471 131.261C174.961 133.994 176.505 136.814 176.505 140.432C176.505 144.051 174.968 146.871 173.471 149.597C171.974 152.323 170.57 154.907 170.57 158.251C170.57 161.594 171.98 164.172 173.471 166.905C174.961 169.637 176.505 172.45 176.505 176.069C176.505 179.688 174.968 182.508 173.471 185.24C171.974 187.973 170.57 190.551 170.57 193.894C170.57 197.238 171.98 199.816 173.477 202.548C174.415 204.146 175.201 205.827 175.827 207.57C175.866 207.691 175.942 207.797 176.045 207.872C176.147 207.947 176.271 207.987 176.398 207.987C176.462 207.985 176.525 207.974 176.586 207.953C176.661 207.929 176.731 207.89 176.791 207.838C176.851 207.787 176.9 207.724 176.936 207.653C176.971 207.583 176.992 207.506 176.998 207.427C177.004 207.348 176.994 207.269 176.969 207.194C176.321 205.379 175.505 203.628 174.531 201.964C173.115 199.373 171.772 196.929 171.772 193.908C171.772 190.887 173.115 188.423 174.531 185.851C176.096 182.991 177.714 180.03 177.714 176.103C177.714 172.175 176.096 169.221 174.531 166.354C173.115 163.763 171.772 161.319 171.772 158.298C171.772 155.277 173.115 152.813 174.531 150.241C176.096 147.381 177.714 144.42 177.714 140.5C177.714 136.579 176.096 133.611 174.531 130.751C173.115 128.16 171.772 125.709 171.772 122.695C171.772 119.68 173.115 117.216 174.531 114.638C176.096 111.771 177.714 108.817 177.714 104.89C177.714 100.962 176.096 98.0012 174.531 95.1411C173.115 92.5496 171.772 90.1058 171.772 87.0846C171.772 84.0633 173.115 81.5994 174.531 79.028C176.096 76.1679 177.714 73.2071 177.714 69.2796C177.71 67.7459 177.461 66.2226 176.975 64.7679C176.821 64.3047 176.653 63.8548 176.465 63.4252C176.45 63.3837 176.432 63.3433 176.411 63.3044C176.344 63.1432 176.277 62.9821 176.203 62.821L176.042 62.4651C176.042 62.3913 175.975 62.3241 175.935 62.2502C175.894 62.1764 175.787 61.9347 175.706 61.7736V61.7333C175.33 60.9948 174.941 60.2764 174.558 59.5715C173.142 56.9799 171.799 54.5294 171.799 51.5149C171.799 48.6615 172.981 46.3318 174.303 43.9081L173.424 42.8004Z" fill="#FFC844"/>
<path d="M89.2192 78.9005C90.7902 76.0404 92.4082 73.0796 92.4082 69.152C92.406 67.6177 92.1544 66.0939 91.663 64.6404C91.5153 64.1771 91.3408 63.7273 91.1595 63.2976C91.1595 63.2573 91.1259 63.2104 91.1057 63.1701C91.0386 63.009 90.9648 62.8546 90.8976 62.6934C90.8305 62.5323 90.7902 62.4584 90.7298 62.3376L90.6291 62.1227C90.5552 61.9616 90.4747 61.8072 90.4008 61.6528V61.6057C90.0316 60.8672 89.6421 60.1489 89.2527 59.4439C87.8361 56.8524 86.5001 54.4019 86.5001 51.3874C86.5001 48.3729 87.8428 45.9022 89.2594 43.3308C89.7361 42.458 90.2196 41.5651 90.6627 40.6453L90.7432 40.4707C90.8037 40.3432 90.8707 40.2088 90.9244 40.0813C90.9782 39.9537 91.052 39.7994 91.1124 39.6584L91.1863 39.4838C91.3743 39.0407 91.5421 38.5909 91.6898 38.1411C92.1812 36.6875 92.4328 35.1638 92.435 33.6294C92.435 29.7018 90.817 26.7411 89.246 23.881C87.8294 21.2895 86.4934 18.8389 86.4934 15.8244C86.4934 12.8099 87.8361 10.346 89.246 7.76788C90.4893 5.71989 91.4385 3.50729 92.0658 1.19505L90.864 1.04065C90.2446 3.20027 89.3416 5.26817 88.1785 7.19042C86.6881 9.92294 85.2715 12.5011 85.2715 15.8379C85.2715 19.1746 86.6881 21.7594 88.1785 24.4919C89.669 27.2244 91.2132 30.0443 91.2132 33.663C91.2086 35.138 90.9567 36.6017 90.468 37.9934C90.4706 38.0157 90.4706 38.0381 90.468 38.0604C89.8503 39.7128 89.0934 41.3098 88.2054 42.834C86.7149 45.5598 85.2983 48.1378 85.2983 51.4813C85.2983 54.8382 86.7149 57.4029 88.2054 60.1354C89.092 61.6534 89.8488 63.2434 90.468 64.8887V64.9761C90.9567 66.3654 91.2086 67.8269 91.2132 69.2997C91.2132 72.9184 89.669 75.7383 88.1785 78.4709C86.6881 81.2034 85.2715 83.7814 85.2715 87.1249C85.2746 87.7114 85.3194 88.2971 85.4057 88.8772H86.6344C86.5313 88.2988 86.4796 87.7124 86.4799 87.1249C86.4665 83.9425 87.8026 81.492 89.2192 78.9005Z" fill="#FFC844"/>
</svg>
