<svg width="49" height="49" viewBox="0 0 49 49" fill="none" xmlns="http://www.w3.org/2000/svg">
<path d="M37.8788 10.6564H48.9955V0H0V48.9999H10.1803V38.3544C10.1817 31.0089 13.1004 23.9647 18.2946 18.7706C23.4888 13.5765 30.5332 10.6579 37.8788 10.6564Z" fill="#4CE467"/>
<path d="M28.1904 29.8008V48.9999H49V28.6672H29.3295C29.1801 28.6665 29.0321 28.6953 28.8939 28.752C28.7558 28.8086 28.6302 28.892 28.5243 28.9973C28.4185 29.1026 28.3345 29.2279 28.2772 29.3657C28.2199 29.5036 28.1904 29.6515 28.1904 29.8008Z" fill="#4CE467"/>
<path d="M28.1928 29.8008C28.1928 29.5002 28.3122 29.2119 28.5248 28.9993C28.7374 28.7867 29.0257 28.6673 29.3264 28.6673H48.9969V10.6565H37.8802C30.5345 10.6579 23.4901 13.5766 18.2959 18.7706C13.1017 23.9647 10.1831 31.0089 10.1816 38.3545V48.9999H28.1928V29.8008Z" fill="#766DFA"/>
</svg>
