<svg width="682" height="442" viewBox="0 0 682 442" fill="none" xmlns="http://www.w3.org/2000/svg">
<path d="M489.142 85.9297C489.123 90.8278 488.284 95.688 486.662 100.31C486.662 100.38 486.612 100.45 486.592 100.52C484.533 106.002 482.014 111.301 479.062 116.36C474.112 125.43 469.422 133.99 469.422 145.08C469.422 156.17 474.112 164.74 479.062 173.8C481.998 178.841 484.507 184.119 486.562 189.58L486.672 189.88C488.286 194.496 489.121 199.349 489.142 204.24C489.142 216.24 484.022 225.61 479.062 234.67C474.102 243.73 469.422 252.3 469.422 263.39C469.422 274.48 474.112 283.05 479.062 292.11C484.012 301.17 489.142 310.54 489.142 322.55C489.142 325.337 488.864 328.117 488.312 330.85H492.382C492.886 328.112 493.14 325.334 493.142 322.55C493.142 309.55 487.772 299.69 482.572 290.19C477.872 281.59 473.422 273.47 473.422 263.39C473.422 253.31 477.872 245.2 482.572 236.59C487.772 227.09 493.142 217.27 493.142 204.24C493.134 199.14 492.303 194.075 490.682 189.24C490.676 189.217 490.676 189.193 490.682 189.17C490.172 187.64 489.612 186.17 489.002 184.67L488.822 184.25L488.132 182.67C487.952 182.27 487.762 181.879 487.582 181.479C487.472 181.249 487.362 181.01 487.242 180.77C486.992 180.24 486.732 179.72 486.472 179.19L486.412 179.06C485.172 176.61 483.882 174.22 482.592 171.87C477.892 163.27 473.452 155.15 473.442 145.08C473.432 135.01 477.892 126.89 482.592 118.29C484.182 115.39 485.792 112.44 487.262 109.36C487.362 109.16 487.452 108.95 487.552 108.75C487.742 108.33 487.942 107.909 488.132 107.479C488.322 107.049 488.572 106.48 488.782 106L489.002 105.49C489.615 104.023 490.175 102.519 490.682 100.979V100.93C492.302 96.0943 493.133 91.0294 493.142 85.9297C493.058 78.3922 491.313 70.9659 488.032 64.1797C486.922 64.9897 485.832 65.8096 484.732 66.6396C487.556 72.6831 489.06 79.2593 489.142 85.9297Z" fill="#FFC844"/>
<path d="M526.242 55.4897C531.242 64.5497 536.322 73.9199 536.322 85.9299C536.301 90.8247 535.463 95.6815 533.842 100.3L533.762 100.53C531.704 106.008 529.189 111.304 526.242 116.36C521.242 125.43 516.602 133.99 516.602 145.08C516.602 156.17 521.282 164.74 526.242 173.8C529.185 178.846 531.697 184.131 533.752 189.6L533.842 189.87C535.464 194.488 536.302 199.345 536.322 204.24C536.31 208.236 535.741 212.211 534.632 216.05C536.385 213.77 538.185 211.53 540.032 209.33C540.221 207.64 540.318 205.94 540.322 204.24C540.313 199.14 539.483 194.075 537.862 189.24V189.17C537.362 187.637 536.805 186.137 536.192 184.67L535.982 184.2C535.762 183.69 535.552 183.2 535.322 182.67C535.092 182.14 534.952 181.87 534.762 181.46C534.652 181.24 534.552 181.01 534.442 180.78L533.662 179.19L533.592 179.07C532.362 176.61 531.062 174.22 529.782 171.87C525.082 163.27 520.632 155.15 520.632 145.08C520.632 135.01 525.082 126.89 529.792 118.28C531.372 115.38 532.982 112.42 534.462 109.34L534.722 108.77C534.932 108.34 535.132 107.91 535.332 107.47C535.532 107.03 535.742 106.53 535.942 106.06L536.192 105.48C536.805 104.02 537.362 102.523 537.862 100.99V100.93C539.483 96.0948 540.314 91.0297 540.322 85.9299C540.322 72.9299 534.952 63.0698 529.752 53.5698C527.467 49.5928 525.423 45.482 523.632 41.2598C522.452 41.9098 521.272 42.5598 520.102 43.2598C521.926 47.4443 523.976 51.527 526.242 55.4897Z" fill="#FFC844"/>
<path d="M567.843 145.09C567.843 135.03 572.283 126.9 576.993 118.29C578.283 115.94 579.583 113.54 580.823 111.08V111.01C581.093 110.47 581.363 109.93 581.623 109.38C581.723 109.16 581.833 108.93 581.943 108.71C582.123 108.31 582.313 107.91 582.493 107.5C582.673 107.09 582.963 106.5 583.183 105.92L583.363 105.51C583.973 104.04 584.543 102.51 585.053 100.99C585.052 100.973 585.052 100.957 585.053 100.94C586.669 96.1036 587.499 91.0395 587.513 85.9402C587.513 72.9402 582.133 63.0801 576.943 53.5801C572.233 44.9801 567.793 36.85 567.793 26.78C567.797 24.7005 567.988 22.6255 568.363 20.5801C566.933 21.1201 565.493 21.6602 564.073 22.2102C563.887 23.7265 563.794 25.2524 563.793 26.78C563.793 37.87 568.473 46.43 573.433 55.5C578.393 64.57 583.513 73.9302 583.513 85.9402C583.491 90.8388 582.649 95.6991 581.023 100.32L580.963 100.51C578.902 105.999 576.383 111.304 573.433 116.37C568.433 125.44 563.793 134 563.793 145.09C563.793 156.18 568.473 164.74 573.433 173.81L575.143 176.96C576.233 176.18 577.343 175.42 578.453 174.67C577.953 173.73 577.453 172.79 576.943 171.87C572.243 163.28 567.843 155.16 567.843 145.09Z" fill="#FFC844"/>
<path d="M435.362 290.21C430.662 281.61 426.222 273.48 426.222 263.41C426.222 253.34 430.662 245.22 435.372 236.61C440.562 227.11 445.932 217.29 445.932 204.26C445.922 199.161 445.095 194.097 443.482 189.26C443.483 189.236 443.483 189.213 443.482 189.19C442.976 187.65 442.416 186.147 441.802 184.68L441.632 184.29C441.402 183.75 441.172 183.21 440.932 182.68L440.392 181.52C440.272 181.27 440.162 181.03 440.042 180.79C439.792 180.26 439.542 179.79 439.282 179.23C439.26 179.174 439.233 179.121 439.202 179.07C437.972 176.62 436.682 174.23 435.392 171.89C430.692 163.29 426.252 155.17 426.252 145.1C426.252 135.03 430.692 126.91 435.402 118.31C436.982 115.41 438.592 112.46 440.062 109.38C440.162 109.17 440.252 108.97 440.352 108.77C440.552 108.35 440.742 107.93 440.942 107.5C441.142 107.07 441.372 106.5 441.582 106.02L441.802 105.51C438.262 109.323 434.809 113.22 431.442 117.2C426.652 125.97 422.242 134.35 422.242 145.12C422.242 156.22 426.922 164.78 431.882 173.84C434.831 178.902 437.347 184.204 439.402 189.69C439.402 189.75 439.452 189.82 439.472 189.89C441.095 194.515 441.933 199.378 441.952 204.28C441.952 216.28 436.832 225.65 431.882 234.71C426.932 243.77 422.242 252.34 422.242 263.43C422.242 274.52 426.922 283.09 431.882 292.15C436.842 301.21 441.952 310.58 441.952 322.59C441.952 325.377 441.674 328.158 441.122 330.89H445.202C445.698 328.151 445.949 325.373 445.952 322.59C445.932 309.54 440.562 299.71 435.362 290.21Z" fill="#FFC844"/>
<path d="M388.16 290.21C383.45 281.61 379.01 273.48 379.01 263.41C379.01 253.34 383.45 245.22 388.16 236.61C393.35 227.11 398.73 217.29 398.73 204.26C398.717 199.161 397.887 194.096 396.27 189.26C396.27 189.26 396.27 189.26 396.27 189.2C395.76 187.66 395.19 186.2 394.58 184.68L394.42 184.31C394.19 183.76 393.95 183.22 393.71 182.68C393.53 182.29 393.36 181.91 393.18 181.53L392.82 180.78C392.58 180.27 392.33 179.78 392.07 179.24L391.98 179.06C391.66 178.43 391.33 177.82 390.98 177.2C390.22 178.65 389.46 180.1 388.72 181.56C390.037 184.191 391.186 186.904 392.16 189.68C392.16 189.74 392.16 189.81 392.24 189.88C393.857 194.507 394.695 199.369 394.72 204.27C394.72 216.27 389.59 225.64 384.64 234.71C379.69 243.78 375 252.33 375 263.42C375 274.51 379.68 283.08 384.64 292.14C389.6 301.2 394.72 310.57 394.72 322.58C394.717 325.368 394.435 328.148 393.88 330.88H397.96C398.459 328.141 398.713 325.364 398.72 322.58C398.73 309.54 393.35 299.71 388.16 290.21Z" fill="#FFC844"/>
<path d="M675.243 111.06C675.523 110.51 675.793 109.95 676.063 109.39L676.353 108.77C676.553 108.35 676.743 107.93 676.933 107.51C677.123 107.09 677.373 106.51 677.583 106.02C677.653 105.85 677.733 105.69 677.803 105.52C678.413 104.05 678.973 102.52 679.483 101.02C679.479 101 679.479 100.98 679.483 100.96C681.105 96.1251 681.935 91.06 681.943 85.9602C681.943 72.9602 676.573 63.1001 671.373 53.6001C666.673 45.0001 662.223 36.87 662.223 26.8C662.223 16.73 666.673 8.6 671.373 0C669.823 0.06 668.263 0.110186 666.713 0.190186C662.203 8.50019 658.203 16.5901 658.203 26.8301C658.203 37.9201 662.893 46.49 667.843 55.55C672.793 64.61 677.923 73.98 677.923 85.99C677.902 90.8806 677.068 95.7336 675.453 100.35L675.353 100.62C673.299 106.089 670.787 111.374 667.843 116.42C663.053 125.18 658.533 133.47 658.233 144.03C659.573 143.84 660.903 143.67 662.233 143.51C662.683 134.19 666.893 126.51 671.333 118.36C672.703 115.94 674.003 113.53 675.243 111.06Z" fill="#FFC844"/>
<path d="M624.242 118.299C625.822 115.399 627.432 112.439 628.912 109.359L629.182 108.769C629.382 108.349 629.582 107.919 629.782 107.479C629.992 107.009 630.192 106.539 630.402 106.059L630.642 105.489C631.255 104.029 631.815 102.533 632.322 100.999C632.322 100.999 632.322 100.999 632.322 100.939C633.935 96.1026 634.762 91.0383 634.772 85.9395C634.772 72.9395 629.402 63.0793 624.202 53.5793C619.502 44.9793 615.062 36.8493 615.062 26.7793C615.062 18.9793 617.732 12.3393 621.122 5.7793C619.462 6.0993 617.812 6.4293 616.122 6.7793C613.182 12.9293 611.022 19.2993 611.022 26.7793C611.022 37.8693 615.702 46.4293 620.662 55.4993C625.622 64.5693 630.732 73.9295 630.732 85.9395C630.712 90.8408 629.874 95.7043 628.252 100.329L628.192 100.489C626.134 105.987 623.611 111.3 620.652 116.369C615.702 125.439 611.022 133.999 611.012 145.089C611.024 148.878 611.577 152.646 612.652 156.279C613.902 155.769 615.152 155.279 616.412 154.779C615.499 151.626 615.031 148.362 615.022 145.079C615.052 135.019 619.492 126.899 624.242 118.299Z" fill="#FFC844"/>
<path d="M343.574 109.998H377.38V99.9415C377.38 85.6955 383.038 72.0329 393.11 61.9595C403.182 51.886 416.843 46.2268 431.087 46.2268H440.995V6.60156C416.016 11.5491 393.203 24.1708 375.739 42.7061C358.275 61.2413 347.03 84.7659 343.574 109.998Z" fill="#FFC844"/>
<path d="M412.309 83.3579V110H441V81.1572H414.509C413.925 81.1572 413.366 81.3891 412.953 81.8018C412.54 82.2145 412.309 82.7743 412.309 83.3579Z" fill="#FFC844"/>
<path d="M371.468 0H331V43.8791C341.583 26.8169 355.317 11.9255 371.468 0Z" fill="#FFC844"/>
<path d="M371.468 0C355.317 11.9255 341.583 26.8169 331 43.8791V109.999H343.576C347.032 84.7665 358.276 61.2419 375.74 42.7067C393.204 24.1714 416.017 11.5497 440.997 6.60215V0H371.468Z" fill="#766DFA"/>
<path d="M377.383 99.9423V109.999H412.307V83.3569C412.307 82.7733 412.539 82.2135 412.951 81.8008C413.364 81.3881 413.924 81.1563 414.507 81.1563H440.998V46.2275H431.09C416.846 46.2275 403.186 51.8868 393.113 61.9602C383.041 72.0337 377.383 85.6962 377.383 99.9423Z" fill="#F5333F"/>
<g opacity="0.1">
<path d="M224.749 153.47C228.36 157.067 232.526 160.059 237.089 162.33C238.536 163.063 239.996 163.73 241.469 164.33L241.869 164.49C242.419 164.71 242.959 164.93 243.509 165.13L244.709 165.58L245.469 165.85L247.109 166.41L247.289 166.47C249.889 167.33 252.489 168.1 255.049 168.85C264.459 171.61 273.339 174.21 280.459 181.33C287.579 188.45 290.179 197.33 292.939 206.74C293.699 209.33 294.469 211.95 295.349 214.58C295.539 215.17 295.749 215.76 295.949 216.35C296.029 216.56 296.109 216.77 296.179 216.98L296.659 218.29C296.849 218.79 297.049 219.29 297.239 219.77C297.319 219.95 297.389 220.13 297.459 220.32C298.059 221.78 298.726 223.23 299.459 224.67L299.459 224.74C301.73 229.302 304.722 233.469 308.319 237.08C315.319 244.08 323.239 247.59 331.199 250.2L331.199 245.98C324.129 243.55 317.199 240.29 311.139 234.25C307.695 230.769 304.853 226.741 302.729 222.33C302.696 222.254 302.66 222.181 302.619 222.11C300.207 216.779 298.244 211.257 296.749 205.6C293.849 195.68 291.099 186.32 283.259 178.47C275.419 170.63 266.059 167.88 256.139 164.98C250.484 163.49 244.965 161.526 239.639 159.11L239.409 159C234.995 156.876 230.966 154.03 227.489 150.58C218.999 142.09 215.999 131.85 213.099 121.94C211.899 117.84 210.719 113.85 209.209 110.01L204.869 110.01C206.589 114.252 208.055 118.593 209.259 123.01C212.389 133.51 215.539 144.26 224.749 153.47Z" fill="#4CE467"/>
<path d="M13.0691 114.18C20.1891 121.31 22.7891 130.18 25.5491 139.61C28.5491 150 31.7391 160.74 40.9491 169.96C50.1591 179.18 60.8991 182.32 71.3091 185.32C80.7191 188.08 89.599 190.68 96.729 197.8C103.859 204.92 106.449 213.8 109.209 223.23C112.209 233.62 115.399 244.36 124.609 253.57C128.222 257.167 132.388 260.162 136.949 262.44C138.402 263.167 139.862 263.833 141.329 264.44L141.759 264.61L143.359 265.23L144.589 265.68L145.319 265.95L146.989 266.52L147.129 266.57C149.739 267.43 152.339 268.2 154.909 268.95C164.319 271.71 173.199 274.31 180.319 281.43C187.439 288.55 190.039 297.43 192.799 306.84C193.549 309.43 194.329 312.06 195.199 314.69C195.386 315.277 195.586 315.867 195.799 316.46L196.029 317.09L196.509 318.41C196.699 318.9 196.889 319.41 197.089 319.87C197.159 320.06 197.229 320.24 197.309 320.43C197.909 321.89 198.576 323.34 199.309 324.78L199.309 324.85C201.58 329.41 204.568 333.577 208.159 337.19C217.379 346.4 228.159 349.55 238.519 352.59C247.929 355.35 256.819 357.95 263.939 365.07C271.059 372.19 273.659 381.07 276.419 390.49C279.419 400.89 282.609 411.63 291.819 420.85C301.029 430.07 311.899 433.32 322.289 436.32C325.369 437.22 328.389 438.11 331.289 439.14L331.289 434.91C328.709 434.04 326.079 433.27 323.399 432.48C313.489 429.58 303.239 426.58 294.749 418.09C286.259 409.6 283.259 399.35 280.359 389.44C277.459 379.53 274.709 370.16 266.859 362.32C259.009 354.48 249.659 351.73 239.739 348.82C229.819 345.91 219.579 342.92 211.089 334.43C207.642 330.952 204.8 326.924 202.679 322.51C202.642 322.442 202.608 322.372 202.579 322.3C200.16 316.968 198.193 311.442 196.699 305.78C193.789 295.87 191.049 286.5 183.209 278.66C175.369 270.82 165.999 268.08 156.089 265.17C150.441 263.683 144.928 261.723 139.609 259.31L139.349 259.18C134.94 257.062 130.915 254.223 127.439 250.78C118.949 242.29 115.949 232.04 113.039 222.12C110.129 212.2 107.399 202.85 99.5491 195C91.6991 187.15 82.3391 184.42 72.4291 181.51C62.5191 178.6 52.2691 175.61 43.7791 167.12C35.2891 158.63 32.2891 148.38 29.3891 138.47C26.4891 128.56 23.7391 119.19 15.8891 111.35C15.4491 110.903 14.9991 110.473 14.5391 110.06L8.06912 110.06C9.86053 111.275 11.5345 112.654 13.0691 114.18Z" fill="#4CE467"/>
<path d="M270.469 128.95L270.53 128.95C271.97 129.68 273.44 130.35 274.91 130.95C275.03 131.01 275.15 131.05 275.28 131.1C275.83 131.33 276.39 131.55 276.94 131.76L278.12 132.19L278.91 132.47L280.52 133.02L280.729 133.09C283.329 133.96 285.919 134.72 288.479 135.47C297.889 138.23 306.77 140.83 313.9 147.95C321.03 155.07 323.61 163.95 326.37 173.38C327.3 176.54 328.25 179.76 329.37 182.98L329.589 183.61C329.749 184.05 329.91 184.49 330.08 184.93C330.25 185.37 330.46 185.93 330.66 186.41L330.87 186.95L331.27 187.86L331.27 175.86C330.91 174.66 330.55 173.46 330.2 172.26C327.3 162.34 324.55 152.98 316.71 145.13C308.86 137.29 299.5 134.54 289.58 131.64C283.926 130.154 278.41 128.191 273.089 125.77L272.839 125.65C268.43 123.527 264.405 120.685 260.93 117.24C258.755 115.062 256.826 112.651 255.18 110.05L250.49 110.05C252.565 113.71 255.125 117.074 258.099 120.05C261.716 123.664 265.893 126.669 270.469 128.95Z" fill="#4CE467"/>
<path d="M104.687 151.98C114.097 154.74 122.977 157.34 130.107 164.46C137.237 171.58 139.827 180.46 142.587 189.88C145.587 200.27 148.777 211.02 157.987 220.23C161.6 223.827 165.766 226.822 170.327 229.1C171.777 229.84 173.237 230.5 174.717 231.1L175.087 231.24C175.637 231.47 176.187 231.69 176.747 231.9L177.927 232.33L178.717 232.61L180.327 233.17L180.537 233.24C183.137 234.1 185.727 234.86 188.287 235.61C197.697 238.37 206.577 240.97 213.697 248.09C220.817 255.21 223.417 264.09 226.177 273.51C227.107 276.68 228.057 279.91 229.177 283.13C229.257 283.33 229.327 283.54 229.407 283.74L229.887 285.07L230.457 286.52L230.687 287.09C231.287 288.56 231.957 290.01 232.687 291.46C232.685 291.477 232.685 291.494 232.687 291.51C234.966 296.071 237.96 300.237 241.557 303.85C250.767 313.06 261.557 316.21 271.907 319.25C281.317 322.01 290.207 324.61 297.327 331.73C304.447 338.85 307.047 347.73 309.807 357.15C312.807 367.55 315.997 378.29 325.207 387.51C327.064 389.342 329.071 391.014 331.207 392.51L331.207 387.51C330.106 386.618 329.051 385.67 328.047 384.67C319.557 376.18 316.557 365.93 313.657 356.02C310.757 346.11 308.007 336.74 300.167 328.89C292.327 321.04 282.957 318.31 273.037 315.4C263.117 312.49 252.887 309.5 244.387 301.01C240.943 297.53 238.101 293.502 235.977 289.09C235.977 289.02 235.907 288.94 235.867 288.86C233.445 283.537 231.481 278.017 229.997 272.36C227.087 262.45 224.347 253.08 216.507 245.24C208.667 237.4 199.297 234.66 189.387 231.75C183.733 230.266 178.217 228.302 172.897 225.88L172.647 225.77C168.24 223.644 164.215 220.802 160.737 217.36C152.247 208.86 149.247 198.62 146.347 188.71C143.447 178.8 140.697 169.43 132.857 161.58C125.017 153.73 115.647 151 105.727 148.09C95.807 145.18 85.5671 142.19 77.077 133.7C70.007 126.62 66.737 118.32 64.167 110.02L59.987 110.02C62.757 119.19 66.167 128.44 74.247 136.52C83.547 145.79 94.287 148.94 104.687 151.98Z" fill="#4CE467"/>
<path d="M163.488 131.08C170.608 138.2 173.208 147.08 175.968 156.5C178.968 166.9 182.158 177.64 191.368 186.85C194.981 190.447 199.148 193.442 203.708 195.72L203.758 195.72C205.205 196.453 206.668 197.12 208.148 197.72L208.518 197.86C209.068 198.09 209.618 198.31 210.178 198.52L211.368 198.95L212.138 199.23L213.788 199.79L213.948 199.85C216.548 200.71 219.158 201.48 221.718 202.23C231.128 204.99 240.008 207.59 247.128 214.7C254.248 221.81 256.848 230.7 259.608 240.14C260.368 242.72 261.138 245.33 262.008 247.96L262.608 249.72C262.688 249.93 262.768 250.14 262.838 250.35L263.318 251.67C263.508 252.16 263.708 252.67 263.898 253.15C263.978 253.33 264.048 253.51 264.118 253.69C264.718 255.15 265.378 256.61 266.118 258.04L266.118 258.11C268.389 262.673 271.381 266.839 274.978 270.45C284.188 279.66 294.928 282.81 305.328 285.85C314.738 288.61 323.628 291.21 330.748 298.33C330.918 298.5 331.068 298.68 331.238 298.85L331.238 293.37C323.898 287.14 315.398 284.63 306.448 282.01C296.538 279.11 286.298 276.11 277.798 267.62C274.354 264.14 271.512 260.112 269.388 255.7L269.288 255.49C266.869 250.158 264.902 244.632 263.408 238.97C260.498 229.05 257.758 219.69 249.918 211.84C242.078 204 232.718 201.25 222.798 198.35C217.153 196.865 211.643 194.905 206.328 192.49L206.058 192.36C201.65 190.239 197.625 187.401 194.148 183.96C185.658 175.46 182.658 165.22 179.758 155.3C176.858 145.38 174.108 136.03 166.268 128.18C158.428 120.33 149.058 117.6 139.138 114.69C134.417 113.402 129.775 111.836 125.238 110L116.428 110C123.368 114.23 130.778 116.41 138.018 118.53C147.478 121.32 156.368 123.96 163.488 131.08Z" fill="#4CE467"/>
<path d="M102.558 422.68L102.448 422.47C100.026 417.14 98.0624 411.614 96.5785 405.95C93.6685 396.04 90.9285 386.67 83.0785 378.83C75.2385 370.98 65.8685 368.24 55.9485 365.33C50.2954 363.845 44.7788 361.881 39.4585 359.46L39.2184 359.35C34.8064 357.232 30.7807 354.389 27.3085 350.94C18.8185 342.45 15.8185 332.2 12.9085 322.29C10.0985 312.67 7.41841 303.58 0.108411 295.89L0.108411 302.12C4.67841 308.42 6.82841 315.74 9.10841 323.42C12.1084 333.81 15.3084 344.55 24.5184 353.77C28.1344 357.361 32.3 360.352 36.8584 362.63L36.9185 362.63C38.3685 363.36 39.8285 364.02 41.2985 364.63L41.7484 364.81L43.3185 365.43L44.5685 365.88L45.2784 366.14L46.9585 366.71L47.0884 366.76C49.6984 367.62 52.3084 368.39 54.8784 369.15C64.2784 371.9 73.1685 374.5 80.2885 381.62C87.4085 388.74 90.0084 397.62 92.7684 407.05C93.5184 409.62 94.2884 412.23 95.1584 414.85L95.1584 414.92C95.3485 415.5 95.5384 416.07 95.7484 416.64C95.8184 416.87 95.9084 417.09 95.9884 417.31C96.1384 417.74 96.2985 418.17 96.4585 418.6C96.6185 419.03 96.8485 419.6 97.0485 420.1L97.2584 420.62C97.8584 422.08 98.5184 423.54 99.2584 424.98L99.2584 425.04C101.539 429.594 104.53 433.756 108.118 437.37C109.5 438.743 110.967 440.029 112.508 441.22L119.648 441.22C116.473 439.377 113.549 437.132 110.948 434.54C107.514 431.079 104.679 427.071 102.558 422.68Z" fill="#4CE467"/>
<path d="M4.5381 252.12C13.9481 254.88 22.8382 257.48 29.9581 264.6C37.0781 271.72 39.6881 280.6 42.4381 290.02C45.4381 300.42 48.638 311.16 57.848 320.38C61.464 323.971 65.6298 326.962 70.1881 329.24C71.6381 329.97 73.0981 330.63 74.5681 331.24L74.9381 331.38C75.4981 331.61 76.048 331.83 76.608 332.04L77.7881 332.47L78.5681 332.76L80.1881 333.31L80.3881 333.38C82.9881 334.24 85.5881 335.01 88.1481 335.76C97.5581 338.51 106.438 341.11 113.558 348.23C120.678 355.35 123.278 364.23 126.028 373.65C126.788 376.23 127.568 378.85 128.438 381.48C128.628 382.06 128.828 382.64 129.038 383.23C129.108 383.44 129.188 383.66 129.268 383.88L129.748 385.18C129.938 385.68 130.138 386.18 130.338 386.67C130.408 386.85 130.468 387.02 130.548 387.2C131.148 388.66 131.808 390.12 132.548 391.56L132.548 391.62C134.826 396.178 137.817 400.344 141.408 403.96C150.628 413.17 161.408 416.32 171.768 419.36C181.178 422.12 190.058 424.73 197.188 431.85C199.894 434.591 202.149 437.743 203.868 441.19L208.328 441.19C206.312 436.665 203.493 432.541 200.008 429.02C192.168 421.17 182.808 418.43 172.888 415.52C162.968 412.61 152.728 409.62 144.238 401.13C140.826 397.68 138.008 393.69 135.898 389.32L135.788 389.1C133.367 383.773 131.404 378.25 129.918 372.59C127.008 362.68 124.268 353.31 116.418 345.47C108.578 337.63 99.2081 334.89 89.2981 331.98C83.6433 330.493 78.1238 328.533 72.7981 326.12L72.5581 326C68.1481 323.878 64.1228 321.036 60.6481 317.59C52.1581 309.1 49.1581 298.85 46.2481 288.94C43.3381 279.03 40.6081 269.66 32.7581 261.82C24.9081 253.98 15.5481 251.23 5.63808 248.32C3.78807 247.78 1.92813 247.24 0.0681322 246.65L0.0681319 250.84L4.5381 252.12Z" fill="#4CE467"/>
<path d="M49.6996 412.21C41.8496 404.36 32.4896 401.62 22.5696 398.71C16.918 397.223 11.4019 395.263 6.07959 392.85L5.83948 392.729C3.85533 391.756 1.94079 390.647 0.109502 389.41L0.109501 394.169C1.2095 394.829 2.31958 395.44 3.43958 396.01L3.49952 396.01C4.94952 396.74 6.40952 397.4 7.87952 398.01L8.28955 398.169L9.90955 398.81L11.1195 399.25L11.8695 399.52L13.5195 400.09L13.6896 400.14C16.2896 401.01 18.8896 401.78 21.4596 402.53C30.8596 405.28 39.7495 407.88 46.8695 415C53.9895 422.12 56.5895 431 59.3495 440.43L59.5895 441.25L63.7695 441.25C63.5795 440.6 63.3796 439.95 63.1896 439.3C60.2896 429.42 57.5496 420.05 49.6996 412.21Z" fill="#4CE467"/>
<path d="M0.0974122 439.89C1.16741 440.32 2.21744 440.78 3.24744 441.28L11.1875 441.28C7.74776 438.917 4.02103 437.001 0.0974126 435.58L0.0974122 439.89Z" fill="#4CE467"/>
<path d="M7.57058 203.32C16.7906 212.53 27.5706 215.68 37.9306 218.72C47.3306 221.48 56.2205 224.08 63.3505 231.2C70.4805 238.32 73.0706 247.2 75.8306 256.62C78.8306 267.02 82.0205 277.76 91.2305 286.98C94.8464 290.571 99.0122 293.562 103.571 295.84C105.021 296.58 106.481 297.24 107.961 297.84L108.311 297.98C108.871 298.213 109.43 298.433 109.99 298.64L111.171 299.07L111.961 299.35C112.501 299.55 113.041 299.73 113.581 299.91L113.771 299.97C116.371 300.84 118.971 301.6 121.531 302.36C130.941 305.11 139.821 307.71 146.941 314.83C154.061 321.95 156.661 330.83 159.421 340.26C160.351 343.43 161.301 346.65 162.421 349.87L162.631 350.47C162.791 350.92 162.95 351.37 163.12 351.82C163.29 352.27 163.501 352.82 163.701 353.28C163.771 353.46 163.841 353.65 163.921 353.83C164.521 355.297 165.187 356.753 165.921 358.2C168.199 362.758 171.19 366.924 174.781 370.54C184.001 379.75 194.781 382.9 205.141 385.94C214.551 388.7 223.441 391.3 230.561 398.42C237.681 405.54 240.281 414.42 243.041 423.85C244.602 429.783 246.669 435.571 249.22 441.15L253.73 441.15C250.54 435.21 248.73 428.9 246.88 422.72C243.97 412.81 241.23 403.44 233.38 395.6C225.53 387.76 216.181 385.01 206.261 382.1C196.341 379.19 186.1 376.2 177.61 367.71C174.166 364.23 171.324 360.202 169.201 355.79L169.09 355.57C166.67 350.243 164.706 344.72 163.22 339.06C160.31 329.15 157.57 319.78 149.73 311.94C141.89 304.1 132.52 301.36 122.61 298.45C116.962 296.963 111.449 295.003 106.131 292.59L105.87 292.47C101.46 290.348 97.4353 287.506 93.9606 284.06C85.4706 275.57 82.4706 265.32 79.5606 255.41C76.6506 245.5 73.9206 236.13 66.0706 228.28C58.2206 220.43 48.8606 217.7 38.9506 214.79C29.0406 211.88 18.7906 208.89 10.3006 200.4C5.77964 195.774 2.27177 190.256 0.000510745 184.2L0.000509937 193.44C2.06917 197.058 4.61544 200.381 7.57058 203.32Z" fill="#4CE467"/>
</g>
</svg>
